ply
format ascii 1.0
comment SIMULATED DEMO - NOT FIELD EVIDENCE
element vertex 900
property float x
property float y
property float z
property uchar red
property uchar green
property uchar blue
end_header
0.25999 0.00262 -0.00824 122 83 55
0.24751 0.07961 -0.00689 122 83 55
0.21029 0.15290 -0.00169 122 83 55
0.15110 0.21159 -0.00953 122 83 55
0.07897 0.24772 -0.00512 122 83 55
-0.00364 0.25997 0.00898 122 83 55
-0.08002 0.24738 0.00187 122 83 55
-0.15645 0.20766 -0.00197 122 83 55
-0.21194 0.15061 0.01206 122 83 55
-0.24583 0.08465 0.00169 122 83 55
-0.25998 0.00329 -0.00678 122 83 55
-0.24691 -0.08147 0.00925 122 83 55
-0.21257 -0.14971 0.00688 122 83 55
-0.15449 -0.20912 -0.00857 122 83 55
-0.07844 -0.24789 -0.00343 122 83 55
0.00449 -0.25996 -0.00844 122 83 55
0.08173 -0.24682 0.00542 122 83 55
0.15608 -0.20794 -0.00294 122 83 55
0.21150 -0.15122 -0.01090 122 83 55
0.24793 -0.07830 -0.00219 122 83 55
0.27160 -0.00046 0.11631 122 83 55
0.25904 0.08162 0.11440 122 83 55
0.21758 0.16255 0.11550 122 83 55
0.15904 0.22016 0.12032 122 83 55
0.08168 0.25902 0.12733 122 83 55
-0.00402 0.27157 0.10852 122 83 55
-0.08219 0.25886 0.12916 122 83 55
-0.16360 0.21679 0.10898 122 83 55
-0.21995 0.15933 0.12861 122 83 55
-0.25891 0.08205 0.12015 122 83 55
-0.27156 -0.00412 0.10985 122 83 55
-0.25687 -0.08820 0.12843 122 83 55
-0.22082 -0.15813 0.11233 122 83 55
-0.15702 -0.22161 0.11108 122 83 55
-0.08010 -0.25951 0.10798 122 83 55
0.00253 -0.27158 0.12921 122 83 55
0.08338 -0.25848 0.12408 122 83 55
0.16094 -0.21878 0.12368 122 83 55
0.22251 -0.15574 0.11545 122 83 55
0.25781 -0.08543 0.10813 122 83 55
0.27771 -0.00415 0.24064 122 83 55
0.26548 0.08159 0.22948 122 83 55
0.22250 0.16623 0.23804 122 83 55
0.16205 0.22556 0.23256 122 83 55
0.08323 0.26497 0.24946 122 83 55
0.00162 0.27773 0.24177 122 83 55
-0.08636 0.26397 0.24435 122 83 55
-0.16225 0.22542 0.22886 122 83 55
-0.22401 0.16419 0.22965 122 83 55
-0.26469 0.08414 0.24230 122 83 55
-0.27771 -0.00377 0.24131 122 83 55
-0.26491 -0.08344 0.23482 122 83 55
-0.22292 -0.16567 0.23450 122 83 55
-0.16022 -0.22687 0.24703 122 83 55
-0.08072 -0.26575 0.25131 122 83 55
-0.00046 -0.27774 0.24125 122 83 55
0.08435 -0.26462 0.25058 122 83 55
0.16430 -0.22393 0.23596 122 83 55
0.22726 -0.15967 0.24079 122 83 55
0.26280 -0.08985 0.24752 122 83 55
0.27549 0.00509 0.35847 122 83 55
0.26103 0.08824 0.37199 122 83 55
0.22254 0.16248 0.35046 122 83 55
0.15975 0.22450 0.35626 122 83 55
0.08514 0.26206 0.36994 122 83 55
0.00341 0.27552 0.35885 122 83 55
-0.08748 0.26128 0.35208 122 83 55
-0.15995 0.22436 0.35704 122 83 55
-0.22075 0.16490 0.36678 122 83 55
-0.26177 0.08600 0.36314 122 83 55
-0.27549 -0.00518 0.35679 122 83 55
-0.26030 -0.09036 0.34920 122 83 55
-0.22052 -0.16520 0.36616 122 83 55
-0.16208 -0.22282 0.35035 122 83 55
-0.08978 -0.26050 0.34997 122 83 55
-0.00191 -0.27553 0.35364 122 83 55
0.09000 -0.26042 0.36253 122 83 55
0.15913 -0.22494 0.36002 122 83 55
0.22345 -0.16122 0.35273 122 83 55
0.26148 -0.08689 0.36380 122 83 55
0.26603 -0.00126 0.47113 122 83 55
0.25363 0.08027 0.46990 122 83 55
0.21225 0.16038 0.48493 122 83 55
0.15953 0.21289 0.48555 122 83 55
0.07754 0.25448 0.47304 122 83 55
-0.00189 0.26602 0.47425 122 83 55
-0.08474 0.25217 0.47974 122 83 55
-0.15246 0.21801 0.49129 122 83 55
-0.21313 0.15921 0.48676 122 83 55
-0.25453 0.07737 0.47608 122 83 55
-0.26601 0.00343 0.47477 122 83 55
-0.25257 -0.08356 0.48799 122 83 55
-0.21762 -0.15301 0.49144 122 83 55
-0.15720 -0.21462 0.46860 122 83 55
-0.08592 -0.25177 0.47982 122 83 55
-0.00057 -0.26603 0.47442 122 83 55
0.08576 -0.25183 0.47656 122 83 55
0.15320 -0.21749 0.48063 122 83 55
0.21432 -0.15760 0.47112 122 83 55
0.25362 -0.08029 0.48729 122 83 55
0.25364 -0.00465 0.59325 122 83 55
0.24096 0.07933 0.61109 122 83 55
0.20223 0.15316 0.61215 122 83 55
0.14802 0.20602 0.61159 122 83 55
0.07477 0.24242 0.60717 122 83 55
-0.00063 0.25369 0.60257 122 83 55
-0.07793 0.24142 0.60105 122 83 55
-0.15208 0.20305 0.60490 122 83 55
-0.20429 0.15041 0.60290 122 83 55
-0.23978 0.08283 0.60398 122 83 55
-0.25369 -0.00044 0.59456 122 83 55
-0.24177 -0.07683 0.61083 122 83 55
-0.20339 -0.15162 0.58995 122 83 55
-0.14505 -0.20813 0.59722 122 83 55
-0.07364 -0.24276 0.60857 122 83 55
-0.00250 -0.25367 0.61147 122 83 55
0.08214 -0.24002 0.61031 122 83 55
0.15208 -0.20305 0.58791 122 83 55
0.20348 -0.15150 0.59517 122 83 55
0.24197 -0.07619 0.59394 122 83 55
0.24431 0.00160 0.72255 122 83 55
0.23107 0.07935 0.71027 122 83 55
0.19823 0.14280 0.72128 122 83 55
0.14521 0.19647 0.73095 122 83 55
0.07860 0.23132 0.71248 122 83 55
0.00120 0.24431 0.72092 122 83 55
-0.07995 0.23086 0.72390 122 83 55
-0.14133 0.19929 0.72549 122 83 55
-0.19601 0.14584 0.73043 122 83 55
-0.23207 0.07637 0.73187 122 83 55
-0.24430 0.00188 0.71684 122 83 55
-0.23211 -0.07624 0.71957 122 83 55
-0.19733 -0.14405 0.73000 122 83 55
-0.14068 -0.19974 0.70750 122 83 55
-0.07351 -0.23299 0.72406 122 83 55
-0.00229 -0.24430 0.71694 122 83 55
0.07362 -0.23296 0.70846 122 83 55
0.14689 -0.19522 0.72565 122 83 55
0.19974 -0.14068 0.71459 122 83 55
0.23284 -0.07399 0.71999 122 83 55
0.24231 0.00171 0.84865 122 83 55
0.23072 0.07408 0.82770 122 83 55
0.19640 0.14194 0.83893 122 83 55
0.14454 0.19449 0.83064 122 83 55
0.07829 0.22932 0.83748 122 83 55
0.00378 0.24229 0.83281 122 83 55
-0.07087 0.23172 0.84211 122 83 55
-0.14536 0.19387 0.84031 122 83 55
-0.19703 0.14106 0.83596 122 83 55
-0.23105 0.07302 0.84114 122 83 55
-0.24231 -0.00165 0.82826 122 83 55
-0.23153 -0.07148 0.83395 122 83 55
-0.19538 -0.14334 0.85085 122 83 55
-0.14125 -0.19689 0.85118 122 83 55
-0.07916 -0.22902 0.85175 122 83 55
-0.00342 -0.24229 0.83315 122 83 55
0.07531 -0.23032 0.83277 122 83 55
0.14508 -0.19408 0.84112 122 83 55
0.19736 -0.14059 0.83489 122 83 55
0.23045 -0.07490 0.82828 122 83 55
0.24863 0.00173 0.95101 122 83 55
0.23785 0.07243 0.96428 122 83 55
0.20197 0.14502 0.96222 122 83 55
0.14369 0.20291 0.94971 122 83 55
0.07729 0.23632 0.96977 122 83 55
0.00334 0.24861 0.95863 122 83 55
-0.07269 0.23778 0.95130 122 83 55
-0.14342 0.20311 0.95312 122 83 55
-0.20135 0.14588 0.95106 122 83 55
-0.23615 0.07780 0.97036 122 83 55
-0.24864 0.00096 0.95015 122 83 55
-0.23680 -0.07580 0.96882 122 83 55
-0.20390 -0.14228 0.95910 122 83 55
-0.14970 -0.19852 0.96648 122 83 55
-0.07665 -0.23653 0.96117 122 83 55
-0.00415 -0.24860 0.96517 122 83 55
0.07262 -0.23780 0.96631 122 83 55
0.14468 -0.20220 0.96152 122 83 55
0.20177 -0.14529 0.96665 122 83 55
0.23640 -0.07703 0.95103 122 83 55
0.26030 0.00185 1.08587 122 83 55
0.24674 0.08294 1.08329 122 83 55
0.20933 0.15472 1.08090 122 83 55
0.15594 0.20842 1.09234 122 83 55
0.08493 0.24606 1.08083 122 83 55
-0.00152 0.26030 1.07770 122 83 55
-0.08347 0.24656 1.07886 122 83 55
-0.15286 0.21069 1.06765 122 83 55
-0.21321 0.14933 1.07477 122 83 55
-0.24645 0.08378 1.07761 122 83 55
-0.26029 0.00238 1.07627 122 83 55
-0.24912 -0.07547 1.08784 122 83 55
-0.21022 -0.15350 1.08904 122 83 55
-0.15468 -0.20936 1.08580 122 83 55
-0.07993 -0.24773 1.08652 122 83 55
-0.00033 -0.26030 1.07981 122 83 55
0.08259 -0.24685 1.08159 122 83 55
0.15444 -0.20954 1.07195 122 83 55
0.20897 -0.15521 1.07890 122 83 55
0.24862 -0.07712 1.08426 122 83 55
0.27181 -0.00299 1.21227 122 83 55
0.25987 0.07973 1.20872 122 83 55
0.22051 0.15895 1.18854 122 83 55
0.15562 0.22287 1.19255 122 83 55
0.08211 0.25913 1.20982 122 83 55
-0.00504 0.27178 1.19686 122 83 55
-0.08187 0.25920 1.20286 122 83 55
-0.15732 0.22167 1.19760 122 83 55
-0.22021 0.15937 1.19029 122 83 55
-0.25859 0.08378 1.20441 122 83 55
-0.27181 0.00249 1.19957 122 83 55
-0.25752 -0.08704 1.20885 122 83 55
-0.21982 -0.15991 1.20216 122 83 55
-0.15690 -0.22197 1.19497 122 83 55
-0.08783 -0.25725 1.21126 122 83 55
0.00453 -0.27179 1.20633 122 83 55
0.08113 -0.25944 1.19790 122 83 55
0.16081 -0.21915 1.19496 122 83 55
0.22112 -0.15810 1.19154 122 83 55
0.25966 -0.08041 1.20872 122 83 55
0.27777 -0.00275 1.33216 122 83 55
0.26254 0.09076 1.32508 122 83 55
0.22327 0.16528 1.30774 122 83 55
0.16174 0.22585 1.33050 122 83 55
0.08630 0.26404 1.31150 122 83 55
-0.00253 0.27778 1.32065 122 83 55
-0.08232 0.26531 1.31022 122 83 55
-0.16712 0.22189 1.32822 122 83 55
-0.22533 0.16245 1.32071 122 83 55
-0.26528 0.08240 1.31620 122 83 55
-0.27778 -0.00198 1.32811 122 83 55
-0.26571 -0.08102 1.31074 122 83 55
-0.22624 -0.16119 1.32563 122 83 55
-0.16478 -0.22364 1.31899 122 83 55
-0.08609 -0.26411 1.31681 122 83 55
0.00073 -0.27779 1.31359 122 83 55
0.08272 -0.26518 1.32762 122 83 55
0.16222 -0.22550 1.32164 122 83 55
0.22485 -0.16311 1.33185 122 83 55
0.26323 -0.08876 1.31237 122 83 55
0.27536 0.00339 1.44453 122 83 55
0.26062 0.08896 1.42883 122 83 55
0.21969 0.16605 1.42949 122 83 55
0.15915 0.22474 1.45025 122 83 55
0.08981 0.26033 1.44323 122 83 55
-0.00529 0.27533 1.44804 122 83 55
-0.07995 0.26352 1.44372 122 83 55
-0.16473 0.22068 1.42945 122 83 55
-0.22388 0.16036 1.44874 122 83 55
-0.26202 0.08475 1.44437 122 83 55
-0.27535 -0.00450 1.43997 122 83 55
-0.26345 -0.08018 1.44189 122 83 55
-0.22162 -0.16347 1.42990 122 83 55
-0.16519 -0.22034 1.43444 122 83 55
-0.08542 -0.26180 1.44528 122 83 55
0.00231 -0.27537 1.43881 122 83 55
0.08192 -0.26292 1.43662 122 83 55
0.15826 -0.22537 1.44428 122 83 55
0.22436 -0.15968 1.43007 122 83 55
0.26289 -0.08201 1.43953 122 83 55
0.26574 0.00069 1.56363 122 83 55
0.25336 0.08017 1.55637 122 83 55
0.21759 0.15255 1.56648 122 83 55
0.15355 0.21689 1.55418 122 83 55
0.07899 0.25373 1.56592 122 83 55
-0.00236 0.26573 1.57069 122 83 55
-0.08173 0.25286 1.56326 122 83 55
-0.15706 0.21436 1.57059 122 83 55
-0.21433 0.15711 1.55060 122 83 55
-0.25374 0.07897 1.55487 122 83 55
-0.26572 0.00324 1.55223 122 83 55
-0.25135 -0.08628 1.55518 122 83 55
-0.21624 -0.15446 1.57039 122 83 55
-0.15389 -0.21665 1.55834 122 83 55
-0.07835 -0.25393 1.55127 122 83 55
0.00252 -0.26573 1.56793 122 83 55
0.08106 -0.25308 1.56871 122 83 55
0.15642 -0.21483 1.56561 122 83 55
0.21602 -0.15477 1.55393 122 83 55
0.25276 -0.08206 1.56643 122 83 55
0.25338 -0.00351 1.67625 122 83 55
0.24067 0.07933 1.68856 122 83 55
0.20238 0.15249 1.67058 122 83 55
0.15235 0.20249 1.67394 122 83 55
0.07692 0.24145 1.68419 122 83 55
-0.00264 0.25339 1.67287 122 83 55
-0.07483 0.24210 1.67108 122 83 55
-0.14950 0.20461 1.68659 122 83 55
-0.20716 0.14594 1.66886 122 83 55
-0.24080 0.07891 1.66838 122 83 55
-0.25337 0.00437 1.67906 122 83 55
-0.23966 -0.08233 1.66958 122 83 55
-0.20575 -0.14792 1.66813 122 83 55
-0.15257 -0.20233 1.68868 122 83 55
-0.07945 -0.24063 1.66777 122 83 55
-0.00119 -0.25340 1.69245 122 83 55
0.07582 -0.24179 1.68419 122 83 55
0.14561 -0.20739 1.68459 122 83 55
0.20477 -0.14927 1.68246 122 83 55
0.24175 -0.07598 1.67846 122 83 55
0.24416 -0.00194 1.78805 122 83 55
0.23067 0.08004 1.80685 122 83 55
0.19708 0.14414 1.78932 122 83 55
0.14460 0.19675 1.79295 122 83 55
0.07334 0.23289 1.80045 122 83 55
-0.00360 0.24414 1.80778 122 83 55
-0.07433 0.23258 1.80103 122 83 55
-0.14016 0.19993 1.79588 122 83 55
-0.19990 0.14020 1.79947 122 83 55
-0.23073 0.07988 1.80704 122 83 55
-0.24416 -0.00159 1.80380 122 83 55
-0.23113 -0.07872 1.80828 122 83 55
-0.19639 -0.14507 1.80461 122 83 55
-0.14507 -0.19640 1.79642 122 83 55
-0.07551 -0.23220 1.81106 122 83 55
-0.00202 -0.24416 1.79291 122 83 55
0.07841 -0.23123 1.81246 122 83 55
0.14149 -0.19899 1.80879 122 83 55
0.19819 -0.14261 1.79361 122 83 55
0.23352 -0.07132 1.79891 122 83 55
0.24236 0.00283 1.90896 122 83 55
0.23189 0.07051 1.92593 122 83 55
0.19791 0.13991 1.91143 122 83 55
0.14319 0.19556 1.92048 122 83 55
0.07937 0.22901 1.90820 122 83 55
0.00240 0.24236 1.92563 122 83 55
-0.07746 0.22966 1.92201 122 83 55
-0.14077 0.19730 1.91969 122 83 55
-0.19445 0.14469 1.91773 122 83 55
-0.23065 0.07448 1.91771 122 83 55
-0.24235 -0.00312 1.91520 122 83 55
-0.22926 -0.07864 1.91336 122 83 55
-0.19762 -0.14032 1.93056 122 83 55
-0.13904 -0.19853 1.91913 122 83 55
-0.07788 -0.22952 1.92472 122 83 55
0.00389 -0.24234 1.92389 122 83 55
0.07073 -0.23182 1.91858 122 83 55
0.13912 -0.19848 1.91823 122 83 55
0.19412 -0.14513 1.91614 122 83 55
0.23068 -0.07438 1.91930 122 83 55
0.24886 -0.00268 2.02766 122 83 55
0.23736 0.07481 2.02794 122 83 55
0.19945 0.14885 2.05148 122 83 55
0.15027 0.19838 2.04225 122 83 55
0.07623 0.23691 2.04921 122 83 55
0.00159 0.24887 2.02810 122 83 55
-0.07745 0.23651 2.03033 122 83 55
-0.14392 0.20304 2.02809 122 83 55
-0.19918 0.14921 2.04341 122 83 55
-0.23575 0.07976 2.04687 122 83 55
-0.24883 0.00475 2.03258 122 83 55
-0.23579 -0.07963 2.03707 122 83 55
-0.20097 -0.14679 2.03890 122 83 55
-0.14717 -0.20070 2.03111 122 83 55
-0.07830 -0.23624 2.03769 122 83 55
0.00120 -0.24887 2.05055 122 83 55
0.07896 -0.23602 2.03410 122 83 55
0.14494 -0.20231 2.03095 122 83 55
0.20257 -0.14457 2.04547 122 83 55
0.23600 -0.07902 2.03127 122 83 55
0.26060 0.00127 2.15008 122 83 55
0.24813 0.07966 2.14830 122 83 55
0.21299 0.15016 2.14854 122 83 55
0.15513 0.20940 2.14769 122 83 55
0.07829 0.24857 2.15995 122 83 55
-0.00388 0.26058 2.14950 122 83 55
-0.08292 0.24706 2.15626 122 83 55
-0.14981 0.21324 2.16242 122 83 55
-0.21068 0.15338 2.16988 122 83 55
-0.24799 0.08011 2.16701 122 83 55
-0.26057 0.00399 2.17022 122 83 55
-0.24894 -0.07709 2.15968 122 83 55
-0.21267 -0.15062 2.15166 122 83 55
-0.15440 -0.20994 2.16517 122 83 55
-0.08346 -0.24688 2.16136 122 83 55
-0.00168 -0.26060 2.16184 122 83 55
0.07851 -0.24850 2.15174 122 83 55
0.15473 -0.20970 2.16999 122 83 55
0.20992 -0.15443 2.14858 122 83 55
0.24823 -0.07935 2.15999 122 83 55
0.27204 0.00289 2.27700 122 83 55
0.25875 0.08401 2.28804 122 83 55
0.21852 0.16206 2.27896 122 83 55
0.16165 0.21882 2.28364 122 83 55
0.08913 0.25704 2.28190 122 83 55
0.00206 0.27204 2.28939 122 83 55
-0.08028 0.25994 2.28456 122 83 55
-0.15691 0.22224 2.28441 122 83 55
-0.22310 0.15569 2.28235 122 83 55
-0.26031 0.07905 2.27963 122 83 55
-0.27202 -0.00407 2.29068 122 83 55
-0.25917 -0.08272 2.28381 122 83 55
-0.21941 -0.16085 2.27102 122 83 55
-0.16179 -0.21871 2.28589 122 83 55
-0.08638 -0.25798 2.27580 122 83 55
-0.00281 -0.27204 2.28511 122 83 55
0.08507 -0.25841 2.28428 122 83 55
0.15821 -0.22132 2.28201 122 83 55
0.21867 -0.16186 2.28303 122 83 55
0.25970 -0.08104 2.27424 122 83 55
0.27783 -0.00041 2.39571 122 83 55
0.26363 0.08768 2.40271 122 83 55
0.22530 0.16257 2.40814 122 83 55
0.16686 0.22214 2.40973 122 83 55
0.08126 0.26568 2.41110 122 83 55
-0.00068 0.27783 2.39685 122 83 55
-0.08195 0.26547 2.38909 122 83 55
-0.16333 0.22475 2.40180 122 83 55
-0.22569 0.16202 2.39011 122 83 55
-0.26440 0.08534 2.39472 122 83 55
-0.27783 0.00170 2.39723 122 83 55
-0.26398 -0.08662 2.40541 122 83 55
-0.22710 -0.16005 2.39441 122 83 55
-0.16549 -0.22317 2.38946 122 83 55
-0.08680 -0.26393 2.40496 122 83 55
0.00483 -0.27779 2.40244 122 83 55
0.08283 -0.26520 2.41244 122 83 55
0.16611 -0.22270 2.40747 122 83 55
0.22351 -0.16502 2.40505 122 83 55
0.26553 -0.08175 2.39789 122 83 55
0.27522 0.00033 2.51070 122 83 55
0.26296 0.08123 2.51789 122 83 55
0.22453 0.15917 2.53141 122 83 55
0.15884 0.22476 2.53019 122 83 55
0.08434 0.26198 2.51160 122 83 55
0.00542 0.27517 2.53124 122 83 55
-0.08313 0.26237 2.53152 122 83 55
-0.16175 0.22267 2.52053 122 83 55
-0.22517 0.15826 2.52288 122 83 55
-0.26336 0.07993 2.51196 122 83 55
-0.27518 0.00504 2.51537 122 83 55
-0.26326 -0.08026 2.51128 122 83 55
-0.22123 -0.16372 2.51865 122 83 55
-0.16514 -0.22017 2.53016 122 83 55
-0.08533 -0.26166 2.53101 122 83 55
0.00421 -0.27519 2.51842 122 83 55
0.08821 -0.26070 2.52186 122 83 55
0.16138 -0.22294 2.52733 122 83 55
0.22051 -0.16470 2.51657 122 83 55
0.26135 -0.08628 2.52314 122 83 55
0.26545 0.00137 2.63847 122 83 55
0.25279 0.08103 2.64620 122 83 55
0.21619 0.15405 2.62896 122 83 55
0.15722 0.21389 2.65238 122 83 55
0.07765 0.25385 2.64310 122 83 55
-0.00376 0.26543 2.64957 122 83 55
-0.08606 0.25112 2.64904 122 83 55
-0.15506 0.21546 2.64852 122 83 55
-0.21483 0.15593 2.64125 122 83 55
-0.25139 0.08526 2.62830 122 83 55
-0.26542 -0.00435 2.63840 122 83 55
-0.25110 -0.08611 2.62809 122 83 55
-0.21558 -0.15489 2.63316 122 83 55
-0.15192 -0.21769 2.64824 122 83 55
-0.07791 -0.25376 2.64768 122 83 55
-0.00358 -0.26543 2.62954 122 83 55
0.07848 -0.25359 2.62910 122 83 55
0.15748 -0.21370 2.63637 122 83 55
0.21548 -0.15504 2.65150 122 83 55
0.25392 -0.07742 2.65011 122 83 55
0.25309 0.00420 2.76633 122 83 55
0.23942 0.08215 2.75590 122 83 55
0.20455 0.14910 2.75987 122 83 55
0.15135 0.20289 2.77173 122 83 55
0.08107 0.23979 2.75257 122 83 55
-0.00289 0.25311 2.77042 122 83 55
-0.08247 0.23931 2.75621 122 83 55
-0.14654 0.20639 2.75097 122 83 55
-0.20430 0.14945 2.76109 122 83 55
-0.24180 0.07484 2.77222 122 83 55
-0.25310 0.00367 2.76196 122 83 55
-0.24191 -0.07450 2.74809 122 83 55
-0.20461 -0.14902 2.75225 122 83 55
-0.14502 -0.20746 2.74956 122 83 55
-0.08213 -0.23943 2.75271 122 83 55
0.00029 -0.25312 2.77017 122 83 55
0.07409 -0.24204 2.77175 122 83 55
0.15213 -0.20231 2.76804 122 83 55
0.20384 -0.15006 2.75091 122 83 55
0.24107 -0.07716 2.75321 122 83 55
0.24402 -0.00016 2.87531 122 83 55
0.23074 0.07943 2.89108 122 83 55
0.19899 0.14125 2.87009 122 83 55
0.14287 0.19783 2.88335 122 83 55
0.07328 0.23276 2.88000 122 83 55
-0.00427 0.24399 2.88939 122 83 55
-0.07458 0.23235 2.88578 122 83 55
-0.14056 0.19948 2.88224 122 83 55
-0.19595 0.14543 2.89207 122 83 55
-0.23241 0.07438 2.88955 122 83 55
-0.24401 -0.00262 2.88282 122 83 55
-0.23121 -0.07803 2.88126 122 83 55
-0.19904 -0.14118 2.88643 122 83 55
-0.14486 -0.19638 2.88662 122 83 55
-0.07519 -0.23215 2.87935 122 83 55
0.00282 -0.24401 2.88503 122 83 55
0.07189 -0.23319 2.88757 122 83 55
0.14598 -0.19554 2.87084 122 83 55
0.19877 -0.14155 2.87734 122 83 55
0.23090 -0.07896 2.87384 122 83 55
0.24243 0.00142 3.00216 122 83 55
0.22965 0.07769 2.99339 122 83 55
0.19838 0.13936 2.98965 122 83 55
0.14573 0.19375 2.99518 122 83 55
0.07159 0.23163 3.00311 122 83 55
0.00309 0.24242 2.99619 122 83 55
-0.07065 0.23192 2.99366 122 83 55
-0.14539 0.19401 2.99433 122 83 55
-0.19746 0.14066 2.99032 122 83 55
-0.22996 0.07677 3.00578 122 83 55
-0.24241 0.00369 3.01153 122 83 55
-0.22965 -0.07769 3.00905 122 83 55
-0.19346 -0.14612 3.00284 122 83 55
-0.13968 -0.19816 2.99128 122 83 55
-0.07224 -0.23143 2.99188 122 83 55
-0.00007 -0.24244 3.00328 122 83 55
0.07124 -0.23174 3.00771 122 83 55
0.14412 -0.19495 3.01135 122 83 55
0.19564 -0.14318 2.99322 122 83 55
0.23136 -0.07246 2.98990 122 83 55
0.24906 -0.00493 3.11530 122 83 55
0.23716 0.07624 3.12530 122 83 55
0.20079 0.14744 3.11876 122 83 55
0.14724 0.20094 3.11762 122 83 55
0.07607 0.23722 3.12127 122 83 55
-0.00214 0.24910 3.11817 122 83 55
-0.08170 0.23534 3.12791 122 83 55
-0.14788 0.20047 3.12188 122 83 55
-0.20405 0.14290 3.12500 122 83 55
-0.23735 0.07565 3.11499 122 83 55
-0.24907 0.00479 3.12429 122 83 55
-0.23603 -0.07966 3.11477 122 83 55
-0.20095 -0.14723 3.12470 122 83 55
-0.14545 -0.20224 3.10894 122 83 55
-0.07812 -0.23655 3.12029 122 83 55
0.00434 -0.24908 3.11414 122 83 55
0.07598 -0.23724 3.11397 122 83 55
0.14473 -0.20276 3.12873 122 83 55
0.20202 -0.14576 3.12824 122 83 55
0.23670 -0.07765 3.11163 122 83 55
0.26090 -0.00160 3.23001 122 83 55
0.24928 0.07704 3.24497 122 83 55
0.20886 0.15637 3.22811 122 83 55
0.15408 0.21055 3.22988 122 83 55
0.08522 0.24660 3.22832 122 83 55
-0.00499 0.26086 3.24059 122 83 55
-0.07954 0.24849 3.23676 122 83 55
-0.15356 0.21093 3.24370 122 83 55
-0.20939 0.15565 3.23406 122 83 55
-0.24721 0.08343 3.24533 122 83 55
-0.26088 -0.00373 3.22878 122 83 55
-0.24875 -0.07873 3.24040 122 83 55
-0.20909 -0.15606 3.24483 122 83 55
-0.14957 -0.21378 3.23437 122 83 55
-0.08273 -0.24744 3.23389 122 83 55
-0.00028 -0.26091 3.24411 122 83 55
0.07673 -0.24937 3.23516 122 83 55
0.15625 -0.20895 3.24086 122 83 55
0.20936 -0.15569 3.23589 122 83 55
0.24951 -0.07627 3.22920 122 83 55
0.27227 -0.00166 3.36247 122 83 55
0.25762 0.08812 3.35770 122 83 55
0.22219 0.15737 3.34816 122 83 55
0.15821 0.22159 3.34771 122 83 55
0.08264 0.25943 3.34961 122 83 55
-0.00401 0.27225 3.35323 122 83 55
-0.08453 0.25882 3.36578 122 83 55
-0.16049 0.21995 3.37097 122 83 55
-0.21803 0.16308 3.36899 122 83 55
-0.25978 0.08153 3.35108 122 83 55
-0.27227 0.00057 3.36913 122 83 55
-0.25895 -0.08412 3.37010 122 83 55
-0.21973 -0.16079 3.35325 122 83 55
-0.15734 -0.22221 3.34904 122 83 55
-0.08475 -0.25875 3.35412 122 83 55
-0.00385 -0.27225 3.36074 122 83 55
0.07926 -0.26048 3.35748 122 83 55
0.16069 -0.21980 3.35197 122 83 55
0.21745 -0.16386 3.36397 122 83 55
0.25986 -0.08129 3.36172 122 83 55
0.27783 -0.00452 3.47306 122 83 55
0.26374 0.08748 3.46884 122 83 55
0.22193 0.16721 3.47249 122 83 55
0.16530 0.22336 3.46788 122 83 55
0.08756 0.26371 3.46794 122 83 55
0.00253 0.27786 3.47379 122 83 55
-0.08162 0.26561 3.46901 122 83 55
-0.16712 0.22199 3.48689 122 83 55
-0.22186 0.16730 3.47868 122 83 55
-0.26496 0.08373 3.48122 122 83 55
-0.27786 -0.00219 3.46986 122 83 55
-0.26292 -0.08991 3.49018 122 83 55
-0.22597 -0.16171 3.47882 122 83 55
-0.16366 -0.22456 3.48505 122 83 55
-0.08123 -0.26573 3.48133 122 83 55
0.00134 -0.27787 3.47790 122 83 55
0.08473 -0.26464 3.47401 122 83 55
0.16199 -0.22577 3.48688 122 83 55
0.22411 -0.16428 3.48926 122 83 55
0.26275 -0.09041 3.48293 122 83 55
0.27506 -0.00104 3.59858 122 83 55
0.26234 0.08267 3.58839 122 83 55
0.22183 0.16263 3.60025 122 83 55
0.16057 0.22333 3.58904 122 83 55
0.08628 0.26118 3.58875 122 83 55
-0.00459 0.27502 3.59765 122 83 55
-0.09018 0.25986 3.60927 122 83 55
-0.16564 0.21959 3.58796 122 83 55
-0.22274 0.16139 3.60730 122 83 55
-0.26046 0.08841 3.59962 122 83 55
-0.27502 0.00445 3.59400 122 83 55
-0.26126 -0.08602 3.60069 122 83 55
-0.21965 -0.16556 3.59496 122 83 55
-0.16213 -0.22220 3.59060 122 83 55
-0.08930 -0.26016 3.61061 122 83 55
-0.00063 -0.27506 3.58770 122 83 55
0.08454 -0.26175 3.59818 122 83 55
0.16382 -0.22096 3.60182 122 83 55
0.22357 -0.16023 3.59119 122 83 55
0.26299 -0.08057 3.59836 122 83 55
0.26512 0.00516 3.72364 122 83 55
0.25207 0.08232 3.71206 122 83 55
0.21651 0.15309 3.71768 122 83 55
0.15933 0.21196 3.70928 122 83 55
0.08637 0.25071 3.71916 122 83 55
-0.00029 0.26517 3.72437 122 83 55
-0.07836 0.25332 3.72241 122 83 55
-0.15591 0.21449 3.72679 122 83 55
-0.21582 0.15406 3.73129 122 83 55
-0.25095 0.08565 3.73174 122 83 55
-0.26512 0.00513 3.71515 122 83 55
-0.25092 -0.08575 3.72853 122 83 55
-0.21344 -0.15734 3.71442 122 83 55
-0.15295 -0.21661 3.72203 122 83 55
-0.08411 -0.25147 3.71180 122 83 55
0.00104 -0.26516 3.71896 122 83 55
0.08595 -0.25085 3.71644 122 83 55
0.15457 -0.21546 3.72173 122 83 55
0.21702 -0.15236 3.71453 122 83 55
0.25058 -0.08675 3.72410 122 83 55
0.25284 -0.00127 3.84100 122 83 55
0.24030 0.07864 3.82900 122 83 55
0.20736 0.14468 3.84360 122 83 55
0.14779 0.20516 3.85019 122 83 55
0.08048 0.23969 3.83627 122 83 55
0.00212 0.25284 3.83559 122 83 55
-0.07340 0.24196 3.84567 122 83 55
-0.15113 0.20271 3.83150 122 83 55
-0.20345 0.15012 3.83534 122 83 55
-0.24182 0.07384 3.83798 122 83 55
-0.25282 -0.00327 3.82871 122 83 55
-0.23924 -0.08182 3.84218 122 83 55
-0.20333 -0.15029 3.84812 122 83 55
-0.14577 -0.20659 3.83743 122 83 55
-0.07649 -0.24100 3.84842 122 83 55
-0.00108 -0.25284 3.84716 122 83 55
0.07355 -0.24191 3.82984 122 83 55
0.14846 -0.20467 3.82923 122 83 55
0.20741 -0.14461 3.84627 122 83 55
0.24076 -0.07724 3.84211 122 83 55
0.24388 0.00204 3.95108 122 83 55
0.23190 0.07553 3.95593 122 83 55
0.19603 0.14510 3.96409 122 83 55
0.14243 0.19797 3.95750 122 83 55
0.07328 0.23262 3.96941 122 83 55
-0.00141 0.24388 3.94965 122 83 55
-0.07957 0.23054 3.96019 122 83 55
-0.14308 0.19751 3.95165 122 83 55
-0.19775 0.14274 3.95254 122 83 55
-0.23110 0.07794 3.96345 122 83 55
-0.24387 -0.00289 3.95209 122 83 55
-0.23098 -0.07829 3.96797 122 83 55
-0.19651 -0.14445 3.95306 122 83 55
-0.14142 -0.19870 3.96681 122 83 55
-0.07417 -0.23234 3.96075 122 83 55
0.00138 -0.24388 3.95607 122 83 55
0.07796 -0.23109 3.95976 122 83 55
0.14026 -0.19952 3.95506 122 83 55
0.19811 -0.14224 3.95646 122 83 55
0.23237 -0.07406 3.95715 122 83 55
0.24250 -0.00180 4.07546 122 83 55
0.22996 0.07699 4.07303 122 83 55
0.19515 0.14397 4.08115 122 83 55
0.14270 0.19608 4.07826 122 83 55
0.07712 0.22992 4.07144 122 83 55
0.00120 0.24250 4.07762 122 83 55
-0.07430 0.23085 4.07242 122 83 55
-0.14533 0.19414 4.08078 122 83 55
-0.19858 0.13920 4.06846 122 83 55
-0.23203 0.07052 4.08947 122 83 55
-0.24248 -0.00358 4.08903 122 83 55
-0.23104 -0.07368 4.08283 122 83 55
-0.19472 -0.14455 4.06927 122 83 55
-0.14590 -0.19371 4.08381 122 83 55
-0.07882 -0.22934 4.08797 122 83 55
-0.00320 -0.24249 4.07585 122 83 55
0.07569 -0.23039 4.06772 122 83 55
0.13991 -0.19808 4.07014 122 83 55
0.19527 -0.14380 4.07812 122 83 55
0.23070 -0.07476 4.08015 122 83 55
0.24932 -0.00410 4.20948 122 83 55
0.23586 0.08092 4.21124 122 83 55
0.20144 0.14697 4.20043 122 83 55
0.15032 0.19895 4.18963 122 83 55
0.07553 0.23764 4.20421 122 83 55
0.00476 0.24931 4.20600 122 83 55
-0.08133 0.23572 4.20971 122 83 55
-0.14918 0.19981 4.20543 122 83 55
-0.20175 0.14654 4.18943 122 83 55
-0.23587 0.08088 4.21149 122 83 55
-0.24933 0.00324 4.20798 122 83 55
-0.23730 -0.07659 4.20877 122 83 55
-0.20406 -0.14331 4.19582 122 83 55
-0.14924 -0.19976 4.20400 122 83 55
-0.07623 -0.23742 4.20430 122 83 55
0.00128 -0.24935 4.19775 122 83 55
0.08142 -0.23569 4.18917 122 83 55
0.14352 -0.20391 4.20417 122 83 55
0.20440 -0.14282 4.20127 122 83 55
0.23809 -0.07410 4.18832 122 83 55
0.26120 0.00223 4.31388 122 83 55
0.24703 0.08489 4.31617 122 83 55
0.21160 0.15315 4.30806 122 83 55
0.15311 0.21163 4.32917 122 83 55
0.08107 0.24831 4.31298 122 83 55
-0.00100 0.26121 4.33098 122 83 55
-0.08470 0.24710 4.32995 122 83 55
-0.15504 0.21022 4.33083 122 83 55
-0.21142 0.15341 4.32477 122 83 55
-0.24716 0.08451 4.31866 122 83 55
-0.26121 0.00090 4.30951 122 83 55
-0.24905 -0.07877 4.30874 122 83 55
-0.21217 -0.15236 4.33096 122 83 55
-0.15748 -0.20840 4.30977 122 83 55
-0.08274 -0.24776 4.31925 122 83 55
0.00123 -0.26121 4.31540 122 83 55
0.07594 -0.24993 4.33143 122 83 55
0.15705 -0.20873 4.31579 122 83 55
0.20996 -0.15540 4.33097 122 83 55
0.24846 -0.08062 4.31161 122 83 55
0.27249 0.00178 4.44554 122 83 55
0.25855 0.08606 4.43862 122 83 55
0.22327 0.15622 4.43652 122 83 55
0.16452 0.21723 4.45174 122 83 55
0.08356 0.25937 4.43997 122 83 55
-0.00128 0.27249 4.44415 122 83 55
-0.08043 0.26035 4.44522 122 83 55
-0.16016 0.22046 4.43306 122 83 55
-0.21950 0.16147 4.43314 122 83 55
-0.25861 0.08589 4.44990 122 83 55
-0.27244 0.00526 4.43281 122 83 55
-0.25803 -0.08762 4.43421 122 83 55
-0.21980 -0.16106 4.45120 122 83 55
-0.16049 -0.22022 4.45166 122 83 55
-0.08259 -0.25968 4.44198 122 83 55
-0.00400 -0.27247 4.44259 122 83 55
0.08626 -0.25848 4.43562 122 83 55
0.15713 -0.22263 4.43930 122 83 55
0.21891 -0.16227 4.43443 122 83 55
0.25925 -0.08391 4.44594 122 83 55
0.27786 -0.00505 4.55222 122 83 55
0.26442 0.08551 4.55157 122 83 55
0.22547 0.16245 4.56954 122 83 55
0.16232 0.22557 4.56294 122 83 55
0.08512 0.26455 4.55192 122 83 55
0.00045 0.27790 4.56995 122 83 55
-0.08498 0.26459 4.55952 122 83 55
-0.16582 0.22301 4.56284 122 83 55
-0.22517 0.16287 4.55794 122 83 55
-0.26328 0.08896 4.55161 122 83 55
-0.27788 0.00395 4.55127 122 83 55
-0.26498 -0.08375 4.54921 122 83 55
-0.22319 -0.16558 4.55460 122 83 55
-0.16293 -0.22513 4.55142 122 83 55
-0.08086 -0.26588 4.55960 122 83 55
-0.00212 -0.27790 4.55768 122 83 55
0.08958 -0.26307 4.55270 122 83 55
0.16483 -0.22375 4.55800 122 83 55
0.22272 -0.16622 4.55221 122 83 55
0.26433 -0.08578 4.56786 122 83 55
0.27488 -0.00289 4.68140 122 83 55
0.26139 0.08508 4.66884 122 83 55
0.22171 0.16252 4.68612 122 83 55
0.15945 0.22393 4.67916 122 83 55
0.08966 0.25986 4.68177 122 83 55
0.00541 0.27484 4.67950 122 83 55
-0.08633 0.26098 4.67065 122 83 55
-0.16018 0.22340 4.67582 122 83 55
-0.22286 0.16093 4.67680 122 83 55
-0.25991 0.08950 4.68690 122 83 55
-0.27489 0.00030 4.68206 122 83 55
-0.26192 -0.08345 4.68094 122 83 55
-0.21950 -0.16549 4.66798 122 83 55
-0.16226 -0.22190 4.68154 122 83 55
-0.08207 -0.26235 4.67964 122 83 55
-0.00007 -0.27489 4.67455 122 83 55
0.08122 -0.26262 4.68357 122 83 55
0.15996 -0.22356 4.67897 122 83 55
0.22262 -0.16126 4.67346 122 83 55
0.26294 -0.08017 4.67577 122 83 55
0.26487 -0.00170 4.80322 122 83 55
0.25050 0.08609 4.79019 122 83 55
0.21531 0.15427 4.79359 122 83 55
0.15950 0.21147 4.78906 122 83 55
0.08183 0.25192 4.80937 122 83 55
-0.00138 0.26487 4.80614 122 83 55
-0.08558 0.25067 4.81099 122 83 55
-0.15683 0.21346 4.78948 122 83 55
-0.21342 0.15688 4.79004 122 83 55
-0.25074 0.08536 4.79631 122 83 55
-0.26486 -0.00333 4.80984 122 83 55
-0.25246 -0.08013 4.79703 122 83 55
-0.21324 -0.15712 4.79329 122 83 55
-0.15656 -0.21365 4.79629 122 83 55
-0.07700 -0.25344 4.81154 122 83 55
0.00120 -0.26487 4.79008 122 83 55
0.08446 -0.25105 4.80820 122 83 55
0.15319 -0.21608 4.80955 122 83 55
0.21612 -0.15314 4.80019 122 83 55
0.25245 -0.08019 4.80783 122 83 55
0.25257 -0.00050 4.92241 122 83 55
0.23901 0.08162 4.92312 122 83 55
0.20665 0.14520 4.92473 122 83 55
0.15208 0.20165 4.91682 122 83 55
0.08066 0.23934 4.93123 122 83 55
0.00041 0.25257 4.91244 122 83 55
-0.07572 0.24095 4.92750 122 83 55
-0.14628 0.20589 4.91659 122 83 55
-0.20585 0.14634 4.92334 122 83 55
-0.24165 0.07344 4.91024 122 83 55
-0.25257 -0.00039 4.92451 122 83 55
-0.23907 -0.08146 4.90925 122 83 55
-0.20305 -0.15021 4.91800 122 83 55
-0.14979 -0.20336 4.91447 122 83 55
-0.07432 -0.24139 4.91220 122 83 55
0.00378 -0.25254 4.90828 122 83 55
0.08197 -0.23890 4.92886 122 83 55
0.14531 -0.20658 4.91027 122 83 55
0.20692 -0.14483 4.92572 122 83 55
0.24016 -0.07818 4.91126 122 83 55
0.24374 0.00232 5.02929 122 83 55
0.23281 0.07222 5.03109 122 83 55
0.19783 0.14241 5.04891 122 83 55
0.14027 0.19935 5.03675 122 83 55
0.07118 0.23313 5.04438 122 83 55
-0.00477 0.24371 5.03380 122 83 55
-0.07666 0.23139 5.05065 122 83 55
-0.14546 0.19559 5.05019 122 83 55
-0.19831 0.14174 5.04433 122 83 55
-0.23320 0.07095 5.03786 122 83 55
-0.24374 -0.00300 5.04798 122 83 55
-0.23082 -0.07834 5.02883 122 83 55
-0.19461 -0.14678 5.03958 122 83 55
-0.14409 -0.19660 5.02857 122 83 55
-0.07092 -0.23321 5.04559 122 83 55
0.00248 -0.24374 5.04084 122 83 55
0.07226 -0.23280 5.05237 122 83 55
0.14160 -0.19841 5.04943 122 83 55
0.19905 -0.14070 5.05204 122 83 55
0.23147 -0.07640 5.03834 122 83 55
0.24258 -0.00156 5.16494 122 83 55
0.23199 0.07091 5.15845 122 83 55
0.19594 0.14301 5.17240 122 83 55
0.14314 0.19585 5.16459 122 83 55
0.07716 0.22998 5.16926 122 83 55
-0.00468 0.24254 5.14865 122 83 55
-0.07113 0.23192 5.15257 122 83 55
-0.13959 0.19839 5.15019 122 83 55
-0.19459 0.14485 5.16832 122 83 55
-0.23053 0.07550 5.15752 122 83 55
-0.24258 -0.00122 5.15007 122 83 55
-0.23031 -0.07618 5.14839 122 83 55
-0.19408 -0.14553 5.15399 122 83 55
-0.14609 -0.19366 5.16563 122 83 55
-0.07491 -0.23072 5.15647 122 83 55
-0.00170 -0.24258 5.15943 122 83 55
0.07610 -0.23033 5.16148 122 83 55
0.14285 -0.19606 5.15918 122 83 55
0.19542 -0.14372 5.17130 122 83 55
0.23162 -0.07210 5.16890 122 83 55
0.24956 -0.00439 5.27527 122 83 55
0.23756 0.07660 5.28177 122 83 55
0.20147 0.14735 5.27762 122 83 55
0.14419 0.20374 5.27530 122 83 55
0.07307 0.23866 5.28670 122 83 55
-0.00192 0.24959 5.27513 122 83 55
-0.07378 0.23845 5.26905 122 83 55
-0.14950 0.19987 5.28150 122 83 55
-0.20070 0.14839 5.27808 122 83 55
-0.23852 0.07354 5.28389 122 83 55
-0.24959 -0.00200 5.27844 122 83 55
-0.23666 -0.07933 5.27534 122 83 55
-0.20446 -0.14317 5.28332 122 83 55
-0.14718 -0.20159 5.27450 122 83 55
-0.07274 -0.23877 5.28308 122 83 55
0.00374 -0.24957 5.27435 122 83 55
0.08008 -0.23641 5.27522 122 83 55
0.14780 -0.20113 5.26819 122 83 55
0.20175 -0.14696 5.28645 122 83 55
0.23707 -0.07808 5.28440 122 83 55
