<?xml version="1.0" encoding="UTF-8"?>
<svg xmlns="http://www.w3.org/2000/svg" width="960" height="540" viewBox="0 0 960 540">
  <rect width="960" height="540" fill="#142018"/>
  <rect x="24" y="24" width="912" height="492" rx="24" fill="#edf3e8" stroke="#dc8a26" stroke-width="6"/>
  <rect x="48" y="48" width="864" height="58" rx="12" fill="#fff0d2"/>
  <text x="70" y="86" font-family="sans-serif" font-size="28" font-weight="700" fill="#8a4300">DEMO · SIMULATED · 非現場證據</text>
  <ellipse cx="480" cy="397" rx="180" ry="22" fill="#c8d4c4"/>
  <path d="M438 385 C450 310 440 230 462 142 L505 142 C525 238 510 318 526 385 Z" fill="#74513a"/>
  <circle cx="430" cy="200" r="82" fill="#4b7d4e"/><circle cx="520" cy="185" r="92" fill="#568f57"/><circle cx="585" cy="230" r="65" fill="#477849"/><path d="M438 385 C450 310 440 230 462 142 L505 142 C525 238 510 318 526 385 Z" fill="#e94f37" opacity=".78" stroke="#fff" stroke-width="5"/>
  <text x="480" y="448" text-anchor="middle" font-family="sans-serif" font-size="30" font-weight="700" fill="#23422c">合成 Segmentation 佔位</text>
  <text x="480" y="481" text-anchor="middle" font-family="sans-serif" font-size="18" fill="#506453">沒有執行真實 YOLO 推論</text>
  <text x="480" y="505" text-anchor="middle" font-family="monospace" font-size="15" fill="#7a887b">sim20260320cmu001</text>
</svg>
