ply
format ascii 1.0
comment SIMULATED DEMO - NOT FIELD EVIDENCE
element vertex 900
property float x
property float y
property float z
property uchar red
property uchar green
property uchar blue
end_header
0.25997 0.00389 -0.00353 122 83 55
0.24738 0.08001 -0.00837 122 83 55
0.21061 0.15246 -0.00418 122 83 55
0.15577 0.20817 0.00404 122 83 55
0.08344 0.24625 -0.00658 122 83 55
-0.00373 0.25997 0.00578 122 83 55
-0.07597 0.24865 0.00597 122 83 55
-0.15208 0.21088 -0.00719 122 83 55
-0.21010 0.15316 -0.01186 122 83 55
-0.24770 0.07901 0.00261 122 83 55
-0.25998 0.00294 0.00090 122 83 55
-0.24727 -0.08036 0.00302 122 83 55
-0.21218 -0.15026 -0.01087 122 83 55
-0.15224 -0.21077 0.01173 122 83 55
-0.08295 -0.24641 0.01249 122 83 55
0.00145 -0.26000 0.00593 122 83 55
0.08068 -0.24717 0.00506 122 83 55
0.15589 -0.20808 -0.01173 122 83 55
0.21204 -0.15046 -0.00458 122 83 55
0.24812 -0.07770 0.00635 122 83 55
0.27159 0.00160 0.11987 122 83 55
0.25721 0.08722 0.12430 122 83 55
0.22015 0.15905 0.12817 122 83 55
0.15858 0.22049 0.11112 122 83 55
0.07912 0.25982 0.13199 122 83 55
-0.00321 0.27158 0.11191 122 83 55
-0.07941 0.25973 0.12790 122 83 55
-0.15623 0.22216 0.12417 122 83 55
-0.21770 0.16239 0.10757 122 83 55
-0.25838 0.08368 0.10774 122 83 55
-0.27154 0.00529 0.12955 122 83 55
-0.25981 -0.07914 0.11812 122 83 55
-0.22206 -0.15638 0.12281 122 83 55
-0.15787 -0.22100 0.12415 122 83 55
-0.08825 -0.25686 0.12889 122 83 55
-0.00472 -0.27155 0.13244 122 83 55
0.08269 -0.25870 0.12033 122 83 55
0.16316 -0.21712 0.12189 122 83 55
0.21868 -0.16106 0.11471 122 83 55
0.25685 -0.08826 0.12322 122 83 55
0.27773 0.00268 0.22960 122 83 55
0.26303 0.08920 0.22943 122 83 55
0.22309 0.16543 0.24002 122 83 55
0.16052 0.22666 0.23946 122 83 55
0.08554 0.26424 0.25145 122 83 55
-0.00323 0.27772 0.23871 122 83 55
-0.08664 0.26388 0.23234 122 83 55
-0.16548 0.22306 0.25091 122 83 55
-0.22560 0.16200 0.23166 122 83 55
-0.26469 0.08413 0.22761 122 83 55
-0.27773 -0.00203 0.24306 122 83 55
-0.26421 -0.08562 0.25249 122 83 55
-0.22489 -0.16298 0.24854 122 83 55
-0.15921 -0.22757 0.23386 122 83 55
-0.08556 -0.26423 0.23581 122 83 55
-0.00353 -0.27772 0.24534 122 83 55
0.08706 -0.26374 0.23965 122 83 55
0.16157 -0.22590 0.23056 122 83 55
0.22177 -0.16720 0.23898 122 83 55
0.26429 -0.08538 0.24427 122 83 55
0.27554 -0.00103 0.36753 122 83 55
0.26249 0.08379 0.35327 122 83 55
0.22351 0.16113 0.36221 122 83 55
0.15788 0.22582 0.36197 122 83 55
0.08794 0.26113 0.34956 122 83 55
-0.00294 0.27552 0.35365 122 83 55
-0.08375 0.26250 0.35201 122 83 55
-0.15771 0.22594 0.36960 122 83 55
-0.22424 0.16012 0.35177 122 83 55
-0.26244 0.08395 0.35467 122 83 55
-0.27553 -0.00220 0.36143 122 83 55
-0.26239 -0.08409 0.35908 122 83 55
-0.22215 -0.16300 0.37184 122 83 55
-0.16451 -0.22103 0.35737 122 83 55
-0.08763 -0.26123 0.35874 122 83 55
0.00425 -0.27551 0.35688 122 83 55
0.08740 -0.26131 0.36108 122 83 55
0.15830 -0.22553 0.34919 122 83 55
0.22570 -0.15806 0.35024 122 83 55
0.26343 -0.08078 0.36436 122 83 55
0.26602 -0.00223 0.48546 122 83 55
0.25345 0.08085 0.48888 122 83 55
0.21608 0.15519 0.49211 122 83 55
0.15813 0.21393 0.47471 122 83 55
0.08141 0.25327 0.47580 122 83 55
0.00109 0.26603 0.46791 122 83 55
-0.08240 0.25295 0.49131 122 83 55
-0.15448 0.21658 0.49145 122 83 55
-0.21814 0.15227 0.49191 122 83 55
-0.25390 0.07941 0.47355 122 83 55
-0.26599 0.00462 0.47054 122 83 55
-0.25144 -0.08690 0.47344 122 83 55
-0.21803 -0.15243 0.47588 122 83 55
-0.15540 -0.21592 0.47840 122 83 55
-0.08177 -0.25315 0.47231 122 83 55
0.00499 -0.26598 0.48153 122 83 55
0.08114 -0.25335 0.46934 122 83 55
0.15322 -0.21747 0.48156 122 83 55
0.21433 -0.15759 0.47697 122 83 55
0.25286 -0.08265 0.47671 122 83 55
0.25368 -0.00218 0.59491 122 83 55
0.24089 0.07954 0.60132 122 83 55
0.20467 0.14989 0.60994 122 83 55
0.14949 0.20497 0.59486 122 83 55
0.08209 0.24004 0.60158 122 83 55
-0.00099 0.25368 0.59443 122 83 55
-0.07965 0.24086 0.58790 122 83 55
-0.14903 0.20530 0.59803 122 83 55
-0.20640 0.14750 0.59923 122 83 55
-0.24101 0.07920 0.60195 122 83 55
-0.25368 -0.00071 0.60404 122 83 55
-0.24117 -0.07871 0.60233 122 83 55
-0.20625 -0.14771 0.60721 122 83 55
-0.15253 -0.20271 0.59661 122 83 55
-0.07849 -0.24124 0.60248 122 83 55
-0.00244 -0.25367 0.60734 122 83 55
0.08053 -0.24057 0.59194 122 83 55
0.14852 -0.20567 0.60678 122 83 55
0.20518 -0.14919 0.59160 122 83 55
0.24166 -0.07718 0.60208 122 83 55
0.24431 0.00179 0.71861 122 83 55
0.23207 0.07637 0.71700 122 83 55
0.19725 0.14416 0.72157 122 83 55
0.14164 0.19906 0.72258 122 83 55
0.07398 0.23284 0.71697 122 83 55
-0.00310 0.24429 0.72004 122 83 55
-0.07370 0.23293 0.72585 122 83 55
-0.14043 0.19992 0.71098 122 83 55
-0.19523 0.14687 0.71107 122 83 55
-0.23246 0.07518 0.72057 122 83 55
-0.24431 0.00148 0.72679 122 83 55
-0.23373 -0.07113 0.72623 122 83 55
-0.19771 -0.14352 0.71319 122 83 55
-0.14122 -0.19936 0.71531 122 83 55
-0.07342 -0.23302 0.73031 122 83 55
0.00077 -0.24431 0.73129 122 83 55
0.07563 -0.23231 0.73177 122 83 55
0.13972 -0.20042 0.72487 122 83 55
0.20023 -0.13999 0.70960 122 83 55
0.23267 -0.07453 0.73192 122 83 55
0.24231 0.00148 0.84341 122 83 55
0.22905 0.07907 0.85202 122 83 55
0.19316 0.14630 0.82789 122 83 55
0.14441 0.19459 0.84211 122 83 55
0.07167 0.23147 0.82894 122 83 55
0.00334 0.24229 0.84162 122 83 55
-0.07930 0.22897 0.85033 122 83 55
-0.14382 0.19502 0.85093 122 83 55
-0.19826 0.13932 0.84851 122 83 55
-0.23058 0.07450 0.84206 122 83 55
-0.24230 -0.00255 0.84488 122 83 55
-0.23141 -0.07187 0.84106 122 83 55
-0.19516 -0.14362 0.83084 122 83 55
-0.14300 -0.19562 0.84328 122 83 55
-0.07670 -0.22986 0.84728 122 83 55
0.00004 -0.24232 0.83380 122 83 55
0.07089 -0.23171 0.85142 122 83 55
0.14479 -0.19430 0.84135 122 83 55
0.19795 -0.13977 0.84009 122 83 55
0.23082 -0.07376 0.83573 122 83 55
0.24859 -0.00482 0.94987 122 83 55
0.23510 0.08093 0.95460 122 83 55
0.19889 0.14921 0.97077 122 83 55
0.14469 0.20220 0.96186 122 83 55
0.07263 0.23779 0.96126 122 83 55
0.00213 0.24863 0.96635 122 83 55
-0.07242 0.23786 0.95886 122 83 55
-0.14497 0.20200 0.96035 122 83 55
-0.20023 0.14741 0.96161 122 83 55
-0.23720 0.07454 0.96915 122 83 55
-0.24864 -0.00090 0.96718 122 83 55
-0.23656 -0.07653 0.96382 122 83 55
-0.20392 -0.14226 0.95235 122 83 55
-0.14892 -0.19911 0.96066 122 83 55
-0.07229 -0.23790 0.96214 122 83 55
0.00451 -0.24860 0.96725 122 83 55
0.07384 -0.23742 0.95891 122 83 55
0.14362 -0.20297 0.96597 122 83 55
0.19823 -0.15009 0.96306 122 83 55
0.23521 -0.08060 0.95733 122 83 55
0.26030 -0.00161 1.06831 122 83 55
0.24758 0.08038 1.08660 122 83 55
0.20802 0.15647 1.08058 122 83 55
0.15606 0.20833 1.06850 122 83 55
0.08504 0.24602 1.08091 122 83 55
0.00325 0.26028 1.07602 122 83 55
-0.07790 0.24837 1.06914 122 83 55
-0.14960 0.21302 1.09050 122 83 55
-0.20948 0.15451 1.07609 122 83 55
-0.24799 0.07910 1.09171 122 83 55
-0.26030 -0.00024 1.06852 122 83 55
-0.24897 -0.07598 1.07745 122 83 55
-0.21269 -0.15007 1.09213 122 83 55
-0.15250 -0.21095 1.07383 122 83 55
-0.07791 -0.24837 1.08442 122 83 55
0.00082 -0.26030 1.08353 122 83 55
0.08060 -0.24751 1.07005 122 83 55
0.15263 -0.21086 1.07539 122 83 55
0.21200 -0.15105 1.08313 122 83 55
0.24793 -0.07931 1.07526 122 83 55
0.27182 -0.00132 1.21155 122 83 55
0.25911 0.08217 1.19405 122 83 55
0.22216 0.15664 1.20024 122 83 55
0.15914 0.22037 1.19523 122 83 55
0.08416 0.25847 1.20103 122 83 55
-0.00219 0.27182 1.20541 122 83 55
-0.08427 0.25843 1.18844 122 83 55
-0.16239 0.21798 1.20252 122 83 55
-0.22263 0.15597 1.19163 122 83 55
-0.25688 0.08890 1.19795 122 83 55
-0.27177 -0.00528 1.20433 122 83 55
-0.25908 -0.08225 1.18958 122 83 55
-0.21946 -0.16040 1.20539 122 83 55
-0.16161 -0.21856 1.20946 122 83 55
-0.08122 -0.25941 1.20938 122 83 55
0.00505 -0.27178 1.20076 122 83 55
0.08121 -0.25941 1.19740 122 83 55
0.15567 -0.22283 1.19006 122 83 55
0.22072 -0.15866 1.20986 122 83 55
0.25901 -0.08249 1.20231 122 83 55
0.27778 0.00255 1.30909 122 83 55
0.26373 0.08725 1.31678 122 83 55
0.22143 0.16774 1.31089 122 83 55
0.16631 0.22250 1.32904 122 83 55
0.08354 0.26493 1.31051 122 83 55
-0.00426 0.27775 1.30970 122 83 55
-0.08063 0.26583 1.30954 122 83 55
-0.16015 0.22698 1.33245 122 83 55
-0.22362 0.16480 1.33174 122 83 55
-0.26567 0.08116 1.32466 122 83 55
-0.27777 0.00265 1.32695 122 83 55
-0.26439 -0.08522 1.33051 122 83 55
-0.22375 -0.16462 1.30831 122 83 55
-0.16289 -0.22501 1.32253 122 83 55
-0.08610 -0.26411 1.32963 122 83 55
0.00170 -0.27778 1.30891 122 83 55
0.09088 -0.26250 1.31569 122 83 55
0.16365 -0.22446 1.31503 122 83 55
0.22734 -0.15963 1.31465 122 83 55
0.26306 -0.08924 1.32397 122 83 55
0.27534 0.00470 1.44289 122 83 55
0.26098 0.08788 1.43713 122 83 55
0.22223 0.16264 1.43405 122 83 55
0.16259 0.22226 1.43202 122 83 55
0.08700 0.26128 1.43005 122 83 55
0.00347 0.27536 1.44600 122 83 55
-0.08405 0.26224 1.43324 122 83 55
-0.16073 0.22361 1.44543 122 83 55
-0.22533 0.15831 1.44515 122 83 55
-0.26151 0.08630 1.44655 122 83 55
-0.27534 -0.00474 1.42843 122 83 55
-0.26187 -0.08519 1.44011 122 83 55
-0.22047 -0.16501 1.44978 122 83 55
-0.16308 -0.22190 1.44346 122 83 55
-0.08869 -0.26071 1.44822 122 83 55
0.00518 -0.27533 1.43967 122 83 55
0.08164 -0.26300 1.42889 122 83 55
0.16302 -0.22195 1.44489 122 83 55
0.22558 -0.15795 1.43915 122 83 55
0.26044 -0.08948 1.45106 122 83 55
0.26573 0.00276 1.55975 122 83 55
0.25233 0.08335 1.56762 122 83 55
0.21607 0.15470 1.56039 122 83 55
0.15903 0.21290 1.55182 122 83 55
0.08277 0.25252 1.56983 122 83 55
0.00068 0.26574 1.56885 122 83 55
-0.08400 0.25212 1.56743 122 83 55
-0.15794 0.21372 1.55387 122 83 55
-0.21615 0.15459 1.55881 122 83 55
-0.25391 0.07840 1.55455 122 83 55
-0.26574 -0.00131 1.55990 122 83 55
-0.25195 -0.08450 1.56889 122 83 55
-0.21645 -0.15418 1.55968 122 83 55
-0.15395 -0.21661 1.56431 122 83 55
-0.07981 -0.25348 1.56838 122 83 55
0.00178 -0.26574 1.55023 122 83 55
0.08297 -0.25246 1.56383 122 83 55
0.15777 -0.21384 1.55780 122 83 55
0.21269 -0.15932 1.55533 122 83 55
0.25213 -0.08397 1.56137 122 83 55
0.25337 0.00440 1.68524 122 83 55
0.23974 0.08210 1.67783 122 83 55
0.20267 0.15212 1.68006 122 83 55
0.15055 0.20383 1.67105 122 83 55
0.07825 0.24102 1.68877 122 83 55
-0.00146 0.25340 1.68990 122 83 55
-0.07473 0.24214 1.67774 122 83 55
-0.15099 0.20351 1.67477 122 83 55
-0.20338 0.15116 1.68242 122 83 55
-0.24184 0.07567 1.67332 122 83 55
-0.25337 0.00421 1.67754 122 83 55
-0.24166 -0.07626 1.66806 122 83 55
-0.20545 -0.14833 1.67375 122 83 55
-0.14791 -0.20576 1.68897 122 83 55
-0.07468 -0.24215 1.68475 122 83 55
-0.00121 -0.25340 1.67117 122 83 55
0.07602 -0.24173 1.69032 122 83 55
0.14721 -0.20626 1.67351 122 83 55
0.20282 -0.15191 1.67700 122 83 55
0.24240 -0.07387 1.68037 122 83 55
0.24413 -0.00444 1.78913 122 83 55
0.23334 0.07191 1.81025 122 83 55
0.19783 0.14311 1.78957 122 83 55
0.14456 0.19677 1.79583 122 83 55
0.07744 0.23156 1.80529 122 83 55
-0.00105 0.24416 1.80154 122 83 55
-0.07620 0.23197 1.78972 122 83 55
-0.14452 0.19680 1.80101 122 83 55
-0.19820 0.14259 1.78953 122 83 55
-0.23233 0.07509 1.79269 122 83 55
-0.24417 -0.00047 1.79010 122 83 55
-0.23367 -0.07083 1.79369 122 83 55
-0.19755 -0.14349 1.80999 122 83 55
-0.14371 -0.19739 1.79754 122 83 55
-0.07562 -0.23216 1.80121 122 83 55
0.00384 -0.24414 1.79349 122 83 55
0.07770 -0.23147 1.79292 122 83 55
0.14385 -0.19729 1.80050 122 83 55
0.19643 -0.14503 1.79796 122 83 55
0.23073 -0.07988 1.80099 122 83 55
0.24235 0.00349 1.92748 122 83 55
0.23041 0.07522 1.91019 122 83 55
0.19753 0.14046 1.92524 122 83 55
0.13890 0.19863 1.90839 122 83 55
0.07768 0.22959 1.90967 122 83 55
0.00159 0.24237 1.91468 122 83 55
-0.07128 0.23166 1.91759 122 83 55
-0.14565 0.19373 1.91179 122 83 55
-0.19841 0.13921 1.92523 122 83 55
-0.23092 0.07363 1.91324 122 83 55
-0.24237 0.00068 1.90792 122 83 55
-0.22925 -0.07867 1.92492 122 83 55
-0.19472 -0.14432 1.92164 122 83 55
-0.13858 -0.19885 1.92465 122 83 55
-0.07591 -0.23018 1.92528 122 83 55
-0.00271 -0.24236 1.91956 122 83 55
0.07563 -0.23027 1.91921 122 83 55
0.13974 -0.19804 1.92214 122 83 55
0.19643 -0.14198 1.93173 122 83 55
0.22929 -0.07856 1.91744 122 83 55
0.24884 0.00410 2.03620 122 83 55
0.23589 0.07935 2.04477 122 83 55
0.20155 0.14600 2.04823 122 83 55
0.14310 0.20362 2.03373 122 83 55
0.07226 0.23815 2.02799 122 83 55
0.00210 0.24886 2.03554 122 83 55
-0.08107 0.23530 2.04461 122 83 55
-0.14542 0.20197 2.04708 122 83 55
-0.20351 0.14325 2.04034 122 83 55
-0.23630 0.07809 2.03090 122 83 55
-0.24887 0.00170 2.04363 122 83 55
-0.23653 -0.07742 2.04624 122 83 55
-0.20264 -0.14449 2.05172 122 83 55
-0.14716 -0.20070 2.05191 122 83 55
-0.07726 -0.23658 2.03904 122 83 55
-0.00001 -0.24887 2.02825 122 83 55
0.07408 -0.23759 2.02967 122 83 55
0.14531 -0.20205 2.04696 122 83 55
0.20121 -0.14647 2.02774 122 83 55
0.23770 -0.07372 2.04815 122 83 55
0.26060 -0.00094 2.15126 122 83 55
0.24858 0.07824 2.16103 122 83 55
0.21129 0.15255 2.15604 122 83 55
0.15488 0.20959 2.17027 122 83 55
0.07856 0.24848 2.16256 122 83 55
0.00077 0.26060 2.15653 122 83 55
-0.08263 0.24716 2.15491 122 83 55
-0.15477 0.20967 2.17113 122 83 55
-0.21378 0.14904 2.15223 122 83 55
-0.24785 0.08053 2.16065 122 83 55
-0.26060 0.00167 2.16431 122 83 55
-0.24898 -0.07697 2.16884 122 83 55
-0.21256 -0.15078 2.16414 122 83 55
-0.15237 -0.21142 2.16437 122 83 55
-0.07596 -0.24929 2.17166 122 83 55
0.00200 -0.26060 2.15409 122 83 55
0.07618 -0.24922 2.14905 122 83 55
0.15525 -0.20931 2.14795 122 83 55
0.21234 -0.15108 2.16423 122 83 55
0.24675 -0.08384 2.14769 122 83 55
0.27205 -0.00042 2.28039 122 83 55
0.25803 0.08623 2.28300 122 83 55
0.22275 0.15619 2.27075 122 83 55
0.16106 0.21925 2.28470 122 83 55
0.07942 0.26020 2.28402 122 83 55
0.00474 0.27201 2.28616 122 83 55
-0.07921 0.26027 2.29196 122 83 55
-0.16084 0.21942 2.27509 122 83 55
-0.22205 0.15719 2.28218 122 83 55
-0.25919 0.08266 2.27427 122 83 55
-0.27205 -0.00197 2.27026 122 83 55
-0.25875 -0.08403 2.29098 122 83 55
-0.22303 -0.15579 2.27638 122 83 55
-0.16238 -0.21828 2.27114 122 83 55
-0.08688 -0.25781 2.27347 122 83 55
-0.00424 -0.27202 2.28043 122 83 55
0.08006 -0.26001 2.26939 122 83 55
0.16092 -0.21936 2.29090 122 83 55
0.22280 -0.15612 2.26758 122 83 55
0.25846 -0.08492 2.28283 122 83 55
0.27783 0.00111 2.40136 122 83 55
0.26248 0.09106 2.39789 122 83 55
0.22256 0.16630 2.40363 122 83 55
0.16734 0.22178 2.39579 122 83 55
0.08555 0.26433 2.39989 122 83 55
-0.00062 0.27783 2.39307 122 83 55
-0.08437 0.26471 2.39358 122 83 55
-0.16204 0.22569 2.39363 122 83 55
-0.22556 0.16222 2.39427 122 83 55
-0.26426 0.08576 2.40213 122 83 55
-0.27783 -0.00149 2.40029 122 83 55
-0.26309 -0.08929 2.39747 122 83 55
-0.22599 -0.16161 2.39368 122 83 55
-0.16454 -0.22387 2.38996 122 83 55
-0.08374 -0.26491 2.39158 122 83 55
0.00263 -0.27782 2.39678 122 83 55
0.08678 -0.26393 2.40454 122 83 55
0.16356 -0.22459 2.40189 122 83 55
0.22474 -0.16334 2.40828 122 83 55
0.26318 -0.08902 2.39760 122 83 55
0.27522 0.00152 2.51188 122 83 55
0.26263 0.08230 2.53133 122 83 55
0.22156 0.16328 2.52145 122 83 55
0.16202 0.22248 2.52226 122 83 55
0.08697 0.26112 2.52478 122 83 55
-0.00300 0.27521 2.51405 122 83 55
-0.08183 0.26278 2.52853 122 83 55
-0.16254 0.22210 2.51067 122 83 55
-0.22211 0.16253 2.51086 122 83 55
-0.26000 0.09026 2.52405 122 83 55
-0.27520 -0.00328 2.51368 122 83 55
-0.26241 -0.08299 2.52321 122 83 55
-0.22098 -0.16406 2.51986 122 83 55
-0.16413 -0.22093 2.52090 122 83 55
-0.08802 -0.26077 2.52210 122 83 55
-0.00139 -0.27522 2.52010 122 83 55
0.08080 -0.26310 2.52126 122 83 55
0.16083 -0.22334 2.52372 122 83 55
0.22095 -0.16410 2.52343 122 83 55
0.26037 -0.08921 2.51746 122 83 55
0.26543 0.00338 2.63097 122 83 55
0.25250 0.08191 2.63670 122 83 55
0.21425 0.15673 2.63926 122 83 55
0.15826 0.21312 2.64480 122 83 55
0.08217 0.25242 2.65207 122 83 55
0.00103 0.26545 2.65118 122 83 55
-0.08279 0.25222 2.63460 122 83 55
-0.15324 0.21676 2.62915 122 83 55
-0.21263 0.15892 2.62965 122 83 55
-0.25080 0.08700 2.64927 122 83 55
-0.26545 -0.00158 2.64855 122 83 55
-0.25260 -0.08160 2.63073 122 83 55
-0.21435 -0.15659 2.64468 122 83 55
-0.15548 -0.21516 2.63409 122 83 55
-0.08057 -0.25293 2.63888 122 83 55
0.00102 -0.26545 2.63022 122 83 55
0.07728 -0.25396 2.64692 122 83 55
0.15575 -0.21497 2.63651 122 83 55
0.21741 -0.15232 2.64083 122 83 55
0.25151 -0.08491 2.64249 122 83 55
0.25311 -0.00213 2.75195 122 83 55
0.24143 0.07605 2.74850 122 83 55
0.20574 0.14745 2.76482 122 83 55
0.14885 0.20473 2.75704 122 83 55
0.08251 0.23930 2.75225 122 83 55
0.00436 0.25309 2.75800 122 83 55
-0.08208 0.23945 2.75836 122 83 55
-0.15220 0.20225 2.75485 122 83 55
-0.20426 0.14949 2.76729 122 83 55
-0.23950 0.08192 2.76040 122 83 55
-0.25312 0.00080 2.75690 122 83 55
-0.24111 -0.07705 2.75192 122 83 55
-0.20738 -0.14514 2.75772 122 83 55
-0.14594 -0.20681 2.77154 122 83 55
-0.07512 -0.24172 2.74885 122 83 55
0.00019 -0.25312 2.76930 122 83 55
0.07623 -0.24137 2.75367 122 83 55
0.14588 -0.20685 2.76730 122 83 55
0.20385 -0.15006 2.75458 122 83 55
0.24061 -0.07859 2.75471 122 83 55
0.24399 0.00378 2.87202 122 83 55
0.23061 0.07978 2.87473 122 83 55
0.19722 0.14371 2.86953 122 83 55
0.14101 0.19916 2.88068 122 83 55
0.07345 0.23271 2.87276 122 83 55
0.00251 0.24401 2.88977 122 83 55
-0.07126 0.23339 2.87137 122 83 55
-0.14698 0.19480 2.86933 122 83 55
-0.19573 0.14573 2.87950 122 83 55
-0.23081 0.07922 2.87151 122 83 55
-0.24402 0.00202 2.89121 122 83 55
-0.23136 -0.07759 2.86866 122 83 55
-0.19644 -0.14478 2.88891 122 83 55
-0.14437 -0.19674 2.88802 122 83 55
-0.07255 -0.23299 2.87389 122 83 55
-0.00120 -0.24402 2.88037 122 83 55
0.07378 -0.23260 2.86931 122 83 55
0.14420 -0.19686 2.88874 122 83 55
0.19777 -0.14295 2.87733 122 83 55
0.23279 -0.07319 2.88935 122 83 55
0.24242 -0.00263 2.99828 122 83 55
0.22911 0.07927 3.00345 122 83 55
0.19335 0.14626 3.01093 122 83 55
0.13937 0.19837 2.99462 122 83 55
0.07036 0.23200 2.98937 122 83 55
-0.00475 0.24239 2.99276 122 83 55
-0.07800 0.22955 2.98804 122 83 55
-0.13878 0.19879 2.99187 122 83 55
-0.19496 0.14411 3.00785 122 83 55
-0.22955 0.07801 3.00022 122 83 55
-0.24241 -0.00382 2.99252 122 83 55
-0.23024 -0.07593 3.00763 122 83 55
-0.19767 -0.14036 3.00051 122 83 55
-0.14523 -0.19413 3.00595 122 83 55
-0.07540 -0.23042 3.00927 122 83 55
0.00408 -0.24240 3.00989 122 83 55
0.07442 -0.23073 2.98954 122 83 55
0.13979 -0.19808 3.00683 122 83 55
0.19670 -0.14172 2.99398 122 83 55
0.23166 -0.07148 2.99533 122 83 55
0.24909 -0.00373 3.13048 122 83 55
0.23639 0.07861 3.12329 122 83 55
0.20218 0.14553 3.13176 122 83 55
0.14932 0.19940 3.12817 122 83 55
0.07467 0.23766 3.10921 122 83 55
-0.00012 0.24911 3.10763 122 83 55
-0.07907 0.23623 3.11000 122 83 55
-0.14728 0.20091 3.13049 122 83 55
-0.20249 0.14510 3.12803 122 83 55
-0.23588 0.08012 3.12892 122 83 55
-0.24908 0.00385 3.13016 122 83 55
-0.23803 -0.07348 3.12419 122 83 55
-0.20130 -0.14675 3.13077 122 83 55
-0.14664 -0.20138 3.10945 122 83 55
-0.07935 -0.23614 3.10870 122 83 55
0.00115 -0.24911 3.12440 122 83 55
0.07722 -0.23684 3.11698 122 83 55
0.14711 -0.20104 3.11273 122 83 55
0.20067 -0.14761 3.11705 122 83 55
0.23656 -0.07808 3.10964 122 83 55
0.26090 -0.00211 3.24521 122 83 55
0.24887 0.07834 3.23310 122 83 55
0.21192 0.15219 3.23566 122 83 55
0.15002 0.21346 3.24334 122 83 55
0.07663 0.24940 3.25028 122 83 55
-0.00014 0.26091 3.23686 122 83 55
-0.08489 0.24671 3.24705 122 83 55
-0.15529 0.20966 3.24705 122 83 55
-0.21043 0.15424 3.24970 122 83 55
-0.24792 0.08129 3.22998 122 83 55
-0.26089 0.00280 3.24302 122 83 55
-0.24668 -0.08498 3.25018 122 83 55
-0.21222 -0.15177 3.23906 122 83 55
-0.15331 -0.21111 3.25235 122 83 55
-0.07988 -0.24838 3.24584 122 83 55
0.00170 -0.26090 3.24129 122 83 55
0.08500 -0.24667 3.25159 122 83 55
0.15004 -0.21345 3.24862 122 83 55
0.21315 -0.15046 3.24354 122 83 55
0.24673 -0.08484 3.24595 122 83 55
0.27227 -0.00095 3.35670 122 83 55
0.25935 0.08289 3.36561 122 83 55
0.21881 0.16203 3.36426 122 83 55
0.15871 0.22124 3.35617 122 83 55
0.08316 0.25927 3.34757 122 83 55
0.00140 0.27227 3.35124 122 83 55
-0.08721 0.25793 3.36465 122 83 55
-0.16216 0.21872 3.36138 122 83 55
-0.22224 0.15729 3.36789 122 83 55
-0.25908 0.08372 3.35506 122 83 55
-0.27227 0.00155 3.35734 122 83 55
-0.25912 -0.08361 3.35599 122 83 55
-0.22115 -0.15883 3.35261 122 83 55
-0.15976 -0.22048 3.35533 122 83 55
-0.08789 -0.25770 3.35250 122 83 55
0.00361 -0.27225 3.34849 122 83 55
0.08799 -0.25766 3.35772 122 83 55
0.15814 -0.22164 3.36265 122 83 55
0.22205 -0.15757 3.36339 122 83 55
0.25864 -0.08508 3.37212 122 83 55
0.27787 -0.00080 3.47915 122 83 55
0.26443 0.08537 3.47518 122 83 55
0.22707 0.16016 3.47606 122 83 55
0.15890 0.22795 3.47212 122 83 55
0.08538 0.26443 3.48569 122 83 55
0.00419 0.27784 3.48542 122 83 55
-0.08541 0.26442 3.48303 122 83 55
-0.16598 0.22285 3.46953 122 83 55
-0.22771 0.15924 3.49104 122 83 55
-0.26550 0.08200 3.48850 122 83 55
-0.27785 0.00355 3.48113 122 83 55
-0.26277 -0.09035 3.47652 122 83 55
-0.22699 -0.16027 3.48982 122 83 55
-0.16708 -0.22203 3.49210 122 83 55
-0.08247 -0.26535 3.48329 122 83 55
-0.00447 -0.27783 3.48837 122 83 55
0.08996 -0.26291 3.48272 122 83 55
0.16487 -0.22368 3.47791 122 83 55
0.22447 -0.16379 3.46947 122 83 55
0.26506 -0.08340 3.47690 122 83 55
0.27505 -0.00275 3.59068 122 83 55
0.26319 0.07993 3.58963 122 83 55
0.22521 0.15792 3.60165 122 83 55
0.16313 0.22147 3.61056 122 83 55
0.08185 0.26260 3.60817 122 83 55
0.00257 0.27505 3.59756 122 83 55
-0.08872 0.26036 3.60281 122 83 55
-0.15895 0.22448 3.60100 122 83 55
-0.22161 0.16293 3.59547 122 83 55
-0.26305 0.08038 3.58974 122 83 55
-0.27501 0.00510 3.60009 122 83 55
-0.26198 -0.08381 3.60129 122 83 55
-0.22143 -0.16317 3.61007 122 83 55
-0.15857 -0.22475 3.58966 122 83 55
-0.08181 -0.26261 3.60690 122 83 55
-0.00439 -0.27502 3.60563 122 83 55
0.08871 -0.26036 3.60209 122 83 55
0.16000 -0.22373 3.60051 122 83 55
0.22503 -0.15818 3.59419 122 83 55
0.26084 -0.08730 3.60064 122 83 55
0.26516 0.00218 3.72380 122 83 55
0.25145 0.08418 3.72605 122 83 55
0.21759 0.15156 3.72565 122 83 55
0.15537 0.21488 3.71826 122 83 55
0.07941 0.25300 3.72817 122 83 55
0.00138 0.26516 3.71796 122 83 55
-0.07753 0.25358 3.73216 122 83 55
-0.15607 0.21438 3.71512 122 83 55
-0.21244 0.15870 3.73152 122 83 55
-0.25261 0.08064 3.72480 122 83 55
-0.26516 0.00232 3.72511 122 83 55
-0.25284 -0.07991 3.72857 122 83 55
-0.21453 -0.15585 3.71517 122 83 55
-0.15648 -0.21407 3.71755 122 83 55
-0.08694 -0.25051 3.72392 122 83 55
-0.00093 -0.26517 3.70922 122 83 55
0.07859 -0.25325 3.71624 122 83 55
0.15192 -0.21734 3.71669 122 83 55
0.21395 -0.15665 3.72257 122 83 55
0.25052 -0.08691 3.73003 122 83 55
0.25282 0.00327 3.83242 122 83 55
0.24139 0.07525 3.84581 122 83 55
0.20157 0.15265 3.84516 122 83 55
0.14995 0.20358 3.84700 122 83 55
0.07825 0.24043 3.84088 122 83 55
0.00006 0.25284 3.83685 122 83 55
-0.08193 0.23920 3.84062 122 83 55
-0.14952 0.20390 3.83642 122 83 55
-0.20467 0.14846 3.83120 122 83 55
-0.23922 0.08188 3.83686 122 83 55
-0.25280 -0.00490 3.84139 122 83 55
-0.24168 -0.07429 3.83364 122 83 55
-0.20521 -0.14772 3.85234 122 83 55
-0.14556 -0.20674 3.84130 122 83 55
-0.07507 -0.24144 3.83622 122 83 55
0.00115 -0.25284 3.84844 122 83 55
0.07592 -0.24118 3.84876 122 83 55
0.14940 -0.20399 3.82898 122 83 55
0.20381 -0.14963 3.83202 122 83 55
0.23962 -0.08071 3.83198 122 83 55
0.24389 -0.00066 3.96051 122 83 55
0.23119 0.07766 3.94848 122 83 55
0.19663 0.14429 3.95474 122 83 55
0.14417 0.19671 3.97024 122 83 55
0.07574 0.23183 3.96245 122 83 55
0.00066 0.24389 3.95619 122 83 55
-0.07866 0.23085 3.96439 122 83 55
-0.14169 0.19850 3.95412 122 83 55
-0.19602 0.14511 3.96743 122 83 55
-0.23248 0.07371 3.95587 122 83 55
-0.24385 -0.00418 3.95904 122 83 55
-0.23185 -0.07566 3.95100 122 83 55
-0.19450 -0.14715 3.96872 122 83 55
-0.14695 -0.19465 3.96480 122 83 55
-0.07813 -0.23103 3.96790 122 83 55
-0.00303 -0.24387 3.95296 122 83 55
0.07544 -0.23193 3.97127 122 83 55
0.14354 -0.19717 3.95649 122 83 55
0.19658 -0.14435 3.95853 122 83 55
0.23071 -0.07908 3.95149 122 83 55
0.24247 -0.00422 4.08722 122 83 55
0.22972 0.07770 4.07995 122 83 55
0.19849 0.13933 4.08300 122 83 55
0.14253 0.19620 4.08878 122 83 55
0.07551 0.23045 4.07040 122 83 55
-0.00251 0.24249 4.08052 122 83 55
-0.07393 0.23096 4.08822 122 83 55
-0.14637 0.19336 4.08562 122 83 55
-0.19367 0.14595 4.08986 122 83 55
-0.23020 0.07626 4.07223 122 83 55
-0.24247 -0.00412 4.09027 122 83 55
-0.22981 -0.07745 4.07077 122 83 55
-0.19373 -0.14587 4.06751 122 83 55
-0.14031 -0.19780 4.08681 122 83 55
-0.07920 -0.22921 4.08781 122 83 55
-0.00258 -0.24249 4.08701 122 83 55
0.07296 -0.23127 4.07983 122 83 55
0.14599 -0.19364 4.07418 122 83 55
0.19688 -0.14159 4.08953 122 83 55
0.23162 -0.07185 4.07363 122 83 55
0.24934 -0.00313 4.19861 122 83 55
0.23794 0.07457 4.20450 122 83 55
0.19992 0.14903 4.20572 122 83 55
0.14821 0.20053 4.20058 122 83 55
0.07415 0.23808 4.19575 122 83 55
-0.00185 0.24935 4.19688 122 83 55
-0.07657 0.23731 4.20384 122 83 55
-0.14348 0.20394 4.20411 122 83 55
-0.20232 0.14575 4.21213 122 83 55
-0.23658 0.07879 4.19953 122 83 55
-0.24935 0.00061 4.20318 122 83 55
-0.23746 -0.07610 4.19905 122 83 55
-0.20306 -0.14472 4.19062 122 83 55
-0.14316 -0.20417 4.19654 122 83 55
-0.07398 -0.23813 4.20860 122 83 55
0.00467 -0.24931 4.19257 122 83 55
0.07739 -0.23704 4.19797 122 83 55
0.14310 -0.20421 4.19123 122 83 55
0.20309 -0.14468 4.20827 122 83 55
0.23816 -0.07388 4.19957 122 83 55
0.26120 0.00228 4.31098 122 83 55
0.24842 0.08073 4.31601 122 83 55
0.21357 0.15039 4.31059 122 83 55
0.14973 0.21404 4.30957 122 83 55
0.08420 0.24727 4.31655 122 83 55
-0.00252 0.26120 4.31886 122 83 55
-0.07934 0.24887 4.32000 122 83 55
-0.15158 0.21273 4.33024 122 83 55
-0.21058 0.15455 4.32591 122 83 55
-0.24717 0.08450 4.32637 122 83 55
-0.26121 -0.00032 4.32706 122 83 55
-0.24950 -0.07732 4.33240 122 83 55
-0.21312 -0.15103 4.32789 122 83 55
-0.15737 -0.20848 4.30823 122 83 55
-0.07893 -0.24900 4.31237 122 83 55
-0.00451 -0.26117 4.32167 122 83 55
0.08077 -0.24841 4.33115 122 83 55
0.15443 -0.21067 4.31849 122 83 55
0.21303 -0.15116 4.31476 122 83 55
0.24860 -0.08019 4.31164 122 83 55
0.27246 0.00425 4.44567 122 83 55
0.25915 0.08423 4.43818 122 83 55
0.22019 0.16053 4.43840 122 83 55
0.15932 0.22107 4.44859 122 83 55
0.08765 0.25801 4.42809 122 83 55
0.00267 0.27248 4.44461 122 83 55
-0.07934 0.26069 4.44904 122 83 55
-0.15788 0.22210 4.43778 122 83 55
-0.22120 0.15914 4.44129 122 83 55
-0.26001 0.08152 4.43220 122 83 55
-0.27246 0.00427 4.43426 122 83 55
-0.25902 -0.08461 4.44635 122 83 55
-0.22313 -0.15641 4.42789 122 83 55
-0.16342 -0.21805 4.43487 122 83 55
-0.08254 -0.25969 4.42787 122 83 55
0.00337 -0.27247 4.43270 122 83 55
0.08779 -0.25797 4.44793 122 83 55
0.16346 -0.21802 4.44998 122 83 55
0.22152 -0.15869 4.44826 122 83 55
0.25817 -0.08719 4.42752 122 83 55
0.27790 -0.00116 4.55552 122 83 55
0.26474 0.08453 4.56388 122 83 55
0.22763 0.15942 4.55093 122 83 55
0.16219 0.22567 4.56630 122 83 55
0.08170 0.26562 4.56461 122 83 55
-0.00175 0.27790 4.55396 122 83 55
-0.08519 0.26452 4.56997 122 83 55
-0.16664 0.22240 4.54845 122 83 55
-0.22513 0.16293 4.55382 122 83 55
-0.26440 0.08558 4.56731 122 83 55
-0.27790 0.00012 4.54869 122 83 55
-0.26542 -0.08236 4.54801 122 83 55
-0.22322 -0.16554 4.56028 122 83 55
-0.15917 -0.22780 4.55091 122 83 55
-0.08714 -0.26389 4.55925 122 83 55
-0.00531 -0.27785 4.55083 122 83 55
0.08089 -0.26587 4.56259 122 83 55
0.16642 -0.22257 4.55841 122 83 55
0.22694 -0.16041 4.56141 122 83 55
0.26364 -0.08788 4.56841 122 83 55
0.27486 0.00402 4.67783 122 83 55
0.26306 0.07977 4.68347 122 83 55
0.22540 0.15736 4.67530 122 83 55
0.15933 0.22401 4.67823 122 83 55
0.08776 0.26051 4.67261 122 83 55
-0.00097 0.27489 4.66962 122 83 55
-0.08427 0.26166 4.66827 122 83 55
-0.16300 0.22136 4.69073 122 83 55
-0.21922 0.16586 4.68819 122 83 55
-0.26208 0.08295 4.67175 122 83 55
-0.27488 0.00244 4.68077 122 83 55
-0.26303 -0.07987 4.66771 122 83 55
-0.22408 -0.15923 4.67972 122 83 55
-0.16277 -0.22152 4.66909 122 83 55
-0.08015 -0.26295 4.69139 122 83 55
0.00392 -0.27486 4.69246 122 83 55
0.08035 -0.26289 4.66941 122 83 55
0.16512 -0.21978 4.67984 122 83 55
0.22051 -0.16413 4.67079 122 83 55
0.26298 -0.08005 4.69133 122 83 55
0.26487 0.00156 4.78890 122 83 55
0.25216 0.08108 4.80226 122 83 55
0.21663 0.15242 4.79991 122 83 55
0.15231 0.21670 4.80690 122 83 55
0.07893 0.25284 4.81065 122 83 55
-0.00342 0.26485 4.80742 122 83 55
-0.08595 0.25054 4.80203 122 83 55
-0.15362 0.21578 4.79775 122 83 55
-0.21359 0.15665 4.79333 122 83 55
-0.25340 0.07711 4.80844 122 83 55
-0.26488 -0.00063 4.78906 122 83 55
-0.25219 -0.08099 4.78971 122 83 55
-0.21293 -0.15754 4.79134 122 83 55
-0.15774 -0.21279 4.80631 122 83 55
-0.08429 -0.25111 4.79677 122 83 55
-0.00141 -0.26487 4.80377 122 83 55
0.08205 -0.25185 4.80340 122 83 55
0.15549 -0.21443 4.81232 122 83 55
0.21505 -0.15464 4.80919 122 83 55
0.25040 -0.08637 4.81048 122 83 55
0.25253 0.00408 4.91015 122 83 55
0.23878 0.08229 4.92200 122 83 55
0.20271 0.15067 4.92197 122 83 55
0.14522 0.20664 4.91092 122 83 55
0.08230 0.23878 4.92585 122 83 55
0.00497 0.25252 4.91561 122 83 55
-0.07503 0.24117 4.91988 122 83 55
-0.15016 0.20308 4.91928 122 83 55
-0.20591 0.14626 4.91413 122 83 55
-0.24124 0.07479 4.91026 122 83 55
-0.25257 0.00105 4.91833 122 83 55
-0.23898 -0.08174 4.92197 122 83 55
-0.20270 -0.15067 4.91779 122 83 55
-0.14831 -0.20444 4.91353 122 83 55
-0.07835 -0.24011 4.91896 122 83 55
0.00404 -0.25254 4.91327 122 83 55
0.08184 -0.23894 4.92770 122 83 55
0.14818 -0.20453 4.92868 122 83 55
0.20328 -0.14990 4.92932 122 83 55
0.23906 -0.08149 4.90758 122 83 55
0.24371 -0.00469 5.04075 122 83 55
0.23280 0.07224 5.03642 122 83 55
0.19522 0.14596 5.04658 122 83 55
0.14686 0.19455 5.02820 122 83 55
0.07202 0.23287 5.03179 122 83 55
0.00281 0.24374 5.02823 122 83 55
-0.07816 0.23088 5.03031 122 83 55
-0.14351 0.19703 5.04775 122 83 55
-0.19740 0.14300 5.03978 122 83 55
-0.23226 0.07398 5.04127 122 83 55
-0.24375 -0.00139 5.03931 122 83 55
-0.23096 -0.07794 5.03001 122 83 55
-0.19998 -0.13937 5.04284 122 83 55
-0.14220 -0.19798 5.04483 122 83 55
-0.07094 -0.23320 5.03256 122 83 55
-0.00194 -0.24375 5.04848 122 83 55
0.07307 -0.23254 5.04749 122 83 55
0.14297 -0.19742 5.02831 122 83 55
0.19995 -0.13942 5.03414 122 83 55
0.23121 -0.07719 5.03139 122 83 55
0.24258 -0.00172 5.16688 122 83 55
0.22983 0.07763 5.16588 122 83 55
0.19553 0.14357 5.16233 122 83 55
0.14343 0.19564 5.15830 122 83 55
0.07829 0.22960 5.16311 122 83 55
0.00210 0.24257 5.15755 122 83 55
-0.07568 0.23048 5.14761 122 83 55
-0.14352 0.19557 5.15831 122 83 55
-0.19444 0.14504 5.15361 122 83 55
-0.23078 0.07475 5.17191 122 83 55
-0.24255 0.00411 5.16493 122 83 55
-0.22995 -0.07727 5.15979 122 83 55
-0.19363 -0.14612 5.15656 122 83 55
-0.14471 -0.19469 5.16537 122 83 55
-0.07470 -0.23079 5.15482 122 83 55
0.00421 -0.24254 5.16664 122 83 55
0.07233 -0.23155 5.15044 122 83 55
0.14496 -0.19450 5.15303 122 83 55
0.19873 -0.13911 5.15877 122 83 55
0.23112 -0.07369 5.16121 122 83 55
0.24957 -0.00382 5.27252 122 83 55
0.23833 0.07417 5.28103 122 83 55
0.20389 0.14398 5.26851 122 83 55
0.14340 0.20430 5.28367 122 83 55
0.08115 0.23604 5.28157 122 83 55
0.00473 0.24956 5.27556 122 83 55
-0.08142 0.23595 5.28945 122 83 55
-0.15029 0.19928 5.28802 122 83 55
-0.20190 0.14676 5.28447 122 83 55
-0.23624 0.08056 5.26831 122 83 55
-0.24958 -0.00335 5.26814 122 83 55
-0.23583 -0.08176 5.27466 122 83 55
-0.20319 -0.14497 5.27703 122 83 55
-0.14816 -0.20087 5.27360 122 83 55
-0.07438 -0.23826 5.28379 122 83 55
0.00010 -0.24960 5.27446 122 83 55
0.07437 -0.23826 5.27377 122 83 55
0.14626 -0.20226 5.29201 122 83 55
0.20333 -0.14477 5.27891 122 83 55
0.23807 -0.07498 5.28447 122 83 55
