ply
format ascii 1.0
comment SIMULATED DEMO - NOT FIELD EVIDENCE
element vertex 900
property float x
property float y
property float z
property uchar red
property uchar green
property uchar blue
end_header
0.25997 0.00388 -0.00955 122 83 55
0.24807 0.07786 -0.00373 122 83 55
0.20898 0.15468 -0.00602 122 83 55
0.15373 0.20969 0.01093 122 83 55
0.07586 0.24869 0.01014 122 83 55
-0.00307 0.25998 0.00074 122 83 55
-0.08481 0.24578 0.00105 122 83 55
-0.15646 0.20765 -0.00211 122 83 55
-0.21308 0.14898 0.00571 122 83 55
-0.24746 0.07978 -0.00786 122 83 55
-0.25996 -0.00467 0.01054 122 83 55
-0.24780 -0.07871 0.01085 122 83 55
-0.21309 -0.14897 -0.00511 122 83 55
-0.14862 -0.21334 0.01163 122 83 55
-0.07672 -0.24842 0.00967 122 83 55
-0.00340 -0.25998 -0.00102 122 83 55
0.08443 -0.24591 0.00350 122 83 55
0.15278 -0.21038 0.00744 122 83 55
0.20742 -0.15676 -0.00772 122 83 55
0.24790 -0.07840 0.00011 122 83 55
0.27159 -0.00187 0.11887 122 83 55
0.25747 0.08644 0.10754 122 83 55
0.22116 0.15765 0.11624 122 83 55
0.16184 0.21811 0.12350 122 83 55
0.08120 0.25917 0.11360 122 83 55
-0.00218 0.27159 0.12498 122 83 55
-0.08250 0.25876 0.13103 122 83 55
-0.15745 0.22130 0.11541 122 83 55
-0.21713 0.16316 0.11468 122 83 55
-0.25696 0.08797 0.12112 122 83 55
-0.27160 0.00065 0.12579 122 83 55
-0.25743 -0.08657 0.13241 122 83 55
-0.22064 -0.15837 0.11782 122 83 55
-0.15901 -0.22018 0.12667 122 83 55
-0.08304 -0.25859 0.12258 122 83 55
0.00057 -0.27160 0.12262 122 83 55
0.08424 -0.25820 0.12217 122 83 55
0.15703 -0.22160 0.12051 122 83 55
0.21904 -0.16059 0.11500 122 83 55
0.25943 -0.08037 0.11471 122 83 55
0.27774 -0.00052 0.23533 122 83 55
0.26300 0.08928 0.24134 122 83 55
0.22381 0.16446 0.25206 122 83 55
0.16340 0.22459 0.23964 122 83 55
0.08330 0.26495 0.24866 122 83 55
-0.00273 0.27772 0.23217 122 83 55
-0.09096 0.26242 0.24248 122 83 55
-0.16572 0.22288 0.23534 122 83 55
-0.22654 0.16068 0.23293 122 83 55
-0.26263 0.09035 0.24256 122 83 55
-0.27772 -0.00340 0.22917 122 83 55
-0.26298 -0.08933 0.23413 122 83 55
-0.22248 -0.16626 0.22928 122 83 55
-0.16222 -0.22544 0.23873 122 83 55
-0.08079 -0.26573 0.23414 122 83 55
0.00000 -0.27774 0.23295 122 83 55
0.08174 -0.26544 0.23544 122 83 55
0.16188 -0.22568 0.24644 122 83 55
0.22674 -0.16039 0.24859 122 83 55
0.26531 -0.08215 0.24642 122 83 55
0.27548 -0.00550 0.36233 122 83 55
0.26233 0.08427 0.35173 122 83 55
0.22574 0.15800 0.36845 122 83 55
0.16455 0.22101 0.36771 122 83 55
0.08725 0.26136 0.36093 122 83 55
-0.00241 0.27553 0.35943 122 83 55
-0.08902 0.26076 0.35018 122 83 55
-0.16462 0.22096 0.36224 122 83 55
-0.22315 0.16163 0.36951 122 83 55
-0.26048 0.08984 0.35950 122 83 55
-0.27549 -0.00504 0.36181 122 83 55
-0.26068 -0.08926 0.36913 122 83 55
-0.22386 -0.16065 0.35608 122 83 55
-0.15917 -0.22491 0.35118 122 83 55
-0.08285 -0.26279 0.35440 122 83 55
0.00055 -0.27554 0.36058 122 83 55
0.08969 -0.26053 0.35629 122 83 55
0.15988 -0.22441 0.34994 122 83 55
0.22272 -0.16223 0.35378 122 83 55
0.26345 -0.08072 0.35889 122 83 55
0.26603 0.00015 0.48149 122 83 55
0.25337 0.08108 0.47730 122 83 55
0.21382 0.15829 0.47256 122 83 55
0.15973 0.21274 0.48649 122 83 55
0.07776 0.25441 0.47223 122 83 55
0.00285 0.26601 0.48334 122 83 55
-0.08258 0.25289 0.49248 122 83 55
-0.15710 0.21469 0.47361 122 83 55
-0.21394 0.15812 0.47198 122 83 55
-0.25432 0.07807 0.47719 122 83 55
-0.26599 -0.00446 0.49213 122 83 55
-0.25400 -0.07908 0.47390 122 83 55
-0.21457 -0.15726 0.47123 122 83 55
-0.15990 -0.21262 0.49017 122 83 55
-0.08420 -0.25235 0.46985 122 83 55
0.00185 -0.26602 0.48772 122 83 55
0.08283 -0.25281 0.47188 122 83 55
0.15281 -0.21776 0.47187 122 83 55
0.21254 -0.15999 0.48708 122 83 55
0.25398 -0.07917 0.46840 122 83 55
0.25368 -0.00138 0.59691 122 83 55
0.24122 0.07856 0.59394 122 83 55
0.20713 0.14647 0.60696 122 83 55
0.15294 0.20240 0.61120 122 83 55
0.07763 0.24152 0.59541 122 83 55
0.00031 0.25369 0.61178 122 83 55
-0.08093 0.24043 0.60320 122 83 55
-0.15125 0.20366 0.60011 122 83 55
-0.20276 0.15247 0.59289 122 83 55
-0.24065 0.08027 0.60897 122 83 55
-0.25365 -0.00413 0.58936 122 83 55
-0.24244 -0.07469 0.61248 122 83 55
-0.20767 -0.14571 0.61192 122 83 55
-0.14520 -0.20802 0.59957 122 83 55
-0.07930 -0.24097 0.59337 122 83 55
-0.00192 -0.25368 0.60644 122 83 55
0.07502 -0.24234 0.58810 122 83 55
0.15241 -0.20280 0.58822 122 83 55
0.20593 -0.14816 0.60237 122 83 55
0.24150 -0.07767 0.59117 122 83 55
0.24431 -0.00139 0.73126 122 83 55
0.23245 0.07520 0.71297 122 83 55
0.19846 0.14248 0.72790 122 83 55
0.14249 0.19845 0.72992 122 83 55
0.07563 0.23231 0.73210 122 83 55
-0.00479 0.24426 0.72110 122 83 55
-0.07915 0.23114 0.71638 122 83 55
-0.14588 0.19598 0.72592 122 83 55
-0.19624 0.14553 0.71404 122 83 55
-0.23184 0.07706 0.72754 122 83 55
-0.24427 -0.00445 0.72986 122 83 55
-0.23245 -0.07519 0.71602 122 83 55
-0.19677 -0.14481 0.73041 122 83 55
-0.14727 -0.19493 0.73128 122 83 55
-0.07231 -0.23337 0.72217 122 83 55
-0.00047 -0.24431 0.72222 122 83 55
0.07366 -0.23294 0.73198 122 83 55
0.13974 -0.20040 0.71450 122 83 55
0.19812 -0.14296 0.71034 122 83 55
0.23264 -0.07460 0.71095 122 83 55
0.24228 0.00392 0.82978 122 83 55
0.22938 0.07812 0.84952 122 83 55
0.19805 0.13962 0.84126 122 83 55
0.14537 0.19386 0.83522 122 83 55
0.07265 0.23117 0.82821 122 83 55
-0.00096 0.24231 0.83858 122 83 55
-0.07701 0.22975 0.82881 122 83 55
-0.14230 0.19613 0.83450 122 83 55
-0.19455 0.14446 0.82854 122 83 55
-0.22949 0.07779 0.83645 122 83 55
-0.24229 0.00368 0.83615 122 83 55
-0.22957 -0.07755 0.84253 122 83 55
-0.19548 -0.14319 0.82759 122 83 55
-0.14350 -0.19526 0.83079 122 83 55
-0.07881 -0.22914 0.82843 122 83 55
0.00285 -0.24230 0.82781 122 83 55
0.07464 -0.23053 0.83690 122 83 55
0.14039 -0.19750 0.83041 122 83 55
0.19774 -0.14006 0.84571 122 83 55
0.23027 -0.07546 0.84203 122 83 55
0.24863 0.00239 0.97202 122 83 55
0.23693 0.07538 0.96125 122 83 55
0.20111 0.14620 0.97132 122 83 55
0.14236 0.20385 0.95121 122 83 55
0.07876 0.23583 0.96226 122 83 55
0.00221 0.24863 0.97024 122 83 55
-0.08134 0.23496 0.97043 122 83 55
-0.14698 0.20054 0.94971 122 83 55
-0.20372 0.14254 0.95572 122 83 55
-0.23769 0.07296 0.96198 122 83 55
-0.24862 0.00261 0.94894 122 83 55
-0.23559 -0.07950 0.95704 122 83 55
-0.20211 -0.14482 0.96954 122 83 55
-0.14895 -0.19909 0.96813 122 83 55
-0.07896 -0.23577 0.95776 122 83 55
0.00444 -0.24860 0.97246 122 83 55
0.08117 -0.23501 0.96060 122 83 55
0.14445 -0.20237 0.94976 122 83 55
0.20303 -0.14353 0.96732 122 83 55
0.23771 -0.07289 0.96243 122 83 55
0.26029 -0.00289 1.09144 122 83 55
0.24632 0.08417 1.08238 122 83 55
0.21237 0.15052 1.08743 122 83 55
0.15044 0.21242 1.08086 122 83 55
0.07982 0.24776 1.09153 122 83 55
0.00330 0.26028 1.07389 122 83 55
-0.07795 0.24836 1.08245 122 83 55
-0.15305 0.21056 1.07214 122 83 55
-0.21149 0.15175 1.08883 122 83 55
-0.24661 0.08330 1.09026 122 83 55
-0.26029 0.00268 1.08176 122 83 55
-0.24674 -0.08293 1.08205 122 83 55
-0.20982 -0.15406 1.08668 122 83 55
-0.15482 -0.20926 1.08906 122 83 55
-0.07563 -0.24907 1.08555 122 83 55
0.00224 -0.26029 1.07638 122 83 55
0.07978 -0.24777 1.08600 122 83 55
0.15034 -0.21250 1.08579 122 83 55
0.21281 -0.14989 1.09094 122 83 55
0.24652 -0.08357 1.09249 122 83 55
0.27180 -0.00346 1.20280 122 83 55
0.25728 0.08773 1.20308 122 83 55
0.22278 0.15574 1.18838 122 83 55
0.16157 0.21860 1.19858 122 83 55
0.08311 0.25881 1.20600 122 83 55
-0.00211 0.27182 1.20258 122 83 55
-0.08550 0.25803 1.20339 122 83 55
-0.16282 0.21767 1.21081 122 83 55
-0.21978 0.15996 1.20057 122 83 55
-0.25792 0.08584 1.19978 122 83 55
-0.27178 0.00479 1.20859 122 83 55
-0.25969 -0.08033 1.19324 122 83 55
-0.22078 -0.15858 1.20596 122 83 55
-0.16377 -0.21695 1.21160 122 83 55
-0.08624 -0.25778 1.20605 122 83 55
-0.00072 -0.27182 1.19059 122 83 55
0.07934 -0.25999 1.20487 122 83 55
0.16207 -0.21823 1.21177 122 83 55
0.21881 -0.16129 1.20497 122 83 55
0.25976 -0.08009 1.19375 122 83 55
0.27778 -0.00179 1.31236 122 83 55
0.26414 0.08599 1.31906 122 83 55
0.22349 0.16498 1.31967 122 83 55
0.16670 0.22221 1.31320 122 83 55
0.08294 0.26512 1.31515 122 83 55
-0.00045 0.27779 1.31828 122 83 55
-0.08991 0.26284 1.31285 122 83 55
-0.16216 0.22554 1.31015 122 83 55
-0.22447 0.16365 1.33139 122 83 55
-0.26564 0.08125 1.31414 122 83 55
-0.27774 0.00507 1.30918 122 83 55
-0.26542 -0.08197 1.31059 122 83 55
-0.22187 -0.16715 1.31566 122 83 55
-0.16022 -0.22692 1.31792 122 83 55
-0.08513 -0.26442 1.32930 122 83 55
-0.00150 -0.27778 1.32702 122 83 55
0.08172 -0.26550 1.30926 122 83 55
0.16080 -0.22651 1.31689 122 83 55
0.22700 -0.16012 1.31895 122 83 55
0.26362 -0.08758 1.31313 122 83 55
0.27537 -0.00239 1.43587 122 83 55
0.26285 0.08213 1.45159 122 83 55
0.22557 0.15796 1.44856 122 83 55
0.15769 0.22577 1.45120 122 83 55
0.08842 0.26080 1.44248 122 83 55
-0.00531 0.27533 1.45095 122 83 55
-0.07990 0.26354 1.43310 122 83 55
-0.16412 0.22113 1.44738 122 83 55
-0.22023 0.16533 1.43567 122 83 55
-0.26082 0.08836 1.45018 122 83 55
-0.27533 -0.00547 1.44726 122 83 55
-0.26270 -0.08261 1.43470 122 83 55
-0.22520 -0.15849 1.43818 122 83 55
-0.16610 -0.21965 1.44145 122 83 55
-0.08129 -0.26311 1.43588 122 83 55
-0.00367 -0.27536 1.43396 122 83 55
0.08293 -0.26260 1.44077 122 83 55
0.16425 -0.22104 1.43247 122 83 55
0.22575 -0.15770 1.44479 122 83 55
0.26312 -0.08126 1.44743 122 83 55
0.26569 -0.00518 1.54946 122 83 55
0.25120 0.08669 1.56277 122 83 55
0.21630 0.15438 1.57189 122 83 55
0.15487 0.21595 1.56030 122 83 55
0.08339 0.25232 1.55297 122 83 55
0.00479 0.26570 1.55289 122 83 55
-0.08330 0.25235 1.56358 122 83 55
-0.15592 0.21520 1.55006 122 83 55
-0.21570 0.15522 1.56064 122 83 55
-0.25351 0.07970 1.56134 122 83 55
-0.26573 -0.00248 1.55646 122 83 55
-0.25381 -0.07875 1.55352 122 83 55
-0.21431 -0.15713 1.56048 122 83 55
-0.15402 -0.21656 1.54936 122 83 55
-0.07993 -0.25344 1.56442 122 83 55
-0.00091 -0.26574 1.56682 122 83 55
0.08155 -0.25292 1.54765 122 83 55
0.15407 -0.21652 1.55352 122 83 55
0.21362 -0.15807 1.56095 122 83 55
0.25134 -0.08629 1.55316 122 83 55
0.25336 -0.00469 1.67323 122 83 55
0.24005 0.08118 1.69111 122 83 55
0.20682 0.14643 1.68181 122 83 55
0.15087 0.20359 1.68332 122 83 55
0.07510 0.24202 1.68826 122 83 55
-0.00357 0.25338 1.67335 122 83 55
-0.08052 0.24027 1.67303 122 83 55
-0.15127 0.20330 1.68407 122 83 55
-0.20528 0.14857 1.68318 122 83 55
-0.24212 0.07477 1.67644 122 83 55
-0.25339 0.00284 1.68419 122 83 55
-0.24148 -0.07683 1.66933 122 83 55
-0.20208 -0.15290 1.67246 122 83 55
-0.14542 -0.20752 1.67037 122 83 55
-0.07699 -0.24142 1.68202 122 83 55
-0.00313 -0.25338 1.67918 122 83 55
0.08240 -0.23963 1.67466 122 83 55
0.15266 -0.20226 1.68059 122 83 55
0.20356 -0.15092 1.68434 122 83 55
0.24046 -0.07994 1.67665 122 83 55
0.24413 -0.00442 1.78773 122 83 55
0.23228 0.07524 1.80747 122 83 55
0.19817 0.14264 1.78922 122 83 55
0.14467 0.19669 1.80234 122 83 55
0.07135 0.23351 1.80965 122 83 55
-0.00440 0.24413 1.80354 122 83 55
-0.07209 0.23328 1.79963 122 83 55
-0.14574 0.19590 1.81186 122 83 55
-0.19559 0.14616 1.80437 122 83 55
-0.23270 0.07395 1.80865 122 83 55
-0.24416 0.00225 1.79318 122 83 55
-0.23368 -0.07080 1.79608 122 83 55
-0.19821 -0.14258 1.78809 122 83 55
-0.14604 -0.19568 1.79281 122 83 55
-0.07908 -0.23101 1.81237 122 83 55
0.00228 -0.24415 1.80918 122 83 55
0.07586 -0.23208 1.81081 122 83 55
0.14250 -0.19827 1.80690 122 83 55
0.19760 -0.14342 1.80003 122 83 55
0.23099 -0.07913 1.80450 122 83 55
0.24235 -0.00348 1.90823 122 83 55
0.22902 0.07934 1.91625 122 83 55
0.19376 0.14561 1.93012 122 83 55
0.14452 0.19457 1.92826 122 83 55
0.07471 0.23057 1.92393 122 83 55
-0.00276 0.24236 1.91693 122 83 55
-0.07367 0.23091 1.90881 122 83 55
-0.14198 0.19643 1.92101 122 83 55
-0.19472 0.14432 1.92691 122 83 55
-0.22982 0.07701 1.90991 122 83 55
-0.24236 -0.00296 1.92096 122 83 55
-0.22918 -0.07887 1.92699 122 83 55
-0.19541 -0.14339 1.92436 122 83 55
-0.13905 -0.19852 1.90804 122 83 55
-0.07799 -0.22948 1.92176 122 83 55
-0.00338 -0.24235 1.91119 122 83 55
0.07040 -0.23193 1.91986 122 83 55
0.13920 -0.19842 1.92581 122 83 55
0.19727 -0.14082 1.92386 122 83 55
0.23084 -0.07388 1.90933 122 83 55
0.24887 0.00111 2.04178 122 83 55
0.23741 0.07466 2.05194 122 83 55
0.20207 0.14528 2.02965 122 83 55
0.14774 0.20028 2.03558 122 83 55
0.07272 0.23801 2.04207 122 83 55
0.00330 0.24885 2.02977 122 83 55
-0.07386 0.23766 2.03396 122 83 55
-0.14848 0.19973 2.04811 122 83 55
-0.20185 0.14558 2.04029 122 83 55
-0.23575 0.07975 2.04551 122 83 55
-0.24887 -0.00177 2.04706 122 83 55
-0.23667 -0.07698 2.04749 122 83 55
-0.19874 -0.14980 2.03804 122 83 55
-0.14613 -0.20145 2.04921 122 83 55
-0.07675 -0.23674 2.03789 122 83 55
-0.00300 -0.24886 2.03284 122 83 55
0.07224 -0.23816 2.02864 122 83 55
0.14794 -0.20013 2.03365 122 83 55
0.19845 -0.15018 2.04773 122 83 55
0.23621 -0.07838 2.04084 122 83 55
0.26060 -0.00202 2.15213 122 83 55
0.24634 0.08503 2.17096 122 83 55
0.20885 0.15588 2.14908 122 83 55
0.15319 0.21083 2.16753 122 83 55
0.07776 0.24873 2.17061 122 83 55
-0.00364 0.26058 2.15710 122 83 55
-0.08203 0.24736 2.14987 122 83 55
-0.14954 0.21343 2.14794 122 83 55
-0.21274 0.15052 2.16385 122 83 55
-0.24843 0.07871 2.16410 122 83 55
-0.26056 0.00466 2.16807 122 83 55
-0.24724 -0.08238 2.16850 122 83 55
-0.21204 -0.15150 2.17029 122 83 55
-0.15434 -0.20999 2.15022 122 83 55
-0.08293 -0.24706 2.15145 122 83 55
-0.00405 -0.26057 2.16231 122 83 55
0.08313 -0.24699 2.14821 122 83 55
0.15614 -0.20865 2.15275 122 83 55
0.20831 -0.15659 2.16783 122 83 55
0.24860 -0.07818 2.16219 122 83 55
0.27205 0.00045 2.28239 122 83 55
0.25972 0.08099 2.28882 122 83 55
0.21719 0.16383 2.29051 122 83 55
0.15875 0.22093 2.28652 122 83 55
0.08871 0.25718 2.28597 122 83 55
0.00411 0.27202 2.28887 122 83 55
-0.08727 0.25768 2.27908 122 83 55
-0.15681 0.22232 2.28297 122 83 55
-0.21746 0.16348 2.27260 122 83 55
-0.25744 0.08797 2.28800 122 83 55
-0.27205 0.00156 2.28050 122 83 55
-0.26003 -0.07997 2.27996 122 83 55
-0.22180 -0.15753 2.27401 122 83 55
-0.16234 -0.21831 2.27512 122 83 55
-0.08801 -0.25742 2.27557 122 83 55
0.00010 -0.27205 2.27098 122 83 55
0.08132 -0.25962 2.27781 122 83 55
0.15744 -0.22187 2.27491 122 83 55
0.22134 -0.15817 2.27059 122 83 55
0.25995 -0.08022 2.28169 122 83 55
0.27783 0.00085 2.41062 122 83 55
0.26417 0.08604 2.38760 122 83 55
0.22770 0.15919 2.40944 122 83 55
0.16730 0.22181 2.39488 122 83 55
0.09112 0.26247 2.39152 122 83 55
-0.00017 0.27783 2.41158 122 83 55
-0.08925 0.26311 2.40593 122 83 55
-0.16510 0.22345 2.40821 122 83 55
-0.22243 0.16648 2.40581 122 83 55
-0.26447 0.08513 2.39874 122 83 55
-0.27781 -0.00322 2.39648 122 83 55
-0.26516 -0.08296 2.39974 122 83 55
-0.22648 -0.16092 2.39909 122 83 55
-0.16329 -0.22478 2.39276 122 83 55
-0.08805 -0.26351 2.38805 122 83 55
-0.00157 -0.27783 2.40132 122 83 55
0.08940 -0.26305 2.39163 122 83 55
0.16504 -0.22350 2.40006 122 83 55
0.22661 -0.16074 2.40149 122 83 55
0.26337 -0.08846 2.40479 122 83 55
0.27522 0.00178 2.51308 122 83 55
0.26102 0.08728 2.51870 122 83 55
0.22311 0.16116 2.51010 122 83 55
0.16474 0.22048 2.52592 122 83 55
0.08549 0.26161 2.53248 122 83 55
-0.00037 0.27522 2.52500 122 83 55
-0.08778 0.26085 2.52357 122 83 55
-0.16347 0.22142 2.52627 122 83 55
-0.22546 0.15785 2.50855 122 83 55
-0.26102 0.08726 2.51800 122 83 55
-0.27522 0.00117 2.51719 122 83 55
-0.26155 -0.08566 2.51779 122 83 55
-0.22079 -0.16432 2.51040 122 83 55
-0.16077 -0.22339 2.52174 122 83 55
-0.08175 -0.26280 2.53141 122 83 55
0.00548 -0.27517 2.52523 122 83 55
0.08741 -0.26097 2.50839 122 83 55
0.16202 -0.22248 2.52036 122 83 55
0.22088 -0.16420 2.51670 122 83 55
0.26228 -0.08340 2.53143 122 83 55
0.26545 0.00144 2.63543 122 83 55
0.25111 0.08608 2.65099 122 83 55
0.21503 0.15566 2.64867 122 83 55
0.15950 0.21220 2.63033 122 83 55
0.07951 0.25327 2.64359 122 83 55
0.00039 0.26546 2.62946 122 83 55
-0.08635 0.25102 2.63860 122 83 55
-0.15879 0.21273 2.63788 122 83 55
-0.21726 0.15253 2.63090 122 83 55
-0.25207 0.08323 2.63382 122 83 55
-0.26545 -0.00203 2.63920 122 83 55
-0.25103 -0.08631 2.63568 122 83 55
-0.21249 -0.15910 2.63861 122 83 55
-0.15679 -0.21421 2.64572 122 83 55
-0.08186 -0.25252 2.64575 122 83 55
-0.00294 -0.26544 2.64751 122 83 55
0.08365 -0.25193 2.64370 122 83 55
0.15689 -0.21413 2.64949 122 83 55
0.21200 -0.15976 2.64245 122 83 55
0.25084 -0.08686 2.64862 122 83 55
0.25309 -0.00411 2.77167 122 83 55
0.24059 0.07867 2.76416 122 83 55
0.20720 0.14539 2.76922 122 83 55
0.14964 0.20415 2.75785 122 83 55
0.08128 0.23972 2.75468 122 83 55
0.00260 0.25311 2.75821 122 83 55
-0.08047 0.23999 2.75869 122 83 55
-0.14517 0.20735 2.76257 122 83 55
-0.20622 0.14678 2.76002 122 83 55
-0.24060 0.07864 2.77216 122 83 55
-0.25309 -0.00383 2.76859 122 83 55
-0.23977 -0.08113 2.75140 122 83 55
-0.20753 -0.14492 2.76387 122 83 55
-0.14721 -0.20592 2.74899 122 83 55
-0.07789 -0.24084 2.75940 122 83 55
-0.00058 -0.25312 2.75480 122 83 55
0.07737 -0.24101 2.77034 122 83 55
0.15045 -0.20356 2.77233 122 83 55
0.20376 -0.15018 2.76731 122 83 55
0.24044 -0.07911 2.76842 122 83 55
0.24400 -0.00371 2.87588 122 83 55
0.23182 0.07620 2.88748 122 83 55
0.20008 0.13970 2.87253 122 83 55
0.14082 0.19929 2.88428 122 83 55
0.07933 0.23077 2.87896 122 83 55
0.00101 0.24402 2.88026 122 83 55
-0.07214 0.23312 2.88792 122 83 55
-0.14125 0.19899 2.87977 122 83 55
-0.19891 0.14136 2.88512 122 83 55
-0.23173 0.07648 2.88870 122 83 55
-0.24402 -0.00086 2.86784 122 83 55
-0.23139 -0.07750 2.88947 122 83 55
-0.19937 -0.14071 2.88224 122 83 55
-0.14154 -0.19878 2.87240 122 83 55
-0.07658 -0.23170 2.88746 122 83 55
0.00377 -0.24399 2.88473 122 83 55
0.07766 -0.23134 2.88620 122 83 55
0.14683 -0.19490 2.88993 122 83 55
0.19703 -0.14397 2.89221 122 83 55
0.23064 -0.07970 2.88615 122 83 55
0.24244 0.00069 3.00683 122 83 55
0.23025 0.07589 3.00882 122 83 55
0.19651 0.14199 2.99272 122 83 55
0.14478 0.19446 3.00878 122 83 55
0.07601 0.23022 3.00918 122 83 55
0.00462 0.24239 2.99850 122 83 55
-0.07685 0.22994 3.00493 122 83 55
-0.14348 0.19542 2.99021 122 83 55
-0.19784 0.14013 2.99506 122 83 55
-0.22933 0.07864 3.00602 122 83 55
-0.24242 0.00279 3.01059 122 83 55
-0.22982 -0.07719 3.00142 122 83 55
-0.19563 -0.14320 3.00493 122 83 55
-0.13891 -0.19870 2.98957 122 83 55
-0.07441 -0.23074 2.98804 122 83 55
0.00371 -0.24241 2.99047 122 83 55
0.07910 -0.22917 2.99014 122 83 55
0.13934 -0.19840 3.00981 122 83 55
0.19387 -0.14557 2.98833 122 83 55
0.23016 -0.07616 3.00900 122 83 55
0.24908 0.00434 3.13040 122 83 55
0.23813 0.07316 3.12900 122 83 55
0.20357 0.14358 3.13163 122 83 55
0.14815 0.20027 3.12152 122 83 55
0.07384 0.23792 3.12159 122 83 55
-0.00357 0.24909 3.11802 122 83 55
-0.07315 0.23813 3.12394 122 83 55
-0.14878 0.19980 3.12254 122 83 55
-0.20276 0.14473 3.10895 122 83 55
-0.23679 0.07738 3.12110 122 83 55
-0.24910 -0.00282 3.11916 122 83 55
-0.23547 -0.08132 3.11149 122 83 55
-0.19873 -0.15022 3.11546 122 83 55
-0.14617 -0.20172 3.12842 122 83 55
-0.07411 -0.23783 3.12642 122 83 55
-0.00304 -0.24909 3.12549 122 83 55
0.08155 -0.23539 3.11566 122 83 55
0.14428 -0.20308 3.13150 122 83 55
0.20397 -0.14301 3.11276 122 83 55
0.23612 -0.07941 3.12989 122 83 55
0.26089 0.00258 3.22970 122 83 55
0.24731 0.08314 3.23645 122 83 55
0.21079 0.15376 3.25110 122 83 55
0.15146 0.21245 3.24162 122 83 55
0.07890 0.24869 3.23768 122 83 55
0.00115 0.26091 3.23493 122 83 55
-0.07828 0.24889 3.23855 122 83 55
-0.15123 0.21261 3.23540 122 83 55
-0.21038 0.15431 3.23943 122 83 55
-0.24715 0.08360 3.23306 122 83 55
-0.26091 0.00080 3.23497 122 83 55
-0.24942 -0.07656 3.23275 122 83 55
-0.21045 -0.15422 3.23447 122 83 55
-0.15585 -0.20924 3.23802 122 83 55
-0.07756 -0.24911 3.24695 122 83 55
-0.00078 -0.26091 3.24873 122 83 55
0.07633 -0.24949 3.24732 122 83 55
0.15037 -0.21322 3.22754 122 83 55
0.21016 -0.15462 3.23197 122 83 55
0.24690 -0.08434 3.24663 122 83 55
0.27227 0.00070 3.34816 122 83 55
0.25778 0.08765 3.35215 122 83 55
0.21760 0.16366 3.34799 122 83 55
0.16335 0.21783 3.35036 122 83 55
0.07926 0.26048 3.36880 122 83 55
0.00501 0.27223 3.37031 122 83 55
-0.08039 0.26014 3.34830 122 83 55
-0.15858 0.22133 3.36471 122 83 55
-0.21954 0.16105 3.36387 122 83 55
-0.26030 0.07986 3.36625 122 83 55
-0.27227 0.00155 3.37165 122 83 55
-0.26010 -0.08050 3.35342 122 83 55
-0.22137 -0.15852 3.36747 122 83 55
-0.16400 -0.21734 3.35075 122 83 55
-0.08356 -0.25914 3.35276 122 83 55
-0.00029 -0.27228 3.34999 122 83 55
0.08913 -0.25727 3.36999 122 83 55
0.15595 -0.22319 3.36960 122 83 55
0.21969 -0.16084 3.35312 122 83 55
0.25842 -0.08576 3.35146 122 83 55
0.27787 0.00014 3.49035 122 83 55
0.26382 0.08723 3.46998 122 83 55
0.22557 0.16226 3.48705 122 83 55
0.16691 0.22216 3.46980 122 83 55
0.08653 0.26405 3.46851 122 83 55
0.00098 0.27787 3.47463 122 83 55
-0.08989 0.26293 3.46816 122 83 55
-0.15993 0.22723 3.49128 122 83 55
-0.22200 0.16712 3.47824 122 83 55
-0.26286 0.09009 3.48873 122 83 55
-0.27787 0.00022 3.47606 122 83 55
-0.26548 -0.08204 3.46860 122 83 55
-0.22774 -0.15920 3.48534 122 83 55
-0.16462 -0.22386 3.48977 122 83 55
-0.08905 -0.26321 3.46839 122 83 55
-0.00484 -0.27783 3.47076 122 83 55
0.08928 -0.26314 3.47599 122 83 55
0.16049 -0.22683 3.47508 122 83 55
0.22708 -0.16015 3.48820 122 83 55
0.26409 -0.08641 3.49085 122 83 55
0.27506 -0.00128 3.60560 122 83 55
0.26023 0.08910 3.59225 122 83 55
0.22280 0.16130 3.59160 122 83 55
0.16214 0.22219 3.61162 122 83 55
0.08107 0.26284 3.59282 122 83 55
-0.00103 0.27506 3.60234 122 83 55
-0.08714 0.26089 3.59573 122 83 55
-0.16060 0.22331 3.60378 122 83 55
-0.22174 0.16275 3.60897 122 83 55
-0.26092 0.08707 3.60089 122 83 55
-0.27506 0.00009 3.59708 122 83 55
-0.26045 -0.08845 3.60727 122 83 55
-0.22107 -0.16367 3.58767 122 83 55
-0.16107 -0.22297 3.59681 122 83 55
-0.08485 -0.26164 3.61005 122 83 55
-0.00180 -0.27505 3.59520 122 83 55
0.08355 -0.26206 3.60494 122 83 55
0.16333 -0.22132 3.59895 122 83 55
0.22528 -0.15782 3.60091 122 83 55
0.26197 -0.08385 3.59564 122 83 55
0.26516 -0.00206 3.72946 122 83 55
0.25233 0.08152 3.71063 122 83 55
0.21711 0.15224 3.71701 122 83 55
0.15720 0.21355 3.72132 122 83 55
0.08563 0.25096 3.71821 122 83 55
-0.00031 0.26517 3.73189 122 83 55
-0.07957 0.25295 3.71130 122 83 55
-0.15652 0.21405 3.73196 122 83 55
-0.21171 0.15967 3.73244 122 83 55
-0.25144 0.08420 3.71957 122 83 55
-0.26516 -0.00104 3.71223 122 83 55
-0.25183 -0.08302 3.72959 122 83 55
-0.21743 -0.15178 3.72391 122 83 55
-0.15789 -0.21304 3.73024 122 83 55
-0.07780 -0.25350 3.71387 122 83 55
-0.00012 -0.26517 3.71156 122 83 55
0.08662 -0.25062 3.71648 122 83 55
0.15381 -0.21600 3.72086 122 83 55
0.21587 -0.15399 3.71142 122 83 55
0.25076 -0.08623 3.73146 122 83 55
0.25280 0.00476 3.83298 122 83 55
0.23942 0.08129 3.83237 122 83 55
0.20596 0.14666 3.83199 122 83 55
0.14758 0.20531 3.84273 122 83 55
0.07655 0.24098 3.84241 122 83 55
0.00053 0.25284 3.83099 122 83 55
-0.07911 0.24015 3.83569 122 83 55
-0.15266 0.20156 3.85024 122 83 55
-0.20485 0.14821 3.85245 122 83 55
-0.23963 0.08066 3.83235 122 83 55
-0.25283 -0.00273 3.83708 122 83 55
-0.24091 -0.07676 3.84451 122 83 55
-0.20477 -0.14832 3.84729 122 83 55
-0.15093 -0.20285 3.83351 122 83 55
-0.07335 -0.24197 3.84685 122 83 55
-0.00000 -0.25284 3.84389 122 83 55
0.07397 -0.24178 3.84577 122 83 55
0.14561 -0.20671 3.82768 122 83 55
0.20743 -0.14459 3.83391 122 83 55
0.24108 -0.07623 3.84447 122 83 55
0.24389 -0.00073 3.95478 122 83 55
0.23083 0.07874 3.95187 122 83 55
0.19853 0.14165 3.95773 122 83 55
0.14624 0.19518 3.95283 122 83 55
0.07430 0.23229 3.96810 122 83 55
0.00136 0.24388 3.96721 122 83 55
-0.07677 0.23149 3.97096 122 83 55
-0.14631 0.19513 3.95158 122 83 55
-0.19689 0.14392 3.96039 122 83 55
-0.23094 0.07842 3.97223 122 83 55
-0.24389 -0.00059 3.96749 122 83 55
-0.23212 -0.07483 3.94776 122 83 55
-0.19947 -0.14034 3.95164 122 83 55
-0.14321 -0.19741 3.94885 122 83 55
-0.07331 -0.23261 3.95067 122 83 55
0.00387 -0.24386 3.95398 122 83 55
0.07279 -0.23277 3.96683 122 83 55
0.14687 -0.19471 3.96624 122 83 55
0.19832 -0.14195 3.97195 122 83 55
0.23204 -0.07509 3.95247 122 83 55
0.24251 -0.00074 4.09095 122 83 55
0.23056 0.07520 4.09245 122 83 55
0.19641 0.14224 4.08978 122 83 55
0.14568 0.19387 4.09182 122 83 55
0.07492 0.23064 4.06933 122 83 55
-0.00113 0.24250 4.08890 122 83 55
-0.07329 0.23117 4.07387 122 83 55
-0.14344 0.19554 4.09166 122 83 55
-0.19524 0.14384 4.07825 122 83 55
-0.22971 0.07775 4.08760 122 83 55
-0.24251 0.00003 4.07967 122 83 55
-0.22997 -0.07696 4.08005 122 83 55
-0.19356 -0.14610 4.09092 122 83 55
-0.14050 -0.19766 4.07632 122 83 55
-0.07889 -0.22932 4.06829 122 83 55
0.00093 -0.24251 4.08875 122 83 55
0.07672 -0.23005 4.08871 122 83 55
0.14467 -0.19463 4.09142 122 83 55
0.19829 -0.13960 4.07163 122 83 55
0.23053 -0.07528 4.08124 122 83 55
0.24935 -0.00157 4.19276 122 83 55
0.23657 0.07882 4.19359 122 83 55
0.20200 0.14620 4.20284 122 83 55
0.14561 0.20242 4.18866 122 83 55
0.07767 0.23695 4.19082 122 83 55
-0.00020 0.24936 4.20138 122 83 55
-0.07345 0.23829 4.21218 122 83 55
-0.14295 0.20431 4.20341 122 83 55
-0.20198 0.14622 4.20947 122 83 55
-0.23864 0.07230 4.20753 122 83 55
-0.24931 0.00476 4.18804 122 83 55
-0.23675 -0.07828 4.20568 122 83 55
-0.20082 -0.14782 4.20663 122 83 55
-0.14842 -0.20037 4.20314 122 83 55
-0.07875 -0.23659 4.20341 122 83 55
0.00305 -0.24934 4.19779 122 83 55
0.07825 -0.23676 4.20940 122 83 55
0.14375 -0.20375 4.20958 122 83 55
0.20116 -0.14736 4.20760 122 83 55
0.23849 -0.07280 4.19625 122 83 55
0.26120 0.00173 4.32215 122 83 55
0.24681 0.08554 4.31832 122 83 55
0.21337 0.15068 4.31327 122 83 55
0.15623 0.20934 4.33172 122 83 55
0.07660 0.24972 4.32999 122 83 55
0.00508 0.26116 4.31351 122 83 55
-0.07933 0.24887 4.32878 122 83 55
-0.15622 0.20935 4.33176 122 83 55
-0.20859 0.15723 4.32256 122 83 55
-0.24789 0.08236 4.32736 122 83 55
-0.26116 0.00511 4.31088 122 83 55
-0.24890 -0.07923 4.31138 122 83 55
-0.21412 -0.14961 4.31305 122 83 55
-0.15414 -0.21088 4.32834 122 83 55
-0.07703 -0.24959 4.31265 122 83 55
0.00507 -0.26116 4.32140 122 83 55
0.08348 -0.24751 4.32762 122 83 55
0.15127 -0.21295 4.31727 122 83 55
0.21412 -0.14961 4.32685 122 83 55
0.24927 -0.07808 4.32964 122 83 55
0.27244 -0.00529 4.44008 122 83 55
0.25819 0.08714 4.43108 122 83 55
0.22254 0.15726 4.44944 122 83 55
0.16243 0.21879 4.43492 122 83 55
0.08763 0.25802 4.45192 122 83 55
0.00083 0.27249 4.42952 122 83 55
-0.08845 0.25774 4.43859 122 83 55
-0.16202 0.21910 4.43887 122 83 55
-0.21909 0.16202 4.44259 122 83 55
-0.25939 0.08350 4.43957 122 83 55
-0.27247 -0.00362 4.44384 122 83 55
-0.26077 -0.07907 4.45051 122 83 55
-0.22331 -0.15616 4.44020 122 83 55
-0.16425 -0.21743 4.43278 122 83 55
-0.08301 -0.25954 4.43065 122 83 55
0.00404 -0.27247 4.44874 122 83 55
0.08743 -0.25809 4.43740 122 83 55
0.16398 -0.21763 4.43529 122 83 55
0.22244 -0.15740 4.45029 122 83 55
0.26038 -0.08035 4.42755 122 83 55
0.27789 0.00293 4.55270 122 83 55
0.26553 0.08200 4.57077 122 83 55
0.22315 0.16563 4.55496 122 83 55
0.15981 0.22736 4.54907 122 83 55
0.09014 0.26288 4.56197 122 83 55
0.00261 0.27789 4.56115 122 83 55
-0.08615 0.26421 4.55832 122 83 55
-0.16042 0.22692 4.55445 122 83 55
-0.22325 0.16550 4.55042 122 83 55
-0.26363 0.08791 4.56009 122 83 55
-0.27785 -0.00549 4.56624 122 83 55
-0.26273 -0.09057 4.55757 122 83 55
-0.22625 -0.16137 4.55970 122 83 55
-0.16127 -0.22633 4.56936 122 83 55
-0.08159 -0.26566 4.55289 122 83 55
0.00073 -0.27790 4.57148 122 83 55
0.08203 -0.26552 4.55548 122 83 55
0.16067 -0.22675 4.56297 122 83 55
0.22181 -0.16742 4.55721 122 83 55
0.26357 -0.08810 4.56774 122 83 55
0.27487 -0.00335 4.69023 122 83 55
0.26020 0.08865 4.66917 122 83 55
0.22267 0.16119 4.67461 122 83 55
0.16112 0.22272 4.66855 122 83 55
0.08267 0.26217 4.68640 122 83 55
0.00429 0.27486 4.68516 122 83 55
-0.08733 0.26065 4.66900 122 83 55
-0.16450 0.22024 4.67162 122 83 55
-0.22186 0.16230 4.68979 122 83 55
-0.25997 0.08935 4.67473 122 83 55
-0.27489 0.00183 4.68016 122 83 55
-0.26284 -0.08050 4.68302 122 83 55
-0.22494 -0.15801 4.66842 122 83 55
-0.16150 -0.22245 4.67367 122 83 55
-0.08971 -0.25984 4.67639 122 83 55
0.00208 -0.27488 4.68262 122 83 55
0.08329 -0.26197 4.68148 122 83 55
0.15992 -0.22359 4.67791 122 83 55
0.22170 -0.16253 4.67752 122 83 55
0.25996 -0.08936 4.67256 122 83 55
0.26486 -0.00277 4.79382 122 83 55
0.25144 0.08328 4.78964 122 83 55
0.21603 0.15327 4.79816 122 83 55
0.15347 0.21589 4.80834 122 83 55
0.08454 0.25102 4.81059 122 83 55
-0.00022 0.26488 4.79607 122 83 55
-0.07937 0.25271 4.81134 122 83 55
-0.15176 0.21709 4.78791 122 83 55
-0.21725 0.15153 4.80725 122 83 55
-0.25047 0.08617 4.80612 122 83 55
-0.26486 -0.00301 4.80739 122 83 55
-0.25266 -0.07952 4.79838 122 83 55
-0.21553 -0.15397 4.80491 122 83 55
-0.15776 -0.21277 4.79488 122 83 55
-0.08316 -0.25148 4.79821 122 83 55
0.00095 -0.26487 4.79571 122 83 55
0.07840 -0.25301 4.79097 122 83 55
0.15346 -0.21590 4.80589 122 83 55
0.21509 -0.15459 4.79177 122 83 55
0.25142 -0.08335 4.79213 122 83 55
0.25255 0.00253 4.91006 122 83 55
0.24098 0.07562 4.91120 122 83 55
0.20678 0.14502 4.91199 122 83 55
0.15248 0.20134 4.92634 122 83 55
0.07687 0.24058 4.92527 122 83 55
0.00459 0.25253 4.92929 122 83 55
-0.07385 0.24153 4.91392 122 83 55
-0.14924 0.20376 4.91663 122 83 55
-0.20642 0.14553 4.92478 122 83 55
-0.24155 0.07377 4.92578 122 83 55
-0.25256 -0.00191 4.91915 122 83 55
-0.23919 -0.08111 4.92169 122 83 55
-0.20536 -0.14703 4.92370 122 83 55
-0.14939 -0.20365 4.92198 122 83 55
-0.07431 -0.24139 4.92169 122 83 55
0.00121 -0.25256 4.90934 122 83 55
0.07335 -0.24168 4.91127 122 83 55
0.14505 -0.20676 4.91118 122 83 55
0.20435 -0.14843 4.91402 122 83 55
0.23982 -0.07924 4.90799 122 83 55
0.24375 -0.00119 5.04339 122 83 55
0.23111 0.07750 5.03283 122 83 55
0.19751 0.14284 5.03351 122 83 55
0.14227 0.19793 5.04096 122 83 55
0.07248 0.23273 5.03045 122 83 55
0.00225 0.24374 5.02951 122 83 55
-0.07918 0.23054 5.02916 122 83 55
-0.14234 0.19788 5.04362 122 83 55
-0.19492 0.14636 5.04542 122 83 55
-0.23242 0.07348 5.03667 122 83 55
-0.24375 -0.00187 5.04864 122 83 55
-0.23037 -0.07967 5.03827 122 83 55
-0.19961 -0.13990 5.05235 122 83 55
-0.14326 -0.19721 5.03027 122 83 55
-0.07565 -0.23172 5.04564 122 83 55
-0.00024 -0.24375 5.04194 122 83 55
0.07182 -0.23293 5.03007 122 83 55
0.14390 -0.19674 5.03212 122 83 55
0.19580 -0.14519 5.03254 122 83 55
0.23246 -0.07334 5.03191 122 83 55
0.24254 0.00453 5.16634 122 83 55
0.22988 0.07747 5.14816 122 83 55
0.19403 0.14559 5.15338 122 83 55
0.14032 0.19788 5.16908 122 83 55
0.07605 0.23035 5.17216 122 83 55
-0.00426 0.24254 5.16442 122 83 55
-0.07498 0.23070 5.15215 122 83 55
-0.14019 0.19797 5.15419 122 83 55
-0.19342 0.14640 5.16651 122 83 55
-0.23102 0.07399 5.15091 122 83 55
-0.24256 0.00307 5.16141 122 83 55
-0.23069 -0.07502 5.16677 122 83 55
-0.19769 -0.14058 5.15635 122 83 55
-0.14524 -0.19430 5.14823 122 83 55
-0.07412 -0.23098 5.16120 122 83 55
0.00090 -0.24258 5.16195 122 83 55
0.07190 -0.23168 5.16195 122 83 55
0.14362 -0.19550 5.16206 122 83 55
0.19734 -0.14107 5.15826 122 83 55
0.23051 -0.07556 5.15012 122 83 55
0.24960 0.00048 5.28749 122 83 55
0.23885 0.07246 5.29042 122 83 55
0.20167 0.14707 5.28557 122 83 55
0.14687 0.20182 5.28431 122 83 55
0.07325 0.23861 5.28705 122 83 55
0.00355 0.24958 5.28378 122 83 55
-0.07369 0.23847 5.27221 122 83 55
-0.14722 0.20156 5.28048 122 83 55
-0.20282 0.14548 5.27586 122 83 55
-0.23644 0.07998 5.28793 122 83 55
-0.24959 0.00191 5.28352 122 83 55
-0.23771 -0.07614 5.27053 122 83 55
-0.20336 -0.14473 5.28685 122 83 55
-0.14536 -0.20291 5.26971 122 83 55
-0.07522 -0.23800 5.28161 122 83 55
0.00116 -0.24960 5.28822 122 83 55
0.07729 -0.23733 5.27257 122 83 55
0.15034 -0.19925 5.27553 122 83 55
0.20375 -0.14418 5.28109 122 83 55
0.23707 -0.07808 5.28780 122 83 55
