ply
format ascii 1.0
comment SIMULATED DEMO - NOT FIELD EVIDENCE
element vertex 900
property float x
property float y
property float z
property uchar red
property uchar green
property uchar blue
end_header
0.25999 -0.00235 -0.00445 122 83 55
0.24594 0.08434 0.00744 122 83 55
0.21297 0.14914 0.00989 122 83 55
0.15530 0.20852 0.00820 122 83 55
0.07952 0.24754 -0.00773 122 83 55
-0.00353 0.25998 0.00677 122 83 55
-0.07590 0.24868 -0.00089 122 83 55
-0.15615 0.20789 -0.00345 122 83 55
-0.20868 0.15509 -0.00488 122 83 55
-0.24672 0.08202 0.00320 122 83 55
-0.25999 -0.00244 0.00338 122 83 55
-0.24580 -0.08475 -0.00115 122 83 55
-0.21242 -0.14993 0.00219 122 83 55
-0.15488 -0.20883 0.00082 122 83 55
-0.07914 -0.24766 0.00192 122 83 55
-0.00114 -0.26000 -0.00883 122 83 55
0.08198 -0.24674 -0.00866 122 83 55
0.15435 -0.20923 -0.00033 122 83 55
0.21095 -0.15199 -0.00088 122 83 55
0.24754 -0.07952 -0.00102 122 83 55
0.27159 0.00238 0.11738 122 83 55
0.25988 0.07891 0.11213 122 83 55
0.22271 0.15545 0.12567 122 83 55
0.16077 0.21890 0.12368 122 83 55
0.08568 0.25773 0.12958 122 83 55
-0.00216 0.27159 0.11204 122 83 55
-0.08799 0.25695 0.10996 122 83 55
-0.16253 0.21759 0.12688 122 83 55
-0.22284 0.15526 0.10948 122 83 55
-0.25824 0.08412 0.11665 122 83 55
-0.27155 0.00491 0.11984 122 83 55
-0.25809 -0.08458 0.12254 122 83 55
-0.22166 -0.15694 0.12908 122 83 55
-0.16181 -0.21813 0.12645 122 83 55
-0.08427 -0.25819 0.12464 122 83 55
0.00064 -0.27160 0.12689 122 83 55
0.08868 -0.25671 0.12921 122 83 55
0.15900 -0.22019 0.12271 122 83 55
0.22045 -0.15864 0.12749 122 83 55
0.25870 -0.08268 0.11618 122 83 55
0.27774 0.00008 0.24334 122 83 55
0.26270 0.09015 0.24788 122 83 55
0.22248 0.16626 0.24305 122 83 55
0.16462 0.22370 0.24223 122 83 55
0.08148 0.26552 0.24164 122 83 55
-0.00118 0.27774 0.24383 122 83 55
-0.08951 0.26292 0.24545 122 83 55
-0.16495 0.22345 0.23081 122 83 55
-0.22706 0.15994 0.24538 122 83 55
-0.26415 0.08581 0.24787 122 83 55
-0.27772 0.00270 0.23659 122 83 55
-0.26564 -0.08107 0.23780 122 83 55
-0.22465 -0.16332 0.23658 122 83 55
-0.16496 -0.22344 0.24656 122 83 55
-0.08948 -0.26293 0.23475 122 83 55
0.00526 -0.27769 0.23822 122 83 55
0.08344 -0.26491 0.23807 122 83 55
0.16480 -0.22356 0.23741 122 83 55
0.22651 -0.16072 0.23347 122 83 55
0.26367 -0.08728 0.24801 122 83 55
0.27551 0.00395 0.36380 122 83 55
0.26054 0.08966 0.34828 122 83 55
0.22454 0.15970 0.35584 122 83 55
0.16380 0.22157 0.35364 122 83 55
0.08824 0.26103 0.36446 122 83 55
0.00048 0.27554 0.36471 122 83 55
-0.08324 0.26266 0.35398 122 83 55
-0.16080 0.22375 0.34956 122 83 55
-0.22337 0.16133 0.36842 122 83 55
-0.26217 0.08479 0.36499 122 83 55
-0.27552 0.00274 0.35395 122 83 55
-0.26154 -0.08672 0.35846 122 83 55
-0.22187 -0.16339 0.36804 122 83 55
-0.15899 -0.22504 0.36304 122 83 55
-0.08295 -0.26275 0.37087 122 83 55
-0.00409 -0.27551 0.35929 122 83 55
0.08841 -0.26097 0.35117 122 83 55
0.16109 -0.22354 0.35915 122 83 55
0.22441 -0.15988 0.36942 122 83 55
0.26302 -0.08211 0.34814 122 83 55
0.26602 -0.00272 0.47810 122 83 55
0.25371 0.08001 0.47349 122 83 55
0.21352 0.15869 0.46961 122 83 55
0.15881 0.21343 0.48195 122 83 55
0.08343 0.25261 0.47872 122 83 55
-0.00125 0.26603 0.48747 122 83 55
-0.08502 0.25208 0.47294 122 83 55
-0.15861 0.21358 0.47997 122 83 55
-0.21341 0.15884 0.47005 122 83 55
-0.25259 0.08349 0.46786 122 83 55
-0.26603 0.00135 0.48373 122 83 55
-0.25368 -0.08011 0.48308 122 83 55
-0.21361 -0.15856 0.46902 122 83 55
-0.15546 -0.21588 0.47376 122 83 55
-0.08669 -0.25151 0.47594 122 83 55
-0.00016 -0.26603 0.47089 122 83 55
0.08261 -0.25288 0.47568 122 83 55
0.15456 -0.21652 0.47140 122 83 55
0.21519 -0.15641 0.48012 122 83 55
0.25359 -0.08041 0.48673 122 83 55
0.25366 -0.00328 0.60156 122 83 55
0.24059 0.08046 0.60670 122 83 55
0.20299 0.15215 0.59086 122 83 55
0.15068 0.20409 0.59531 122 83 55
0.07367 0.24275 0.59351 122 83 55
0.00074 0.25368 0.61068 122 83 55
-0.07636 0.24192 0.59436 122 83 55
-0.15232 0.20287 0.59835 122 83 55
-0.20638 0.14753 0.60273 122 83 55
-0.24209 0.07583 0.58767 122 83 55
-0.25367 0.00264 0.59147 122 83 55
-0.24103 -0.07911 0.60791 122 83 55
-0.20725 -0.14630 0.59913 122 83 55
-0.14558 -0.20776 0.61136 122 83 55
-0.08184 -0.24012 0.59099 122 83 55
-0.00265 -0.25367 0.60257 122 83 55
0.07573 -0.24212 0.60609 122 83 55
0.15010 -0.20451 0.60358 122 83 55
0.20780 -0.14552 0.59820 122 83 55
0.24025 -0.08145 0.59146 122 83 55
0.24431 0.00064 0.73042 122 83 55
0.23306 0.07328 0.72101 122 83 55
0.19628 0.14548 0.72388 122 83 55
0.14476 0.19680 0.71103 122 83 55
0.07420 0.23277 0.71272 122 83 55
-0.00241 0.24430 0.72463 122 83 55
-0.07612 0.23215 0.71343 122 83 55
-0.14080 0.19966 0.72966 122 83 55
-0.19872 0.14212 0.72297 122 83 55
-0.23319 0.07288 0.73196 122 83 55
-0.24428 0.00368 0.72150 122 83 55
-0.23152 -0.07801 0.71015 122 83 55
-0.19593 -0.14595 0.72652 122 83 55
-0.14143 -0.19921 0.72719 122 83 55
-0.07424 -0.23276 0.73180 122 83 55
-0.00327 -0.24429 0.72989 122 83 55
0.07117 -0.23371 0.72033 122 83 55
0.14191 -0.19887 0.72906 122 83 55
0.19917 -0.14149 0.72226 122 83 55
0.23233 -0.07557 0.70899 122 83 55
0.24231 0.00126 0.83952 122 83 55
0.23174 0.07080 0.84157 122 83 55
0.19552 0.14314 0.85054 122 83 55
0.14494 0.19419 0.84608 122 83 55
0.07744 0.22961 0.83432 122 83 55
-0.00080 0.24231 0.83752 122 83 55
-0.07599 0.23009 0.83479 122 83 55
-0.14272 0.19582 0.83705 122 83 55
-0.19424 0.14487 0.84218 122 83 55
-0.22969 0.07718 0.84984 122 83 55
-0.24228 -0.00393 0.82978 122 83 55
-0.22913 -0.07885 0.85150 122 83 55
-0.19880 -0.13855 0.83037 122 83 55
-0.14593 -0.19345 0.84573 122 83 55
-0.07776 -0.22950 0.84828 122 83 55
0.00017 -0.24232 0.84207 122 83 55
0.07684 -0.22981 0.83373 122 83 55
0.14514 -0.19404 0.83365 122 83 55
0.19389 -0.14534 0.82785 122 83 55
0.23057 -0.07452 0.83655 122 83 55
0.24863 -0.00119 0.96284 122 83 55
0.23737 0.07401 0.95306 122 83 55
0.20069 0.14678 0.96780 122 83 55
0.14862 0.19933 0.96284 122 83 55
0.07494 0.23707 0.95745 122 83 55
-0.00266 0.24862 0.97204 122 83 55
-0.08103 0.23506 0.96162 122 83 55
-0.14245 0.20378 0.95664 122 83 55
-0.20176 0.14531 0.96027 122 83 55
-0.23567 0.07924 0.96766 122 83 55
-0.24864 -0.00079 0.94958 122 83 55
-0.23787 -0.07236 0.95204 122 83 55
-0.19846 -0.14977 0.96102 122 83 55
-0.14289 -0.20348 0.96423 122 83 55
-0.07914 -0.23571 0.96676 122 83 55
0.00483 -0.24859 0.95491 122 83 55
0.07487 -0.23710 0.96079 122 83 55
0.14734 -0.20028 0.95430 122 83 55
0.20236 -0.14446 0.96133 122 83 55
0.23730 -0.07421 0.94902 122 83 55
0.26030 0.00164 1.08179 122 83 55
0.24696 0.08227 1.07748 122 83 55
0.21229 0.15064 1.08312 122 83 55
0.14913 0.21335 1.08512 122 83 55
0.08080 0.24744 1.07233 122 83 55
-0.00210 0.26029 1.08215 122 83 55
-0.07831 0.24824 1.06759 122 83 55
-0.14889 0.21352 1.07764 122 83 55
-0.21017 0.15357 1.08214 122 83 55
-0.24804 0.07894 1.06987 122 83 55
-0.26030 0.00179 1.08999 122 83 55
-0.24861 -0.07716 1.08443 122 83 55
-0.20994 -0.15389 1.08301 122 83 55
-0.15655 -0.20797 1.07265 122 83 55
-0.08057 -0.24752 1.08998 122 83 55
0.00237 -0.26029 1.06906 122 83 55
0.07944 -0.24788 1.08474 122 83 55
0.14878 -0.21360 1.08809 122 83 55
0.21035 -0.15333 1.09142 122 83 55
0.24596 -0.08523 1.07120 122 83 55
0.27181 0.00260 1.19641 122 83 55
0.25888 0.08288 1.19724 122 83 55
0.22045 0.15903 1.19258 122 83 55
0.15662 0.22217 1.20957 122 83 55
0.08664 0.25765 1.20792 122 83 55
0.00365 0.27180 1.19032 122 83 55
-0.08869 0.25695 1.20157 122 83 55
-0.16091 0.21908 1.19285 122 83 55
-0.21979 0.15994 1.19190 122 83 55
-0.25943 0.08115 1.20024 122 83 55
-0.27180 0.00374 1.19219 122 83 55
-0.25725 -0.08782 1.18838 122 83 55
-0.22132 -0.15781 1.20092 122 83 55
-0.16103 -0.21900 1.19397 122 83 55
-0.08231 -0.25906 1.20497 122 83 55
-0.00051 -0.27183 1.19861 122 83 55
0.07988 -0.25982 1.20996 122 83 55
0.15913 -0.22038 1.19664 122 83 55
0.22209 -0.15673 1.19366 122 83 55
0.25792 -0.08582 1.19546 122 83 55
0.27779 0.00001 1.32927 122 83 55
0.26536 0.08215 1.32355 122 83 55
0.22785 0.15890 1.31688 122 83 55
0.16060 0.22666 1.31238 122 83 55
0.08481 0.26452 1.31247 122 83 55
0.00356 0.27776 1.31990 122 83 55
-0.08821 0.26341 1.32522 122 83 55
-0.16256 0.22525 1.31934 122 83 55
-0.22579 0.16181 1.31004 122 83 55
-0.26254 0.09077 1.30844 122 83 55
-0.27775 0.00457 1.31856 122 83 55
-0.26454 -0.08477 1.33052 122 83 55
-0.22316 -0.16542 1.31803 122 83 55
-0.16720 -0.22184 1.31979 122 83 55
-0.08886 -0.26319 1.32376 122 83 55
0.00086 -0.27779 1.31991 122 83 55
0.08403 -0.26477 1.32218 122 83 55
0.16742 -0.22167 1.33073 122 83 55
0.22576 -0.16186 1.31762 122 83 55
0.26583 -0.08061 1.31966 122 83 55
0.27536 -0.00388 1.43728 122 83 55
0.26065 0.08888 1.43516 122 83 55
0.21974 0.16598 1.44517 122 83 55
0.15752 0.22589 1.45125 122 83 55
0.08049 0.26336 1.44186 122 83 55
-0.00493 0.27534 1.44801 122 83 55
-0.08264 0.26269 1.43330 122 83 55
-0.16513 0.22038 1.43953 122 83 55
-0.22181 0.16320 1.43321 122 83 55
-0.26254 0.08312 1.44182 122 83 55
-0.27534 -0.00473 1.44964 122 83 55
-0.26301 -0.08163 1.43446 122 83 55
-0.22036 -0.16516 1.42772 122 83 55
-0.16105 -0.22338 1.44122 122 83 55
-0.08732 -0.26117 1.43181 122 83 55
-0.00077 -0.27538 1.44078 122 83 55
0.08867 -0.26072 1.43147 122 83 55
0.16218 -0.22256 1.45026 122 83 55
0.22225 -0.16260 1.43696 122 83 55
0.26211 -0.08447 1.43041 122 83 55
0.26574 0.00007 1.55624 122 83 55
0.25219 0.08379 1.56242 122 83 55
0.21191 0.16036 1.56163 122 83 55
0.15389 0.21665 1.56274 122 83 55
0.08563 0.25157 1.55569 122 83 55
-0.00364 0.26572 1.55356 122 83 55
-0.07870 0.25382 1.55688 122 83 55
-0.15225 0.21781 1.56262 122 83 55
-0.21366 0.15802 1.55702 122 83 55
-0.25328 0.08043 1.55761 122 83 55
-0.26574 -0.00088 1.56381 122 83 55
-0.25367 -0.07919 1.55630 122 83 55
-0.21244 -0.15965 1.56278 122 83 55
-0.15999 -0.21219 1.55013 122 83 55
-0.08328 -0.25236 1.56935 122 83 55
0.00037 -0.26574 1.56504 122 83 55
0.08497 -0.25179 1.54811 122 83 55
0.15522 -0.21570 1.56458 122 83 55
0.21380 -0.15783 1.55732 122 83 55
0.25401 -0.07810 1.55667 122 83 55
0.25337 0.00383 1.67824 122 83 55
0.24193 0.07539 1.69155 122 83 55
0.20289 0.15182 1.67990 122 83 55
0.14868 0.20520 1.67985 122 83 55
0.07589 0.24177 1.67131 122 83 55
0.00037 0.25340 1.68567 122 83 55
-0.07816 0.24105 1.67431 122 83 55
-0.14754 0.20603 1.68122 122 83 55
-0.20244 0.15242 1.68150 122 83 55
-0.24075 0.07908 1.68040 122 83 55
-0.25336 -0.00447 1.67490 122 83 55
-0.24041 -0.08010 1.68031 122 83 55
-0.20679 -0.14646 1.67748 122 83 55
-0.14519 -0.20768 1.68563 122 83 55
-0.07771 -0.24119 1.67047 122 83 55
0.00448 -0.25336 1.67730 122 83 55
0.08096 -0.24012 1.69119 122 83 55
0.14953 -0.20459 1.66804 122 83 55
0.20620 -0.14729 1.68194 122 83 55
0.24055 -0.07967 1.66855 122 83 55
0.24416 -0.00050 1.81188 122 83 55
0.23100 0.07910 1.78938 122 83 55
0.19924 0.14114 1.81032 122 83 55
0.14220 0.19849 1.79501 122 83 55
0.07444 0.23254 1.80051 122 83 55
-0.00254 0.24415 1.80244 122 83 55
-0.07933 0.23092 1.80504 122 83 55
-0.14101 0.19933 1.79837 122 83 55
-0.19580 0.14587 1.79945 122 83 55
-0.23326 0.07215 1.80489 122 83 55
-0.24416 0.00167 1.80251 122 83 55
-0.23226 -0.07531 1.81006 122 83 55
-0.19691 -0.14437 1.81248 122 83 55
-0.14020 -0.19990 1.80097 122 83 55
-0.07844 -0.23122 1.81007 122 83 55
0.00134 -0.24416 1.79808 122 83 55
0.07629 -0.23194 1.80513 122 83 55
0.14361 -0.19747 1.79593 122 83 55
0.19582 -0.14585 1.81017 122 83 55
0.23066 -0.08008 1.79657 122 83 55
0.24237 -0.00214 1.92528 122 83 55
0.23094 0.07356 1.92327 122 83 55
0.19365 0.14575 1.90999 122 83 55
0.14177 0.19659 1.91829 122 83 55
0.07717 0.22976 1.91917 122 83 55
0.00283 0.24236 1.92990 122 83 55
-0.07462 0.23060 1.91119 122 83 55
-0.14631 0.19323 1.92485 122 83 55
-0.19698 0.14123 1.91759 122 83 55
-0.23001 0.07643 1.91899 122 83 55
-0.24237 -0.00017 1.92519 122 83 55
-0.22937 -0.07833 1.92975 122 83 55
-0.19669 -0.14162 1.91749 122 83 55
-0.14237 -0.19615 1.92569 122 83 55
-0.07737 -0.22969 1.90855 122 83 55
0.00479 -0.24233 1.90927 122 83 55
0.07373 -0.23089 1.90885 122 83 55
0.14342 -0.19539 1.92565 122 83 55
0.19503 -0.14390 1.91881 122 83 55
0.23154 -0.07167 1.92113 122 83 55
0.24885 0.00334 2.04690 122 83 55
0.23581 0.07957 2.05141 122 83 55
0.20363 0.14309 2.04060 122 83 55
0.14361 0.20326 2.03101 122 83 55
0.07486 0.23735 2.04461 122 83 55
0.00440 0.24883 2.04145 122 83 55
-0.07898 0.23601 2.03203 122 83 55
-0.14999 0.19860 2.04684 122 83 55
-0.19895 0.14953 2.03550 122 83 55
-0.23739 0.07473 2.04726 122 83 55
-0.24886 0.00211 2.04143 122 83 55
-0.23759 -0.07410 2.03593 122 83 55
-0.20020 -0.14784 2.03183 122 83 55
-0.14935 -0.19908 2.04804 122 83 55
-0.07940 -0.23587 2.04440 122 83 55
-0.00191 -0.24887 2.04987 122 83 55
0.07633 -0.23688 2.02795 122 83 55
0.15013 -0.19850 2.04834 122 83 55
0.20205 -0.14531 2.05114 122 83 55
0.23590 -0.07932 2.03233 122 83 55
0.26057 -0.00421 2.14918 122 83 55
0.24795 0.08022 2.15840 122 83 55
0.21053 0.15360 2.15915 122 83 55
0.15577 0.20893 2.15957 122 83 55
0.07608 0.24925 2.17079 122 83 55
-0.00145 0.26060 2.15743 122 83 55
-0.08196 0.24738 2.15116 122 83 55
-0.14959 0.21340 2.16381 122 83 55
-0.21119 0.15269 2.15740 122 83 55
-0.24798 0.08013 2.16459 122 83 55
-0.26060 -0.00082 2.16348 122 83 55
-0.24721 -0.08246 2.16447 122 83 55
-0.21036 -0.15383 2.14773 122 83 55
-0.15022 -0.21296 2.16784 122 83 55
-0.07885 -0.24839 2.14956 122 83 55
-0.00126 -0.26060 2.15706 122 83 55
0.08175 -0.24745 2.15955 122 83 55
0.14964 -0.21336 2.16060 122 83 55
0.21107 -0.15285 2.16392 122 83 55
0.24699 -0.08314 2.16010 122 83 55
0.27204 -0.00305 2.29003 122 83 55
0.25921 0.08260 2.28620 122 83 55
0.21794 0.16284 2.29138 122 83 55
0.15593 0.22293 2.26965 122 83 55
0.08094 0.25973 2.28636 122 83 55
-0.00250 0.27204 2.29016 122 83 55
-0.07897 0.26034 2.27159 122 83 55
-0.15667 0.22241 2.27181 122 83 55
-0.22182 0.15750 2.28672 122 83 55
-0.25728 0.08844 2.28027 122 83 55
-0.27203 0.00360 2.26892 122 83 55
-0.25951 -0.08164 2.28790 122 83 55
-0.21921 -0.16112 2.28152 122 83 55
-0.15937 -0.22049 2.26952 122 83 55
-0.07902 -0.26032 2.28756 122 83 55
-0.00364 -0.27203 2.27756 122 83 55
0.08089 -0.25975 2.26999 122 83 55
0.16117 -0.21917 2.27677 122 83 55
0.22111 -0.15850 2.28206 122 83 55
0.25718 -0.08872 2.27462 122 83 55
0.27781 0.00303 2.41204 122 83 55
0.26366 0.08760 2.41030 122 83 55
0.22175 0.16738 2.38811 122 83 55
0.16656 0.22237 2.40576 122 83 55
0.08514 0.26446 2.40047 122 83 55
-0.00543 0.27778 2.40917 122 83 55
-0.08379 0.26490 2.39861 122 83 55
-0.16623 0.22261 2.39200 122 83 55
-0.22147 0.16776 2.40349 122 83 55
-0.26492 0.08370 2.39231 122 83 55
-0.27779 -0.00502 2.41011 122 83 55
-0.26445 -0.08518 2.40804 122 83 55
-0.22692 -0.16031 2.40253 122 83 55
-0.15975 -0.22731 2.39053 122 83 55
-0.08917 -0.26313 2.38954 122 83 55
-0.00006 -0.27783 2.39935 122 83 55
0.08414 -0.26478 2.40037 122 83 55
0.16301 -0.22498 2.41129 122 83 55
0.22553 -0.16225 2.41125 122 83 55
0.26460 -0.08473 2.40712 122 83 55
0.27522 0.00021 2.52461 122 83 55
0.26157 0.08561 2.51129 122 83 55
0.22250 0.16199 2.51436 122 83 55
0.15839 0.22508 2.52597 122 83 55
0.08940 0.26030 2.52641 122 83 55
0.00056 0.27522 2.52684 122 83 55
-0.08259 0.26254 2.53043 122 83 55
-0.16530 0.22006 2.51957 122 83 55
-0.22239 0.16214 2.52456 122 83 55
-0.26052 0.08876 2.51210 122 83 55
-0.27521 -0.00271 2.53143 122 83 55
-0.26244 -0.08289 2.51893 122 83 55
-0.22019 -0.16512 2.51987 122 83 55
-0.16269 -0.22199 2.51010 122 83 55
-0.08031 -0.26324 2.52303 122 83 55
0.00372 -0.27520 2.52865 122 83 55
0.08189 -0.26276 2.52987 122 83 55
0.16070 -0.22344 2.53160 122 83 55
0.22294 -0.16139 2.50822 122 83 55
0.26043 -0.08901 2.51588 122 83 55
0.26544 0.00291 2.64384 122 83 55
0.25118 0.08587 2.64168 122 83 55
0.21463 0.15621 2.64623 122 83 55
0.15353 0.21655 2.63212 122 83 55
0.08310 0.25211 2.64809 122 83 55
0.00450 0.26542 2.62927 122 83 55
-0.08644 0.25099 2.63170 122 83 55
-0.15472 0.21570 2.64288 122 83 55
-0.21344 0.15783 2.64661 122 83 55
-0.25360 0.07844 2.63439 122 83 55
-0.26545 -0.00197 2.64431 122 83 55
-0.25241 -0.08219 2.64006 122 83 55
-0.21664 -0.15341 2.65204 122 83 55
-0.15417 -0.21610 2.63324 122 83 55
-0.08362 -0.25194 2.64358 122 83 55
-0.00370 -0.26543 2.63722 122 83 55
0.08181 -0.25254 2.64690 122 83 55
0.15362 -0.21649 2.63111 122 83 55
0.21209 -0.15964 2.63402 122 83 55
0.25324 -0.07959 2.64765 122 83 55
0.25312 -0.00181 2.76519 122 83 55
0.24223 0.07347 2.76307 122 83 55
0.20404 0.14980 2.75065 122 83 55
0.14922 0.20446 2.77021 122 83 55
0.07353 0.24221 2.76925 122 83 55
0.00117 0.25312 2.75255 122 83 55
-0.07642 0.24131 2.76479 122 83 55
-0.15054 0.20349 2.75802 122 83 55
-0.20245 0.15193 2.77197 122 83 55
-0.24059 0.07867 2.75259 122 83 55
-0.25310 0.00337 2.76013 122 83 55
-0.24087 -0.07779 2.76998 122 83 55
-0.20705 -0.14561 2.75429 122 83 55
-0.14608 -0.20672 2.77010 122 83 55
-0.08245 -0.23932 2.75416 122 83 55
0.00277 -0.25311 2.75504 122 83 55
0.07920 -0.24041 2.75304 122 83 55
0.15205 -0.20237 2.74771 122 83 55
0.20734 -0.14520 2.76491 122 83 55
0.24000 -0.08044 2.76935 122 83 55
0.24399 0.00382 2.86905 122 83 55
0.23157 0.07695 2.87864 122 83 55
0.19974 0.14019 2.87298 122 83 55
0.14024 0.19970 2.87615 122 83 55
0.07476 0.23229 2.87063 122 83 55
0.00371 0.24400 2.87922 122 83 55
-0.07569 0.23199 2.87892 122 83 55
-0.14271 0.19794 2.87857 122 83 55
-0.19522 0.14641 2.89229 122 83 55
-0.23119 0.07810 2.86933 122 83 55
-0.24402 0.00138 2.88083 122 83 55
-0.23268 -0.07353 2.88514 122 83 55
-0.19677 -0.14432 2.87886 122 83 55
-0.14458 -0.19658 2.88560 122 83 55
-0.07760 -0.23136 2.87241 122 83 55
-0.00108 -0.24402 2.88320 122 83 55
0.07497 -0.23222 2.87481 122 83 55
0.14364 -0.19727 2.87745 122 83 55
0.19477 -0.14701 2.88623 122 83 55
0.23335 -0.07138 2.87002 122 83 55
0.24242 -0.00290 3.00903 122 83 55
0.22938 0.07850 3.01088 122 83 55
0.19778 0.14021 3.00730 122 83 55
0.14423 0.19487 2.99186 122 83 55
0.07541 0.23041 2.99976 122 83 55
0.00478 0.24239 3.00518 122 83 55
-0.07613 0.23018 3.00703 122 83 55
-0.13947 0.19831 2.99075 122 83 55
-0.19753 0.14057 3.00497 122 83 55
-0.23090 0.07390 3.00237 122 83 55
-0.24243 0.00222 2.99744 122 83 55
-0.23126 -0.07276 3.00911 122 83 55
-0.19540 -0.14351 2.99294 122 83 55
-0.13914 -0.19854 2.99446 122 83 55
-0.07066 -0.23191 3.00570 122 83 55
-0.00432 -0.24240 3.00215 122 83 55
0.07637 -0.23010 3.00829 122 83 55
0.14306 -0.19573 3.00855 122 83 55
0.19468 -0.14449 2.99397 122 83 55
0.22973 -0.07748 3.00818 122 83 55
0.24911 0.00059 3.10814 122 83 55
0.23840 0.07228 3.12474 122 83 55
0.20271 0.14480 3.12461 122 83 55
0.14707 0.20107 3.12662 122 83 55
0.07783 0.23664 3.11876 122 83 55
-0.00051 0.24911 3.12684 122 83 55
-0.08061 0.23571 3.12061 122 83 55
-0.14445 0.20296 3.12888 122 83 55
-0.20381 0.14324 3.11241 122 83 55
-0.23833 0.07249 3.11086 122 83 55
-0.24911 0.00104 3.12139 122 83 55
-0.23564 -0.08082 3.12702 122 83 55
-0.20092 -0.14727 3.12958 122 83 55
-0.14546 -0.20223 3.12641 122 83 55
-0.07270 -0.23827 3.10895 122 83 55
-0.00213 -0.24910 3.12531 122 83 55
0.07642 -0.23710 3.12143 122 83 55
0.14342 -0.20369 3.12580 122 83 55
0.20182 -0.14603 3.12923 122 83 55
0.23781 -0.07419 3.12945 122 83 55
0.26086 -0.00491 3.23770 122 83 55
0.24749 0.08259 3.24603 122 83 55
0.21234 0.15160 3.23384 122 83 55
0.15252 0.21169 3.23876 122 83 55
0.08325 0.24727 3.23478 122 83 55
-0.00427 0.26087 3.24855 122 83 55
-0.08230 0.24759 3.24215 122 83 55
-0.15348 0.21099 3.24607 122 83 55
-0.21245 0.15145 3.22916 122 83 55
-0.24690 0.08434 3.24184 122 83 55
-0.26087 -0.00414 3.24860 122 83 55
-0.24842 -0.07974 3.24548 122 83 55
-0.21052 -0.15412 3.24624 122 83 55
-0.15383 -0.21073 3.23685 122 83 55
-0.08226 -0.24760 3.25037 122 83 55
-0.00302 -0.26089 3.24791 122 83 55
0.07608 -0.24957 3.23935 122 83 55
0.15094 -0.21281 3.23518 122 83 55
0.21383 -0.14949 3.24540 122 83 55
0.24792 -0.08131 3.22947 122 83 55
0.27225 -0.00366 3.35416 122 83 55
0.26019 0.08022 3.35010 122 83 55
0.21790 0.16325 3.35061 122 83 55
0.16180 0.21899 3.36268 122 83 55
0.08191 0.25966 3.36337 122 83 55
-0.00352 0.27225 3.36041 122 83 55
-0.08852 0.25748 3.36557 122 83 55
-0.15938 0.22075 3.35537 122 83 55
-0.21717 0.16423 3.37173 122 83 55
-0.25777 0.08769 3.37209 122 83 55
-0.27227 0.00134 3.35637 122 83 55
-0.26047 -0.07931 3.34759 122 83 55
-0.21764 -0.16361 3.36633 122 83 55
-0.15644 -0.22285 3.36272 122 83 55
-0.08317 -0.25926 3.35988 122 83 55
0.00300 -0.27226 3.36617 122 83 55
0.08619 -0.25827 3.36228 122 83 55
0.15684 -0.22256 3.35883 122 83 55
0.22244 -0.15702 3.35828 122 83 55
0.25747 -0.08857 3.36218 122 83 55
0.27786 -0.00235 3.46864 122 83 55
0.26565 0.08150 3.47092 122 83 55
0.22714 0.16007 3.47389 122 83 55
0.16737 0.22181 3.48112 122 83 55
0.08836 0.26345 3.47465 122 83 55
-0.00125 0.27787 3.48640 122 83 55
-0.08224 0.26542 3.48437 122 83 55
-0.15900 0.22788 3.49107 122 83 55
-0.22211 0.16698 3.48135 122 83 55
-0.26328 0.08886 3.47029 122 83 55
-0.27785 0.00338 3.48321 122 83 55
-0.26410 -0.08638 3.46848 122 83 55
-0.22560 -0.16223 3.47843 122 83 55
-0.16219 -0.22562 3.47373 122 83 55
-0.08893 -0.26326 3.48545 122 83 55
-0.00523 -0.27782 3.49186 122 83 55
0.08242 -0.26537 3.49145 122 83 55
0.16720 -0.22194 3.47535 122 83 55
0.22746 -0.15960 3.47887 122 83 55
0.26558 -0.08173 3.46833 122 83 55
0.27506 -0.00153 3.59933 122 83 55
0.26227 0.08291 3.60540 122 83 55
0.21972 0.16547 3.59535 122 83 55
0.16329 0.22134 3.59287 122 83 55
0.08934 0.26014 3.59718 122 83 55
0.00297 0.27504 3.60272 122 83 55
-0.07993 0.26319 3.60262 122 83 55
-0.16216 0.22217 3.59045 122 83 55
-0.22092 0.16386 3.60446 122 83 55
-0.26122 0.08614 3.60450 122 83 55
-0.27506 0.00159 3.59128 122 83 55
-0.26068 -0.08776 3.59098 122 83 55
-0.22498 -0.15824 3.59337 122 83 55
-0.16597 -0.21935 3.59389 122 83 55
-0.08100 -0.26286 3.60719 122 83 55
-0.00051 -0.27506 3.61204 122 83 55
0.08892 -0.26029 3.58767 122 83 55
0.16476 -0.22026 3.60539 122 83 55
0.22384 -0.15985 3.60411 122 83 55
0.26145 -0.08544 3.59945 122 83 55
0.26516 -0.00123 3.73170 122 83 55
0.25162 0.08367 3.71306 122 83 55
0.21404 0.15652 3.71669 122 83 55
0.15593 0.21447 3.72561 122 83 55
0.07795 0.25345 3.72982 122 83 55
0.00125 0.26516 3.72655 122 83 55
-0.08119 0.25243 3.72873 122 83 55
-0.15379 0.21601 3.72072 122 83 55
-0.21683 0.15263 3.73106 122 83 55
-0.25261 0.08065 3.71993 122 83 55
-0.26512 -0.00474 3.71183 122 83 55
-0.25338 -0.07819 3.71175 122 83 55
-0.21211 -0.15913 3.70915 122 83 55
-0.15992 -0.21152 3.71837 122 83 55
-0.08429 -0.25141 3.70929 122 83 55
-0.00139 -0.26516 3.71924 122 83 55
0.08206 -0.25215 3.71284 122 83 55
0.15936 -0.21194 3.71755 122 83 55
0.21552 -0.15448 3.71532 122 83 55
0.25361 -0.07744 3.71194 122 83 55
0.25284 -0.00116 3.83654 122 83 55
0.23987 0.07994 3.83598 122 83 55
0.20553 0.14727 3.84959 122 83 55
0.14545 0.20682 3.84424 122 83 55
0.08079 0.23959 3.83625 122 83 55
-0.00213 0.25284 3.85008 122 83 55
-0.07600 0.24115 3.85211 122 83 55
-0.14615 0.20633 3.85140 122 83 55
-0.20734 0.14470 3.84085 122 83 55
-0.24120 0.07585 3.83706 122 83 55
-0.25282 0.00341 3.84835 122 83 55
-0.24087 -0.07687 3.82761 122 83 55
-0.20154 -0.15268 3.83363 122 83 55
-0.14491 -0.20720 3.85065 122 83 55
-0.07988 -0.23989 3.83475 122 83 55
-0.00107 -0.25284 3.83686 122 83 55
0.07644 -0.24101 3.82921 122 83 55
0.14894 -0.20432 3.82962 122 83 55
0.20612 -0.14644 3.83451 122 83 55
0.24017 -0.07904 3.83164 122 83 55
0.24385 0.00445 3.97075 122 83 55
0.23090 0.07851 3.96413 122 83 55
0.19839 0.14185 3.94867 122 83 55
0.14068 0.19923 3.95441 122 83 55
0.07759 0.23121 3.97239 122 83 55
0.00451 0.24384 3.96986 122 83 55
-0.07727 0.23132 3.95257 122 83 55
-0.14071 0.19921 3.97190 122 83 55
-0.19671 0.14417 3.95715 122 83 55
-0.23177 0.07591 3.97000 122 83 55
-0.24386 -0.00358 3.96253 122 83 55
-0.23282 -0.07263 3.96726 122 83 55
-0.19541 -0.14593 3.96502 122 83 55
-0.14488 -0.19619 3.95997 122 83 55
-0.07852 -0.23090 3.94792 122 83 55
0.00461 -0.24384 3.96498 122 83 55
0.07886 -0.23079 3.95643 122 83 55
0.14123 -0.19883 3.95509 122 83 55
0.19868 -0.14145 3.96349 122 83 55
0.23074 -0.07900 3.96362 122 83 55
0.24250 -0.00136 4.08599 122 83 55
0.23176 0.07139 4.07091 122 83 55
0.19346 0.14623 4.07708 122 83 55
0.13971 0.19822 4.07638 122 83 55
0.07708 0.22993 4.07158 122 83 55
-0.00165 0.24250 4.08645 122 83 55
-0.07852 0.22945 4.06755 122 83 55
-0.14364 0.19539 4.07946 122 83 55
-0.19635 0.14233 4.08371 122 83 55
-0.23064 0.07495 4.09025 122 83 55
-0.24250 -0.00222 4.06811 122 83 55
-0.23172 -0.07154 4.06826 122 83 55
-0.19440 -0.14497 4.08026 122 83 55
-0.14059 -0.19760 4.08416 122 83 55
-0.07462 -0.23074 4.07987 122 83 55
0.00448 -0.24247 4.07135 122 83 55
0.07414 -0.23090 4.08645 122 83 55
0.14101 -0.19730 4.07001 122 83 55
0.19793 -0.14011 4.08082 122 83 55
0.23191 -0.07090 4.07230 122 83 55
0.24934 -0.00307 4.19517 122 83 55
0.23695 0.07768 4.19408 122 83 55
0.20330 0.14439 4.20504 122 83 55
0.14376 0.20374 4.18926 122 83 55
0.07640 0.23736 4.18763 122 83 55
-0.00268 0.24934 4.19939 122 83 55
-0.07659 0.23730 4.19219 122 83 55
-0.14912 0.19986 4.21245 122 83 55
-0.20229 0.14580 4.19929 122 83 55
-0.23831 0.07339 4.21075 122 83 55
-0.24932 -0.00422 4.20743 122 83 55
-0.23792 -0.07465 4.19937 122 83 55
-0.20419 -0.14313 4.20615 122 83 55
-0.14998 -0.19921 4.20269 122 83 55
-0.07400 -0.23812 4.20657 122 83 55
-0.00219 -0.24935 4.20283 122 83 55
0.07958 -0.23632 4.20626 122 83 55
0.14816 -0.20056 4.20014 122 83 55
0.19881 -0.15050 4.19652 122 83 55
0.23825 -0.07360 4.20689 122 83 55
0.26121 0.00120 4.32168 122 83 55
0.24707 0.08477 4.31201 122 83 55
0.21394 0.14986 4.31609 122 83 55
0.15476 0.21043 4.32047 122 83 55
0.08486 0.24704 4.32064 122 83 55
-0.00297 0.26119 4.32248 122 83 55
-0.07975 0.24874 4.31214 122 83 55
-0.15520 0.21010 4.32888 122 83 55
-0.21143 0.15338 4.31003 122 83 55
-0.24689 0.08531 4.31517 122 83 55
-0.26121 0.00117 4.31093 122 83 55
-0.24950 -0.07732 4.32814 122 83 55
-0.21069 -0.15440 4.32325 122 83 55
-0.15541 -0.20995 4.33009 122 83 55
-0.07973 -0.24874 4.30987 122 83 55
0.00129 -0.26121 4.31705 122 83 55
0.08411 -0.24730 4.32837 122 83 55
0.15649 -0.20914 4.32844 122 83 55
0.20877 -0.15699 4.31460 122 83 55
0.24829 -0.08112 4.32218 122 83 55
0.27247 -0.00391 4.43150 122 83 55
0.26007 0.08135 4.44016 122 83 55
0.21894 0.16223 4.44628 122 83 55
0.15625 0.22324 4.43056 122 83 55
0.08499 0.25890 4.45062 122 83 55
-0.00486 0.27245 4.44439 122 83 55
-0.08574 0.25865 4.44432 122 83 55
-0.15782 0.22214 4.43030 122 83 55
-0.21933 0.16170 4.43464 122 83 55
-0.25797 0.08778 4.43260 122 83 55
-0.27249 -0.00161 4.43930 122 83 55
-0.25761 -0.08883 4.43388 122 83 55
-0.21756 -0.16407 4.42774 122 83 55
-0.15867 -0.22153 4.42970 122 83 55
-0.08125 -0.26010 4.44629 122 83 55
-0.00286 -0.27248 4.43440 122 83 55
0.08585 -0.25862 4.42914 122 83 55
0.16131 -0.21962 4.44782 122 83 55
0.22327 -0.15621 4.42847 122 83 55
0.25913 -0.08428 4.44453 122 83 55
0.27785 0.00551 4.54804 122 83 55
0.26362 0.08794 4.54797 122 83 55
0.22477 0.16343 4.55601 122 83 55
0.16281 0.22522 4.56837 122 83 55
0.08502 0.26458 4.55397 122 83 55
-0.00355 0.27788 4.55955 122 83 55
-0.08126 0.26576 4.56032 122 83 55
-0.16377 0.22452 4.55598 122 83 55
-0.22241 0.16662 4.57246 122 83 55
-0.26457 0.08506 4.55754 122 83 55
-0.27788 0.00338 4.55859 122 83 55
-0.26535 -0.08257 4.56591 122 83 55
-0.22460 -0.16366 4.55093 122 83 55
-0.16730 -0.22190 4.54767 122 83 55
-0.08767 -0.26371 4.54864 122 83 55
0.00290 -0.27789 4.56037 122 83 55
0.09062 -0.26271 4.56996 122 83 55
0.16171 -0.22601 4.55926 122 83 55
0.22575 -0.16207 4.54908 122 83 55
0.26456 -0.08508 4.55834 122 83 55
0.27484 -0.00522 4.67491 122 83 55
0.26176 0.08396 4.67100 122 83 55
0.22542 0.15732 4.68480 122 83 55
0.16577 0.21929 4.67141 122 83 55
0.08879 0.26016 4.67775 122 83 55
-0.00472 0.27485 4.66938 122 83 55
-0.08105 0.26267 4.66776 122 83 55
-0.15887 0.22433 4.67244 122 83 55
-0.22358 0.15993 4.67929 122 83 55
-0.26045 0.08794 4.69013 122 83 55
-0.27489 0.00059 4.67307 122 83 55
-0.26295 -0.08015 4.67211 122 83 55
-0.22226 -0.16175 4.68666 122 83 55
-0.15717 -0.22553 4.69229 122 83 55
-0.08511 -0.26138 4.68545 122 83 55
-0.00422 -0.27486 4.67819 122 83 55
0.08319 -0.26200 4.67617 122 83 55
0.16321 -0.22119 4.69023 122 83 55
0.22540 -0.15735 4.69093 122 83 55
0.26269 -0.08100 4.68766 122 83 55
0.26485 -0.00341 4.80141 122 83 55
0.25281 0.07904 4.79338 122 83 55
0.21645 0.15268 4.78886 122 83 55
0.15531 0.21456 4.81166 122 83 55
0.08647 0.25036 4.79674 122 83 55
0.00065 0.26488 4.80385 122 83 55
-0.07800 0.25313 4.79936 122 83 55
-0.15592 0.21412 4.80822 122 83 55
-0.21399 0.15610 4.80097 122 83 55
-0.25033 0.08657 4.79681 122 83 55
-0.26486 0.00276 4.79087 122 83 55
-0.25222 -0.08090 4.79780 122 83 55
-0.21619 -0.15304 4.80155 122 83 55
-0.15935 -0.21158 4.80873 122 83 55
-0.08073 -0.25227 4.80320 122 83 55
-0.00018 -0.26488 4.81171 122 83 55
0.07712 -0.25340 4.79883 122 83 55
0.15214 -0.21682 4.80837 122 83 55
0.21491 -0.15483 4.79082 122 83 55
0.25318 -0.07783 4.79822 122 83 55
0.25257 0.00050 4.91586 122 83 55
0.23952 0.08013 4.92564 122 83 55
0.20470 0.14794 4.91143 122 83 55
0.15014 0.20309 4.91164 122 83 55
0.08271 0.23864 4.92832 122 83 55
-0.00393 0.25254 4.91325 122 83 55
-0.08166 0.23900 4.90989 122 83 55
-0.14481 0.20693 4.90905 122 83 55
-0.20320 0.15000 4.91492 122 83 55
-0.24057 0.07693 4.91617 122 83 55
-0.25253 -0.00420 4.92247 122 83 55
-0.24136 -0.07439 4.92995 122 83 55
-0.20155 -0.15221 4.92796 122 83 55
-0.15002 -0.20319 4.92389 122 83 55
-0.07730 -0.24045 4.92635 122 83 55
-0.00184 -0.25256 4.90871 122 83 55
0.07493 -0.24120 4.90932 122 83 55
0.14986 -0.20330 4.93055 122 83 55
0.20585 -0.14634 4.90953 122 83 55
0.23961 -0.07986 4.91977 122 83 55
0.24371 0.00467 5.05171 122 83 55
0.23281 0.07223 5.02777 122 83 55
0.19929 0.14035 5.03592 122 83 55
0.14660 0.19474 5.03074 122 83 55
0.07618 0.23155 5.03025 122 83 55
0.00471 0.24371 5.03044 122 83 55
-0.07184 0.23293 5.03090 122 83 55
-0.14682 0.19457 5.03826 122 83 55
-0.19867 0.14124 5.02934 122 83 55
-0.23270 0.07257 5.03521 122 83 55
-0.24371 -0.00440 5.03704 122 83 55
-0.23255 -0.07304 5.03665 122 83 55
-0.19490 -0.14639 5.03986 122 83 55
-0.14272 -0.19760 5.03680 122 83 55
-0.07346 -0.23242 5.04025 122 83 55
-0.00058 -0.24375 5.04444 122 83 55
0.07669 -0.23138 5.05170 122 83 55
0.14406 -0.19663 5.05222 122 83 55
0.19721 -0.14326 5.04119 122 83 55
0.23288 -0.07199 5.03865 122 83 55
0.24257 -0.00271 5.16656 122 83 55
0.23038 0.07595 5.15264 122 83 55
0.19486 0.14448 5.17198 122 83 55
0.14620 0.19358 5.17195 122 83 55
0.07293 0.23136 5.15608 122 83 55
-0.00108 0.24258 5.15327 122 83 55
-0.07361 0.23114 5.15825 122 83 55
-0.14296 0.19598 5.14755 122 83 55
-0.19743 0.14095 5.16531 122 83 55
-0.23015 0.07666 5.16086 122 83 55
-0.24256 0.00337 5.15150 122 83 55
-0.23091 -0.07435 5.15194 122 83 55
-0.19437 -0.14515 5.16146 122 83 55
-0.14598 -0.19374 5.15414 122 83 55
-0.07723 -0.22996 5.15676 122 83 55
-0.00300 -0.24256 5.17050 122 83 55
0.07496 -0.23071 5.15297 122 83 55
0.14151 -0.19703 5.17205 122 83 55
0.19646 -0.14229 5.15555 122 83 55
0.23016 -0.07664 5.16080 122 83 55
0.24960 0.00168 5.27889 122 83 55
0.23595 0.08141 5.28472 122 83 55
0.20377 0.14414 5.27423 122 83 55
0.14727 0.20153 5.28385 122 83 55
0.07602 0.23774 5.26857 122 83 55
0.00045 0.24960 5.27235 122 83 55
-0.07492 0.23809 5.27252 122 83 55
-0.15018 0.19937 5.26803 122 83 55
-0.20395 0.14390 5.27172 122 83 55
-0.23764 0.07634 5.28681 122 83 55
-0.24960 0.00080 5.27750 122 83 55
-0.23815 -0.07475 5.28095 122 83 55
-0.20474 -0.14277 5.28367 122 83 55
-0.14345 -0.20426 5.27118 122 83 55
-0.07670 -0.23752 5.28776 122 83 55
0.00135 -0.24960 5.28403 122 83 55
0.08127 -0.23600 5.29102 122 83 55
0.14392 -0.20393 5.28694 122 83 55
0.20254 -0.14587 5.27301 122 83 55
0.23746 -0.07689 5.26995 122 83 55
