ply
format ascii 1.0
comment SIMULATED DEMO - NOT FIELD EVIDENCE
element vertex 900
property float x
property float y
property float z
property uchar red
property uchar green
property uchar blue
end_header
0.25995 0.00507 0.01205 122 83 55
0.24756 0.07945 -0.00840 122 83 55
0.20778 0.15630 -0.00261 122 83 55
0.15197 0.21096 0.00354 122 83 55
0.07543 0.24882 -0.00958 122 83 55
-0.00152 0.26000 0.00520 122 83 55
-0.08123 0.24698 0.00100 122 83 55
-0.15327 0.21002 0.01185 122 83 55
-0.20744 0.15675 0.00100 122 83 55
-0.24802 0.07800 -0.00139 122 83 55
-0.25998 0.00349 0.00997 122 83 55
-0.24754 -0.07953 0.00427 122 83 55
-0.20765 -0.15647 0.00003 122 83 55
-0.15295 -0.21025 -0.00102 122 83 55
-0.07856 -0.24785 -0.00167 122 83 55
0.00165 -0.25999 0.00998 122 83 55
0.07642 -0.24852 -0.00291 122 83 55
0.14872 -0.21327 0.00580 122 83 55
0.20809 -0.15588 0.01199 122 83 55
0.24637 -0.08308 -0.00461 122 83 55
0.27156 -0.00421 0.13138 122 83 55
0.25978 0.07924 0.12539 122 83 55
0.22277 0.15537 0.11463 122 83 55
0.15548 0.22269 0.12435 122 83 55
0.08212 0.25888 0.12459 122 83 55
-0.00529 0.27154 0.11948 122 83 55
-0.08050 0.25939 0.11001 122 83 55
-0.16331 0.21701 0.10756 122 83 55
-0.22221 0.15617 0.11029 122 83 55
-0.25937 0.08058 0.11780 122 83 55
-0.27155 -0.00484 0.11600 122 83 55
-0.25895 -0.08191 0.11593 122 83 55
-0.21755 -0.16259 0.11498 122 83 55
-0.15660 -0.22191 0.11979 122 83 55
-0.08191 -0.25895 0.11505 122 83 55
-0.00063 -0.27160 0.10810 122 83 55
0.08318 -0.25854 0.11556 122 83 55
0.15664 -0.22187 0.11037 122 83 55
0.22005 -0.15919 0.13129 122 83 55
0.25801 -0.08483 0.12194 122 83 55
0.27773 0.00145 0.24851 122 83 55
0.26567 0.08099 0.23972 122 83 55
0.22446 0.16357 0.23417 122 83 55
0.16271 0.22509 0.23014 122 83 55
0.08085 0.26571 0.24553 122 83 55
0.00472 0.27770 0.24219 122 83 55
-0.09080 0.26248 0.24367 122 83 55
-0.16586 0.22278 0.23489 122 83 55
-0.22369 0.16462 0.24577 122 83 55
-0.26278 0.08990 0.24422 122 83 55
-0.27772 0.00311 0.23705 122 83 55
-0.26345 -0.08795 0.25159 122 83 55
-0.22676 -0.16037 0.23467 122 83 55
-0.16715 -0.22181 0.23633 122 83 55
-0.08360 -0.26486 0.23219 122 83 55
-0.00001 -0.27774 0.23165 122 83 55
0.08949 -0.26293 0.23426 122 83 55
0.16300 -0.22488 0.23423 122 83 55
0.22338 -0.16504 0.24751 122 83 55
0.26501 -0.08311 0.24929 122 83 55
0.27554 -0.00059 0.37013 122 83 55
0.26059 0.08952 0.35388 122 83 55
0.22002 0.16587 0.36337 122 83 55
0.15779 0.22588 0.35252 122 83 55
0.08125 0.26329 0.36491 122 83 55
0.00289 0.27552 0.35075 122 83 55
-0.08681 0.26151 0.36012 122 83 55
-0.16548 0.22032 0.35303 122 83 55
-0.22089 0.16471 0.35831 122 83 55
-0.26218 0.08475 0.34801 122 83 55
-0.27551 -0.00371 0.35770 122 83 55
-0.26101 -0.08829 0.35528 122 83 55
-0.22388 -0.16062 0.35372 122 83 55
-0.16602 -0.21991 0.35391 122 83 55
-0.08172 -0.26314 0.35673 122 83 55
-0.00129 -0.27553 0.34959 122 83 55
0.08181 -0.26311 0.36641 122 83 55
0.16406 -0.22137 0.36808 122 83 55
0.22524 -0.15871 0.35627 122 83 55
0.26246 -0.08388 0.36927 122 83 55
0.26602 0.00237 0.47324 122 83 55
0.25187 0.08563 0.47704 122 83 55
0.21653 0.15455 0.47305 122 83 55
0.15741 0.21446 0.48686 122 83 55
0.07862 0.25415 0.48898 122 83 55
0.00462 0.26599 0.48865 122 83 55
-0.07819 0.25428 0.48730 122 83 55
-0.15931 0.21306 0.47441 122 83 55
-0.21361 0.15857 0.46918 122 83 55
-0.25374 0.07993 0.48071 122 83 55
-0.26601 -0.00326 0.49018 122 83 55
-0.25213 -0.08488 0.47785 122 83 55
-0.21452 -0.15733 0.48954 122 83 55
-0.15537 -0.21594 0.48856 122 83 55
-0.08150 -0.25324 0.48270 122 83 55
0.00013 -0.26603 0.48033 122 83 55
0.08015 -0.25367 0.47697 122 83 55
0.15844 -0.21370 0.48179 122 83 55
0.21658 -0.15449 0.47623 122 83 55
0.25444 -0.07766 0.47978 122 83 55
0.25366 -0.00359 0.59207 122 83 55
0.24020 0.08162 0.60500 122 83 55
0.20516 0.14921 0.59463 122 83 55
0.15234 0.20285 0.60538 122 83 55
0.07637 0.24192 0.58830 122 83 55
-0.00200 0.25368 0.60756 122 83 55
-0.07608 0.24201 0.60284 122 83 55
-0.15058 0.20416 0.59816 122 83 55
-0.20671 0.14706 0.59761 122 83 55
-0.24077 0.07991 0.58757 122 83 55
-0.25368 -0.00234 0.61210 122 83 55
-0.24175 -0.07689 0.60569 122 83 55
-0.20781 -0.14551 0.59271 122 83 55
-0.14521 -0.20802 0.59971 122 83 55
-0.07473 -0.24243 0.61174 122 83 55
0.00367 -0.25366 0.59078 122 83 55
0.07956 -0.24089 0.60084 122 83 55
0.15106 -0.20381 0.60233 122 83 55
0.20754 -0.14589 0.60248 122 83 55
0.23971 -0.08305 0.60427 122 83 55
0.24426 -0.00480 0.71914 122 83 55
0.23284 0.07398 0.71844 122 83 55
0.19744 0.14389 0.73133 122 83 55
0.14470 0.19685 0.72187 122 83 55
0.07839 0.23139 0.73159 122 83 55
0.00087 0.24431 0.71089 122 83 55
-0.07861 0.23132 0.72808 122 83 55
-0.14577 0.19606 0.72007 122 83 55
-0.19807 0.14303 0.72748 122 83 55
-0.23313 0.07307 0.72152 122 83 55
-0.24427 0.00456 0.71825 122 83 55
-0.23135 -0.07853 0.71609 122 83 55
-0.19817 -0.14289 0.72146 122 83 55
-0.14467 -0.19687 0.72443 122 83 55
-0.07181 -0.23352 0.71274 122 83 55
0.00451 -0.24427 0.72198 122 83 55
0.07530 -0.23242 0.72516 122 83 55
0.14143 -0.19922 0.71832 122 83 55
0.19656 -0.14509 0.72392 122 83 55
0.23234 -0.07555 0.71262 122 83 55
0.24228 -0.00389 0.84534 122 83 55
0.23186 0.07040 0.83282 122 83 55
0.19770 0.14011 0.83337 122 83 55
0.14310 0.19555 0.83297 122 83 55
0.07532 0.23031 0.83367 122 83 55
-0.00039 0.24232 0.84894 122 83 55
-0.07739 0.22963 0.83612 122 83 55
-0.13853 0.19881 0.84422 122 83 55
-0.19445 0.14460 0.83799 122 83 55
-0.22896 0.07935 0.83361 122 83 55
-0.24227 0.00472 0.83649 122 83 55
-0.23111 -0.07285 0.83411 122 83 55
-0.19583 -0.14272 0.83019 122 83 55
-0.14517 -0.19402 0.83820 122 83 55
-0.07406 -0.23072 0.84552 122 83 55
-0.00274 -0.24230 0.84128 122 83 55
0.07237 -0.23126 0.83561 122 83 55
0.13890 -0.19855 0.83617 122 83 55
0.19880 -0.13855 0.82985 122 83 55
0.23142 -0.07186 0.84366 122 83 55
0.24864 -0.00092 0.96407 122 83 55
0.23506 0.08105 0.94974 122 83 55
0.20394 0.14222 0.96230 122 83 55
0.15003 0.19827 0.96092 122 83 55
0.07829 0.23599 0.96738 122 83 55
-0.00183 0.24863 0.96568 122 83 55
-0.07735 0.23630 0.94892 122 83 55
-0.14421 0.20254 0.97108 122 83 55
-0.20219 0.14471 0.94846 122 83 55
-0.23519 0.08067 0.96508 122 83 55
-0.24863 -0.00202 0.95766 122 83 55
-0.23760 -0.07324 0.96601 122 83 55
-0.19875 -0.14939 0.97204 122 83 55
-0.14914 -0.19894 0.96726 122 83 55
-0.07996 -0.23543 0.94854 122 83 55
0.00030 -0.24864 0.97117 122 83 55
0.07420 -0.23731 0.95185 122 83 55
0.14872 -0.19926 0.96268 122 83 55
0.19824 -0.15007 0.95542 122 83 55
0.23772 -0.07286 0.95425 122 83 55
0.26030 0.00153 1.08945 122 83 55
0.24888 0.07626 1.08497 122 83 55
0.20959 0.15437 1.06938 122 83 55
0.15595 0.20841 1.07305 122 83 55
0.08068 0.24748 1.08960 122 83 55
0.00259 0.26029 1.07199 122 83 55
-0.07858 0.24816 1.07354 122 83 55
-0.15090 0.21210 1.08723 122 83 55
-0.20770 0.15690 1.07716 122 83 55
-0.24769 0.08006 1.09094 122 83 55
-0.26030 -0.00046 1.07959 122 83 55
-0.24592 -0.08532 1.08429 122 83 55
-0.20900 -0.15517 1.09058 122 83 55
-0.15548 -0.20877 1.07754 122 83 55
-0.08215 -0.24700 1.09074 122 83 55
-0.00269 -0.26029 1.06950 122 83 55
0.08112 -0.24734 1.07695 122 83 55
0.15388 -0.20995 1.08935 122 83 55
0.20940 -0.15462 1.09133 122 83 55
0.24637 -0.08401 1.06994 122 83 55
0.27182 0.00086 1.18863 122 83 55
0.26010 0.07898 1.19798 122 83 55
0.22049 0.15897 1.18799 122 83 55
0.16323 0.21736 1.20262 122 83 55
0.08814 0.25714 1.20640 122 83 55
0.00221 0.27182 1.19556 122 83 55
-0.08658 0.25767 1.20231 122 83 55
-0.16103 0.21900 1.20660 122 83 55
-0.22279 0.15574 1.18921 122 83 55
-0.25799 0.08561 1.19013 122 83 55
-0.27180 -0.00406 1.19014 122 83 55
-0.25694 -0.08871 1.18923 122 83 55
-0.22223 -0.15654 1.20048 122 83 55
-0.16093 -0.21907 1.19016 122 83 55
-0.08623 -0.25779 1.21240 122 83 55
-0.00128 -0.27182 1.21146 122 83 55
0.08626 -0.25778 1.21093 122 83 55
0.16401 -0.21677 1.20309 122 83 55
0.21867 -0.16147 1.20746 122 83 55
0.25896 -0.08263 1.21213 122 83 55
0.27776 -0.00380 1.32807 122 83 55
0.26549 0.08174 1.32300 122 83 55
0.22637 0.16100 1.31514 122 83 55
0.16010 0.22701 1.32141 122 83 55
0.08232 0.26531 1.32711 122 83 55
-0.00208 0.27778 1.33226 122 83 55
-0.08983 0.26286 1.32718 122 83 55
-0.16320 0.22479 1.31329 122 83 55
-0.22759 0.15928 1.30856 122 83 55
-0.26308 0.08918 1.31729 122 83 55
-0.27777 0.00312 1.31435 122 83 55
-0.26249 -0.09092 1.32206 122 83 55
-0.22341 -0.16509 1.33232 122 83 55
-0.15912 -0.22770 1.32341 122 83 55
-0.08423 -0.26471 1.33008 122 83 55
-0.00292 -0.27777 1.32297 122 83 55
0.08957 -0.26295 1.32837 122 83 55
0.16238 -0.22538 1.32365 122 83 55
0.22361 -0.16482 1.31566 122 83 55
0.26570 -0.08106 1.32683 122 83 55
0.27538 -0.00015 1.43400 122 83 55
0.26056 0.08914 1.45175 122 83 55
0.22016 0.16542 1.43203 122 83 55
0.15985 0.22424 1.43876 122 83 55
0.08853 0.26076 1.43258 122 83 55
-0.00072 0.27538 1.44915 122 83 55
-0.08580 0.26167 1.44309 122 83 55
-0.16625 0.21954 1.43097 122 83 55
-0.22222 0.16264 1.44397 122 83 55
-0.26337 0.08046 1.45101 122 83 55
-0.27538 0.00090 1.45059 122 83 55
-0.26094 -0.08800 1.42963 122 83 55
-0.22343 -0.16098 1.44141 122 83 55
-0.16386 -0.22133 1.43641 122 83 55
-0.08920 -0.26054 1.43060 122 83 55
-0.00304 -0.27537 1.44070 122 83 55
0.08079 -0.26327 1.44501 122 83 55
0.16451 -0.22085 1.44246 122 83 55
0.22490 -0.15891 1.44651 122 83 55
0.26353 -0.07991 1.44001 122 83 55
0.26574 0.00085 1.56684 122 83 55
0.25196 0.08447 1.56763 122 83 55
0.21431 0.15714 1.56365 122 83 55
0.15679 0.21456 1.55219 122 83 55
0.07892 0.25376 1.55745 122 83 55
0.00383 0.26572 1.56401 122 83 55
-0.08622 0.25137 1.56537 122 83 55
-0.15675 0.21459 1.56884 122 83 55
-0.21559 0.15537 1.55415 122 83 55
-0.25293 0.08153 1.56870 122 83 55
-0.26574 -0.00035 1.57080 122 83 55
-0.25137 -0.08622 1.55567 122 83 55
-0.21249 -0.15959 1.55568 122 83 55
-0.15639 -0.21485 1.54925 122 83 55
-0.07828 -0.25395 1.55408 122 83 55
-0.00444 -0.26571 1.54867 122 83 55
0.08213 -0.25273 1.54851 122 83 55
0.15711 -0.21433 1.56318 122 83 55
0.21471 -0.15658 1.56522 122 83 55
0.25191 -0.08463 1.56447 122 83 55
0.25336 0.00459 1.68474 122 83 55
0.23951 0.08274 1.68152 122 83 55
0.20353 0.15097 1.67747 122 83 55
0.15010 0.20416 1.67464 122 83 55
0.07527 0.24197 1.68649 122 83 55
-0.00276 0.25339 1.67645 122 83 55
-0.07714 0.24138 1.68628 122 83 55
-0.14637 0.20685 1.66910 122 83 55
-0.20343 0.15109 1.67690 122 83 55
-0.24001 0.08130 1.67298 122 83 55
-0.25340 -0.00095 1.68484 122 83 55
-0.24183 -0.07571 1.68363 122 83 55
-0.20292 -0.15178 1.68767 122 83 55
-0.14639 -0.20684 1.68972 122 83 55
-0.08269 -0.23953 1.69112 122 83 55
-0.00130 -0.25340 1.69133 122 83 55
0.08257 -0.23957 1.66819 122 83 55
0.14500 -0.20782 1.66868 122 83 55
0.20735 -0.14567 1.67654 122 83 55
0.24062 -0.07948 1.68328 122 83 55
0.24412 -0.00482 1.79619 122 83 55
0.23327 0.07213 1.79412 122 83 55
0.19898 0.14150 1.79618 122 83 55
0.14581 0.19585 1.78818 122 83 55
0.07526 0.23228 1.78998 122 83 55
0.00102 0.24416 1.80057 122 83 55
-0.07864 0.23116 1.79553 122 83 55
-0.14060 0.19962 1.80605 122 83 55
-0.19527 0.14658 1.79729 122 83 55
-0.23273 0.07384 1.79473 122 83 55
-0.24414 0.00350 1.79381 122 83 55
-0.23172 -0.07695 1.80606 122 83 55
-0.19471 -0.14732 1.81055 122 83 55
-0.14638 -0.19542 1.79163 122 83 55
-0.07413 -0.23264 1.79391 122 83 55
-0.00203 -0.24416 1.78831 122 83 55
0.07731 -0.23160 1.80890 122 83 55
0.14431 -0.19696 1.78968 122 83 55
0.19791 -0.14300 1.79379 122 83 55
0.23087 -0.07947 1.80981 122 83 55
0.24236 -0.00259 1.92662 122 83 55
0.22971 0.07734 1.90990 122 83 55
0.19419 0.14504 1.92453 122 83 55
0.13904 0.19853 1.92437 122 83 55
0.07621 0.23008 1.92320 122 83 55
0.00265 0.24236 1.92418 122 83 55
-0.07344 0.23098 1.91491 122 83 55
-0.14591 0.19353 1.91172 122 83 55
-0.19525 0.14361 1.92995 122 83 55
-0.22997 0.07654 1.92255 122 83 55
-0.24237 -0.00093 1.90752 122 83 55
-0.23132 -0.07235 1.92055 122 83 55
-0.19885 -0.13857 1.92317 122 83 55
-0.14029 -0.19765 1.91960 122 83 55
-0.07402 -0.23080 1.92652 122 83 55
0.00298 -0.24236 1.92568 122 83 55
0.07894 -0.22916 1.92389 122 83 55
0.13985 -0.19796 1.92492 122 83 55
0.19367 -0.14573 1.92187 122 83 55
0.22970 -0.07735 1.92427 122 83 55
0.24886 -0.00261 2.04916 122 83 55
0.23759 0.07409 2.02755 122 83 55
0.20385 0.14278 2.04014 122 83 55
0.14232 0.20417 2.04614 122 83 55
0.07782 0.23639 2.03993 122 83 55
-0.00302 0.24886 2.04461 122 83 55
-0.07880 0.23607 2.04697 122 83 55
-0.14828 0.19987 2.02807 122 83 55
-0.20199 0.14538 2.04045 122 83 55
-0.23513 0.08156 2.03389 122 83 55
-0.24887 0.00077 2.05095 122 83 55
-0.23689 -0.07630 2.05224 122 83 55
-0.20259 -0.14455 2.02927 122 83 55
-0.14484 -0.20238 2.04555 122 83 55
-0.07737 -0.23654 2.02921 122 83 55
-0.00413 -0.24884 2.04871 122 83 55
0.08140 -0.23519 2.05180 122 83 55
0.14256 -0.20400 2.03785 122 83 55
0.20174 -0.14573 2.02941 122 83 55
0.23679 -0.07662 2.03688 122 83 55
0.26060 0.00070 2.15440 122 83 55
0.24939 0.07562 2.15702 122 83 55
0.21250 0.15086 2.14849 122 83 55
0.14982 0.21323 2.15620 122 83 55
0.07777 0.24873 2.17005 122 83 55
0.00177 0.26060 2.15606 122 83 55
-0.08510 0.24632 2.16279 122 83 55
-0.15657 0.20833 2.16073 122 83 55
-0.21379 0.14903 2.15563 122 83 55
-0.24809 0.07980 2.15275 122 83 55
-0.26058 0.00390 2.15985 122 83 55
-0.24622 -0.08539 2.15290 122 83 55
-0.21160 -0.15212 2.15565 122 83 55
-0.14996 -0.21313 2.15161 122 83 55
-0.07631 -0.24918 2.17174 122 83 55
-0.00264 -0.26059 2.15632 122 83 55
0.07909 -0.24831 2.16767 122 83 55
0.15366 -0.21048 2.15498 122 83 55
0.21249 -0.15088 2.15996 122 83 55
0.24669 -0.08402 2.15255 122 83 55
0.27205 -0.00165 2.28421 122 83 55
0.25878 0.08395 2.28814 122 83 55
0.21714 0.16390 2.27687 122 83 55
0.16323 0.21765 2.28211 122 83 55
0.08043 0.25989 2.28621 122 83 55
0.00181 0.27205 2.28850 122 83 55
-0.08529 0.25834 2.27873 122 83 55
-0.16354 0.21741 2.28435 122 83 55
-0.22210 0.15711 2.28811 122 83 55
-0.25895 0.08342 2.28386 122 83 55
-0.27201 0.00497 2.29029 122 83 55
-0.25780 -0.08689 2.27655 122 83 55
-0.22102 -0.15863 2.28445 122 83 55
-0.16175 -0.21874 2.28473 122 83 55
-0.08651 -0.25793 2.27088 122 83 55
-0.00068 -0.27205 2.27200 122 83 55
0.08659 -0.25790 2.27303 122 83 55
0.16364 -0.21734 2.29067 122 83 55
0.22310 -0.15569 2.28218 122 83 55
0.26020 -0.07942 2.28714 122 83 55
0.27782 0.00277 2.40467 122 83 55
0.26374 0.08734 2.41078 122 83 55
0.22302 0.16569 2.40745 122 83 55
0.16542 0.22322 2.38780 122 83 55
0.08839 0.26340 2.40950 122 83 55
-0.00152 0.27783 2.39816 122 83 55
-0.08752 0.26369 2.39737 122 83 55
-0.16507 0.22347 2.39948 122 83 55
-0.22302 0.16568 2.39982 122 83 55
-0.26332 0.08862 2.39851 122 83 55
-0.27778 -0.00506 2.39242 122 83 55
-0.26539 -0.08221 2.40668 122 83 55
-0.22170 -0.16744 2.39951 122 83 55
-0.16066 -0.22667 2.38772 122 83 55
-0.08670 -0.26396 2.39686 122 83 55
-0.00336 -0.27781 2.39134 122 83 55
0.08733 -0.26375 2.40004 122 83 55
0.16225 -0.22553 2.39859 122 83 55
0.22633 -0.16113 2.40423 122 83 55
0.26559 -0.08157 2.41028 122 83 55
0.27521 -0.00283 2.51801 122 83 55
0.26225 0.08349 2.51157 122 83 55
0.22374 0.16027 2.52443 122 83 55
0.16124 0.22304 2.51174 122 83 55
0.08256 0.26255 2.52926 122 83 55
-0.00154 0.27522 2.50957 122 83 55
-0.08432 0.26199 2.51237 122 83 55
-0.15857 0.22495 2.51599 122 83 55
-0.22320 0.16103 2.52954 122 83 55
-0.26320 0.08045 2.52185 122 83 55
-0.27522 -0.00017 2.52317 122 83 55
-0.26128 -0.08650 2.50998 122 83 55
-0.22230 -0.16226 2.52175 122 83 55
-0.16045 -0.22362 2.53194 122 83 55
-0.08988 -0.26013 2.51893 122 83 55
-0.00380 -0.27520 2.53106 122 83 55
0.08903 -0.26042 2.52973 122 83 55
0.16319 -0.22162 2.52467 122 83 55
0.22238 -0.16216 2.52706 122 83 55
0.26293 -0.08134 2.51475 122 83 55
0.26545 0.00199 2.63865 122 83 55
0.25100 0.08642 2.64720 122 83 55
0.21414 0.15688 2.65017 122 83 55
0.15437 0.21596 2.63160 122 83 55
0.07942 0.25330 2.63691 122 83 55
-0.00442 0.26542 2.63417 122 83 55
-0.08019 0.25305 2.62752 122 83 55
-0.16022 0.21165 2.63812 122 83 55
-0.21543 0.15510 2.63461 122 83 55
-0.25321 0.07971 2.64689 122 83 55
-0.26546 0.00020 2.64807 122 83 55
-0.25151 -0.08492 2.64170 122 83 55
-0.21243 -0.15919 2.63364 122 83 55
-0.15845 -0.21298 2.65157 122 83 55
-0.08453 -0.25164 2.63999 122 83 55
-0.00504 -0.26541 2.62969 122 83 55
0.08691 -0.25082 2.64926 122 83 55
0.15835 -0.21306 2.63668 122 83 55
0.21600 -0.15431 2.63689 122 83 55
0.25264 -0.08147 2.63745 122 83 55
0.25311 -0.00282 2.75829 122 83 55
0.23917 0.08289 2.76928 122 83 55
0.20351 0.15051 2.77047 122 83 55
0.14526 0.20730 2.75557 122 83 55
0.07349 0.24222 2.74883 122 83 55
0.00381 0.25309 2.76546 122 83 55
-0.07557 0.24158 2.76478 122 83 55
-0.14485 0.20758 2.75102 122 83 55
-0.20466 0.14895 2.77160 122 83 55
-0.24036 0.07935 2.74989 122 83 55
-0.25311 -0.00269 2.75709 122 83 55
-0.24081 -0.07800 2.75250 122 83 55
-0.20413 -0.14968 2.76772 122 83 55
-0.14473 -0.20767 2.75433 122 83 55
-0.08014 -0.24010 2.77026 122 83 55
0.00434 -0.25309 2.74973 122 83 55
0.07614 -0.24140 2.74824 122 83 55
0.14555 -0.20709 2.75530 122 83 55
0.20423 -0.14954 2.76169 122 83 55
0.23937 -0.08229 2.75690 122 83 55
0.24398 0.00455 2.87502 122 83 55
0.23200 0.07567 2.87573 122 83 55
0.19597 0.14541 2.87386 122 83 55
0.14311 0.19766 2.89010 122 83 55
0.07484 0.23226 2.86837 122 83 55
0.00275 0.24401 2.87574 122 83 55
-0.07885 0.23093 2.88637 122 83 55
-0.14391 0.19707 2.88390 122 83 55
-0.19810 0.14250 2.89110 122 83 55
-0.23253 0.07402 2.88246 122 83 55
-0.24402 0.00199 2.86963 122 83 55
-0.23217 -0.07512 2.87191 122 83 55
-0.19548 -0.14607 2.88421 122 83 55
-0.13991 -0.19993 2.88387 122 83 55
-0.07126 -0.23339 2.89003 122 83 55
-0.00474 -0.24398 2.88145 122 83 55
0.07897 -0.23089 2.87916 122 83 55
0.14615 -0.19542 2.88677 122 83 55
0.19950 -0.14052 2.89174 122 83 55
0.23200 -0.07566 2.89228 122 83 55
0.24244 0.00042 3.01161 122 83 55
0.23060 0.07483 2.98879 122 83 55
0.19741 0.14074 3.00498 122 83 55
0.14186 0.19660 3.00936 122 83 55
0.07817 0.22949 3.01182 122 83 55
-0.00481 0.24239 2.98942 122 83 55
-0.07869 0.22931 3.00600 122 83 55
-0.14079 0.19737 2.99972 122 83 55
-0.19524 0.14373 2.99656 122 83 55
-0.23163 0.07157 2.99015 122 83 55
-0.24243 -0.00186 3.00346 122 83 55
-0.23123 -0.07286 2.99335 122 83 55
-0.19800 -0.13990 2.98763 122 83 55
-0.14500 -0.19430 3.00869 122 83 55
-0.07298 -0.23119 3.00148 122 83 55
-0.00096 -0.24244 2.99818 122 83 55
0.07429 -0.23078 3.00685 122 83 55
0.14380 -0.19518 3.00719 122 83 55
0.19619 -0.14243 2.98922 122 83 55
0.23146 -0.07214 3.00413 122 83 55
0.24911 -0.00092 3.12270 122 83 55
0.23695 0.07689 3.10954 122 83 55
0.20040 0.14798 3.13201 122 83 55
0.14295 0.20402 3.12615 122 83 55
0.07363 0.23798 3.12352 122 83 55
-0.00430 0.24908 3.10781 122 83 55
-0.08024 0.23584 3.11408 122 83 55
-0.14521 0.20241 3.11146 122 83 55
-0.20050 0.14785 3.11721 122 83 55
-0.23795 0.07373 3.10760 122 83 55
-0.24910 -0.00246 3.10779 122 83 55
-0.23734 -0.07568 3.11069 122 83 55
-0.19969 -0.14893 3.10752 122 83 55
-0.14304 -0.20396 3.11262 122 83 55
-0.07289 -0.23821 3.11951 122 83 55
-0.00070 -0.24911 3.11321 122 83 55
0.07881 -0.23632 3.12197 122 83 55
0.14876 -0.19982 3.12322 122 83 55
0.20169 -0.14622 3.11194 122 83 55
0.23668 -0.07773 3.12148 122 83 55
0.26086 0.00509 3.24121 122 83 55
0.24672 0.08485 3.24902 122 83 55
0.21153 0.15274 3.22815 122 83 55
0.15191 0.21212 3.23942 122 83 55
0.07637 0.24948 3.23004 122 83 55
0.00166 0.26090 3.23561 122 83 55
-0.08330 0.24725 3.24204 122 83 55
-0.15628 0.20893 3.24993 122 83 55
-0.21318 0.15042 3.24495 122 83 55
-0.24688 0.08439 3.23027 122 83 55
-0.26090 -0.00240 3.23543 122 83 55
-0.24770 -0.08196 3.23138 122 83 55
-0.21185 -0.15229 3.24323 122 83 55
-0.15115 -0.21267 3.23683 122 83 55
-0.07948 -0.24851 3.25171 122 83 55
-0.00285 -0.26089 3.23821 122 83 55
0.08507 -0.24665 3.24365 122 83 55
0.15186 -0.21216 3.23450 122 83 55
0.20978 -0.15512 3.25107 122 83 55
0.24856 -0.07930 3.24565 122 83 55
0.27227 0.00152 3.36369 122 83 55
0.25931 0.08302 3.36088 122 83 55
0.21767 0.16356 3.36720 122 83 55
0.15740 0.22217 3.35833 122 83 55
0.08647 0.25818 3.35835 122 83 55
-0.00380 0.27225 3.35885 122 83 55
-0.08850 0.25749 3.36569 122 83 55
-0.16034 0.22005 3.35817 122 83 55
-0.22279 0.15653 3.36048 122 83 55
-0.25883 0.08449 3.36276 122 83 55
-0.27228 0.00004 3.35389 122 83 55
-0.25973 -0.08170 3.36616 122 83 55
-0.22016 -0.16020 3.34775 122 83 55
-0.16179 -0.21899 3.34847 122 83 55
-0.08811 -0.25763 3.36736 122 83 55
0.00089 -0.27227 3.36830 122 83 55
0.08100 -0.25995 3.36110 122 83 55
0.16365 -0.21761 3.34755 122 83 55
0.22087 -0.15922 3.35791 122 83 55
0.25932 -0.08299 3.35556 122 83 55
0.27787 -0.00092 3.47481 122 83 55
0.26465 0.08468 3.47559 122 83 55
0.22577 0.16199 3.48315 122 83 55
0.16601 0.22283 3.47789 122 83 55
0.08282 0.26524 3.46810 122 83 55
0.00361 0.27785 3.47445 122 83 55
-0.08092 0.26583 3.47267 122 83 55
-0.16698 0.22210 3.48737 122 83 55
-0.22184 0.16732 3.47330 122 83 55
-0.26508 0.08332 3.46864 122 83 55
-0.27787 0.00098 3.47071 122 83 55
-0.26317 -0.08919 3.47033 122 83 55
-0.22535 -0.16257 3.47560 122 83 55
-0.16758 -0.22165 3.48582 122 83 55
-0.08460 -0.26468 3.48044 122 83 55
-0.00405 -0.27784 3.46855 122 83 55
0.08238 -0.26538 3.48935 122 83 55
0.16529 -0.22336 3.49123 122 83 55
0.22605 -0.16160 3.48481 122 83 55
0.26481 -0.08419 3.48961 122 83 55
0.27505 0.00165 3.61088 122 83 55
0.26206 0.08355 3.61131 122 83 55
0.22305 0.16096 3.59390 122 83 55
0.15734 0.22561 3.60618 122 83 55
0.08512 0.26156 3.59800 122 83 55
0.00299 0.27504 3.59628 122 83 55
-0.08515 0.26155 3.59392 122 83 55
-0.16243 0.22198 3.59443 122 83 55
-0.22049 0.16444 3.60092 122 83 55
-0.26002 0.08971 3.59686 122 83 55
-0.27502 0.00453 3.59771 122 83 55
-0.26100 -0.08682 3.61153 122 83 55
-0.22565 -0.15728 3.59482 122 83 55
-0.16141 -0.22272 3.60502 122 83 55
-0.08560 -0.26140 3.59679 122 83 55
0.00424 -0.27503 3.61217 122 83 55
0.08152 -0.26270 3.58898 122 83 55
0.16346 -0.22122 3.60880 122 83 55
0.22040 -0.16456 3.59006 122 83 55
0.26249 -0.08219 3.60416 122 83 55
0.26516 -0.00171 3.71242 122 83 55
0.25361 0.07743 3.71114 122 83 55
0.21397 0.15663 3.71397 122 83 55
0.15931 0.21198 3.71807 122 83 55
0.08209 0.25214 3.72616 122 83 55
-0.00015 0.26517 3.71288 122 83 55
-0.08128 0.25240 3.72427 122 83 55
-0.15996 0.21148 3.71596 122 83 55
-0.21753 0.15163 3.71202 122 83 55
-0.25123 0.08484 3.70974 122 83 55
-0.26513 -0.00459 3.72938 122 83 55
-0.25114 -0.08509 3.71417 122 83 55
-0.21698 -0.15242 3.71296 122 83 55
-0.15952 -0.21182 3.72837 122 83 55
-0.08551 -0.25100 3.72528 122 83 55
0.00525 -0.26512 3.72018 122 83 55
0.08394 -0.25153 3.72503 122 83 55
0.15335 -0.21633 3.72650 122 83 55
0.21532 -0.15476 3.73193 122 83 55
0.25221 -0.08188 3.70849 122 83 55
0.25284 -0.00145 3.84084 122 83 55
0.24153 0.07478 3.83210 122 83 55
0.20504 0.14795 3.83131 122 83 55
0.15052 0.20316 3.83557 122 83 55
0.07583 0.24121 3.84461 122 83 55
-0.00361 0.25282 3.84667 122 83 55
-0.07640 0.24103 3.83200 122 83 55
-0.14719 0.20558 3.84398 122 83 55
-0.20328 0.15035 3.83378 122 83 55
-0.24063 0.07763 3.83752 122 83 55
-0.25284 -0.00010 3.83532 122 83 55
-0.23936 -0.08148 3.83036 122 83 55
-0.20612 -0.14644 3.84220 122 83 55
-0.14954 -0.20388 3.84416 122 83 55
-0.07858 -0.24032 3.82805 122 83 55
0.00430 -0.25281 3.82768 122 83 55
0.08226 -0.23909 3.83985 122 83 55
0.15182 -0.20219 3.84876 122 83 55
0.20235 -0.15161 3.85167 122 83 55
0.23949 -0.08108 3.85138 122 83 55
0.24389 -0.00030 3.95914 122 83 55
0.23266 0.07316 3.96061 122 83 55
0.19680 0.14405 3.94819 122 83 55
0.14522 0.19594 3.95972 122 83 55
0.07403 0.23238 3.94777 122 83 55
0.00066 0.24389 3.96473 122 83 55
-0.07788 0.23112 3.95759 122 83 55
-0.14702 0.19459 3.95309 122 83 55
-0.19557 0.14571 3.94817 122 83 55
-0.23338 0.07082 3.95944 122 83 55
-0.24388 -0.00207 3.96671 122 83 55
-0.23219 -0.07461 3.96242 122 83 55
-0.19781 -0.14266 3.95347 122 83 55
-0.14037 -0.19944 3.95811 122 83 55
-0.07076 -0.23339 3.95982 122 83 55
0.00363 -0.24386 3.95165 122 83 55
0.07970 -0.23050 3.96506 122 83 55
0.14671 -0.19483 3.95489 122 83 55
0.19760 -0.14295 3.97067 122 83 55
0.23168 -0.07618 3.95930 122 83 55
0.24249 -0.00325 4.07667 122 83 55
0.23153 0.07214 4.07951 122 83 55
0.19468 0.14460 4.08613 122 83 55
0.14298 0.19587 4.07901 122 83 55
0.07569 0.23039 4.08509 122 83 55
0.00376 0.24248 4.09115 122 83 55
-0.07846 0.22947 4.07643 122 83 55
-0.13862 0.19898 4.07923 122 83 55
-0.19380 0.14578 4.07739 122 83 55
-0.23046 0.07550 4.08642 122 83 55
-0.24250 -0.00243 4.07689 122 83 55
-0.22949 -0.07839 4.08692 122 83 55
-0.19561 -0.14334 4.06970 122 83 55
-0.14601 -0.19363 4.07134 122 83 55
-0.07171 -0.23166 4.07126 122 83 55
0.00018 -0.24251 4.08539 122 83 55
0.07884 -0.22933 4.07259 122 83 55
0.14284 -0.19598 4.07238 122 83 55
0.19703 -0.14139 4.07663 122 83 55
0.23158 -0.07196 4.07605 122 83 55
0.24935 -0.00204 4.20799 122 83 55
0.23695 0.07766 4.21164 122 83 55
0.20307 0.14470 4.20486 122 83 55
0.14535 0.20261 4.20441 122 83 55
0.07884 0.23657 4.20267 122 83 55
0.00374 0.24933 4.19597 122 83 55
-0.07683 0.23722 4.20062 122 83 55
-0.14431 0.20336 4.19999 122 83 55
-0.20063 0.14808 4.20830 122 83 55
-0.23731 0.07657 4.19530 122 83 55
-0.24931 -0.00451 4.20595 122 83 55
-0.23782 -0.07496 4.20540 122 83 55
-0.20421 -0.14309 4.19806 122 83 55
-0.14779 -0.20084 4.20990 122 83 55
-0.07315 -0.23838 4.20141 122 83 55
-0.00400 -0.24932 4.19439 122 83 55
0.08003 -0.23616 4.18979 122 83 55
0.14938 -0.19966 4.20176 122 83 55
0.19881 -0.15051 4.19881 122 83 55
0.23647 -0.07912 4.20402 122 83 55
0.26121 0.00034 4.32076 122 83 55
0.24784 0.08250 4.31506 122 83 55
0.21086 0.15417 4.31042 122 83 55
0.15451 0.21061 4.33093 122 83 55
0.07949 0.24882 4.32397 122 83 55
0.00496 0.26116 4.31065 122 83 55
-0.07732 0.24950 4.31985 122 83 55
-0.15222 0.21227 4.31654 122 83 55
-0.21338 0.15067 4.33096 122 83 55
-0.24915 0.07845 4.31461 122 83 55
-0.26121 0.00136 4.32945 122 83 55
-0.24769 -0.08296 4.32147 122 83 55
-0.21110 -0.15384 4.32630 122 83 55
-0.15621 -0.20936 4.33089 122 83 55
-0.08511 -0.24696 4.30921 122 83 55
0.00288 -0.26119 4.31390 122 83 55
0.07837 -0.24918 4.32853 122 83 55
0.14972 -0.21404 4.31800 122 83 55
0.21301 -0.15118 4.32232 122 83 55
0.24775 -0.08276 4.32206 122 83 55
0.27249 0.00147 4.44772 122 83 55
0.25817 0.08719 4.42976 122 83 55
0.21986 0.16098 4.45224 122 83 55
0.16178 0.21928 4.45077 122 83 55
0.08391 0.25925 4.44461 122 83 55
-0.00517 0.27245 4.44509 122 83 55
-0.08080 0.26024 4.43135 122 83 55
-0.16110 0.21977 4.43702 122 83 55
-0.22110 0.15928 4.44123 122 83 55
-0.25907 0.08447 4.43692 122 83 55
-0.27248 0.00318 4.44615 122 83 55
-0.25757 -0.08896 4.44463 122 83 55
-0.22296 -0.15666 4.43320 122 83 55
-0.16111 -0.21977 4.43013 122 83 55
-0.08791 -0.25792 4.44400 122 83 55
-0.00186 -0.27249 4.44799 122 83 55
0.07927 -0.26071 4.42845 122 83 55
0.16329 -0.21815 4.44853 122 83 55
0.21857 -0.16273 4.44151 122 83 55
0.26000 -0.08158 4.42982 122 83 55
0.27790 0.00034 4.56268 122 83 55
0.26398 0.08686 4.55092 122 83 55
0.22292 0.16595 4.55937 122 83 55
0.16694 0.22217 4.56801 122 83 55
0.08350 0.26506 4.56618 122 83 55
0.00176 0.27790 4.55625 122 83 55
-0.08141 0.26571 4.55885 122 83 55
-0.16441 0.22405 4.56158 122 83 55
-0.22630 0.16130 4.55740 122 83 55
-0.26275 0.09052 4.55779 122 83 55
-0.27786 0.00493 4.55479 122 83 55
-0.26490 -0.08402 4.57058 122 83 55
-0.22773 -0.15928 4.56296 122 83 55
-0.15930 -0.22771 4.55137 122 83 55
-0.08282 -0.26528 4.55520 122 83 55
-0.00376 -0.27788 4.57017 122 83 55
0.08382 -0.26496 4.56425 122 83 55
0.16145 -0.22619 4.55271 122 83 55
0.22168 -0.16760 4.55238 122 83 55
0.26257 -0.09103 4.56870 122 83 55
0.27487 -0.00326 4.67063 122 83 55
0.26275 0.08081 4.67881 122 83 55
0.22486 0.15812 4.69066 122 83 55
0.16169 0.22231 4.68987 122 83 55
0.08092 0.26271 4.66917 122 83 55
-0.00119 0.27489 4.66834 122 83 55
-0.08219 0.26232 4.68563 122 83 55
-0.16215 0.22197 4.66895 122 83 55
-0.22269 0.16117 4.67591 122 83 55
-0.26138 0.08513 4.69121 122 83 55
-0.27485 -0.00486 4.66999 122 83 55
-0.26306 -0.07977 4.68808 122 83 55
-0.22306 -0.16066 4.68878 122 83 55
-0.15733 -0.22542 4.67209 122 83 55
-0.09011 -0.25970 4.69093 122 83 55
0.00119 -0.27489 4.67558 122 83 55
0.08924 -0.26000 4.69195 122 83 55
0.16413 -0.22051 4.67802 122 83 55
0.22296 -0.16079 4.68411 122 83 55
0.26059 -0.08750 4.66938 122 83 55
0.26487 -0.00098 4.81190 122 83 55
0.25091 0.08488 4.79516 122 83 55
0.21288 0.15762 4.79914 122 83 55
0.15318 0.21609 4.79451 122 83 55
0.07757 0.25326 4.79989 122 83 55
-0.00093 0.26487 4.79450 122 83 55
-0.07789 0.25317 4.80171 122 83 55
-0.15742 0.21302 4.80459 122 83 55
-0.21381 0.15635 4.79113 122 83 55
-0.25275 0.07922 4.81167 122 83 55
-0.26486 0.00329 4.80218 122 83 55
-0.25156 -0.08292 4.81244 122 83 55
-0.21552 -0.15398 4.79042 122 83 55
-0.15896 -0.21188 4.79084 122 83 55
-0.08079 -0.25225 4.81082 122 83 55
0.00068 -0.26488 4.80979 122 83 55
0.07888 -0.25286 4.80940 122 83 55
0.15657 -0.21365 4.79264 122 83 55
0.21673 -0.15228 4.79456 122 83 55
0.25090 -0.08490 4.80091 122 83 55
0.25255 -0.00329 4.93035 122 83 55
0.24145 0.07410 4.91619 122 83 55
0.20403 0.14887 4.91033 122 83 55
0.14749 0.20503 4.92547 122 83 55
0.08204 0.23887 4.92155 122 83 55
-0.00468 0.25252 4.91012 122 83 55
-0.07674 0.24063 4.91495 122 83 55
-0.14579 0.20624 4.92033 122 83 55
-0.20374 0.14927 4.92919 122 83 55
-0.24027 0.07786 4.92274 122 83 55
-0.25253 0.00411 4.92658 122 83 55
-0.24169 -0.07333 4.92050 122 83 55
-0.20572 -0.14653 4.92087 122 83 55
-0.15105 -0.20242 4.91620 122 83 55
-0.07856 -0.24004 4.91276 122 83 55
-0.00073 -0.25257 4.92408 122 83 55
0.08158 -0.23903 4.93065 122 83 55
0.14862 -0.20421 4.91976 122 83 55
0.20354 -0.14954 4.92994 122 83 55
0.23885 -0.08212 4.92128 122 83 55
0.24373 -0.00339 5.03067 122 83 55
0.23299 0.07163 5.04710 122 83 55
0.19639 0.14439 5.03968 122 83 55
0.13981 0.19967 5.03755 122 83 55
0.07237 0.23276 5.02930 122 83 55
0.00361 0.24373 5.02769 122 83 55
-0.07821 0.23087 5.05132 122 83 55
-0.14043 0.19923 5.04072 122 83 55
-0.19806 0.14208 5.04588 122 83 55
-0.23301 0.07156 5.05224 122 83 55
-0.24375 0.00092 5.04127 122 83 55
-0.23157 -0.07610 5.03721 122 83 55
-0.19918 -0.14051 5.03704 122 83 55
-0.14631 -0.19496 5.03220 122 83 55
-0.07553 -0.23176 5.04879 122 83 55
-0.00147 -0.24375 5.03235 122 83 55
0.07518 -0.23187 5.04953 122 83 55
0.14641 -0.19488 5.04829 122 83 55
0.19700 -0.14355 5.04847 122 83 55
0.23319 -0.07098 5.02967 122 83 55
0.24257 0.00234 5.14970 122 83 55
0.22985 0.07756 5.16321 122 83 55
0.19713 0.14138 5.14911 122 83 55
0.14290 0.19602 5.16938 122 83 55
0.07490 0.23073 5.15441 122 83 55
0.00145 0.24258 5.14822 122 83 55
-0.07153 0.23180 5.16925 122 83 55
-0.14034 0.19786 5.15576 122 83 55
-0.19766 0.14063 5.16363 122 83 55
-0.23160 0.07215 5.14901 122 83 55
-0.24258 -0.00131 5.16428 122 83 55
-0.23020 -0.07652 5.14875 122 83 55
-0.19899 -0.13873 5.16955 122 83 55
-0.14429 -0.19500 5.16539 122 83 55
-0.07400 -0.23102 5.15506 122 83 55
0.00287 -0.24256 5.16954 122 83 55
0.07894 -0.22938 5.16722 122 83 55
0.13876 -0.19898 5.17029 122 83 55
0.19402 -0.14561 5.15814 122 83 55
0.23047 -0.07570 5.17021 122 83 55
0.24956 -0.00446 5.29182 122 83 55
0.23801 0.07517 5.26759 122 83 55
0.20309 0.14511 5.26750 122 83 55
0.14808 0.20093 5.29244 122 83 55
0.07271 0.23878 5.28247 122 83 55
0.00264 0.24959 5.28921 122 83 55
-0.07633 0.23764 5.28791 122 83 55
-0.14440 0.20359 5.29035 122 83 55
-0.20337 0.14471 5.27252 122 83 55
-0.23700 0.07831 5.28112 122 83 55
-0.24958 0.00343 5.26982 122 83 55
-0.23768 -0.07622 5.29226 122 83 55
-0.20054 -0.14861 5.28157 122 83 55
-0.15014 -0.19940 5.27847 122 83 55
-0.07852 -0.23693 5.27077 122 83 55
-0.00071 -0.24960 5.27669 122 83 55
0.07799 -0.23710 5.28388 122 83 55
0.14845 -0.20066 5.26982 122 83 55
0.20446 -0.14317 5.26848 122 83 55
0.23703 -0.07822 5.28726 122 83 55
