ply
format ascii 1.0
comment SIMULATED DEMO - NOT FIELD EVIDENCE
element vertex 900
property float x
property float y
property float z
property uchar red
property uchar green
property uchar blue
end_header
0.25999 -0.00170 0.00627 122 83 55
0.24616 0.08371 0.00975 122 83 55
0.21134 0.15144 -0.00036 122 83 55
0.15699 0.20726 0.00133 122 83 55
0.08048 0.24723 0.00607 122 83 55
0.00519 0.25995 0.01157 122 83 55
-0.08229 0.24663 -0.00890 122 83 55
-0.15405 0.20945 -0.00377 122 83 55
-0.20949 0.15399 0.00709 122 83 55
-0.24763 0.07923 0.00033 122 83 55
-0.26000 0.00077 0.00661 122 83 55
-0.24853 -0.07638 0.00647 122 83 55
-0.20732 -0.15690 -0.01135 122 83 55
-0.15598 -0.20801 -0.00090 122 83 55
-0.07852 -0.24786 -0.01078 122 83 55
-0.00199 -0.25999 0.00919 122 83 55
0.07915 -0.24766 0.00874 122 83 55
0.15169 -0.21116 0.00995 122 83 55
0.21296 -0.14916 0.00006 122 83 55
0.24755 -0.07950 -0.00928 122 83 55
0.27155 -0.00490 0.11730 122 83 55
0.25981 0.07915 0.11194 122 83 55
0.21986 0.15946 0.11669 122 83 55
0.16087 0.21882 0.11100 122 83 55
0.08811 0.25691 0.12716 122 83 55
0.00292 0.27158 0.12939 122 83 55
-0.08484 0.25800 0.11429 122 83 55
-0.16398 0.21650 0.11324 122 83 55
-0.22185 0.15667 0.11794 122 83 55
-0.25665 0.08886 0.12048 122 83 55
-0.27157 0.00371 0.12967 122 83 55
-0.25771 -0.08574 0.12893 122 83 55
-0.22270 -0.15546 0.12269 122 83 55
-0.16284 -0.21737 0.11120 122 83 55
-0.07918 -0.25980 0.10806 122 83 55
-0.00197 -0.27159 0.12819 122 83 55
0.08515 -0.25790 0.12232 122 83 55
0.16110 -0.21865 0.12455 122 83 55
0.21921 -0.16035 0.10774 122 83 55
0.25865 -0.08284 0.11538 122 83 55
0.27770 -0.00458 0.24793 122 83 55
0.26287 0.08966 0.23008 122 83 55
0.22787 0.15879 0.23747 122 83 55
0.16745 0.22158 0.24506 122 83 55
0.08760 0.26356 0.24083 122 83 55
-0.00521 0.27769 0.23876 122 83 55
-0.08198 0.26536 0.25170 122 83 55
-0.15899 0.22773 0.23324 122 83 55
-0.22223 0.16659 0.24550 122 83 55
-0.26285 0.08972 0.24314 122 83 55
-0.27773 -0.00182 0.22871 122 83 55
-0.26524 -0.08238 0.23896 122 83 55
-0.22703 -0.15998 0.23528 122 83 55
-0.16439 -0.22386 0.22781 122 83 55
-0.08125 -0.26559 0.23137 122 83 55
-0.00088 -0.27774 0.24117 122 83 55
0.08591 -0.26412 0.24590 122 83 55
0.16441 -0.22385 0.25023 122 83 55
0.22392 -0.16431 0.25093 122 83 55
0.26388 -0.08663 0.23593 122 83 55
0.27548 0.00541 0.36679 122 83 55
0.26087 0.08870 0.36678 122 83 55
0.22142 0.16399 0.35841 122 83 55
0.15825 0.22556 0.35393 122 83 55
0.08342 0.26261 0.36528 122 83 55
0.00436 0.27550 0.35424 122 83 55
-0.08722 0.26137 0.36401 122 83 55
-0.15871 0.22524 0.34829 122 83 55
-0.22091 0.16467 0.36852 122 83 55
-0.26341 0.08083 0.35147 122 83 55
-0.27553 0.00195 0.35914 122 83 55
-0.26253 -0.08367 0.35271 122 83 55
-0.22185 -0.16341 0.35328 122 83 55
-0.16276 -0.22233 0.37146 122 83 55
-0.08196 -0.26307 0.36641 122 83 55
-0.00083 -0.27554 0.35992 122 83 55
0.09003 -0.26041 0.36853 122 83 55
0.16434 -0.22116 0.35870 122 83 55
0.22571 -0.15804 0.37235 122 83 55
0.26168 -0.08629 0.37042 122 83 55
0.26601 0.00286 0.49083 122 83 55
0.25277 0.08294 0.49183 122 83 55
0.21772 0.15288 0.46795 122 83 55
0.15885 0.21340 0.48657 122 83 55
0.08715 0.25135 0.48758 122 83 55
0.00213 0.26602 0.48161 122 83 55
-0.08512 0.25204 0.47208 122 83 55
-0.15627 0.21530 0.47697 122 83 55
-0.21207 0.16062 0.48798 122 83 55
-0.25415 0.07862 0.48927 122 83 55
-0.26602 -0.00270 0.48762 122 83 55
-0.25368 -0.08011 0.48618 122 83 55
-0.21795 -0.15255 0.48693 122 83 55
-0.15930 -0.21306 0.49001 122 83 55
-0.08068 -0.25350 0.49050 122 83 55
-0.00493 -0.26598 0.48968 122 83 55
0.08431 -0.25232 0.48167 122 83 55
0.15907 -0.21324 0.48202 122 83 55
0.21388 -0.15820 0.47644 122 83 55
0.25272 -0.08311 0.46922 122 83 55
0.25369 -0.00046 0.59120 122 83 55
0.24023 0.08153 0.59064 122 83 55
0.20574 0.14842 0.59065 122 83 55
0.14999 0.20459 0.60847 122 83 55
0.08211 0.24003 0.60860 122 83 55
0.00126 0.25368 0.59293 122 83 55
-0.07457 0.24248 0.59021 122 83 55
-0.14750 0.20640 0.60894 122 83 55
-0.20643 0.14745 0.61110 122 83 55
-0.24182 0.07668 0.58752 122 83 55
-0.25368 -0.00157 0.58932 122 83 55
-0.23984 -0.08266 0.60127 122 83 55
-0.20287 -0.15232 0.60299 122 83 55
-0.14598 -0.20748 0.60978 122 83 55
-0.08240 -0.23993 0.61237 122 83 55
0.00277 -0.25367 0.60176 122 83 55
0.07388 -0.24269 0.59133 122 83 55
0.14531 -0.20795 0.59227 122 83 55
0.20332 -0.15171 0.60479 122 83 55
0.24022 -0.08156 0.58929 122 83 55
0.24430 0.00222 0.71945 122 83 55
0.23337 0.07228 0.72058 122 83 55
0.19981 0.14058 0.72677 122 83 55
0.14164 0.19907 0.72751 122 83 55
0.07109 0.23374 0.70833 122 83 55
0.00236 0.24430 0.70938 122 83 55
-0.07661 0.23199 0.72971 122 83 55
-0.14532 0.19639 0.73234 122 83 55
-0.19976 0.14065 0.73072 122 83 55
-0.23259 0.07477 0.72389 122 83 55
-0.24430 -0.00193 0.71555 122 83 55
-0.23282 -0.07405 0.70980 122 83 55
-0.19536 -0.14670 0.71813 122 83 55
-0.14156 -0.19912 0.72157 122 83 55
-0.07124 -0.23369 0.72888 122 83 55
-0.00058 -0.24431 0.71413 122 83 55
0.07747 -0.23170 0.72555 122 83 55
0.14072 -0.19971 0.71416 122 83 55
0.19737 -0.14398 0.73187 122 83 55
0.23362 -0.07147 0.72628 122 83 55
0.24231 0.00086 0.82913 122 83 55
0.23162 0.07121 0.85007 122 83 55
0.19823 0.13937 0.83704 122 83 55
0.14256 0.19594 0.82760 122 83 55
0.07640 0.22996 0.83147 122 83 55
0.00009 0.24232 0.84199 122 83 55
-0.07697 0.22977 0.84778 122 83 55
-0.14000 0.19778 0.84400 122 83 55
-0.19787 0.13987 0.84994 122 83 55
-0.22911 0.07890 0.83993 122 83 55
-0.24232 0.00002 0.83174 122 83 55
-0.23095 -0.07333 0.83524 122 83 55
-0.19840 -0.13912 0.83763 122 83 55
-0.14606 -0.19335 0.84947 122 83 55
-0.07815 -0.22937 0.85201 122 83 55
-0.00311 -0.24230 0.82970 122 83 55
0.07865 -0.22920 0.83720 122 83 55
0.14379 -0.19505 0.84538 122 83 55
0.19651 -0.14177 0.83111 122 83 55
0.23157 -0.07137 0.82935 122 83 55
0.24861 -0.00383 0.96757 122 83 55
0.23502 0.08117 0.95551 122 83 55
0.20311 0.14341 0.94779 122 83 55
0.14701 0.20052 0.96012 122 83 55
0.07914 0.23571 0.96834 122 83 55
0.00198 0.24863 0.96507 122 83 55
-0.07641 0.23661 0.96668 122 83 55
-0.14607 0.20121 0.96744 122 83 55
-0.20394 0.14222 0.95209 122 83 55
-0.23591 0.07852 0.96611 122 83 55
-0.24863 -0.00133 0.95066 122 83 55
-0.23544 -0.07992 0.95731 122 83 55
-0.19857 -0.14963 0.96445 122 83 55
-0.14452 -0.20233 0.95244 122 83 55
-0.07797 -0.23610 0.95618 122 83 55
-0.00438 -0.24860 0.95747 122 83 55
0.07383 -0.23742 0.95202 122 83 55
0.14286 -0.20350 0.95973 122 83 55
0.20045 -0.14711 0.96127 122 83 55
0.23503 -0.08114 0.94898 122 83 55
0.26029 -0.00256 1.08807 122 83 55
0.24886 0.07634 1.07602 122 83 55
0.21139 0.15189 1.07641 122 83 55
0.15653 0.20798 1.06817 122 83 55
0.07831 0.24824 1.08106 122 83 55
0.00269 0.26029 1.07252 122 83 55
-0.08285 0.24677 1.08823 122 83 55
-0.15071 0.21224 1.07875 122 83 55
-0.20939 0.15464 1.09100 122 83 55
-0.24653 0.08356 1.07972 122 83 55
-0.26029 -0.00247 1.08598 122 83 55
-0.24693 -0.08236 1.08939 122 83 55
-0.20966 -0.15428 1.07857 122 83 55
-0.15071 -0.21223 1.08374 122 83 55
-0.08386 -0.24643 1.07087 122 83 55
-0.00253 -0.26029 1.09151 122 83 55
0.08076 -0.24746 1.08711 122 83 55
0.15131 -0.21181 1.06816 122 83 55
0.21162 -0.15157 1.07315 122 83 55
0.24843 -0.07771 1.09240 122 83 55
0.27182 0.00221 1.20738 122 83 55
0.25749 0.08712 1.20097 122 83 55
0.21869 0.16145 1.20209 122 83 55
0.15753 0.22152 1.19370 122 83 55
0.08609 0.25783 1.20016 122 83 55
0.00128 0.27182 1.19199 122 83 55
-0.08690 0.25756 1.20366 122 83 55
-0.16388 0.21687 1.19016 122 83 55
-0.22165 0.15736 1.20164 122 83 55
-0.25895 0.08266 1.19549 122 83 55
-0.27182 -0.00157 1.20116 122 83 55
-0.25964 -0.08047 1.18868 122 83 55
-0.22030 -0.15924 1.21162 122 83 55
-0.16341 -0.21722 1.20819 122 83 55
-0.08215 -0.25912 1.19353 122 83 55
0.00297 -0.27181 1.19770 122 83 55
0.08426 -0.25844 1.18958 122 83 55
0.16221 -0.21812 1.18755 122 83 55
0.21721 -0.16343 1.21156 122 83 55
0.25947 -0.08102 1.21195 122 83 55
0.27776 0.00372 1.30846 122 83 55
0.26306 0.08926 1.31537 122 83 55
0.22456 0.16353 1.33186 122 83 55
0.16250 0.22530 1.31738 122 83 55
0.08114 0.26567 1.31636 122 83 55
0.00471 0.27775 1.33172 122 83 55
-0.08482 0.26452 1.32372 122 83 55
-0.16680 0.22214 1.31655 122 83 55
-0.22774 0.15905 1.33097 122 83 55
-0.26537 0.08213 1.31413 122 83 55
-0.27778 -0.00121 1.32866 122 83 55
-0.26321 -0.08881 1.32423 122 83 55
-0.22213 -0.16681 1.31688 122 83 55
-0.16140 -0.22608 1.32718 122 83 55
-0.08146 -0.26557 1.32292 122 83 55
0.00257 -0.27778 1.30834 122 83 55
0.08563 -0.26426 1.32061 122 83 55
0.16149 -0.22602 1.31731 122 83 55
0.22722 -0.15980 1.31265 122 83 55
0.26507 -0.08308 1.32624 122 83 55
0.27537 0.00214 1.43857 122 83 55
0.26263 0.08282 1.42803 122 83 55
0.22361 0.16074 1.43703 122 83 55
0.16081 0.22355 1.43129 122 83 55
0.08250 0.26273 1.44274 122 83 55
0.00250 0.27537 1.43535 122 83 55
-0.08574 0.26169 1.42909 122 83 55
-0.15760 0.22583 1.44970 122 83 55
-0.22385 0.16039 1.43922 122 83 55
-0.26322 0.08094 1.42861 122 83 55
-0.27538 -0.00081 1.43439 122 83 55
-0.26015 -0.09031 1.42781 122 83 55
-0.22322 -0.16127 1.43453 122 83 55
-0.15851 -0.22519 1.43657 122 83 55
-0.08352 -0.26241 1.43756 122 83 55
-0.00300 -0.27537 1.44950 122 83 55
0.08721 -0.26121 1.43480 122 83 55
0.15908 -0.22479 1.44882 122 83 55
0.22527 -0.15839 1.44655 122 83 55
0.26193 -0.08503 1.44909 122 83 55
0.26570 -0.00475 1.55270 122 83 55
0.25340 0.08005 1.55752 122 83 55
0.21480 0.15647 1.55981 122 83 55
0.15839 0.21338 1.56943 122 83 55
0.07876 0.25381 1.57225 122 83 55
0.00092 0.26574 1.56943 122 83 55
-0.08556 0.25159 1.56616 122 83 55
-0.15208 0.21793 1.56537 122 83 55
-0.21523 0.15587 1.57137 122 83 55
-0.25391 0.07840 1.56325 122 83 55
-0.26574 -0.00014 1.55256 122 83 55
-0.25360 -0.07941 1.55251 122 83 55
-0.21322 -0.15861 1.55230 122 83 55
-0.15624 -0.21496 1.56735 122 83 55
-0.08041 -0.25329 1.56970 122 83 55
0.00264 -0.26573 1.55127 122 83 55
0.08512 -0.25174 1.55484 122 83 55
0.15295 -0.21732 1.55766 122 83 55
0.21437 -0.15705 1.55530 122 83 55
0.25337 -0.08015 1.55129 122 83 55
0.25340 0.00032 1.67731 122 83 55
0.24224 0.07440 1.67603 122 83 55
0.20269 0.15208 1.69036 122 83 55
0.15097 0.20353 1.67110 122 83 55
0.08044 0.24030 1.68044 122 83 55
-0.00373 0.25338 1.66879 122 83 55
-0.07398 0.24236 1.68811 122 83 55
-0.14928 0.20477 1.68818 122 83 55
-0.20730 0.14574 1.67402 122 83 55
-0.24153 0.07664 1.67068 122 83 55
-0.25338 -0.00338 1.69082 122 83 55
-0.24085 -0.07878 1.68920 122 83 55
-0.20481 -0.14922 1.68633 122 83 55
-0.15114 -0.20339 1.68412 122 83 55
-0.07400 -0.24236 1.67446 122 83 55
-0.00356 -0.25338 1.69074 122 83 55
0.07386 -0.24240 1.69144 122 83 55
0.14931 -0.20474 1.67866 122 83 55
0.20359 -0.15088 1.68608 122 83 55
0.23988 -0.08168 1.68018 122 83 55
0.24415 0.00272 1.79429 122 83 55
0.23150 0.07763 1.81092 122 83 55
0.19616 0.14539 1.78907 122 83 55
0.14406 0.19713 1.80201 122 83 55
0.07896 0.23104 1.79860 122 83 55
-0.00443 0.24413 1.78972 122 83 55
-0.07901 0.23103 1.79124 122 83 55
-0.14057 0.19964 1.78933 122 83 55
-0.19729 0.14386 1.80756 122 83 55
-0.23178 0.07679 1.81155 122 83 55
-0.24414 -0.00323 1.80566 122 83 55
-0.23100 -0.07909 1.79082 122 83 55
-0.19595 -0.14568 1.80739 122 83 55
-0.14645 -0.19537 1.79137 122 83 55
-0.07145 -0.23348 1.79436 122 83 55
-0.00301 -0.24415 1.79285 122 83 55
0.07826 -0.23128 1.80865 122 83 55
0.14420 -0.19703 1.78874 122 83 55
0.19997 -0.14010 1.79480 122 83 55
0.23281 -0.07361 1.81208 122 83 55
0.24237 0.00209 1.92039 122 83 55
0.23099 0.07342 1.92918 122 83 55
0.19483 0.14417 1.92922 122 83 55
0.14069 0.19737 1.90821 122 83 55
0.07580 0.23022 1.93213 122 83 55
-0.00001 0.24237 1.92095 122 83 55
-0.07593 0.23018 1.92172 122 83 55
-0.14426 0.19476 1.91714 122 83 55
-0.19490 0.14408 1.92863 122 83 55
-0.23190 0.07048 1.91707 122 83 55
-0.24236 0.00270 1.92319 122 83 55
-0.22937 -0.07834 1.92943 122 83 55
-0.19461 -0.14447 1.91246 122 83 55
-0.14000 -0.19785 1.92265 122 83 55
-0.07138 -0.23162 1.91909 122 83 55
0.00149 -0.24237 1.91405 122 83 55
0.07075 -0.23182 1.90945 122 83 55
0.14322 -0.19553 1.92263 122 83 55
0.19678 -0.14151 1.91998 122 83 55
0.23078 -0.07406 1.91244 122 83 55
0.24885 0.00343 2.03182 122 83 55
0.23531 0.08104 2.02966 122 83 55
0.19996 0.14817 2.03490 122 83 55
0.14239 0.20411 2.02790 122 83 55
0.07886 0.23605 2.04929 122 83 55
-0.00491 0.24883 2.05246 122 83 55
-0.08043 0.23552 2.02752 122 83 55
-0.14794 0.20013 2.03532 122 83 55
-0.20243 0.14478 2.04288 122 83 55
-0.23531 0.08103 2.03440 122 83 55
-0.24886 -0.00229 2.03019 122 83 55
-0.23782 -0.07334 2.03615 122 83 55
-0.20049 -0.14745 2.04153 122 83 55
-0.14824 -0.19991 2.03744 122 83 55
-0.07907 -0.23598 2.04070 122 83 55
0.00489 -0.24883 2.03371 122 83 55
0.08070 -0.23543 2.04163 122 83 55
0.14387 -0.20308 2.04631 122 83 55
0.20156 -0.14598 2.05193 122 83 55
0.23661 -0.07715 2.02888 122 83 55
0.26060 0.00121 2.15925 122 83 55
0.24674 0.08388 2.16809 122 83 55
0.21382 0.14898 2.16425 122 83 55
0.15558 0.20907 2.16101 122 83 55
0.08273 0.24712 2.16523 122 83 55
0.00253 0.26059 2.15206 122 83 55
-0.08064 0.24782 2.15580 122 83 55
-0.15276 0.21114 2.16918 122 83 55
-0.20872 0.15604 2.15310 122 83 55
-0.24821 0.07940 2.15484 122 83 55
-0.26059 -0.00243 2.16050 122 83 55
-0.24877 -0.07766 2.14879 122 83 55
-0.21188 -0.15173 2.16476 122 83 55
-0.15660 -0.20830 2.15090 122 83 55
-0.08304 -0.24702 2.15399 122 83 55
0.00068 -0.26060 2.15342 122 83 55
0.07793 -0.24868 2.14906 122 83 55
0.15689 -0.20809 2.16335 122 83 55
0.20856 -0.15627 2.17223 122 83 55
0.24923 -0.07616 2.16704 122 83 55
0.27202 0.00391 2.27808 122 83 55
0.25847 0.08489 2.29001 122 83 55
0.22233 0.15679 2.28806 122 83 55
0.15999 0.22004 2.27155 122 83 55
0.08521 0.25836 2.27131 122 83 55
-0.00254 0.27204 2.27485 122 83 55
-0.08373 0.25885 2.27047 122 83 55
-0.16034 0.21978 2.28453 122 83 55
-0.22025 0.15969 2.27762 122 83 55
-0.25932 0.08225 2.27474 122 83 55
-0.27200 -0.00524 2.27671 122 83 55
-0.25999 -0.08010 2.29244 122 83 55
-0.22148 -0.15798 2.28999 122 83 55
-0.15989 -0.22011 2.27143 122 83 55
-0.08763 -0.25755 2.27728 122 83 55
-0.00068 -0.27205 2.27906 122 83 55
0.08301 -0.25908 2.26818 122 83 55
0.15971 -0.22024 2.27898 122 83 55
0.21978 -0.16033 2.28860 122 83 55
0.25913 -0.08285 2.27421 122 83 55
0.27782 -0.00244 2.39404 122 83 55
0.26443 0.08524 2.39635 122 83 55
0.22593 0.16170 2.38862 122 83 55
0.16493 0.22358 2.39785 122 83 55
0.08557 0.26433 2.40979 122 83 55
0.00238 0.27782 2.40545 122 83 55
-0.08850 0.26336 2.39017 122 83 55
-0.16340 0.22470 2.39947 122 83 55
-0.22151 0.16770 2.38901 122 83 55
-0.26416 0.08608 2.38937 122 83 55
-0.27783 0.00145 2.39714 122 83 55
-0.26497 -0.08355 2.39278 122 83 55
-0.22475 -0.16333 2.39049 122 83 55
-0.16180 -0.22586 2.39602 122 83 55
-0.08977 -0.26293 2.39347 122 83 55
0.00245 -0.27782 2.41071 122 83 55
0.09018 -0.26279 2.39486 122 83 55
0.16182 -0.22584 2.39704 122 83 55
0.22501 -0.16298 2.38996 122 83 55
0.26542 -0.08212 2.40575 122 83 55
0.27517 -0.00533 2.52411 122 83 55
0.26169 0.08525 2.51701 122 83 55
0.22296 0.16136 2.52892 122 83 55
0.16050 0.22358 2.52057 122 83 55
0.08172 0.26281 2.51879 122 83 55
-0.00107 0.27522 2.50802 122 83 55
-0.08463 0.26189 2.52153 122 83 55
-0.15783 0.22547 2.52898 122 83 55
-0.22216 0.16246 2.52315 122 83 55
-0.26046 0.08892 2.51951 122 83 55
-0.27521 -0.00301 2.51818 122 83 55
-0.26274 -0.08194 2.52217 122 83 55
-0.22264 -0.16180 2.52804 122 83 55
-0.15935 -0.22440 2.51343 122 83 55
-0.08253 -0.26256 2.51142 122 83 55
-0.00006 -0.27522 2.51532 122 83 55
0.08304 -0.26240 2.52157 122 83 55
0.15945 -0.22433 2.52471 122 83 55
0.22509 -0.15837 2.52193 122 83 55
0.26316 -0.08058 2.52442 122 83 55
0.26544 -0.00264 2.64770 122 83 55
0.25295 0.08052 2.64208 122 83 55
0.21475 0.15604 2.64212 122 83 55
0.15710 0.21398 2.63854 122 83 55
0.08659 0.25094 2.64755 122 83 55
0.00414 0.26542 2.63416 122 83 55
-0.08577 0.25122 2.63769 122 83 55
-0.16019 0.21168 2.63731 122 83 55
-0.21425 0.15672 2.63355 122 83 55
-0.25367 0.07823 2.64587 122 83 55
-0.26541 -0.00482 2.63189 122 83 55
-0.25211 -0.08311 2.62871 122 83 55
-0.21559 -0.15488 2.64639 122 83 55
-0.15537 -0.21524 2.64017 122 83 55
-0.07989 -0.25315 2.64765 122 83 55
-0.00226 -0.26545 2.63225 122 83 55
0.08701 -0.25079 2.64482 122 83 55
0.16027 -0.21161 2.63506 122 83 55
0.21759 -0.15205 2.63253 122 83 55
0.25358 -0.07851 2.63242 122 83 55
0.25309 0.00413 2.75324 122 83 55
0.24189 0.07455 2.76101 122 83 55
0.20299 0.15121 2.76644 122 83 55
0.14873 0.20482 2.75239 122 83 55
0.08146 0.23966 2.76707 122 83 55
-0.00039 0.25312 2.76356 122 83 55
-0.07909 0.24045 2.75222 122 83 55
-0.14933 0.20438 2.74816 122 83 55
-0.20649 0.14640 2.76599 122 83 55
-0.24203 0.07412 2.75133 122 83 55
-0.25312 -0.00019 2.76398 122 83 55
-0.24174 -0.07504 2.74789 122 83 55
-0.20256 -0.15179 2.75994 122 83 55
-0.14829 -0.20514 2.76430 122 83 55
-0.07636 -0.24133 2.75332 122 83 55
-0.00393 -0.25309 2.76162 122 83 55
0.07507 -0.24173 2.76800 122 83 55
0.15235 -0.20214 2.76242 122 83 55
0.20667 -0.14615 2.76329 122 83 55
0.24139 -0.07617 2.76128 122 83 55
0.24402 -0.00119 2.87999 122 83 55
0.23233 0.07464 2.88450 122 83 55
0.19771 0.14304 2.87520 122 83 55
0.14132 0.19894 2.88099 122 83 55
0.07242 0.23303 2.87598 122 83 55
-0.00432 0.24399 2.87749 122 83 55
-0.07786 0.23127 2.88827 122 83 55
-0.14371 0.19722 2.88773 122 83 55
-0.19935 0.14074 2.87853 122 83 55
-0.23305 0.07235 2.87099 122 83 55
-0.24399 -0.00435 2.88203 122 83 55
-0.23110 -0.07835 2.87226 122 83 55
-0.19651 -0.14468 2.88779 122 83 55
-0.14259 -0.19803 2.87207 122 83 55
-0.07915 -0.23083 2.88656 122 83 55
-0.00416 -0.24399 2.88540 122 83 55
0.07863 -0.23101 2.87440 122 83 55
0.14684 -0.19490 2.88052 122 83 55
0.19870 -0.14165 2.88559 122 83 55
0.23242 -0.07434 2.86958 122 83 55
0.24243 -0.00154 3.00520 122 83 55
0.23040 0.07545 2.99925 122 83 55
0.19441 0.14485 3.00232 122 83 55
0.13969 0.19815 3.01074 122 83 55
0.07943 0.22906 3.00179 122 83 55
0.00138 0.24243 2.99011 122 83 55
-0.07361 0.23100 2.99313 122 83 55
-0.14354 0.19538 3.01052 122 83 55
-0.19791 0.14004 3.00679 122 83 55
-0.23038 0.07551 3.00000 122 83 55
-0.24243 -0.00167 2.99905 122 83 55
-0.23036 -0.07557 3.00379 122 83 55
-0.19614 -0.14249 3.00807 122 83 55
-0.14426 -0.19485 3.00729 122 83 55
-0.07029 -0.23202 3.00510 122 83 55
0.00034 -0.24244 2.99642 122 83 55
0.07834 -0.22943 2.99567 122 83 55
0.14610 -0.19347 2.98853 122 83 55
0.19823 -0.13957 3.00739 122 83 55
0.22942 -0.07838 2.99848 122 83 55
0.24911 0.00125 3.12660 122 83 55
0.23702 0.07668 3.13049 122 83 55
0.19883 0.15009 3.11304 122 83 55
0.14854 0.19998 3.12766 122 83 55
0.07479 0.23762 3.12238 122 83 55
-0.00496 0.24906 3.11255 122 83 55
-0.07688 0.23695 3.12297 122 83 55
-0.14805 0.20034 3.10802 122 83 55
-0.20092 0.14727 3.12451 122 83 55
-0.23659 0.07798 3.10930 122 83 55
-0.24910 0.00252 3.12237 122 83 55
-0.23544 -0.08139 3.11404 122 83 55
-0.20108 -0.14706 3.10762 122 83 55
-0.14553 -0.20218 3.11360 122 83 55
-0.08067 -0.23569 3.12918 122 83 55
0.00341 -0.24909 3.11009 122 83 55
0.07292 -0.23820 3.12555 122 83 55
0.14436 -0.20302 3.12980 122 83 55
0.19954 -0.14913 3.12517 122 83 55
0.23639 -0.07860 3.11002 122 83 55
0.26088 -0.00370 3.24014 122 83 55
0.24929 0.07698 3.23739 122 83 55
0.21185 0.15229 3.24501 122 83 55
0.15350 0.21098 3.23226 122 83 55
0.07820 0.24891 3.23290 122 83 55
0.00510 0.26086 3.24988 122 83 55
-0.08391 0.24704 3.24803 122 83 55
-0.15222 0.21190 3.25008 122 83 55
-0.20962 0.15535 3.24949 122 83 55
-0.24725 0.08331 3.24406 122 83 55
-0.26091 -0.00043 3.24785 122 83 55
-0.24959 -0.07600 3.23726 122 83 55
-0.20874 -0.15653 3.25195 122 83 55
-0.15301 -0.21133 3.23452 122 83 55
-0.07780 -0.24904 3.24984 122 83 55
0.00126 -0.26090 3.23402 122 83 55
0.07993 -0.24836 3.22886 122 83 55
0.15713 -0.20829 3.24353 122 83 55
0.20827 -0.15714 3.24631 122 83 55
0.24795 -0.08120 3.23328 122 83 55
0.27224 0.00426 3.36315 122 83 55
0.25858 0.08527 3.36616 122 83 55
0.22022 0.16012 3.36963 122 83 55
0.16265 0.21835 3.36225 122 83 55
0.08547 0.25851 3.35790 122 83 55
-0.00330 0.27226 3.35581 122 83 55
-0.07977 0.26033 3.35303 122 83 55
-0.15774 0.22193 3.35929 122 83 55
-0.22160 0.15820 3.36980 122 83 55
-0.26049 0.07922 3.35496 122 83 55
-0.27223 0.00521 3.34934 122 83 55
-0.25777 -0.08768 3.37114 122 83 55
-0.21963 -0.16093 3.35052 122 83 55
-0.15725 -0.22228 3.37130 122 83 55
-0.08804 -0.25765 3.35747 122 83 55
0.00135 -0.27227 3.37039 122 83 55
0.08231 -0.25953 3.37086 122 83 55
0.15950 -0.22066 3.34914 122 83 55
0.21979 -0.16071 3.35669 122 83 55
0.26046 -0.07932 3.36832 122 83 55
0.27782 0.00542 3.47770 122 83 55
0.26396 0.08680 3.48611 122 83 55
0.22459 0.16361 3.47377 122 83 55
0.16325 0.22485 3.47305 122 83 55
0.08724 0.26382 3.48379 122 83 55
-0.00471 0.27783 3.47027 122 83 55
-0.08552 0.26438 3.48292 122 83 55
-0.16546 0.22324 3.46797 122 83 55
-0.22357 0.16501 3.49032 122 83 55
-0.26381 0.08726 3.48737 122 83 55
-0.27783 0.00449 3.48852 122 83 55
-0.26396 -0.08681 3.48550 122 83 55
-0.22367 -0.16487 3.49233 122 83 55
-0.16318 -0.22491 3.47361 122 83 55
-0.08994 -0.26291 3.49068 122 83 55
-0.00388 -0.27784 3.47616 122 83 55
0.08943 -0.26309 3.49193 122 83 55
0.15975 -0.22736 3.48854 122 83 55
0.22541 -0.16248 3.48360 122 83 55
0.26395 -0.08683 3.47297 122 83 55
0.27504 0.00345 3.59433 122 83 55
0.26145 0.08544 3.60840 122 83 55
0.22508 0.15810 3.61178 122 83 55
0.16552 0.21968 3.60115 122 83 55
0.08120 0.26280 3.61164 122 83 55
-0.00013 0.27506 3.58972 122 83 55
-0.08355 0.26206 3.60897 122 83 55
-0.16092 0.22308 3.60809 122 83 55
-0.22383 0.15987 3.59956 122 83 55
-0.26201 0.08371 3.60320 122 83 55
-0.27506 -0.00004 3.59503 122 83 55
-0.26233 -0.08272 3.58871 122 83 55
-0.22389 -0.15978 3.60184 122 83 55
-0.16490 -0.22015 3.58799 122 83 55
-0.08130 -0.26277 3.60550 122 83 55
-0.00521 -0.27501 3.60609 122 83 55
0.08109 -0.26283 3.60253 122 83 55
0.16382 -0.22095 3.60117 122 83 55
0.22120 -0.16349 3.60406 122 83 55
0.26194 -0.08393 3.60741 122 83 55
0.26515 -0.00335 3.71109 122 83 55
0.25247 0.08106 3.71267 122 83 55
0.21637 0.15329 3.72777 122 83 55
0.15420 0.21572 3.71022 122 83 55
0.08370 0.25161 3.73028 122 83 55
0.00206 0.26516 3.72039 122 83 55
-0.08609 0.25080 3.71512 122 83 55
-0.15920 0.21206 3.70898 122 83 55
-0.21356 0.15718 3.73188 122 83 55
-0.25294 0.07958 3.71069 122 83 55
-0.26515 -0.00304 3.71689 122 83 55
-0.25064 -0.08656 3.72699 122 83 55
-0.21427 -0.15621 3.71521 122 83 55
-0.15839 -0.21266 3.71419 122 83 55
-0.07877 -0.25320 3.71487 122 83 55
-0.00383 -0.26514 3.71357 122 83 55
0.08554 -0.25099 3.72347 122 83 55
0.15591 -0.21449 3.73186 122 83 55
0.21631 -0.15337 3.72332 122 83 55
0.25229 -0.08164 3.71153 122 83 55
0.25284 0.00092 3.84289 122 83 55
0.23927 0.08174 3.83145 122 83 55
0.20721 0.14489 3.84826 122 83 55
0.14840 0.20471 3.84508 122 83 55
0.07662 0.24096 3.83469 122 83 55
0.00288 0.25283 3.83921 122 83 55
-0.08066 0.23963 3.82965 122 83 55
-0.14718 0.20559 3.82787 122 83 55
-0.20410 0.14924 3.84987 122 83 55
-0.24007 0.07936 3.85192 122 83 55
-0.25282 -0.00313 3.84127 122 83 55
-0.24052 -0.07797 3.84149 122 83 55
-0.20691 -0.14532 3.85178 122 83 55
-0.14870 -0.20449 3.84427 122 83 55
-0.08113 -0.23948 3.84847 122 83 55
0.00050 -0.25284 3.83425 122 83 55
0.07994 -0.23987 3.84651 122 83 55
0.14791 -0.20507 3.84651 122 83 55
0.20159 -0.15261 3.84875 122 83 55
0.24125 -0.07570 3.84017 122 83 55
0.24389 0.00013 3.97114 122 83 55
0.23295 0.07222 3.96743 122 83 55
0.19991 0.13971 3.97012 122 83 55
0.14135 0.19875 3.96846 122 83 55
0.07733 0.23130 3.96475 122 83 55
0.00041 0.24389 3.96264 122 83 55
-0.07839 0.23095 3.95226 122 83 55
-0.14300 0.19756 3.96316 122 83 55
-0.19884 0.14122 3.97222 122 83 55
-0.23143 0.07694 3.94820 122 83 55
-0.24388 0.00144 3.96054 122 83 55
-0.23074 -0.07898 3.95816 122 83 55
-0.19469 -0.14688 3.95596 122 83 55
-0.14128 -0.19880 3.95952 122 83 55
-0.07737 -0.23129 3.95783 122 83 55
-0.00342 -0.24386 3.95252 122 83 55
0.07851 -0.23090 3.96528 122 83 55
0.14273 -0.19776 3.95557 122 83 55
0.19885 -0.14121 3.95908 122 83 55
0.23161 -0.07639 3.95612 122 83 55
0.24249 0.00276 4.08874 122 83 55
0.23082 0.07438 4.06847 122 83 55
0.19447 0.14488 4.06880 122 83 55
0.13942 0.19842 4.08061 122 83 55
0.07619 0.23023 4.08921 122 83 55
0.00236 0.24250 4.07328 122 83 55
-0.07148 0.23173 4.07629 122 83 55
-0.14024 0.19785 4.07563 122 83 55
-0.19816 0.13980 4.07176 122 83 55
-0.23073 0.07466 4.07824 122 83 55
-0.24250 -0.00247 4.08367 122 83 55
-0.23119 -0.07322 4.08544 122 83 55
-0.19784 -0.14024 4.08437 122 83 55
-0.14560 -0.19393 4.08517 122 83 55
-0.07039 -0.23207 4.09177 122 83 55
0.00386 -0.24248 4.07575 122 83 55
0.07683 -0.23002 4.07650 122 83 55
0.13905 -0.19868 4.07033 122 83 55
0.19362 -0.14602 4.06882 122 83 55
0.23110 -0.07350 4.08096 122 83 55
0.24931 -0.00472 4.19036 122 83 55
0.23632 0.07957 4.21047 122 83 55
0.20322 0.14451 4.20194 122 83 55
0.14519 0.20273 4.19663 122 83 55
0.07236 0.23863 4.21014 122 83 55
0.00405 0.24932 4.20428 122 83 55
-0.07886 0.23656 4.20642 122 83 55
-0.14943 0.19962 4.19236 122 83 55
-0.20364 0.14391 4.19388 122 83 55
-0.23746 0.07611 4.18911 122 83 55
-0.24935 -0.00134 4.19289 122 83 55
-0.23729 -0.07663 4.19484 122 83 55
-0.19886 -0.15044 4.18833 122 83 55
-0.14397 -0.20360 4.20300 122 83 55
-0.07890 -0.23654 4.19218 122 83 55
0.00105 -0.24935 4.19140 122 83 55
0.07739 -0.23704 4.20149 122 83 55
0.14753 -0.20103 4.19205 122 83 55
0.20077 -0.14788 4.18815 122 83 55
0.23854 -0.07263 4.20368 122 83 55
0.26118 -0.00376 4.30803 122 83 55
0.24812 0.08164 4.31307 122 83 55
0.20976 0.15567 4.30819 122 83 55
0.15434 0.21074 4.33175 122 83 55
0.08022 0.24859 4.31247 122 83 55
-0.00043 0.26121 4.33157 122 83 55
-0.08093 0.24836 4.32157 122 83 55
-0.15569 0.20974 4.31847 122 83 55
-0.21249 0.15191 4.32028 122 83 55
-0.24677 0.08565 4.31506 122 83 55
-0.26120 -0.00168 4.32070 122 83 55
-0.24800 -0.08202 4.30922 122 83 55
-0.21247 -0.15194 4.31661 122 83 55
-0.15060 -0.21343 4.32163 122 83 55
-0.07657 -0.24973 4.31006 122 83 55
-0.00216 -0.26120 4.33189 122 83 55
0.07755 -0.24943 4.32805 122 83 55
0.15719 -0.20862 4.30886 122 83 55
0.21432 -0.14933 4.32801 122 83 55
0.24875 -0.07972 4.32218 122 83 55
0.27247 0.00398 4.44202 122 83 55
0.25798 0.08776 4.43810 122 83 55
0.22132 0.15897 4.45143 122 83 55
0.16447 0.21726 4.44427 122 83 55
0.08892 0.25758 4.43407 122 83 55
-0.00154 0.27249 4.44895 122 83 55
-0.08542 0.25876 4.43317 122 83 55
-0.16133 0.21961 4.43177 122 83 55
-0.21992 0.16090 4.42795 122 83 55
-0.25995 0.08174 4.42916 122 83 55
-0.27249 0.00119 4.44723 122 83 55
-0.25959 -0.08286 4.44894 122 83 55
-0.22265 -0.15709 4.43856 122 83 55
-0.15759 -0.22230 4.42975 122 83 55
-0.08050 -0.26033 4.44188 122 83 55
-0.00432 -0.27246 4.44729 122 83 55
0.08840 -0.25776 4.44760 122 83 55
0.16177 -0.21928 4.45055 122 83 55
0.22214 -0.15782 4.45051 122 83 55
0.26059 -0.07965 4.44248 122 83 55
0.27790 -0.00116 4.56214 122 83 55
0.26416 0.08633 4.57092 122 83 55
0.22765 0.15939 4.56029 122 83 55
0.16314 0.22498 4.56148 122 83 55
0.08530 0.26449 4.55593 122 83 55
-0.00392 0.27788 4.55091 122 83 55
-0.08121 0.26577 4.56369 122 83 55
-0.16272 0.22529 4.56010 122 83 55
-0.22304 0.16578 4.56858 122 83 55
-0.26464 0.08482 4.55265 122 83 55
-0.27788 0.00364 4.56777 122 83 55
-0.26400 -0.08679 4.56082 122 83 55
-0.22520 -0.16284 4.56249 122 83 55
-0.16336 -0.22482 4.55709 122 83 55
-0.08885 -0.26332 4.56132 122 83 55
0.00316 -0.27789 4.56090 122 83 55
0.08314 -0.26518 4.56264 122 83 55
0.16134 -0.22628 4.55103 122 83 55
0.22335 -0.16536 4.56477 122 83 55
0.26339 -0.08863 4.56086 122 83 55
0.27485 -0.00477 4.67918 122 83 55
0.26303 0.07987 4.68447 122 83 55
0.22488 0.15810 4.68793 122 83 55
0.16406 0.22057 4.68821 122 83 55
0.08261 0.26218 4.68786 122 83 55
-0.00069 0.27489 4.67330 122 83 55
-0.08146 0.26254 4.67058 122 83 55
-0.16370 0.22083 4.69155 122 83 55
-0.22491 0.15806 4.66816 122 83 55
-0.25969 0.09015 4.67225 122 83 55
-0.27486 0.00433 4.68082 122 83 55
-0.26210 -0.08288 4.67991 122 83 55
-0.22420 -0.15905 4.67440 122 83 55
-0.16441 -0.22031 4.66820 122 83 55
-0.08050 -0.26284 4.67122 122 83 55
0.00247 -0.27488 4.68250 122 83 55
0.08949 -0.25992 4.68954 122 83 55
0.15995 -0.22356 4.66878 122 83 55
0.22319 -0.16047 4.66788 122 83 55
0.25970 -0.09011 4.67870 122 83 55
0.26484 -0.00431 4.81184 122 83 55
0.25141 0.08337 4.81128 122 83 55
0.21457 0.15530 4.79217 122 83 55
0.15767 0.21284 4.79836 122 83 55
0.08379 0.25128 4.79930 122 83 55
0.00360 0.26485 4.79187 122 83 55
-0.08391 0.25123 4.79041 122 83 55
-0.15797 0.21262 4.79246 122 83 55
-0.21177 0.15910 4.79697 122 83 55
-0.25143 0.08332 4.79017 122 83 55
-0.26484 0.00457 4.79625 122 83 55
-0.25042 -0.08632 4.79907 122 83 55
-0.21248 -0.15815 4.79703 122 83 55
-0.15899 -0.21186 4.78909 122 83 55
-0.08117 -0.25213 4.80093 122 83 55
0.00067 -0.26488 4.80455 122 83 55
0.08624 -0.25045 4.80666 122 83 55
0.15652 -0.21369 4.78997 122 83 55
0.21138 -0.15962 4.80636 122 83 55
0.25317 -0.07789 4.80021 122 83 55
0.25256 -0.00120 4.92379 122 83 55
0.24108 0.07531 4.92310 122 83 55
0.20623 0.14581 4.91097 122 83 55
0.14465 0.20704 4.90910 122 83 55
0.07509 0.24115 4.92061 122 83 55
-0.00168 0.25256 4.92849 122 83 55
-0.07477 0.24125 4.92838 122 83 55
-0.15152 0.20207 4.90830 122 83 55
-0.20660 0.14528 4.90990 122 83 55
-0.23868 0.08261 4.93197 122 83 55
-0.25255 -0.00307 4.91392 122 83 55
-0.24115 -0.07507 4.92135 122 83 55
-0.20139 -0.15243 4.91919 122 83 55
-0.14515 -0.20669 4.91661 122 83 55
-0.07982 -0.23962 4.92391 122 83 55
-0.00152 -0.25256 4.93113 122 83 55
0.07757 -0.24036 4.92274 122 83 55
0.14986 -0.20331 4.91446 122 83 55
0.20482 -0.14778 4.90781 122 83 55
0.23923 -0.08100 4.91295 122 83 55
0.24375 -0.00102 5.03126 122 83 55
0.23106 0.07763 5.04357 122 83 55
0.19981 0.13961 5.03312 122 83 55
0.14316 0.19729 5.03803 122 83 55
0.07868 0.23071 5.03958 122 83 55
-0.00426 0.24372 5.04035 122 83 55
-0.07145 0.23305 5.04314 122 83 55
-0.14482 0.19607 5.04726 122 83 55
-0.19506 0.14617 5.03198 122 83 55
-0.23280 0.07225 5.03726 122 83 55
-0.24372 0.00417 5.04754 122 83 55
-0.23215 -0.07431 5.04523 122 83 55
-0.19727 -0.14319 5.04542 122 83 55
-0.14486 -0.19604 5.03576 122 83 55
-0.07193 -0.23290 5.04570 122 83 55
-0.00219 -0.24374 5.03969 122 83 55
0.07126 -0.23311 5.04059 122 83 55
0.13932 -0.20002 5.04960 122 83 55
0.19967 -0.13982 5.03291 122 83 55
0.23291 -0.07188 5.05116 122 83 55
0.24255 -0.00401 5.15573 122 83 55
0.23215 0.07036 5.16845 122 83 55
0.19881 0.13900 5.16435 122 83 55
0.14330 0.19573 5.16800 122 83 55
0.07608 0.23034 5.16828 122 83 55
0.00081 0.24258 5.16680 122 83 55
-0.07482 0.23075 5.15193 122 83 55
-0.14481 0.19462 5.17171 122 83 55
-0.19403 0.14560 5.16433 122 83 55
-0.22957 0.07838 5.15816 122 83 55
-0.24256 -0.00351 5.16887 122 83 55
-0.23057 -0.07539 5.15760 122 83 55
-0.19823 -0.13982 5.16594 122 83 55
-0.14189 -0.19675 5.16966 122 83 55
-0.07520 -0.23063 5.16215 122 83 55
0.00453 -0.24254 5.15065 122 83 55
0.07883 -0.22941 5.16618 122 83 55
0.14370 -0.19544 5.16186 122 83 55
0.19468 -0.14472 5.14775 122 83 55
0.22970 -0.07801 5.16688 122 83 55
0.24957 0.00392 5.27205 122 83 55
0.23753 0.07670 5.26893 122 83 55
0.20413 0.14363 5.28871 122 83 55
0.14821 0.20083 5.26984 122 83 55
0.07634 0.23764 5.28018 122 83 55
0.00034 0.24960 5.28413 122 83 55
-0.07523 0.23799 5.28099 122 83 55
-0.14956 0.19983 5.27252 122 83 55
-0.19977 0.14964 5.28539 122 83 55
-0.23719 0.07773 5.29060 122 83 55
-0.24960 -0.00166 5.27219 122 83 55
-0.23629 -0.08042 5.28458 122 83 55
-0.20212 -0.14645 5.27199 122 83 55
-0.14640 -0.20215 5.28745 122 83 55
-0.08142 -0.23595 5.28798 122 83 55
-0.00165 -0.24960 5.27980 122 83 55
0.08161 -0.23588 5.28795 122 83 55
0.14677 -0.20189 5.28620 122 83 55
0.20447 -0.14315 5.29144 122 83 55
0.23823 -0.07449 5.28395 122 83 55
