ply
format ascii 1.0
comment SIMULATED DEMO - NOT FIELD EVIDENCE
element vertex 900
property float x
property float y
property float z
property uchar red
property uchar green
property uchar blue
end_header
0.26000 0.00026 0.00269 122 83 55
0.24680 0.08178 -0.00466 122 83 55
0.21024 0.15297 -0.00791 122 83 55
0.15416 0.20937 -0.00227 122 83 55
0.07634 0.24854 0.00279 122 83 55
0.00279 0.25999 0.00517 122 83 55
-0.08314 0.24635 0.00825 122 83 55
-0.14913 0.21298 -0.00927 122 83 55
-0.21190 0.15065 -0.01119 122 83 55
-0.24661 0.08235 0.00185 122 83 55
-0.25998 0.00297 -0.00612 122 83 55
-0.24637 -0.08309 -0.00916 122 83 55
-0.21165 -0.15101 0.00647 122 83 55
-0.15580 -0.20815 -0.00440 122 83 55
-0.08127 -0.24697 -0.00514 122 83 55
-0.00479 -0.25996 -0.00408 122 83 55
0.08234 -0.24662 -0.00758 122 83 55
0.15252 -0.21056 0.00210 122 83 55
0.21118 -0.15167 0.00289 122 83 55
0.24835 -0.07695 -0.01138 122 83 55
0.27159 0.00160 0.12947 122 83 55
0.25784 0.08534 0.11216 122 83 55
0.21852 0.16129 0.11778 122 83 55
0.15895 0.22023 0.11929 122 83 55
0.07957 0.25968 0.12834 122 83 55
-0.00384 0.27157 0.12542 122 83 55
-0.08886 0.25665 0.11122 122 83 55
-0.16239 0.21770 0.12802 122 83 55
-0.21986 0.15946 0.11101 122 83 55
-0.25674 0.08858 0.12315 122 83 55
-0.27155 0.00523 0.11716 122 83 55
-0.25700 -0.08784 0.13069 122 83 55
-0.21651 -0.16397 0.12057 122 83 55
-0.15842 -0.22061 0.13006 122 83 55
-0.08745 -0.25713 0.12369 122 83 55
-0.00254 -0.27158 0.11906 122 83 55
0.07995 -0.25956 0.10773 122 83 55
0.15600 -0.22232 0.11526 122 83 55
0.22081 -0.15814 0.11660 122 83 55
0.25943 -0.08038 0.12503 122 83 55
0.27771 0.00382 0.24381 122 83 55
0.26492 0.08340 0.23219 122 83 55
0.22710 0.15989 0.24935 122 83 55
0.15984 0.22713 0.24883 122 83 55
0.08443 0.26459 0.23531 122 83 55
-0.00171 0.27773 0.24768 122 83 55
-0.08165 0.26546 0.23974 122 83 55
-0.16663 0.22220 0.25135 122 83 55
-0.22154 0.16750 0.24007 122 83 55
-0.26342 0.08802 0.23502 122 83 55
-0.27772 0.00345 0.24306 122 83 55
-0.26501 -0.08312 0.23556 122 83 55
-0.22424 -0.16387 0.23498 122 83 55
-0.16203 -0.22558 0.23115 122 83 55
-0.08799 -0.26343 0.25180 122 83 55
0.00251 -0.27773 0.24188 122 83 55
0.08111 -0.26563 0.23522 122 83 55
0.16007 -0.22697 0.23284 122 83 55
0.22343 -0.16498 0.24702 122 83 55
0.26482 -0.08372 0.23273 122 83 55
0.27549 -0.00504 0.36512 122 83 55
0.26124 0.08762 0.35702 122 83 55
0.22596 0.15768 0.35115 122 83 55
0.16410 0.22134 0.36609 122 83 55
0.08278 0.26281 0.35553 122 83 55
-0.00550 0.27548 0.36507 122 83 55
-0.08428 0.26233 0.35741 122 83 55
-0.15849 0.22539 0.35810 122 83 55
-0.22025 0.16556 0.36780 122 83 55
-0.26129 0.08745 0.35130 122 83 55
-0.27552 0.00323 0.36086 122 83 55
-0.26272 -0.08307 0.35977 122 83 55
-0.22350 -0.16114 0.36926 122 83 55
-0.16163 -0.22315 0.37034 122 83 55
-0.08260 -0.26287 0.36587 122 83 55
0.00240 -0.27553 0.34775 122 83 55
0.07991 -0.26370 0.36034 122 83 55
0.15769 -0.22596 0.35374 122 83 55
0.22098 -0.16459 0.37029 122 83 55
0.26186 -0.08572 0.35410 122 83 55
0.26603 -0.00136 0.47818 122 83 55
0.25204 0.08513 0.49054 122 83 55
0.21767 0.15295 0.47609 122 83 55
0.15281 0.21777 0.48520 122 83 55
0.08117 0.25334 0.47688 122 83 55
-0.00506 0.26598 0.47191 122 83 55
-0.07841 0.25421 0.47663 122 83 55
-0.15936 0.21302 0.47967 122 83 55
-0.21263 0.15987 0.48421 122 83 55
-0.25442 0.07772 0.47490 122 83 55
-0.26602 0.00280 0.47041 122 83 55
-0.25437 -0.07788 0.48041 122 83 55
-0.21466 -0.15714 0.48497 122 83 55
-0.15895 -0.21332 0.48521 122 83 55
-0.08569 -0.25185 0.47647 122 83 55
-0.00461 -0.26599 0.47060 122 83 55
0.08283 -0.25281 0.48089 122 83 55
0.15329 -0.21742 0.48404 122 83 55
0.21267 -0.15983 0.47631 122 83 55
0.25261 -0.08342 0.47388 122 83 55
0.25366 0.00344 0.60208 122 83 55
0.24086 0.07965 0.59898 122 83 55
0.20312 0.15198 0.60737 122 83 55
0.14625 0.20729 0.59354 122 83 55
0.07731 0.24162 0.59503 122 83 55
0.00178 0.25368 0.59402 122 83 55
-0.07523 0.24227 0.60806 122 83 55
-0.15001 0.20458 0.59073 122 83 55
-0.20650 0.14736 0.61220 122 83 55
-0.24247 0.07458 0.59854 122 83 55
-0.25369 0.00033 0.58940 122 83 55
-0.23980 -0.08277 0.60181 122 83 55
-0.20690 -0.14680 0.60318 122 83 55
-0.15319 -0.20221 0.60043 122 83 55
-0.07540 -0.24222 0.60819 122 83 55
0.00471 -0.25364 0.59470 122 83 55
0.07719 -0.24166 0.60738 122 83 55
0.14586 -0.20756 0.60325 122 83 55
0.20381 -0.15106 0.59173 122 83 55
0.24273 -0.07376 0.58937 122 83 55
0.24429 0.00308 0.72329 122 83 55
0.23355 0.07171 0.72244 122 83 55
0.19760 0.14367 0.71412 122 83 55
0.14064 0.19977 0.71728 122 83 55
0.07915 0.23114 0.72933 122 83 55
-0.00193 0.24430 0.72061 122 83 55
-0.07836 0.23141 0.72416 122 83 55
-0.14078 0.19967 0.71998 122 83 55
-0.19824 0.14279 0.73120 122 83 55
-0.23308 0.07322 0.73186 122 83 55
-0.24430 0.00248 0.72472 122 83 55
-0.23139 -0.07839 0.71172 122 83 55
-0.19702 -0.14447 0.71092 122 83 55
-0.14583 -0.19601 0.72525 122 83 55
-0.07724 -0.23178 0.72874 122 83 55
-0.00361 -0.24428 0.73116 122 83 55
0.07890 -0.23122 0.72723 122 83 55
0.14055 -0.19983 0.73220 122 83 55
0.19927 -0.14135 0.71681 122 83 55
0.23116 -0.07908 0.73212 122 83 55
0.24231 -0.00163 0.84280 122 83 55
0.23148 0.07164 0.83806 122 83 55
0.19361 0.14571 0.84625 122 83 55
0.13948 0.19815 0.83836 122 83 55
0.07680 0.22982 0.82775 122 83 55
0.00273 0.24230 0.83773 122 83 55
-0.07930 0.22897 0.83679 122 83 55
-0.14458 0.19445 0.83750 122 83 55
-0.19756 0.14031 0.83995 122 83 55
-0.23113 0.07277 0.83024 122 83 55
-0.24227 0.00449 0.83283 122 83 55
-0.23078 -0.07388 0.83894 122 83 55
-0.19737 -0.14057 0.83172 122 83 55
-0.14078 -0.19722 0.82756 122 83 55
-0.07845 -0.22927 0.84219 122 83 55
-0.00211 -0.24231 0.84584 122 83 55
0.07748 -0.22959 0.83321 122 83 55
0.14434 -0.19463 0.85233 122 83 55
0.19677 -0.14142 0.85152 122 83 55
0.23071 -0.07410 0.84125 122 83 55
0.24862 -0.00301 0.96227 122 83 55
0.23579 0.07888 0.94970 122 83 55
0.20306 0.14348 0.96820 122 83 55
0.14688 0.20062 0.96315 122 83 55
0.07295 0.23770 0.96089 122 83 55
0.00137 0.24863 0.96329 122 83 55
-0.07728 0.23632 0.96382 122 83 55
-0.14254 0.20372 0.96872 122 83 55
-0.20308 0.14346 0.95825 122 83 55
-0.23691 0.07547 0.95009 122 83 55
-0.24862 0.00310 0.96925 122 83 55
-0.23785 -0.07244 0.96254 122 83 55
-0.20011 -0.14757 0.96029 122 83 55
-0.14266 -0.20363 0.95957 122 83 55
-0.07368 -0.23747 0.97124 122 83 55
0.00416 -0.24860 0.96391 122 83 55
0.07739 -0.23629 0.96582 122 83 55
0.15004 -0.19826 0.95171 122 83 55
0.20142 -0.14578 0.96060 122 83 55
0.23786 -0.07239 0.96327 122 83 55
0.26027 0.00431 1.08429 122 83 55
0.24661 0.08333 1.07919 122 83 55
0.21341 0.14905 1.08191 122 83 55
0.15202 0.21130 1.06756 122 83 55
0.07822 0.24827 1.07998 122 83 55
0.00370 0.26028 1.08361 122 83 55
-0.07830 0.24825 1.08486 122 83 55
-0.15498 0.20914 1.08482 122 83 55
-0.20788 0.15666 1.06790 122 83 55
-0.24626 0.08434 1.08075 122 83 55
-0.26030 -0.00013 1.07707 122 83 55
-0.24683 -0.08267 1.07267 122 83 55
-0.20784 -0.15672 1.08614 122 83 55
-0.15526 -0.20893 1.08496 122 83 55
-0.08124 -0.24730 1.07857 122 83 55
-0.00088 -0.26030 1.07597 122 83 55
0.08037 -0.24758 1.06983 122 83 55
0.15421 -0.20970 1.07254 122 83 55
0.21219 -0.15077 1.07771 122 83 55
0.24843 -0.07772 1.07854 122 83 55
0.27182 -0.00087 1.20169 122 83 55
0.25718 0.08801 1.20918 122 83 55
0.22149 0.15758 1.18877 122 83 55
0.16030 0.21953 1.19383 122 83 55
0.08074 0.25956 1.18906 122 83 55
-0.00133 0.27182 1.19157 122 83 55
-0.08632 0.25776 1.21106 122 83 55
-0.15583 0.22273 1.19484 122 83 55
-0.21829 0.16198 1.19257 122 83 55
-0.25715 0.08810 1.20292 122 83 55
-0.27182 -0.00196 1.18956 122 83 55
-0.25881 -0.08310 1.20792 122 83 55
-0.22189 -0.15702 1.20636 122 83 55
-0.15980 -0.21990 1.20766 122 83 55
-0.08828 -0.25709 1.20220 122 83 55
-0.00075 -0.27182 1.19571 122 83 55
0.08638 -0.25774 1.18982 122 83 55
0.15541 -0.22302 1.21017 122 83 55
0.22002 -0.15963 1.19864 122 83 55
0.25989 -0.07968 1.20421 122 83 55
0.27778 0.00153 1.32592 122 83 55
0.26318 0.08889 1.32750 122 83 55
0.22405 0.16422 1.31562 122 83 55
0.16633 0.22249 1.32377 122 83 55
0.08380 0.26485 1.33113 122 83 55
-0.00230 0.27778 1.32631 122 83 55
-0.08895 0.26316 1.31891 122 83 55
-0.16174 0.22585 1.31424 122 83 55
-0.22386 0.16448 1.31684 122 83 55
-0.26548 0.08175 1.32368 122 83 55
-0.27779 0.00088 1.32177 122 83 55
-0.26352 -0.08787 1.31919 122 83 55
-0.22281 -0.16589 1.32743 122 83 55
-0.16701 -0.22198 1.32718 122 83 55
-0.09019 -0.26274 1.33000 122 83 55
0.00148 -0.27778 1.31912 122 83 55
0.08121 -0.26565 1.32977 122 83 55
0.16653 -0.22233 1.31380 122 83 55
0.22386 -0.16448 1.31360 122 83 55
0.26418 -0.08588 1.32380 122 83 55
0.27536 0.00365 1.42944 122 83 55
0.26154 0.08620 1.44813 122 83 55
0.22076 0.16462 1.42986 122 83 55
0.16424 0.22105 1.42862 122 83 55
0.08800 0.26094 1.43839 122 83 55
0.00226 0.27537 1.43947 122 83 55
-0.08273 0.26266 1.44818 122 83 55
-0.16510 0.22040 1.43508 122 83 55
-0.21997 0.16567 1.44423 122 83 55
-0.26069 0.08874 1.43809 122 83 55
-0.27538 -0.00052 1.45129 122 83 55
-0.26100 -0.08783 1.43524 122 83 55
-0.22311 -0.16143 1.43104 122 83 55
-0.16576 -0.21991 1.44546 122 83 55
-0.08719 -0.26122 1.43820 122 83 55
0.00249 -0.27537 1.43530 122 83 55
0.08553 -0.26176 1.45178 122 83 55
0.16463 -0.22075 1.43864 122 83 55
0.22181 -0.16320 1.42854 122 83 55
0.26322 -0.08092 1.44325 122 83 55
0.26573 0.00300 1.55225 122 83 55
0.25382 0.07871 1.55867 122 83 55
0.21669 0.15384 1.56859 122 83 55
0.15653 0.21475 1.57052 122 83 55
0.08355 0.25227 1.57157 122 83 55
-0.00218 0.26573 1.56305 122 83 55
-0.07766 0.25414 1.56383 122 83 55
-0.15340 0.21700 1.54777 122 83 55
-0.21801 0.15196 1.56931 122 83 55
-0.25288 0.08168 1.56726 122 83 55
-0.26573 -0.00295 1.56304 122 83 55
-0.25203 -0.08425 1.55467 122 83 55
-0.21788 -0.15215 1.55409 122 83 55
-0.15367 -0.21680 1.55037 122 83 55
-0.08096 -0.25311 1.56896 122 83 55
0.00318 -0.26572 1.56382 122 83 55
0.08612 -0.25140 1.56382 122 83 55
0.15949 -0.21256 1.54968 122 83 55
0.21768 -0.15244 1.55057 122 83 55
0.25172 -0.08519 1.54864 122 83 55
0.25339 0.00283 1.67245 122 83 55
0.24041 0.08010 1.66947 122 83 55
0.20581 0.14784 1.68183 122 83 55
0.14932 0.20473 1.68040 122 83 55
0.07643 0.24160 1.67329 122 83 55
0.00069 0.25340 1.67874 122 83 55
-0.07585 0.24178 1.68210 122 83 55
-0.14909 0.20490 1.68930 122 83 55
-0.20700 0.14616 1.68892 122 83 55
-0.24089 0.07863 1.67311 122 83 55
-0.25340 0.00116 1.68303 122 83 55
-0.24217 -0.07461 1.68954 122 83 55
-0.20650 -0.14687 1.68264 122 83 55
-0.14646 -0.20679 1.67568 122 83 55
-0.08179 -0.23984 1.67204 122 83 55
0.00492 -0.25336 1.66859 122 83 55
0.08101 -0.24011 1.67150 122 83 55
0.14887 -0.20507 1.67702 122 83 55
0.20668 -0.14661 1.68739 122 83 55
0.24215 -0.07466 1.69037 122 83 55
0.24416 -0.00087 1.79084 122 83 55
0.23130 0.07821 1.78921 122 83 55
0.19907 0.14138 1.78979 122 83 55
0.14419 0.19704 1.78760 122 83 55
0.07243 0.23317 1.81047 122 83 55
0.00287 0.24415 1.78893 122 83 55
-0.07097 0.23362 1.81055 122 83 55
-0.14537 0.19618 1.79316 122 83 55
-0.19662 0.14477 1.80238 122 83 55
-0.23134 0.07808 1.79960 122 83 55
-0.24416 -0.00146 1.80134 122 83 55
-0.23082 -0.07963 1.81057 122 83 55
-0.19956 -0.14068 1.80998 122 83 55
-0.13981 -0.20018 1.78765 122 83 55
-0.07813 -0.23133 1.81050 122 83 55
-0.00070 -0.24416 1.79842 122 83 55
0.07833 -0.23126 1.79394 122 83 55
0.14482 -0.19658 1.79774 122 83 55
0.19659 -0.14481 1.81086 122 83 55
0.23332 -0.07196 1.79401 122 83 55
0.24236 -0.00308 1.92959 122 83 55
0.22948 0.07801 1.92714 122 83 55
0.19635 0.14209 1.92920 122 83 55
0.14452 0.19458 1.92593 122 83 55
0.07475 0.23056 1.93086 122 83 55
0.00119 0.24237 1.91416 122 83 55
-0.07363 0.23092 1.92721 122 83 55
-0.14181 0.19656 1.91575 122 83 55
-0.19873 0.13875 1.92582 122 83 55
-0.23026 0.07566 1.91556 122 83 55
-0.24235 0.00365 1.90906 122 83 55
-0.22961 -0.07762 1.91880 122 83 55
-0.19668 -0.14164 1.90875 122 83 55
-0.14624 -0.19328 1.92315 122 83 55
-0.07725 -0.22973 1.93051 122 83 55
0.00070 -0.24237 1.92898 122 83 55
0.07427 -0.23072 1.91876 122 83 55
0.14357 -0.19528 1.91934 122 83 55
0.19436 -0.14480 1.90957 122 83 55
0.23171 -0.07109 1.92259 122 83 55
0.24884 0.00434 2.04503 122 83 55
0.23672 0.07682 2.04680 122 83 55
0.20279 0.14426 2.03874 122 83 55
0.14296 0.20372 2.04134 122 83 55
0.07503 0.23729 2.03357 122 83 55
-0.00098 0.24887 2.04223 122 83 55
-0.07760 0.23647 2.04883 122 83 55
-0.14524 0.20210 2.03929 122 83 55
-0.20129 0.14635 2.04552 122 83 55
-0.23753 0.07429 2.03406 122 83 55
-0.24886 -0.00216 2.04928 122 83 55
-0.23704 -0.07584 2.04396 122 83 55
-0.20180 -0.14565 2.04210 122 83 55
-0.14752 -0.20044 2.02938 122 83 55
-0.07828 -0.23624 2.04512 122 83 55
0.00251 -0.24886 2.03144 122 83 55
0.07779 -0.23640 2.04599 122 83 55
0.14800 -0.20009 2.03978 122 83 55
0.20052 -0.14741 2.03045 122 83 55
0.23563 -0.08011 2.04056 122 83 55
0.26057 -0.00429 2.15441 122 83 55
0.24714 0.08270 2.17139 122 83 55
0.21270 0.15058 2.15848 122 83 55
0.15533 0.20925 2.15117 122 83 55
0.08292 0.24706 2.15369 122 83 55
-0.00346 0.26058 2.15383 122 83 55
-0.08143 0.24756 2.16312 122 83 55
-0.15234 0.21144 2.15145 122 83 55
-0.20978 0.15462 2.16037 122 83 55
-0.24667 0.08409 2.15838 122 83 55
-0.26060 -0.00089 2.15722 122 83 55
-0.24801 -0.08005 2.16927 122 83 55
-0.21200 -0.15157 2.16397 122 83 55
-0.15606 -0.20871 2.15509 122 83 55
-0.07734 -0.24886 2.15724 122 83 55
-0.00415 -0.26057 2.16765 122 83 55
0.07786 -0.24870 2.17119 122 83 55
0.15267 -0.21120 2.15905 122 83 55
0.20892 -0.15578 2.15956 122 83 55
0.24691 -0.08337 2.15424 122 83 55
0.27205 0.00196 2.27680 122 83 55
0.26029 0.07912 2.29059 122 83 55
0.21827 0.16239 2.26838 122 83 55
0.15640 0.22260 2.27992 122 83 55
0.08246 0.25926 2.28600 122 83 55
-0.00175 0.27205 2.27473 122 83 55
-0.08035 0.25992 2.27512 122 83 55
-0.15911 0.22067 2.27639 122 83 55
-0.22158 0.15785 2.28836 122 83 55
-0.26000 0.08006 2.27950 122 83 55
-0.27203 -0.00368 2.28938 122 83 55
-0.25747 -0.08788 2.28285 122 83 55
-0.21981 -0.16031 2.28339 122 83 55
-0.15658 -0.22248 2.26847 122 83 55
-0.08556 -0.25825 2.27152 122 83 55
0.00303 -0.27204 2.28683 122 83 55
0.08479 -0.25850 2.28256 122 83 55
0.15670 -0.22239 2.29225 122 83 55
0.21874 -0.16176 2.29179 122 83 55
0.25828 -0.08547 2.27890 122 83 55
0.27782 -0.00292 2.38801 122 83 55
0.26247 0.09111 2.39408 122 83 55
0.22246 0.16644 2.39095 122 83 55
0.16126 0.22624 2.39662 122 83 55
0.08752 0.26369 2.39767 122 83 55
-0.00463 0.27779 2.40454 122 83 55
-0.08791 0.26356 2.39255 122 83 55
-0.16601 0.22278 2.40745 122 83 55
-0.22657 0.16080 2.41211 122 83 55
-0.26456 0.08484 2.40020 122 83 55
-0.27779 0.00496 2.39171 122 83 55
-0.26544 -0.08206 2.40576 122 83 55
-0.22432 -0.16392 2.39281 122 83 55
-0.15949 -0.22749 2.40146 122 83 55
-0.08922 -0.26312 2.39547 122 83 55
-0.00007 -0.27783 2.39890 122 83 55
0.08302 -0.26514 2.39710 122 83 55
0.16510 -0.22346 2.40936 122 83 55
0.22224 -0.16673 2.38976 122 83 55
0.26321 -0.08895 2.40731 122 83 55
0.27522 -0.00064 2.51456 122 83 55
0.26269 0.08212 2.53150 122 83 55
0.22101 0.16402 2.50783 122 83 55
0.16226 0.22231 2.52872 122 83 55
0.09024 0.26001 2.53011 122 83 55
-0.00133 0.27522 2.52203 122 83 55
-0.08219 0.26266 2.52534 122 83 55
-0.15918 0.22452 2.51640 122 83 55
-0.22035 0.16491 2.51352 122 83 55
-0.26025 0.08954 2.51066 122 83 55
-0.27522 -0.00122 2.53193 122 83 55
-0.26282 -0.08169 2.52148 122 83 55
-0.22502 -0.15848 2.51059 122 83 55
-0.15944 -0.22434 2.52073 122 83 55
-0.08061 -0.26315 2.52946 122 83 55
-0.00156 -0.27522 2.52432 122 83 55
0.08154 -0.26287 2.51084 122 83 55
0.16373 -0.22123 2.52645 122 83 55
0.22237 -0.16218 2.53167 122 83 55
0.26190 -0.08460 2.52995 122 83 55
0.26545 0.00131 2.64180 122 83 55
0.25271 0.08127 2.64904 122 83 55
0.21538 0.15517 2.64053 122 83 55
0.15524 0.21533 2.62759 122 83 55
0.08103 0.25279 2.63982 122 83 55
0.00284 0.26544 2.64203 122 83 55
-0.08511 0.25144 2.64908 122 83 55
-0.15619 0.21464 2.63917 122 83 55
-0.21632 0.15386 2.64745 122 83 55
-0.25289 0.08069 2.64066 122 83 55
-0.26543 -0.00351 2.64587 122 83 55
-0.25282 -0.08094 2.63201 122 83 55
-0.21492 -0.15580 2.63744 122 83 55
-0.15781 -0.21345 2.65022 122 83 55
-0.08389 -0.25185 2.64592 122 83 55
-0.00485 -0.26541 2.64547 122 83 55
0.08073 -0.25288 2.63821 122 83 55
0.15973 -0.21202 2.64854 122 83 55
0.21582 -0.15455 2.64829 122 83 55
0.25278 -0.08104 2.63173 122 83 55
0.25308 -0.00452 2.76096 122 83 55
0.24221 0.07353 2.75256 122 83 55
0.20728 0.14528 2.77021 122 83 55
0.14621 0.20662 2.76057 122 83 55
0.08075 0.23990 2.75329 122 83 55
0.00285 0.25311 2.74886 122 83 55
-0.08282 0.23919 2.75769 122 83 55
-0.14648 0.20643 2.76328 122 83 55
-0.20272 0.15158 2.75444 122 83 55
-0.24155 0.07565 2.76340 122 83 55
-0.25308 -0.00438 2.74781 122 83 55
-0.24196 -0.07435 2.76561 122 83 55
-0.20593 -0.14719 2.75202 122 83 55
-0.14853 -0.20496 2.77015 122 83 55
-0.07610 -0.24141 2.75753 122 83 55
-0.00257 -0.25311 2.75970 122 83 55
0.07787 -0.24085 2.76535 122 83 55
0.15261 -0.20194 2.76395 122 83 55
0.20657 -0.14629 2.74900 122 83 55
0.24093 -0.07761 2.76525 122 83 55
0.24399 -0.00429 2.88037 122 83 55
0.23092 0.07890 2.87231 122 83 55
0.19977 0.14014 2.87151 122 83 55
0.14375 0.19719 2.87954 122 83 55
0.07231 0.23306 2.88607 122 83 55
-0.00415 0.24399 2.88134 122 83 55
-0.07986 0.23059 2.87999 122 83 55
-0.13998 0.19988 2.89170 122 83 55
-0.19920 0.14095 2.88755 122 83 55
-0.23068 0.07960 2.87572 122 83 55
-0.24401 -0.00295 2.88004 122 83 55
-0.23281 -0.07311 2.88593 122 83 55
-0.19678 -0.14431 2.87053 122 83 55
-0.14256 -0.19805 2.86770 122 83 55
-0.07583 -0.23194 2.87453 122 83 55
-0.00021 -0.24402 2.88382 122 83 55
0.07098 -0.23347 2.86756 122 83 55
0.14278 -0.19789 2.89025 122 83 55
0.19711 -0.14386 2.88683 122 83 55
0.23188 -0.07603 2.87570 122 83 55
0.24240 0.00434 3.00069 122 83 55
0.23056 0.07497 3.00418 122 83 55
0.19776 0.14024 3.01047 122 83 55
0.14249 0.19614 2.99112 122 83 55
0.07390 0.23090 3.00075 122 83 55
-0.00263 0.24242 2.99438 122 83 55
-0.07725 0.22980 3.01048 122 83 55
-0.13887 0.19872 3.00834 122 83 55
-0.19387 0.14557 3.00318 122 83 55
-0.23026 0.07586 3.00507 122 83 55
-0.24244 -0.00067 3.00127 122 83 55
-0.23067 -0.07462 3.00289 122 83 55
-0.19751 -0.14059 2.99540 122 83 55
-0.14559 -0.19385 2.98920 122 83 55
-0.07091 -0.23184 3.00102 122 83 55
-0.00329 -0.24242 3.01019 122 83 55
0.07746 -0.22973 2.99080 122 83 55
0.14011 -0.19785 2.99681 122 83 55
0.19591 -0.14282 2.98765 122 83 55
0.22955 -0.07799 3.00224 122 83 55
0.24910 0.00238 3.12924 122 83 55
0.23710 0.07643 3.12753 122 83 55
0.19866 0.15030 3.13144 122 83 55
0.14454 0.20289 3.12838 122 83 55
0.07806 0.23657 3.12913 122 83 55
-0.00245 0.24910 3.12209 122 83 55
-0.07951 0.23608 3.12907 122 83 55
-0.14759 0.20069 3.12012 122 83 55
-0.19988 0.14868 3.11606 122 83 55
-0.23738 0.07555 3.11793 122 83 55
-0.24906 0.00498 3.11434 122 83 55
-0.23732 -0.07574 3.10997 122 83 55
-0.20202 -0.14576 3.12805 122 83 55
-0.14530 -0.20235 3.11888 122 83 55
-0.07576 -0.23731 3.12035 122 83 55
-0.00472 -0.24907 3.11444 122 83 55
0.07766 -0.23670 3.12225 122 83 55
0.14442 -0.20298 3.12882 122 83 55
0.20146 -0.14653 3.11838 122 83 55
0.23585 -0.08020 3.13100 122 83 55
0.26090 0.00227 3.23333 122 83 55
0.24962 0.07590 3.24953 122 83 55
0.20955 0.15544 3.23319 122 83 55
0.15484 0.20999 3.24913 122 83 55
0.07871 0.24875 3.23335 122 83 55
0.00281 0.26089 3.24249 122 83 55
-0.08237 0.24756 3.23495 122 83 55
-0.15326 0.21115 3.25051 122 83 55
-0.21294 0.15076 3.24321 122 83 55
-0.24791 0.08132 3.22981 122 83 55
-0.26090 -0.00217 3.23275 122 83 55
-0.24894 -0.07812 3.24815 122 83 55
-0.20917 -0.15596 3.24566 122 83 55
-0.15040 -0.21320 3.23419 122 83 55
-0.07733 -0.24919 3.24465 122 83 55
0.00364 -0.26088 3.23967 122 83 55
0.07759 -0.24910 3.24990 122 83 55
0.15385 -0.21072 3.23297 122 83 55
0.20976 -0.15516 3.24425 122 83 55
0.24656 -0.08533 3.24960 122 83 55
0.27226 0.00320 3.35773 122 83 55
0.25907 0.08376 3.35119 122 83 55
0.21983 0.16064 3.35890 122 83 55
0.15871 0.22124 3.36079 122 83 55
0.08209 0.25960 3.35622 122 83 55
0.00418 0.27224 3.36880 122 83 55
-0.08685 0.25805 3.36945 122 83 55
-0.15741 0.22216 3.35978 122 83 55
-0.22014 0.16023 3.36200 122 83 55
-0.25838 0.08588 3.36683 122 83 55
-0.27225 0.00367 3.36149 122 83 55
-0.26046 -0.07932 3.37139 122 83 55
-0.21873 -0.16215 3.36709 122 83 55
-0.15900 -0.22103 3.36271 122 83 55
-0.08687 -0.25804 3.35328 122 83 55
-0.00032 -0.27228 3.35722 122 83 55
0.08893 -0.25734 3.36129 122 83 55
0.15939 -0.22075 3.35960 122 83 55
0.22259 -0.15681 3.35013 122 83 55
0.25959 -0.08215 3.35330 122 83 55
0.27786 0.00198 3.48114 122 83 55
0.26528 0.08269 3.48479 122 83 55
0.22193 0.16721 3.47540 122 83 55
0.16364 0.22457 3.47178 122 83 55
0.08125 0.26573 3.48542 122 83 55
0.00277 0.27786 3.49219 122 83 55
-0.08278 0.26525 3.47804 122 83 55
-0.16476 0.22376 3.49167 122 83 55
-0.22219 0.16686 3.48226 122 83 55
-0.26404 0.08656 3.47884 122 83 55
-0.27787 -0.00033 3.49171 122 83 55
-0.26397 -0.08678 3.48868 122 83 55
-0.22167 -0.16756 3.48275 122 83 55
-0.16199 -0.22576 3.49055 122 83 55
-0.08768 -0.26367 3.47047 122 83 55
-0.00389 -0.27784 3.47906 122 83 55
0.08232 -0.26540 3.48117 122 83 55
0.16005 -0.22715 3.49150 122 83 55
0.22445 -0.16381 3.47598 122 83 55
0.26532 -0.08258 3.47759 122 83 55
0.27503 0.00402 3.61174 122 83 55
0.26121 0.08619 3.59799 122 83 55
0.22401 0.15962 3.59132 122 83 55
0.16294 0.22160 3.59452 122 83 55
0.08114 0.26282 3.60696 122 83 55
0.00344 0.27504 3.60123 122 83 55
-0.08162 0.26267 3.61135 122 83 55
-0.16168 0.22253 3.59668 122 83 55
-0.22522 0.15791 3.60750 122 83 55
-0.26024 0.08906 3.60417 122 83 55
-0.27505 0.00218 3.60964 122 83 55
-0.26238 -0.08256 3.60760 122 83 55
-0.22318 -0.16077 3.59867 122 83 55
-0.16315 -0.22145 3.59742 122 83 55
-0.08398 -0.26193 3.60694 122 83 55
-0.00309 -0.27504 3.59669 122 83 55
0.08269 -0.26234 3.59839 122 83 55
0.16503 -0.22005 3.59922 122 83 55
0.22076 -0.16408 3.59125 122 83 55
0.26151 -0.08527 3.60748 122 83 55
0.26517 -0.00070 3.72185 122 83 55
0.25374 0.07701 3.70947 122 83 55
0.21595 0.15387 3.71439 122 83 55
0.15548 0.21480 3.72497 122 83 55
0.08465 0.25129 3.72255 122 83 55
0.00266 0.26515 3.72781 122 83 55
-0.08401 0.25151 3.71525 122 83 55
-0.16003 0.21144 3.73197 122 83 55
-0.21422 0.15628 3.71011 122 83 55
-0.25103 0.08544 3.71080 122 83 55
-0.26515 -0.00280 3.71943 122 83 55
-0.25093 -0.08572 3.72957 122 83 55
-0.21441 -0.15603 3.71947 122 83 55
-0.15191 -0.21734 3.71815 122 83 55
-0.08148 -0.25234 3.71562 122 83 55
-0.00471 -0.26513 3.72161 122 83 55
0.07730 -0.25365 3.73173 122 83 55
0.16009 -0.21139 3.72296 122 83 55
0.21742 -0.15180 3.70843 122 83 55
0.25137 -0.08443 3.71328 122 83 55
0.25284 0.00162 3.84656 122 83 55
0.23902 0.08247 3.83611 122 83 55
0.20726 0.14481 3.84779 122 83 55
0.14481 0.20727 3.84872 122 83 55
0.08081 0.23958 3.83114 122 83 55
-0.00411 0.25281 3.84465 122 83 55
-0.07721 0.24077 3.83498 122 83 55
-0.14587 0.20653 3.83772 122 83 55
-0.20307 0.15064 3.84570 122 83 55
-0.23956 0.08088 3.83928 122 83 55
-0.25283 0.00245 3.83015 122 83 55
-0.23934 -0.08152 3.84647 122 83 55
-0.20306 -0.15066 3.84556 122 83 55
-0.15122 -0.20264 3.83084 122 83 55
-0.07789 -0.24055 3.83645 122 83 55
-0.00137 -0.25284 3.85238 122 83 55
0.07611 -0.24112 3.83481 122 83 55
0.14912 -0.20419 3.83098 122 83 55
0.20382 -0.14962 3.83567 122 83 55
0.24059 -0.07775 3.83794 122 83 55
0.24389 -0.00062 3.97151 122 83 55
0.23083 0.07872 3.97176 122 83 55
0.19986 0.13977 3.95052 122 83 55
0.14194 0.19832 3.94868 122 83 55
0.07559 0.23188 3.94944 122 83 55
0.00033 0.24389 3.96440 122 83 55
-0.07981 0.23046 3.95842 122 83 55
-0.14191 0.19835 3.96516 122 83 55
-0.19704 0.14372 3.95642 122 83 55
-0.23212 0.07483 3.97203 122 83 55
-0.24388 0.00236 3.95681 122 83 55
-0.23097 -0.07833 3.96404 122 83 55
-0.19713 -0.14360 3.95926 122 83 55
-0.14042 -0.19941 3.97159 122 83 55
-0.07651 -0.23157 3.95516 122 83 55
0.00268 -0.24387 3.96821 122 83 55
0.07677 -0.23149 3.96514 122 83 55
0.14131 -0.19878 3.95467 122 83 55
0.19623 -0.14483 3.96837 122 83 55
0.23105 -0.07809 3.96096 122 83 55
0.24251 0.00013 4.08470 122 83 55
0.22913 0.07942 4.06756 122 83 55
0.19384 0.14573 4.08689 122 83 55
0.14171 0.19679 4.08926 122 83 55
0.07152 0.23172 4.07155 122 83 55
0.00412 0.24247 4.09021 122 83 55
-0.07557 0.23043 4.07329 122 83 55
-0.14460 0.19468 4.08105 122 83 55
-0.19403 0.14548 4.08847 122 83 55
-0.22949 0.07837 4.07936 122 83 55
-0.24250 0.00223 4.08543 122 83 55
-0.23086 -0.07424 4.07663 122 83 55
-0.19761 -0.14057 4.07508 122 83 55
-0.14475 -0.19457 4.07570 122 83 55
-0.07138 -0.23176 4.07624 122 83 55
0.00238 -0.24250 4.07411 122 83 55
0.07050 -0.23203 4.09213 122 83 55
0.14254 -0.19619 4.07509 122 83 55
0.19797 -0.14007 4.06995 122 83 55
0.23086 -0.07424 4.08889 122 83 55
0.24936 0.00047 4.19231 122 83 55
0.23673 0.07833 4.18882 122 83 55
0.19914 0.15007 4.19004 122 83 55
0.14623 0.20198 4.20221 122 83 55
0.08052 0.23600 4.19266 122 83 55
0.00466 0.24931 4.19300 122 83 55
-0.08054 0.23599 4.18856 122 83 55
-0.15017 0.19906 4.19885 122 83 55
-0.20140 0.14702 4.19851 122 83 55
-0.23840 0.07310 4.19192 122 83 55
-0.24936 -0.00032 4.20222 122 83 55
-0.23717 -0.07701 4.19372 122 83 55
-0.19890 -0.15038 4.20401 122 83 55
-0.14913 -0.19985 4.19556 122 83 55
-0.08135 -0.23571 4.20986 122 83 55
0.00290 -0.24934 4.19768 122 83 55
0.08047 -0.23602 4.19421 122 83 55
0.14321 -0.20413 4.21108 122 83 55
0.20416 -0.14316 4.19159 122 83 55
0.23778 -0.07509 4.19736 122 83 55
0.26117 0.00477 4.32369 122 83 55
0.24764 0.08311 4.32347 122 83 55
0.21095 0.15405 4.31449 122 83 55
0.15341 0.21141 4.32398 122 83 55
0.08298 0.24768 4.32177 122 83 55
0.00087 0.26121 4.31518 122 83 55
-0.07676 0.24968 4.31980 122 83 55
-0.15653 0.20911 4.31134 122 83 55
-0.21249 0.15192 4.32429 122 83 55
-0.24894 0.07910 4.32481 122 83 55
-0.26121 -0.00036 4.31175 122 83 55
-0.24837 -0.08088 4.31779 122 83 55
-0.21427 -0.14940 4.33192 122 83 55
-0.15574 -0.20970 4.31996 122 83 55
-0.08417 -0.24728 4.32289 122 83 55
-0.00512 -0.26116 4.31233 122 83 55
0.07888 -0.24902 4.32006 122 83 55
0.15656 -0.20909 4.30901 122 83 55
0.21018 -0.15510 4.33107 122 83 55
0.24995 -0.07588 4.32470 122 83 55
0.27249 0.00112 4.45033 122 83 55
0.25829 0.08683 4.44208 122 83 55
0.22033 0.16034 4.42787 122 83 55
0.16074 0.22003 4.43458 122 83 55
0.08109 0.26015 4.43351 122 83 55
0.00516 0.27245 4.45097 122 83 55
-0.08715 0.25818 4.43867 122 83 55
-0.16210 0.21904 4.44987 122 83 55
-0.21747 0.16420 4.44421 122 83 55
-0.26031 0.08058 4.42820 122 83 55
-0.27249 0.00166 4.44426 122 83 55
-0.25946 -0.08327 4.44897 122 83 55
-0.22197 -0.15806 4.43692 122 83 55
-0.16063 -0.22012 4.44511 122 83 55
-0.08238 -0.25974 4.42904 122 83 55
0.00472 -0.27245 4.43716 122 83 55
0.08038 -0.26037 4.43880 122 83 55
0.16377 -0.21779 4.43401 122 83 55
0.22227 -0.15763 4.43069 122 83 55
0.25756 -0.08897 4.44205 122 83 55
0.27789 -0.00254 4.56891 122 83 55
0.26321 0.08916 4.55941 122 83 55
0.22231 0.16676 4.56655 122 83 55
0.16717 0.22200 4.54810 122 83 55
0.08273 0.26531 4.55902 122 83 55
-0.00147 0.27790 4.55331 122 83 55
-0.08375 0.26498 4.56142 122 83 55
-0.15941 0.22764 4.57015 122 83 55
-0.22268 0.16626 4.55103 122 83 55
-0.26260 0.09094 4.56452 122 83 55
-0.27789 -0.00298 4.55201 122 83 55
-0.26385 -0.08724 4.56605 122 83 55
-0.22559 -0.16230 4.57094 122 83 55
-0.16037 -0.22696 4.57210 122 83 55
-0.08075 -0.26591 4.56793 122 83 55
0.00199 -0.27790 4.56338 122 83 55
0.08479 -0.26465 4.55432 122 83 55
0.15886 -0.22802 4.56278 122 83 55
0.22475 -0.16345 4.56422 122 83 55
0.26580 -0.08111 4.55018 122 83 55
0.27484 0.00522 4.67342 122 83 55
0.26226 0.08236 4.67257 122 83 55
0.21994 0.16490 4.68047 122 83 55
0.16302 0.22134 4.67976 122 83 55
0.08220 0.26232 4.69083 122 83 55
-0.00045 0.27489 4.69229 122 83 55
-0.08278 0.26213 4.67651 122 83 55
-0.15756 0.22526 4.68958 122 83 55
-0.22374 0.15971 4.68964 122 83 55
-0.26110 0.08598 4.68725 122 83 55
-0.27488 0.00254 4.66963 122 83 55
-0.26120 -0.08569 4.68421 122 83 55
-0.22044 -0.16423 4.68023 122 83 55
-0.16554 -0.21946 4.68099 122 83 55
-0.08133 -0.26259 4.67338 122 83 55
-0.00077 -0.27489 4.68231 122 83 55
0.08064 -0.26280 4.68364 122 83 55
0.16006 -0.22349 4.67801 122 83 55
0.21928 -0.16578 4.68791 122 83 55
0.26243 -0.08184 4.67769 122 83 55
0.26484 -0.00465 4.79137 122 83 55
0.25214 0.08116 4.80070 122 83 55
0.21410 0.15595 4.79195 122 83 55
0.15244 0.21662 4.78946 122 83 55
0.08395 0.25122 4.80193 122 83 55
0.00032 0.26488 4.79015 122 83 55
-0.08568 0.25064 4.81125 122 83 55
-0.15252 0.21656 4.80120 122 83 55
-0.21384 0.15630 4.80879 122 83 55
-0.25303 0.07834 4.79621 122 83 55
-0.26486 -0.00287 4.78863 122 83 55
-0.25258 -0.07976 4.78922 122 83 55
-0.21439 -0.15555 4.79001 122 83 55
-0.15625 -0.21388 4.80645 122 83 55
-0.07911 -0.25279 4.80563 122 83 55
-0.00309 -0.26486 4.78987 122 83 55
0.08118 -0.25213 4.79935 122 83 55
0.15623 -0.21389 4.78931 122 83 55
0.21328 -0.15707 4.80562 122 83 55
0.25188 -0.08194 4.80592 122 83 55
0.25254 -0.00368 4.90898 122 83 55
0.23914 0.08127 4.92623 122 83 55
0.20648 0.14545 4.91861 122 83 55
0.14449 0.20715 4.92702 122 83 55
0.07746 0.24040 4.92876 122 83 55
-0.00245 0.25256 4.90788 122 83 55
-0.07962 0.23969 4.91248 122 83 55
-0.14452 0.20713 4.91414 122 83 55
-0.20333 0.14983 4.92705 122 83 55
-0.23890 0.08195 4.91944 122 83 55
-0.25255 0.00281 4.92090 122 83 55
-0.24006 -0.07849 4.92322 122 83 55
-0.20390 -0.14904 4.92813 122 83 55
-0.15038 -0.20292 4.91494 122 83 55
-0.08137 -0.23910 4.92271 122 83 55
0.00483 -0.25252 4.91772 122 83 55
0.07401 -0.24148 4.91112 122 83 55
0.14640 -0.20581 4.93069 122 83 55
0.20386 -0.14910 4.92293 122 83 55
0.24156 -0.07376 4.92036 122 83 55
0.24374 0.00297 5.03555 122 83 55
0.23171 0.07567 5.03771 122 83 55
0.19721 0.14326 5.03531 122 83 55
0.14085 0.19894 5.02884 122 83 55
0.07409 0.23222 5.04338 122 83 55
-0.00276 0.24374 5.03332 122 83 55
-0.07586 0.23165 5.04140 122 83 55
-0.14708 0.19438 5.04569 122 83 55
-0.19718 0.14330 5.03767 122 83 55
-0.23125 0.07708 5.04669 122 83 55
-0.24371 -0.00476 5.05131 122 83 55
-0.23293 -0.07185 5.04711 122 83 55
-0.19553 -0.14555 5.03781 122 83 55
-0.14393 -0.19672 5.03350 122 83 55
-0.07797 -0.23095 5.04084 122 83 55
-0.00439 -0.24371 5.04093 122 83 55
0.07154 -0.23302 5.03623 122 83 55
0.14318 -0.19727 5.03468 122 83 55
0.19906 -0.14069 5.04038 122 83 55
0.23193 -0.07500 5.03859 122 83 55
0.24257 -0.00275 5.15678 122 83 55
0.22937 0.07896 5.14921 122 83 55
0.19885 0.13894 5.15019 122 83 55
0.13939 0.19854 5.16625 122 83 55
0.07444 0.23088 5.16461 122 83 55
-0.00423 0.24254 5.17091 122 83 55
-0.07439 0.23090 5.15737 122 83 55
-0.14201 0.19667 5.16488 122 83 55
-0.19771 0.14056 5.15262 122 83 55
-0.23214 0.07039 5.16439 122 83 55
-0.24254 0.00426 5.15434 122 83 55
-0.23064 -0.07518 5.15444 122 83 55
-0.19518 -0.14405 5.15447 122 83 55
-0.14413 -0.19512 5.15502 122 83 55
-0.07235 -0.23154 5.15886 122 83 55
0.00292 -0.24256 5.16217 122 83 55
0.07718 -0.22998 5.15917 122 83 55
0.14597 -0.19375 5.15796 122 83 55
0.19338 -0.14645 5.16071 122 83 55
0.23184 -0.07139 5.16488 122 83 55
0.24960 -0.00072 5.27722 122 83 55
0.23636 0.08022 5.27122 122 83 55
0.20093 0.14809 5.26976 122 83 55
0.15011 0.19942 5.27032 122 83 55
0.07901 0.23677 5.28332 122 83 55
-0.00093 0.24960 5.28287 122 83 55
-0.07800 0.23710 5.29081 122 83 55
-0.14914 0.20015 5.28764 122 83 55
-0.20003 0.14929 5.28563 122 83 55
-0.23627 0.08049 5.29224 122 83 55
-0.24956 0.00426 5.27482 122 83 55
-0.23611 -0.08094 5.28689 122 83 55
-0.20082 -0.14823 5.27160 122 83 55
-0.14978 -0.19966 5.27020 122 83 55
-0.07362 -0.23850 5.27180 122 83 55
0.00214 -0.24959 5.27256 122 83 55
0.07346 -0.23855 5.28039 122 83 55
0.14361 -0.20415 5.28350 122 83 55
0.20156 -0.14723 5.28524 122 83 55
0.23880 -0.07263 5.27123 122 83 55
