ply
format ascii 1.0
comment SIMULATED DEMO - NOT FIELD EVIDENCE
element vertex 900
property float x
property float y
property float z
property uchar red
property uchar green
property uchar blue
end_header
0.26000 0.00046 0.00105 122 83 55
0.24632 0.08323 -0.00778 122 83 55
0.20862 0.15517 -0.00228 122 83 55
0.15433 0.20924 -0.00074 122 83 55
0.07572 0.24873 0.01245 122 83 55
0.00287 0.25998 0.01047 122 83 55
-0.07876 0.24778 -0.00689 122 83 55
-0.15079 0.21181 0.00336 122 83 55
-0.20914 0.15446 0.01234 122 83 55
-0.24697 0.08127 -0.00852 122 83 55
-0.25996 0.00451 0.00677 122 83 55
-0.24846 -0.07660 0.00557 122 83 55
-0.21061 -0.15245 0.01125 122 83 55
-0.15316 -0.21010 -0.00432 122 83 55
-0.08401 -0.24605 0.00394 122 83 55
-0.00106 -0.26000 0.01091 122 83 55
0.08128 -0.24697 0.00978 122 83 55
0.15652 -0.20761 -0.00550 122 83 55
0.21209 -0.15039 -0.00945 122 83 55
0.24833 -0.07703 -0.01138 122 83 55
0.27156 -0.00410 0.12653 122 83 55
0.25677 0.08849 0.11902 122 83 55
0.22134 0.15740 0.11064 122 83 55
0.15808 0.22085 0.12147 122 83 55
0.07948 0.25970 0.12742 122 83 55
-0.00518 0.27155 0.12255 122 83 55
-0.08717 0.25723 0.12027 122 83 55
-0.16169 0.21822 0.11920 122 83 55
-0.22263 0.15557 0.13177 122 83 55
-0.25897 0.08183 0.13231 122 83 55
-0.27159 0.00117 0.11310 122 83 55
-0.25917 -0.08122 0.12095 122 83 55
-0.22220 -0.15618 0.11980 122 83 55
-0.16014 -0.21936 0.11523 122 83 55
-0.08645 -0.25747 0.12240 122 83 55
0.00037 -0.27160 0.11183 122 83 55
0.08295 -0.25862 0.11672 122 83 55
0.15989 -0.21954 0.10771 122 83 55
0.21756 -0.16258 0.12475 122 83 55
0.25852 -0.08324 0.12850 122 83 55
0.27774 0.00038 0.22849 122 83 55
0.26434 0.08522 0.23456 122 83 55
0.22291 0.16568 0.24522 122 83 55
0.16601 0.22267 0.22883 122 83 55
0.08424 0.26465 0.22896 122 83 55
-0.00320 0.27772 0.24186 122 83 55
-0.08438 0.26461 0.23914 122 83 55
-0.16142 0.22601 0.25062 122 83 55
-0.22480 0.16311 0.24873 122 83 55
-0.26259 0.09047 0.24404 122 83 55
-0.27770 -0.00431 0.25042 122 83 55
-0.26336 -0.08822 0.23438 122 83 55
-0.22172 -0.16727 0.24047 122 83 55
-0.16563 -0.22294 0.23488 122 83 55
-0.08777 -0.26351 0.24646 122 83 55
-0.00519 -0.27769 0.23519 122 83 55
0.08675 -0.26384 0.24590 122 83 55
0.16027 -0.22683 0.23768 122 83 55
0.22342 -0.16499 0.22960 122 83 55
0.26248 -0.09079 0.24858 122 83 55
0.27549 0.00493 0.36420 122 83 55
0.26094 0.08850 0.36944 122 83 55
0.22497 0.15908 0.35013 122 83 55
0.16501 0.22067 0.35053 122 83 55
0.08177 0.26312 0.37213 122 83 55
0.00266 0.27552 0.36910 122 83 55
-0.08217 0.26300 0.37089 122 83 55
-0.16349 0.22180 0.35151 122 83 55
-0.22592 0.15773 0.37060 122 83 55
-0.26210 0.08498 0.36486 122 83 55
-0.27552 0.00269 0.35838 122 83 55
-0.26158 -0.08659 0.36452 122 83 55
-0.22525 -0.15869 0.35787 122 83 55
-0.16436 -0.22115 0.35557 122 83 55
-0.08397 -0.26243 0.35050 122 83 55
0.00253 -0.27553 0.36231 122 83 55
0.08364 -0.26254 0.35424 122 83 55
0.15846 -0.22542 0.35614 122 83 55
0.22165 -0.16368 0.35078 122 83 55
0.26323 -0.08143 0.34857 122 83 55
0.26603 0.00117 0.47842 122 83 55
0.25393 0.07931 0.48209 122 83 55
0.21459 0.15724 0.47426 122 83 55
0.15566 0.21573 0.46822 122 83 55
0.07960 0.25384 0.47533 122 83 55
0.00497 0.26598 0.47304 122 83 55
-0.08586 0.25179 0.46982 122 83 55
-0.15545 0.21589 0.48176 122 83 55
-0.21708 0.15377 0.47053 122 83 55
-0.25265 0.08330 0.48042 122 83 55
-0.26602 -0.00230 0.46919 122 83 55
-0.25223 -0.08457 0.47867 122 83 55
-0.21549 -0.15600 0.47627 122 83 55
-0.15923 -0.21311 0.46911 122 83 55
-0.08184 -0.25313 0.48745 122 83 55
0.00403 -0.26600 0.47987 122 83 55
0.07759 -0.25446 0.47393 122 83 55
0.15893 -0.21334 0.48320 122 83 55
0.21352 -0.15868 0.47509 122 83 55
0.25341 -0.08097 0.47930 122 83 55
0.25368 0.00183 0.59825 122 83 55
0.24080 0.07984 0.60080 122 83 55
0.20618 0.14780 0.59668 122 83 55
0.14691 0.20682 0.59944 122 83 55
0.07564 0.24215 0.59791 122 83 55
0.00368 0.25366 0.60294 122 83 55
-0.07808 0.24137 0.61106 122 83 55
-0.14856 0.20563 0.61106 122 83 55
-0.20765 0.14574 0.59781 122 83 55
-0.24190 0.07643 0.60648 122 83 55
-0.25364 -0.00500 0.60312 122 83 55
-0.24227 -0.07524 0.59185 122 83 55
-0.20302 -0.15211 0.58787 122 83 55
-0.14836 -0.20578 0.61114 122 83 55
-0.08206 -0.24005 0.59210 122 83 55
0.00418 -0.25365 0.59927 122 83 55
0.07538 -0.24223 0.58838 122 83 55
0.14855 -0.20564 0.61054 122 83 55
0.20361 -0.15132 0.59153 122 83 55
0.24182 -0.07667 0.60736 122 83 55
0.24429 0.00360 0.71691 122 83 55
0.23192 0.07681 0.71733 122 83 55
0.19737 0.14399 0.72065 122 83 55
0.14617 0.19576 0.70766 122 83 55
0.07598 0.23220 0.73183 122 83 55
-0.00137 0.24431 0.72741 122 83 55
-0.07200 0.23346 0.71742 122 83 55
-0.14072 0.19972 0.72418 122 83 55
-0.19705 0.14442 0.72734 122 83 55
-0.23345 0.07203 0.72314 122 83 55
-0.24428 0.00378 0.72815 122 83 55
-0.23229 -0.07571 0.71745 122 83 55
-0.19588 -0.14602 0.73009 122 83 55
-0.14243 -0.19850 0.71567 122 83 55
-0.07649 -0.23203 0.72357 122 83 55
-0.00001 -0.24431 0.72756 122 83 55
0.07465 -0.23263 0.72232 122 83 55
0.14588 -0.19598 0.72633 122 83 55
0.19747 -0.14385 0.71662 122 83 55
0.23160 -0.07777 0.73140 122 83 55
0.24229 0.00378 0.84165 122 83 55
0.23163 0.07116 0.83207 122 83 55
0.19484 0.14407 0.83163 122 83 55
0.14152 0.19670 0.83881 122 83 55
0.07463 0.23054 0.83234 122 83 55
-0.00122 0.24231 0.84993 122 83 55
-0.07842 0.22927 0.85022 122 83 55
-0.14227 0.19616 0.82790 122 83 55
-0.19396 0.14524 0.84816 122 83 55
-0.23125 0.07238 0.83563 122 83 55
-0.24227 0.00465 0.83365 122 83 55
-0.23175 -0.07077 0.84438 122 83 55
-0.19693 -0.14120 0.83183 122 83 55
-0.14505 -0.19411 0.84620 122 83 55
-0.07431 -0.23064 0.84680 122 83 55
0.00413 -0.24228 0.83999 122 83 55
0.07144 -0.23155 0.84599 122 83 55
0.14163 -0.19662 0.84166 122 83 55
0.19804 -0.13964 0.83367 122 83 55
0.23166 -0.07106 0.84994 122 83 55
0.24863 0.00236 0.95574 122 83 55
0.23635 0.07721 0.95077 122 83 55
0.19858 0.14962 0.96946 122 83 55
0.14404 0.20266 0.95946 122 83 55
0.07333 0.23758 0.96277 122 83 55
0.00025 0.24864 0.95086 122 83 55
-0.07810 0.23605 0.96425 122 83 55
-0.14716 0.20041 0.95940 122 83 55
-0.19930 0.14866 0.96603 122 83 55
-0.23507 0.08101 0.96169 122 83 55
-0.24859 -0.00491 0.96814 122 83 55
-0.23679 -0.07583 0.96589 122 83 55
-0.20328 -0.14318 0.94897 122 83 55
-0.14959 -0.19861 0.95338 122 83 55
-0.07216 -0.23794 0.95307 122 83 55
0.00284 -0.24862 0.95404 122 83 55
0.07283 -0.23773 0.96832 122 83 55
0.14212 -0.20402 0.96844 122 83 55
0.20168 -0.14541 0.97114 122 83 55
0.23584 -0.07875 0.95573 122 83 55
0.26029 0.00266 1.06947 122 83 55
0.24711 0.08182 1.08284 122 83 55
0.21312 0.14946 1.08949 122 83 55
0.14923 0.21328 1.07149 122 83 55
0.08510 0.24600 1.07839 122 83 55
0.00044 0.26030 1.08108 122 83 55
-0.08298 0.24672 1.07674 122 83 55
-0.15564 0.20865 1.07135 122 83 55
-0.21334 0.14915 1.07010 122 83 55
-0.24864 0.07704 1.07044 122 83 55
-0.26027 -0.00403 1.09105 122 83 55
-0.24776 -0.07984 1.08485 122 83 55
-0.21251 -0.15032 1.08876 122 83 55
-0.15627 -0.20817 1.08422 122 83 55
-0.08526 -0.24594 1.06969 122 83 55
0.00494 -0.26026 1.08009 122 83 55
0.08181 -0.24711 1.06922 122 83 55
0.15171 -0.21152 1.07402 122 83 55
0.21083 -0.15266 1.07013 122 83 55
0.24656 -0.08346 1.08175 122 83 55
0.27183 0.00044 1.21026 122 83 55
0.25995 0.07947 1.19116 122 83 55
0.21880 0.16130 1.18783 122 83 55
0.16153 0.21863 1.20335 122 83 55
0.08171 0.25925 1.19927 122 83 55
-0.00162 0.27182 1.20709 122 83 55
-0.08533 0.25809 1.20043 122 83 55
-0.16011 0.21967 1.19338 122 83 55
-0.21837 0.16188 1.18859 122 83 55
-0.25904 0.08239 1.19791 122 83 55
-0.27180 0.00348 1.18864 122 83 55
-0.25809 -0.08533 1.19565 122 83 55
-0.22034 -0.15919 1.19835 122 83 55
-0.15641 -0.22232 1.19292 122 83 55
-0.08387 -0.25856 1.20859 122 83 55
-0.00528 -0.27177 1.19859 122 83 55
0.08887 -0.25689 1.19589 122 83 55
0.15774 -0.22138 1.21226 122 83 55
0.21922 -0.16073 1.19080 122 83 55
0.25988 -0.07970 1.19867 122 83 55
0.27778 0.00152 1.32677 122 83 55
0.26375 0.08717 1.31859 122 83 55
0.22385 0.16449 1.31570 122 83 55
0.16600 0.22273 1.32790 122 83 55
0.09008 0.26277 1.32228 122 83 55
0.00398 0.27776 1.30784 122 83 55
-0.09016 0.26275 1.31572 122 83 55
-0.15921 0.22763 1.32033 122 83 55
-0.22233 0.16654 1.30860 122 83 55
-0.26497 0.08341 1.31404 122 83 55
-0.27776 -0.00370 1.32891 122 83 55
-0.26421 -0.08580 1.31764 122 83 55
-0.22699 -0.16013 1.31743 122 83 55
-0.16615 -0.22262 1.32819 122 83 55
-0.08702 -0.26380 1.32915 122 83 55
0.00194 -0.27778 1.31384 122 83 55
0.09097 -0.26247 1.32327 122 83 55
0.15978 -0.22723 1.33118 122 83 55
0.22573 -0.16190 1.30796 122 83 55
0.26579 -0.08074 1.31394 122 83 55
0.27534 -0.00483 1.43215 122 83 55
0.26097 0.08792 1.44083 122 83 55
0.22055 0.16491 1.43274 122 83 55
0.15751 0.22589 1.43178 122 83 55
0.08177 0.26296 1.44709 122 83 55
-0.00094 0.27538 1.44791 122 83 55
-0.08679 0.26135 1.43177 122 83 55
-0.15903 0.22482 1.45183 122 83 55
-0.22266 0.16204 1.43492 122 83 55
-0.26223 0.08409 1.44130 122 83 55
-0.27533 -0.00516 1.43056 122 83 55
-0.26173 -0.08564 1.43015 122 83 55
-0.22515 -0.15857 1.44484 122 83 55
-0.16050 -0.22378 1.44717 122 83 55
-0.08239 -0.26277 1.43997 122 83 55
0.00456 -0.27534 1.43430 122 83 55
0.08085 -0.26325 1.42844 122 83 55
0.16138 -0.22314 1.43224 122 83 55
0.22245 -0.16233 1.44570 122 83 55
0.26061 -0.08898 1.44744 122 83 55
0.26574 0.00138 1.56132 122 83 55
0.25326 0.08050 1.57106 122 83 55
0.21507 0.15609 1.54950 122 83 55
0.15983 0.21230 1.56135 122 83 55
0.07762 0.25415 1.56626 122 83 55
0.00502 0.26570 1.55244 122 83 55
-0.07976 0.25349 1.56182 122 83 55
-0.15592 0.21519 1.55867 122 83 55
-0.21508 0.15608 1.56294 122 83 55
-0.25430 0.07714 1.54985 122 83 55
-0.26574 0.00157 1.57114 122 83 55
-0.25283 -0.08182 1.55905 122 83 55
-0.21360 -0.15810 1.56926 122 83 55
-0.15379 -0.21672 1.55592 122 83 55
-0.08692 -0.25113 1.56472 122 83 55
-0.00393 -0.26571 1.55449 122 83 55
0.08518 -0.25172 1.55422 122 83 55
0.15267 -0.21751 1.55605 122 83 55
0.21264 -0.15939 1.55107 122 83 55
0.25313 -0.08089 1.55864 122 83 55
0.25337 -0.00403 1.69228 122 83 55
0.24042 0.08008 1.69099 122 83 55
0.20652 0.14684 1.68388 122 83 55
0.15058 0.20381 1.67022 122 83 55
0.07687 0.24146 1.66942 122 83 55
0.00429 0.25337 1.68352 122 83 55
-0.07509 0.24202 1.68749 122 83 55
-0.14957 0.20455 1.67553 122 83 55
-0.20224 0.15269 1.69063 122 83 55
-0.23966 0.08233 1.67927 122 83 55
-0.25340 -0.00196 1.68405 122 83 55
-0.24070 -0.07922 1.68991 122 83 55
-0.20415 -0.15012 1.68906 122 83 55
-0.15187 -0.20286 1.67647 122 83 55
-0.07612 -0.24170 1.67210 122 83 55
0.00229 -0.25339 1.68841 122 83 55
0.07439 -0.24224 1.68668 122 83 55
0.14878 -0.20513 1.66983 122 83 55
0.20613 -0.14739 1.68180 122 83 55
0.24216 -0.07465 1.67540 122 83 55
0.24414 -0.00357 1.80651 122 83 55
0.23350 0.07136 1.80854 122 83 55
0.19889 0.14163 1.80671 122 83 55
0.14262 0.19818 1.79332 122 83 55
0.07330 0.23290 1.81143 122 83 55
0.00128 0.24416 1.79318 122 83 55
-0.07465 0.23248 1.81209 122 83 55
-0.14015 0.19994 1.79542 122 83 55
-0.19774 0.14323 1.79454 122 83 55
-0.23366 0.07085 1.81188 122 83 55
-0.24415 -0.00251 1.79482 122 83 55
-0.23146 -0.07774 1.80765 122 83 55
-0.19673 -0.14462 1.79606 122 83 55
-0.14719 -0.19481 1.79038 122 83 55
-0.07803 -0.23136 1.79482 122 83 55
0.00474 -0.24412 1.80458 122 83 55
0.07679 -0.23178 1.79686 122 83 55
0.14193 -0.19868 1.80623 122 83 55
0.19477 -0.14725 1.80812 122 83 55
0.23195 -0.07625 1.79929 122 83 55
0.24234 -0.00438 1.91347 122 83 55
0.23093 0.07360 1.91706 122 83 55
0.19341 0.14608 1.92640 122 83 55
0.14569 0.19370 1.92250 122 83 55
0.07078 0.23181 1.91972 122 83 55
0.00142 0.24237 1.92791 122 83 55
-0.07049 0.23190 1.92813 122 83 55
-0.14241 0.19613 1.91561 122 83 55
-0.19338 0.14611 1.91989 122 83 55
-0.23098 0.07343 1.92254 122 83 55
-0.24237 0.00207 1.92130 122 83 55
-0.23093 -0.07359 1.91286 122 83 55
-0.19360 -0.14583 1.92347 122 83 55
-0.14363 -0.19523 1.90896 122 83 55
-0.07794 -0.22950 1.91268 122 83 55
-0.00228 -0.24236 1.91257 122 83 55
0.07791 -0.22951 1.92142 122 83 55
0.14226 -0.19624 1.92884 122 83 55
0.19865 -0.13887 1.92864 122 83 55
0.22924 -0.07870 1.91243 122 83 55
0.24887 -0.00087 2.03908 122 83 55
0.23780 0.07340 2.03116 122 83 55
0.20045 0.14751 2.03755 122 83 55
0.14846 0.19974 2.03379 122 83 55
0.08026 0.23558 2.04057 122 83 55
0.00114 0.24887 2.03476 122 83 55
-0.07366 0.23772 2.04874 122 83 55
-0.14776 0.20026 2.03515 122 83 55
-0.20324 0.14364 2.03476 122 83 55
-0.23811 0.07238 2.03011 122 83 55
-0.24886 -0.00240 2.03799 122 83 55
-0.23541 -0.08075 2.03956 122 83 55
-0.20145 -0.14614 2.03285 122 83 55
-0.14356 -0.20330 2.04496 122 83 55
-0.07382 -0.23767 2.04965 122 83 55
-0.00007 -0.24887 2.05121 122 83 55
0.07745 -0.23652 2.03247 122 83 55
0.14578 -0.20171 2.04927 122 83 55
0.19899 -0.14947 2.05027 122 83 55
0.23721 -0.07530 2.03597 122 83 55
0.26060 -0.00071 2.15334 122 83 55
0.24641 0.08485 2.14899 122 83 55
0.20812 0.15685 2.15878 122 83 55
0.15229 0.21148 2.16610 122 83 55
0.08311 0.24700 2.14953 122 83 55
0.00376 0.26058 2.16906 122 83 55
-0.07665 0.24908 2.15328 122 83 55
-0.15346 0.21063 2.15392 122 83 55
-0.20774 0.15735 2.14823 122 83 55
-0.24712 0.08274 2.15039 122 83 55
-0.26058 -0.00356 2.15439 122 83 55
-0.24729 -0.08225 2.14965 122 83 55
-0.21340 -0.14959 2.16514 122 83 55
-0.15240 -0.21140 2.16090 122 83 55
-0.08391 -0.24673 2.16009 122 83 55
0.00506 -0.26056 2.15320 122 83 55
0.08469 -0.24646 2.17138 122 83 55
0.15522 -0.20934 2.17070 122 83 55
0.21118 -0.15270 2.15721 122 83 55
0.24855 -0.07835 2.16513 122 83 55
0.27203 -0.00376 2.28698 122 83 55
0.26034 0.07897 2.29124 122 83 55
0.21701 0.16408 2.28445 122 83 55
0.15735 0.22193 2.27657 122 83 55
0.07934 0.26023 2.27591 122 83 55
0.00191 0.27205 2.27859 122 83 55
-0.07988 0.26006 2.27196 122 83 55
-0.16385 0.21718 2.27329 122 83 55
-0.22167 0.15771 2.26773 122 83 55
-0.25740 0.08806 2.27570 122 83 55
-0.27201 -0.00475 2.28245 122 83 55
-0.25771 -0.08716 2.27879 122 83 55
-0.22187 -0.15744 2.28073 122 83 55
-0.15606 -0.22284 2.26886 122 83 55
-0.08124 -0.25964 2.27895 122 83 55
0.00079 -0.27205 2.28643 122 83 55
0.08551 -0.25826 2.27168 122 83 55
0.16389 -0.21715 2.28306 122 83 55
0.21926 -0.16106 2.26902 122 83 55
0.25964 -0.08123 2.28070 122 83 55
0.27783 -0.00010 2.41213 122 83 55
0.26520 0.08283 2.39155 122 83 55
0.22468 0.16343 2.40061 122 83 55
0.16241 0.22542 2.39746 122 83 55
0.08664 0.26398 2.39126 122 83 55
-0.00246 0.27782 2.38937 122 83 55
-0.08983 0.26291 2.40947 122 83 55
-0.16048 0.22680 2.39830 122 83 55
-0.22488 0.16315 2.39533 122 83 55
-0.26371 0.08744 2.40597 122 83 55
-0.27781 0.00363 2.39307 122 83 55
-0.26365 -0.08762 2.40896 122 83 55
-0.22256 -0.16631 2.38862 122 83 55
-0.16284 -0.22510 2.40696 122 83 55
-0.08433 -0.26472 2.41114 122 83 55
-0.00511 -0.27778 2.39678 122 83 55
0.08409 -0.26480 2.39603 122 83 55
0.16673 -0.22224 2.40979 122 83 55
0.22700 -0.16019 2.38772 122 83 55
0.26540 -0.08217 2.41224 122 83 55
0.27518 -0.00506 2.51216 122 83 55
0.26228 0.08341 2.51359 122 83 55
0.22103 0.16399 2.51487 122 83 55
0.16019 0.22380 2.51959 122 83 55
0.08426 0.26201 2.51200 122 83 55
-0.00028 0.27522 2.51806 122 83 55
-0.08161 0.26285 2.50778 122 83 55
-0.16140 0.22293 2.51643 122 83 55
-0.22563 0.15760 2.51314 122 83 55
-0.26201 0.08426 2.53140 122 83 55
-0.27522 0.00017 2.51162 122 83 55
-0.26143 -0.08602 2.51751 122 83 55
-0.22079 -0.16431 2.51462 122 83 55
-0.15755 -0.22566 2.51732 122 83 55
-0.08331 -0.26231 2.50983 122 83 55
0.00415 -0.27519 2.52749 122 83 55
0.08614 -0.26140 2.51223 122 83 55
0.15826 -0.22517 2.53108 122 83 55
0.22366 -0.16039 2.50901 122 83 55
0.26089 -0.08765 2.52774 122 83 55
0.26544 0.00251 2.64047 122 83 55
0.25179 0.08409 2.64464 122 83 55
0.21776 0.15181 2.65041 122 83 55
0.15728 0.21384 2.65232 122 83 55
0.08376 0.25189 2.64102 122 83 55
0.00524 0.26540 2.63585 122 83 55
-0.08609 0.25111 2.64791 122 83 55
-0.15938 0.21229 2.62790 122 83 55
-0.21619 0.15404 2.63283 122 83 55
-0.25349 0.07879 2.64169 122 83 55
-0.26545 0.00121 2.62759 122 83 55
-0.25139 -0.08528 2.62782 122 83 55
-0.21659 -0.15348 2.63367 122 83 55
-0.15735 -0.21379 2.65057 122 83 55
-0.08689 -0.25083 2.64393 122 83 55
-0.00164 -0.26545 2.64015 122 83 55
0.08628 -0.25104 2.63334 122 83 55
0.15886 -0.21268 2.63377 122 83 55
0.21640 -0.15375 2.64747 122 83 55
0.25316 -0.07987 2.64990 122 83 55
0.25311 -0.00202 2.76840 122 83 55
0.24217 0.07367 2.76579 122 83 55
0.20631 0.14665 2.75408 122 83 55
0.14592 0.20683 2.76020 122 83 55
0.07700 0.24113 2.74847 122 83 55
0.00021 0.25312 2.75893 122 83 55
-0.07571 0.24154 2.76582 122 83 55
-0.15098 0.20316 2.75261 122 83 55
-0.20181 0.15279 2.75908 122 83 55
-0.24102 0.07732 2.76181 122 83 55
-0.25312 -0.00092 2.76827 122 83 55
-0.23962 -0.08157 2.76143 122 83 55
-0.20400 -0.14985 2.76612 122 83 55
-0.14835 -0.20510 2.77200 122 83 55
-0.07987 -0.24019 2.75457 122 83 55
0.00357 -0.25310 2.76216 122 83 55
0.07667 -0.24123 2.77181 122 83 55
0.14489 -0.20755 2.76273 122 83 55
0.20278 -0.15150 2.75088 122 83 55
0.24173 -0.07507 2.74892 122 83 55
0.24402 0.00011 2.87222 122 83 55
0.23148 0.07723 2.87364 122 83 55
0.19862 0.14177 2.86846 122 83 55
0.14136 0.19891 2.87601 122 83 55
0.07765 0.23134 2.89144 122 83 55
-0.00084 0.24402 2.89055 122 83 55
-0.07504 0.23220 2.88233 122 83 55
-0.14026 0.19969 2.88850 122 83 55
-0.19991 0.13994 2.89221 122 83 55
-0.23123 0.07798 2.88941 122 83 55
-0.24402 0.00067 2.88649 122 83 55
-0.23343 -0.07111 2.89190 122 83 55
-0.19464 -0.14718 2.88817 122 83 55
-0.14269 -0.19796 2.86919 122 83 55
-0.07378 -0.23260 2.87566 122 83 55
0.00141 -0.24402 2.88585 122 83 55
0.07075 -0.23354 2.88267 122 83 55
0.14677 -0.19495 2.87387 122 83 55
0.19700 -0.14401 2.87860 122 83 55
0.23294 -0.07271 2.88694 122 83 55
0.24243 -0.00213 3.00911 122 83 55
0.23126 0.07277 3.00357 122 83 55
0.19876 0.13883 2.99305 122 83 55
0.13937 0.19837 2.99053 122 83 55
0.07490 0.23058 2.99787 122 83 55
-0.00382 0.24241 2.98959 122 83 55
-0.07609 0.23019 2.99714 122 83 55
-0.14243 0.19619 2.99666 122 83 55
-0.19799 0.13992 2.99481 122 83 55
-0.23063 0.07474 3.00869 122 83 55
-0.24241 0.00394 3.01243 122 83 55
-0.23035 -0.07560 3.00005 122 83 55
-0.19734 -0.14084 3.00631 122 83 55
-0.14390 -0.19512 3.01125 122 83 55
-0.07610 -0.23018 2.99348 122 83 55
0.00293 -0.24242 2.99408 122 83 55
0.07469 -0.23065 2.99587 122 83 55
0.14469 -0.19453 2.98866 122 83 55
0.19356 -0.14598 2.99400 122 83 55
0.23053 -0.07506 2.98894 122 83 55
0.24911 0.00052 3.13229 122 83 55
0.23746 0.07531 3.12966 122 83 55
0.20270 0.14481 3.10956 122 83 55
0.14737 0.20085 3.11876 122 83 55
0.07622 0.23717 3.11444 122 83 55
-0.00299 0.24910 3.11579 122 83 55
-0.07293 0.23820 3.12183 122 83 55
-0.14512 0.20248 3.11282 122 83 55
-0.19945 0.14925 3.12250 122 83 55
-0.23766 0.07466 3.13087 122 83 55
-0.24911 -0.00170 3.11946 122 83 55
-0.23630 -0.07887 3.13087 122 83 55
-0.20258 -0.14497 3.12086 122 83 55
-0.14666 -0.20137 3.10962 122 83 55
-0.07619 -0.23718 3.12040 122 83 55
0.00064 -0.24911 3.11244 122 83 55
0.08077 -0.23565 3.11253 122 83 55
0.15021 -0.19873 3.12522 122 83 55
0.20249 -0.14511 3.12094 122 83 55
0.23795 -0.07373 3.11526 122 83 55
0.26086 -0.00520 3.24515 122 83 55
0.24770 0.08195 3.24104 122 83 55
0.21049 0.15417 3.24616 122 83 55
0.15658 0.20870 3.24275 122 83 55
0.07637 0.24948 3.24350 122 83 55
-0.00266 0.26089 3.25138 122 83 55
-0.08260 0.24749 3.25205 122 83 55
-0.15195 0.21209 3.23552 122 83 55
-0.21030 0.15442 3.24363 122 83 55
-0.24937 0.07673 3.23629 122 83 55
-0.26086 0.00501 3.22911 122 83 55
-0.24880 -0.07855 3.25199 122 83 55
-0.20836 -0.15703 3.22855 122 83 55
-0.15751 -0.20800 3.23043 122 83 55
-0.07810 -0.24894 3.23262 122 83 55
0.00466 -0.26087 3.23803 122 83 55
0.08498 -0.24668 3.24043 122 83 55
0.15271 -0.21155 3.23104 122 83 55
0.21393 -0.14935 3.23935 122 83 55
0.24826 -0.08025 3.23570 122 83 55
0.27227 0.00062 3.36945 122 83 55
0.25854 0.08537 3.36992 122 83 55
0.21923 0.16147 3.35591 122 83 55
0.15993 0.22035 3.35602 122 83 55
0.08650 0.25817 3.36911 122 83 55
-0.00322 0.27226 3.34949 122 83 55
-0.07985 0.26030 3.35364 122 83 55
-0.15802 0.22173 3.36582 122 83 55
-0.22111 0.15889 3.34818 122 83 55
-0.25822 0.08634 3.36794 122 83 55
-0.27227 0.00065 3.35507 122 83 55
-0.25816 -0.08653 3.36366 122 83 55
-0.22143 -0.15844 3.36417 122 83 55
-0.15761 -0.22202 3.35838 122 83 55
-0.08065 -0.26006 3.37196 122 83 55
0.00203 -0.27227 3.36976 122 83 55
0.08458 -0.25881 3.36841 122 83 55
0.15832 -0.22151 3.36715 122 83 55
0.22086 -0.15923 3.36982 122 83 55
0.26056 -0.07901 3.35509 122 83 55
0.27786 0.00251 3.47763 122 83 55
0.26548 0.08204 3.47109 122 83 55
0.22260 0.16632 3.48411 122 83 55
0.16274 0.22523 3.48443 122 83 55
0.08561 0.26435 3.47216 122 83 55
0.00123 0.27787 3.48391 122 83 55
-0.08502 0.26454 3.48791 122 83 55
-0.16045 0.22687 3.47352 122 83 55
-0.22243 0.16654 3.47063 122 83 55
-0.26425 0.08593 3.47667 122 83 55
-0.27784 0.00383 3.48621 122 83 55
-0.26562 -0.08161 3.48532 122 83 55
-0.22170 -0.16751 3.48130 122 83 55
-0.16345 -0.22471 3.48725 122 83 55
-0.08750 -0.26373 3.48673 122 83 55
-0.00011 -0.27787 3.49026 122 83 55
0.08618 -0.26417 3.47991 122 83 55
0.15955 -0.22750 3.46894 122 83 55
0.22573 -0.16204 3.47231 122 83 55
0.26490 -0.08389 3.49058 122 83 55
0.27505 0.00266 3.58912 122 83 55
0.26131 0.08589 3.60303 122 83 55
0.22435 0.15913 3.59987 122 83 55
0.16402 0.22080 3.60877 122 83 55
0.08513 0.26155 3.60947 122 83 55
-0.00104 0.27506 3.60053 122 83 55
-0.08210 0.26252 3.60094 122 83 55
-0.16401 0.22081 3.59003 122 83 55
-0.22251 0.16170 3.60193 122 83 55
-0.26171 0.08464 3.59292 122 83 55
-0.27506 -0.00125 3.60869 122 83 55
-0.26102 -0.08675 3.59379 122 83 55
-0.22219 -0.16214 3.59705 122 83 55
-0.15731 -0.22564 3.61194 122 83 55
-0.08792 -0.26063 3.61166 122 83 55
0.00112 -0.27506 3.59930 122 83 55
0.09007 -0.25990 3.60558 122 83 55
0.16477 -0.22025 3.60850 122 83 55
0.22043 -0.16452 3.60886 122 83 55
0.26255 -0.08200 3.60031 122 83 55
0.26517 0.00017 3.73075 122 83 55
0.25287 0.07982 3.71061 122 83 55
0.21351 0.15725 3.71664 122 83 55
0.15905 0.21217 3.71380 122 83 55
0.08325 0.25176 3.73204 122 83 55
-0.00030 0.26517 3.72035 122 83 55
-0.08609 0.25080 3.72694 122 83 55
-0.15281 0.21671 3.72772 122 83 55
-0.21601 0.15379 3.71555 122 83 55
-0.25193 0.08274 3.72498 122 83 55
-0.26516 -0.00107 3.71722 122 83 55
-0.25143 -0.08425 3.71287 122 83 55
-0.21430 -0.15618 3.72595 122 83 55
-0.15274 -0.21676 3.72205 122 83 55
-0.08203 -0.25216 3.71192 122 83 55
0.00189 -0.26516 3.72381 122 83 55
0.08158 -0.25230 3.71491 122 83 55
0.16010 -0.21138 3.70857 122 83 55
0.21403 -0.15654 3.72046 122 83 55
0.25078 -0.08616 3.71380 122 83 55
0.25284 -0.00094 3.83620 122 83 55
0.24124 0.07572 3.83429 122 83 55
0.20405 0.14931 3.85182 122 83 55
0.14865 0.20453 3.83886 122 83 55
0.08177 0.23926 3.84230 122 83 55
0.00352 0.25282 3.84399 122 83 55
-0.07476 0.24154 3.83070 122 83 55
-0.15221 0.20189 3.85087 122 83 55
-0.20307 0.15064 3.83251 122 83 55
-0.23888 0.08287 3.83390 122 83 55
-0.25282 0.00342 3.84021 122 83 55
-0.23980 -0.08015 3.82970 122 83 55
-0.20367 -0.14983 3.82778 122 83 55
-0.14993 -0.20359 3.84708 122 83 55
-0.07547 -0.24132 3.84115 122 83 55
0.00483 -0.25280 3.82947 122 83 55
0.07334 -0.24197 3.84693 122 83 55
0.14599 -0.20644 3.83295 122 83 55
0.20635 -0.14612 3.84282 122 83 55
0.23965 -0.08061 3.83878 122 83 55
0.24387 0.00292 3.95957 122 83 55
0.23297 0.07214 3.97089 122 83 55
0.19697 0.14382 3.95043 122 83 55
0.14282 0.19769 3.95511 122 83 55
0.07474 0.23215 3.96546 122 83 55
0.00131 0.24388 3.95780 122 83 55
-0.07094 0.23334 3.96406 122 83 55
-0.14441 0.19653 3.94820 122 83 55
-0.19707 0.14367 3.95058 122 83 55
-0.23083 0.07872 3.95982 122 83 55
-0.24388 0.00159 3.95414 122 83 55
-0.23159 -0.07647 3.96252 122 83 55
-0.19938 -0.14046 3.96960 122 83 55
-0.14327 -0.19737 3.95312 122 83 55
-0.07470 -0.23216 3.96359 122 83 55
0.00355 -0.24386 3.95881 122 83 55
0.07958 -0.23054 3.95503 122 83 55
0.14413 -0.19674 3.95363 122 83 55
0.19928 -0.14059 3.96141 122 83 55
0.23159 -0.07646 3.96968 122 83 55
0.24251 -0.00003 4.07789 122 83 55
0.22993 0.07707 4.08601 122 83 55
0.19478 0.14447 4.07291 122 83 55
0.14523 0.19421 4.06926 122 83 55
0.07614 0.23025 4.08494 122 83 55
0.00078 0.24251 4.09152 122 83 55
-0.07064 0.23199 4.08648 122 83 55
-0.14065 0.19755 4.08192 122 83 55
-0.19536 0.14368 4.08749 122 83 55
-0.22950 0.07836 4.07505 122 83 55
-0.24250 -0.00209 4.08689 122 83 55
-0.22975 -0.07763 4.08006 122 83 55
-0.19417 -0.14529 4.07675 122 83 55
-0.13963 -0.19827 4.09118 122 83 55
-0.07618 -0.23023 4.09025 122 83 55
0.00116 -0.24250 4.07095 122 83 55
0.07618 -0.23023 4.09075 122 83 55
0.14328 -0.19565 4.06932 122 83 55
0.19800 -0.14002 4.08037 122 83 55
0.23190 -0.07095 4.07263 122 83 55
0.24932 0.00428 4.20785 122 83 55
0.23741 0.07626 4.20288 122 83 55
0.20385 0.14361 4.19685 122 83 55
0.14568 0.20237 4.20392 122 83 55
0.07424 0.23805 4.19176 122 83 55
-0.00128 0.24935 4.20253 122 83 55
-0.08076 0.23592 4.19966 122 83 55
-0.14585 0.20225 4.18839 122 83 55
-0.20362 0.14393 4.18817 122 83 55
-0.23729 0.07664 4.18851 122 83 55
-0.24934 -0.00287 4.21022 122 83 55
-0.23568 -0.08146 4.19752 122 83 55
-0.20377 -0.14372 4.19791 122 83 55
-0.14939 -0.19965 4.19702 122 83 55
-0.07644 -0.23735 4.20417 122 83 55
0.00072 -0.24935 4.20781 122 83 55
0.07956 -0.23632 4.20171 122 83 55
0.14705 -0.20138 4.20064 122 83 55
0.20011 -0.14877 4.20561 122 83 55
0.23814 -0.07393 4.19701 122 83 55
0.26119 -0.00349 4.31147 122 83 55
0.24904 0.07879 4.31786 122 83 55
0.21079 0.15426 4.30794 122 83 55
0.15724 0.20858 4.32944 122 83 55
0.08277 0.24775 4.32314 122 83 55
0.00094 0.26121 4.31161 122 83 55
-0.07693 0.24962 4.32122 122 83 55
-0.15401 0.21098 4.33029 122 83 55
-0.21309 0.15107 4.32113 122 83 55
-0.24775 0.08277 4.32691 122 83 55
-0.26118 0.00386 4.32119 122 83 55
-0.24796 -0.08213 4.32405 122 83 55
-0.21082 -0.15423 4.30931 122 83 55
-0.15364 -0.21125 4.31756 122 83 55
-0.08344 -0.24753 4.32472 122 83 55
0.00035 -0.26121 4.31197 122 83 55
0.08324 -0.24759 4.31857 122 83 55
0.15066 -0.21338 4.31187 122 83 55
0.20891 -0.15680 4.31693 122 83 55
0.24685 -0.08542 4.31360 122 83 55
0.27248 0.00272 4.44088 122 83 55
0.25931 0.08372 4.44250 122 83 55
0.21920 0.16187 4.42981 122 83 55
0.15586 0.22352 4.44741 122 83 55
0.08020 0.26042 4.44003 122 83 55
-0.00141 0.27249 4.44034 122 83 55
-0.08415 0.25918 4.44745 122 83 55
-0.16157 0.21943 4.45039 122 83 55
-0.21829 0.16310 4.43883 122 83 55
-0.25756 0.08897 4.44240 122 83 55
-0.27249 0.00128 4.43780 122 83 55
-0.25816 -0.08722 4.43682 122 83 55
-0.22093 -0.15951 4.43289 122 83 55
-0.15665 -0.22297 4.43889 122 83 55
-0.08307 -0.25953 4.43597 122 83 55
0.00059 -0.27249 4.44605 122 83 55
0.08699 -0.25824 4.43102 122 83 55
0.16338 -0.21808 4.43421 122 83 55
0.21832 -0.16306 4.42916 122 83 55
0.25846 -0.08632 4.42930 122 83 55
0.27790 -0.00181 4.57216 122 83 55
0.26444 0.08546 4.57213 122 83 55
0.22507 0.16301 4.56811 122 83 55
0.16698 0.22214 4.55063 122 83 55
0.08718 0.26388 4.56882 122 83 55
0.00271 0.27789 4.54995 122 83 55
-0.08344 0.26508 4.55510 122 83 55
-0.15994 0.22727 4.55188 122 83 55
-0.22563 0.16224 4.55215 122 83 55
-0.26571 0.08143 4.57176 122 83 55
-0.27786 0.00501 4.55854 122 83 55
-0.26310 -0.08949 4.55670 122 83 55
-0.22805 -0.15883 4.56858 122 83 55
-0.16743 -0.22180 4.56577 122 83 55
-0.08547 -0.26443 4.55411 122 83 55
0.00541 -0.27785 4.56364 122 83 55
0.08726 -0.26385 4.55294 122 83 55
0.16599 -0.22289 4.56564 122 83 55
0.22592 -0.16183 4.56747 122 83 55
0.26384 -0.08727 4.55334 122 83 55
0.27487 -0.00379 4.67825 122 83 55
0.26183 0.08374 4.68100 122 83 55
0.22049 0.16416 4.66853 122 83 55
0.16155 0.22241 4.68471 122 83 55
0.08629 0.26100 4.68199 122 83 55
0.00179 0.27489 4.68186 122 83 55
-0.08211 0.26234 4.69227 122 83 55
-0.15747 0.22532 4.68025 122 83 55
-0.22027 0.16446 4.66895 122 83 55
-0.26171 0.08412 4.67223 122 83 55
-0.27486 0.00423 4.68612 122 83 55
-0.26306 -0.07977 4.67538 122 83 55
-0.22026 -0.16447 4.69068 122 83 55
-0.16298 -0.22137 4.67776 122 83 55
-0.08420 -0.26168 4.68397 122 83 55
0.00395 -0.27486 4.68183 122 83 55
0.08516 -0.26137 4.67648 122 83 55
0.16488 -0.21995 4.67237 122 83 55
0.22030 -0.16442 4.68162 122 83 55
0.26096 -0.08642 4.69014 122 83 55
0.26486 -0.00245 4.79090 122 83 55
0.25036 0.08650 4.79406 122 83 55
0.21258 0.15802 4.78890 122 83 55
0.15781 0.21274 4.81117 122 83 55
0.08589 0.25056 4.79293 122 83 55
0.00236 0.26487 4.79968 122 83 55
-0.08232 0.25176 4.80831 122 83 55
-0.15793 0.21265 4.80673 122 83 55
-0.21469 0.15514 4.79659 122 83 55
-0.25197 0.08167 4.80886 122 83 55
-0.26488 0.00039 4.79019 122 83 55
-0.25058 -0.08585 4.80920 122 83 55
-0.21387 -0.15627 4.80823 122 83 55
-0.15676 -0.21351 4.81189 122 83 55
-0.07690 -0.25347 4.78955 122 83 55
0.00076 -0.26488 4.80526 122 83 55
0.08179 -0.25193 4.79029 122 83 55
0.15406 -0.21546 4.79176 122 83 55
0.21200 -0.15880 4.79935 122 83 55
0.25202 -0.08153 4.80868 122 83 55
0.25256 0.00158 4.92670 122 83 55
0.24130 0.07458 4.91020 122 83 55
0.20251 0.15093 4.91041 122 83 55
0.15164 0.20198 4.92219 122 83 55
0.08226 0.23880 4.91475 122 83 55
0.00064 0.25257 4.90786 122 83 55
-0.07767 0.24033 4.92285 122 83 55
-0.15062 0.20274 4.91332 122 83 55
-0.20416 0.14869 4.90864 122 83 55
-0.24096 0.07570 4.91841 122 83 55
-0.25254 0.00390 4.90915 122 83 55
-0.24029 -0.07779 4.92945 122 83 55
-0.20252 -0.15092 4.91445 122 83 55
-0.14764 -0.20492 4.92187 122 83 55
-0.07710 -0.24051 4.92866 122 83 55
0.00395 -0.25254 4.92678 122 83 55
0.08105 -0.23921 4.91184 122 83 55
0.14742 -0.20508 4.91190 122 83 55
0.20248 -0.15098 4.91882 122 83 55
0.23975 -0.07942 4.91348 122 83 55
0.24372 -0.00379 5.05217 122 83 55
0.23053 0.07921 5.05216 122 83 55
0.19714 0.14336 5.03782 122 83 55
0.14170 0.19834 5.03180 122 83 55
0.07547 0.23178 5.03322 122 83 55
0.00449 0.24371 5.04678 122 83 55
-0.07777 0.23102 5.03386 122 83 55
-0.14604 0.19516 5.02932 122 83 55
-0.19738 0.14302 5.05055 122 83 55
-0.23257 0.07299 5.04982 122 83 55
-0.24374 0.00222 5.04101 122 83 55
-0.23245 -0.07338 5.04422 122 83 55
-0.19657 -0.14413 5.05032 122 83 55
-0.14415 -0.19656 5.03889 122 83 55
-0.07686 -0.23132 5.05158 122 83 55
-0.00224 -0.24374 5.02963 122 83 55
0.07151 -0.23303 5.03370 122 83 55
0.14320 -0.19726 5.02772 122 83 55
0.19655 -0.14417 5.04009 122 83 55
0.23296 -0.07172 5.04204 122 83 55
0.24254 0.00425 5.16290 122 83 55
0.23065 0.07515 5.16788 122 83 55
0.19634 0.14247 5.16379 122 83 55
0.13905 0.19877 5.16878 122 83 55
0.07411 0.23098 5.16868 122 83 55
0.00106 0.24258 5.16456 122 83 55
-0.07121 0.23189 5.16471 122 83 55
-0.14373 0.19541 5.16952 122 83 55
-0.19432 0.14520 5.15949 122 83 55
-0.23158 0.07221 5.15630 122 83 55
-0.24256 0.00297 5.14835 122 83 55
-0.23198 -0.07093 5.15691 122 83 55
-0.19366 -0.14608 5.15712 122 83 55
-0.14357 -0.19553 5.15897 122 83 55
-0.07320 -0.23127 5.16382 122 83 55
-0.00027 -0.24258 5.16620 122 83 55
0.07256 -0.23148 5.15896 122 83 55
0.14380 -0.19537 5.14862 122 83 55
0.19423 -0.14533 5.16069 122 83 55
0.23057 -0.07540 5.16399 122 83 55
0.24960 -0.00024 5.27678 122 83 55
0.23630 0.08040 5.28354 122 83 55
0.19997 0.14938 5.27225 122 83 55
0.14405 0.20384 5.27098 122 83 55
0.07544 0.23793 5.27710 122 83 55
0.00084 0.24960 5.29030 122 83 55
-0.07290 0.23872 5.27544 122 83 55
-0.14598 0.20246 5.27387 122 83 55
-0.20026 0.14899 5.27309 122 83 55
-0.23739 0.07712 5.28889 122 83 55
-0.24958 -0.00353 5.27728 122 83 55
-0.23723 -0.07760 5.27620 122 83 55
-0.19969 -0.14974 5.26812 122 83 55
-0.14987 -0.19960 5.28189 122 83 55
-0.07280 -0.23875 5.27793 122 83 55
0.00013 -0.24960 5.28837 122 83 55
0.07475 -0.23814 5.27572 122 83 55
0.14383 -0.20399 5.28274 122 83 55
0.19943 -0.15010 5.28521 122 83 55
0.23786 -0.07564 5.28165 122 83 55
