ply
format ascii 1.0
comment SIMULATED DEMO - NOT FIELD EVIDENCE
element vertex 900
property float x
property float y
property float z
property uchar red
property uchar green
property uchar blue
end_header
0.25997 -0.00371 0.01049 122 83 55
0.24698 0.08124 0.00376 122 83 55
0.21179 0.15082 0.00832 122 83 55
0.15353 0.20983 -0.00706 122 83 55
0.07998 0.24739 -0.00508 122 83 55
-0.00338 0.25998 0.00960 122 83 55
-0.08246 0.24658 -0.00687 122 83 55
-0.15579 0.20816 0.01151 122 83 55
-0.21074 0.15228 -0.00698 122 83 55
-0.24876 0.07561 -0.00354 122 83 55
-0.25999 0.00268 -0.00505 122 83 55
-0.24864 -0.07602 0.00845 122 83 55
-0.20824 -0.15568 0.00005 122 83 55
-0.15251 -0.21057 -0.00613 122 83 55
-0.08082 -0.24712 0.00489 122 83 55
-0.00340 -0.25998 0.00497 122 83 55
0.07855 -0.24785 -0.01194 122 83 55
0.15077 -0.21182 0.00417 122 83 55
0.21283 -0.14934 0.00806 122 83 55
0.24571 -0.08502 0.00391 122 83 55
0.27154 0.00539 0.10756 122 83 55
0.25785 0.08531 0.12806 122 83 55
0.22272 0.15544 0.11102 122 83 55
0.16345 0.21690 0.12230 122 83 55
0.08452 0.25811 0.12825 122 83 55
-0.00218 0.27159 0.11667 122 83 55
-0.08609 0.25759 0.10831 122 83 55
-0.15988 0.21955 0.12548 122 83 55
-0.21742 0.16277 0.11889 122 83 55
-0.25702 0.08778 0.12519 122 83 55
-0.27156 -0.00427 0.11306 122 83 55
-0.25670 -0.08870 0.11278 122 83 55
-0.21884 -0.16085 0.11611 122 83 55
-0.15846 -0.22058 0.11808 122 83 55
-0.08062 -0.25935 0.12664 122 83 55
-0.00491 -0.27155 0.12971 122 83 55
0.08391 -0.25831 0.13241 122 83 55
0.16167 -0.21824 0.12584 122 83 55
0.21759 -0.16254 0.12239 122 83 55
0.25904 -0.08163 0.13182 122 83 55
0.27770 -0.00454 0.22813 122 83 55
0.26328 0.08843 0.22837 122 83 55
0.22147 0.16760 0.24338 122 83 55
0.16202 0.22558 0.25002 122 83 55
0.08930 0.26299 0.24751 122 83 55
0.00347 0.27772 0.23981 122 83 55
-0.08512 0.26437 0.23928 122 83 55
-0.16695 0.22196 0.23252 122 83 55
-0.22325 0.16522 0.24384 122 83 55
-0.26381 0.08684 0.24501 122 83 55
-0.27773 0.00188 0.24225 122 83 55
-0.26509 -0.08287 0.23830 122 83 55
-0.22163 -0.16739 0.24364 122 83 55
-0.16265 -0.22513 0.23757 122 83 55
-0.08538 -0.26429 0.23193 122 83 55
-0.00390 -0.27771 0.23219 122 83 55
0.08889 -0.26313 0.24988 122 83 55
0.16736 -0.22165 0.23442 122 83 55
0.22238 -0.16638 0.23947 122 83 55
0.26555 -0.08138 0.23146 122 83 55
0.27552 -0.00335 0.35935 122 83 55
0.26176 0.08604 0.36693 122 83 55
0.22327 0.16147 0.36560 122 83 55
0.16298 0.22217 0.35399 122 83 55
0.08904 0.26075 0.36900 122 83 55
0.00470 0.27550 0.34864 122 83 55
-0.08769 0.26121 0.36281 122 83 55
-0.16069 0.22383 0.36800 122 83 55
-0.22298 0.16186 0.37141 122 83 55
-0.26344 0.08075 0.36952 122 83 55
-0.27548 -0.00545 0.35658 122 83 55
-0.26292 -0.08244 0.36840 122 83 55
-0.22275 -0.16218 0.36423 122 83 55
-0.16626 -0.21972 0.36681 122 83 55
-0.08807 -0.26108 0.35565 122 83 55
0.00528 -0.27549 0.35458 122 83 55
0.08713 -0.26140 0.34882 122 83 55
0.16205 -0.22285 0.37240 122 83 55
0.22457 -0.15966 0.35134 122 83 55
0.26141 -0.08711 0.35987 122 83 55
0.26601 0.00282 0.46784 122 83 55
0.25139 0.08705 0.48679 122 83 55
0.21640 0.15473 0.48103 122 83 55
0.15762 0.21431 0.48255 122 83 55
0.08257 0.25289 0.48191 122 83 55
-0.00416 0.26600 0.47960 122 83 55
-0.08552 0.25191 0.48054 122 83 55
-0.15616 0.21537 0.46833 122 83 55
-0.21820 0.15219 0.48545 122 83 55
-0.25270 0.08314 0.49168 122 83 55
-0.26601 0.00343 0.47575 122 83 55
-0.25301 -0.08219 0.46954 122 83 55
-0.21629 -0.15489 0.48638 122 83 55
-0.15650 -0.21512 0.48870 122 83 55
-0.08074 -0.25348 0.48811 122 83 55
-0.00309 -0.26601 0.48076 122 83 55
0.08203 -0.25307 0.47510 122 83 55
0.15453 -0.21655 0.49141 122 83 55
0.21355 -0.15864 0.47938 122 83 55
0.25194 -0.08543 0.47604 122 83 55
0.25368 -0.00151 0.60736 122 83 55
0.23992 0.08245 0.60737 122 83 55
0.20345 0.15154 0.61029 122 83 55
0.14578 0.20762 0.59775 122 83 55
0.07790 0.24143 0.60130 122 83 55
0.00030 0.25369 0.58930 122 83 55
-0.08275 0.23981 0.58837 122 83 55
-0.14695 0.20679 0.59691 122 83 55
-0.20812 0.14506 0.59849 122 83 55
-0.24081 0.07980 0.59496 122 83 55
-0.25366 -0.00347 0.60475 122 83 55
-0.24228 -0.07520 0.60010 122 83 55
-0.20660 -0.14722 0.58908 122 83 55
-0.14507 -0.20811 0.59861 122 83 55
-0.07669 -0.24182 0.61009 122 83 55
0.00391 -0.25366 0.60299 122 83 55
0.08226 -0.23998 0.60098 122 83 55
0.15131 -0.20362 0.60403 122 83 55
0.20290 -0.15228 0.60457 122 83 55
0.24017 -0.08170 0.59034 122 83 55
0.24431 -0.00170 0.72808 122 83 55
0.23277 0.07419 0.70910 122 83 55
0.19805 0.14306 0.71689 122 83 55
0.14726 0.19494 0.70764 122 83 55
0.07311 0.23312 0.72263 122 83 55
0.00198 0.24430 0.72194 122 83 55
-0.07581 0.23225 0.72238 122 83 55
-0.14645 0.19555 0.70928 122 83 55
-0.19950 0.14102 0.72658 122 83 55
-0.23355 0.07172 0.72861 122 83 55
-0.24430 -0.00239 0.72516 122 83 55
-0.23206 -0.07640 0.70829 122 83 55
-0.20021 -0.14001 0.71699 122 83 55
-0.14339 -0.19780 0.71240 122 83 55
-0.07611 -0.23215 0.72937 122 83 55
-0.00053 -0.24431 0.72764 122 83 55
0.07180 -0.23352 0.71558 122 83 55
0.14010 -0.20015 0.72462 122 83 55
0.19736 -0.14400 0.72443 122 83 55
0.23326 -0.07264 0.72806 122 83 55
0.24228 0.00399 0.83730 122 83 55
0.22949 0.07780 0.83204 122 83 55
0.19684 0.14131 0.83439 122 83 55
0.14214 0.19625 0.83753 122 83 55
0.07448 0.23059 0.82789 122 83 55
-0.00180 0.24231 0.84080 122 83 55
-0.07491 0.23045 0.83136 122 83 55
-0.14260 0.19591 0.83224 122 83 55
-0.19845 0.13905 0.84065 122 83 55
-0.23079 0.07385 0.84696 122 83 55
-0.24229 -0.00366 0.83797 122 83 55
-0.23029 -0.07540 0.84410 122 83 55
-0.19670 -0.14151 0.85213 122 83 55
-0.14333 -0.19538 0.83857 122 83 55
-0.07213 -0.23133 0.84389 122 83 55
0.00046 -0.24232 0.84491 122 83 55
0.07897 -0.22909 0.84199 122 83 55
0.14436 -0.19462 0.84931 122 83 55
0.19550 -0.14316 0.83643 122 83 55
0.22898 -0.07928 0.83201 122 83 55
0.24864 0.00028 0.96185 122 83 55
0.23550 0.07974 0.96369 122 83 55
0.19836 0.14991 0.97022 122 83 55
0.14256 0.20371 0.96550 122 83 55
0.07322 0.23761 0.96823 122 83 55
-0.00269 0.24862 0.94883 122 83 55
-0.07219 0.23793 0.95091 122 83 55
-0.14900 0.19904 0.95706 122 83 55
-0.20037 0.14721 0.96956 122 83 55
-0.23788 0.07233 0.96279 122 83 55
-0.24862 0.00277 0.95794 122 83 55
-0.23698 -0.07524 0.96032 122 83 55
-0.20088 -0.14652 0.96225 122 83 55
-0.14816 -0.19967 0.96444 122 83 55
-0.07945 -0.23560 0.95643 122 83 55
0.00217 -0.24863 0.96274 122 83 55
0.07761 -0.23621 0.95580 122 83 55
0.14676 -0.20070 0.94994 122 83 55
0.19889 -0.14920 0.94804 122 83 55
0.23560 -0.07946 0.95414 122 83 55
0.26030 -0.00053 1.08701 122 83 55
0.24888 0.07626 1.09077 122 83 55
0.20840 0.15598 1.08598 122 83 55
0.15476 0.20930 1.07175 122 83 55
0.07585 0.24901 1.07321 122 83 55
0.00209 0.26029 1.07325 122 83 55
-0.07960 0.24783 1.07901 122 83 55
-0.15139 0.21175 1.07178 122 83 55
-0.21126 0.15207 1.07960 122 83 55
-0.24854 0.07738 1.08975 122 83 55
-0.26028 -0.00319 1.08456 122 83 55
-0.24720 -0.08154 1.07764 122 83 55
-0.21233 -0.15058 1.07560 122 83 55
-0.15614 -0.20827 1.08136 122 83 55
-0.07680 -0.24872 1.09088 122 83 55
0.00311 -0.26028 1.07963 122 83 55
0.07923 -0.24795 1.08029 122 83 55
0.15668 -0.20787 1.08217 122 83 55
0.21291 -0.14975 1.08825 122 83 55
0.24717 -0.08164 1.08629 122 83 55
0.27181 0.00300 1.19696 122 83 55
0.25799 0.08561 1.19008 122 83 55
0.22287 0.15563 1.20429 122 83 55
0.15793 0.22124 1.20222 122 83 55
0.08674 0.25762 1.21161 122 83 55
0.00276 0.27181 1.18922 122 83 55
-0.08511 0.25816 1.20328 122 83 55
-0.15768 0.22142 1.20753 122 83 55
-0.22076 0.15861 1.20561 122 83 55
-0.25824 0.08487 1.19889 122 83 55
-0.27179 0.00441 1.19956 122 83 55
-0.25954 -0.08081 1.18880 122 83 55
-0.21917 -0.16079 1.20739 122 83 55
-0.16342 -0.21722 1.19907 122 83 55
-0.08889 -0.25688 1.21006 122 83 55
-0.00303 -0.27181 1.19668 122 83 55
0.08008 -0.25976 1.20819 122 83 55
0.15686 -0.22200 1.20754 122 83 55
0.22100 -0.15826 1.19575 122 83 55
0.25964 -0.08048 1.20491 122 83 55
0.27778 0.00243 1.31685 122 83 55
0.26348 0.08800 1.30845 122 83 55
0.22454 0.16354 1.31729 122 83 55
0.16048 0.22675 1.32111 122 83 55
0.08316 0.26505 1.32874 122 83 55
0.00292 0.27777 1.30760 122 83 55
-0.08721 0.26374 1.32969 122 83 55
-0.16772 0.22144 1.32391 122 83 55
-0.22352 0.16493 1.30864 122 83 55
-0.26443 0.08511 1.31416 122 83 55
-0.27778 -0.00178 1.31600 122 83 55
-0.26420 -0.08582 1.32682 122 83 55
-0.22786 -0.15889 1.31278 122 83 55
-0.16060 -0.22666 1.32402 122 83 55
-0.08168 -0.26551 1.31010 122 83 55
-0.00462 -0.27775 1.31856 122 83 55
0.08655 -0.26396 1.32491 122 83 55
0.16470 -0.22369 1.32969 122 83 55
0.22750 -0.15940 1.30859 122 83 55
0.26577 -0.08083 1.32998 122 83 55
0.27536 -0.00339 1.43137 122 83 55
0.26288 0.08203 1.43171 122 83 55
0.22435 0.15969 1.44662 122 83 55
0.15836 0.22530 1.42758 122 83 55
0.08161 0.26301 1.43537 122 83 55
-0.00314 0.27536 1.45174 122 83 55
-0.08637 0.26149 1.43793 122 83 55
-0.16154 0.22302 1.43351 122 83 55
-0.22066 0.16476 1.43516 122 83 55
-0.26127 0.08702 1.44708 122 83 55
-0.27536 0.00326 1.42885 122 83 55
-0.26048 -0.08936 1.44722 122 83 55
-0.22289 -0.16173 1.44138 122 83 55
-0.15820 -0.22541 1.45183 122 83 55
-0.08387 -0.26230 1.44141 122 83 55
-0.00501 -0.27534 1.44362 122 83 55
0.08268 -0.26268 1.43344 122 83 55
0.16429 -0.22101 1.44460 122 83 55
0.22415 -0.15997 1.43047 122 83 55
0.26233 -0.08379 1.44782 122 83 55
0.26573 0.00238 1.55496 122 83 55
0.25291 0.08158 1.56779 122 83 55
0.21687 0.15358 1.55499 122 83 55
0.15226 0.21780 1.56142 122 83 55
0.08697 0.25111 1.54825 122 83 55
0.00171 0.26574 1.54839 122 83 55
-0.07774 0.25412 1.56325 122 83 55
-0.15921 0.21277 1.56537 122 83 55
-0.21426 0.15720 1.55290 122 83 55
-0.25302 0.08126 1.57039 122 83 55
-0.26572 -0.00379 1.56727 122 83 55
-0.25139 -0.08617 1.54942 122 83 55
-0.21803 -0.15194 1.56838 122 83 55
-0.15871 -0.21315 1.54876 122 83 55
-0.08027 -0.25333 1.55614 122 83 55
-0.00501 -0.26570 1.56806 122 83 55
0.08466 -0.25190 1.55578 122 83 55
0.15703 -0.21439 1.55489 122 83 55
0.21262 -0.15941 1.54856 122 83 55
0.25235 -0.08331 1.54813 122 83 55
0.25340 0.00178 1.67850 122 83 55
0.24161 0.07642 1.66877 122 83 55
0.20260 0.15221 1.68432 122 83 55
0.14865 0.20522 1.67287 122 83 55
0.07950 0.24061 1.68209 122 83 55
0.00360 0.25338 1.68257 122 83 55
-0.07700 0.24142 1.67994 122 83 55
-0.15296 0.20203 1.66763 122 83 55
-0.20280 0.15194 1.68814 122 83 55
-0.24135 0.07722 1.68083 122 83 55
-0.25338 -0.00317 1.67328 122 83 55
-0.24249 -0.07358 1.68710 122 83 55
-0.20272 -0.15205 1.67722 122 83 55
-0.14807 -0.20564 1.67230 122 83 55
-0.07736 -0.24131 1.68231 122 83 55
0.00242 -0.25339 1.67910 122 83 55
0.08284 -0.23948 1.68585 122 83 55
0.14876 -0.20515 1.67320 122 83 55
0.20241 -0.15245 1.67786 122 83 55
0.24149 -0.07678 1.67495 122 83 55
0.24415 0.00270 1.79260 122 83 55
0.23259 0.07428 1.79215 122 83 55
0.19862 0.14201 1.79547 122 83 55
0.14470 0.19667 1.80641 122 83 55
0.07938 0.23090 1.79319 122 83 55
-0.00409 0.24413 1.79161 122 83 55
-0.07727 0.23162 1.81132 122 83 55
-0.14399 0.19719 1.79911 122 83 55
-0.19625 0.14527 1.78970 122 83 55
-0.23122 0.07845 1.80089 122 83 55
-0.24415 0.00230 1.80717 122 83 55
-0.23194 -0.07630 1.79268 122 83 55
-0.19789 -0.14303 1.79380 122 83 55
-0.13993 -0.20009 1.80578 122 83 55
-0.07174 -0.23339 1.79942 122 83 55
0.00483 -0.24412 1.81227 122 83 55
0.07179 -0.23337 1.79411 122 83 55
0.14262 -0.19818 1.78960 122 83 55
0.19647 -0.14497 1.80718 122 83 55
0.23245 -0.07471 1.79181 122 83 55
0.24233 0.00454 1.91250 122 83 55
0.22933 0.07845 1.92601 122 83 55
0.19389 0.14544 1.90944 122 83 55
0.14057 0.19745 1.92370 122 83 55
0.07661 0.22995 1.92462 122 83 55
0.00159 0.24237 1.92319 122 83 55
-0.07234 0.23133 1.91633 122 83 55
-0.13922 0.19840 1.91011 122 83 55
-0.19499 0.14396 1.91933 122 83 55
-0.23096 0.07351 1.91974 122 83 55
-0.24237 -0.00156 1.92931 122 83 55
-0.23081 -0.07396 1.91584 122 83 55
-0.19841 -0.13920 1.92229 122 83 55
-0.14148 -0.19679 1.93201 122 83 55
-0.07528 -0.23039 1.91562 122 83 55
0.00358 -0.24235 1.92278 122 83 55
0.07624 -0.23007 1.90859 122 83 55
0.13930 -0.19834 1.92810 122 83 55
0.19818 -0.13953 1.92160 122 83 55
0.23109 -0.07309 1.91084 122 83 55
0.24887 0.00063 2.02945 122 83 55
0.23688 0.07633 2.02836 122 83 55
0.20409 0.14243 2.05024 122 83 55
0.14259 0.20397 2.04053 122 83 55
0.07671 0.23676 2.02794 122 83 55
0.00174 0.24887 2.03248 122 83 55
-0.07772 0.23643 2.02763 122 83 55
-0.14871 0.19956 2.03709 122 83 55
-0.20218 0.14513 2.04383 122 83 55
-0.23777 0.07351 2.04811 122 83 55
-0.24886 0.00234 2.03364 122 83 55
-0.23517 -0.08146 2.05113 122 83 55
-0.20049 -0.14746 2.03245 122 83 55
-0.14245 -0.20408 2.04609 122 83 55
-0.08049 -0.23550 2.04651 122 83 55
0.00146 -0.24887 2.04587 122 83 55
0.07976 -0.23575 2.04762 122 83 55
0.14362 -0.20325 2.04221 122 83 55
0.20237 -0.14487 2.05162 122 83 55
0.23668 -0.07696 2.03597 122 83 55
0.26060 0.00223 2.16366 122 83 55
0.24768 0.08106 2.15552 122 83 55
0.20865 0.15615 2.16423 122 83 55
0.15555 0.20909 2.15283 122 83 55
0.07652 0.24912 2.16147 122 83 55
0.00328 0.26058 2.16828 122 83 55
-0.08270 0.24714 2.16635 122 83 55
-0.15116 0.21229 2.16160 122 83 55
-0.20906 0.15560 2.15363 122 83 55
-0.24865 0.07803 2.16232 122 83 55
-0.26056 0.00484 2.15767 122 83 55
-0.24656 -0.08441 2.15458 122 83 55
-0.21379 -0.14903 2.14861 122 83 55
-0.15282 -0.21110 2.15717 122 83 55
-0.07919 -0.24828 2.17047 122 83 55
0.00091 -0.26060 2.17133 122 83 55
0.07788 -0.24870 2.15402 122 83 55
0.15522 -0.20934 2.14954 122 83 55
0.21144 -0.15234 2.14872 122 83 55
0.24859 -0.07822 2.17025 122 83 55
0.27203 -0.00325 2.26891 122 83 55
0.26027 0.07921 2.27952 122 83 55
0.22165 0.15775 2.29112 122 83 55
0.15879 0.22091 2.27678 122 83 55
0.08626 0.25802 2.29016 122 83 55
-0.00005 0.27205 2.27329 122 83 55
-0.08900 0.25708 2.28331 122 83 55
-0.16263 0.21809 2.28309 122 83 55
-0.21929 0.16102 2.28291 122 83 55
-0.26004 0.07995 2.28733 122 83 55
-0.27203 -0.00342 2.26904 122 83 55
-0.25807 -0.08608 2.27442 122 83 55
-0.22248 -0.15657 2.29008 122 83 55
-0.16317 -0.21769 2.27933 122 83 55
-0.07980 -0.26008 2.28548 122 83 55
0.00014 -0.27205 2.28195 122 83 55
0.07960 -0.26015 2.28091 122 83 55
0.15684 -0.22229 2.28051 122 83 55
0.22176 -0.15759 2.28759 122 83 55
0.25900 -0.08326 2.28718 122 83 55
0.27783 0.00025 2.38861 122 83 55
0.26547 0.08195 2.39461 122 83 55
0.22631 0.16116 2.41146 122 83 55
0.16007 0.22708 2.40294 122 83 55
0.08822 0.26345 2.41202 122 83 55
-0.00445 0.27780 2.39843 122 83 55
-0.08668 0.26396 2.40184 122 83 55
-0.16646 0.22244 2.40595 122 83 55
-0.22235 0.16658 2.40641 122 83 55
-0.26515 0.08298 2.39385 122 83 55
-0.27781 -0.00365 2.40367 122 83 55
-0.26317 -0.08906 2.39591 122 83 55
-0.22641 -0.16102 2.38823 122 83 55
-0.16211 -0.22563 2.41152 122 83 55
-0.08500 -0.26451 2.39265 122 83 55
-0.00342 -0.27781 2.40620 122 83 55
0.08339 -0.26502 2.40405 122 83 55
0.16204 -0.22569 2.39107 122 83 55
0.22250 -0.16639 2.39489 122 83 55
0.26446 -0.08515 2.39107 122 83 55
0.27522 -0.00212 2.51346 122 83 55
0.26158 0.08558 2.51282 122 83 55
0.22107 0.16394 2.52067 122 83 55
0.16017 0.22381 2.51449 122 83 55
0.08276 0.26249 2.51108 122 83 55
-0.00073 0.27522 2.53118 122 83 55
-0.08344 0.26227 2.51221 122 83 55
-0.16556 0.21986 2.51550 122 83 55
-0.22378 0.16022 2.51264 122 83 55
-0.26301 0.08107 2.50951 122 83 55
-0.27522 -0.00007 2.53048 122 83 55
-0.26301 -0.08108 2.52511 122 83 55
-0.22217 -0.16244 2.53007 122 83 55
-0.15960 -0.22422 2.53156 122 83 55
-0.08109 -0.26301 2.53116 122 83 55
0.00055 -0.27522 2.50978 122 83 55
0.08254 -0.26256 2.51075 122 83 55
0.15884 -0.22476 2.51451 122 83 55
0.22321 -0.16102 2.52958 122 83 55
0.26129 -0.08645 2.51653 122 83 55
0.26541 -0.00496 2.64070 122 83 55
0.25334 0.07930 2.64856 122 83 55
0.21532 0.15526 2.62976 122 83 55
0.15786 0.21342 2.64449 122 83 55
0.08208 0.25245 2.63693 122 83 55
-0.00141 0.26545 2.63804 122 83 55
-0.08492 0.25151 2.64250 122 83 55
-0.15691 0.21412 2.64308 122 83 55
-0.21290 0.15856 2.62879 122 83 55
-0.25301 0.08034 2.64414 122 83 55
-0.26545 -0.00108 2.64257 122 83 55
-0.25247 -0.08201 2.63679 122 83 55
-0.21704 -0.15285 2.62846 122 83 55
-0.15673 -0.21425 2.62916 122 83 55
-0.07876 -0.25350 2.63987 122 83 55
0.00198 -0.26545 2.65144 122 83 55
0.08642 -0.25099 2.64039 122 83 55
0.15440 -0.21593 2.65236 122 83 55
0.21735 -0.15239 2.63977 122 83 55
0.25200 -0.08345 2.64202 122 83 55
0.25308 -0.00447 2.75991 122 83 55
0.23925 0.08264 2.76734 122 83 55
0.20701 0.14566 2.76743 122 83 55
0.14924 0.20445 2.77219 122 83 55
0.07710 0.24110 2.76083 122 83 55
0.00160 0.25312 2.77099 122 83 55
-0.07779 0.24087 2.75621 122 83 55
-0.14613 0.20668 2.77020 122 83 55
-0.20248 0.15189 2.77214 122 83 55
-0.24000 0.08043 2.75404 122 83 55
-0.25312 -0.00138 2.75014 122 83 55
-0.23915 -0.08293 2.76146 122 83 55
-0.20182 -0.15277 2.76877 122 83 55
-0.15136 -0.20288 2.75308 122 83 55
-0.07599 -0.24145 2.77046 122 83 55
0.00205 -0.25311 2.75265 122 83 55
0.08219 -0.23941 2.75140 122 83 55
0.14678 -0.20622 2.75425 122 83 55
0.20576 -0.14743 2.77122 122 83 55
0.23924 -0.08267 2.76739 122 83 55
0.24398 0.00462 2.89031 122 83 55
0.23113 0.07827 2.87346 122 83 55
0.19731 0.14358 2.88391 122 83 55
0.14393 0.19706 2.88350 122 83 55
0.07426 0.23245 2.88337 122 83 55
0.00453 0.24398 2.88808 122 83 55
-0.07685 0.23161 2.87623 122 83 55
-0.14111 0.19909 2.87175 122 83 55
-0.19719 0.14374 2.87800 122 83 55
-0.23070 0.07954 2.87037 122 83 55
-0.24402 -0.00145 2.87481 122 83 55
-0.23068 -0.07959 2.88630 122 83 55
-0.19560 -0.14590 2.88224 122 83 55
-0.14543 -0.19595 2.87229 122 83 55
-0.07981 -0.23060 2.87710 122 83 55
-0.00150 -0.24402 2.88151 122 83 55
0.07208 -0.23313 2.88991 122 83 55
0.14684 -0.19490 2.88700 122 83 55
0.19926 -0.14087 2.87730 122 83 55
0.23116 -0.07819 2.88055 122 83 55
0.24243 -0.00241 2.99476 122 83 55
0.23100 0.07357 3.01187 122 83 55
0.19346 0.14612 3.00625 122 83 55
0.13982 0.19806 2.99536 122 83 55
0.07661 0.23001 2.99373 122 83 55
-0.00438 0.24240 2.98804 122 83 55
-0.07428 0.23078 3.01054 122 83 55
-0.14501 0.19429 2.99830 122 83 55
-0.19736 0.14080 3.00429 122 83 55
-0.23196 0.07049 2.99159 122 83 55
-0.24243 0.00232 2.99558 122 83 55
-0.22928 -0.07878 2.99530 122 83 55
-0.19502 -0.14403 2.99579 122 83 55
-0.14318 -0.19564 3.00124 122 83 55
-0.07625 -0.23014 3.00774 122 83 55
-0.00032 -0.24244 3.00065 122 83 55
0.07779 -0.22962 3.00990 122 83 55
0.14006 -0.19789 2.99260 122 83 55
0.19383 -0.14562 3.00559 122 83 55
0.23196 -0.07050 2.98821 122 83 55
0.24910 -0.00272 3.12014 122 83 55
0.23618 0.07923 3.10901 122 83 55
0.19982 0.14876 3.12018 122 83 55
0.14961 0.19918 3.11937 122 83 55
0.07431 0.23777 3.13041 122 83 55
-0.00333 0.24909 3.10894 122 83 55
-0.08063 0.23570 3.12941 122 83 55
-0.14948 0.19928 3.12239 122 83 55
-0.20387 0.14316 3.11262 122 83 55
-0.23774 0.07440 3.11493 122 83 55
-0.24907 0.00444 3.12137 122 83 55
-0.23746 -0.07529 3.12344 122 83 55
-0.20261 -0.14493 3.10843 122 83 55
-0.14370 -0.20349 3.11413 122 83 55
-0.08122 -0.23550 3.12188 122 83 55
-0.00218 -0.24910 3.12913 122 83 55
0.07763 -0.23671 3.11993 122 83 55
0.14318 -0.20385 3.11036 122 83 55
0.20092 -0.14727 3.11100 122 83 55
0.23742 -0.07543 3.11061 122 83 55
0.26090 -0.00135 3.23948 122 83 55
0.24807 0.08083 3.22774 122 83 55
0.20880 0.15644 3.22862 122 83 55
0.14970 0.21369 3.23928 122 83 55
0.07823 0.24890 3.24363 122 83 55
0.00145 0.26090 3.24096 122 83 55
-0.08372 0.24711 3.24410 122 83 55
-0.15689 0.20846 3.24898 122 83 55
-0.21396 0.14931 3.25100 122 83 55
-0.24945 0.07648 3.23195 122 83 55
-0.26090 0.00249 3.24004 122 83 55
-0.24651 -0.08548 3.24982 122 83 55
-0.21158 -0.15267 3.24430 122 83 55
-0.15289 -0.21142 3.24829 122 83 55
-0.07702 -0.24928 3.23503 122 83 55
-0.00048 -0.26091 3.24353 122 83 55
0.07615 -0.24955 3.23142 122 83 55
0.14974 -0.21366 3.23807 122 83 55
0.21184 -0.15231 3.24550 122 83 55
0.24764 -0.08213 3.24039 122 83 55
0.27224 0.00426 3.37052 122 83 55
0.25941 0.08270 3.36136 122 83 55
0.22044 0.15982 3.36160 122 83 55
0.16001 0.22030 3.35271 122 83 55
0.08712 0.25796 3.35925 122 83 55
0.00133 0.27227 3.35319 122 83 55
-0.08545 0.25852 3.36225 122 83 55
-0.16377 0.21752 3.36488 122 83 55
-0.22065 0.15953 3.36298 122 83 55
-0.25877 0.08468 3.36317 122 83 55
-0.27226 -0.00287 3.36909 122 83 55
-0.25895 -0.08414 3.35500 122 83 55
-0.21969 -0.16084 3.35712 122 83 55
-0.15687 -0.22254 3.37163 122 83 55
-0.08900 -0.25732 3.36461 122 83 55
0.00538 -0.27222 3.36801 122 83 55
0.08657 -0.25815 3.35852 122 83 55
0.16251 -0.21846 3.35731 122 83 55
0.22243 -0.15703 3.34932 122 83 55
0.25855 -0.08536 3.36546 122 83 55
0.27787 0.00159 3.47086 122 83 55
0.26427 0.08587 3.49162 122 83 55
0.22482 0.16330 3.48794 122 83 55
0.16347 0.22469 3.47682 122 83 55
0.08618 0.26417 3.46921 122 83 55
-0.00499 0.27783 3.48449 122 83 55
-0.08718 0.26384 3.46973 122 83 55
-0.16695 0.22213 3.47731 122 83 55
-0.22779 0.15914 3.47354 122 83 55
-0.26449 0.08519 3.48176 122 83 55
-0.27787 0.00101 3.48278 122 83 55
-0.26494 -0.08377 3.49233 122 83 55
-0.22573 -0.16204 3.48639 122 83 55
-0.16370 -0.22453 3.48912 122 83 55
-0.08418 -0.26481 3.47744 122 83 55
0.00502 -0.27782 3.47847 122 83 55
0.08157 -0.26563 3.46953 122 83 55
0.16681 -0.22223 3.47266 122 83 55
0.22593 -0.16176 3.46883 122 83 55
0.26474 -0.08439 3.48102 122 83 55
0.27505 -0.00172 3.60975 122 83 55
0.26305 0.08038 3.61088 122 83 55
0.21977 0.16541 3.60330 122 83 55
0.15854 0.22477 3.59313 122 83 55
0.08664 0.26106 3.59861 122 83 55
0.00315 0.27504 3.59844 122 83 55
-0.08543 0.26146 3.58909 122 83 55
-0.15977 0.22390 3.59144 122 83 55
-0.22284 0.16125 3.60138 122 83 55
-0.26004 0.08964 3.60126 122 83 55
-0.27506 -0.00151 3.59095 122 83 55
-0.26097 -0.08691 3.59833 122 83 55
-0.22193 -0.16249 3.58996 122 83 55
-0.16186 -0.22240 3.58835 122 83 55
-0.08591 -0.26130 3.58888 122 83 55
0.00491 -0.27502 3.59575 122 83 55
0.08046 -0.26303 3.58986 122 83 55
0.16265 -0.22181 3.59013 122 83 55
0.21984 -0.16531 3.60090 122 83 55
0.26193 -0.08397 3.59051 122 83 55
0.26513 -0.00414 3.71629 122 83 55
0.25330 0.07844 3.70830 122 83 55
0.21354 0.15721 3.71991 122 83 55
0.15550 0.21479 3.73130 122 83 55
0.07894 0.25315 3.72428 122 83 55
0.00460 0.26513 3.72732 122 83 55
-0.08127 0.25241 3.71458 122 83 55
-0.15263 0.21683 3.72707 122 83 55
-0.21369 0.15701 3.72287 122 83 55
-0.25230 0.08161 3.72741 122 83 55
-0.26517 0.00082 3.71934 122 83 55
-0.25207 -0.08230 3.71717 122 83 55
-0.21616 -0.15358 3.72834 122 83 55
-0.15795 -0.21299 3.72415 122 83 55
-0.08184 -0.25222 3.71340 122 83 55
-0.00014 -0.26517 3.71792 122 83 55
0.08541 -0.25104 3.73157 122 83 55
0.15207 -0.21723 3.70960 122 83 55
0.21418 -0.15633 3.71385 122 83 55
0.25131 -0.08459 3.72077 122 83 55
0.25284 -0.00201 3.82938 122 83 55
0.23948 0.08113 3.84503 122 83 55
0.20362 0.14990 3.83282 122 83 55
0.14527 0.20695 3.84207 122 83 55
0.07475 0.24154 3.84499 122 83 55
-0.00141 0.25284 3.83015 122 83 55
-0.08164 0.23930 3.84870 122 83 55
-0.14547 0.20681 3.84934 122 83 55
-0.20242 0.15151 3.83749 122 83 55
-0.24041 0.07831 3.84899 122 83 55
-0.25284 -0.00021 3.84142 122 83 55
-0.23908 -0.08227 3.83917 122 83 55
-0.20555 -0.14723 3.85044 122 83 55
-0.14500 -0.20714 3.84225 122 83 55
-0.08254 -0.23899 3.84180 122 83 55
-0.00383 -0.25281 3.84160 122 83 55
0.08253 -0.23900 3.84950 122 83 55
0.14813 -0.20491 3.83127 122 83 55
0.20674 -0.14556 3.84494 122 83 55
0.24119 -0.07589 3.85111 122 83 55
0.24388 0.00177 3.94907 122 83 55
0.23128 0.07738 3.96856 122 83 55
0.19813 0.14221 3.96274 122 83 55
0.13955 0.20002 3.95922 122 83 55
0.07264 0.23282 3.95312 122 83 55
-0.00099 0.24388 3.96486 122 83 55
-0.07456 0.23221 3.96537 122 83 55
-0.14279 0.19772 3.96352 122 83 55
-0.19765 0.14289 3.95991 122 83 55
-0.23079 0.07885 3.96779 122 83 55
-0.24384 0.00452 3.96191 122 83 55
-0.23189 -0.07556 3.95344 122 83 55
-0.19806 -0.14231 3.95595 122 83 55
-0.13993 -0.19975 3.96706 122 83 55
-0.07447 -0.23224 3.96998 122 83 55
-0.00110 -0.24388 3.97239 122 83 55
0.07720 -0.23135 3.94890 122 83 55
0.13950 -0.20005 3.95125 122 83 55
0.19992 -0.13969 3.94949 122 83 55
0.23337 -0.07084 3.95662 122 83 55
0.24248 0.00374 4.08957 122 83 55
0.22986 0.07730 4.09109 122 83 55
0.19659 0.14200 4.07541 122 83 55
0.14216 0.19647 4.07558 122 83 55
0.07292 0.23128 4.08300 122 83 55
0.00221 0.24250 4.07441 122 83 55
-0.07472 0.23071 4.07460 122 83 55
-0.14129 0.19710 4.07381 122 83 55
-0.19810 0.13988 4.08858 122 83 55
-0.22937 0.07874 4.06757 122 83 55
-0.24250 0.00194 4.07673 122 83 55
-0.22993 -0.07707 4.08945 122 83 55
-0.19364 -0.14599 4.08424 122 83 55
-0.14561 -0.19393 4.07848 122 83 55
-0.07766 -0.22974 4.07926 122 83 55
0.00081 -0.24251 4.07429 122 83 55
0.07794 -0.22964 4.06969 122 83 55
0.14579 -0.19379 4.07116 122 83 55
0.19773 -0.14041 4.07648 122 83 55
0.23194 -0.07082 4.09037 122 83 55
0.24934 -0.00295 4.20876 122 83 55
0.23753 0.07588 4.20694 122 83 55
0.19961 0.14945 4.20255 122 83 55
0.15006 0.19915 4.20815 122 83 55
0.07828 0.23675 4.21075 122 83 55
-0.00042 0.24936 4.21209 122 83 55
-0.07617 0.23744 4.18875 122 83 55
-0.14823 0.20052 4.20627 122 83 55
-0.20268 0.14526 4.20090 122 83 55
-0.23834 0.07330 4.19714 122 83 55
-0.24932 0.00441 4.20961 122 83 55
-0.23623 -0.07983 4.19784 122 83 55
-0.20041 -0.14837 4.20485 122 83 55
-0.14351 -0.20392 4.20270 122 83 55
-0.07627 -0.23741 4.19326 122 83 55
-0.00153 -0.24935 4.20828 122 83 55
0.07812 -0.23680 4.19724 122 83 55
0.14858 -0.20026 4.19684 122 83 55
0.19956 -0.14951 4.19572 122 83 55
0.23792 -0.07465 4.20476 122 83 55
0.26120 0.00189 4.31434 122 83 55
0.24758 0.08329 4.32406 122 83 55
0.21258 0.15179 4.31437 122 83 55
0.15497 0.21027 4.32719 122 83 55
0.08267 0.24778 4.33069 122 83 55
-0.00115 0.26121 4.33078 122 83 55
-0.08517 0.24694 4.31537 122 83 55
-0.15111 0.21307 4.32078 122 83 55
-0.21067 0.15444 4.32492 122 83 55
-0.24766 0.08305 4.31747 122 83 55
-0.26116 -0.00491 4.32521 122 83 55
-0.24823 -0.08131 4.32011 122 83 55
-0.20981 -0.15559 4.30952 122 83 55
-0.15739 -0.20847 4.31723 122 83 55
-0.07867 -0.24908 4.31132 122 83 55
-0.00475 -0.26117 4.30985 122 83 55
0.07754 -0.24943 4.32472 122 83 55
0.14950 -0.21420 4.32606 122 83 55
0.21002 -0.15531 4.32669 122 83 55
0.24905 -0.07875 4.31195 122 83 55
0.27249 0.00022 4.44644 122 83 55
0.25808 0.08744 4.43458 122 83 55
0.21878 0.16245 4.44364 122 83 55
0.16432 0.21738 4.44951 122 83 55
0.08579 0.25864 4.43331 122 83 55
-0.00038 0.27249 4.43636 122 83 55
-0.08926 0.25746 4.45158 122 83 55
-0.15990 0.22065 4.43705 122 83 55
-0.22111 0.15925 4.43768 122 83 55
-0.25820 0.08710 4.43786 122 83 55
-0.27249 0.00074 4.44382 122 83 55
-0.26028 -0.08066 4.44751 122 83 55
-0.21729 -0.16444 4.43081 122 83 55
-0.16050 -0.22021 4.44482 122 83 55
-0.08236 -0.25975 4.44356 122 83 55
0.00528 -0.27244 4.43068 122 83 55
0.08075 -0.26026 4.44201 122 83 55
0.15920 -0.22116 4.45034 122 83 55
0.22250 -0.15731 4.44379 122 83 55
0.26074 -0.07917 4.43332 122 83 55
0.27788 0.00339 4.56192 122 83 55
0.26265 0.09080 4.54942 122 83 55
0.22385 0.16468 4.56133 122 83 55
0.16745 0.22179 4.57067 122 83 55
0.08697 0.26394 4.55983 122 83 55
-0.00102 0.27790 4.55510 122 83 55
-0.08716 0.26388 4.55498 122 83 55
-0.16683 0.22225 4.54972 122 83 55
-0.22754 0.15954 4.56502 122 83 55
-0.26258 0.09102 4.56620 122 83 55
-0.27790 -0.00215 4.55762 122 83 55
-0.26450 -0.08528 4.56891 122 83 55
-0.22611 -0.16156 4.56224 122 83 55
-0.16284 -0.22520 4.56154 122 83 55
-0.08138 -0.26572 4.57244 122 83 55
-0.00084 -0.27790 4.56938 122 83 55
0.08786 -0.26365 4.55118 122 83 55
0.16490 -0.22370 4.57083 122 83 55
0.22749 -0.15962 4.55825 122 83 55
0.26366 -0.08784 4.56294 122 83 55
0.27489 0.00036 4.67008 122 83 55
0.26046 0.08791 4.67200 122 83 55
0.22533 0.15745 4.67881 122 83 55
0.16059 0.22311 4.68638 122 83 55
0.08491 0.26145 4.68329 122 83 55
0.00054 0.27489 4.69019 122 83 55
-0.08523 0.26135 4.69124 122 83 55
-0.16073 0.22301 4.68253 122 83 55
-0.22035 0.16435 4.68301 122 83 55
-0.26262 0.08121 4.67328 122 83 55
-0.27488 0.00214 4.67348 122 83 55
-0.26224 -0.08242 4.68278 122 83 55
-0.22161 -0.16265 4.68004 122 83 55
-0.16078 -0.22297 4.66891 122 83 55
-0.08291 -0.26209 4.69084 122 83 55
-0.00099 -0.27489 4.69121 122 83 55
0.08626 -0.26101 4.68357 122 83 55
0.16382 -0.22074 4.67822 122 83 55
0.22495 -0.15799 4.67658 122 83 55
0.26066 -0.08729 4.67023 122 83 55
0.26483 0.00489 4.79507 122 83 55
0.25230 0.08065 4.81095 122 83 55
0.21541 0.15414 4.80159 122 83 55
0.15759 0.21290 4.80286 122 83 55
0.08401 0.25120 4.79123 122 83 55
0.00359 0.26485 4.79228 122 83 55
-0.08344 0.25139 4.80808 122 83 55
-0.15976 0.21127 4.80648 122 83 55
-0.21694 0.15198 4.79596 122 83 55
-0.25186 0.08202 4.79614 122 83 55
-0.26485 -0.00387 4.80740 122 83 55
-0.25183 -0.08210 4.79824 122 83 55
-0.21434 -0.15561 4.79146 122 83 55
-0.15322 -0.21606 4.80508 122 83 55
-0.07806 -0.25311 4.79184 122 83 55
-0.00094 -0.26487 4.81195 122 83 55
0.07908 -0.25280 4.79333 122 83 55
0.15338 -0.21595 4.79676 122 83 55
0.21219 -0.15853 4.81059 122 83 55
0.25207 -0.08136 4.79158 122 83 55
0.25256 -0.00236 4.91479 122 83 55
0.23967 0.07969 4.93195 122 83 55
0.20651 0.14541 4.90967 122 83 55
0.14721 0.20523 4.91132 122 83 55
0.07661 0.24067 4.91991 122 83 55
-0.00453 0.25253 4.91911 122 83 55
-0.07559 0.24099 4.91098 122 83 55
-0.15200 0.20171 4.92215 122 83 55
-0.20222 0.15132 4.91590 122 83 55
-0.24020 0.07806 4.93053 122 83 55
-0.25253 0.00418 4.93040 122 83 55
-0.24134 -0.07446 4.92507 122 83 55
-0.20177 -0.15192 4.90955 122 83 55
-0.15040 -0.20290 4.92004 122 83 55
-0.08172 -0.23898 4.90993 122 83 55
0.00286 -0.25255 4.92078 122 83 55
0.08283 -0.23860 4.92763 122 83 55
0.15181 -0.20185 4.91729 122 83 55
0.20324 -0.14995 4.91393 122 83 55
0.24150 -0.07394 4.91105 122 83 55
0.24375 0.00010 5.05137 122 83 55
0.23210 0.07447 5.04856 122 83 55
0.19657 0.14414 5.03941 122 83 55
0.13932 0.20002 5.05148 122 83 55
0.07236 0.23277 5.04008 122 83 55
-0.00321 0.24373 5.03415 122 83 55
-0.07169 0.23297 5.04032 122 83 55
-0.14019 0.19941 5.03103 122 83 55
-0.19663 0.14406 5.04373 122 83 55
-0.23199 0.07480 5.03736 122 83 55
-0.24373 0.00319 5.04106 122 83 55
-0.23145 -0.07647 5.02794 122 83 55
-0.19687 -0.14374 5.02967 122 83 55
-0.14134 -0.19859 5.03998 122 83 55
-0.07741 -0.23114 5.03883 122 83 55
-0.00461 -0.24371 5.04230 122 83 55
0.07950 -0.23043 5.04836 122 83 55
0.14020 -0.19940 5.04439 122 83 55
0.19827 -0.14179 5.04526 122 83 55
0.23072 -0.07864 5.03015 122 83 55
0.24255 0.00417 5.16320 122 83 55
0.23202 0.07080 5.15220 122 83 55
0.19352 0.14627 5.16696 122 83 55
0.14161 0.19696 5.16417 122 83 55
0.07324 0.23126 5.16939 122 83 55
0.00453 0.24254 5.16943 122 83 55
-0.07299 0.23134 5.15019 122 83 55
-0.14487 0.19457 5.17092 122 83 55
-0.19465 0.14477 5.15189 122 83 55
-0.23025 0.07636 5.16332 122 83 55
-0.24258 -0.00008 5.16458 122 83 55
-0.22992 -0.07734 5.16960 122 83 55
-0.19844 -0.13952 5.15741 122 83 55
-0.14539 -0.19418 5.17062 122 83 55
-0.07809 -0.22967 5.15089 122 83 55
0.00367 -0.24255 5.16246 122 83 55
0.07133 -0.23186 5.15547 122 83 55
0.14462 -0.19476 5.15753 122 83 55
0.19429 -0.14525 5.15791 122 83 55
0.23074 -0.07486 5.15171 122 83 55
0.24960 0.00026 5.28854 122 83 55
0.23759 0.07650 5.28108 122 83 55
0.20270 0.14565 5.26832 122 83 55
0.15002 0.19948 5.28296 122 83 55
0.07745 0.23728 5.28624 122 83 55
0.00261 0.24959 5.27724 122 83 55
-0.08163 0.23587 5.28867 122 83 55
-0.14671 0.20193 5.29036 122 83 55
-0.20388 0.14399 5.26853 122 83 55
-0.23707 0.07809 5.27542 122 83 55
-0.24960 -0.00161 5.27842 122 83 55
-0.23645 -0.07994 5.26812 122 83 55
-0.20376 -0.14416 5.28811 122 83 55
-0.14359 -0.20416 5.28966 122 83 55
-0.07615 -0.23770 5.26805 122 83 55
-0.00308 -0.24958 5.26874 122 83 55
0.07585 -0.23780 5.28675 122 83 55
0.14531 -0.20294 5.28632 122 83 55
0.20063 -0.14849 5.29119 122 83 55
0.23704 -0.07819 5.27773 122 83 55
