ply
format ascii 1.0
comment SIMULATED DEMO - NOT FIELD EVIDENCE
element vertex 900
property float x
property float y
property float z
property uchar red
property uchar green
property uchar blue
end_header
0.25999 0.00259 -0.00926 122 83 55
0.24745 0.07979 -0.00016 122 83 55
0.20878 0.15495 -0.01049 122 83 55
0.15402 0.20947 0.00414 122 83 55
0.08099 0.24706 -0.01167 122 83 55
0.00312 0.25998 0.00161 122 83 55
-0.08144 0.24692 0.00057 122 83 55
-0.14981 0.21250 0.00617 122 83 55
-0.21248 0.14984 -0.00298 122 83 55
-0.24658 0.08245 0.01010 122 83 55
-0.25999 -0.00178 -0.00827 122 83 55
-0.24592 -0.08441 0.01041 122 83 55
-0.20987 -0.15347 -0.00115 122 83 55
-0.15599 -0.20801 -0.00382 122 83 55
-0.08188 -0.24677 -0.00800 122 83 55
-0.00202 -0.25999 -0.00584 122 83 55
0.07591 -0.24867 0.00409 122 83 55
0.14987 -0.21246 0.00107 122 83 55
0.21176 -0.15086 0.01177 122 83 55
0.24606 -0.08398 0.01241 122 83 55
0.27159 0.00212 0.12482 122 83 55
0.25762 0.08599 0.10880 122 83 55
0.21728 0.16295 0.11718 122 83 55
0.15860 0.22048 0.12717 122 83 55
0.08099 0.25924 0.11253 122 83 55
0.00390 0.27157 0.12013 122 83 55
-0.08725 0.25720 0.11848 122 83 55
-0.16395 0.21653 0.11353 122 83 55
-0.21764 0.16247 0.10984 122 83 55
-0.25786 0.08528 0.12805 122 83 55
-0.27160 0.00035 0.12255 122 83 55
-0.25875 -0.08254 0.11715 122 83 55
-0.21755 -0.16260 0.11624 122 83 55
-0.15877 -0.22036 0.11991 122 83 55
-0.08637 -0.25750 0.12442 122 83 55
0.00457 -0.27156 0.11343 122 83 55
0.08053 -0.25938 0.11789 122 83 55
0.15929 -0.21998 0.13102 122 83 55
0.22101 -0.15785 0.11283 122 83 55
0.25808 -0.08462 0.11813 122 83 55
0.27772 -0.00358 0.23153 122 83 55
0.26441 0.08499 0.24987 122 83 55
0.22389 0.16435 0.23994 122 83 55
0.16694 0.22197 0.24963 122 83 55
0.08681 0.26382 0.23738 122 83 55
-0.00013 0.27774 0.24992 122 83 55
-0.08403 0.26472 0.23004 122 83 55
-0.16428 0.22395 0.24274 122 83 55
-0.22629 0.16104 0.25119 122 83 55
-0.26368 0.08723 0.24787 122 83 55
-0.27774 -0.00032 0.25229 122 83 55
-0.26332 -0.08832 0.23902 122 83 55
-0.22142 -0.16767 0.23524 122 83 55
-0.16253 -0.22522 0.23863 122 83 55
-0.09042 -0.26261 0.23261 122 83 55
0.00477 -0.27770 0.22878 122 83 55
0.08347 -0.26490 0.24854 122 83 55
0.16209 -0.22553 0.23170 122 83 55
0.22457 -0.16342 0.22960 122 83 55
0.26412 -0.08592 0.24448 122 83 55
0.27552 -0.00277 0.36095 122 83 55
0.26185 0.08577 0.36424 122 83 55
0.22361 0.16100 0.34944 122 83 55
0.15808 0.22568 0.35582 122 83 55
0.08914 0.26072 0.35649 122 83 55
-0.00398 0.27551 0.36564 122 83 55
-0.08685 0.26149 0.35000 122 83 55
-0.16344 0.22183 0.36638 122 83 55
-0.22288 0.16201 0.35061 122 83 55
-0.26201 0.08529 0.34864 122 83 55
-0.27554 0.00112 0.35891 122 83 55
-0.26361 -0.08018 0.36173 122 83 55
-0.22593 -0.15773 0.37161 122 83 55
-0.16584 -0.22004 0.35207 122 83 55
-0.08245 -0.26291 0.35569 122 83 55
0.00092 -0.27554 0.35921 122 83 55
0.08916 -0.26071 0.35603 122 83 55
0.16511 -0.22059 0.36009 122 83 55
0.22334 -0.16138 0.36801 122 83 55
0.26299 -0.08221 0.35922 122 83 55
0.26598 -0.00528 0.48319 122 83 55
0.25361 0.08035 0.47301 122 83 55
0.21363 0.15854 0.48195 122 83 55
0.15309 0.21757 0.47309 122 83 55
0.08518 0.25202 0.47374 122 83 55
-0.00460 0.26599 0.47973 122 83 55
-0.08316 0.25270 0.49136 122 83 55
-0.15401 0.21692 0.47747 122 83 55
-0.21256 0.15997 0.47730 122 83 55
-0.25265 0.08330 0.48164 122 83 55
-0.26601 -0.00281 0.48625 122 83 55
-0.25193 -0.08544 0.47036 122 83 55
-0.21397 -0.15808 0.47412 122 83 55
-0.16008 -0.21248 0.46819 122 83 55
-0.08511 -0.25205 0.48028 122 83 55
-0.00325 -0.26601 0.47863 122 83 55
0.07866 -0.25413 0.49086 122 83 55
0.15891 -0.21335 0.46893 122 83 55
0.21732 -0.15343 0.47728 122 83 55
0.25339 -0.08102 0.49214 122 83 55
0.25366 0.00372 0.60539 122 83 55
0.24279 0.07356 0.60717 122 83 55
0.20226 0.15312 0.60186 122 83 55
0.14826 0.20586 0.59941 122 83 55
0.07569 0.24213 0.59068 122 83 55
0.00417 0.25365 0.60517 122 83 55
-0.08101 0.24040 0.59404 122 83 55
-0.15103 0.20383 0.59987 122 83 55
-0.20394 0.15088 0.59774 122 83 55
-0.24028 0.08139 0.59093 122 83 55
-0.25366 0.00351 0.59302 122 83 55
-0.24034 -0.08120 0.59263 122 83 55
-0.20811 -0.14508 0.60258 122 83 55
-0.15163 -0.20339 0.60650 122 83 55
-0.07437 -0.24254 0.60990 122 83 55
-0.00300 -0.25367 0.59190 122 83 55
0.07760 -0.24153 0.59233 122 83 55
0.14584 -0.20758 0.59291 122 83 55
0.20456 -0.15004 0.58957 122 83 55
0.24224 -0.07536 0.59382 122 83 55
0.24429 -0.00308 0.71536 122 83 55
0.23172 0.07742 0.72656 122 83 55
0.19475 0.14752 0.71162 122 83 55
0.14011 0.20014 0.72004 122 83 55
0.07613 0.23215 0.72042 122 83 55
-0.00048 0.24431 0.73229 122 83 55
-0.07697 0.23187 0.73029 122 83 55
-0.14570 0.19611 0.71271 122 83 55
-0.19904 0.14167 0.70995 122 83 55
-0.23150 0.07806 0.72295 122 83 55
-0.24428 -0.00421 0.72849 122 83 55
-0.23370 -0.07123 0.73112 122 83 55
-0.20046 -0.13965 0.73236 122 83 55
-0.13980 -0.20036 0.71552 122 83 55
-0.07988 -0.23089 0.71094 122 83 55
-0.00401 -0.24428 0.72487 122 83 55
0.07132 -0.23367 0.71343 122 83 55
0.14464 -0.19689 0.72386 122 83 55
0.19834 -0.14266 0.71130 122 83 55
0.23119 -0.07899 0.70858 122 83 55
0.24229 -0.00351 0.85171 122 83 55
0.22954 0.07763 0.82793 122 83 55
0.19631 0.14206 0.83840 122 83 55
0.13936 0.19823 0.83823 122 83 55
0.07760 0.22955 0.82809 122 83 55
0.00061 0.24232 0.84463 122 83 55
-0.07748 0.22960 0.83650 122 83 55
-0.14328 0.19541 0.83898 122 83 55
-0.19870 0.13870 0.82928 122 83 55
-0.23103 0.07310 0.85023 122 83 55
-0.24231 -0.00110 0.83466 122 83 55
-0.23122 -0.07250 0.83464 122 83 55
-0.19408 -0.14509 0.83551 122 83 55
-0.14576 -0.19357 0.82927 122 83 55
-0.07248 -0.23122 0.83516 122 83 55
-0.00431 -0.24228 0.82860 122 83 55
0.07580 -0.23015 0.84719 122 83 55
0.14571 -0.19361 0.85013 122 83 55
0.19724 -0.14075 0.84094 122 83 55
0.23049 -0.07477 0.83645 122 83 55
0.24860 0.00455 0.95063 122 83 55
0.23735 0.07408 0.96707 122 83 55
0.20217 0.14473 0.97213 122 83 55
0.14645 0.20093 0.97000 122 83 55
0.07329 0.23759 0.94792 122 83 55
-0.00141 0.24863 0.94889 122 83 55
-0.07493 0.23708 0.97170 122 83 55
-0.14743 0.20021 0.94806 122 83 55
-0.20241 0.14440 0.95076 122 83 55
-0.23511 0.08089 0.95912 122 83 55
-0.24864 0.00001 0.95004 122 83 55
-0.23621 -0.07761 0.95858 122 83 55
-0.20277 -0.14390 0.96341 122 83 55
-0.14837 -0.19951 0.96283 122 83 55
-0.08089 -0.23511 0.96875 122 83 55
0.00061 -0.24864 0.94751 122 83 55
0.07462 -0.23718 0.95471 122 83 55
0.14809 -0.19972 0.95991 122 83 55
0.20035 -0.14724 0.96338 122 83 55
0.23565 -0.07932 0.95913 122 83 55
0.26030 -0.00041 1.06911 122 83 55
0.24741 0.08092 1.06999 122 83 55
0.20942 0.15460 1.08029 122 83 55
0.15458 0.20943 1.07800 122 83 55
0.07999 0.24771 1.07682 122 83 55
0.00008 0.26030 1.06888 122 83 55
-0.08410 0.24634 1.07755 122 83 55
-0.15408 0.20980 1.07241 122 83 55
-0.21124 0.15210 1.08800 122 83 55
-0.24705 0.08201 1.07660 122 83 55
-0.26030 -0.00110 1.08995 122 83 55
-0.24742 -0.08089 1.08947 122 83 55
-0.21300 -0.14962 1.08100 122 83 55
-0.15660 -0.20793 1.07196 122 83 55
-0.07886 -0.24807 1.08297 122 83 55
0.00154 -0.26030 1.07669 122 83 55
0.08232 -0.24694 1.06970 122 83 55
0.15271 -0.21080 1.08369 122 83 55
0.21271 -0.15004 1.07091 122 83 55
0.24833 -0.07802 1.08018 122 83 55
0.27179 0.00432 1.20986 122 83 55
0.26004 0.07917 1.20816 122 83 55
0.21758 0.16294 1.19907 122 83 55
0.16245 0.21794 1.19435 122 83 55
0.08333 0.25874 1.19454 122 83 55
0.00279 0.27181 1.20364 122 83 55
-0.08771 0.25729 1.18992 122 83 55
-0.16020 0.21960 1.18825 122 83 55
-0.21754 0.16299 1.18868 122 83 55
-0.25698 0.08862 1.21113 122 83 55
-0.27179 -0.00460 1.20342 122 83 55
-0.25857 -0.08384 1.20840 122 83 55
-0.21848 -0.16173 1.20258 122 83 55
-0.15739 -0.22162 1.20175 122 83 55
-0.08618 -0.25780 1.21135 122 83 55
-0.00460 -0.27179 1.20823 122 83 55
0.07929 -0.26001 1.20456 122 83 55
0.15731 -0.22168 1.20071 122 83 55
0.21933 -0.16057 1.21073 122 83 55
0.25806 -0.08541 1.20407 122 83 55
0.27775 -0.00437 1.32268 122 83 55
0.26513 0.08290 1.31281 122 83 55
0.22263 0.16614 1.32630 122 83 55
0.16568 0.22297 1.30767 122 83 55
0.08336 0.26499 1.31044 122 83 55
0.00138 0.27778 1.32451 122 83 55
-0.08923 0.26307 1.32699 122 83 55
-0.16435 0.22396 1.31036 122 83 55
-0.22745 0.15947 1.32661 122 83 55
-0.26304 0.08930 1.30761 122 83 55
-0.27774 -0.00527 1.33162 122 83 55
-0.26581 -0.08070 1.31867 122 83 55
-0.22165 -0.16744 1.32914 122 83 55
-0.16414 -0.22411 1.32444 122 83 55
-0.08683 -0.26387 1.32845 122 83 55
-0.00229 -0.27778 1.31661 122 83 55
0.08527 -0.26438 1.30805 122 83 55
0.16685 -0.22210 1.30959 122 83 55
0.22751 -0.15940 1.30900 122 83 55
0.26533 -0.08225 1.32944 122 83 55
0.27533 0.00536 1.43248 122 83 55
0.26171 0.08570 1.42830 122 83 55
0.21969 0.16605 1.44074 122 83 55
0.15740 0.22597 1.43906 122 83 55
0.08142 0.26307 1.43670 122 83 55
-0.00227 0.27537 1.43632 122 83 55
-0.08328 0.26249 1.42901 122 83 55
-0.16486 0.22058 1.45090 122 83 55
-0.22173 0.16331 1.44530 122 83 55
-0.26279 0.08233 1.44136 122 83 55
-0.27537 -0.00219 1.44290 122 83 55
-0.26284 -0.08217 1.43742 122 83 55
-0.22598 -0.15739 1.43732 122 83 55
-0.16431 -0.22099 1.44112 122 83 55
-0.08943 -0.26046 1.43019 122 83 55
-0.00346 -0.27536 1.43317 122 83 55
0.08685 -0.26133 1.44953 122 83 55
0.16578 -0.21989 1.43787 122 83 55
0.22566 -0.15784 1.44646 122 83 55
0.26240 -0.08356 1.43141 122 83 55
0.26573 -0.00234 1.56877 122 83 55
0.25195 0.08450 1.55459 122 83 55
0.21675 0.15376 1.54809 122 83 55
0.15703 0.21438 1.55722 122 83 55
0.08168 0.25288 1.56328 122 83 55
0.00203 0.26574 1.55266 122 83 55
-0.07791 0.25407 1.54950 122 83 55
-0.15587 0.21523 1.56733 122 83 55
-0.21432 0.15712 1.55315 122 83 55
-0.25266 0.08236 1.55118 122 83 55
-0.26574 -0.00144 1.56933 122 83 55
-0.25217 -0.08385 1.55136 122 83 55
-0.21646 -0.15416 1.56984 122 83 55
-0.15447 -0.21624 1.54771 122 83 55
-0.08438 -0.25199 1.56572 122 83 55
0.00182 -0.26574 1.55967 122 83 55
0.07891 -0.25376 1.55475 122 83 55
0.16008 -0.21212 1.56575 122 83 55
0.21790 -0.15211 1.56068 122 83 55
0.25155 -0.08568 1.55783 122 83 55
0.25340 0.00171 1.67182 122 83 55
0.23979 0.08193 1.67866 122 83 55
0.20610 0.14743 1.67847 122 83 55
0.14970 0.20446 1.68257 122 83 55
0.07884 0.24083 1.68423 122 83 55
0.00243 0.25339 1.68516 122 83 55
-0.07719 0.24136 1.67311 122 83 55
-0.14706 0.20637 1.67437 122 83 55
-0.20771 0.14515 1.67016 122 83 55
-0.24203 0.07506 1.68645 122 83 55
-0.25340 0.00071 1.66986 122 83 55
-0.24177 -0.07591 1.68651 122 83 55
-0.20360 -0.15086 1.67759 122 83 55
-0.14993 -0.20429 1.68980 122 83 55
-0.07955 -0.24059 1.67086 122 83 55
-0.00422 -0.25337 1.67079 122 83 55
0.07833 -0.24099 1.66820 122 83 55
0.14590 -0.20719 1.68881 122 83 55
0.20257 -0.15224 1.67478 122 83 55
0.24110 -0.07799 1.68976 122 83 55
0.24415 -0.00309 1.80028 122 83 55
0.23218 0.07554 1.79514 122 83 55
0.19704 0.14419 1.81051 122 83 55
0.14323 0.19774 1.80550 122 83 55
0.07408 0.23266 1.80076 122 83 55
0.00317 0.24414 1.79686 122 83 55
-0.07864 0.23115 1.80999 122 83 55
-0.14470 0.19667 1.79500 122 83 55
-0.19645 0.14500 1.80125 122 83 55
-0.23180 0.07672 1.79335 122 83 55
-0.24416 -0.00142 1.79501 122 83 55
-0.23128 -0.07828 1.79208 122 83 55
-0.19732 -0.14381 1.78819 122 83 55
-0.14302 -0.19790 1.80670 122 83 55
-0.07931 -0.23093 1.80316 122 83 55
-0.00114 -0.24416 1.80588 122 83 55
0.07860 -0.23117 1.79201 122 83 55
0.14343 -0.19760 1.79480 122 83 55
0.20007 -0.13995 1.80277 122 83 55
0.23252 -0.07451 1.79089 122 83 55
0.24234 0.00407 1.91542 122 83 55
0.23088 0.07375 1.91588 122 83 55
0.19376 0.14560 1.92196 122 83 55
0.14477 0.19439 1.91858 122 83 55
0.07491 0.23051 1.92570 122 83 55
-0.00077 0.24237 1.91967 122 83 55
-0.07472 0.23057 1.91672 122 83 55
-0.14233 0.19618 1.92557 122 83 55
-0.19871 0.13878 1.91108 122 83 55
-0.23050 0.07493 1.91507 122 83 55
-0.24235 -0.00378 1.92810 122 83 55
-0.23024 -0.07572 1.91335 122 83 55
-0.19409 -0.14517 1.92616 122 83 55
-0.14020 -0.19771 1.91448 122 83 55
-0.07366 -0.23091 1.92839 122 83 55
-0.00317 -0.24235 1.92462 122 83 55
0.07096 -0.23175 1.92646 122 83 55
0.14576 -0.19365 1.92955 122 83 55
0.19858 -0.13897 1.93141 122 83 55
0.23000 -0.07645 1.92110 122 83 55
0.24884 -0.00419 2.04195 122 83 55
0.23809 0.07247 2.04366 122 83 55
0.20414 0.14235 2.04191 122 83 55
0.14333 0.20346 2.03799 122 83 55
0.07512 0.23727 2.03968 122 83 55
0.00420 0.24884 2.03581 122 83 55
-0.07291 0.23795 2.04388 122 83 55
-0.14912 0.19925 2.03995 122 83 55
-0.20332 0.14353 2.05048 122 83 55
-0.23614 0.07858 2.03115 122 83 55
-0.24886 0.00241 2.02814 122 83 55
-0.23657 -0.07729 2.02862 122 83 55
-0.20361 -0.14312 2.03469 122 83 55
-0.14926 -0.19915 2.02808 122 83 55
-0.07923 -0.23592 2.03375 122 83 55
0.00025 -0.24887 2.05179 122 83 55
0.07254 -0.23807 2.03700 122 83 55
0.14269 -0.20390 2.05188 122 83 55
0.20331 -0.14353 2.02870 122 83 55
0.23600 -0.07900 2.03900 122 83 55
0.26060 -0.00203 2.15533 122 83 55
0.24853 0.07842 2.15992 122 83 55
0.21285 0.15037 2.15453 122 83 55
0.14924 0.21364 2.16385 122 83 55
0.07893 0.24836 2.14873 122 83 55
0.00163 0.26060 2.14843 122 83 55
-0.08437 0.24657 2.16005 122 83 55
-0.15377 0.21041 2.15774 122 83 55
-0.21222 0.15126 2.15944 122 83 55
-0.24665 0.08414 2.16079 122 83 55
-0.26057 0.00436 2.14913 122 83 55
-0.24830 -0.07913 2.15026 122 83 55
-0.21038 -0.15380 2.14888 122 83 55
-0.15477 -0.20967 2.14751 122 83 55
-0.07556 -0.24941 2.16753 122 83 55
0.00134 -0.26060 2.16113 122 83 55
0.07676 -0.24904 2.14786 122 83 55
0.15676 -0.20818 2.15258 122 83 55
0.21161 -0.15211 2.15384 122 83 55
0.24873 -0.07776 2.16862 122 83 55
0.27205 -0.00163 2.27071 122 83 55
0.25899 0.08327 2.27657 122 83 55
0.22296 0.15589 2.27943 122 83 55
0.15811 0.22139 2.27970 122 83 55
0.08577 0.25818 2.26856 122 83 55
-0.00448 0.27202 2.29118 122 83 55
-0.08533 0.25833 2.27748 122 83 55
-0.15977 0.22020 2.27654 122 83 55
-0.21734 0.16364 2.27163 122 83 55
-0.25968 0.08111 2.28037 122 83 55
-0.27200 -0.00536 2.28608 122 83 55
-0.25908 -0.08300 2.28979 122 83 55
-0.22236 -0.15674 2.27063 122 83 55
-0.15873 -0.22094 2.28308 122 83 55
-0.08013 -0.25998 2.28038 122 83 55
-0.00283 -0.27204 2.27323 122 83 55
0.08048 -0.25988 2.28721 122 83 55
0.15960 -0.22032 2.28749 122 83 55
0.22140 -0.15810 2.26885 122 83 55
0.26026 -0.07923 2.28011 122 83 55
0.27778 -0.00509 2.40842 122 83 55
0.26506 0.08326 2.40186 122 83 55
0.22784 0.15900 2.40351 122 83 55
0.16214 0.22561 2.39103 122 83 55
0.08967 0.26296 2.41030 122 83 55
-0.00330 0.27781 2.40194 122 83 55
-0.08869 0.26330 2.40429 122 83 55
-0.16461 0.22381 2.39330 122 83 55
-0.22199 0.16706 2.39552 122 83 55
-0.26546 0.08198 2.40485 122 83 55
-0.27782 0.00220 2.39748 122 83 55
-0.26469 -0.08443 2.41201 122 83 55
-0.22463 -0.16350 2.39504 122 83 55
-0.16150 -0.22607 2.39470 122 83 55
-0.08804 -0.26351 2.39313 122 83 55
0.00507 -0.27778 2.39249 122 83 55
0.08753 -0.26368 2.40890 122 83 55
0.16592 -0.22285 2.39960 122 83 55
0.22407 -0.16426 2.40166 122 83 55
0.26458 -0.08477 2.40951 122 83 55
0.27522 0.00072 2.51097 122 83 55
0.26004 0.09016 2.52031 122 83 55
0.22115 0.16383 2.51438 122 83 55
0.16606 0.21948 2.52787 122 83 55
0.08663 0.26123 2.51791 122 83 55
-0.00456 0.27519 2.51049 122 83 55
-0.08216 0.26267 2.52322 122 83 55
-0.15955 0.22426 2.51471 122 83 55
-0.22008 0.16527 2.52204 122 83 55
-0.26239 0.08308 2.50840 122 83 55
-0.27522 -0.00210 2.52938 122 83 55
-0.26053 -0.08872 2.52825 122 83 55
-0.22135 -0.16356 2.51339 122 83 55
-0.15751 -0.22570 2.52029 122 83 55
-0.08207 -0.26270 2.51617 122 83 55
-0.00233 -0.27521 2.50818 122 83 55
0.08360 -0.26222 2.51573 122 83 55
0.16033 -0.22370 2.53025 122 83 55
0.22421 -0.15962 2.51084 122 83 55
0.26249 -0.08274 2.51760 122 83 55
0.26542 -0.00463 2.63671 122 83 55
0.25113 0.08603 2.63671 122 83 55
0.21204 0.15971 2.63547 122 83 55
0.15969 0.21205 2.63646 122 83 55
0.07941 0.25330 2.63205 122 83 55
0.00196 0.26545 2.64040 122 83 55
-0.07931 0.25333 2.64695 122 83 55
-0.15526 0.21532 2.63165 122 83 55
-0.21406 0.15698 2.63381 122 83 55
-0.25108 0.08618 2.63397 122 83 55
-0.26544 0.00311 2.64103 122 83 55
-0.25197 -0.08355 2.62861 122 83 55
-0.21330 -0.15802 2.64267 122 83 55
-0.15908 -0.21251 2.64314 122 83 55
-0.08602 -0.25113 2.64541 122 83 55
0.00062 -0.26546 2.63445 122 83 55
0.07744 -0.25391 2.63433 122 83 55
0.15826 -0.21312 2.64437 122 83 55
0.21572 -0.15470 2.65185 122 83 55
0.25105 -0.08627 2.63778 122 83 55
0.25312 0.00042 2.75494 122 83 55
0.23978 0.08109 2.75915 122 83 55
0.20358 0.15043 2.76248 122 83 55
0.14494 0.20752 2.75990 122 83 55
0.07685 0.24117 2.75559 122 83 55
0.00264 0.25311 2.74984 122 83 55
-0.07941 0.24034 2.75000 122 83 55
-0.15066 0.20340 2.75776 122 83 55
-0.20229 0.15215 2.76593 122 83 55
-0.23923 0.08269 2.76701 122 83 55
-0.25312 -0.00086 2.75709 122 83 55
-0.23944 -0.08209 2.75332 122 83 55
-0.20286 -0.15139 2.75672 122 83 55
-0.15060 -0.20345 2.74849 122 83 55
-0.07738 -0.24100 2.75976 122 83 55
0.00107 -0.25312 2.76457 122 83 55
0.08028 -0.24005 2.76657 122 83 55
0.15026 -0.20370 2.76977 122 83 55
0.20383 -0.15008 2.76986 122 83 55
0.24052 -0.07888 2.76306 122 83 55
0.24399 -0.00405 2.86767 122 83 55
0.23248 0.07417 2.87120 122 83 55
0.19480 0.14697 2.87661 122 83 55
0.14226 0.19827 2.88300 122 83 55
0.07969 0.23065 2.87063 122 83 55
-0.00457 0.24398 2.88654 122 83 55
-0.07448 0.23238 2.87717 122 83 55
-0.14506 0.19623 2.88198 122 83 55
-0.19805 0.14256 2.86832 122 83 55
-0.23069 0.07957 2.87319 122 83 55
-0.24400 -0.00360 2.87134 122 83 55
-0.23338 -0.07129 2.87815 122 83 55
-0.19602 -0.14534 2.86884 122 83 55
-0.14079 -0.19932 2.86900 122 83 55
-0.07221 -0.23309 2.87025 122 83 55
-0.00198 -0.24402 2.88908 122 83 55
0.07119 -0.23341 2.86751 122 83 55
0.14135 -0.19892 2.87554 122 83 55
0.19484 -0.14692 2.86913 122 83 55
0.23238 -0.07446 2.87206 122 83 55
0.24244 -0.00095 3.00793 122 83 55
0.23136 0.07245 2.99302 122 83 55
0.19772 0.14029 3.00919 122 83 55
0.14253 0.19612 2.99106 122 83 55
0.07634 0.23010 3.00711 122 83 55
-0.00010 0.24244 3.00677 122 83 55
-0.07580 0.23028 3.00353 122 83 55
-0.14581 0.19369 3.01021 122 83 55
-0.19494 0.14413 2.99467 122 83 55
-0.23044 0.07532 3.00021 122 83 55
-0.24243 0.00141 3.00207 122 83 55
-0.23017 -0.07614 2.98884 122 83 55
-0.19581 -0.14296 2.99108 122 83 55
-0.14293 -0.19582 2.99444 122 83 55
-0.07251 -0.23134 2.99562 122 83 55
0.00356 -0.24241 3.00310 122 83 55
0.07213 -0.23146 2.99998 122 83 55
0.14203 -0.19648 2.98943 122 83 55
0.19422 -0.14511 3.00897 122 83 55
0.23022 -0.07600 2.99413 122 83 55
0.24911 0.00158 3.11455 122 83 55
0.23561 0.08091 3.13166 122 83 55
0.19966 0.14897 3.10801 122 83 55
0.14424 0.20311 3.11782 122 83 55
0.07949 0.23609 3.11297 122 83 55
0.00420 0.24908 3.10842 122 83 55
-0.07673 0.23700 3.12103 122 83 55
-0.14306 0.20394 3.12106 122 83 55
-0.20067 0.14762 3.11787 122 83 55
-0.23665 0.07781 3.11866 122 83 55
-0.24909 -0.00340 3.12392 122 83 55
-0.23599 -0.07979 3.11963 122 83 55
-0.20065 -0.14763 3.11998 122 83 55
-0.14615 -0.20173 3.12034 122 83 55
-0.07399 -0.23787 3.11456 122 83 55
-0.00447 -0.24907 3.12763 122 83 55
0.08063 -0.23570 3.11566 122 83 55
0.14523 -0.20240 3.12941 122 83 55
0.20173 -0.14615 3.12623 122 83 55
0.23610 -0.07946 3.11346 122 83 55
0.26090 0.00151 3.23368 122 83 55
0.24796 0.08116 3.24531 122 83 55
0.21258 0.15127 3.23007 122 83 55
0.15013 0.21338 3.23238 122 83 55
0.07698 0.24929 3.25090 122 83 55
0.00114 0.26091 3.22809 122 83 55
-0.07591 0.24962 3.25159 122 83 55
-0.15610 0.20906 3.23557 122 83 55
-0.20911 0.15603 3.24712 122 83 55
-0.24903 0.07782 3.25200 122 83 55
-0.26089 0.00318 3.25132 122 83 55
-0.24726 -0.08327 3.23088 122 83 55
-0.21371 -0.14967 3.24895 122 83 55
-0.15137 -0.21251 3.23573 122 83 55
-0.07864 -0.24878 3.24442 122 83 55
-0.00470 -0.26087 3.24500 122 83 55
0.08358 -0.24716 3.23776 122 83 55
0.14969 -0.21369 3.24917 122 83 55
0.20921 -0.15589 3.23442 122 83 55
0.24915 -0.07745 3.23732 122 83 55
0.27226 -0.00282 3.37167 122 83 55
0.25909 0.08370 3.37174 122 83 55
0.21706 0.16437 3.36100 122 83 55
0.16036 0.22004 3.36524 122 83 55
0.08495 0.25868 3.37161 122 83 55
-0.00310 0.27226 3.35227 122 83 55
-0.08712 0.25796 3.36185 122 83 55
-0.15889 0.22110 3.35110 122 83 55
-0.22306 0.15614 3.37144 122 83 55
-0.25996 0.08095 3.37047 122 83 55
-0.27226 0.00300 3.34855 122 83 55
-0.26057 -0.07898 3.35070 122 83 55
-0.22233 -0.15718 3.35719 122 83 55
-0.16325 -0.21791 3.34995 122 83 55
-0.08653 -0.25816 3.37156 122 83 55
-0.00233 -0.27227 3.34831 122 83 55
0.08226 -0.25955 3.37024 122 83 55
0.16022 -0.22014 3.34779 122 83 55
0.21953 -0.16106 3.34926 122 83 55
0.25826 -0.08623 3.35333 122 83 55
0.27785 -0.00331 3.47468 122 83 55
0.26438 0.08552 3.47068 122 83 55
0.22460 0.16361 3.48602 122 83 55
0.16527 0.22338 3.47340 122 83 55
0.08106 0.26578 3.48868 122 83 55
0.00402 0.27784 3.46762 122 83 55
-0.09080 0.26262 3.47938 122 83 55
-0.16760 0.22164 3.48918 122 83 55
-0.22455 0.16367 3.47994 122 83 55
-0.26458 0.08490 3.47424 122 83 55
-0.27784 -0.00416 3.49126 122 83 55
-0.26515 -0.08310 3.48065 122 83 55
-0.22383 -0.16466 3.47514 122 83 55
-0.16499 -0.22358 3.48354 122 83 55
-0.08291 -0.26521 3.48325 122 83 55
0.00550 -0.27782 3.47994 122 83 55
0.08647 -0.26407 3.48358 122 83 55
0.15957 -0.22748 3.46837 122 83 55
0.22681 -0.16052 3.49096 122 83 55
0.26429 -0.08582 3.47579 122 83 55
0.27505 -0.00271 3.60974 122 83 55
0.26283 0.08111 3.60531 122 83 55
0.22094 0.16384 3.61242 122 83 55
0.15784 0.22527 3.59450 122 83 55
0.08458 0.26173 3.60502 122 83 55
-0.00119 0.27506 3.60026 122 83 55
-0.08898 0.26027 3.61052 122 83 55
-0.15914 0.22435 3.60753 122 83 55
-0.22238 0.16188 3.60846 122 83 55
-0.26127 0.08601 3.59045 122 83 55
-0.27505 -0.00245 3.60463 122 83 55
-0.26227 -0.08291 3.59055 122 83 55
-0.22106 -0.16367 3.60156 122 83 55
-0.16416 -0.22070 3.59814 122 83 55
-0.08533 -0.26149 3.60109 122 83 55
0.00121 -0.27506 3.60915 122 83 55
0.08701 -0.26093 3.60218 122 83 55
0.15725 -0.22568 3.61080 122 83 55
0.22137 -0.16326 3.58795 122 83 55
0.26289 -0.08092 3.60608 122 83 55
0.26517 0.00002 3.72244 122 83 55
0.25158 0.08378 3.71287 122 83 55
0.21385 0.15678 3.71865 122 83 55
0.15729 0.21348 3.71504 122 83 55
0.07933 0.25302 3.71576 122 83 55
0.00343 0.26514 3.71909 122 83 55
-0.08402 0.25150 3.70980 122 83 55
-0.15187 0.21737 3.72602 122 83 55
-0.21230 0.15887 3.71290 122 83 55
-0.25310 0.07909 3.70944 122 83 55
-0.26515 -0.00317 3.72806 122 83 55
-0.25134 -0.08452 3.72727 122 83 55
-0.21248 -0.15864 3.72210 122 83 55
-0.15306 -0.21653 3.71550 122 83 55
-0.08277 -0.25192 3.71602 122 83 55
0.00500 -0.26512 3.72374 122 83 55
0.08334 -0.25173 3.71825 122 83 55
0.15704 -0.21366 3.70858 122 83 55
0.21652 -0.15307 3.73217 122 83 55
0.25147 -0.08411 3.73216 122 83 55
0.25282 -0.00355 3.84617 122 83 55
0.23934 0.08154 3.83921 122 83 55
0.20645 0.14598 3.82995 122 83 55
0.15182 0.20219 3.82763 122 83 55
0.07845 0.24037 3.83790 122 83 55
0.00493 0.25280 3.82833 122 83 55
-0.07862 0.24031 3.85082 122 83 55
-0.15004 0.20352 3.84182 122 83 55
-0.20695 0.14527 3.84410 122 83 55
-0.24037 0.07844 3.83497 122 83 55
-0.25284 -0.00212 3.83145 122 83 55
-0.24088 -0.07684 3.83768 122 83 55
-0.20487 -0.14819 3.82948 122 83 55
-0.14757 -0.20531 3.85055 122 83 55
-0.07569 -0.24125 3.84993 122 83 55
-0.00160 -0.25284 3.83575 122 83 55
0.07338 -0.24196 3.83228 122 83 55
0.14849 -0.20464 3.84467 122 83 55
0.20479 -0.14830 3.83602 122 83 55
0.24043 -0.07826 3.84202 122 83 55
0.24389 0.00032 3.96286 122 83 55
0.23202 0.07515 3.96253 122 83 55
0.19485 0.14667 3.97056 122 83 55
0.14196 0.19831 3.95237 122 83 55
0.07164 0.23313 3.96632 122 83 55
-0.00145 0.24388 3.94889 122 83 55
-0.07834 0.23096 3.94881 122 83 55
-0.14209 0.19822 3.95851 122 83 55
-0.19803 0.14236 3.94921 122 83 55
-0.23082 0.07876 3.94855 122 83 55
-0.24385 0.00413 3.95798 122 83 55
-0.23238 -0.07402 3.95558 122 83 55
-0.19791 -0.14252 3.97023 122 83 55
-0.13983 -0.19982 3.95848 122 83 55
-0.07869 -0.23084 3.96872 122 83 55
-0.00258 -0.24387 3.95125 122 83 55
0.07438 -0.23227 3.97009 122 83 55
0.13994 -0.19975 3.95641 122 83 55
0.19772 -0.14279 3.96574 122 83 55
0.23240 -0.07396 3.95136 122 83 55
0.24251 -0.00031 4.09039 122 83 55
0.22940 0.07866 4.08110 122 83 55
0.19714 0.14123 4.09245 122 83 55
0.14457 0.19471 4.07221 122 83 55
0.07883 0.22934 4.08151 122 83 55
-0.00450 0.24247 4.08903 122 83 55
-0.07881 0.22934 4.08469 122 83 55
-0.14452 0.19474 4.07930 122 83 55
-0.19376 0.14584 4.07466 122 83 55
-0.23190 0.07094 4.08779 122 83 55
-0.24250 0.00203 4.06853 122 83 55
-0.23067 -0.07483 4.07774 122 83 55
-0.19730 -0.14101 4.06795 122 83 55
-0.14632 -0.19339 4.07097 122 83 55
-0.07400 -0.23094 4.07210 122 83 55
-0.00420 -0.24247 4.07915 122 83 55
0.07932 -0.22917 4.07646 122 83 55
0.14336 -0.19560 4.07956 122 83 55
0.19777 -0.14035 4.07646 122 83 55
0.23062 -0.07501 4.07016 122 83 55
0.24932 0.00404 4.19648 122 83 55
0.23789 0.07474 4.19004 122 83 55
0.19953 0.14955 4.20567 122 83 55
0.14623 0.20198 4.20744 122 83 55
0.07683 0.23722 4.20875 122 83 55
-0.00484 0.24931 4.20390 122 83 55
-0.07465 0.23792 4.20570 122 83 55
-0.14623 0.20197 4.18932 122 83 55
-0.20302 0.14477 4.19578 122 83 55
-0.23825 0.07358 4.18883 122 83 55
-0.24935 -0.00075 4.18763 122 83 55
-0.23566 -0.08149 4.20397 122 83 55
-0.20175 -0.14654 4.19820 122 83 55
-0.14296 -0.20431 4.19639 122 83 55
-0.07570 -0.23759 4.20974 122 83 55
0.00098 -0.24935 4.20414 122 83 55
0.07629 -0.23740 4.21023 122 83 55
0.14638 -0.20187 4.20629 122 83 55
0.20442 -0.14279 4.19879 122 83 55
0.23655 -0.07889 4.20843 122 83 55
0.26118 0.00423 4.31416 122 83 55
0.24855 0.08034 4.32224 122 83 55
0.21301 0.15118 4.31022 122 83 55
0.15406 0.21094 4.32920 122 83 55
0.08266 0.24778 4.32895 122 83 55
0.00002 0.26121 4.31929 122 83 55
-0.08077 0.24841 4.32759 122 83 55
-0.15757 0.20833 4.32694 122 83 55
-0.21316 0.15098 4.32280 122 83 55
-0.24983 0.07625 4.31785 122 83 55
-0.26121 0.00141 4.32592 122 83 55
-0.24957 -0.07710 4.31630 122 83 55
-0.21357 -0.15039 4.31489 122 83 55
-0.15423 -0.21082 4.30915 122 83 55
-0.07883 -0.24903 4.32420 122 83 55
-0.00304 -0.26119 4.32360 122 83 55
0.07669 -0.24970 4.31610 122 83 55
0.15396 -0.21102 4.33238 122 83 55
0.21060 -0.15452 4.32688 122 83 55
0.24936 -0.07777 4.32100 122 83 55
0.27246 0.00453 4.43385 122 83 55
0.26040 0.08028 4.42826 122 83 55
0.21815 0.16329 4.42952 122 83 55
0.16189 0.21919 4.43709 122 83 55
0.08559 0.25871 4.44096 122 83 55
0.00035 0.27249 4.44432 122 83 55
-0.08252 0.25970 4.43841 122 83 55
-0.16253 0.21872 4.44420 122 83 55
-0.22206 0.15794 4.43359 122 83 55
-0.25814 0.08728 4.44160 122 83 55
-0.27244 -0.00536 4.42931 122 83 55
-0.25745 -0.08928 4.44717 122 83 55
-0.21933 -0.16170 4.42826 122 83 55
-0.16223 -0.21894 4.42803 122 83 55
-0.08059 -0.26031 4.44521 122 83 55
0.00523 -0.27244 4.44870 122 83 55
0.08546 -0.25875 4.44788 122 83 55
0.15816 -0.22190 4.44331 122 83 55
0.22077 -0.15973 4.43320 122 83 55
0.25988 -0.08194 4.44131 122 83 55
0.27790 -0.00143 4.57190 122 83 55
0.26537 0.08253 4.57034 122 83 55
0.22214 0.16698 4.57038 122 83 55
0.16575 0.22306 4.55078 122 83 55
0.08901 0.26326 4.55051 122 83 55
0.00245 0.27789 4.54826 122 83 55
-0.08338 0.26510 4.55380 122 83 55
-0.16756 0.22171 4.55622 122 83 55
-0.22754 0.15954 4.55788 122 83 55
-0.26414 0.08637 4.56205 122 83 55
-0.27790 -0.00210 4.55452 122 83 55
-0.26424 -0.08606 4.56171 122 83 55
-0.22357 -0.16506 4.55945 122 83 55
-0.16051 -0.22686 4.55863 122 83 55
-0.08102 -0.26583 4.56070 122 83 55
0.00092 -0.27790 4.56941 122 83 55
0.08798 -0.26361 4.56835 122 83 55
0.16429 -0.22414 4.56458 122 83 55
0.22397 -0.16452 4.55976 122 83 55
0.26374 -0.08759 4.55437 122 83 55
0.27489 0.00114 4.69081 122 83 55
0.26168 0.08418 4.68042 122 83 55
0.22331 0.16031 4.68460 122 83 55
0.16558 0.21943 4.69076 122 83 55
0.08160 0.26250 4.68569 122 83 55
-0.00314 0.27487 4.67644 122 83 55
-0.08943 0.25994 4.67387 122 83 55
-0.15720 0.22551 4.67979 122 83 55
-0.22302 0.16071 4.68799 122 83 55
-0.26289 0.08035 4.69008 122 83 55
-0.27486 -0.00447 4.67133 122 83 55
-0.26029 -0.08841 4.67908 122 83 55
-0.21955 -0.16542 4.67155 122 83 55
-0.16540 -0.21956 4.67487 122 83 55
-0.07994 -0.26301 4.68927 122 83 55
0.00531 -0.27484 4.68370 122 83 55
0.08262 -0.26218 4.67568 122 83 55
0.16381 -0.22076 4.67599 122 83 55
0.22287 -0.16091 4.68593 122 83 55
0.26209 -0.08292 4.68367 122 83 55
0.26483 -0.00469 4.79595 122 83 55
0.25104 0.08449 4.80733 122 83 55
0.21397 0.15613 4.80711 122 83 55
0.15872 0.21205 4.79811 122 83 55
0.08672 0.25028 4.78896 122 83 55
0.00354 0.26485 4.80512 122 83 55
-0.08361 0.25134 4.79170 122 83 55
-0.15979 0.21125 4.81089 122 83 55
-0.21345 0.15683 4.79128 122 83 55
-0.25267 0.07948 4.80815 122 83 55
-0.26484 -0.00463 4.79136 122 83 55
-0.25307 -0.07819 4.80788 122 83 55
-0.21270 -0.15785 4.80233 122 83 55
-0.15408 -0.21545 4.78952 122 83 55
-0.08013 -0.25246 4.80426 122 83 55
0.00491 -0.26483 4.79072 122 83 55
0.07704 -0.25342 4.80643 122 83 55
0.15752 -0.21295 4.79000 122 83 55
0.21417 -0.15585 4.79783 122 83 55
0.25248 -0.08007 4.79224 122 83 55
0.25255 0.00327 4.90882 122 83 55
0.24069 0.07654 4.92790 122 83 55
0.20136 0.15246 4.92064 122 83 55
0.15151 0.20208 4.91832 122 83 55
0.07336 0.24168 4.91081 122 83 55
-0.00104 0.25257 4.91053 122 83 55
-0.07712 0.24050 4.92828 122 83 55
-0.15131 0.20223 4.91641 122 83 55
-0.20586 0.14633 4.92398 122 83 55
-0.24171 0.07327 4.92221 122 83 55
-0.25254 -0.00357 4.92332 122 83 55
-0.24024 -0.07794 4.92058 122 83 55
-0.20244 -0.15102 4.92342 122 83 55
-0.14603 -0.20607 4.91387 122 83 55
-0.07702 -0.24054 4.90941 122 83 55
-0.00054 -0.25257 4.92312 122 83 55
0.07423 -0.24141 4.91504 122 83 55
0.14967 -0.20344 4.91917 122 83 55
0.20162 -0.15211 4.90929 122 83 55
0.24151 -0.07392 4.92272 122 83 55
0.24375 -0.00009 5.04193 122 83 55
0.23186 0.07523 5.04723 122 83 55
0.19725 0.14320 5.04701 122 83 55
0.14523 0.19577 5.04920 122 83 55
0.07784 0.23099 5.02987 122 83 55
-0.00261 0.24374 5.05188 122 83 55
-0.07797 0.23095 5.04413 122 83 55
-0.14311 0.19732 5.03981 122 83 55
-0.19561 0.14543 5.04673 122 83 55
-0.23327 0.07073 5.05248 122 83 55
-0.24374 -0.00258 5.02997 122 83 55
-0.23221 -0.07413 5.04210 122 83 55
-0.19925 -0.14042 5.05112 122 83 55
-0.14259 -0.19770 5.03134 122 83 55
-0.07551 -0.23176 5.04104 122 83 55
0.00141 -0.24375 5.04335 122 83 55
0.07324 -0.23249 5.02997 122 83 55
0.13966 -0.19978 5.03265 122 83 55
0.19582 -0.14516 5.03434 122 83 55
0.23195 -0.07492 5.05152 122 83 55
0.24257 -0.00197 5.15024 122 83 55
0.23094 0.07425 5.16302 122 83 55
0.19579 0.14322 5.16494 122 83 55
0.14084 0.19751 5.15285 122 83 55
0.07261 0.23146 5.14966 122 83 55
0.00369 0.24255 5.16855 122 83 55
-0.07722 0.22996 5.15242 122 83 55
-0.14216 0.19656 5.17091 122 83 55
-0.19580 0.14321 5.16656 122 83 55
-0.23213 0.07044 5.16345 122 83 55
-0.24258 0.00119 5.16152 122 83 55
-0.23188 -0.07126 5.15235 122 83 55
-0.19657 -0.14214 5.15873 122 83 55
-0.14064 -0.19765 5.16030 122 83 55
-0.07282 -0.23139 5.17179 122 83 55
-0.00474 -0.24254 5.15406 122 83 55
0.07317 -0.23128 5.16136 122 83 55
0.14420 -0.19507 5.15175 122 83 55
0.19800 -0.14015 5.16130 122 83 55
0.23096 -0.07420 5.15703 122 83 55
0.24960 0.00105 5.28406 122 83 55
0.23639 0.08013 5.26891 122 83 55
0.20314 0.14503 5.27942 122 83 55
0.14476 0.20334 5.28167 122 83 55
0.07582 0.23781 5.27190 122 83 55
0.00483 0.24955 5.29120 122 83 55
-0.07509 0.23804 5.28367 122 83 55
-0.14830 0.20077 5.27975 122 83 55
-0.20367 0.14429 5.28057 122 83 55
-0.23859 0.07333 5.28283 122 83 55
-0.24957 -0.00372 5.29066 122 83 55
-0.23883 -0.07253 5.27788 122 83 55
-0.20017 -0.14911 5.29052 122 83 55
-0.14514 -0.20306 5.28081 122 83 55
-0.07722 -0.23735 5.29100 122 83 55
-0.00493 -0.24955 5.27259 122 83 55
0.07888 -0.23681 5.28527 122 83 55
0.14714 -0.20162 5.28453 122 83 55
0.19958 -0.14990 5.27839 122 83 55
0.23711 -0.07798 5.27689 122 83 55
