ply
format ascii 1.0
comment SIMULATED DEMO - NOT FIELD EVIDENCE
element vertex 900
property float x
property float y
property float z
property uchar red
property uchar green
property uchar blue
end_header
0.25998 -0.00283 -0.00386 122 83 55
0.24707 0.08097 0.00466 122 83 55
0.20787 0.15618 -0.00445 122 83 55
0.15598 0.20802 0.00972 122 83 55
0.08045 0.24724 -0.00990 122 83 55
-0.00012 0.26000 -0.00119 122 83 55
-0.07551 0.24879 0.00219 122 83 55
-0.14861 0.21334 -0.00900 122 83 55
-0.21259 0.14968 0.00617 122 83 55
-0.24721 0.08055 -0.00184 122 83 55
-0.25996 0.00471 -0.00217 122 83 55
-0.24751 -0.07963 -0.00266 122 83 55
-0.21130 -0.15150 -0.00673 122 83 55
-0.15132 -0.21143 0.00850 122 83 55
-0.07641 -0.24852 -0.00191 122 83 55
-0.00288 -0.25998 0.00914 122 83 55
0.07924 -0.24763 -0.00586 122 83 55
0.15440 -0.20919 -0.00119 122 83 55
0.21133 -0.15145 -0.00258 122 83 55
0.24655 -0.08254 0.00752 122 83 55
0.27159 0.00235 0.11690 122 83 55
0.25898 0.08182 0.11859 122 83 55
0.22129 0.15746 0.11017 122 83 55
0.15931 0.21996 0.11741 122 83 55
0.08640 0.25749 0.10829 122 83 55
0.00378 0.27157 0.12921 122 83 55
-0.08190 0.25895 0.11334 122 83 55
-0.16234 0.21774 0.11472 122 83 55
-0.21978 0.15957 0.12836 122 83 55
-0.25735 0.08679 0.12438 122 83 55
-0.27159 0.00103 0.11582 122 83 55
-0.25869 -0.08272 0.12255 122 83 55
-0.22206 -0.15637 0.12676 122 83 55
-0.16339 -0.21695 0.11465 122 83 55
-0.08247 -0.25877 0.12923 122 83 55
-0.00039 -0.27160 0.12149 122 83 55
0.08839 -0.25681 0.12066 122 83 55
0.16354 -0.21684 0.12595 122 83 55
0.21938 -0.16012 0.11533 122 83 55
0.25801 -0.08481 0.12394 122 83 55
0.27771 -0.00429 0.24910 122 83 55
0.26351 0.08776 0.23724 122 83 55
0.22293 0.16566 0.23494 122 83 55
0.16045 0.22670 0.23756 122 83 55
0.08225 0.26528 0.22903 122 83 55
0.00097 0.27774 0.23217 122 83 55
-0.08638 0.26396 0.24848 122 83 55
-0.16156 0.22591 0.24268 122 83 55
-0.22216 0.16669 0.23785 122 83 55
-0.26269 0.09017 0.23989 122 83 55
-0.27774 -0.00026 0.24306 122 83 55
-0.26466 -0.08421 0.23389 122 83 55
-0.22786 -0.15881 0.24748 122 83 55
-0.16032 -0.22680 0.23979 122 83 55
-0.08797 -0.26344 0.23609 122 83 55
0.00112 -0.27774 0.25062 122 83 55
0.08196 -0.26537 0.23511 122 83 55
0.15918 -0.22760 0.23045 122 83 55
0.22659 -0.16061 0.23052 122 83 55
0.26353 -0.08768 0.24676 122 83 55
0.27554 -0.00011 0.37035 122 83 55
0.26218 0.08476 0.36251 122 83 55
0.21989 0.16604 0.37158 122 83 55
0.16236 0.22262 0.34944 122 83 55
0.08425 0.26234 0.35410 122 83 55
-0.00349 0.27552 0.36072 122 83 55
-0.08856 0.26092 0.35512 122 83 55
-0.16237 0.22261 0.35678 122 83 55
-0.22543 0.15844 0.35887 122 83 55
-0.26204 0.08518 0.36001 122 83 55
-0.27551 -0.00378 0.36252 122 83 55
-0.26200 -0.08531 0.34973 122 83 55
-0.22225 -0.16287 0.37072 122 83 55
-0.15810 -0.22567 0.35556 122 83 55
-0.08457 -0.26224 0.37212 122 83 55
-0.00336 -0.27552 0.36800 122 83 55
0.08728 -0.26135 0.35774 122 83 55
0.16455 -0.22100 0.36705 122 83 55
0.22343 -0.16125 0.37223 122 83 55
0.26274 -0.08300 0.35002 122 83 55
0.26603 -0.00150 0.49012 122 83 55
0.25449 0.07751 0.49188 122 83 55
0.21272 0.15975 0.47576 122 83 55
0.15522 0.21605 0.48696 122 83 55
0.08111 0.25336 0.48670 122 83 55
-0.00247 0.26602 0.47251 122 83 55
-0.08168 0.25318 0.48632 122 83 55
-0.15231 0.21811 0.49085 122 83 55
-0.21444 0.15744 0.48824 122 83 55
-0.25368 0.08012 0.47780 122 83 55
-0.26599 0.00462 0.49090 122 83 55
-0.25391 -0.07939 0.47672 122 83 55
-0.21338 -0.15888 0.48205 122 83 55
-0.16047 -0.21218 0.47347 122 83 55
-0.08031 -0.25362 0.47922 122 83 55
-0.00094 -0.26603 0.48384 122 83 55
0.08558 -0.25189 0.47840 122 83 55
0.15408 -0.21687 0.48161 122 83 55
0.21770 -0.15290 0.48949 122 83 55
0.25177 -0.08593 0.48599 122 83 55
0.25367 -0.00242 0.58826 122 83 55
0.24126 0.07842 0.60423 122 83 55
0.20341 0.15159 0.60582 122 83 55
0.14932 0.20509 0.59078 122 83 55
0.07463 0.24246 0.60285 122 83 55
0.00035 0.25369 0.61091 122 83 55
-0.07511 0.24231 0.60719 122 83 55
-0.14627 0.20727 0.60312 122 83 55
-0.20313 0.15197 0.59951 122 83 55
-0.24270 0.07383 0.59045 122 83 55
-0.25366 -0.00395 0.59296 122 83 55
-0.24165 -0.07723 0.60263 122 83 55
-0.20231 -0.15306 0.59933 122 83 55
-0.14832 -0.20581 0.59165 122 83 55
-0.07506 -0.24233 0.60993 122 83 55
0.00022 -0.25369 0.61021 122 83 55
0.07389 -0.24269 0.60122 122 83 55
0.15306 -0.20231 0.60313 122 83 55
0.20777 -0.14556 0.60602 122 83 55
0.24166 -0.07719 0.59363 122 83 55
0.24429 -0.00334 0.71763 122 83 55
0.23081 0.08008 0.72218 122 83 55
0.19763 0.14364 0.71045 122 83 55
0.14200 0.19881 0.71216 122 83 55
0.07784 0.23158 0.71171 122 83 55
-0.00168 0.24431 0.71271 122 83 55
-0.07196 0.23347 0.71550 122 83 55
-0.14645 0.19555 0.72534 122 83 55
-0.19687 0.14468 0.71117 122 83 55
-0.23083 0.08003 0.72729 122 83 55
-0.24431 -0.00055 0.70986 122 83 55
-0.23315 -0.07301 0.71573 122 83 55
-0.19943 -0.14112 0.72364 122 83 55
-0.14317 -0.19797 0.71816 122 83 55
-0.07851 -0.23135 0.71354 122 83 55
0.00207 -0.24430 0.72574 122 83 55
0.07805 -0.23151 0.72855 122 83 55
0.14587 -0.19599 0.71236 122 83 55
0.19817 -0.14289 0.71426 122 83 55
0.23241 -0.07532 0.70859 122 83 55
0.24231 0.00130 0.84567 122 83 55
0.23090 0.07351 0.85097 122 83 55
0.19522 0.14354 0.83053 122 83 55
0.14189 0.19643 0.84323 122 83 55
0.07852 0.22924 0.83011 122 83 55
0.00414 0.24228 0.84231 122 83 55
-0.07663 0.22988 0.85121 122 83 55
-0.14361 0.19517 0.83841 122 83 55
-0.19349 0.14587 0.84397 122 83 55
-0.23133 0.07214 0.82929 122 83 55
-0.24230 0.00275 0.85164 122 83 55
-0.23069 -0.07416 0.85074 122 83 55
-0.19367 -0.14563 0.82948 122 83 55
-0.14603 -0.19337 0.84576 122 83 55
-0.07267 -0.23116 0.83636 122 83 55
-0.00275 -0.24230 0.84190 122 83 55
0.07890 -0.22911 0.83379 122 83 55
0.14200 -0.19635 0.83696 122 83 55
0.19342 -0.14596 0.83339 122 83 55
0.23094 -0.07339 0.84979 122 83 55
0.24860 0.00413 0.96019 122 83 55
0.23773 0.07284 0.96902 122 83 55
0.19978 0.14802 0.96502 122 83 55
0.14924 0.19886 0.94888 122 83 55
0.08094 0.23509 0.97104 122 83 55
0.00006 0.24864 0.95254 122 83 55
-0.07263 0.23779 0.97023 122 83 55
-0.14930 0.19882 0.94952 122 83 55
-0.20005 0.14765 0.96716 122 83 55
-0.23690 0.07548 0.95519 122 83 55
-0.24861 0.00399 0.95365 122 83 55
-0.23690 -0.07550 0.96135 122 83 55
-0.19901 -0.14905 0.96884 122 83 55
-0.14543 -0.20167 0.95342 122 83 55
-0.07919 -0.23569 0.96106 122 83 55
0.00254 -0.24862 0.97079 122 83 55
0.07289 -0.23771 0.94835 122 83 55
0.14233 -0.20387 0.94822 122 83 55
0.20403 -0.14210 0.95649 122 83 55
0.23769 -0.07295 0.95754 122 83 55
0.26029 0.00208 1.08909 122 83 55
0.24712 0.08178 1.06989 122 83 55
0.21343 0.14902 1.07585 122 83 55
0.15114 0.21193 1.07522 122 83 55
0.08233 0.24694 1.07124 122 83 55
0.00307 0.26028 1.07197 122 83 55
-0.08190 0.24708 1.08212 122 83 55
-0.15270 0.21081 1.07099 122 83 55
-0.20871 0.15555 1.08401 122 83 55
-0.24795 0.07925 1.08914 122 83 55
-0.26030 -0.00002 1.07215 122 83 55
-0.24618 -0.08456 1.06927 122 83 55
-0.21073 -0.15280 1.08944 122 83 55
-0.15196 -0.21134 1.08426 122 83 55
-0.07918 -0.24797 1.08497 122 83 55
-0.00225 -0.26029 1.06957 122 83 55
0.08082 -0.24744 1.08774 122 83 55
0.15226 -0.21113 1.08439 122 83 55
0.21239 -0.15049 1.08669 122 83 55
0.24895 -0.07604 1.08327 122 83 55
0.27181 0.00329 1.20925 122 83 55
0.26006 0.07911 1.20595 122 83 55
0.22187 0.15705 1.20695 122 83 55
0.16413 0.21668 1.20960 122 83 55
0.08093 0.25950 1.20787 122 83 55
-0.00090 0.27182 1.19390 122 83 55
-0.08271 0.25894 1.20192 122 83 55
-0.16126 0.21882 1.20053 122 83 55
-0.22015 0.15945 1.20619 122 83 55
-0.25774 0.08636 1.19999 122 83 55
-0.27182 -0.00095 1.19394 122 83 55
-0.25874 -0.08332 1.18988 122 83 55
-0.22162 -0.15740 1.19201 122 83 55
-0.16225 -0.21809 1.20007 122 83 55
-0.08559 -0.25800 1.18758 122 83 55
-0.00477 -0.27178 1.21135 122 83 55
0.08171 -0.25925 1.19160 122 83 55
0.15642 -0.22231 1.20048 122 83 55
0.21903 -0.16098 1.21242 122 83 55
0.25817 -0.08508 1.20575 122 83 55
0.27778 0.00118 1.31937 122 83 55
0.26341 0.08820 1.30849 122 83 55
0.22294 0.16573 1.31727 122 83 55
0.15889 0.22786 1.31714 122 83 55
0.08808 0.26345 1.32920 122 83 55
0.00467 0.27775 1.31676 122 83 55
-0.08772 0.26357 1.31601 122 83 55
-0.16337 0.22467 1.32817 122 83 55
-0.22477 0.16323 1.31730 122 83 55
-0.26470 0.08427 1.32699 122 83 55
-0.27773 -0.00549 1.30999 122 83 55
-0.26577 -0.08081 1.30941 122 83 55
-0.22277 -0.16595 1.32662 122 83 55
-0.16603 -0.22271 1.31244 122 83 55
-0.08455 -0.26461 1.31200 122 83 55
-0.00531 -0.27774 1.30777 122 83 55
0.08734 -0.26370 1.32786 122 83 55
0.16319 -0.22480 1.31972 122 83 55
0.22749 -0.15942 1.32173 122 83 55
0.26347 -0.08803 1.32392 122 83 55
0.27538 -0.00188 1.45200 122 83 55
0.26065 0.08888 1.43447 122 83 55
0.22263 0.16208 1.42795 122 83 55
0.16085 0.22352 1.42890 122 83 55
0.08855 0.26076 1.44940 122 83 55
-0.00008 0.27538 1.43621 122 83 55
-0.08391 0.26229 1.43702 122 83 55
-0.15953 0.22446 1.44467 122 83 55
-0.22598 0.15738 1.45051 122 83 55
-0.26243 0.08345 1.44222 122 83 55
-0.27537 0.00263 1.42824 122 83 55
-0.26287 -0.08206 1.43874 122 83 55
-0.22598 -0.15738 1.42809 122 83 55
-0.16156 -0.22301 1.44043 122 83 55
-0.08619 -0.26155 1.43549 122 83 55
-0.00031 -0.27538 1.43298 122 83 55
0.08864 -0.26073 1.43597 122 83 55
0.15856 -0.22515 1.43651 122 83 55
0.22330 -0.16116 1.43065 122 83 55
0.26291 -0.08193 1.45131 122 83 55
0.26571 -0.00414 1.54950 122 83 55
0.25175 0.08510 1.56484 122 83 55
0.21501 0.15618 1.55843 122 83 55
0.15568 0.21537 1.55659 122 83 55
0.08615 0.25139 1.55737 122 83 55
-0.00139 0.26574 1.56371 122 83 55
-0.08108 0.25307 1.54788 122 83 55
-0.15400 0.21657 1.55154 122 83 55
-0.21720 0.15312 1.55517 122 83 55
-0.25343 0.07997 1.56447 122 83 55
-0.26570 0.00460 1.55036 122 83 55
-0.25154 -0.08571 1.56868 122 83 55
-0.21453 -0.15683 1.56542 122 83 55
-0.15955 -0.21252 1.56979 122 83 55
-0.08590 -0.25148 1.55416 122 83 55
-0.00442 -0.26571 1.54938 122 83 55
0.07999 -0.25342 1.55917 122 83 55
0.15809 -0.21360 1.57097 122 83 55
0.21578 -0.15511 1.55060 122 83 55
0.25207 -0.08415 1.56194 122 83 55
0.25337 0.00402 1.67917 122 83 55
0.23960 0.08248 1.67935 122 83 55
0.20214 0.15282 1.67678 122 83 55
0.15009 0.20417 1.68379 122 83 55
0.07867 0.24088 1.68964 122 83 55
0.00424 0.25337 1.67169 122 83 55
-0.07498 0.24206 1.68481 122 83 55
-0.14675 0.20659 1.67265 122 83 55
-0.20718 0.14592 1.67752 122 83 55
-0.24166 0.07625 1.67473 122 83 55
-0.25339 0.00230 1.68766 122 83 55
-0.24124 -0.07757 1.67686 122 83 55
-0.20352 -0.15098 1.68037 122 83 55
-0.14736 -0.20615 1.68872 122 83 55
-0.07922 -0.24070 1.68156 122 83 55
-0.00286 -0.25339 1.68472 122 83 55
0.08082 -0.24017 1.69080 122 83 55
0.14557 -0.20742 1.67506 122 83 55
0.20661 -0.14672 1.66994 122 83 55
0.24176 -0.07593 1.68787 122 83 55
0.24414 -0.00343 1.81239 122 83 55
0.23097 0.07919 1.80797 122 83 55
0.19921 0.14119 1.78893 122 83 55
0.14080 0.19948 1.80878 122 83 55
0.07420 0.23262 1.79234 122 83 55
-0.00070 0.24416 1.79029 122 83 55
-0.07971 0.23079 1.80948 122 83 55
-0.14536 0.19618 1.79230 122 83 55
-0.19815 0.14266 1.80548 122 83 55
-0.23168 0.07708 1.80823 122 83 55
-0.24415 -0.00283 1.79099 122 83 55
-0.23211 -0.07577 1.81121 122 83 55
-0.19669 -0.14467 1.79002 122 83 55
-0.14488 -0.19653 1.80030 122 83 55
-0.07653 -0.23186 1.81150 122 83 55
0.00043 -0.24417 1.81094 122 83 55
0.07383 -0.23274 1.80974 122 83 55
0.14464 -0.19671 1.79021 122 83 55
0.19515 -0.14674 1.79946 122 83 55
0.23184 -0.07660 1.79324 122 83 55
0.24237 -0.00132 1.91784 122 83 55
0.23194 0.07037 1.90892 122 83 55
0.19348 0.14598 1.91708 122 83 55
0.13941 0.19827 1.91396 122 83 55
0.07889 0.22918 1.92222 122 83 55
0.00066 0.24237 1.93064 122 83 55
-0.07088 0.23178 1.92020 122 83 55
-0.14571 0.19368 1.91996 122 83 55
-0.19367 0.14573 1.92748 122 83 55
-0.23072 0.07425 1.92303 122 83 55
-0.24236 0.00245 1.91975 122 83 55
-0.22944 -0.07812 1.92493 122 83 55
-0.19621 -0.14229 1.92838 122 83 55
-0.13878 -0.19871 1.91131 122 83 55
-0.07943 -0.22899 1.91979 122 83 55
0.00467 -0.24233 1.92444 122 83 55
0.07144 -0.23161 1.92988 122 83 55
0.13900 -0.19856 1.93159 122 83 55
0.19802 -0.13976 1.93206 122 83 55
0.23111 -0.07303 1.92491 122 83 55
0.24887 -0.00101 2.04374 122 83 55
0.23809 0.07248 2.04813 122 83 55
0.19929 0.14907 2.04213 122 83 55
0.14638 0.20128 2.03676 122 83 55
0.07997 0.23567 2.03675 122 83 55
0.00045 0.24887 2.03474 122 83 55
-0.07802 0.23633 2.05212 122 83 55
-0.14799 0.20010 2.03152 122 83 55
-0.19940 0.14892 2.03039 122 83 55
-0.23744 0.07458 2.04520 122 83 55
-0.24887 0.00016 2.04995 122 83 55
-0.23743 -0.07461 2.03808 122 83 55
-0.20095 -0.14683 2.05220 122 83 55
-0.14663 -0.20109 2.04780 122 83 55
-0.08108 -0.23530 2.03017 122 83 55
0.00453 -0.24883 2.02798 122 83 55
0.08123 -0.23524 2.03858 122 83 55
0.14509 -0.20220 2.04887 122 83 55
0.19885 -0.14966 2.04139 122 83 55
0.23767 -0.07382 2.03970 122 83 55
0.26060 0.00119 2.16425 122 83 55
0.24844 0.07870 2.15542 122 83 55
0.21033 0.15387 2.16017 122 83 55
0.15627 0.20856 2.16717 122 83 55
0.08498 0.24636 2.14825 122 83 55
0.00464 0.26056 2.15181 122 83 55
-0.07932 0.24824 2.16658 122 83 55
-0.15112 0.21232 2.16213 122 83 55
-0.21334 0.14967 2.16143 122 83 55
-0.24828 0.07919 2.16556 122 83 55
-0.26058 -0.00359 2.17130 122 83 55
-0.24825 -0.07929 2.15073 122 83 55
-0.21278 -0.15046 2.16064 122 83 55
-0.15052 -0.21274 2.17207 122 83 55
-0.08521 -0.24628 2.16920 122 83 55
0.00475 -0.26056 2.16412 122 83 55
0.08213 -0.24732 2.14932 122 83 55
0.15056 -0.21271 2.16359 122 83 55
0.20807 -0.15691 2.16960 122 83 55
0.24641 -0.08483 2.15809 122 83 55
0.27203 0.00364 2.28981 122 83 55
0.25982 0.08064 2.28211 122 83 55
0.21768 0.16318 2.27801 122 83 55
0.16006 0.21999 2.27179 122 83 55
0.07922 0.26026 2.29210 122 83 55
-0.00258 0.27204 2.29137 122 83 55
-0.08182 0.25946 2.27947 122 83 55
-0.16115 0.21919 2.27553 122 83 55
-0.22055 0.15928 2.27923 122 83 55
-0.25717 0.08874 2.28793 122 83 55
-0.27204 0.00227 2.27344 122 83 55
-0.25919 -0.08265 2.28262 122 83 55
-0.22225 -0.15690 2.27917 122 83 55
-0.15705 -0.22214 2.27628 122 83 55
-0.08117 -0.25966 2.28526 122 83 55
-0.00089 -0.27205 2.27527 122 83 55
0.08224 -0.25932 2.26833 122 83 55
0.16054 -0.21964 2.28306 122 83 55
0.21999 -0.16006 2.27916 122 83 55
0.26004 -0.07995 2.26956 122 83 55
0.27780 -0.00434 2.39163 122 83 55
0.26387 0.08696 2.41029 122 83 55
0.22619 0.16133 2.39784 122 83 55
0.16429 0.22405 2.39450 122 83 55
0.08351 0.26498 2.40907 122 83 55
-0.00425 0.27780 2.40268 122 83 55
-0.08901 0.26319 2.40362 122 83 55
-0.16760 0.22159 2.41007 122 83 55
-0.22497 0.16303 2.39392 122 83 55
-0.26477 0.08419 2.40403 122 83 55
-0.27782 0.00193 2.39614 122 83 55
-0.26573 -0.08111 2.38946 122 83 55
-0.22544 -0.16237 2.40747 122 83 55
-0.15930 -0.22763 2.40265 122 83 55
-0.09064 -0.26263 2.40663 122 83 55
0.00455 -0.27779 2.39020 122 83 55
0.08375 -0.26491 2.40032 122 83 55
0.16586 -0.22289 2.39086 122 83 55
0.22524 -0.16266 2.39373 122 83 55
0.26321 -0.08893 2.38951 122 83 55
0.27521 -0.00222 2.51523 122 83 55
0.26224 0.08353 2.51357 122 83 55
0.22068 0.16446 2.51591 122 83 55
0.16445 0.22069 2.50862 122 83 55
0.08220 0.26266 2.51656 122 83 55
-0.00376 0.27520 2.53091 122 83 55
-0.08080 0.26310 2.53038 122 83 55
-0.16428 0.22082 2.52617 122 83 55
-0.21943 0.16612 2.52125 122 83 55
-0.26061 0.08849 2.51988 122 83 55
-0.27521 -0.00255 2.51865 122 83 55
-0.26214 -0.08385 2.53072 122 83 55
-0.22535 -0.15801 2.53136 122 83 55
-0.16151 -0.22285 2.51515 122 83 55
-0.08276 -0.26249 2.51359 122 83 55
0.00150 -0.27522 2.51221 122 83 55
0.08029 -0.26325 2.51820 122 83 55
0.16358 -0.22134 2.51386 122 83 55
0.22514 -0.15830 2.52809 122 83 55
0.26294 -0.08131 2.51765 122 83 55
0.26546 -0.00042 2.63299 122 83 55
0.25335 0.07926 2.64448 122 83 55
0.21592 0.15442 2.63522 122 83 55
0.15710 0.21398 2.64569 122 83 55
0.08514 0.25143 2.64410 122 83 55
0.00166 0.26545 2.64977 122 83 55
-0.07734 0.25394 2.65007 122 83 55
-0.15726 0.21386 2.63040 122 83 55
-0.21514 0.15551 2.65084 122 83 55
-0.25339 0.07912 2.63375 122 83 55
-0.26542 0.00410 2.63800 122 83 55
-0.25353 -0.07866 2.63903 122 83 55
-0.21295 -0.15849 2.64885 122 83 55
-0.15716 -0.21393 2.64783 122 83 55
-0.07734 -0.25394 2.64960 122 83 55
-0.00266 -0.26544 2.63385 122 83 55
0.08456 -0.25163 2.64699 122 83 55
0.15488 -0.21559 2.64085 122 83 55
0.21181 -0.16001 2.63210 122 83 55
0.25263 -0.08152 2.64807 122 83 55
0.25308 -0.00446 2.76084 122 83 55
0.23993 0.08067 2.74835 122 83 55
0.20307 0.15111 2.76741 122 83 55
0.14916 0.20451 2.75081 122 83 55
0.07882 0.24054 2.75775 122 83 55
0.00286 0.25311 2.77076 122 83 55
-0.08279 0.23920 2.76169 122 83 55
-0.14672 0.20626 2.75113 122 83 55
-0.20433 0.14941 2.75345 122 83 55
-0.24223 0.07345 2.76576 122 83 55
-0.25311 0.00235 2.76152 122 83 55
-0.24187 -0.07462 2.76614 122 83 55
-0.20551 -0.14777 2.76024 122 83 55
-0.14862 -0.20490 2.75462 122 83 55
-0.08165 -0.23959 2.77155 122 83 55
0.00489 -0.25308 2.75311 122 83 55
0.08112 -0.23977 2.76168 122 83 55
0.15204 -0.20238 2.76767 122 83 55
0.20257 -0.15178 2.74881 122 83 55
0.23926 -0.08262 2.75575 122 83 55
0.24398 0.00472 2.88894 122 83 55
0.23303 0.07241 2.87879 122 83 55
0.19826 0.14227 2.87354 122 83 55
0.14515 0.19616 2.88947 122 83 55
0.07137 0.23335 2.87365 122 83 55
0.00072 0.24402 2.87896 122 83 55
-0.07419 0.23247 2.87157 122 83 55
-0.14491 0.19634 2.89072 122 83 55
-0.19827 0.14226 2.87729 122 83 55
-0.23252 0.07405 2.88891 122 83 55
-0.24402 0.00146 2.88826 122 83 55
-0.23268 -0.07354 2.88039 122 83 55
-0.19634 -0.14491 2.87221 122 83 55
-0.14361 -0.19729 2.88580 122 83 55
-0.07489 -0.23225 2.88906 122 83 55
-0.00407 -0.24399 2.89131 122 83 55
0.07120 -0.23341 2.87419 122 83 55
0.14525 -0.19609 2.86897 122 83 55
0.19522 -0.14642 2.88655 122 83 55
0.23244 -0.07430 2.88475 122 83 55
0.24244 -0.00122 3.00149 122 83 55
0.22991 0.07693 2.98975 122 83 55
0.19805 0.13984 2.99410 122 83 55
0.14182 0.19663 3.00606 122 83 55
0.07532 0.23044 3.01060 122 83 55
0.00088 0.24244 2.99536 122 83 55
-0.07212 0.23146 3.00608 122 83 55
-0.13916 0.19852 3.00426 122 83 55
-0.19360 0.14592 3.00844 122 83 55
-0.23024 0.07593 3.01181 122 83 55
-0.24241 -0.00356 3.00460 122 83 55
-0.22994 -0.07685 2.99083 122 83 55
-0.19862 -0.13903 2.99113 122 83 55
-0.14140 -0.19693 2.99095 122 83 55
-0.07047 -0.23197 2.99288 122 83 55
0.00064 -0.24244 3.01246 122 83 55
0.07842 -0.22940 3.00941 122 83 55
0.13952 -0.19827 2.99648 122 83 55
0.19822 -0.13958 3.00512 122 83 55
0.23183 -0.07094 2.98789 122 83 55
0.24910 -0.00232 3.11052 122 83 55
0.23790 0.07391 3.12913 122 83 55
0.20414 0.14277 3.11796 122 83 55
0.14359 0.20357 3.10883 122 83 55
0.07842 0.23645 3.13172 122 83 55
-0.00241 0.24910 3.11581 122 83 55
-0.07416 0.23782 3.11348 122 83 55
-0.14646 0.20151 3.12994 122 83 55
-0.19872 0.15023 3.12030 122 83 55
-0.23654 0.07815 3.11289 122 83 55
-0.24911 0.00031 3.11882 122 83 55
-0.23728 -0.07586 3.12283 122 83 55
-0.20055 -0.14778 3.13023 122 83 55
-0.14968 -0.19913 3.12349 122 83 55
-0.08129 -0.23548 3.12227 122 83 55
-0.00220 -0.24910 3.11920 122 83 55
0.07344 -0.23804 3.12029 122 83 55
0.14251 -0.20433 3.12888 122 83 55
0.19920 -0.14959 3.11602 122 83 55
0.23568 -0.08071 3.11797 122 83 55
0.26087 -0.00468 3.22885 122 83 55
0.24701 0.08401 3.23390 122 83 55
0.21393 0.14936 3.24043 122 83 55
0.15332 0.21110 3.23150 122 83 55
0.08034 0.24823 3.25015 122 83 55
0.00408 0.26088 3.25147 122 83 55
-0.08499 0.24668 3.22979 122 83 55
-0.15149 0.21242 3.24587 122 83 55
-0.20814 0.15733 3.23716 122 83 55
-0.24746 0.08267 3.25115 122 83 55
-0.26091 -0.00067 3.23482 122 83 55
-0.24766 -0.08207 3.24526 122 83 55
-0.21010 -0.15469 3.23101 122 83 55
-0.15162 -0.21233 3.24680 122 83 55
-0.08175 -0.24777 3.24652 122 83 55
-0.00228 -0.26090 3.25033 122 83 55
0.08312 -0.24731 3.24197 122 83 55
0.15083 -0.21289 3.24820 122 83 55
0.20884 -0.15639 3.24678 122 83 55
0.24715 -0.08361 3.24566 122 83 55
0.27226 0.00253 3.35699 122 83 55
0.25822 0.08636 3.35188 122 83 55
0.21971 0.16082 3.36038 122 83 55
0.16069 0.21980 3.37136 122 83 55
0.08593 0.25836 3.34883 122 83 55
-0.00093 0.27227 3.37086 122 83 55
-0.08557 0.25848 3.35869 122 83 55
-0.16002 0.22029 3.35360 122 83 55
-0.21745 0.16385 3.36173 122 83 55
-0.25967 0.08190 3.35360 122 83 55
-0.27226 -0.00269 3.36485 122 83 55
-0.25802 -0.08694 3.34930 122 83 55
-0.22277 -0.15655 3.34864 122 83 55
-0.15973 -0.22050 3.36688 122 83 55
-0.08254 -0.25946 3.36054 122 83 55
0.00035 -0.27228 3.35484 122 83 55
0.08288 -0.25936 3.36002 122 83 55
0.16241 -0.21854 3.36783 122 83 55
0.21980 -0.16070 3.36930 122 83 55
0.26038 -0.07959 3.35383 122 83 55
0.27782 -0.00539 3.48421 122 83 55
0.26583 0.08092 3.49001 122 83 55
0.22282 0.16602 3.49146 122 83 55
0.16103 0.22645 3.47900 122 83 55
0.08983 0.26295 3.48933 122 83 55
0.00301 0.27785 3.46848 122 83 55
-0.08972 0.26299 3.49054 122 83 55
-0.16706 0.22204 3.48807 122 83 55
-0.22709 0.16012 3.49180 122 83 55
-0.26515 0.08311 3.47907 122 83 55
-0.27782 0.00528 3.48133 122 83 55
-0.26287 -0.09007 3.47870 122 83 55
-0.22292 -0.16588 3.47637 122 83 55
-0.16283 -0.22516 3.49155 122 83 55
-0.08801 -0.26356 3.46940 122 83 55
0.00431 -0.27784 3.46759 122 83 55
0.08713 -0.26386 3.46771 122 83 55
0.16698 -0.22210 3.48701 122 83 55
0.22750 -0.15955 3.49231 122 83 55
0.26524 -0.08281 3.48353 122 83 55
0.27504 -0.00335 3.60363 122 83 55
0.26283 0.08109 3.58919 122 83 55
0.22412 0.15946 3.61227 122 83 55
0.16590 0.21940 3.59956 122 83 55
0.08175 0.26263 3.60979 122 83 55
-0.00547 0.27501 3.60996 122 83 55
-0.08005 0.26315 3.61042 122 83 55
-0.15854 0.22477 3.60420 122 83 55
-0.22477 0.15855 3.60100 122 83 55
-0.26005 0.08963 3.60878 122 83 55
-0.27503 -0.00414 3.60768 122 83 55
-0.26226 -0.08292 3.61172 122 83 55
-0.22095 -0.16383 3.60909 122 83 55
-0.16005 -0.22370 3.59130 122 83 55
-0.08835 -0.26048 3.61210 122 83 55
-0.00083 -0.27506 3.61151 122 83 55
0.08201 -0.26255 3.61230 122 83 55
0.16606 -0.21927 3.59697 122 83 55
0.22085 -0.16396 3.59285 122 83 55
0.26103 -0.08673 3.60649 122 83 55
0.26514 0.00387 3.71633 122 83 55
0.25196 0.08265 3.72573 122 83 55
0.21282 0.15818 3.73074 122 83 55
0.15513 0.21506 3.71553 122 83 55
0.08650 0.25066 3.71183 122 83 55
-0.00487 0.26512 3.72877 122 83 55
-0.08358 0.25165 3.72027 122 83 55
-0.15291 0.21664 3.71504 122 83 55
-0.21179 0.15955 3.70853 122 83 55
-0.25061 0.08666 3.71333 122 83 55
-0.26513 0.00419 3.72330 122 83 55
-0.25070 -0.08640 3.71954 122 83 55
-0.21329 -0.15755 3.72093 122 83 55
-0.15907 -0.21216 3.71158 122 83 55
-0.08696 -0.25050 3.72424 122 83 55
-0.00468 -0.26513 3.72632 122 83 55
0.08690 -0.25052 3.73053 122 83 55
0.15160 -0.21756 3.71360 122 83 55
0.21569 -0.15425 3.71183 122 83 55
0.25366 -0.07726 3.72417 122 83 55
0.25284 -0.00070 3.84960 122 83 55
0.23998 0.07961 3.83929 122 83 55
0.20163 0.15256 3.83745 122 83 55
0.14955 0.20387 3.84115 122 83 55
0.07954 0.24001 3.83659 122 83 55
-0.00335 0.25282 3.84955 122 83 55
-0.07857 0.24033 3.85005 122 83 55
-0.14512 0.20705 3.83145 122 83 55
-0.20594 0.14669 3.83799 122 83 55
-0.24048 0.07811 3.84631 122 83 55
-0.25284 -0.00021 3.83254 122 83 55
-0.24092 -0.07674 3.85128 122 83 55
-0.20608 -0.14650 3.83190 122 83 55
-0.15239 -0.20176 3.83677 122 83 55
-0.07775 -0.24059 3.83989 122 83 55
-0.00010 -0.25284 3.84886 122 83 55
0.07940 -0.24005 3.84800 122 83 55
0.14643 -0.20613 3.83664 122 83 55
0.20155 -0.15267 3.83864 122 83 55
0.24160 -0.07456 3.84344 122 83 55
0.24389 -0.00058 3.96421 122 83 55
0.23293 0.07226 3.96245 122 83 55
0.19630 0.14474 3.94810 122 83 55
0.14722 0.19444 3.96839 122 83 55
0.07074 0.23340 3.95484 122 83 55
-0.00319 0.24387 3.96295 122 83 55
-0.07650 0.23158 3.95798 122 83 55
-0.14203 0.19826 3.95339 122 83 55
-0.19868 0.14145 3.96534 122 83 55
-0.23223 0.07451 3.96449 122 83 55
-0.24389 0.00080 3.94775 122 83 55
-0.23094 -0.07841 3.97061 122 83 55
-0.19522 -0.14619 3.96358 122 83 55
-0.14339 -0.19728 3.95561 122 83 55
-0.07355 -0.23253 3.95740 122 83 55
-0.00048 -0.24389 3.97002 122 83 55
0.07300 -0.23271 3.96774 122 83 55
0.14193 -0.19833 3.96053 122 83 55
0.19441 -0.14727 3.95986 122 83 55
0.23157 -0.07652 3.95373 122 83 55
0.24250 0.00226 4.07573 122 83 55
0.23065 0.07490 4.07680 122 83 55
0.19356 0.14610 4.08494 122 83 55
0.14600 0.19363 4.08939 122 83 55
0.07316 0.23121 4.07112 122 83 55
-0.00301 0.24249 4.07701 122 83 55
-0.07716 0.22990 4.06989 122 83 55
-0.13934 0.19848 4.08767 122 83 55
-0.19848 0.13934 4.08078 122 83 55
-0.23192 0.07087 4.07452 122 83 55
-0.24248 -0.00370 4.08642 122 83 55
-0.22936 -0.07877 4.06879 122 83 55
-0.19469 -0.14458 4.08392 122 83 55
-0.14032 -0.19779 4.07828 122 83 55
-0.07630 -0.23019 4.06937 122 83 55
-0.00220 -0.24250 4.06812 122 83 55
0.07742 -0.22982 4.07279 122 83 55
0.14340 -0.19557 4.08670 122 83 55
0.19899 -0.13861 4.07195 122 83 55
0.23077 -0.07454 4.08083 122 83 55
0.24935 -0.00116 4.18993 122 83 55
0.23856 0.07259 4.19560 122 83 55
0.20316 0.14459 4.19743 122 83 55
0.14370 0.20379 4.19559 122 83 55
0.08055 0.23599 4.19194 122 83 55
-0.00267 0.24934 4.19521 122 83 55
-0.07420 0.23806 4.20754 122 83 55
-0.14259 0.20456 4.19243 122 83 55
-0.19913 0.15008 4.18985 122 83 55
-0.23634 0.07951 4.20624 122 83 55
-0.24932 -0.00391 4.20733 122 83 55
-0.23793 -0.07462 4.20449 122 83 55
-0.20166 -0.14667 4.19107 122 83 55
-0.14273 -0.20447 4.20499 122 83 55
-0.08128 -0.23574 4.20665 122 83 55
0.00263 -0.24934 4.19399 122 83 55
0.07397 -0.23813 4.19284 122 83 55
0.14895 -0.19998 4.18754 122 83 55
0.19898 -0.15028 4.20811 122 83 55
0.23598 -0.08057 4.19218 122 83 55
0.26121 -0.00021 4.32729 122 83 55
0.24715 0.08455 4.32303 122 83 55
0.21363 0.15030 4.32174 122 83 55
0.15412 0.21090 4.32836 122 83 55
0.08273 0.24776 4.30806 122 83 55
-0.00097 0.26121 4.32095 122 83 55
-0.07682 0.24966 4.33107 122 83 55
-0.15172 0.21263 4.32302 122 83 55
-0.21402 0.14976 4.32849 122 83 55
-0.24708 0.08476 4.31252 122 83 55
-0.26120 0.00254 4.31085 122 83 55
-0.24797 -0.08211 4.31995 122 83 55
-0.21128 -0.15359 4.31130 122 83 55
-0.15054 -0.21346 4.32113 122 83 55
-0.08085 -0.24838 4.32135 122 83 55
-0.00111 -0.26121 4.33248 122 83 55
0.08049 -0.24850 4.30994 122 83 55
0.15693 -0.20881 4.32184 122 83 55
0.21399 -0.14980 4.32915 122 83 55
0.24946 -0.07746 4.32878 122 83 55
0.27249 0.00216 4.43645 122 83 55
0.25766 0.08869 4.43997 122 83 55
0.21839 0.16297 4.42954 122 83 55
0.15707 0.22267 4.43116 122 83 55
0.08290 0.25958 4.44085 122 83 55
0.00349 0.27247 4.43867 122 83 55
-0.08491 0.25893 4.44549 122 83 55
-0.15618 0.22329 4.42953 122 83 55
-0.22297 0.15664 4.44216 122 83 55
-0.25794 0.08785 4.44568 122 83 55
-0.27249 0.00177 4.42818 122 83 55
-0.25890 -0.08499 4.43385 122 83 55
-0.22222 -0.15770 4.43591 122 83 55
-0.16338 -0.21808 4.44402 122 83 55
-0.08126 -0.26010 4.43402 122 83 55
0.00331 -0.27247 4.44064 122 83 55
0.08495 -0.25892 4.42831 122 83 55
0.16074 -0.22004 4.45186 122 83 55
0.21831 -0.16307 4.42836 122 83 55
0.26028 -0.08068 4.43862 122 83 55
0.27790 0.00218 4.57187 122 83 55
0.26548 0.08215 4.56633 122 83 55
0.22300 0.16584 4.56566 122 83 55
0.16041 0.22693 4.55333 122 83 55
0.08118 0.26578 4.55266 122 83 55
-0.00371 0.27788 4.57153 122 83 55
-0.08744 0.26379 4.57127 122 83 55
-0.15933 0.22769 4.55587 122 83 55
-0.22412 0.16432 4.55410 122 83 55
-0.26461 0.08493 4.56048 122 83 55
-0.27790 -0.00119 4.54975 122 83 55
-0.26284 -0.09025 4.56068 122 83 55
-0.22612 -0.16156 4.57233 122 83 55
-0.15891 -0.22798 4.57121 122 83 55
-0.08449 -0.26475 4.56977 122 83 55
0.00124 -0.27790 4.56238 122 83 55
0.08981 -0.26299 4.55814 122 83 55
0.16438 -0.22407 4.56190 122 83 55
0.22486 -0.16331 4.55056 122 83 55
0.26513 -0.08329 4.56170 122 83 55
0.27488 -0.00200 4.68543 122 83 55
0.26222 0.08251 4.67501 122 83 55
0.22040 0.16428 4.67495 122 83 55
0.16009 0.22347 4.68040 122 83 55
0.08762 0.26055 4.67129 122 83 55
-0.00539 0.27484 4.69061 122 83 55
-0.08171 0.26247 4.67889 122 83 55
-0.16309 0.22129 4.69038 122 83 55
-0.22144 0.16288 4.67258 122 83 55
-0.26281 0.08060 4.66864 122 83 55
-0.27484 0.00543 4.66767 122 83 55
-0.25977 -0.08992 4.68169 122 83 55
-0.22270 -0.16115 4.68414 122 83 55
-0.15800 -0.22495 4.68030 122 83 55
-0.08815 -0.26037 4.68358 122 83 55
0.00051 -0.27489 4.66977 122 83 55
0.08781 -0.26049 4.68850 122 83 55
0.15714 -0.22555 4.67850 122 83 55
0.22255 -0.16136 4.67517 122 83 55
0.26210 -0.08289 4.69159 122 83 55
0.26487 0.00119 4.80716 122 83 55
0.25105 0.08445 4.80736 122 83 55
0.21647 0.15264 4.79312 122 83 55
0.15540 0.21450 4.79101 122 83 55
0.08420 0.25114 4.80353 122 83 55
0.00266 0.26486 4.80075 122 83 55
-0.08109 0.25216 4.78759 122 83 55
-0.15309 0.21615 4.79307 122 83 55
-0.21308 0.15734 4.81225 122 83 55
-0.25031 0.08662 4.79497 122 83 55
-0.26485 0.00406 4.80720 122 83 55
-0.25051 -0.08606 4.79243 122 83 55
-0.21649 -0.15262 4.79526 122 83 55
-0.15304 -0.21619 4.80537 122 83 55
-0.07831 -0.25303 4.79954 122 83 55
0.00406 -0.26485 4.80582 122 83 55
0.08597 -0.25054 4.79930 122 83 55
0.15152 -0.21726 4.79215 122 83 55
0.21681 -0.15216 4.78826 122 83 55
0.25325 -0.07760 4.78858 122 83 55
0.25256 0.00164 4.91504 122 83 55
0.24140 0.07426 4.91519 122 83 55
0.20526 0.14717 4.92669 122 83 55
0.14440 0.20722 4.91528 122 83 55
0.07429 0.24139 4.91274 122 83 55
-0.00220 0.25256 4.92785 122 83 55
-0.07689 0.24058 4.92807 122 83 55
-0.14850 0.20430 4.92433 122 83 55
-0.20335 0.14980 4.92953 122 83 55
-0.24065 0.07668 4.91000 122 83 55
-0.25254 0.00350 4.92230 122 83 55
-0.24045 -0.07729 4.92674 122 83 55
-0.20652 -0.14540 4.90815 122 83 55
-0.14768 -0.20489 4.91496 122 83 55
-0.07566 -0.24097 4.91428 122 83 55
-0.00304 -0.25255 4.92889 122 83 55
0.07553 -0.24101 4.91234 122 83 55
0.15092 -0.20252 4.93060 122 83 55
0.20462 -0.14805 4.91880 122 83 55
0.24030 -0.07776 4.91938 122 83 55
0.24374 -0.00263 5.04377 122 83 55
0.23210 0.07447 5.02942 122 83 55
0.19482 0.14650 5.04698 122 83 55
0.14010 0.19947 5.04491 122 83 55
0.07686 0.23132 5.03550 122 83 55
-0.00170 0.24375 5.03282 122 83 55
-0.07192 0.23290 5.04433 122 83 55
-0.14685 0.19455 5.05030 122 83 55
-0.19911 0.14061 5.04708 122 83 55
-0.23034 0.07974 5.03926 122 83 55
-0.24374 -0.00249 5.03028 122 83 55
-0.23124 -0.07709 5.03250 122 83 55
-0.19564 -0.14541 5.03609 122 83 55
-0.14044 -0.19923 5.04165 122 83 55
-0.07851 -0.23076 5.03935 122 83 55
-0.00067 -0.24375 5.03366 122 83 55
0.07935 -0.23048 5.03137 122 83 55
0.14110 -0.19876 5.03366 122 83 55
0.19703 -0.14351 5.03885 122 83 55
0.23228 -0.07392 5.04834 122 83 55
0.24256 -0.00285 5.15775 122 83 55
0.23137 0.07289 5.15524 122 83 55
0.19441 0.14509 5.14815 122 83 55
0.14190 0.19675 5.16968 122 83 55
0.07791 0.22973 5.16232 122 83 55
-0.00033 0.24258 5.15204 122 83 55
-0.07823 0.22962 5.15951 122 83 55
-0.14393 0.19527 5.14971 122 83 55
-0.19403 0.14560 5.16730 122 83 55
-0.23214 0.07040 5.14902 122 83 55
-0.24258 -0.00101 5.16045 122 83 55
-0.22987 -0.07748 5.14871 122 83 55
-0.19799 -0.14016 5.14950 122 83 55
-0.14641 -0.19341 5.16307 122 83 55
-0.07365 -0.23113 5.15775 122 83 55
-0.00231 -0.24257 5.14858 122 83 55
0.07122 -0.23189 5.17126 122 83 55
0.13879 -0.19896 5.15470 122 83 55
0.19664 -0.14205 5.15293 122 83 55
0.23179 -0.07156 5.15533 122 83 55
0.24957 0.00384 5.28801 122 83 55
0.23869 0.07301 5.26880 122 83 55
0.20017 0.14910 5.26935 122 83 55
0.14777 0.20116 5.29063 122 83 55
0.07998 0.23644 5.28240 122 83 55
0.00366 0.24957 5.28941 122 83 55
-0.07870 0.23687 5.28083 122 83 55
-0.14335 0.20433 5.27237 122 83 55
-0.20348 0.14456 5.27498 122 83 55
-0.23674 0.07908 5.28366 122 83 55
-0.24958 -0.00342 5.29188 122 83 55
-0.23834 -0.07414 5.28435 122 83 55
-0.20354 -0.14447 5.28638 122 83 55
-0.14523 -0.20300 5.28467 122 83 55
-0.08129 -0.23599 5.26947 122 83 55
0.00301 -0.24958 5.28498 122 83 55
0.07480 -0.23813 5.27617 122 83 55
0.14477 -0.20333 5.28856 122 83 55
0.19992 -0.14944 5.27633 122 83 55
0.23878 -0.07271 5.28009 122 83 55
