ply
format ascii 1.0
comment SIMULATED DEMO - NOT FIELD EVIDENCE
element vertex 900
property float x
property float y
property float z
property uchar red
property uchar green
property uchar blue
end_header
0.25999 -0.00226 0.00177 122 83 55
0.24812 0.07770 -0.01137 122 83 55
0.21256 0.14972 -0.00654 122 83 55
0.15555 0.20834 0.00963 122 83 55
0.07981 0.24745 0.00438 122 83 55
0.00344 0.25998 -0.00618 122 83 55
-0.07912 0.24767 -0.00722 122 83 55
-0.14987 0.21246 -0.00828 122 83 55
-0.21232 0.15006 -0.00613 122 83 55
-0.24570 0.08504 0.00691 122 83 55
-0.25998 -0.00299 0.00227 122 83 55
-0.24838 -0.07685 -0.00524 122 83 55
-0.21045 -0.15268 0.00824 122 83 55
-0.15487 -0.20884 -0.00756 122 83 55
-0.07603 -0.24863 -0.00574 122 83 55
-0.00234 -0.25999 0.00251 122 83 55
0.08287 -0.24644 0.00485 122 83 55
0.15480 -0.20889 0.00849 122 83 55
0.20795 -0.15606 0.00889 122 83 55
0.24806 -0.07790 0.00733 122 83 55
0.27155 0.00478 0.12461 122 83 55
0.25758 0.08613 0.11968 122 83 55
0.21832 0.16155 0.11910 122 83 55
0.16167 0.21824 0.13024 122 83 55
0.08475 0.25803 0.12018 122 83 55
0.00418 0.27156 0.11177 122 83 55
-0.08317 0.25855 0.10963 122 83 55
-0.16168 0.21823 0.11748 122 83 55
-0.21978 0.15957 0.12338 122 83 55
-0.25710 0.08756 0.10778 122 83 55
-0.27158 0.00336 0.12013 122 83 55
-0.25919 -0.08114 0.11374 122 83 55
-0.22231 -0.15602 0.12646 122 83 55
-0.16218 -0.21786 0.11072 122 83 55
-0.08864 -0.25673 0.12733 122 83 55
-0.00140 -0.27159 0.11189 122 83 55
0.07975 -0.25962 0.12763 122 83 55
0.15633 -0.22209 0.12283 122 83 55
0.22111 -0.15771 0.11624 122 83 55
0.25968 -0.07957 0.12924 122 83 55
0.27772 0.00298 0.24052 122 83 55
0.26352 0.08774 0.24145 122 83 55
0.22737 0.15950 0.24045 122 83 55
0.16104 0.22628 0.23543 122 83 55
0.08315 0.26500 0.24272 122 83 55
0.00019 0.27774 0.23135 122 83 55
-0.08462 0.26453 0.24646 122 83 55
-0.15938 0.22745 0.23186 122 83 55
-0.22791 0.15873 0.23846 122 83 55
-0.26280 0.08986 0.24876 122 83 55
-0.27773 0.00223 0.23711 122 83 55
-0.26559 -0.08123 0.23266 122 83 55
-0.22487 -0.16301 0.23528 122 83 55
-0.16201 -0.22559 0.24182 122 83 55
-0.08261 -0.26517 0.24902 122 83 55
0.00229 -0.27773 0.24725 122 83 55
0.08776 -0.26351 0.23475 122 83 55
0.16187 -0.22569 0.22771 122 83 55
0.22706 -0.15995 0.24417 122 83 55
0.26578 -0.08063 0.23942 122 83 55
0.27549 -0.00531 0.36234 122 83 55
0.26064 0.08938 0.37127 122 83 55
0.22013 0.16572 0.36544 122 83 55
0.16249 0.22253 0.36307 122 83 55
0.08101 0.26336 0.36125 122 83 55
-0.00273 0.27552 0.36519 122 83 55
-0.08211 0.26302 0.35631 122 83 55
-0.16574 0.22011 0.34938 122 83 55
-0.22434 0.15997 0.35037 122 83 55
-0.26308 0.08191 0.36182 122 83 55
-0.27551 -0.00391 0.36955 122 83 55
-0.26100 -0.08833 0.37065 122 83 55
-0.22174 -0.16357 0.37128 122 83 55
-0.16138 -0.22333 0.35647 122 83 55
-0.08174 -0.26313 0.36504 122 83 55
-0.00160 -0.27553 0.35563 122 83 55
0.08312 -0.26270 0.34933 122 83 55
0.16097 -0.22363 0.37228 122 83 55
0.22398 -0.16048 0.37157 122 83 55
0.26223 -0.08460 0.35646 122 83 55
0.26600 0.00417 0.46872 122 83 55
0.25392 0.07935 0.47174 122 83 55
0.21793 0.15258 0.48780 122 83 55
0.15954 0.21289 0.49218 122 83 55
0.08021 0.25365 0.48675 122 83 55
-0.00027 0.26603 0.46966 122 83 55
-0.07922 0.25396 0.47219 122 83 55
-0.16040 0.21224 0.46874 122 83 55
-0.21818 0.15222 0.48703 122 83 55
-0.25339 0.08102 0.47274 122 83 55
-0.26598 -0.00500 0.47204 122 83 55
-0.25200 -0.08526 0.47562 122 83 55
-0.21316 -0.15917 0.47179 122 83 55
-0.15863 -0.21356 0.47077 122 83 55
-0.07799 -0.25434 0.49159 122 83 55
-0.00317 -0.26601 0.48402 122 83 55
0.08537 -0.25196 0.46831 122 83 55
0.15615 -0.21538 0.47927 122 83 55
0.21262 -0.15989 0.47421 122 83 55
0.25437 -0.07788 0.47158 122 83 55
0.25369 -0.00043 0.59929 122 83 55
0.24278 0.07359 0.60878 122 83 55
0.20439 0.15027 0.59856 122 83 55
0.14877 0.20549 0.59870 122 83 55
0.07840 0.24127 0.59241 122 83 55
-0.00117 0.25368 0.61073 122 83 55
-0.07614 0.24199 0.58892 122 83 55
-0.14808 0.20599 0.61137 122 83 55
-0.20810 0.14509 0.60384 122 83 55
-0.23991 0.08247 0.59978 122 83 55
-0.25369 0.00060 0.58952 122 83 55
-0.24043 -0.08094 0.59562 122 83 55
-0.20712 -0.14649 0.60594 122 83 55
-0.15082 -0.20399 0.60277 122 83 55
-0.07860 -0.24120 0.60293 122 83 55
0.00149 -0.25368 0.60850 122 83 55
0.07612 -0.24200 0.58886 122 83 55
0.15146 -0.20351 0.60930 122 83 55
0.20466 -0.14990 0.59257 122 83 55
0.24104 -0.07908 0.61060 122 83 55
0.24429 0.00357 0.72637 122 83 55
0.23237 0.07546 0.72376 122 83 55
0.19690 0.14463 0.72422 122 83 55
0.14605 0.19585 0.72524 122 83 55
0.07642 0.23205 0.73062 122 83 55
-0.00357 0.24429 0.71896 122 83 55
-0.07510 0.23248 0.72162 122 83 55
-0.14115 0.19941 0.72403 122 83 55
-0.19605 0.14579 0.72106 122 83 55
-0.23165 0.07762 0.71640 122 83 55
-0.24431 0.00122 0.71110 122 83 55
-0.23174 -0.07736 0.71422 122 83 55
-0.19718 -0.14425 0.73235 122 83 55
-0.14164 -0.19906 0.71796 122 83 55
-0.07842 -0.23138 0.73037 122 83 55
-0.00369 -0.24428 0.72741 122 83 55
0.07463 -0.23263 0.71136 122 83 55
0.13983 -0.20034 0.71428 122 83 55
0.20008 -0.14020 0.72622 122 83 55
0.23219 -0.07599 0.70996 122 83 55
0.24229 0.00372 0.82827 122 83 55
0.22926 0.07847 0.84465 122 83 55
0.19527 0.14347 0.84144 122 83 55
0.14623 0.19322 0.83991 122 83 55
0.07150 0.23153 0.85165 122 83 55
-0.00333 0.24229 0.83343 122 83 55
-0.07831 0.22931 0.84066 122 83 55
-0.14301 0.19561 0.84545 122 83 55
-0.19361 0.14571 0.83767 122 83 55
-0.22918 0.07870 0.82813 122 83 55
-0.24229 0.00358 0.85038 122 83 55
-0.22988 -0.07664 0.84997 122 83 55
-0.19800 -0.13969 0.83338 122 83 55
-0.14007 -0.19773 0.83890 122 83 55
-0.07042 -0.23186 0.83798 122 83 55
-0.00076 -0.24231 0.84369 122 83 55
0.07447 -0.23059 0.84397 122 83 55
0.14450 -0.19451 0.82978 122 83 55
0.19369 -0.14561 0.82979 122 83 55
0.22996 -0.07639 0.83181 122 83 55
0.24863 0.00241 0.96418 122 83 55
0.23717 0.07463 0.96130 122 83 55
0.20391 0.14227 0.96829 122 83 55
0.14345 0.20308 0.95927 122 83 55
0.07565 0.23685 0.94875 122 83 55
0.00173 0.24863 0.95984 122 83 55
-0.08005 0.23540 0.95831 122 83 55
-0.14842 0.19948 0.96203 122 83 55
-0.20311 0.14341 0.97190 122 83 55
-0.23565 0.07930 0.96338 122 83 55
-0.24864 -0.00068 0.95231 122 83 55
-0.23656 -0.07654 0.96994 122 83 55
-0.20210 -0.14483 0.95088 122 83 55
-0.14669 -0.20075 0.96895 122 83 55
-0.07768 -0.23619 0.94975 122 83 55
0.00345 -0.24861 0.96116 122 83 55
0.07389 -0.23740 0.95866 122 83 55
0.14718 -0.20039 0.95657 122 83 55
0.20301 -0.14355 0.96044 122 83 55
0.23528 -0.08041 0.96815 122 83 55
0.26029 -0.00215 1.07553 122 83 55
0.24811 0.07874 1.08975 122 83 55
0.21140 0.15188 1.08210 122 83 55
0.15195 0.21135 1.08522 122 83 55
0.07646 0.24882 1.07993 122 83 55
-0.00099 0.26030 1.06758 122 83 55
-0.07958 0.24784 1.09181 122 83 55
-0.14894 0.21348 1.07764 122 83 55
-0.21335 0.14914 1.07822 122 83 55
-0.24645 0.08379 1.07839 122 83 55
-0.26030 -0.00121 1.07665 122 83 55
-0.24654 -0.08352 1.09230 122 83 55
-0.21213 -0.15085 1.07359 122 83 55
-0.15009 -0.21267 1.07994 122 83 55
-0.08314 -0.24667 1.07834 122 83 55
-0.00356 -0.26028 1.06996 122 83 55
0.07908 -0.24800 1.07395 122 83 55
0.15111 -0.21195 1.08116 122 83 55
0.20884 -0.15538 1.07698 122 83 55
0.24596 -0.08521 1.08407 122 83 55
0.27183 -0.00022 1.18899 122 83 55
0.25698 0.08860 1.20055 122 83 55
0.22181 0.15713 1.18882 122 83 55
0.15901 0.22047 1.20609 122 83 55
0.07944 0.25996 1.19120 122 83 55
-0.00053 0.27183 1.20099 122 83 55
-0.08080 0.25954 1.20310 122 83 55
-0.15598 0.22262 1.19743 122 83 55
-0.22088 0.15843 1.19101 122 83 55
-0.25903 0.08242 1.20126 122 83 55
-0.27180 0.00383 1.20797 122 83 55
-0.25769 -0.08652 1.20295 122 83 55
-0.22111 -0.15812 1.20100 122 83 55
-0.15818 -0.22106 1.18903 122 83 55
-0.08559 -0.25800 1.20544 122 83 55
-0.00172 -0.27182 1.19600 122 83 55
0.08316 -0.25879 1.18912 122 83 55
0.15713 -0.22181 1.21044 122 83 55
0.22032 -0.15922 1.19047 122 83 55
0.25937 -0.08134 1.20000 122 83 55
0.27775 -0.00423 1.32103 122 83 55
0.26411 0.08609 1.31124 122 83 55
0.22750 0.15941 1.31898 122 83 55
0.16734 0.22173 1.31169 122 83 55
0.08209 0.26538 1.31646 122 83 55
-0.00143 0.27778 1.32952 122 83 55
-0.08524 0.26439 1.31507 122 83 55
-0.16558 0.22305 1.32577 122 83 55
-0.22684 0.16035 1.31965 122 83 55
-0.26379 0.08707 1.31493 122 83 55
-0.27776 0.00369 1.31724 122 83 55
-0.26399 -0.08647 1.31130 122 83 55
-0.22626 -0.16116 1.30888 122 83 55
-0.16693 -0.22204 1.32457 122 83 55
-0.09017 -0.26274 1.31363 122 83 55
-0.00339 -0.27777 1.31446 122 83 55
0.08616 -0.26409 1.31997 122 83 55
0.16183 -0.22578 1.32032 122 83 55
0.22568 -0.16197 1.31641 122 83 55
0.26499 -0.08336 1.31305 122 83 55
0.27533 0.00551 1.43400 122 83 55
0.26301 0.08163 1.44285 122 83 55
0.21999 0.16565 1.45017 122 83 55
0.16495 0.22051 1.44746 122 83 55
0.08208 0.26287 1.42892 122 83 55
-0.00058 0.27538 1.43710 122 83 55
-0.08559 0.26174 1.42938 122 83 55
-0.15925 0.22467 1.42817 122 83 55
-0.22127 0.16394 1.44532 122 83 55
-0.26080 0.08841 1.42938 122 83 55
-0.27538 0.00200 1.44995 122 83 55
-0.26139 -0.08665 1.44494 122 83 55
-0.22337 -0.16107 1.44128 122 83 55
-0.16116 -0.22330 1.43101 122 83 55
-0.08244 -0.26275 1.44480 122 83 55
0.00237 -0.27537 1.45243 122 83 55
0.08970 -0.26037 1.43622 122 83 55
0.16189 -0.22277 1.44351 122 83 55
0.22194 -0.16303 1.42854 122 83 55
0.26344 -0.08023 1.43243 122 83 55
0.26573 -0.00224 1.56881 122 83 55
0.25212 0.08398 1.56539 122 83 55
0.21309 0.15878 1.55616 122 83 55
0.15704 0.21438 1.55771 122 83 55
0.08335 0.25233 1.56904 122 83 55
-0.00389 0.26572 1.55046 122 83 55
-0.08459 0.25192 1.57085 122 83 55
-0.15996 0.21221 1.55733 122 83 55
-0.21311 0.15876 1.56924 122 83 55
-0.25157 0.08562 1.56775 122 83 55
-0.26574 -0.00203 1.56582 122 83 55
-0.25389 -0.07848 1.55859 122 83 55
-0.21667 -0.15387 1.55419 122 83 55
-0.15461 -0.21613 1.56292 122 83 55
-0.08226 -0.25269 1.56023 122 83 55
-0.00210 -0.26574 1.55551 122 83 55
0.08336 -0.25233 1.55036 122 83 55
0.15709 -0.21434 1.57132 122 83 55
0.21625 -0.15445 1.56413 122 83 55
0.25382 -0.07871 1.55389 122 83 55
0.25339 -0.00250 1.67914 122 83 55
0.24144 0.07695 1.68255 122 83 55
0.20311 0.15153 1.68251 122 83 55
0.14508 0.20777 1.66788 122 83 55
0.07787 0.24114 1.67412 122 83 55
0.00202 0.25340 1.68162 122 83 55
-0.07546 0.24191 1.68341 122 83 55
-0.15096 0.20353 1.66822 122 83 55
-0.20275 0.15200 1.68753 122 83 55
-0.24130 0.07738 1.69162 122 83 55
-0.25336 -0.00461 1.68006 122 83 55
-0.24143 -0.07696 1.68191 122 83 55
-0.20628 -0.14717 1.68563 122 83 55
-0.14924 -0.20479 1.66802 122 83 55
-0.07856 -0.24092 1.67710 122 83 55
0.00288 -0.25339 1.66857 122 83 55
0.07593 -0.24176 1.68322 122 83 55
0.15068 -0.20374 1.66951 122 83 55
0.20755 -0.14538 1.68087 122 83 55
0.24167 -0.07622 1.67325 122 83 55
0.24416 -0.00203 1.79225 122 83 55
0.23195 0.07627 1.80533 122 83 55
0.19755 0.14350 1.79876 122 83 55
0.14081 0.19947 1.80587 122 83 55
0.07463 0.23248 1.80936 122 83 55
-0.00441 0.24413 1.80930 122 83 55
-0.07452 0.23252 1.80260 122 83 55
-0.14276 0.19808 1.79723 122 83 55
-0.20021 0.13976 1.79266 122 83 55
-0.23295 0.07316 1.79030 122 83 55
-0.24415 -0.00287 1.80616 122 83 55
-0.23341 -0.07166 1.80652 122 83 55
-0.19788 -0.14304 1.80243 122 83 55
-0.14115 -0.19923 1.80935 122 83 55
-0.07596 -0.23205 1.80665 122 83 55
-0.00257 -0.24415 1.80548 122 83 55
0.07536 -0.23224 1.80594 122 83 55
0.14674 -0.19515 1.80825 122 83 55
0.19592 -0.14571 1.79033 122 83 55
0.23165 -0.07716 1.78900 122 83 55
0.24237 -0.00211 1.92132 122 83 55
0.23114 0.07294 1.91481 122 83 55
0.19665 0.14169 1.92720 122 83 55
0.14025 0.19767 1.91245 122 83 55
0.07408 0.23078 1.92556 122 83 55
0.00233 0.24236 1.92458 122 83 55
-0.07758 0.22962 1.92965 122 83 55
-0.14005 0.19782 1.93039 122 83 55
-0.19652 0.14186 1.92641 122 83 55
-0.22997 0.07654 1.90923 122 83 55
-0.24237 -0.00157 1.92531 122 83 55
-0.23000 -0.07645 1.91200 122 83 55
-0.19668 -0.14164 1.92352 122 83 55
-0.14252 -0.19604 1.92637 122 83 55
-0.07505 -0.23046 1.91887 122 83 55
0.00133 -0.24237 1.90796 122 83 55
0.07558 -0.23029 1.90857 122 83 55
0.14617 -0.19334 1.93110 122 83 55
0.19604 -0.14253 1.91796 122 83 55
0.23172 -0.07106 1.91895 122 83 55
0.24886 -0.00260 2.02940 122 83 55
0.23777 0.07351 2.03893 122 83 55
0.20393 0.14266 2.04819 122 83 55
0.14956 0.19892 2.04071 122 83 55
0.08037 0.23554 2.04331 122 83 55
-0.00314 0.24885 2.04043 122 83 55
-0.08014 0.23562 2.03211 122 83 55
-0.14405 0.20294 2.03565 122 83 55
-0.20112 0.14660 2.03437 122 83 55
-0.23785 0.07326 2.04234 122 83 55
-0.24885 -0.00343 2.03235 122 83 55
-0.23559 -0.08022 2.03098 122 83 55
-0.20115 -0.14655 2.04477 122 83 55
-0.14861 -0.19963 2.03529 122 83 55
-0.08013 -0.23562 2.03377 122 83 55
-0.00191 -0.24887 2.04351 122 83 55
0.07435 -0.23751 2.04530 122 83 55
0.14915 -0.19923 2.03805 122 83 55
0.20199 -0.14538 2.03966 122 83 55
0.23629 -0.07813 2.03093 122 83 55
0.26060 -0.00228 2.16982 122 83 55
0.24740 0.08191 2.16839 122 83 55
0.21267 0.15062 2.15705 122 83 55
0.15574 0.20895 2.16963 122 83 55
0.08202 0.24736 2.16383 122 83 55
-0.00486 0.26056 2.16543 122 83 55
-0.07873 0.24843 2.17105 122 83 55
-0.15386 0.21034 2.15918 122 83 55
-0.21345 0.14951 2.17211 122 83 55
-0.24624 0.08534 2.16363 122 83 55
-0.26058 -0.00353 2.15825 122 83 55
-0.24771 -0.08095 2.15329 122 83 55
-0.21341 -0.14957 2.16540 122 83 55
-0.15570 -0.20898 2.16831 122 83 55
-0.07596 -0.24929 2.16419 122 83 55
-0.00318 -0.26059 2.16735 122 83 55
0.08444 -0.24655 2.15614 122 83 55
0.15720 -0.20785 2.15768 122 83 55
0.21323 -0.14983 2.16991 122 83 55
0.24926 -0.07605 2.16255 122 83 55
0.27201 0.00460 2.27831 122 83 55
0.25720 0.08866 2.28657 122 83 55
0.22092 0.15877 2.27250 122 83 55
0.16404 0.21703 2.28159 122 83 55
0.08666 0.25788 2.28130 122 83 55
0.00284 0.27204 2.29153 122 83 55
-0.08847 0.25727 2.27983 122 83 55
-0.15792 0.22153 2.28583 122 83 55
-0.22001 0.16002 2.28782 122 83 55
-0.25803 0.08622 2.27268 122 83 55
-0.27201 0.00501 2.26921 122 83 55
-0.25939 -0.08204 2.26918 122 83 55
-0.21976 -0.16037 2.29096 122 83 55
-0.15677 -0.22234 2.27703 122 83 55
-0.08869 -0.25719 2.28521 122 83 55
0.00477 -0.27201 2.27342 122 83 55
0.08145 -0.25957 2.29019 122 83 55
0.15864 -0.22101 2.28331 122 83 55
0.22275 -0.15618 2.27648 122 83 55
0.26028 -0.07916 2.28010 122 83 55
0.27783 0.00179 2.39154 122 83 55
0.26400 0.08657 2.38850 122 83 55
0.22302 0.16568 2.39667 122 83 55
0.16560 0.22309 2.40409 122 83 55
0.08707 0.26383 2.39674 122 83 55
-0.00093 0.27783 2.39581 122 83 55
-0.08318 0.26509 2.39439 122 83 55
-0.15894 0.22788 2.38855 122 83 55
-0.22500 0.16299 2.40652 122 83 55
-0.26286 0.08998 2.40427 122 83 55
-0.27782 -0.00269 2.39228 122 83 55
-0.26359 -0.08782 2.40162 122 83 55
-0.22417 -0.16413 2.38790 122 83 55
-0.16719 -0.22190 2.39986 122 83 55
-0.08753 -0.26368 2.40506 122 83 55
0.00304 -0.27781 2.40953 122 83 55
0.08111 -0.26573 2.40557 122 83 55
0.16338 -0.22472 2.39823 122 83 55
0.22578 -0.16190 2.39670 122 83 55
0.26341 -0.08834 2.40138 122 83 55
0.27519 0.00427 2.51732 122 83 55
0.26053 0.08872 2.51396 122 83 55
0.22310 0.16116 2.52667 122 83 55
0.16414 0.22092 2.51543 122 83 55
0.08164 0.26284 2.50856 122 83 55
0.00096 0.27522 2.53141 122 83 55
-0.09015 0.26004 2.51018 122 83 55
-0.16440 0.22073 2.51692 122 83 55
-0.22220 0.16240 2.51587 122 83 55
-0.26093 0.08753 2.52706 122 83 55
-0.27522 0.00045 2.51755 122 83 55
-0.26220 -0.08365 2.52755 122 83 55
-0.22580 -0.15736 2.51464 122 83 55
-0.16270 -0.22198 2.51853 122 83 55
-0.08141 -0.26291 2.51264 122 83 55
-0.00298 -0.27521 2.53145 122 83 55
0.08318 -0.26235 2.52075 122 83 55
0.15911 -0.22457 2.51506 122 83 55
0.22519 -0.15823 2.53025 122 83 55
0.26150 -0.08582 2.50771 122 83 55
0.26542 -0.00413 2.63133 122 83 55
0.25321 0.07968 2.64458 122 83 55
0.21306 0.15835 2.64274 122 83 55
0.15212 0.21754 2.63950 122 83 55
0.08269 0.25225 2.62954 122 83 55
0.00032 0.26546 2.63240 122 83 55
-0.08256 0.25229 2.64056 122 83 55
-0.15401 0.21621 2.64975 122 83 55
-0.21671 0.15331 2.62852 122 83 55
-0.25212 0.08309 2.63136 122 83 55
-0.26546 -0.00049 2.65194 122 83 55
-0.25371 -0.07808 2.63840 122 83 55
-0.21654 -0.15354 2.62924 122 83 55
-0.15970 -0.21205 2.62864 122 83 55
-0.08309 -0.25212 2.65161 122 83 55
0.00157 -0.26545 2.64616 122 83 55
0.08488 -0.25152 2.64260 122 83 55
0.15174 -0.21781 2.62906 122 83 55
0.21172 -0.16013 2.63357 122 83 55
0.25378 -0.07785 2.64491 122 83 55
0.25312 -0.00014 2.75038 122 83 55
0.24063 0.07854 2.76500 122 83 55
0.20565 0.14758 2.74793 122 83 55
0.14827 0.20515 2.75460 122 83 55
0.07852 0.24064 2.75547 122 83 55
0.00001 0.25312 2.75782 122 83 55
-0.08215 0.23942 2.75185 122 83 55
-0.15248 0.20204 2.76174 122 83 55
-0.20352 0.15051 2.77102 122 83 55
-0.23984 0.08093 2.75591 122 83 55
-0.25310 0.00367 2.74949 122 83 55
-0.24063 -0.07853 2.76446 122 83 55
-0.20216 -0.15232 2.74866 122 83 55
-0.14651 -0.20641 2.74927 122 83 55
-0.07708 -0.24110 2.77103 122 83 55
0.00019 -0.25312 2.76911 122 83 55
0.07981 -0.24021 2.77086 122 83 55
0.14986 -0.20400 2.76062 122 83 55
0.20205 -0.15246 2.76579 122 83 55
0.24204 -0.07407 2.76345 122 83 55
0.24402 0.00157 2.88231 122 83 55
0.23199 0.07569 2.88813 122 83 55
0.19998 0.13984 2.88437 122 83 55
0.14031 0.19965 2.89136 122 83 55
0.07554 0.23204 2.88530 122 83 55
-0.00231 0.24401 2.87470 122 83 55
-0.07806 0.23120 2.87489 122 83 55
-0.14175 0.19863 2.87915 122 83 55
-0.19662 0.14453 2.87431 122 83 55
-0.23229 0.07475 2.87876 122 83 55
-0.24402 0.00092 2.86826 122 83 55
-0.23152 -0.07712 2.88844 122 83 55
-0.19880 -0.14151 2.88449 122 83 55
-0.14526 -0.19608 2.87167 122 83 55
-0.07752 -0.23138 2.87751 122 83 55
0.00111 -0.24402 2.87056 122 83 55
0.07811 -0.23119 2.87933 122 83 55
0.14054 -0.19949 2.88669 122 83 55
0.19466 -0.14715 2.88625 122 83 55
0.23094 -0.07884 2.87254 122 83 55
0.24240 0.00426 3.00236 122 83 55
0.23191 0.07069 2.99450 122 83 55
0.19640 0.14214 3.00108 122 83 55
0.14092 0.19728 2.99468 122 83 55
0.07433 0.23076 2.99288 122 83 55
0.00290 0.24242 3.00523 122 83 55
-0.07189 0.23153 2.99315 122 83 55
-0.14177 0.19667 2.99963 122 83 55
-0.19756 0.14053 2.99076 122 83 55
-0.22989 0.07700 2.99720 122 83 55
-0.24241 0.00369 3.00377 122 83 55
-0.23075 -0.07439 2.99807 122 83 55
-0.19348 -0.14609 3.00537 122 83 55
-0.14019 -0.19780 2.99701 122 83 55
-0.07158 -0.23163 2.98904 122 83 55
0.00435 -0.24240 3.01098 122 83 55
0.07941 -0.22906 2.99845 122 83 55
0.14550 -0.19392 3.01140 122 83 55
0.19733 -0.14084 3.00360 122 83 55
0.22947 -0.07823 3.00840 122 83 55
0.24910 0.00243 3.13119 122 83 55
0.23751 0.07515 3.11053 122 83 55
0.20058 0.14773 3.12338 122 83 55
0.14435 0.20303 3.12479 122 83 55
0.07379 0.23793 3.12521 122 83 55
-0.00312 0.24909 3.11289 122 83 55
-0.07351 0.23802 3.13247 122 83 55
-0.14900 0.19964 3.12601 122 83 55
-0.20427 0.14259 3.11276 122 83 55
-0.23785 0.07405 3.12175 122 83 55
-0.24911 -0.00023 3.12403 122 83 55
-0.23626 -0.07898 3.12773 122 83 55
-0.20341 -0.14381 3.12586 122 83 55
-0.14775 -0.20057 3.11317 122 83 55
-0.07626 -0.23715 3.11524 122 83 55
0.00047 -0.24911 3.11551 122 83 55
0.07990 -0.23595 3.12459 122 83 55
0.14528 -0.20236 3.12562 122 83 55
0.20196 -0.14584 3.12636 122 83 55
0.23808 -0.07331 3.11646 122 83 55
0.26091 -0.00097 3.23938 122 83 55
0.24855 0.07936 3.25107 122 83 55
0.21222 0.15178 3.24879 122 83 55
0.15140 0.21249 3.24731 122 83 55
0.08226 0.24760 3.25237 122 83 55
0.00193 0.26090 3.22770 122 83 55
-0.08494 0.24669 3.25228 122 83 55
-0.15637 0.20886 3.23925 122 83 55
-0.20953 0.15547 3.24289 122 83 55
-0.24909 0.07764 3.23422 122 83 55
-0.26091 -0.00027 3.23108 122 83 55
-0.24831 -0.08008 3.23916 122 83 55
-0.21189 -0.15223 3.24696 122 83 55
-0.15206 -0.21202 3.23564 122 83 55
-0.08011 -0.24830 3.23930 122 83 55
-0.00497 -0.26086 3.23751 122 83 55
0.08123 -0.24794 3.23082 122 83 55
0.15562 -0.20942 3.23070 122 83 55
0.20865 -0.15664 3.24020 122 83 55
0.24889 -0.07828 3.24777 122 83 55
0.27226 -0.00262 3.35356 122 83 55
0.25970 0.08180 3.35081 122 83 55
0.21719 0.16421 3.36961 122 83 55
0.15643 0.22286 3.36239 122 83 55
0.08771 0.25776 3.36885 122 83 55
0.00534 0.27222 3.36057 122 83 55
-0.08399 0.25900 3.36344 122 83 55
-0.16384 0.21746 3.36034 122 83 55
-0.22173 0.15801 3.36567 122 83 55
-0.25833 0.08603 3.35984 122 83 55
-0.27226 0.00323 3.34915 122 83 55
-0.25902 -0.08391 3.36626 122 83 55
-0.21964 -0.16091 3.34810 122 83 55
-0.16312 -0.21800 3.36240 122 83 55
-0.08493 -0.25869 3.35139 122 83 55
0.00515 -0.27223 3.36111 122 83 55
0.08578 -0.25841 3.35423 122 83 55
0.15982 -0.22043 3.35117 122 83 55
0.22010 -0.16027 3.36164 122 83 55
0.25880 -0.08460 3.36938 122 83 55
0.27782 -0.00506 3.48908 122 83 55
0.26587 0.08079 3.48490 122 83 55
0.22257 0.16635 3.47193 122 83 55
0.16159 0.22606 3.47295 122 83 55
0.08149 0.26565 3.47162 122 83 55
0.00218 0.27786 3.48162 122 83 55
-0.08147 0.26566 3.47265 122 83 55
-0.16452 0.22393 3.47639 122 83 55
-0.22166 0.16757 3.47082 122 83 55
-0.26588 0.08074 3.47842 122 83 55
-0.27787 -0.00127 3.48936 122 83 55
-0.26541 -0.08227 3.47391 122 83 55
-0.22707 -0.16016 3.48078 122 83 55
-0.16300 -0.22504 3.46798 122 83 55
-0.08892 -0.26326 3.48370 122 83 55
-0.00359 -0.27785 3.46787 122 83 55
0.08349 -0.26503 3.48491 122 83 55
0.16084 -0.22659 3.48654 122 83 55
0.22424 -0.16410 3.46841 122 83 55
0.26586 -0.08080 3.48879 122 83 55
0.27506 0.00148 3.60922 122 83 55
0.26195 0.08389 3.60353 122 83 55
0.22119 0.16350 3.61128 122 83 55
0.15763 0.22541 3.59197 122 83 55
0.08454 0.26175 3.58958 122 83 55
0.00466 0.27502 3.58764 122 83 55
-0.08491 0.26162 3.60334 122 83 55
-0.16251 0.22192 3.60567 122 83 55
-0.21960 0.16564 3.60313 122 83 55
-0.26293 0.08077 3.59962 122 83 55
-0.27502 -0.00465 3.59093 122 83 55
-0.26047 -0.08838 3.60587 122 83 55
-0.22315 -0.16082 3.58872 122 83 55
-0.16316 -0.22144 3.61145 122 83 55
-0.08497 -0.26161 3.59700 122 83 55
0.00135 -0.27506 3.59253 122 83 55
0.08308 -0.26221 3.60640 122 83 55
0.15899 -0.22446 3.60224 122 83 55
0.22270 -0.16144 3.60631 122 83 55
0.26317 -0.07998 3.59246 122 83 55
0.26513 -0.00459 3.71099 122 83 55
0.25200 0.08251 3.73060 122 83 55
0.21564 0.15431 3.71485 122 83 55
0.15887 0.21230 3.71376 122 83 55
0.08306 0.25182 3.71471 122 83 55
-0.00371 0.26514 3.70859 122 83 55
-0.07992 0.25284 3.71823 122 83 55
-0.15351 0.21621 3.72679 122 83 55
-0.21259 0.15848 3.71387 122 83 55
-0.25183 0.08303 3.72722 122 83 55
-0.26514 -0.00364 3.71410 122 83 55
-0.25365 -0.07729 3.72175 122 83 55
-0.21709 -0.15227 3.72960 122 83 55
-0.15879 -0.21237 3.70859 122 83 55
-0.07724 -0.25367 3.71875 122 83 55
-0.00181 -0.26516 3.71773 122 83 55
0.08402 -0.25150 3.71270 122 83 55
0.15911 -0.21213 3.70947 122 83 55
0.21647 -0.15315 3.72268 122 83 55
0.25143 -0.08424 3.72344 122 83 55
0.25281 0.00392 3.83749 122 83 55
0.24054 0.07792 3.85152 122 83 55
0.20164 0.15256 3.83523 122 83 55
0.15028 0.20333 3.84944 122 83 55
0.07711 0.24080 3.83476 122 83 55
-0.00275 0.25283 3.82810 122 83 55
-0.07936 0.24007 3.84337 122 83 55
-0.14633 0.20619 3.84690 122 83 55
-0.20612 0.14644 3.83878 122 83 55
-0.24057 0.07781 3.83753 122 83 55
-0.25284 0.00114 3.83440 122 83 55
-0.23982 -0.08010 3.84802 122 83 55
-0.20289 -0.15089 3.84834 122 83 55
-0.14586 -0.20653 3.84305 122 83 55
-0.08154 -0.23933 3.83285 122 83 55
0.00503 -0.25279 3.83288 122 83 55
0.08270 -0.23894 3.85191 122 83 55
0.15041 -0.20324 3.83422 122 83 55
0.20498 -0.14803 3.85138 122 83 55
0.23891 -0.08277 3.84800 122 83 55
0.24387 0.00303 3.96680 122 83 55
0.23292 0.07233 3.96497 122 83 55
0.19729 0.14338 3.95574 122 83 55
0.14148 0.19866 3.95135 122 83 55
0.07175 0.23309 3.96742 122 83 55
0.00076 0.24389 3.96818 122 83 55
-0.07182 0.23307 3.96881 122 83 55
-0.14634 0.19510 3.95896 122 83 55
-0.19903 0.14095 3.95260 122 83 55
-0.23205 0.07505 3.97180 122 83 55
-0.24385 -0.00423 3.96368 122 83 55
-0.23061 -0.07936 3.96811 122 83 55
-0.19565 -0.14561 3.95198 122 83 55
-0.14468 -0.19634 3.96659 122 83 55
-0.07435 -0.23228 3.97085 122 83 55
-0.00044 -0.24389 3.95706 122 83 55
0.07238 -0.23290 3.97141 122 83 55
0.14433 -0.19660 3.95035 122 83 55
0.19770 -0.14281 3.94940 122 83 55
0.23264 -0.07321 3.96133 122 83 55
0.24250 0.00184 4.07750 122 83 55
0.22989 0.07722 4.07376 122 83 55
0.19658 0.14201 4.07229 122 83 55
0.14089 0.19739 4.07660 122 83 55
0.07493 0.23064 4.07115 122 83 55
0.00079 0.24251 4.08782 122 83 55
-0.07270 0.23135 4.07575 122 83 55
-0.14067 0.19754 4.08809 122 83 55
-0.19422 0.14522 4.07517 122 83 55
-0.23181 0.07123 4.06771 122 83 55
-0.24251 -0.00096 4.07260 122 83 55
-0.22987 -0.07727 4.07659 122 83 55
-0.19743 -0.14083 4.08603 122 83 55
-0.14270 -0.19608 4.08840 122 83 55
-0.07607 -0.23027 4.07980 122 83 55
0.00419 -0.24247 4.07598 122 83 55
0.07129 -0.23179 4.08954 122 83 55
0.14064 -0.19756 4.07668 122 83 55
0.19651 -0.14210 4.08495 122 83 55
0.22949 -0.07838 4.08234 122 83 55
0.24934 0.00298 4.19068 122 83 55
0.23788 0.07478 4.18983 122 83 55
0.20088 0.14773 4.20189 122 83 55
0.14453 0.20320 4.18964 122 83 55
0.07588 0.23753 4.20752 122 83 55
-0.00341 0.24933 4.19578 122 83 55
-0.08175 0.23557 4.19034 122 83 55
-0.14359 0.20386 4.20196 122 83 55
-0.20405 0.14332 4.20412 122 83 55
-0.23692 0.07777 4.20493 122 83 55
-0.24932 -0.00431 4.18967 122 83 55
-0.23671 -0.07839 4.19732 122 83 55
-0.20010 -0.14879 4.18754 122 83 55
-0.14629 -0.20194 4.20346 122 83 55
-0.07542 -0.23768 4.19163 122 83 55
-0.00360 -0.24933 4.19299 122 83 55
0.08012 -0.23613 4.19391 122 83 55
0.14378 -0.20373 4.18821 122 83 55
0.19923 -0.14996 4.20221 122 83 55
0.23789 -0.07474 4.21247 122 83 55
0.26121 -0.00074 4.31355 122 83 55
0.24875 0.07970 4.32815 122 83 55
0.21310 0.15106 4.31757 122 83 55
0.15019 0.21371 4.32892 122 83 55
0.08557 0.24680 4.33015 122 83 55
0.00030 0.26121 4.32739 122 83 55
-0.08265 0.24779 4.31400 122 83 55
-0.15555 0.20984 4.31027 122 83 55
-0.20850 0.15734 4.32407 122 83 55
-0.24994 0.07591 4.31477 122 83 55
-0.26117 -0.00433 4.32694 122 83 55
-0.24732 -0.08406 4.31577 122 83 55
-0.20878 -0.15698 4.31458 122 83 55
-0.15326 -0.21153 4.30998 122 83 55
-0.07582 -0.24996 4.31908 122 83 55
-0.00358 -0.26119 4.31920 122 83 55
0.08090 -0.24837 4.31630 122 83 55
0.15472 -0.21046 4.31631 122 83 55
0.21192 -0.15272 4.31253 122 83 55
0.24814 -0.08158 4.30862 122 83 55
0.27248 0.00325 4.43460 122 83 55
0.25756 0.08897 4.43985 122 83 55
0.21997 0.16083 4.43504 122 83 55
0.15851 0.22165 4.43763 122 83 55
0.07941 0.26067 4.45015 122 83 55
-0.00367 0.27247 4.43540 122 83 55
-0.08287 0.25959 4.43027 122 83 55
-0.15916 0.22118 4.42825 122 83 55
-0.22103 0.15938 4.44241 122 83 55
-0.25794 0.08787 4.42879 122 83 55
-0.27248 0.00247 4.43213 122 83 55
-0.25918 -0.08414 4.45034 122 83 55
-0.22020 -0.16051 4.45233 122 83 55
-0.16046 -0.22024 4.44088 122 83 55
-0.08447 -0.25907 4.42824 122 83 55
-0.00384 -0.27247 4.42760 122 83 55
0.08575 -0.25865 4.43398 122 83 55
0.16071 -0.22006 4.43805 122 83 55
0.22323 -0.15627 4.43731 122 83 55
0.25924 -0.08396 4.44510 122 83 55
0.27789 -0.00256 4.57037 122 83 55
0.26544 0.08229 4.55932 122 83 55
0.22753 0.15956 4.55076 122 83 55
0.16752 0.22173 4.55842 122 83 55
0.08480 0.26465 4.55318 122 83 55
0.00471 0.27786 4.56994 122 83 55
-0.08340 0.26509 4.56328 122 83 55
-0.16628 0.22267 4.55426 122 83 55
-0.22705 0.16025 4.55172 122 83 55
-0.26466 0.08476 4.56663 122 83 55
-0.27787 0.00433 4.56747 122 83 55
-0.26385 -0.08725 4.56277 122 83 55
-0.22708 -0.16020 4.57081 122 83 55
-0.16542 -0.22331 4.55935 122 83 55
-0.08478 -0.26466 4.56259 122 83 55
0.00404 -0.27787 4.57127 122 83 55
0.08510 -0.26455 4.54780 122 83 55
0.16645 -0.22254 4.55460 122 83 55
0.22179 -0.16745 4.55234 122 83 55
0.26289 -0.09012 4.56465 122 83 55
0.27486 0.00427 4.68866 122 83 55
0.26063 0.08741 4.69036 122 83 55
0.22067 0.16392 4.68169 122 83 55
0.15877 0.22440 4.69226 122 83 55
0.08511 0.26138 4.66806 122 83 55
-0.00122 0.27489 4.67247 122 83 55
-0.08728 0.26067 4.68778 122 83 55
-0.16133 0.22257 4.68647 122 83 55
-0.21978 0.16511 4.66861 122 83 55
-0.26113 0.08590 4.68775 122 83 55
-0.27487 -0.00374 4.68995 122 83 55
-0.26005 -0.08911 4.68262 122 83 55
-0.22184 -0.16234 4.68405 122 83 55
-0.16057 -0.22312 4.66849 122 83 55
-0.08814 -0.26038 4.66868 122 83 55
0.00532 -0.27484 4.69070 122 83 55
0.08590 -0.26112 4.68664 122 83 55
0.16479 -0.22002 4.68363 122 83 55
0.21921 -0.16586 4.68378 122 83 55
0.26207 -0.08299 4.66851 122 83 55
0.26486 -0.00296 4.80847 122 83 55
0.25068 0.08555 4.80646 122 83 55
0.21437 0.15558 4.80648 122 83 55
0.15684 0.21345 4.79639 122 83 55
0.08195 0.25188 4.81193 122 83 55
-0.00142 0.26487 4.80891 122 83 55
-0.08058 0.25232 4.79068 122 83 55
-0.15488 0.21488 4.80350 122 83 55
-0.21496 0.15477 4.79923 122 83 55
-0.25025 0.08681 4.80735 122 83 55
-0.26488 0.00060 4.80823 122 83 55
-0.25297 -0.07851 4.79573 122 83 55
-0.21700 -0.15190 4.81092 122 83 55
-0.15547 -0.21445 4.80997 122 83 55
-0.07964 -0.25262 4.79827 122 83 55
-0.00258 -0.26486 4.81007 122 83 55
0.08197 -0.25187 4.78855 122 83 55
0.15643 -0.21375 4.79078 122 83 55
0.21447 -0.15544 4.80565 122 83 55
0.25049 -0.08611 4.79563 122 83 55
0.25257 0.00019 4.92635 122 83 55
0.23884 0.08212 4.91512 122 83 55
0.20504 0.14748 4.90838 122 83 55
0.14657 0.20569 4.92119 122 83 55
0.08232 0.23877 4.91198 122 83 55
0.00097 0.25257 4.91668 122 83 55
-0.07940 0.23976 4.90919 122 83 55
-0.14609 0.20603 4.90928 122 83 55
-0.20635 0.14563 4.93134 122 83 55
-0.23898 0.08171 4.92623 122 83 55
-0.25252 0.00474 4.91611 122 83 55
-0.23888 -0.08201 4.92190 122 83 55
-0.20420 -0.14864 4.91246 122 83 55
-0.14593 -0.20614 4.92677 122 83 55
-0.07393 -0.24151 4.91213 122 83 55
-0.00048 -0.25257 4.92270 122 83 55
0.07891 -0.23992 4.90844 122 83 55
0.14921 -0.20378 4.91029 122 83 55
0.20428 -0.14852 4.91390 122 83 55
0.24114 -0.07513 4.91583 122 83 55
0.24374 -0.00303 5.04443 122 83 55
0.23326 0.07076 5.03615 122 83 55
0.19666 0.14401 5.04455 122 83 55
0.14133 0.19860 5.03629 122 83 55
0.07350 0.23241 5.02872 122 83 55
0.00134 0.24375 5.04093 122 83 55
-0.07585 0.23165 5.04554 122 83 55
-0.14425 0.19649 5.04183 122 83 55
-0.19499 0.14626 5.02784 122 83 55
-0.23151 0.07627 5.04989 122 83 55
-0.24374 -0.00211 5.02752 122 83 55
-0.23207 -0.07456 5.03145 122 83 55
-0.19830 -0.14175 5.03079 122 83 55
-0.14506 -0.19589 5.04001 122 83 55
-0.07262 -0.23269 5.03534 122 83 55
-0.00360 -0.24373 5.04046 122 83 55
0.07979 -0.23033 5.05225 122 83 55
0.14604 -0.19516 5.02954 122 83 55
0.19465 -0.14673 5.05205 122 83 55
0.23178 -0.07546 5.03708 122 83 55
0.24258 0.00073 5.14992 122 83 55
0.23126 0.07323 5.16919 122 83 55
0.19707 0.14146 5.16706 122 83 55
0.13917 0.19869 5.17061 122 83 55
0.07153 0.23180 5.15587 122 83 55
0.00433 0.24254 5.15976 122 83 55
-0.07848 0.22954 5.15821 122 83 55
-0.14628 0.19351 5.17117 122 83 55
-0.19614 0.14274 5.17203 122 83 55
-0.23197 0.07097 5.17147 122 83 55
-0.24256 -0.00306 5.16308 122 83 55
-0.22980 -0.07770 5.15102 122 83 55
-0.19848 -0.13947 5.15463 122 83 55
-0.14025 -0.19793 5.16479 122 83 55
-0.07263 -0.23145 5.16419 122 83 55
-0.00269 -0.24257 5.15737 122 83 55
0.07624 -0.23029 5.16281 122 83 55
0.14138 -0.19712 5.16279 122 83 55
0.19876 -0.13907 5.16342 122 83 55
0.23206 -0.07066 5.15186 122 83 55
0.24956 -0.00447 5.27123 122 83 55
0.23799 0.07523 5.27513 122 83 55
0.20274 0.14560 5.27034 122 83 55
0.14910 0.20017 5.29152 122 83 55
0.08074 0.23618 5.27177 122 83 55
-0.00362 0.24957 5.27354 122 83 55
-0.07764 0.23722 5.27978 122 83 55
-0.14643 0.20214 5.28631 122 83 55
-0.20444 0.14319 5.28925 122 83 55
-0.23747 0.07688 5.26898 122 83 55
-0.24960 0.00162 5.28825 122 83 55
-0.23635 -0.08023 5.28326 122 83 55
-0.20338 -0.14469 5.28628 122 83 55
-0.14934 -0.20000 5.29017 122 83 55
-0.07914 -0.23672 5.27465 122 83 55
-0.00077 -0.24960 5.27710 122 83 55
0.07845 -0.23695 5.28213 122 83 55
0.14661 -0.20200 5.28889 122 83 55
0.19926 -0.15032 5.26981 122 83 55
0.23664 -0.07937 5.27255 122 83 55
