ply
format ascii 1.0
comment SIMULATED DEMO - NOT FIELD EVIDENCE
element vertex 900
property float x
property float y
property float z
property uchar red
property uchar green
property uchar blue
end_header
0.26000 0.00042 0.01103 122 83 55
0.24727 0.08037 -0.01224 122 83 55
0.20844 0.15541 -0.00451 122 83 55
0.14992 0.21242 0.00652 122 83 55
0.07670 0.24843 0.01013 122 83 55
0.00481 0.25996 -0.00305 122 83 55
-0.08405 0.24604 0.00823 122 83 55
-0.15177 0.21111 -0.00028 122 83 55
-0.21101 0.15190 -0.00676 122 83 55
-0.24789 0.07842 0.01210 122 83 55
-0.25998 0.00344 -0.01223 122 83 55
-0.24563 -0.08524 -0.00648 122 83 55
-0.21134 -0.15145 0.00122 122 83 55
-0.15029 -0.21216 0.00267 122 83 55
-0.07698 -0.24834 0.00717 122 83 55
-0.00380 -0.25997 0.00565 122 83 55
0.07591 -0.24867 -0.00165 122 83 55
0.15139 -0.21138 0.00086 122 83 55
0.21277 -0.14943 -0.00711 122 83 55
0.24872 -0.07574 0.01249 122 83 55
0.27155 0.00497 0.11682 122 83 55
0.25786 0.08529 0.13095 122 83 55
0.22263 0.15556 0.12947 122 83 55
0.16039 0.21918 0.11964 122 83 55
0.08104 0.25922 0.10896 122 83 55
0.00327 0.27158 0.10872 122 83 55
-0.08875 0.25669 0.12191 122 83 55
-0.15724 0.22145 0.12790 122 83 55
-0.22078 0.15818 0.13233 122 83 55
-0.25839 0.08366 0.11140 122 83 55
-0.27159 0.00159 0.11594 122 83 55
-0.25963 -0.07972 0.11955 122 83 55
-0.21882 -0.16088 0.11768 122 83 55
-0.16391 -0.21656 0.11779 122 83 55
-0.08599 -0.25762 0.12606 122 83 55
0.00361 -0.27157 0.11488 122 83 55
0.08520 -0.25789 0.11958 122 83 55
0.16338 -0.21696 0.11872 122 83 55
0.21909 -0.16051 0.12140 122 83 55
0.25880 -0.08239 0.12408 122 83 55
0.27768 -0.00554 0.25000 122 83 55
0.26428 0.08542 0.24791 122 83 55
0.22569 0.16188 0.24446 122 83 55
0.16372 0.22435 0.24446 122 83 55
0.08284 0.26510 0.24465 122 83 55
-0.00333 0.27772 0.23300 122 83 55
-0.08166 0.26546 0.23752 122 83 55
-0.16064 0.22657 0.22797 122 83 55
-0.22334 0.16510 0.23709 122 83 55
-0.26343 0.08799 0.24200 122 83 55
-0.27773 -0.00168 0.25201 122 83 55
-0.26437 -0.08512 0.24397 122 83 55
-0.22503 -0.16279 0.24073 122 83 55
-0.16161 -0.22588 0.25003 122 83 55
-0.08831 -0.26333 0.24061 122 83 55
0.00145 -0.27773 0.23741 122 83 55
0.08671 -0.26386 0.23858 122 83 55
0.16203 -0.22558 0.25133 122 83 55
0.22404 -0.16415 0.23216 122 83 55
0.26548 -0.08160 0.23226 122 83 55
0.27551 0.00378 0.35587 122 83 55
0.26116 0.08784 0.36663 122 83 55
0.22548 0.15837 0.36444 122 83 55
0.16156 0.22320 0.35530 122 83 55
0.08894 0.26079 0.36540 122 83 55
-0.00217 0.27553 0.37082 122 83 55
-0.09029 0.26033 0.34972 122 83 55
-0.16435 0.22116 0.35511 122 83 55
-0.22395 0.16052 0.35082 122 83 55
-0.26342 0.08082 0.36594 122 83 55
-0.27551 -0.00363 0.34810 122 83 55
-0.26229 -0.08440 0.36657 122 83 55
-0.21980 -0.16616 0.35260 122 83 55
-0.16146 -0.22327 0.34942 122 83 55
-0.08405 -0.26241 0.34871 122 83 55
0.00378 -0.27551 0.37046 122 83 55
0.08663 -0.26156 0.37187 122 83 55
0.16462 -0.22095 0.35276 122 83 55
0.22112 -0.16440 0.35871 122 83 55
0.26263 -0.08335 0.34853 122 83 55
0.26603 -0.00063 0.48212 122 83 55
0.25301 0.08220 0.47537 122 83 55
0.21366 0.15850 0.47511 122 83 55
0.15327 0.21744 0.48377 122 83 55
0.08599 0.25175 0.47361 122 83 55
-0.00430 0.26600 0.48885 122 83 55
-0.07896 0.25404 0.48935 122 83 55
-0.15746 0.21442 0.48110 122 83 55
-0.21685 0.15410 0.48066 122 83 55
-0.25284 0.08272 0.48651 122 83 55
-0.26601 -0.00357 0.47475 122 83 55
-0.25283 -0.08275 0.48329 122 83 55
-0.21449 -0.15738 0.49177 122 83 55
-0.15553 -0.21583 0.47823 122 83 55
-0.08458 -0.25223 0.48178 122 83 55
0.00196 -0.26602 0.48222 122 83 55
0.08336 -0.25263 0.49245 122 83 55
0.15850 -0.21366 0.48062 122 83 55
0.21671 -0.15431 0.49106 122 83 55
0.25376 -0.07985 0.47544 122 83 55
0.25368 -0.00152 0.59103 122 83 55
0.24217 0.07557 0.60250 122 83 55
0.20645 0.14743 0.59930 122 83 55
0.15054 0.20419 0.59308 122 83 55
0.07668 0.24182 0.60209 122 83 55
0.00279 0.25367 0.60071 122 83 55
-0.07700 0.24172 0.58791 122 83 55
-0.14765 0.20629 0.59505 122 83 55
-0.20728 0.14626 0.58785 122 83 55
-0.23993 0.08241 0.60617 122 83 55
-0.25365 -0.00398 0.59954 122 83 55
-0.24222 -0.07540 0.58851 122 83 55
-0.20697 -0.14670 0.60732 122 83 55
-0.15110 -0.20378 0.59535 122 83 55
-0.08157 -0.24021 0.59740 122 83 55
-0.00059 -0.25369 0.59072 122 83 55
0.07821 -0.24133 0.59824 122 83 55
0.15028 -0.20438 0.60694 122 83 55
0.20248 -0.15283 0.60731 122 83 55
0.24011 -0.08187 0.61220 122 83 55
0.24431 0.00088 0.71689 122 83 55
0.23134 0.07856 0.72897 122 83 55
0.19581 0.14610 0.71772 122 83 55
0.14394 0.19741 0.71012 122 83 55
0.07970 0.23094 0.71062 122 83 55
0.00045 0.24431 0.73106 122 83 55
-0.07707 0.23184 0.71236 122 83 55
-0.14212 0.19872 0.71211 122 83 55
-0.19998 0.14034 0.72333 122 83 55
-0.23266 0.07453 0.71718 122 83 55
-0.24431 -0.00139 0.71090 122 83 55
-0.23367 -0.07131 0.71030 122 83 55
-0.19875 -0.14208 0.70860 122 83 55
-0.14528 -0.19643 0.72357 122 83 55
-0.07843 -0.23138 0.71723 122 83 55
-0.00295 -0.24429 0.72571 122 83 55
0.07559 -0.23232 0.72578 122 83 55
0.14732 -0.19490 0.71207 122 83 55
0.19629 -0.14545 0.72569 122 83 55
0.23168 -0.07754 0.71798 122 83 55
0.24231 0.00073 0.84380 122 83 55
0.23140 0.07191 0.83370 122 83 55
0.19855 0.13890 0.83505 122 83 55
0.14094 0.19711 0.84033 122 83 55
0.07438 0.23062 0.82780 122 83 55
0.00357 0.24229 0.83756 122 83 55
-0.07159 0.23150 0.84531 122 83 55
-0.14352 0.19524 0.83992 122 83 55
-0.19465 0.14431 0.83366 122 83 55
-0.23043 0.07495 0.85010 122 83 55
-0.24231 0.00132 0.83735 122 83 55
-0.23148 -0.07165 0.82846 122 83 55
-0.19552 -0.14314 0.83519 122 83 55
-0.14530 -0.19392 0.84964 122 83 55
-0.07825 -0.22933 0.83530 122 83 55
-0.00361 -0.24229 0.84817 122 83 55
0.07427 -0.23065 0.83428 122 83 55
0.14621 -0.19323 0.83621 122 83 55
0.19538 -0.14333 0.85187 122 83 55
0.23039 -0.07509 0.83304 122 83 55
0.24861 -0.00386 0.95377 122 83 55
0.23504 0.08109 0.97176 122 83 55
0.20372 0.14254 0.96632 122 83 55
0.14772 0.20000 0.96541 122 83 55
0.07775 0.23617 0.96318 122 83 55
-0.00367 0.24861 0.96557 122 83 55
-0.07329 0.23759 0.96039 122 83 55
-0.14338 0.20313 0.95284 122 83 55
-0.19892 0.14917 0.96224 122 83 55
-0.23662 0.07636 0.95510 122 83 55
-0.24862 0.00250 0.96196 122 83 55
-0.23691 -0.07545 0.95029 122 83 55
-0.20254 -0.14421 0.97218 122 83 55
-0.14314 -0.20330 0.95707 122 83 55
-0.07301 -0.23768 0.97153 122 83 55
-0.00156 -0.24863 0.95269 122 83 55
0.07867 -0.23586 0.95995 122 83 55
0.14964 -0.19856 0.96388 122 83 55
0.19906 -0.14898 0.97156 122 83 55
0.23538 -0.08009 0.95769 122 83 55
0.26030 -0.00051 1.07014 122 83 55
0.24820 0.07844 1.08535 122 83 55
0.20811 0.15636 1.06856 122 83 55
0.14963 0.21300 1.07385 122 83 55
0.08006 0.24768 1.08975 122 83 55
0.00278 0.26029 1.08572 122 83 55
-0.08366 0.24649 1.06803 122 83 55
-0.15157 0.21163 1.07406 122 83 55
-0.20958 0.15438 1.07082 122 83 55
-0.24624 0.08441 1.09105 122 83 55
-0.26029 -0.00243 1.08221 122 83 55
-0.24764 -0.08019 1.06930 122 83 55
-0.21025 -0.15347 1.08578 122 83 55
-0.15106 -0.21199 1.09186 122 83 55
-0.07966 -0.24782 1.07063 122 83 55
-0.00188 -0.26030 1.07773 122 83 55
0.08295 -0.24673 1.09069 122 83 55
0.15654 -0.20797 1.09114 122 83 55
0.20754 -0.15711 1.08850 122 83 55
0.24777 -0.07979 1.08906 122 83 55
0.27182 -0.00096 1.19627 122 83 55
0.25695 0.08870 1.19759 122 83 55
0.22010 0.15952 1.19284 122 83 55
0.16031 0.21952 1.19924 122 83 55
0.08315 0.25880 1.19672 122 83 55
0.00334 0.27181 1.18926 122 83 55
-0.08803 0.25718 1.20653 122 83 55
-0.16041 0.21945 1.19049 122 83 55
-0.21726 0.16336 1.20638 122 83 55
-0.25931 0.08155 1.19746 122 83 55
-0.27179 -0.00441 1.19009 122 83 55
-0.25700 -0.08855 1.20661 122 83 55
-0.22117 -0.15803 1.20420 122 83 55
-0.16280 -0.21768 1.21098 122 83 55
-0.08232 -0.25906 1.19630 122 83 55
0.00400 -0.27180 1.19862 122 83 55
0.08356 -0.25866 1.21101 122 83 55
0.15764 -0.22145 1.20064 122 83 55
0.21787 -0.16255 1.20765 122 83 55
0.25708 -0.08831 1.19069 122 83 55
0.27779 0.00066 1.32459 122 83 55
0.26261 0.09057 1.31415 122 83 55
0.22613 0.16134 1.33156 122 83 55
0.16008 0.22702 1.31644 122 83 55
0.08235 0.26530 1.31260 122 83 55
0.00413 0.27776 1.31625 122 83 55
-0.08126 0.26564 1.32842 122 83 55
-0.16038 0.22681 1.32547 122 83 55
-0.22621 0.16122 1.31326 122 83 55
-0.26476 0.08406 1.32421 122 83 55
-0.27774 -0.00515 1.32253 122 83 55
-0.26576 -0.08086 1.31025 122 83 55
-0.22454 -0.16355 1.31893 122 83 55
-0.16379 -0.22436 1.31362 122 83 55
-0.08745 -0.26366 1.32071 122 83 55
0.00195 -0.27778 1.32835 122 83 55
0.08553 -0.26429 1.31737 122 83 55
0.16260 -0.22522 1.31949 122 83 55
0.22611 -0.16137 1.31383 122 83 55
0.26261 -0.09057 1.31992 122 83 55
0.27538 -0.00053 1.44097 122 83 55
0.26071 0.08869 1.43266 122 83 55
0.22344 0.16096 1.43610 122 83 55
0.16449 0.22086 1.44552 122 83 55
0.08715 0.26123 1.44864 122 83 55
0.00103 0.27538 1.44153 122 83 55
-0.08935 0.26048 1.43219 122 83 55
-0.16447 0.22088 1.44426 122 83 55
-0.22359 0.16076 1.44065 122 83 55
-0.26218 0.08424 1.44411 122 83 55
-0.27537 -0.00270 1.43220 122 83 55
-0.26139 -0.08667 1.43722 122 83 55
-0.22498 -0.15881 1.43118 122 83 55
-0.15787 -0.22564 1.43038 122 83 55
-0.08131 -0.26310 1.43433 122 83 55
-0.00096 -0.27538 1.45127 122 83 55
0.08792 -0.26097 1.42873 122 83 55
0.16262 -0.22224 1.43492 122 83 55
0.22358 -0.16077 1.44551 122 83 55
0.26090 -0.08814 1.43808 122 83 55
0.26570 0.00472 1.54931 122 83 55
0.25249 0.08288 1.55994 122 83 55
0.21577 0.15513 1.55474 122 83 55
0.15695 0.21445 1.56352 122 83 55
0.07832 0.25394 1.56253 122 83 55
-0.00012 0.26574 1.56851 122 83 55
-0.08256 0.25259 1.56423 122 83 55
-0.15581 0.21527 1.56740 122 83 55
-0.21251 0.15956 1.57036 122 83 55
-0.25139 0.08615 1.54824 122 83 55
-0.26574 0.00201 1.55349 122 83 55
-0.25206 -0.08416 1.56841 122 83 55
-0.21347 -0.15827 1.56883 122 83 55
-0.15343 -0.21698 1.57011 122 83 55
-0.07853 -0.25388 1.55104 122 83 55
-0.00109 -0.26574 1.56451 122 83 55
0.07909 -0.25370 1.56747 122 83 55
0.15748 -0.21406 1.56778 122 83 55
0.21274 -0.15925 1.56408 122 83 55
0.25326 -0.08049 1.55350 122 83 55
0.25340 0.00061 1.69161 122 83 55
0.23994 0.08150 1.68706 122 83 55
0.20618 0.14733 1.69092 122 83 55
0.14853 0.20531 1.67404 122 83 55
0.07888 0.24081 1.69244 122 83 55
-0.00248 0.25339 1.68083 122 83 55
-0.07862 0.24090 1.69120 122 83 55
-0.14647 0.20679 1.69184 122 83 55
-0.20479 0.14924 1.68991 122 83 55
-0.24188 0.07553 1.67413 122 83 55
-0.25340 -0.00099 1.68898 122 83 55
-0.23942 -0.08302 1.68127 122 83 55
-0.20637 -0.14705 1.67349 122 83 55
-0.15006 -0.20419 1.67473 122 83 55
-0.07466 -0.24216 1.68358 122 83 55
0.00328 -0.25338 1.67724 122 83 55
0.07441 -0.24223 1.68564 122 83 55
0.15231 -0.20252 1.67883 122 83 55
0.20779 -0.14504 1.66828 122 83 55
0.24075 -0.07909 1.67240 122 83 55
0.24413 0.00413 1.78815 122 83 55
0.23368 0.07080 1.79722 122 83 55
0.19530 0.14655 1.80680 122 83 55
0.14195 0.19867 1.80963 122 83 55
0.07848 0.23121 1.81134 122 83 55
0.00016 0.24417 1.80171 122 83 55
-0.07776 0.23145 1.79261 122 83 55
-0.14134 0.19910 1.79490 122 83 55
-0.20028 0.13966 1.81098 122 83 55
-0.23289 0.07335 1.79177 122 83 55
-0.24414 0.00359 1.79107 122 83 55
-0.23159 -0.07736 1.80535 122 83 55
-0.20013 -0.13987 1.80807 122 83 55
-0.14046 -0.19972 1.80669 122 83 55
-0.07176 -0.23338 1.78932 122 83 55
0.00050 -0.24416 1.79279 122 83 55
0.07971 -0.23079 1.81144 122 83 55
0.14157 -0.19894 1.80784 122 83 55
0.19823 -0.14255 1.80408 122 83 55
0.23225 -0.07535 1.80745 122 83 55
0.24236 -0.00245 1.92316 122 83 55
0.22998 0.07651 1.93139 122 83 55
0.19554 0.14321 1.92215 122 83 55
0.14362 0.19524 1.91700 122 83 55
0.07191 0.23146 1.92671 122 83 55
0.00481 0.24233 1.91124 122 83 55
-0.07355 0.23095 1.92381 122 83 55
-0.14343 0.19538 1.92102 122 83 55
-0.19375 0.14563 1.90805 122 83 55
-0.23095 0.07354 1.92238 122 83 55
-0.24236 -0.00293 1.91399 122 83 55
-0.23063 -0.07452 1.91062 122 83 55
-0.19553 -0.14322 1.90945 122 83 55
-0.14513 -0.19412 1.91942 122 83 55
-0.07136 -0.23163 1.91130 122 83 55
-0.00037 -0.24237 1.92351 122 83 55
0.07218 -0.23138 1.91612 122 83 55
0.14553 -0.19382 1.92056 122 83 55
0.19784 -0.14001 1.91977 122 83 55
0.23093 -0.07360 1.91927 122 83 55
0.24884 0.00399 2.05068 122 83 55
0.23597 0.07910 2.03679 122 83 55
0.19910 0.14933 2.03352 122 83 55
0.14699 0.20083 2.05003 122 83 55
0.08075 0.23541 2.05046 122 83 55
-0.00363 0.24885 2.04644 122 83 55
-0.07988 0.23571 2.04919 122 83 55
-0.14763 0.20036 2.05137 122 83 55
-0.20147 0.14611 2.02754 122 83 55
-0.23709 0.07566 2.04003 122 83 55
-0.24887 -0.00199 2.03615 122 83 55
-0.23545 -0.08063 2.02864 122 83 55
-0.20012 -0.14796 2.03670 122 83 55
-0.14680 -0.20097 2.03544 122 83 55
-0.07723 -0.23659 2.03959 122 83 55
-0.00126 -0.24887 2.03848 122 83 55
0.08138 -0.23519 2.05110 122 83 55
0.14800 -0.20009 2.03840 122 83 55
0.20388 -0.14273 2.04139 122 83 55
0.23645 -0.07764 2.04072 122 83 55
0.26056 -0.00503 2.17084 122 83 55
0.24630 0.08514 2.14824 122 83 55
0.21117 0.15272 2.15376 122 83 55
0.15134 0.21216 2.17059 122 83 55
0.08487 0.24640 2.16424 122 83 55
-0.00371 0.26058 2.15906 122 83 55
-0.08544 0.24620 2.17078 122 83 55
-0.15458 0.20981 2.15623 122 83 55
-0.21116 0.15272 2.16705 122 83 55
-0.24741 0.08187 2.15607 122 83 55
-0.26056 0.00503 2.15270 122 83 55
-0.24670 -0.08398 2.15647 122 83 55
-0.21120 -0.15267 2.16437 122 83 55
-0.15725 -0.20781 2.15737 122 83 55
-0.07908 -0.24832 2.16804 122 83 55
0.00019 -0.26061 2.16903 122 83 55
0.08535 -0.24623 2.15547 122 83 55
0.15020 -0.21297 2.15100 122 83 55
0.21144 -0.15235 2.16851 122 83 55
0.24675 -0.08384 2.15892 122 83 55
0.27203 -0.00345 2.27632 122 83 55
0.25946 0.08182 2.27723 122 83 55
0.21953 0.16068 2.27181 122 83 55
0.16297 0.21784 2.28223 122 83 55
0.08217 0.25935 2.28004 122 83 55
-0.00009 0.27205 2.28130 122 83 55
-0.08215 0.25935 2.27714 122 83 55
-0.15887 0.22085 2.28016 122 83 55
-0.21906 0.16133 2.27509 122 83 55
-0.26025 0.07925 2.28635 122 83 55
-0.27200 0.00529 2.28856 122 83 55
-0.26011 -0.07972 2.26846 122 83 55
-0.22159 -0.15783 2.27131 122 83 55
-0.16104 -0.21927 2.28673 122 83 55
-0.08337 -0.25896 2.27121 122 83 55
0.00093 -0.27205 2.27208 122 83 55
0.08402 -0.25875 2.28372 122 83 55
0.16101 -0.21929 2.28660 122 83 55
0.21800 -0.16275 2.29030 122 83 55
0.25783 -0.08681 2.28020 122 83 55
0.27781 -0.00358 2.39424 122 83 55
0.26437 0.08544 2.40885 122 83 55
0.22414 0.16417 2.40787 122 83 55
0.16507 0.22348 2.39657 122 83 55
0.08747 0.26370 2.39607 122 83 55
0.00374 0.27781 2.39930 122 83 55
-0.09050 0.26268 2.41248 122 83 55
-0.15884 0.22795 2.41010 122 83 55
-0.22313 0.16553 2.39603 122 83 55
-0.26375 0.08732 2.40131 122 83 55
-0.27778 0.00513 2.40657 122 83 55
-0.26401 -0.08653 2.41085 122 83 55
-0.22640 -0.16104 2.39962 122 83 55
-0.16000 -0.22714 2.40055 122 83 55
-0.08737 -0.26374 2.40175 122 83 55
-0.00196 -0.27782 2.40126 122 83 55
0.08331 -0.26505 2.40392 122 83 55
0.16403 -0.22424 2.39022 122 83 55
0.22472 -0.16337 2.39686 122 83 55
0.26576 -0.08100 2.40276 122 83 55
0.27521 0.00314 2.52332 122 83 55
0.26184 0.08479 2.53152 122 83 55
0.22448 0.15923 2.51379 122 83 55
0.15991 0.22400 2.50760 122 83 55
0.08518 0.26171 2.52301 122 83 55
-0.00124 0.27522 2.50942 122 83 55
-0.08069 0.26313 2.51624 122 83 55
-0.16359 0.22133 2.52610 122 83 55
-0.22156 0.16327 2.51037 122 83 55
-0.26089 0.08767 2.50878 122 83 55
-0.27522 -0.00127 2.51114 122 83 55
-0.26230 -0.08336 2.52912 122 83 55
-0.22401 -0.15990 2.50907 122 83 55
-0.15733 -0.22582 2.51078 122 83 55
-0.09001 -0.26009 2.50798 122 83 55
0.00229 -0.27521 2.51090 122 83 55
0.08624 -0.26136 2.51606 122 83 55
0.15754 -0.22568 2.50962 122 83 55
0.22280 -0.16159 2.51095 122 83 55
0.26041 -0.08908 2.52222 122 83 55
0.26545 0.00167 2.64133 122 83 55
0.25285 0.08083 2.64957 122 83 55
0.21678 0.15321 2.64386 122 83 55
0.15494 0.21555 2.64878 122 83 55
0.08430 0.25171 2.63054 122 83 55
0.00225 0.26545 2.63233 122 83 55
-0.08030 0.25302 2.63288 122 83 55
-0.15787 0.21341 2.63504 122 83 55
-0.21645 0.15367 2.64535 122 83 55
-0.25277 0.08109 2.64471 122 83 55
-0.26545 -0.00109 2.64708 122 83 55
-0.25101 -0.08637 2.62823 122 83 55
-0.21518 -0.15546 2.65169 122 83 55
-0.15846 -0.21297 2.63156 122 83 55
-0.08277 -0.25222 2.64684 122 83 55
0.00177 -0.26545 2.64276 122 83 55
0.08287 -0.25219 2.64077 122 83 55
0.15767 -0.21356 2.63911 122 83 55
0.21262 -0.15894 2.63999 122 83 55
0.25395 -0.07731 2.64493 122 83 55
0.25311 -0.00254 2.75790 122 83 55
0.23991 0.08072 2.75357 122 83 55
0.20321 0.15092 2.77084 122 83 55
0.14958 0.20420 2.75790 122 83 55
0.07964 0.24027 2.76416 122 83 55
0.00474 0.25308 2.76000 122 83 55
-0.07368 0.24216 2.76696 122 83 55
-0.14480 0.20761 2.76206 122 83 55
-0.20469 0.14891 2.75586 122 83 55
-0.24135 0.07629 2.77161 122 83 55
-0.25312 0.00105 2.76881 122 83 55
-0.24128 -0.07653 2.76563 122 83 55
-0.20637 -0.14656 2.76681 122 83 55
-0.15016 -0.20377 2.75422 122 83 55
-0.08020 -0.24008 2.76716 122 83 55
-0.00129 -0.25312 2.77063 122 83 55
0.07403 -0.24205 2.75342 122 83 55
0.15047 -0.20354 2.77118 122 83 55
0.20221 -0.15225 2.74836 122 83 55
0.24186 -0.07465 2.75912 122 83 55
0.24400 0.00305 2.88757 122 83 55
0.23137 0.07756 2.87351 122 83 55
0.19743 0.14341 2.87238 122 83 55
0.14439 0.19672 2.87478 122 83 55
0.07402 0.23253 2.88237 122 83 55
0.00091 0.24402 2.88538 122 83 55
-0.07801 0.23122 2.88366 122 83 55
-0.14394 0.19705 2.87480 122 83 55
-0.19857 0.14183 2.87564 122 83 55
-0.23314 0.07208 2.88488 122 83 55
-0.24401 0.00283 2.87984 122 83 55
-0.23204 -0.07552 2.87708 122 83 55
-0.19924 -0.14089 2.87127 122 83 55
-0.14392 -0.19707 2.88018 122 83 55
-0.07715 -0.23151 2.88821 122 83 55
-0.00392 -0.24399 2.87772 122 83 55
0.07147 -0.23332 2.88838 122 83 55
0.14644 -0.19520 2.88089 122 83 55
0.19793 -0.14273 2.87503 122 83 55
0.23189 -0.07600 2.88887 122 83 55
0.24244 -0.00047 2.99325 122 83 55
0.23050 0.07516 2.98980 122 83 55
0.19427 0.14504 2.98766 122 83 55
0.14348 0.19543 2.99683 122 83 55
0.07726 0.22980 2.98914 122 83 55
-0.00088 0.24244 2.98994 122 83 55
-0.07896 0.22922 3.00447 122 83 55
-0.13908 0.19858 2.99054 122 83 55
-0.19716 0.14109 2.98884 122 83 55
-0.23066 0.07465 3.00193 122 83 55
-0.24244 0.00083 2.99262 122 83 55
-0.23031 -0.07571 3.01030 122 83 55
-0.19776 -0.14024 2.99507 122 83 55
-0.14300 -0.19578 3.01164 122 83 55
-0.07695 -0.22990 2.99858 122 83 55
0.00127 -0.24244 2.99187 122 83 55
0.07079 -0.23187 2.98874 122 83 55
0.14263 -0.19605 2.99314 122 83 55
0.19706 -0.14122 2.99650 122 83 55
0.22986 -0.07709 3.00584 122 83 55
0.24910 -0.00255 3.12492 122 83 55
0.23657 0.07806 3.12705 122 83 55
0.19917 0.14963 3.11944 122 83 55
0.14454 0.20290 3.11733 122 83 55
0.07885 0.23630 3.11170 122 83 55
-0.00318 0.24909 3.11411 122 83 55
-0.07423 0.23780 3.12328 122 83 55
-0.14520 0.20242 3.11602 122 83 55
-0.20110 0.14703 3.12185 122 83 55
-0.23570 0.08064 3.10907 122 83 55
-0.24908 -0.00430 3.10863 122 83 55
-0.23717 -0.07620 3.11641 122 83 55
-0.20294 -0.14447 3.11227 122 83 55
-0.14963 -0.19917 3.12499 122 83 55
-0.07871 -0.23635 3.12536 122 83 55
-0.00248 -0.24910 3.12855 122 83 55
0.07438 -0.23775 3.12627 122 83 55
0.14869 -0.19987 3.10769 122 83 55
0.20386 -0.14317 3.11007 122 83 55
0.23606 -0.07957 3.12389 122 83 55
0.26091 -0.00083 3.22865 122 83 55
0.24842 0.07976 3.23070 122 83 55
0.21156 0.15269 3.23133 122 83 55
0.14984 0.21359 3.24663 122 83 55
0.08496 0.24669 3.24861 122 83 55
0.00109 0.26091 3.23534 122 83 55
-0.07865 0.24877 3.24276 122 83 55
-0.15138 0.21250 3.24520 122 83 55
-0.21115 0.15325 3.23047 122 83 55
-0.24737 0.08295 3.24126 122 83 55
-0.26090 -0.00213 3.24384 122 83 55
-0.24690 -0.08433 3.24924 122 83 55
-0.20886 -0.15636 3.24218 122 83 55
-0.15157 -0.21237 3.25218 122 83 55
-0.08415 -0.24697 3.24866 122 83 55
-0.00237 -0.26090 3.24171 122 83 55
0.07614 -0.24955 3.24166 122 83 55
0.15489 -0.20996 3.23205 122 83 55
0.21203 -0.15204 3.23736 122 83 55
0.24757 -0.08234 3.25146 122 83 55
0.27227 0.00119 3.35095 122 83 55
0.25883 0.08450 3.35143 122 83 55
0.22006 0.16033 3.36547 122 83 55
0.15858 0.22133 3.36602 122 83 55
0.08000 0.26026 3.36319 122 83 55
0.00255 0.27226 3.35420 122 83 55
-0.08549 0.25851 3.35601 122 83 55
-0.15726 0.22227 3.36477 122 83 55
-0.22310 0.15608 3.35737 122 83 55
-0.25989 0.08119 3.36966 122 83 55
-0.27226 0.00306 3.34945 122 83 55
-0.25855 -0.08536 3.37235 122 83 55
-0.21805 -0.16305 3.37093 122 83 55
-0.16212 -0.21875 3.36983 122 83 55
-0.08501 -0.25866 3.36140 122 83 55
-0.00382 -0.27225 3.35741 122 83 55
0.08617 -0.25828 3.35518 122 83 55
0.16046 -0.21997 3.37213 122 83 55
0.21811 -0.16298 3.34824 122 83 55
0.25763 -0.08811 3.35174 122 83 55
0.27784 -0.00395 3.48846 122 83 55
0.26385 0.08716 3.48739 122 83 55
0.22289 0.16593 3.48040 122 83 55
0.16102 0.22646 3.48961 122 83 55
0.08647 0.26407 3.47223 122 83 55
0.00389 0.27784 3.48809 122 83 55
-0.08171 0.26558 3.47364 122 83 55
-0.15899 0.22789 3.49246 122 83 55
-0.22216 0.16690 3.48486 122 83 55
-0.26272 0.09051 3.47200 122 83 55
-0.27783 0.00453 3.47797 122 83 55
-0.26442 -0.08540 3.47397 122 83 55
-0.22744 -0.15963 3.46830 122 83 55
-0.16589 -0.22291 3.47109 122 83 55
-0.08985 -0.26294 3.47449 122 83 55
-0.00406 -0.27784 3.49029 122 83 55
0.08708 -0.26387 3.47254 122 83 55
0.15989 -0.22726 3.48073 122 83 55
0.22657 -0.16086 3.47998 122 83 55
0.26484 -0.08410 3.48575 122 83 55
0.27506 -0.00074 3.60788 122 83 55
0.26083 0.08732 3.60928 122 83 55
0.22456 0.15883 3.60939 122 83 55
0.16382 0.22096 3.60879 122 83 55
0.08231 0.26245 3.60504 122 83 55
0.00287 0.27504 3.59791 122 83 55
-0.08989 0.25996 3.59601 122 83 55
-0.16469 0.22031 3.59819 122 83 55
-0.22384 0.15986 3.60802 122 83 55
-0.26013 0.08938 3.61076 122 83 55
-0.27505 -0.00246 3.59459 122 83 55
-0.26241 -0.08245 3.58969 122 83 55
-0.22370 -0.16005 3.59986 122 83 55
-0.15891 -0.22451 3.59545 122 83 55
-0.08963 -0.26005 3.59218 122 83 55
0.00022 -0.27506 3.59281 122 83 55
0.08131 -0.26277 3.61113 122 83 55
0.15882 -0.22458 3.58885 122 83 55
0.22061 -0.16428 3.60179 122 83 55
0.26028 -0.08896 3.58813 122 83 55
0.26516 -0.00119 3.71127 122 83 55
0.25304 0.07927 3.71818 122 83 55
0.21627 0.15343 3.71393 122 83 55
0.15665 0.21395 3.71973 122 83 55
0.08110 0.25246 3.70777 122 83 55
0.00042 0.26517 3.72244 122 83 55
-0.08372 0.25161 3.73089 122 83 55
-0.15180 0.21742 3.70804 122 83 55
-0.21700 0.15240 3.72809 122 83 55
-0.25052 0.08691 3.71911 122 83 55
-0.26512 0.00524 3.70887 122 83 55
-0.25242 -0.08122 3.70797 122 83 55
-0.21163 -0.15977 3.70949 122 83 55
-0.15179 -0.21742 3.71626 122 83 55
-0.08364 -0.25163 3.70789 122 83 55
-0.00091 -0.26517 3.71237 122 83 55
0.07903 -0.25311 3.72155 122 83 55
0.15798 -0.21297 3.71980 122 83 55
0.21700 -0.15239 3.72457 122 83 55
0.25311 -0.07906 3.72579 122 83 55
0.25281 0.00425 3.84664 122 83 55
0.24068 0.07749 3.83623 122 83 55
0.20703 0.14516 3.83266 122 83 55
0.15253 0.20165 3.83351 122 83 55
0.07667 0.24094 3.84308 122 83 55
0.00209 0.25284 3.84560 122 83 55
-0.08180 0.23925 3.83139 122 83 55
-0.14471 0.20734 3.84097 122 83 55
-0.20380 0.14965 3.84118 122 83 55
-0.23985 0.08001 3.84478 122 83 55
-0.25281 0.00401 3.85172 122 83 55
-0.23898 -0.08256 3.83348 122 83 55
-0.20697 -0.14524 3.84710 122 83 55
-0.14664 -0.20598 3.83606 122 83 55
-0.07353 -0.24192 3.84526 122 83 55
-0.00397 -0.25281 3.83117 122 83 55
0.07375 -0.24185 3.82947 122 83 55
0.15139 -0.20251 3.83610 122 83 55
0.20409 -0.14925 3.83113 122 83 55
0.24140 -0.07521 3.83935 122 83 55
0.24389 -0.00001 3.96388 122 83 55
0.23189 0.07554 3.95513 122 83 55
0.19537 0.14599 3.95053 122 83 55
0.14370 0.19706 3.96916 122 83 55
0.07956 0.23055 3.96013 122 83 55
0.00334 0.24386 3.97152 122 83 55
-0.07496 0.23208 3.95423 122 83 55
-0.14415 0.19672 3.95349 122 83 55
-0.19742 0.14321 3.97232 122 83 55
-0.23179 0.07586 3.95159 122 83 55
-0.24388 0.00207 3.94776 122 83 55
-0.23332 -0.07100 3.95824 122 83 55
-0.19769 -0.14282 3.96678 122 83 55
-0.14498 -0.19612 3.96480 122 83 55
-0.07457 -0.23221 3.96949 122 83 55
0.00468 -0.24384 3.96390 122 83 55
0.07083 -0.23337 3.94776 122 83 55
0.14568 -0.19560 3.96925 122 83 55
0.19961 -0.14014 3.95153 122 83 55
0.23160 -0.07644 3.96745 122 83 55
0.24249 0.00261 4.09095 122 83 55
0.23131 0.07284 4.09243 122 83 55
0.19496 0.14423 4.08833 122 83 55
0.14499 0.19439 4.07953 122 83 55
0.07366 0.23105 4.08482 122 83 55
0.00137 0.24250 4.08235 122 83 55
-0.07557 0.23043 4.08827 122 83 55
-0.14430 0.19490 4.09196 122 83 55
-0.19729 0.14103 4.07980 122 83 55
-0.22962 0.07801 4.07895 122 83 55
-0.24249 -0.00328 4.08290 122 83 55
-0.23163 -0.07180 4.09057 122 83 55
-0.19674 -0.14178 4.07019 122 83 55
-0.14251 -0.19621 4.08083 122 83 55
-0.07933 -0.22916 4.06907 122 83 55
0.00471 -0.24246 4.08833 122 83 55
0.07470 -0.23072 4.08398 122 83 55
0.13984 -0.19813 4.08227 122 83 55
0.19674 -0.14178 4.08390 122 83 55
0.23090 -0.07413 4.07879 122 83 55
0.24934 -0.00269 4.20543 122 83 55
0.23794 0.07460 4.20563 122 83 55
0.20205 0.14613 4.21248 122 83 55
0.14351 0.20392 4.20985 122 83 55
0.07631 0.23739 4.20545 122 83 55
-0.00100 0.24935 4.20398 122 83 55
-0.08031 0.23607 4.20344 122 83 55
-0.15034 0.19893 4.20283 122 83 55
-0.20185 0.14640 4.20482 122 83 55
-0.23648 0.07908 4.20906 122 83 55
-0.24931 0.00491 4.19232 122 83 55
-0.23571 -0.08136 4.19186 122 83 55
-0.20328 -0.14441 4.19525 122 83 55
-0.14989 -0.19928 4.19964 122 83 55
-0.07983 -0.23623 4.20776 122 83 55
0.00188 -0.24935 4.20855 122 83 55
0.07909 -0.23648 4.19315 122 83 55
0.14349 -0.20393 4.19005 122 83 55
0.20136 -0.14708 4.21050 122 83 55
0.23772 -0.07529 4.21203 122 83 55
0.26116 0.00507 4.32636 122 83 55
0.24842 0.08074 4.31413 122 83 55
0.21039 0.15482 4.31515 122 83 55
0.15727 0.20856 4.31427 122 83 55
0.07717 0.24955 4.32853 122 83 55
0.00465 0.26117 4.32948 122 83 55
-0.08145 0.24818 4.31986 122 83 55
-0.15355 0.21131 4.32570 122 83 55
-0.20986 0.15553 4.31648 122 83 55
-0.24709 0.08471 4.31695 122 83 55
-0.26117 0.00477 4.31869 122 83 55
-0.24878 -0.07961 4.32116 122 83 55
-0.21343 -0.15059 4.32522 122 83 55
-0.15530 -0.21003 4.32553 122 83 55
-0.07626 -0.24983 4.32191 122 83 55
0.00386 -0.26118 4.32617 122 83 55
0.08513 -0.24695 4.32587 122 83 55
0.15390 -0.21106 4.31251 122 83 55
0.21259 -0.15178 4.30906 122 83 55
0.24700 -0.08497 4.32351 122 83 55
0.27249 0.00046 4.45140 122 83 55
0.25748 0.08921 4.42894 122 83 55
0.22158 0.15861 4.43974 122 83 55
0.16149 0.21948 4.43006 122 83 55
0.07988 0.26052 4.43013 122 83 55
-0.00540 0.27244 4.45046 122 83 55
-0.08930 0.25745 4.44740 122 83 55
-0.16110 0.21977 4.44406 122 83 55
-0.21883 0.16238 4.45205 122 83 55
-0.25851 0.08618 4.42836 122 83 55
-0.27248 0.00243 4.44075 122 83 55
-0.25861 -0.08587 4.43755 122 83 55
-0.21959 -0.16135 4.44303 122 83 55
-0.16315 -0.21826 4.43602 122 83 55
-0.08067 -0.26028 4.43810 122 83 55
0.00208 -0.27249 4.44428 122 83 55
0.08266 -0.25965 4.44670 122 83 55
0.16031 -0.22035 4.43563 122 83 55
0.22204 -0.15796 4.43448 122 83 55
0.25995 -0.08172 4.44276 122 83 55
0.27790 0.00210 4.56432 122 83 55
0.26480 0.08431 4.56525 122 83 55
0.22590 0.16187 4.55159 122 83 55
0.16539 0.22333 4.55975 122 83 55
0.08753 0.26376 4.55228 122 83 55
0.00555 0.27785 4.57113 122 83 55
-0.08709 0.26391 4.57048 122 83 55
-0.16610 0.22281 4.56901 122 83 55
-0.22396 0.16453 4.55256 122 83 55
-0.26450 0.08526 4.56040 122 83 55
-0.27789 0.00247 4.57218 122 83 55
-0.26393 -0.08701 4.56039 122 83 55
-0.22354 -0.16511 4.55591 122 83 55
-0.16461 -0.22390 4.54906 122 83 55
-0.08865 -0.26338 4.56103 122 83 55
-0.00080 -0.27790 4.55417 122 83 55
0.08288 -0.26526 4.54790 122 83 55
0.16337 -0.22481 4.55522 122 83 55
0.22638 -0.16119 4.57088 122 83 55
0.26372 -0.08764 4.56083 122 83 55
0.27489 -0.00087 4.68774 122 83 55
0.26159 0.08448 4.68777 122 83 55
0.22534 0.15744 4.67905 122 83 55
0.16093 0.22286 4.68596 122 83 55
0.08387 0.26179 4.66992 122 83 55
-0.00226 0.27488 4.68024 122 83 55
-0.08632 0.26099 4.67817 122 83 55
-0.16178 0.22224 4.68070 122 83 55
-0.22324 0.16041 4.66872 122 83 55
-0.26138 0.08511 4.67006 122 83 55
-0.27485 0.00485 4.68081 122 83 55
-0.26080 -0.08688 4.68726 122 83 55
-0.22383 -0.15958 4.69043 122 83 55
-0.16114 -0.22271 4.67311 122 83 55
-0.08741 -0.26062 4.68186 122 83 55
0.00278 -0.27488 4.67995 122 83 55
0.08081 -0.26274 4.68346 122 83 55
0.15737 -0.22539 4.67853 122 83 55
0.22251 -0.16141 4.67884 122 83 55
0.26223 -0.08245 4.67641 122 83 55
0.26484 0.00461 4.80626 122 83 55
0.25244 0.08020 4.78892 122 83 55
0.21172 0.15917 4.79988 122 83 55
0.15859 0.21215 4.79417 122 83 55
0.07831 0.25304 4.80301 122 83 55
0.00391 0.26485 4.80582 122 83 55
-0.08065 0.25230 4.78967 122 83 55
-0.15397 0.21553 4.80256 122 83 55
-0.21605 0.15324 4.81214 122 83 55
-0.25144 0.08328 4.81048 122 83 55
-0.26487 0.00148 4.80309 122 83 55
-0.25188 -0.08195 4.79488 122 83 55
-0.21327 -0.15708 4.80768 122 83 55
-0.15703 -0.21331 4.78999 122 83 55
-0.07765 -0.25324 4.80670 122 83 55
0.00102 -0.26487 4.80594 122 83 55
0.07784 -0.25318 4.79842 122 83 55
0.15953 -0.21145 4.80867 122 83 55
0.21431 -0.15567 4.78808 122 83 55
0.25110 -0.08432 4.79985 122 83 55
0.25256 0.00192 4.90986 122 83 55
0.23924 0.08095 4.92481 122 83 55
0.20575 0.14648 4.92294 122 83 55
0.14785 0.20477 4.92819 122 83 55
0.07516 0.24112 4.92398 122 83 55
-0.00064 0.25257 4.92772 122 83 55
-0.08158 0.23903 4.92504 122 83 55
-0.14926 0.20374 4.90842 122 83 55
-0.20724 0.14437 4.92684 122 83 55
-0.23952 0.08012 4.92007 122 83 55
-0.25252 -0.00486 4.92892 122 83 55
-0.23873 -0.08245 4.92268 122 83 55
-0.20142 -0.15238 4.91397 122 83 55
-0.14587 -0.20619 4.92055 122 83 55
-0.08091 -0.23926 4.93049 122 83 55
0.00060 -0.25257 4.91183 122 83 55
0.07443 -0.24135 4.92859 122 83 55
0.14656 -0.20569 4.91188 122 83 55
0.20516 -0.14731 4.91039 122 83 55
0.23966 -0.07972 4.91483 122 83 55
0.24375 0.00019 5.03263 122 83 55
0.23163 0.07590 5.03406 122 83 55
0.19991 0.13947 5.04016 122 83 55
0.14696 0.19447 5.02849 122 83 55
0.07390 0.23228 5.03559 122 83 55
0.00483 0.24371 5.04800 122 83 55
-0.07398 0.23226 5.04624 122 83 55
-0.14053 0.19917 5.03739 122 83 55
-0.19775 0.14252 5.03115 122 83 55
-0.23317 0.07105 5.04445 122 83 55
-0.24373 0.00311 5.03178 122 83 55
-0.23078 -0.07847 5.03931 122 83 55
-0.19564 -0.14539 5.04167 122 83 55
-0.14275 -0.19758 5.04817 122 83 55
-0.07662 -0.23140 5.03124 122 83 55
0.00381 -0.24372 5.04078 122 83 55
0.07331 -0.23247 5.04543 122 83 55
0.14344 -0.19708 5.04253 122 83 55
0.19685 -0.14376 5.04786 122 83 55
0.23279 -0.07229 5.04805 122 83 55
0.24256 0.00311 5.16177 122 83 55
0.22941 0.07885 5.16436 122 83 55
0.19584 0.14315 5.14888 122 83 55
0.14633 0.19348 5.15337 122 83 55
0.07865 0.22948 5.16893 122 83 55
0.00308 0.24256 5.16907 122 83 55
-0.07043 0.23213 5.16857 122 83 55
-0.14557 0.19405 5.16656 122 83 55
-0.19842 0.13956 5.15480 122 83 55
-0.23215 0.07039 5.16616 122 83 55
-0.24256 0.00342 5.16917 122 83 55
-0.23183 -0.07142 5.16686 122 83 55
-0.19585 -0.14314 5.15045 122 83 55
-0.14363 -0.19549 5.15003 122 83 55
-0.07831 -0.22959 5.15949 122 83 55
-0.00455 -0.24254 5.15016 122 83 55
0.07335 -0.23123 5.17143 122 83 55
0.14431 -0.19498 5.15103 122 83 55
0.19367 -0.14607 5.17148 122 83 55
0.23192 -0.07111 5.17151 122 83 55
0.24958 0.00293 5.29197 122 83 55
0.23875 0.07280 5.28195 122 83 55
0.20108 0.14788 5.26946 122 83 55
0.14684 0.20184 5.28292 122 83 55
0.07842 0.23696 5.27690 122 83 55
0.00379 0.24957 5.27966 122 83 55
-0.07828 0.23701 5.29231 122 83 55
-0.14567 0.20269 5.29152 122 83 55
-0.19896 0.15071 5.27145 122 83 55
-0.23829 0.07430 5.29224 122 83 55
-0.24960 -0.00015 5.27836 122 83 55
-0.23675 -0.07904 5.28797 122 83 55
-0.20114 -0.14780 5.27383 122 83 55
-0.14792 -0.20105 5.28625 122 83 55
-0.08079 -0.23616 5.27315 122 83 55
0.00216 -0.24959 5.27028 122 83 55
0.07351 -0.23853 5.29064 122 83 55
0.14974 -0.19970 5.27446 122 83 55
0.20156 -0.14723 5.26996 122 83 55
0.23726 -0.07751 5.28783 122 83 55
