ply
format ascii 1.0
comment SIMULATED DEMO - NOT FIELD EVIDENCE
element vertex 900
property float x
property float y
property float z
property uchar red
property uchar green
property uchar blue
end_header
0.25996 -0.00471 -0.00626 122 83 55
0.24755 0.07950 0.00469 122 83 55
0.21032 0.15286 -0.00974 122 83 55
0.15300 0.21022 -0.00997 122 83 55
0.07563 0.24876 0.00348 122 83 55
0.00008 0.26000 -0.00087 122 83 55
-0.08379 0.24613 0.00818 122 83 55
-0.15573 0.20820 -0.00878 122 83 55
-0.21251 0.14980 0.00705 122 83 55
-0.24769 0.07906 -0.00900 122 83 55
-0.25998 -0.00311 -0.00139 122 83 55
-0.24744 -0.07982 0.01053 122 83 55
-0.21273 -0.14948 0.00732 122 83 55
-0.15686 -0.20735 0.00516 122 83 55
-0.07897 -0.24772 0.00254 122 83 55
0.00031 -0.26000 -0.00643 122 83 55
0.07911 -0.24767 -0.01018 122 83 55
0.14900 -0.21307 0.00348 122 83 55
0.21243 -0.14992 -0.01130 122 83 55
0.24718 -0.08064 0.01032 122 83 55
0.27160 -0.00022 0.11293 122 83 55
0.25727 0.08706 0.11285 122 83 55
0.22116 0.15765 0.11005 122 83 55
0.15711 0.22154 0.13086 122 83 55
0.08539 0.25782 0.11832 122 83 55
0.00431 0.27156 0.11104 122 83 55
-0.08314 0.25856 0.13075 122 83 55
-0.16158 0.21830 0.10892 122 83 55
-0.21720 0.16307 0.11174 122 83 55
-0.25698 0.08789 0.12041 122 83 55
-0.27158 -0.00258 0.12331 122 83 55
-0.25869 -0.08272 0.12322 122 83 55
-0.22237 -0.15594 0.11418 122 83 55
-0.15935 -0.21994 0.10940 122 83 55
-0.07890 -0.25988 0.11111 122 83 55
-0.00055 -0.27160 0.12658 122 83 55
0.07921 -0.25979 0.10822 122 83 55
0.15793 -0.22096 0.12680 122 83 55
0.22101 -0.15786 0.13121 122 83 55
0.25809 -0.08457 0.12790 122 83 55
0.27774 -0.00113 0.22977 122 83 55
0.26258 0.09050 0.24392 122 83 55
0.22344 0.16496 0.24251 122 83 55
0.16296 0.22491 0.23197 122 83 55
0.08627 0.26400 0.23018 122 83 55
0.00139 0.27773 0.22951 122 83 55
-0.08676 0.26384 0.22918 122 83 55
-0.16755 0.22151 0.23702 122 83 55
-0.22666 0.16051 0.23348 122 83 55
-0.26370 0.08718 0.23247 122 83 55
-0.27774 0.00013 0.24941 122 83 55
-0.26566 -0.08103 0.24011 122 83 55
-0.22348 -0.16492 0.23913 122 83 55
-0.16293 -0.22493 0.24744 122 83 55
-0.08441 -0.26460 0.22953 122 83 55
0.00028 -0.27774 0.25039 122 83 55
0.08579 -0.26416 0.24499 122 83 55
0.16635 -0.22241 0.23816 122 83 55
0.22251 -0.16621 0.22833 122 83 55
0.26525 -0.08236 0.23509 122 83 55
0.27553 -0.00217 0.36558 122 83 55
0.26110 0.08803 0.36865 122 83 55
0.21996 0.16595 0.37178 122 83 55
0.16089 0.22369 0.34836 122 83 55
0.08574 0.26186 0.37069 122 83 55
-0.00502 0.27549 0.36721 122 83 55
-0.08441 0.26229 0.35809 122 83 55
-0.15774 0.22592 0.36793 122 83 55
-0.22085 0.16477 0.36932 122 83 55
-0.26178 0.08599 0.34820 122 83 55
-0.27554 -0.00097 0.35795 122 83 55
-0.26233 -0.08427 0.36458 122 83 55
-0.22331 -0.16141 0.36388 122 83 55
-0.16284 -0.22227 0.36673 122 83 55
-0.08051 -0.26351 0.36022 122 83 55
0.00216 -0.27553 0.35439 122 83 55
0.08576 -0.26185 0.34976 122 83 55
0.16365 -0.22167 0.35598 122 83 55
0.22356 -0.16107 0.36286 122 83 55
0.26113 -0.08792 0.35885 122 83 55
0.26601 -0.00352 0.48515 122 83 55
0.25279 0.08288 0.47255 122 83 55
0.21584 0.15552 0.48420 122 83 55
0.15801 0.21402 0.47275 122 83 55
0.08640 0.25161 0.48123 122 83 55
0.00239 0.26602 0.47447 122 83 55
-0.07813 0.25430 0.46949 122 83 55
-0.15307 0.21758 0.48991 122 83 55
-0.21381 0.15829 0.48766 122 83 55
-0.25160 0.08643 0.48205 122 83 55
-0.26603 -0.00114 0.46780 122 83 55
-0.25345 -0.08085 0.48667 122 83 55
-0.21267 -0.15982 0.47333 122 83 55
-0.15305 -0.21759 0.47160 122 83 55
-0.08396 -0.25243 0.47923 122 83 55
-0.00103 -0.26603 0.48827 122 83 55
0.08135 -0.25329 0.47749 122 83 55
0.15532 -0.21598 0.47692 122 83 55
0.21529 -0.15628 0.47238 122 83 55
0.25440 -0.07781 0.46797 122 83 55
0.25368 0.00206 0.60617 122 83 55
0.24028 0.08139 0.59856 122 83 55
0.20396 0.15085 0.59724 122 83 55
0.15093 0.20390 0.60403 122 83 55
0.08009 0.24071 0.59890 122 83 55
0.00244 0.25367 0.59601 122 83 55
-0.07630 0.24194 0.59324 122 83 55
-0.14672 0.20695 0.59446 122 83 55
-0.20691 0.14678 0.59075 122 83 55
-0.24129 0.07834 0.58758 122 83 55
-0.25365 -0.00444 0.59275 122 83 55
-0.24175 -0.07689 0.60465 122 83 55
-0.20294 -0.15222 0.59469 122 83 55
-0.14948 -0.20497 0.60815 122 83 55
-0.07955 -0.24089 0.59486 122 83 55
-0.00413 -0.25365 0.59772 122 83 55
0.07468 -0.24244 0.60424 122 83 55
0.14602 -0.20745 0.59976 122 83 55
0.20815 -0.14501 0.60938 122 83 55
0.24026 -0.08144 0.59780 122 83 55
0.24429 -0.00326 0.71648 122 83 55
0.23327 0.07262 0.70994 122 83 55
0.19707 0.14440 0.72129 122 83 55
0.14172 0.19901 0.71097 122 83 55
0.07634 0.23208 0.72530 122 83 55
0.00389 0.24428 0.72291 122 83 55
-0.07323 0.23308 0.72541 122 83 55
-0.14687 0.19524 0.72917 122 83 55
-0.19782 0.14337 0.71005 122 83 55
-0.23310 0.07318 0.72357 122 83 55
-0.24429 0.00342 0.73142 122 83 55
-0.23347 -0.07196 0.71682 122 83 55
-0.19954 -0.14097 0.71940 122 83 55
-0.14196 -0.19883 0.71931 122 83 55
-0.07523 -0.23244 0.71416 122 83 55
0.00258 -0.24430 0.73027 122 83 55
0.07688 -0.23190 0.72562 122 83 55
0.13984 -0.20033 0.71963 122 83 55
0.19882 -0.14198 0.70929 122 83 55
0.23266 -0.07456 0.72012 122 83 55
0.24230 0.00251 0.84910 122 83 55
0.23013 0.07587 0.84856 122 83 55
0.19817 0.13944 0.82924 122 83 55
0.14151 0.19670 0.84126 122 83 55
0.07402 0.23073 0.82820 122 83 55
0.00381 0.24229 0.83993 122 83 55
-0.07464 0.23053 0.84943 122 83 55
-0.14232 0.19612 0.84578 122 83 55
-0.19586 0.14268 0.83441 122 83 55
-0.23027 0.07547 0.84040 122 83 55
-0.24228 -0.00394 0.83991 122 83 55
-0.23019 -0.07570 0.83372 122 83 55
-0.19381 -0.14544 0.83286 122 83 55
-0.14000 -0.19778 0.84532 122 83 55
-0.07710 -0.22972 0.84216 122 83 55
0.00089 -0.24231 0.83655 122 83 55
0.07555 -0.23024 0.83807 122 83 55
0.14124 -0.19690 0.84246 122 83 55
0.19537 -0.14334 0.84136 122 83 55
0.23072 -0.07408 0.83352 122 83 55
0.24864 0.00068 0.96509 122 83 55
0.23719 0.07459 0.96346 122 83 55
0.20103 0.14632 0.95886 122 83 55
0.14369 0.20291 0.95084 122 83 55
0.07785 0.23613 0.95088 122 83 55
-0.00084 0.24864 0.96816 122 83 55
-0.07910 0.23572 0.96504 122 83 55
-0.14910 0.19897 0.96860 122 83 55
-0.19973 0.14809 0.97107 122 83 55
-0.23636 0.07716 0.96170 122 83 55
-0.24864 0.00059 0.96237 122 83 55
-0.23603 -0.07818 0.96056 122 83 55
-0.20197 -0.14501 0.95199 122 83 55
-0.14983 -0.19842 0.96946 122 83 55
-0.07290 -0.23771 0.96396 122 83 55
0.00107 -0.24863 0.96677 122 83 55
0.07414 -0.23733 0.95302 122 83 55
0.14890 -0.19912 0.96982 122 83 55
0.20391 -0.14227 0.96723 122 83 55
0.23745 -0.07375 0.94892 122 83 55
0.26027 -0.00438 1.06924 122 83 55
0.24654 0.08353 1.08469 122 83 55
0.20962 0.15433 1.07303 122 83 55
0.15339 0.21030 1.07858 122 83 55
0.08135 0.24726 1.07946 122 83 55
-0.00332 0.26028 1.07791 122 83 55
-0.08481 0.24610 1.07502 122 83 55
-0.15574 0.20857 1.08321 122 83 55
-0.20993 0.15390 1.08946 122 83 55
-0.24847 0.07760 1.08639 122 83 55
-0.26030 -0.00103 1.06934 122 83 55
-0.24882 -0.07645 1.07504 122 83 55
-0.21020 -0.15354 1.07059 122 83 55
-0.15412 -0.20977 1.08413 122 83 55
-0.08491 -0.24606 1.08465 122 83 55
-0.00058 -0.26030 1.08766 122 83 55
0.07982 -0.24776 1.06875 122 83 55
0.15024 -0.21257 1.07905 122 83 55
0.20937 -0.15466 1.08246 122 83 55
0.24862 -0.07712 1.07052 122 83 55
0.27181 -0.00277 1.20855 122 83 55
0.25825 0.08484 1.19256 122 83 55
0.21683 0.16393 1.20273 122 83 55
0.16102 0.21900 1.19122 122 83 55
0.08180 0.25923 1.19288 122 83 55
0.00448 0.27179 1.19702 122 83 55
-0.08230 0.25907 1.20483 122 83 55
-0.15643 0.22231 1.19554 122 83 55
-0.22247 0.15619 1.19776 122 83 55
-0.25763 0.08671 1.21098 122 83 55
-0.27183 0.00062 1.20381 122 83 55
-0.25785 -0.08603 1.20039 122 83 55
-0.22220 -0.15658 1.21250 122 83 55
-0.16321 -0.21737 1.20224 122 83 55
-0.08574 -0.25795 1.20197 122 83 55
-0.00387 -0.27180 1.19452 122 83 55
0.08862 -0.25697 1.20020 122 83 55
0.15850 -0.22084 1.19870 122 83 55
0.21838 -0.16186 1.19074 122 83 55
0.25883 -0.08304 1.19702 122 83 55
0.27776 -0.00420 1.32852 122 83 55
0.26303 0.08934 1.33208 122 83 55
0.22768 0.15915 1.32287 122 83 55
0.16436 0.22394 1.32369 122 83 55
0.08268 0.26520 1.32078 122 83 55
-0.00284 0.27777 1.31438 122 83 55
-0.08479 0.26453 1.32996 122 83 55
-0.16557 0.22306 1.31115 122 83 55
-0.22551 0.16221 1.32739 122 83 55
-0.26401 0.08638 1.32220 122 83 55
-0.27779 0.00091 1.31027 122 83 55
-0.26535 -0.08219 1.32384 122 83 55
-0.22171 -0.16736 1.31759 122 83 55
-0.16208 -0.22560 1.31383 122 83 55
-0.09064 -0.26258 1.31184 122 83 55
-0.00528 -0.27774 1.31877 122 83 55
0.08259 -0.26522 1.31645 122 83 55
0.16144 -0.22606 1.32926 122 83 55
0.22572 -0.16191 1.31097 122 83 55
0.26319 -0.08885 1.31813 122 83 55
0.27534 -0.00476 1.43726 122 83 55
0.26320 0.08100 1.44783 122 83 55
0.22171 0.16334 1.43596 122 83 55
0.15795 0.22558 1.43968 122 83 55
0.08945 0.26045 1.43418 122 83 55
0.00087 0.27538 1.42884 122 83 55
-0.08251 0.26273 1.43617 122 83 55
-0.15990 0.22421 1.43495 122 83 55
-0.22585 0.15757 1.45023 122 83 55
-0.26291 0.08194 1.43492 122 83 55
-0.27534 0.00465 1.44643 122 83 55
-0.26261 -0.08289 1.43529 122 83 55
-0.22432 -0.15973 1.43558 122 83 55
-0.16498 -0.22050 1.43818 122 83 55
-0.08918 -0.26054 1.44673 122 83 55
0.00123 -0.27538 1.43069 122 83 55
0.08827 -0.26085 1.43612 122 83 55
0.16077 -0.22358 1.43425 122 83 55
0.22281 -0.16183 1.44222 122 83 55
0.26257 -0.08302 1.43143 122 83 55
0.26574 -0.00001 1.55243 122 83 55
0.25228 0.08353 1.56403 122 83 55
0.21473 0.15657 1.56354 122 83 55
0.15557 0.21545 1.56256 122 83 55
0.07719 0.25429 1.56897 122 83 55
0.00392 0.26571 1.56837 122 83 55
-0.08347 0.25229 1.56245 122 83 55
-0.15330 0.21707 1.56615 122 83 55
-0.21454 0.15682 1.55364 122 83 55
-0.25258 0.08260 1.55044 122 83 55
-0.26574 0.00129 1.55280 122 83 55
-0.25373 -0.07901 1.56141 122 83 55
-0.21585 -0.15501 1.55262 122 83 55
-0.15594 -0.21518 1.57104 122 83 55
-0.08016 -0.25337 1.57174 122 83 55
0.00143 -0.26574 1.56255 122 83 55
0.08315 -0.25240 1.55554 122 83 55
0.15281 -0.21741 1.55159 122 83 55
0.21186 -0.16042 1.56134 122 83 55
0.25348 -0.07981 1.55453 122 83 55
0.25339 -0.00285 1.68097 122 83 55
0.24008 0.08109 1.68505 122 83 55
0.20501 0.14895 1.67045 122 83 55
0.14841 0.20540 1.67658 122 83 55
0.07771 0.24119 1.68220 122 83 55
-0.00156 0.25340 1.67958 122 83 55
-0.07771 0.24119 1.67693 122 83 55
-0.14668 0.20663 1.68851 122 83 55
-0.20419 0.15007 1.67334 122 83 55
-0.24077 0.07900 1.68503 122 83 55
-0.25340 -0.00031 1.68009 122 83 55
-0.24105 -0.07815 1.66988 122 83 55
-0.20264 -0.15215 1.67574 122 83 55
-0.15121 -0.20334 1.67727 122 83 55
-0.07947 -0.24062 1.68860 122 83 55
-0.00424 -0.25337 1.67697 122 83 55
0.07521 -0.24199 1.68473 122 83 55
0.15166 -0.20301 1.67528 122 83 55
0.20782 -0.14499 1.67855 122 83 55
0.24116 -0.07781 1.68255 122 83 55
0.24416 -0.00202 1.80665 122 83 55
0.23192 0.07635 1.79108 122 83 55
0.19878 0.14179 1.79694 122 83 55
0.14263 0.19818 1.79845 122 83 55
0.07365 0.23279 1.79119 122 83 55
-0.00314 0.24415 1.78753 122 83 55
-0.07846 0.23122 1.81044 122 83 55
-0.14054 0.19966 1.80598 122 83 55
-0.19831 0.14245 1.80909 122 83 55
-0.23302 0.07294 1.79380 122 83 55
-0.24416 0.00083 1.79944 122 83 55
-0.23189 -0.07646 1.79416 122 83 55
-0.19674 -0.14460 1.80008 122 83 55
-0.14583 -0.19583 1.80382 122 83 55
-0.07183 -0.23336 1.79743 122 83 55
-0.00175 -0.24416 1.80570 122 83 55
0.07101 -0.23361 1.79121 122 83 55
0.14361 -0.19747 1.80740 122 83 55
0.19992 -0.14017 1.80074 122 83 55
0.23340 -0.07172 1.79086 122 83 55
0.24237 0.00007 1.91041 122 83 55
0.23095 0.07354 1.92927 122 83 55
0.19377 0.14560 1.92352 122 83 55
0.14187 0.19652 1.91911 122 83 55
0.07156 0.23157 1.92046 122 83 55
-0.00413 0.24234 1.92586 122 83 55
-0.07841 0.22934 1.92304 122 83 55
-0.14577 0.19364 1.92360 122 83 55
-0.19682 0.14145 1.92316 122 83 55
-0.23124 0.07261 1.91491 122 83 55
-0.24237 -0.00063 1.92037 122 83 55
-0.23136 -0.07224 1.92839 122 83 55
-0.19370 -0.14569 1.90892 122 83 55
-0.14620 -0.19331 1.91294 122 83 55
-0.07600 -0.23015 1.91631 122 83 55
-0.00215 -0.24237 1.90859 122 83 55
0.07232 -0.23133 1.92657 122 83 55
0.14289 -0.19577 1.93047 122 83 55
0.19669 -0.14163 1.92763 122 83 55
0.23195 -0.07031 1.90824 122 83 55
0.24887 -0.00131 2.04857 122 83 55
0.23742 0.07462 2.05006 122 83 55
0.20098 0.14678 2.04368 122 83 55
0.14799 0.20009 2.04099 122 83 55
0.07733 0.23656 2.03146 122 83 55
0.00315 0.24885 2.03722 122 83 55
-0.08026 0.23558 2.02822 122 83 55
-0.14793 0.20014 2.04870 122 83 55
-0.20364 0.14307 2.04666 122 83 55
-0.23555 0.08035 2.03405 122 83 55
-0.24887 -0.00199 2.04170 122 83 55
-0.23648 -0.07757 2.04270 122 83 55
-0.20123 -0.14644 2.03156 122 83 55
-0.14346 -0.20337 2.03576 122 83 55
-0.07886 -0.23605 2.03367 122 83 55
0.00184 -0.24887 2.02801 122 83 55
0.07898 -0.23601 2.03597 122 83 55
0.14811 -0.20001 2.04999 122 83 55
0.19990 -0.14825 2.03069 122 83 55
0.23698 -0.07601 2.03523 122 83 55
0.26060 0.00190 2.16379 122 83 55
0.24900 0.07690 2.16387 122 83 55
0.21310 0.15001 2.16941 122 83 55
0.15386 0.21034 2.16038 122 83 55
0.07888 0.24838 2.16014 122 83 55
0.00248 0.26059 2.16903 122 83 55
-0.08486 0.24640 2.15004 122 83 55
-0.15103 0.21238 2.16244 122 83 55
-0.20992 0.15443 2.16861 122 83 55
-0.24801 0.08003 2.16927 122 83 55
-0.26058 -0.00352 2.16010 122 83 55
-0.24916 -0.07640 2.16880 122 83 55
-0.21240 -0.15100 2.15901 122 83 55
-0.15167 -0.21192 2.17118 122 83 55
-0.07780 -0.24872 2.16851 122 83 55
-0.00121 -0.26060 2.16342 122 83 55
0.07697 -0.24898 2.15029 122 83 55
0.14984 -0.21322 2.15747 122 83 55
0.20935 -0.15521 2.16494 122 83 55
0.24659 -0.08432 2.15789 122 83 55
0.27204 0.00201 2.27888 122 83 55
0.25975 0.08088 2.26815 122 83 55
0.22221 0.15696 2.26956 122 83 55
0.16068 0.21954 2.27026 122 83 55
0.07958 0.26015 2.28726 122 83 55
-0.00395 0.27202 2.28955 122 83 55
-0.08538 0.25831 2.28798 122 83 55
-0.16231 0.21833 2.28668 122 83 55
-0.21706 0.16401 2.28289 122 83 55
-0.25990 0.08040 2.27612 122 83 55
-0.27201 -0.00493 2.28664 122 83 55
-0.25759 -0.08753 2.28088 122 83 55
-0.21730 -0.16369 2.29242 122 83 55
-0.15990 -0.22010 2.28003 122 83 55
-0.08252 -0.25923 2.28841 122 83 55
0.00215 -0.27204 2.29143 122 83 55
0.08072 -0.25980 2.28625 122 83 55
0.15647 -0.22255 2.28861 122 83 55
0.21993 -0.16014 2.28853 122 83 55
0.25979 -0.08074 2.28183 122 83 55
0.27782 0.00269 2.39840 122 83 55
0.26289 0.08988 2.39461 122 83 55
0.22434 0.16389 2.39091 122 83 55
0.16352 0.22461 2.40843 122 83 55
0.08114 0.26572 2.39164 122 83 55
0.00132 0.27783 2.39925 122 83 55
-0.08727 0.26377 2.38965 122 83 55
-0.16569 0.22301 2.39611 122 83 55
-0.22422 0.16405 2.39297 122 83 55
-0.26460 0.08471 2.39805 122 83 55
-0.27781 0.00322 2.39596 122 83 55
-0.26523 -0.08274 2.39685 122 83 55
-0.22712 -0.16003 2.39944 122 83 55
-0.16244 -0.22540 2.39959 122 83 55
-0.08095 -0.26578 2.41034 122 83 55
0.00400 -0.27780 2.40600 122 83 55
0.08614 -0.26414 2.40424 122 83 55
0.16412 -0.22418 2.40193 122 83 55
0.22196 -0.16711 2.39011 122 83 55
0.26266 -0.09056 2.41151 122 83 55
0.27522 0.00120 2.51811 122 83 55
0.26078 0.08800 2.52695 122 83 55
0.22149 0.16337 2.51221 122 83 55
0.16053 0.22356 2.52584 122 83 55
0.08793 0.26080 2.51106 122 83 55
-0.00119 0.27522 2.51248 122 83 55
-0.08368 0.26219 2.53134 122 83 55
-0.16463 0.22056 2.52573 122 83 55
-0.22150 0.16335 2.52445 122 83 55
-0.26213 0.08388 2.51220 122 83 55
-0.27521 -0.00279 2.50843 122 83 55
-0.26155 -0.08567 2.52485 122 83 55
-0.22395 -0.15998 2.52830 122 83 55
-0.15848 -0.22501 2.52841 122 83 55
-0.08935 -0.26032 2.50936 122 83 55
0.00011 -0.27522 2.52911 122 83 55
0.08414 -0.26205 2.52397 122 83 55
0.16591 -0.21959 2.52758 122 83 55
0.22564 -0.15759 2.52405 122 83 55
0.26193 -0.08449 2.52497 122 83 55
0.26544 -0.00266 2.64216 122 83 55
0.25223 0.08275 2.63870 122 83 55
0.21741 0.15231 2.63088 122 83 55
0.15282 0.21705 2.65036 122 83 55
0.08450 0.25165 2.63615 122 83 55
-0.00014 0.26546 2.63451 122 83 55
-0.08686 0.25084 2.63132 122 83 55
-0.15682 0.21419 2.64863 122 83 55
-0.21373 0.15743 2.64546 122 83 55
-0.25239 0.08225 2.64544 122 83 55
-0.26541 0.00468 2.63000 122 83 55
-0.25082 -0.08693 2.63011 122 83 55
-0.21466 -0.15617 2.62975 122 83 55
-0.15825 -0.21313 2.63143 122 83 55
-0.08315 -0.25210 2.63499 122 83 55
-0.00266 -0.26544 2.64162 122 83 55
0.08357 -0.25196 2.64802 122 83 55
0.15571 -0.21499 2.63658 122 83 55
0.21644 -0.15369 2.62847 122 83 55
0.25348 -0.07882 2.64373 122 83 55
0.25311 -0.00277 2.75818 122 83 55
0.24211 0.07386 2.75156 122 83 55
0.20302 0.15117 2.75763 122 83 55
0.15068 0.20339 2.77084 122 83 55
0.08128 0.23972 2.76191 122 83 55
0.00425 0.25309 2.75883 122 83 55
-0.08257 0.23928 2.77099 122 83 55
-0.15099 0.20316 2.74910 122 83 55
-0.20677 0.14600 2.76977 122 83 55
-0.24008 0.08021 2.76075 122 83 55
-0.25310 -0.00358 2.74993 122 83 55
-0.24192 -0.07447 2.77213 122 83 55
-0.20262 -0.15172 2.76177 122 83 55
-0.15178 -0.20257 2.76541 122 83 55
-0.07872 -0.24057 2.76057 122 83 55
-0.00239 -0.25311 2.75951 122 83 55
0.07619 -0.24138 2.76807 122 83 55
0.14761 -0.20563 2.75531 122 83 55
0.20394 -0.14994 2.75102 122 83 55
0.24086 -0.07784 2.74813 122 83 55
0.24402 0.00140 2.87016 122 83 55
0.23290 0.07282 2.88887 122 83 55
0.19882 0.14148 2.86883 122 83 55
0.14512 0.19618 2.89137 122 83 55
0.07941 0.23074 2.87220 122 83 55
0.00285 0.24401 2.88475 122 83 55
-0.07341 0.23272 2.87382 122 83 55
-0.14074 0.19935 2.89102 122 83 55
-0.19778 0.14294 2.86783 122 83 55
-0.23154 0.07704 2.88894 122 83 55
-0.24402 -0.00088 2.87126 122 83 55
-0.23066 -0.07964 2.88709 122 83 55
-0.19875 -0.14158 2.87714 122 83 55
-0.13973 -0.20006 2.87469 122 83 55
-0.07206 -0.23314 2.89027 122 83 55
0.00488 -0.24398 2.88039 122 83 55
0.07814 -0.23117 2.87906 122 83 55
0.14218 -0.19832 2.87529 122 83 55
0.20002 -0.13979 2.88261 122 83 55
0.23083 -0.07914 2.88789 122 83 55
0.24243 0.00152 2.98903 122 83 55
0.23070 0.07454 2.99959 122 83 55
0.19543 0.14346 2.99173 122 83 55
0.14593 0.19360 3.00602 122 83 55
0.07290 0.23122 3.00696 122 83 55
-0.00167 0.24243 3.00539 122 83 55
-0.07219 0.23144 2.99215 122 83 55
-0.14471 0.19452 3.00658 122 83 55
-0.19751 0.14060 3.01053 122 83 55
-0.23144 0.07221 3.00561 122 83 55
-0.24244 0.00008 2.99921 122 83 55
-0.22940 -0.07844 2.99070 122 83 55
-0.19338 -0.14623 2.99379 122 83 55
-0.14039 -0.19765 3.00728 122 83 55
-0.07416 -0.23082 2.99901 122 83 55
0.00398 -0.24241 3.00039 122 83 55
0.07791 -0.22958 3.00109 122 83 55
0.14570 -0.19377 3.00838 122 83 55
0.19796 -0.13996 2.99877 122 83 55
0.22939 -0.07847 2.98805 122 83 55
0.24911 0.00049 3.13127 122 83 55
0.23629 0.07888 3.12742 122 83 55
0.19969 0.14893 3.12247 122 83 55
0.14428 0.20308 3.11877 122 83 55
0.08106 0.23556 3.11225 122 83 55
0.00348 0.24909 3.11588 122 83 55
-0.07669 0.23701 3.12676 122 83 55
-0.14287 0.20407 3.13034 122 83 55
-0.20326 0.14402 3.12086 122 83 55
-0.23760 0.07487 3.12847 122 83 55
-0.24909 0.00346 3.11228 122 83 55
-0.23669 -0.07769 3.12624 122 83 55
-0.20120 -0.14689 3.12301 122 83 55
-0.14386 -0.20338 3.12618 122 83 55
-0.07362 -0.23799 3.13016 122 83 55
-0.00233 -0.24910 3.12627 122 83 55
0.07739 -0.23679 3.10916 122 83 55
0.14904 -0.19961 3.11213 122 83 55
0.20125 -0.14682 3.10898 122 83 55
0.23558 -0.08100 3.12515 122 83 55
0.26090 -0.00143 3.25010 122 83 55
0.24736 0.08298 3.25030 122 83 55
0.21398 0.14929 3.25191 122 83 55
0.15710 0.20831 3.23381 122 83 55
0.08434 0.24690 3.24810 122 83 55
0.00195 0.26090 3.24195 122 83 55
-0.07780 0.24904 3.22923 122 83 55
-0.14975 0.21365 3.22855 122 83 55
-0.21171 0.15249 3.23329 122 83 55
-0.24917 0.07739 3.23500 122 83 55
-0.26090 -0.00214 3.24118 122 83 55
-0.24939 -0.07668 3.23300 122 83 55
-0.21135 -0.15299 3.23038 122 83 55
-0.15460 -0.21017 3.24111 122 83 55
-0.07890 -0.24869 3.25107 122 83 55
-0.00503 -0.26086 3.23293 122 83 55
0.08070 -0.24811 3.24572 122 83 55
0.15458 -0.21019 3.23562 122 83 55
0.21040 -0.15428 3.23873 122 83 55
0.24651 -0.08546 3.24879 122 83 55
0.27224 -0.00440 3.34967 122 83 55
0.25880 0.08459 3.36527 122 83 55
0.21813 0.16295 3.34928 122 83 55
0.15968 0.22054 3.36612 122 83 55
0.08436 0.25888 3.35422 122 83 55
-0.00513 0.27223 3.36383 122 83 55
-0.08285 0.25936 3.36219 122 83 55
-0.16311 0.21802 3.34880 122 83 55
-0.21903 0.16174 3.36100 122 83 55
-0.25887 0.08437 3.35037 122 83 55
-0.27227 -0.00051 3.35568 122 83 55
-0.26045 -0.07939 3.36002 122 83 55
-0.22248 -0.15696 3.35459 122 83 55
-0.16132 -0.21934 3.36053 122 83 55
-0.08064 -0.26006 3.36639 122 83 55
0.00252 -0.27226 3.36618 122 83 55
0.08013 -0.26022 3.36605 122 83 55
0.15831 -0.22152 3.36043 122 83 55
0.22078 -0.15935 3.36942 122 83 55
0.25806 -0.08682 3.34847 122 83 55
0.27787 -0.00039 3.48194 122 83 55
0.26364 0.08778 3.46858 122 83 55
0.22225 0.16678 3.47864 122 83 55
0.16447 0.22396 3.47240 122 83 55
0.08715 0.26385 3.47344 122 83 55
0.00236 0.27786 3.48539 122 83 55
-0.08753 0.26372 3.49232 122 83 55
-0.16546 0.22324 3.49003 122 83 55
-0.22617 0.16142 3.47099 122 83 55
-0.26507 0.08335 3.48068 122 83 55
-0.27787 -0.00153 3.48409 122 83 55
-0.26374 -0.08747 3.47507 122 83 55
-0.22251 -0.16644 3.48407 122 83 55
-0.16443 -0.22399 3.48888 122 83 55
-0.08538 -0.26443 3.48919 122 83 55
0.00093 -0.27787 3.49080 122 83 55
0.08702 -0.26389 3.49140 122 83 55
0.16577 -0.22301 3.48713 122 83 55
0.22328 -0.16541 3.48603 122 83 55
0.26314 -0.08927 3.49076 122 83 55
0.27504 -0.00303 3.60142 122 83 55
0.26070 0.08772 3.60609 122 83 55
0.22507 0.15812 3.59810 122 83 55
0.15869 0.22467 3.60226 122 83 55
0.08643 0.26113 3.60806 122 83 55
0.00486 0.27502 3.59867 122 83 55
-0.08061 0.26298 3.59116 122 83 55
-0.16476 0.22025 3.59277 122 83 55
-0.22077 0.16407 3.59187 122 83 55
-0.26138 0.08567 3.59152 122 83 55
-0.27505 0.00173 3.59074 122 83 55
-0.26286 -0.08100 3.59403 122 83 55
-0.22107 -0.16367 3.59141 122 83 55
-0.16208 -0.22223 3.59430 122 83 55
-0.08425 -0.26184 3.59497 122 83 55
-0.00095 -0.27506 3.60902 122 83 55
0.08669 -0.26104 3.59500 122 83 55
0.16403 -0.22080 3.59185 122 83 55
0.22253 -0.16167 3.60770 122 83 55
0.26056 -0.08813 3.60173 122 83 55
0.26512 -0.00473 3.72775 122 83 55
0.25061 0.08666 3.71907 122 83 55
0.21466 0.15567 3.71698 122 83 55
0.15979 0.21162 3.71978 122 83 55
0.08234 0.25206 3.70892 122 83 55
0.00484 0.26512 3.71871 122 83 55
-0.07781 0.25349 3.71879 122 83 55
-0.15619 0.21429 3.72477 122 83 55
-0.21382 0.15682 3.72957 122 83 55
-0.25161 0.08371 3.73189 122 83 55
-0.26514 -0.00381 3.71112 122 83 55
-0.25095 -0.08565 3.73054 122 83 55
-0.21283 -0.15817 3.72557 122 83 55
-0.15962 -0.21174 3.72151 122 83 55
-0.07709 -0.25371 3.70837 122 83 55
0.00370 -0.26514 3.72417 122 83 55
0.08190 -0.25220 3.72084 122 83 55
0.15599 -0.21443 3.72837 122 83 55
0.21231 -0.15887 3.72601 122 83 55
0.25246 -0.08110 3.71981 122 83 55
0.25279 -0.00502 3.84102 122 83 55
0.23998 0.07963 3.83525 122 83 55
0.20496 0.14806 3.83563 122 83 55
0.14721 0.20557 3.84535 122 83 55
0.07385 0.24182 3.84734 122 83 55
0.00128 0.25284 3.83863 122 83 55
-0.07537 0.24135 3.84025 122 83 55
-0.15244 0.20172 3.83689 122 83 55
-0.20690 0.14533 3.84084 122 83 55
-0.23981 0.08012 3.82835 122 83 55
-0.25282 0.00316 3.84494 122 83 55
-0.23909 -0.08225 3.84098 122 83 55
-0.20654 -0.14585 3.83694 122 83 55
-0.15163 -0.20234 3.85005 122 83 55
-0.07882 -0.24024 3.84779 122 83 55
-0.00020 -0.25284 3.84976 122 83 55
0.07900 -0.24019 3.83531 122 83 55
0.14956 -0.20387 3.85042 122 83 55
0.20466 -0.14848 3.85114 122 83 55
0.24044 -0.07821 3.84378 122 83 55
0.24389 0.00003 3.95998 122 83 55
0.23046 0.07980 3.95520 122 83 55
0.19599 0.14515 3.96819 122 83 55
0.14105 0.19896 3.96782 122 83 55
0.07386 0.23243 3.96985 122 83 55
0.00481 0.24384 3.95511 122 83 55
-0.07338 0.23259 3.94984 122 83 55
-0.14521 0.19595 3.96431 122 83 55
-0.19616 0.14493 3.96450 122 83 55
-0.23237 0.07407 3.94952 122 83 55
-0.24388 -0.00171 3.95695 122 83 55
-0.23234 -0.07415 3.96474 122 83 55
-0.19892 -0.14111 3.96024 122 83 55
-0.14603 -0.19533 3.94792 122 83 55
-0.07982 -0.23045 3.95277 122 83 55
-0.00379 -0.24386 3.96380 122 83 55
0.07942 -0.23059 3.96160 122 83 55
0.14661 -0.19490 3.95425 122 83 55
0.19741 -0.14322 3.96583 122 83 55
0.23051 -0.07965 3.95129 122 83 55
0.24247 0.00424 4.07799 122 83 55
0.23024 0.07615 4.08399 122 83 55
0.19357 0.14608 4.07305 122 83 55
0.14097 0.19733 4.07697 122 83 55
0.07111 0.23185 4.08576 122 83 55
0.00233 0.24250 4.08915 122 83 55
-0.07268 0.23136 4.07817 122 83 55
-0.14278 0.19602 4.07309 122 83 55
-0.19415 0.14531 4.08560 122 83 55
-0.23037 0.07575 4.09094 122 83 55
-0.24248 0.00369 4.08554 122 83 55
-0.22978 -0.07754 4.08482 122 83 55
-0.19393 -0.14560 4.08013 122 83 55
-0.14379 -0.19528 4.07037 122 83 55
-0.07304 -0.23125 4.06918 122 83 55
-0.00426 -0.24247 4.08348 122 83 55
0.07834 -0.22951 4.07194 122 83 55
0.14244 -0.19627 4.09164 122 83 55
0.19553 -0.14345 4.08714 122 83 55
0.23032 -0.07590 4.08749 122 83 55
0.24934 0.00277 4.20684 122 83 55
0.23685 0.07798 4.20825 122 83 55
0.20140 0.14702 4.19124 122 83 55
0.14345 0.20396 4.19130 122 83 55
0.07322 0.23836 4.21250 122 83 55
0.00107 0.24935 4.20208 122 83 55
-0.07728 0.23708 4.20707 122 83 55
-0.14977 0.19937 4.20200 122 83 55
-0.20331 0.14438 4.20733 122 83 55
-0.23808 0.07413 4.20512 122 83 55
-0.24935 0.00064 4.20928 122 83 55
-0.23603 -0.08041 4.20875 122 83 55
-0.19955 -0.14953 4.20474 122 83 55
-0.14424 -0.20340 4.20415 122 83 55
-0.07908 -0.23648 4.19225 122 83 55
0.00036 -0.24936 4.21011 122 83 55
0.07641 -0.23736 4.18765 122 83 55
0.14777 -0.20086 4.20311 122 83 55
0.20449 -0.14270 4.21102 122 83 55
0.23863 -0.07236 4.19912 122 83 55
0.26120 -0.00227 4.32838 122 83 55
0.24997 0.07581 4.31843 122 83 55
0.21164 0.15309 4.31755 122 83 55
0.14931 0.21433 4.33115 122 83 55
0.07828 0.24920 4.32878 122 83 55
0.00252 0.26120 4.33199 122 83 55
-0.08437 0.24721 4.31730 122 83 55
-0.14970 0.21406 4.32468 122 83 55
-0.21201 0.15258 4.33074 122 83 55
-0.24885 0.07939 4.32707 122 83 55
-0.26118 -0.00401 4.32112 122 83 55
-0.24684 -0.08544 4.31977 122 83 55
-0.21327 -0.15082 4.32194 122 83 55
-0.15097 -0.21316 4.33196 122 83 55
-0.07641 -0.24978 4.31742 122 83 55
-0.00459 -0.26117 4.31945 122 83 55
0.07916 -0.24893 4.31201 122 83 55
0.14974 -0.21403 4.32152 122 83 55
0.21208 -0.15249 4.31473 122 83 55
0.24921 -0.07825 4.31382 122 83 55
0.27248 0.00277 4.42890 122 83 55
0.26070 0.07930 4.45145 122 83 55
0.22251 0.15729 4.42944 122 83 55
0.15646 0.22310 4.43704 122 83 55
0.08896 0.25757 4.43562 122 83 55
0.00523 0.27244 4.45041 122 83 55
-0.08852 0.25771 4.44404 122 83 55
-0.16203 0.21909 4.43211 122 83 55
-0.21782 0.16373 4.44230 122 83 55
-0.26027 0.08071 4.44496 122 83 55
-0.27247 -0.00388 4.43547 122 83 55
-0.25768 -0.08862 4.44843 122 83 55
-0.22103 -0.15937 4.43850 122 83 55
-0.16263 -0.21865 4.44232 122 83 55
-0.08629 -0.25847 4.44895 122 83 55
0.00512 -0.27245 4.44725 122 83 55
0.08420 -0.25916 4.44594 122 83 55
0.16314 -0.21826 4.44588 122 83 55
0.22075 -0.15975 4.44201 122 83 55
0.25873 -0.08552 4.43982 122 83 55
0.27790 -0.00155 4.56641 122 83 55
0.26314 0.08937 4.55362 122 83 55
0.22388 0.16465 4.54890 122 83 55
0.15992 0.22728 4.55847 122 83 55
0.09106 0.26256 4.55012 122 83 55
-0.00467 0.27786 4.56427 122 83 55
-0.08265 0.26533 4.56526 122 83 55
-0.15953 0.22755 4.56040 122 83 55
-0.22199 0.16718 4.55926 122 83 55
-0.26285 0.09023 4.56628 122 83 55
-0.27789 0.00291 4.55315 122 83 55
-0.26389 -0.08713 4.56439 122 83 55
-0.22514 -0.16291 4.55195 122 83 55
-0.16060 -0.22680 4.55967 122 83 55
-0.08917 -0.26321 4.56639 122 83 55
0.00521 -0.27785 4.57020 122 83 55
0.08106 -0.26582 4.56143 122 83 55
0.16639 -0.22259 4.56063 122 83 55
0.22700 -0.16032 4.57115 122 83 55
0.26516 -0.08320 4.56089 122 83 55
0.27489 0.00027 4.67065 122 83 55
0.26105 0.08613 4.68896 122 83 55
0.22295 0.16080 4.68694 122 83 55
0.16036 0.22327 4.68788 122 83 55
0.08826 0.26034 4.68206 122 83 55
0.00414 0.27486 4.68827 122 83 55
-0.08726 0.26068 4.67282 122 83 55
-0.16415 0.22050 4.68888 122 83 55
-0.22460 0.15850 4.68285 122 83 55
-0.26120 0.08567 4.67912 122 83 55
-0.27488 0.00198 4.68403 122 83 55
-0.26004 -0.08912 4.68856 122 83 55
-0.22021 -0.16453 4.68037 122 83 55
-0.15968 -0.22376 4.66980 122 83 55
-0.08204 -0.26237 4.67384 122 83 55
0.00276 -0.27488 4.68213 122 83 55
0.07982 -0.26305 4.68294 122 83 55
0.16482 -0.22000 4.67507 122 83 55
0.22550 -0.15721 4.69076 122 83 55
0.26099 -0.08632 4.67662 122 83 55
0.26485 0.00389 4.80097 122 83 55
0.25128 0.08376 4.79265 122 83 55
0.21402 0.15605 4.79603 122 83 55
0.15377 0.21567 4.79008 122 83 55
0.08006 0.25249 4.79336 122 83 55
-0.00121 0.26487 4.81249 122 83 55
-0.07861 0.25294 4.80146 122 83 55
-0.15139 0.21735 4.80850 122 83 55
-0.21571 0.15372 4.80920 122 83 55
-0.25024 0.08683 4.80893 122 83 55
-0.26487 0.00239 4.80258 122 83 55
-0.25213 -0.08116 4.80064 122 83 55
-0.21365 -0.15656 4.79989 122 83 55
-0.15978 -0.21126 4.79061 122 83 55
-0.08273 -0.25162 4.80705 122 83 55
0.00188 -0.26487 4.79055 122 83 55
0.08195 -0.25188 4.80141 122 83 55
0.15170 -0.21714 4.80821 122 83 55
0.21121 -0.15984 4.80844 122 83 55
0.25286 -0.07887 4.78803 122 83 55
0.25256 0.00220 4.91203 122 83 55
0.23977 0.07938 4.92002 122 83 55
0.20716 0.14448 4.93031 122 83 55
0.14641 0.20580 4.92681 122 83 55
0.08282 0.23860 4.91527 122 83 55
0.00342 0.25254 4.91531 122 83 55
-0.07942 0.23975 4.91557 122 83 55
-0.14840 0.20437 4.91057 122 83 55
-0.20249 0.15095 4.92322 122 83 55
-0.24114 0.07511 4.92051 122 83 55
-0.25255 0.00304 4.91121 122 83 55
-0.23986 -0.07912 4.91682 122 83 55
-0.20275 -0.15061 4.91511 122 83 55
-0.15002 -0.20318 4.91319 122 83 55
-0.07363 -0.24160 4.92328 122 83 55
0.00025 -0.25257 4.90850 122 83 55
0.07800 -0.24022 4.92124 122 83 55
0.14586 -0.20619 4.91887 122 83 55
0.20194 -0.15169 4.91724 122 83 55
0.23944 -0.08036 4.92847 122 83 55
0.24373 -0.00305 5.05222 122 83 55
0.23176 0.07553 5.04066 122 83 55
0.19594 0.14500 5.03857 122 83 55
0.14110 0.19876 5.05179 122 83 55
0.07579 0.23167 5.04847 122 83 55
0.00152 0.24375 5.04668 122 83 55
-0.07876 0.23068 5.02871 122 83 55
-0.14606 0.19514 5.04578 122 83 55
-0.19748 0.14289 5.05015 122 83 55
-0.23192 0.07502 5.04029 122 83 55
-0.24374 -0.00215 5.03637 122 83 55
-0.23161 -0.07598 5.03795 122 83 55
-0.19830 -0.14175 5.03722 122 83 55
-0.14473 -0.19614 5.03817 122 83 55
-0.07331 -0.23247 5.04905 122 83 55
-0.00206 -0.24375 5.04170 122 83 55
0.07146 -0.23304 5.04003 122 83 55
0.14179 -0.19827 5.03116 122 83 55
0.19920 -0.14049 5.04493 122 83 55
0.23107 -0.07760 5.03986 122 83 55
0.24256 0.00294 5.17003 122 83 55
0.23173 0.07174 5.15297 122 83 55
0.19353 0.14627 5.16512 122 83 55
0.14071 0.19760 5.15098 122 83 55
0.07914 0.22931 5.17091 122 83 55
-0.00133 0.24258 5.15668 122 83 55
-0.07180 0.23171 5.15609 122 83 55
-0.14442 0.19491 5.15354 122 83 55
-0.19463 0.14479 5.16500 122 83 55
-0.23069 0.07503 5.14900 122 83 55
-0.24256 0.00329 5.15756 122 83 55
-0.23149 -0.07251 5.16790 122 83 55
-0.19475 -0.14464 5.17001 122 83 55
-0.14139 -0.19712 5.15743 122 83 55
-0.07121 -0.23189 5.16060 122 83 55
-0.00432 -0.24254 5.17103 122 83 55
0.07446 -0.23087 5.16109 122 83 55
0.13966 -0.19835 5.15519 122 83 55
0.19369 -0.14604 5.16107 122 83 55
0.22987 -0.07749 5.16916 122 83 55
0.24959 0.00205 5.27812 122 83 55
0.23759 0.07650 5.26895 122 83 55
0.20109 0.14787 5.28341 122 83 55
0.14301 0.20457 5.27814 122 83 55
0.08136 0.23597 5.27844 122 83 55
-0.00063 0.24960 5.26939 122 83 55
-0.07949 0.23661 5.27471 122 83 55
-0.14376 0.20405 5.28666 122 83 55
-0.20223 0.14630 5.28481 122 83 55
-0.23754 0.07666 5.26956 122 83 55
-0.24959 0.00237 5.26906 122 83 55
-0.23759 -0.07651 5.27729 122 83 55
-0.20286 -0.14543 5.27868 122 83 55
-0.14614 -0.20235 5.28109 122 83 55
-0.07524 -0.23799 5.27227 122 83 55
0.00428 -0.24956 5.28030 122 83 55
0.07468 -0.23817 5.28883 122 83 55
0.14772 -0.20119 5.27817 122 83 55
0.19935 -0.15020 5.29188 122 83 55
0.23680 -0.07890 5.28532 122 83 55
