ply
format ascii 1.0
comment SIMULATED DEMO - NOT FIELD EVIDENCE
element vertex 900
property float x
property float y
property float z
property uchar red
property uchar green
property uchar blue
end_header
0.25998 0.00333 -0.00104 122 83 55
0.24776 0.07882 -0.00033 122 83 55
0.21269 0.14955 -0.00564 122 83 55
0.15640 0.20770 -0.00378 122 83 55
0.08102 0.24705 0.00725 122 83 55
0.00237 0.25999 0.00763 122 83 55
-0.07818 0.24797 -0.00529 122 83 55
-0.15496 0.20878 0.00063 122 83 55
-0.20766 0.15645 -0.01223 122 83 55
-0.24861 0.07612 -0.00025 122 83 55
-0.25996 0.00475 0.00263 122 83 55
-0.24625 -0.08343 -0.00655 122 83 55
-0.21055 -0.15254 0.00313 122 83 55
-0.15473 -0.20894 0.00885 122 83 55
-0.07589 -0.24868 -0.00544 122 83 55
-0.00514 -0.25995 -0.01151 122 83 55
0.07832 -0.24792 0.01024 122 83 55
0.15096 -0.21168 0.00823 122 83 55
0.20930 -0.15425 0.00833 122 83 55
0.24725 -0.08041 0.00738 122 83 55
0.27160 -0.00009 0.12274 122 83 55
0.25664 0.08887 0.12765 122 83 55
0.22171 0.15687 0.12828 122 83 55
0.15803 0.22089 0.12441 122 83 55
0.08704 0.25727 0.13124 122 83 55
-0.00109 0.27159 0.11455 122 83 55
-0.08539 0.25782 0.12815 122 83 55
-0.15644 0.22202 0.13169 122 83 55
-0.21809 0.16186 0.13137 122 83 55
-0.25913 0.08133 0.11568 122 83 55
-0.27155 -0.00506 0.12177 122 83 55
-0.25815 -0.08439 0.12464 122 83 55
-0.22159 -0.15704 0.10966 122 83 55
-0.15808 -0.22085 0.12893 122 83 55
-0.08752 -0.25711 0.12163 122 83 55
0.00275 -0.27158 0.10778 122 83 55
0.08903 -0.25659 0.11221 122 83 55
0.16026 -0.21928 0.12556 122 83 55
0.21685 -0.16353 0.13019 122 83 55
0.25950 -0.08015 0.12083 122 83 55
0.27769 -0.00492 0.24621 122 83 55
0.26255 0.09059 0.24270 122 83 55
0.22725 0.15968 0.23901 122 83 55
0.16418 0.22402 0.23513 122 83 55
0.09013 0.26271 0.23922 122 83 55
0.00436 0.27770 0.24617 122 83 55
-0.08656 0.26391 0.23577 122 83 55
-0.16323 0.22471 0.24535 122 83 55
-0.22376 0.16453 0.23128 122 83 55
-0.26446 0.08486 0.23861 122 83 55
-0.27774 0.00130 0.24398 122 83 55
-0.26504 -0.08302 0.23156 122 83 55
-0.22447 -0.16356 0.24990 122 83 55
-0.16066 -0.22655 0.23794 122 83 55
-0.08538 -0.26429 0.24562 122 83 55
0.00486 -0.27770 0.24156 122 83 55
0.08206 -0.26534 0.24272 122 83 55
0.16361 -0.22443 0.25112 122 83 55
0.22179 -0.16717 0.23653 122 83 55
0.26451 -0.08470 0.24358 122 83 55
0.27554 0.00043 0.36814 122 83 55
0.26086 0.08874 0.36819 122 83 55
0.22302 0.16182 0.36458 122 83 55
0.16299 0.22216 0.34920 122 83 55
0.08570 0.26187 0.36864 122 83 55
-0.00100 0.27554 0.35172 122 83 55
-0.09010 0.26039 0.35076 122 83 55
-0.15825 0.22556 0.35668 122 83 55
-0.22023 0.16558 0.35200 122 83 55
-0.26168 0.08630 0.37144 122 83 55
-0.27549 -0.00491 0.36798 122 83 55
-0.26100 -0.08832 0.36460 122 83 55
-0.22061 -0.16508 0.35526 122 83 55
-0.16248 -0.22254 0.35928 122 83 55
-0.08747 -0.26128 0.35270 122 83 55
0.00053 -0.27554 0.35567 122 83 55
0.08531 -0.26200 0.36655 122 83 55
0.16175 -0.22306 0.35970 122 83 55
0.22015 -0.16570 0.34947 122 83 55
0.26367 -0.08000 0.35108 122 83 55
0.26599 -0.00465 0.47970 122 83 55
0.25214 0.08484 0.47530 122 83 55
0.21823 0.15214 0.48810 122 83 55
0.15873 0.21348 0.48496 122 83 55
0.08689 0.25144 0.48167 122 83 55
0.00367 0.26600 0.48279 122 83 55
-0.07917 0.25398 0.46885 122 83 55
-0.15748 0.21441 0.47424 122 83 55
-0.21499 0.15669 0.47279 122 83 55
-0.25217 0.08475 0.46925 122 83 55
-0.26602 -0.00175 0.48025 122 83 55
-0.25211 -0.08493 0.48387 122 83 55
-0.21623 -0.15498 0.46984 122 83 55
-0.15602 -0.21548 0.48869 122 83 55
-0.08366 -0.25253 0.47487 122 83 55
-0.00144 -0.26603 0.48724 122 83 55
0.08403 -0.25241 0.49189 122 83 55
0.15808 -0.21397 0.48892 122 83 55
0.21665 -0.15439 0.47780 122 83 55
0.25243 -0.08397 0.47200 122 83 55
0.25366 -0.00372 0.60400 122 83 55
0.24007 0.08199 0.60880 122 83 55
0.20292 0.15224 0.60303 122 83 55
0.14622 0.20731 0.59115 122 83 55
0.08178 0.24014 0.59371 122 83 55
0.00439 0.25365 0.59567 122 83 55
-0.07619 0.24197 0.60258 122 83 55
-0.14979 0.20475 0.60947 122 83 55
-0.20652 0.14733 0.60533 122 83 55
-0.24153 0.07759 0.59327 122 83 55
-0.25364 -0.00475 0.59843 122 83 55
-0.24023 -0.08153 0.59523 122 83 55
-0.20422 -0.15050 0.60710 122 83 55
-0.14892 -0.20538 0.59978 122 83 55
-0.07845 -0.24125 0.59738 122 83 55
0.00343 -0.25366 0.60727 122 83 55
0.07874 -0.24116 0.59107 122 83 55
0.14789 -0.20612 0.59634 122 83 55
0.20352 -0.15145 0.58854 122 83 55
0.24020 -0.08160 0.60229 122 83 55
0.24427 0.00463 0.73088 122 83 55
0.23229 0.07570 0.72076 122 83 55
0.19885 0.14194 0.72381 122 83 55
0.14702 0.19512 0.71257 122 83 55
0.07318 0.23309 0.72231 122 83 55
0.00322 0.24429 0.71161 122 83 55
-0.07271 0.23324 0.73103 122 83 55
-0.14718 0.19500 0.71894 122 83 55
-0.19643 0.14528 0.73165 122 83 55
-0.23343 0.07212 0.72264 122 83 55
-0.24429 -0.00311 0.71006 122 83 55
-0.23089 -0.07986 0.71904 122 83 55
-0.19598 -0.14587 0.72686 122 83 55
-0.14430 -0.19714 0.73239 122 83 55
-0.07966 -0.23096 0.71158 122 83 55
0.00041 -0.24431 0.71596 122 83 55
0.07913 -0.23114 0.71661 122 83 55
0.14559 -0.19620 0.72430 122 83 55
0.19504 -0.14713 0.72376 122 83 55
0.23099 -0.07957 0.72714 122 83 55
0.24228 0.00410 0.84701 122 83 55
0.22929 0.07839 0.83697 122 83 55
0.19324 0.14620 0.84170 122 83 55
0.14163 0.19662 0.83858 122 83 55
0.07316 0.23101 0.83134 122 83 55
-0.00354 0.24229 0.83481 122 83 55
-0.07351 0.23090 0.84475 122 83 55
-0.14400 0.19488 0.82944 122 83 55
-0.19787 0.13988 0.83736 122 83 55
-0.23160 0.07126 0.84899 122 83 55
-0.24229 -0.00379 0.83155 122 83 55
-0.23132 -0.07216 0.84180 122 83 55
-0.19461 -0.14437 0.83265 122 83 55
-0.14313 -0.19553 0.83868 122 83 55
-0.07924 -0.22899 0.83795 122 83 55
-0.00310 -0.24230 0.84594 122 83 55
0.07138 -0.23156 0.83762 122 83 55
0.14096 -0.19710 0.84768 122 83 55
0.19821 -0.13938 0.83772 122 83 55
0.23156 -0.07139 0.85070 122 83 55
0.24860 0.00401 0.96139 122 83 55
0.23740 0.07391 0.95623 122 83 55
0.19886 0.14925 0.95109 122 83 55
0.14395 0.20273 0.95938 122 83 55
0.07238 0.23787 0.97047 122 83 55
-0.00145 0.24863 0.95325 122 83 55
-0.08038 0.23529 0.96107 122 83 55
-0.14740 0.20023 0.97076 122 83 55
-0.19985 0.14792 0.96524 122 83 55
-0.23698 0.07524 0.95385 122 83 55
-0.24862 -0.00324 0.96261 122 83 55
-0.23553 -0.07965 0.95057 122 83 55
-0.20049 -0.14705 0.96429 122 83 55
-0.14953 -0.19865 0.96214 122 83 55
-0.08044 -0.23527 0.96955 122 83 55
-0.00336 -0.24861 0.94817 122 83 55
0.08034 -0.23530 0.97152 122 83 55
0.14226 -0.20392 0.95437 122 83 55
0.20033 -0.14727 0.95440 122 83 55
0.23705 -0.07502 0.95865 122 83 55
0.26026 0.00459 1.07606 122 83 55
0.24742 0.08086 1.08238 122 83 55
0.20883 0.15540 1.07096 122 83 55
0.15170 0.21153 1.08013 122 83 55
0.08430 0.24627 1.08503 122 83 55
0.00302 0.26029 1.07233 122 83 55
-0.07752 0.24849 1.08467 122 83 55
-0.14923 0.21328 1.09146 122 83 55
-0.20785 0.15670 1.08910 122 83 55
-0.24850 0.07748 1.06885 122 83 55
-0.26030 -0.00031 1.08585 122 83 55
-0.24882 -0.07646 1.07519 122 83 55
-0.21113 -0.15226 1.08585 122 83 55
-0.15681 -0.20777 1.07431 122 83 55
-0.07706 -0.24863 1.08572 122 83 55
0.00241 -0.26029 1.08583 122 83 55
0.08383 -0.24643 1.08595 122 83 55
0.15273 -0.21078 1.08364 122 83 55
0.20774 -0.15684 1.07024 122 83 55
0.24667 -0.08313 1.08852 122 83 55
0.27181 0.00278 1.20215 122 83 55
0.25939 0.08129 1.18924 122 83 55
0.22270 0.15587 1.21176 122 83 55
0.15661 0.22217 1.19288 122 83 55
0.08388 0.25856 1.19611 122 83 55
0.00413 0.27179 1.20636 122 83 55
-0.08516 0.25814 1.18850 122 83 55
-0.16066 0.21927 1.20728 122 83 55
-0.21821 0.16209 1.20800 122 83 55
-0.25844 0.08426 1.19370 122 83 55
-0.27183 -0.00047 1.21177 122 83 55
-0.25703 -0.08846 1.18835 122 83 55
-0.22197 -0.15691 1.19392 122 83 55
-0.16134 -0.21877 1.19440 122 83 55
-0.08189 -0.25920 1.21112 122 83 55
0.00185 -0.27182 1.21087 122 83 55
0.08530 -0.25810 1.19618 122 83 55
0.15951 -0.22010 1.19726 122 83 55
0.21939 -0.16049 1.20222 122 83 55
0.25976 -0.08008 1.20791 122 83 55
0.27779 -0.00097 1.32132 122 83 55
0.26349 0.08798 1.31832 122 83 55
0.22474 0.16328 1.31256 122 83 55
0.16019 0.22694 1.33130 122 83 55
0.08112 0.26568 1.32601 122 83 55
0.00517 0.27774 1.32776 122 83 55
-0.08925 0.26306 1.31499 122 83 55
-0.15966 0.22732 1.33246 122 83 55
-0.22683 0.16035 1.31070 122 83 55
-0.26250 0.09089 1.32209 122 83 55
-0.27779 0.00026 1.31904 122 83 55
-0.26406 -0.08625 1.31346 122 83 55
-0.22784 -0.15892 1.32114 122 83 55
-0.16653 -0.22234 1.31665 122 83 55
-0.08625 -0.26406 1.32009 122 83 55
0.00059 -0.27779 1.32346 122 83 55
0.08687 -0.26385 1.30768 122 83 55
0.16074 -0.22656 1.30845 122 83 55
0.22772 -0.15909 1.33133 122 83 55
0.26337 -0.08834 1.32545 122 83 55
0.27534 -0.00512 1.44239 122 83 55
0.26028 0.08995 1.43429 122 83 55
0.22487 0.15896 1.44853 122 83 55
0.15916 0.22473 1.43324 122 83 55
0.08960 0.26040 1.44396 122 83 55
0.00006 0.27538 1.44921 122 83 55
-0.08721 0.26121 1.44761 122 83 55
-0.16328 0.22176 1.44388 122 83 55
-0.22031 0.16523 1.43552 122 83 55
-0.26351 0.07998 1.45026 122 83 55
-0.27538 -0.00002 1.44010 122 83 55
-0.26328 -0.08075 1.44029 122 83 55
-0.22416 -0.15997 1.43510 122 83 55
-0.16313 -0.22187 1.44555 122 83 55
-0.08599 -0.26161 1.43627 122 83 55
0.00080 -0.27538 1.43922 122 83 55
0.08917 -0.26055 1.42909 122 83 55
0.15756 -0.22586 1.44367 122 83 55
0.22107 -0.16421 1.44122 122 83 55
0.26148 -0.08638 1.43459 122 83 55
0.26574 0.00083 1.55335 122 83 55
0.25209 0.08407 1.56336 122 83 55
0.21585 0.15502 1.55869 122 83 55
0.15945 0.21259 1.56106 122 83 55
0.08703 0.25109 1.55725 122 83 55
0.00229 0.26573 1.56350 122 83 55
-0.08712 0.25106 1.55271 122 83 55
-0.15574 0.21532 1.55294 122 83 55
-0.21246 0.15963 1.55045 122 83 55
-0.25379 0.07882 1.56850 122 83 55
-0.26571 -0.00436 1.56707 122 83 55
-0.25192 -0.08458 1.54846 122 83 55
-0.21322 -0.15861 1.55754 122 83 55
-0.15643 -0.21483 1.56387 122 83 55
-0.07927 -0.25365 1.55262 122 83 55
0.00453 -0.26571 1.56425 122 83 55
0.08121 -0.25303 1.55545 122 83 55
0.15688 -0.21450 1.56219 122 83 55
0.21236 -0.15975 1.55228 122 83 55
0.25200 -0.08435 1.56525 122 83 55
0.25340 0.00167 1.66872 122 83 55
0.24001 0.08129 1.68938 122 83 55
0.20476 0.14928 1.66905 122 83 55
0.15002 0.20422 1.67984 122 83 55
0.08277 0.23950 1.67253 122 83 55
0.00160 0.25340 1.69126 122 83 55
-0.07485 0.24210 1.69162 122 83 55
-0.14493 0.20786 1.68534 122 83 55
-0.20723 0.14584 1.67859 122 83 55
-0.23976 0.08204 1.68542 122 83 55
-0.25339 -0.00232 1.67797 122 83 55
-0.24157 -0.07653 1.68878 122 83 55
-0.20784 -0.14497 1.67880 122 83 55
-0.15197 -0.20278 1.68347 122 83 55
-0.08186 -0.23982 1.67165 122 83 55
0.00259 -0.25339 1.67803 122 83 55
0.08250 -0.23960 1.67177 122 83 55
0.15185 -0.20286 1.68348 122 83 55
0.20721 -0.14586 1.67599 122 83 55
0.24054 -0.07972 1.66820 122 83 55
0.24417 -0.00007 1.79711 122 83 55
0.23178 0.07679 1.80785 122 83 55
0.19783 0.14311 1.81101 122 83 55
0.14044 0.19974 1.79335 122 83 55
0.07795 0.23139 1.80256 122 83 55
0.00256 0.24415 1.81144 122 83 55
-0.07206 0.23329 1.80322 122 83 55
-0.14097 0.19936 1.79358 122 83 55
-0.19604 0.14556 1.79389 122 83 55
-0.23173 0.07694 1.81000 122 83 55
-0.24416 0.00090 1.80822 122 83 55
-0.23240 -0.07487 1.79733 122 83 55
-0.19708 -0.14414 1.79270 122 83 55
-0.14560 -0.19601 1.80394 122 83 55
-0.07198 -0.23332 1.79107 122 83 55
0.00161 -0.24416 1.79908 122 83 55
0.07319 -0.23294 1.80192 122 83 55
0.14339 -0.19762 1.79740 122 83 55
0.19925 -0.14112 1.78952 122 83 55
0.23109 -0.07884 1.80733 122 83 55
0.24236 0.00282 1.92922 122 83 55
0.22999 0.07647 1.91263 122 83 55
0.19777 0.14011 1.91004 122 83 55
0.13918 0.19843 1.91286 122 83 55
0.07664 0.22994 1.91818 122 83 55
0.00271 0.24236 1.92470 122 83 55
-0.07454 0.23063 1.93164 122 83 55
-0.14228 0.19622 1.92736 122 83 55
-0.19456 0.14454 1.91225 122 83 55
-0.22982 0.07698 1.91650 122 83 55
-0.24237 -0.00056 1.91756 122 83 55
-0.23100 -0.07338 1.91736 122 83 55
-0.19605 -0.14251 1.92663 122 83 55
-0.14145 -0.19682 1.92908 122 83 55
-0.07194 -0.23145 1.90966 122 83 55
0.00280 -0.24236 1.90841 122 83 55
0.07392 -0.23083 1.92781 122 83 55
0.14437 -0.19469 1.93224 122 83 55
0.19473 -0.14431 1.93078 122 83 55
0.23107 -0.07315 1.90966 122 83 55
0.24885 0.00348 2.04605 122 83 55
0.23577 0.07970 2.04053 122 83 55
0.20147 0.14610 2.04477 122 83 55
0.14796 0.20011 2.03371 122 83 55
0.07752 0.23649 2.04563 122 83 55
-0.00311 0.24885 2.04948 122 83 55
-0.07298 0.23793 2.04941 122 83 55
-0.14355 0.20330 2.03676 122 83 55
-0.20313 0.14380 2.02785 122 83 55
-0.23779 0.07346 2.04217 122 83 55
-0.24886 -0.00259 2.05212 122 83 55
-0.23774 -0.07362 2.02909 122 83 55
-0.19977 -0.14843 2.04198 122 83 55
-0.14784 -0.20021 2.04114 122 83 55
-0.07404 -0.23760 2.02850 122 83 55
-0.00071 -0.24887 2.03088 122 83 55
0.08041 -0.23553 2.02887 122 83 55
0.14310 -0.20362 2.03056 122 83 55
0.20007 -0.14801 2.03864 122 83 55
0.23689 -0.07629 2.04827 122 83 55
0.26060 0.00108 2.17248 122 83 55
0.24877 0.07765 2.14876 122 83 55
0.20924 0.15535 2.15128 122 83 55
0.15142 0.21210 2.16981 122 83 55
0.08431 0.24659 2.15919 122 83 55
-0.00506 0.26056 2.15102 122 83 55
-0.08073 0.24779 2.15081 122 83 55
-0.15564 0.20902 2.15818 122 83 55
-0.21101 0.15294 2.16989 122 83 55
-0.24857 0.07829 2.16776 122 83 55
-0.26060 0.00065 2.15197 122 83 55
-0.24676 -0.08380 2.16220 122 83 55
-0.20912 -0.15551 2.15494 122 83 55
-0.15561 -0.20905 2.15793 122 83 55
-0.08202 -0.24736 2.14751 122 83 55
-0.00263 -0.26059 2.14926 122 83 55
0.07610 -0.24925 2.16692 122 83 55
0.15182 -0.21182 2.15780 122 83 55
0.20783 -0.15723 2.16356 122 83 55
0.24720 -0.08251 2.15788 122 83 55
0.27203 0.00313 2.27615 122 83 55
0.25768 0.08726 2.27505 122 83 55
0.21922 0.16111 2.27282 122 83 55
0.15955 0.22036 2.27080 122 83 55
0.08730 0.25767 2.26910 122 83 55
-0.00414 0.27202 2.27809 122 83 55
-0.08851 0.25725 2.29065 122 83 55
-0.15863 0.22102 2.28317 122 83 55
-0.21921 0.16111 2.27952 122 83 55
-0.25764 0.08737 2.28083 122 83 55
-0.27204 -0.00306 2.27884 122 83 55
-0.25856 -0.08462 2.29123 122 83 55
-0.21691 -0.16420 2.27751 122 83 55
-0.15914 -0.22065 2.27266 122 83 55
-0.08470 -0.25853 2.28229 122 83 55
-0.00508 -0.27200 2.27618 122 83 55
0.08463 -0.25855 2.29125 122 83 55
0.15695 -0.22221 2.26875 122 83 55
0.21874 -0.16176 2.27348 122 83 55
0.25872 -0.08413 2.28343 122 83 55
0.27780 -0.00396 2.41166 122 83 55
0.26535 0.08234 2.40573 122 83 55
0.22682 0.16044 2.40473 122 83 55
0.16573 0.22299 2.39714 122 83 55
0.08254 0.26529 2.40483 122 83 55
0.00440 0.27780 2.40758 122 83 55
-0.08405 0.26481 2.39329 122 83 55
-0.16745 0.22170 2.41006 122 83 55
-0.22482 0.16324 2.40725 122 83 55
-0.26545 0.08202 2.39696 122 83 55
-0.27782 -0.00278 2.38927 122 83 55
-0.26331 -0.08866 2.38871 122 83 55
-0.22444 -0.16375 2.40390 122 83 55
-0.15969 -0.22736 2.40172 122 83 55
-0.08799 -0.26353 2.40129 122 83 55
-0.00537 -0.27778 2.40886 122 83 55
0.08783 -0.26358 2.38905 122 83 55
0.16332 -0.22476 2.40683 122 83 55
0.22304 -0.16566 2.40507 122 83 55
0.26405 -0.08642 2.41129 122 83 55
0.27521 0.00223 2.51002 122 83 55
0.26313 0.08068 2.52653 122 83 55
0.22342 0.16073 2.50973 122 83 55
0.16421 0.22087 2.52796 122 83 55
0.08409 0.26206 2.51863 122 83 55
-0.00088 0.27522 2.52190 122 83 55
-0.08830 0.26068 2.53195 122 83 55
-0.15841 0.22507 2.52834 122 83 55
-0.22132 0.16360 2.53050 122 83 55
-0.26300 0.08112 2.51361 122 83 55
-0.27519 0.00416 2.52796 122 83 55
-0.26093 -0.08753 2.51121 122 83 55
-0.21939 -0.16618 2.51722 122 83 55
-0.16348 -0.22141 2.51514 122 83 55
-0.08741 -0.26097 2.50824 122 83 55
0.00289 -0.27521 2.51666 122 83 55
0.09024 -0.26001 2.53122 122 83 55
0.15945 -0.22433 2.51114 122 83 55
0.22568 -0.15754 2.51021 122 83 55
0.26123 -0.08664 2.50846 122 83 55
0.26542 -0.00407 2.63854 122 83 55
0.25187 0.08384 2.63125 122 83 55
0.21398 0.15710 2.62854 122 83 55
0.15604 0.21475 2.65174 122 83 55
0.08003 0.25311 2.63441 122 83 55
-0.00494 0.26541 2.64416 122 83 55
-0.08569 0.25124 2.62841 122 83 55
-0.15647 0.21444 2.63593 122 83 55
-0.21255 0.15903 2.64157 122 83 55
-0.25257 0.08172 2.64697 122 83 55
-0.26545 -0.00127 2.64154 122 83 55
-0.25179 -0.08408 2.64307 122 83 55
-0.21750 -0.15218 2.64150 122 83 55
-0.15424 -0.21605 2.64993 122 83 55
-0.07931 -0.25333 2.64501 122 83 55
0.00117 -0.26545 2.63644 122 83 55
0.08557 -0.25129 2.63837 122 83 55
0.15697 -0.21407 2.63139 122 83 55
0.21373 -0.15744 2.64789 122 83 55
0.25093 -0.08661 2.64443 122 83 55
0.25308 -0.00442 2.75591 122 83 55
0.24205 0.07403 2.76318 122 83 55
0.20619 0.14683 2.76077 122 83 55
0.14782 0.20548 2.76479 122 83 55
0.08205 0.23945 2.76694 122 83 55
-0.00132 0.25312 2.75623 122 83 55
-0.08049 0.23998 2.74795 122 83 55
-0.14924 0.20445 2.76420 122 83 55
-0.20550 0.14779 2.75588 122 83 55
-0.24116 0.07689 2.75150 122 83 55
-0.25309 0.00421 2.76259 122 83 55
-0.24056 -0.07876 2.74807 122 83 55
-0.20506 -0.14839 2.76395 122 83 55
-0.15010 -0.20382 2.75624 122 83 55
-0.08083 -0.23987 2.76461 122 83 55
0.00189 -0.25312 2.75073 122 83 55
0.07420 -0.24200 2.76726 122 83 55
0.14536 -0.20722 2.75057 122 83 55
0.20597 -0.14713 2.77135 122 83 55
0.24030 -0.07954 2.77092 122 83 55
0.24402 0.00202 2.88764 122 83 55
0.23184 0.07614 2.88939 122 83 55
0.19896 0.14128 2.89114 122 83 55
0.14441 0.19671 2.87756 122 83 55
0.07230 0.23307 2.88634 122 83 55
0.00298 0.24401 2.87454 122 83 55
-0.07884 0.23094 2.88965 122 83 55
-0.14730 0.19455 2.88589 122 83 55
-0.19724 0.14368 2.89055 122 83 55
-0.23162 0.07680 2.87231 122 83 55
-0.24401 -0.00221 2.88898 122 83 55
-0.23323 -0.07178 2.87882 122 83 55
-0.19544 -0.14611 2.87766 122 83 55
-0.13990 -0.19994 2.87630 122 83 55
-0.07817 -0.23117 2.87468 122 83 55
-0.00021 -0.24402 2.87373 122 83 55
0.07736 -0.23144 2.89241 122 83 55
0.14633 -0.19528 2.89050 122 83 55
0.19937 -0.14072 2.88552 122 83 55
0.23350 -0.07090 2.88447 122 83 55
0.24242 -0.00269 2.99682 122 83 55
0.23039 0.07549 3.00781 122 83 55
0.19487 0.14423 3.01104 122 83 55
0.13859 0.19892 3.00373 122 83 55
0.07642 0.23008 3.00291 122 83 55
-0.00135 0.24243 3.00871 122 83 55
-0.07396 0.23088 2.99699 122 83 55
-0.14460 0.19459 3.00568 122 83 55
-0.19789 0.14006 2.98828 122 83 55
-0.23083 0.07412 3.00541 122 83 55
-0.24244 0.00069 3.00850 122 83 55
-0.22928 -0.07880 2.99400 122 83 55
-0.19473 -0.14442 2.99448 122 83 55
-0.14245 -0.19617 3.00620 122 83 55
-0.07526 -0.23046 3.00118 122 83 55
0.00453 -0.24240 2.99509 122 83 55
0.07682 -0.22995 3.00819 122 83 55
0.14590 -0.19362 3.00014 122 83 55
0.19822 -0.13960 2.99986 122 83 55
0.23175 -0.07118 2.99678 122 83 55
0.24911 -0.00112 3.12520 122 83 55
0.23623 0.07909 3.11210 122 83 55
0.19891 0.14998 3.11033 122 83 55
0.14333 0.20375 3.13215 122 83 55
0.07362 0.23799 3.12222 122 83 55
-0.00463 0.24907 3.12804 122 83 55
-0.07873 0.23634 3.11374 122 83 55
-0.14976 0.19907 3.10880 122 83 55
-0.20057 0.14775 3.11150 122 83 55
-0.23537 0.08159 3.11568 122 83 55
-0.24908 0.00381 3.11891 122 83 55
-0.23638 -0.07864 3.10841 122 83 55
-0.20099 -0.14718 3.12830 122 83 55
-0.14619 -0.20171 3.11546 122 83 55
-0.07993 -0.23594 3.12239 122 83 55
-0.00175 -0.24911 3.13154 122 83 55
0.08020 -0.23585 3.12607 122 83 55
0.14746 -0.20078 3.12672 122 83 55
0.19986 -0.14871 3.12641 122 83 55
0.23671 -0.07761 3.11286 122 83 55
0.26089 -0.00283 3.22954 122 83 55
0.24955 0.07615 3.23938 122 83 55
0.20850 0.15684 3.23953 122 83 55
0.14955 0.21380 3.23157 122 83 55
0.07667 0.24939 3.24559 122 83 55
0.00081 0.26091 3.23575 122 83 55
-0.08531 0.24657 3.23521 122 83 55
-0.15104 0.21274 3.24223 122 83 55
-0.21160 0.15263 3.23194 122 83 55
-0.24837 0.07991 3.23775 122 83 55
-0.26089 0.00320 3.24312 122 83 55
-0.24931 -0.07691 3.25084 122 83 55
-0.20919 -0.15593 3.24861 122 83 55
-0.14995 -0.21351 3.24942 122 83 55
-0.08360 -0.24715 3.24833 122 83 55
-0.00341 -0.26089 3.23629 122 83 55
0.08141 -0.24788 3.24227 122 83 55
0.15613 -0.20904 3.24473 122 83 55
0.21232 -0.15163 3.24821 122 83 55
0.24901 -0.07790 3.24204 122 83 55
0.27226 0.00257 3.36332 122 83 55
0.25964 0.08198 3.35077 122 83 55
0.22131 0.15860 3.36728 122 83 55
0.16001 0.22030 3.36320 122 83 55
0.08130 0.25985 3.36585 122 83 55
0.00210 0.27227 3.35109 122 83 55
-0.07937 0.26045 3.35474 122 83 55
-0.15959 0.22060 3.35385 122 83 55
-0.21889 0.16193 3.36537 122 83 55
-0.25929 0.08307 3.35958 122 83 55
-0.27223 0.00519 3.36488 122 83 55
-0.25855 -0.08536 3.35476 122 83 55
-0.21741 -0.16392 3.35437 122 83 55
-0.16176 -0.21902 3.36445 122 83 55
-0.08644 -0.25819 3.37033 122 83 55
-0.00096 -0.27227 3.36630 122 83 55
0.07943 -0.26043 3.35070 122 83 55
0.16169 -0.21906 3.36767 122 83 55
0.22128 -0.15865 3.35804 122 83 55
0.25776 -0.08770 3.36678 122 83 55
0.27787 0.00153 3.47872 122 83 55
0.26252 0.09109 3.46964 122 83 55
0.22463 0.16356 3.48314 122 83 55
0.16159 0.22605 3.47605 122 83 55
0.08935 0.26311 3.48333 122 83 55
0.00212 0.27786 3.47420 122 83 55
-0.09068 0.26266 3.48058 122 83 55
-0.15925 0.22771 3.48938 122 83 55
-0.22639 0.16111 3.47677 122 83 55
-0.26425 0.08594 3.48898 122 83 55
-0.27787 -0.00002 3.48463 122 83 55
-0.26545 -0.08214 3.48174 122 83 55
-0.22203 -0.16707 3.46821 122 83 55
-0.16605 -0.22280 3.47099 122 83 55
-0.08561 -0.26435 3.48108 122 83 55
0.00106 -0.27787 3.48228 122 83 55
0.08112 -0.26577 3.47621 122 83 55
0.16701 -0.22208 3.46761 122 83 55
0.22206 -0.16703 3.49242 122 83 55
0.26436 -0.08558 3.46926 122 83 55
0.27505 -0.00284 3.59896 122 83 55
0.26289 0.08093 3.60283 122 83 55
0.22312 0.16085 3.59565 122 83 55
0.16156 0.22261 3.61014 122 83 55
0.08180 0.26261 3.59234 122 83 55
0.00078 0.27506 3.60882 122 83 55
-0.08901 0.26026 3.59806 122 83 55
-0.16196 0.22232 3.59710 122 83 55
-0.22141 0.16320 3.60578 122 83 55
-0.26297 0.08065 3.60282 122 83 55
-0.27505 -0.00182 3.59573 122 83 55
-0.26323 -0.07980 3.60283 122 83 55
-0.22396 -0.15969 3.60092 122 83 55
-0.16303 -0.22154 3.60933 122 83 55
-0.08189 -0.26259 3.58988 122 83 55
0.00423 -0.27503 3.60662 122 83 55
0.08158 -0.26268 3.60316 122 83 55
0.16273 -0.22176 3.60262 122 83 55
0.22525 -0.15786 3.61098 122 83 55
0.26267 -0.08162 3.59080 122 83 55
0.26516 -0.00181 3.71092 122 83 55
0.25328 0.07851 3.71959 122 83 55
0.21407 0.15649 3.72577 122 83 55
0.15687 0.21379 3.73243 122 83 55
0.08552 0.25100 3.71278 122 83 55
0.00044 0.26517 3.71784 122 83 55
-0.08650 0.25066 3.72700 122 83 55
-0.15438 0.21560 3.71536 122 83 55
-0.21741 0.15181 3.71240 122 83 55
-0.25255 0.08083 3.72916 122 83 55
-0.26516 0.00130 3.73102 122 83 55
-0.25062 -0.08662 3.71261 122 83 55
-0.21433 -0.15613 3.71128 122 83 55
-0.15196 -0.21731 3.70829 122 83 55
-0.08492 -0.25120 3.70820 122 83 55
0.00058 -0.26517 3.71400 122 83 55
0.08614 -0.25078 3.72429 122 83 55
0.15802 -0.21294 3.72695 122 83 55
0.21362 -0.15711 3.72112 122 83 55
0.25309 -0.07912 3.72412 122 83 55
0.25282 -0.00380 3.82806 122 83 55
0.23899 0.08255 3.83831 122 83 55
0.20516 0.14778 3.84560 122 83 55
0.15045 0.20321 3.83068 122 83 55
0.08130 0.23942 3.84217 122 83 55
0.00485 0.25280 3.83658 122 83 55
-0.07511 0.24143 3.84956 122 83 55
-0.14643 0.20612 3.84303 122 83 55
-0.20613 0.14643 3.84313 122 83 55
-0.24124 0.07570 3.83711 122 83 55
-0.25281 0.00434 3.82963 122 83 55
-0.24182 -0.07385 3.85117 122 83 55
-0.20420 -0.14910 3.83617 122 83 55
-0.15037 -0.20327 3.85167 122 83 55
-0.07660 -0.24096 3.83066 122 83 55
-0.00434 -0.25281 3.82989 122 83 55
0.08216 -0.23912 3.83490 122 83 55
0.14504 -0.20711 3.83406 122 83 55
0.20245 -0.15147 3.84796 122 83 55
0.23992 -0.07982 3.83837 122 83 55
0.24388 -0.00180 3.94869 122 83 55
0.23066 0.07923 3.97113 122 83 55
0.19889 0.14116 3.96239 122 83 55
0.14397 0.19686 3.96501 122 83 55
0.07790 0.23111 3.95298 122 83 55
0.00320 0.24387 3.96899 122 83 55
-0.07536 0.23195 3.95829 122 83 55
-0.14283 0.19769 3.96760 122 83 55
-0.19807 0.14230 3.96727 122 83 55
-0.23300 0.07207 3.95955 122 83 55
-0.24389 -0.00054 3.94916 122 83 55
-0.23080 -0.07880 3.95879 122 83 55
-0.19974 -0.13994 3.96603 122 83 55
-0.13988 -0.19979 3.95251 122 83 55
-0.07535 -0.23195 3.96120 122 83 55
0.00213 -0.24388 3.96190 122 83 55
0.07286 -0.23275 3.97238 122 83 55
0.14458 -0.19641 3.95743 122 83 55
0.19514 -0.14629 3.94964 122 83 55
0.23202 -0.07514 3.96201 122 83 55
0.24248 -0.00346 4.08454 122 83 55
0.22946 0.07846 4.07635 122 83 55
0.19561 0.14335 4.07291 122 83 55
0.14204 0.19655 4.07738 122 83 55
0.07113 0.23184 4.08522 122 83 55
-0.00069 0.24251 4.09153 122 83 55
-0.07728 0.22986 4.07458 122 83 55
-0.13907 0.19867 4.07618 122 83 55
-0.19334 0.14639 4.08366 122 83 55
-0.22989 0.07722 4.07364 122 83 55
-0.24248 -0.00375 4.07315 122 83 55
-0.23075 -0.07461 4.08851 122 83 55
-0.19828 -0.13963 4.09059 122 83 55
-0.14174 -0.19678 4.08518 122 83 55
-0.07792 -0.22965 4.08462 122 83 55
0.00294 -0.24249 4.08881 122 83 55
0.07629 -0.23020 4.07599 122 83 55
0.13915 -0.19862 4.07924 122 83 55
0.19694 -0.14150 4.07792 122 83 55
0.22937 -0.07874 4.07344 122 83 55
0.24935 0.00054 4.20962 122 83 55
0.23695 0.07766 4.19358 122 83 55
0.20111 0.14742 4.18809 122 83 55
0.14430 0.20336 4.20876 122 83 55
0.08133 0.23572 4.20942 122 83 55
0.00294 0.24934 4.19003 122 83 55
-0.08063 0.23596 4.21234 122 83 55
-0.14523 0.20270 4.19931 122 83 55
-0.20245 0.14557 4.19766 122 83 55
-0.23603 0.08042 4.18914 122 83 55
-0.24935 0.00204 4.18885 122 83 55
-0.23625 -0.07976 4.20152 122 83 55
-0.20025 -0.14858 4.18994 122 83 55
-0.14710 -0.20135 4.20025 122 83 55
-0.07247 -0.23859 4.20845 122 83 55
-0.00091 -0.24935 4.20755 122 83 55
0.07339 -0.23831 4.19202 122 83 55
0.15036 -0.19892 4.19677 122 83 55
0.19937 -0.14976 4.20906 122 83 55
0.23698 -0.07760 4.19956 122 83 55
0.26121 -0.00094 4.32943 122 83 55
0.24841 0.08076 4.31182 122 83 55
0.21322 0.15090 4.32800 122 83 55
0.15039 0.21358 4.32422 122 83 55
0.07868 0.24908 4.30986 122 83 55
-0.00189 0.26120 4.32919 122 83 55
-0.07618 0.24985 4.31205 122 83 55
-0.15155 0.21275 4.31259 122 83 55
-0.21048 0.15468 4.31847 122 83 55
-0.24742 0.08376 4.31959 122 83 55
-0.26119 0.00326 4.31033 122 83 55
-0.24776 -0.08273 4.32029 122 83 55
-0.21112 -0.15382 4.32092 122 83 55
-0.14963 -0.21411 4.32224 122 83 55
-0.07700 -0.24960 4.32506 122 83 55
0.00234 -0.26120 4.31294 122 83 55
0.07766 -0.24940 4.32422 122 83 55
0.15247 -0.21209 4.32173 122 83 55
0.21240 -0.15205 4.32008 122 83 55
0.24802 -0.08195 4.32198 122 83 55
0.27248 0.00288 4.44541 122 83 55
0.25872 0.08553 4.44524 122 83 55
0.21964 0.16128 4.43714 122 83 55
0.16190 0.21918 4.44579 122 83 55
0.08644 0.25842 4.43812 122 83 55
0.00459 0.27246 4.43001 122 83 55
-0.08857 0.25770 4.44510 122 83 55
-0.16373 0.21782 4.44607 122 83 55
-0.21816 0.16328 4.45178 122 83 55
-0.25981 0.08218 4.43622 122 83 55
-0.27247 0.00333 4.44688 122 83 55
-0.25894 -0.08488 4.43958 122 83 55
-0.22115 -0.15921 4.44880 122 83 55
-0.15967 -0.22081 4.43008 122 83 55
-0.08595 -0.25859 4.44421 122 83 55
0.00459 -0.27246 4.43518 122 83 55
0.08502 -0.25889 4.42951 122 83 55
0.15945 -0.22098 4.43730 122 83 55
0.22288 -0.15677 4.43526 122 83 55
0.25820 -0.08711 4.44122 122 83 55
0.27788 -0.00333 4.56485 122 83 55
0.26485 0.08418 4.56685 122 83 55
0.22803 0.15885 4.57001 122 83 55
0.16135 0.22627 4.56814 122 83 55
0.08404 0.26489 4.56199 122 83 55
0.00145 0.27790 4.55499 122 83 55
-0.09090 0.26262 4.56348 122 83 55
-0.16040 0.22694 4.55149 122 83 55
-0.22734 0.15983 4.56264 122 83 55
-0.26363 0.08793 4.55474 122 83 55
-0.27789 0.00229 4.56673 122 83 55
-0.26484 -0.08421 4.57023 122 83 55
-0.22602 -0.16170 4.54928 122 83 55
-0.16336 -0.22482 4.57048 122 83 55
-0.08801 -0.26360 4.57074 122 83 55
0.00118 -0.27790 4.56030 122 83 55
0.08789 -0.26364 4.55912 122 83 55
0.16549 -0.22326 4.56303 122 83 55
0.22408 -0.16438 4.56801 122 83 55
0.26470 -0.08463 4.54856 122 83 55
0.27488 -0.00294 4.68093 122 83 55
0.26247 0.08170 4.67495 122 83 55
0.22060 0.16401 4.67206 122 83 55
0.16580 0.21926 4.68202 122 83 55
0.08538 0.26130 4.68464 122 83 55
0.00117 0.27489 4.67617 122 83 55
-0.08849 0.26026 4.66970 122 83 55
-0.15927 0.22405 4.67735 122 83 55
-0.22266 0.16121 4.68381 122 83 55
-0.26086 0.08670 4.67993 122 83 55
-0.27484 -0.00546 4.68111 122 83 55
-0.26205 -0.08305 4.69079 122 83 55
-0.22415 -0.15913 4.68080 122 83 55
-0.16108 -0.22276 4.67906 122 83 55
-0.08843 -0.26028 4.67773 122 83 55
0.00362 -0.27487 4.68324 122 83 55
0.08313 -0.26202 4.66990 122 83 55
0.16047 -0.22319 4.67755 122 83 55
0.22421 -0.15905 4.68299 122 83 55
0.26260 -0.08130 4.68083 122 83 55
0.26486 0.00284 4.79818 122 83 55
0.25316 0.07789 4.79241 122 83 55
0.21501 0.15469 4.80586 122 83 55
0.15151 0.21727 4.80562 122 83 55
0.08488 0.25091 4.80914 122 83 55
0.00109 0.26487 4.80090 122 83 55
-0.08429 0.25111 4.80710 122 83 55
-0.15551 0.21442 4.80176 122 83 55
-0.21219 0.15854 4.79423 122 83 55
-0.25220 0.08097 4.80801 122 83 55
-0.26487 -0.00087 4.79853 122 83 55
-0.25238 -0.08041 4.80691 122 83 55
-0.21207 -0.15869 4.80218 122 83 55
-0.15856 -0.21217 4.80931 122 83 55
-0.07845 -0.25299 4.79988 122 83 55
0.00166 -0.26487 4.79392 122 83 55
0.08055 -0.25233 4.80606 122 83 55
0.15356 -0.21582 4.79907 122 83 55
0.21420 -0.15582 4.80366 122 83 55
0.25258 -0.07977 4.80791 122 83 55
0.25256 0.00134 4.92826 122 83 55
0.24116 0.07505 4.92371 122 83 55
0.20168 0.15204 4.92267 122 83 55
0.14868 0.20417 4.92364 122 83 55
0.07552 0.24101 4.92322 122 83 55
0.00361 0.25254 4.93053 122 83 55
-0.07335 0.24168 4.92046 122 83 55
-0.15224 0.20153 4.92311 122 83 55
-0.20190 0.15174 4.91798 122 83 55
-0.24114 0.07511 4.91186 122 83 55
-0.25257 0.00089 4.92451 122 83 55
-0.23952 -0.08014 4.91861 122 83 55
-0.20305 -0.15021 4.91056 122 83 55
-0.15135 -0.20219 4.91936 122 83 55
-0.07475 -0.24125 4.92226 122 83 55
-0.00197 -0.25256 4.92097 122 83 55
0.07875 -0.23998 4.92613 122 83 55
0.14613 -0.20600 4.92376 122 83 55
0.20516 -0.14731 4.91495 122 83 55
0.24158 -0.07369 4.92816 122 83 55
0.24373 -0.00334 5.03101 122 83 55
0.23315 0.07112 5.04486 122 83 55
0.19444 0.14700 5.02929 122 83 55
0.14572 0.19540 5.03424 122 83 55
0.07316 0.23252 5.02948 122 83 55
-0.00067 0.24375 5.05188 122 83 55
-0.07647 0.23145 5.03688 122 83 55
-0.14379 0.19683 5.03356 122 83 55
-0.19510 0.14612 5.04340 122 83 55
-0.23217 0.07424 5.03403 122 83 55
-0.24375 0.00200 5.03152 122 83 55
-0.23199 -0.07480 5.04532 122 83 55
-0.19923 -0.14044 5.04964 122 83 55
-0.14715 -0.19433 5.04153 122 83 55
-0.07510 -0.23190 5.03930 122 83 55
0.00328 -0.24373 5.03338 122 83 55
0.07423 -0.23218 5.05030 122 83 55
0.14442 -0.19636 5.04681 122 83 55
0.19506 -0.14618 5.03647 122 83 55
0.23128 -0.07699 5.04650 122 83 55
0.24256 0.00323 5.15081 122 83 55
0.22999 0.07715 5.15114 122 83 55
0.19778 0.14046 5.15018 122 83 55
0.14647 0.19337 5.15375 122 83 55
0.07159 0.23178 5.17077 122 83 55
0.00464 0.24254 5.16145 122 83 55
-0.07792 0.22973 5.16700 122 83 55
-0.14300 0.19595 5.15034 122 83 55
-0.19826 0.13978 5.16264 122 83 55
-0.22947 0.07867 5.16258 122 83 55
-0.24255 -0.00408 5.14925 122 83 55
-0.23127 -0.07320 5.15871 122 83 55
-0.19705 -0.14149 5.16324 122 83 55
-0.14028 -0.19791 5.15977 122 83 55
-0.07702 -0.23003 5.15916 122 83 55
-0.00073 -0.24258 5.14994 122 83 55
0.07820 -0.22963 5.15304 122 83 55
0.14345 -0.19562 5.16648 122 83 55
0.19698 -0.14158 5.16582 122 83 55
0.22945 -0.07872 5.16049 122 83 55
0.24955 -0.00484 5.27329 122 83 55
0.23822 0.07450 5.28753 122 83 55
0.20169 0.14705 5.28497 122 83 55
0.14405 0.20384 5.27925 122 83 55
0.07606 0.23773 5.27595 122 83 55
0.00451 0.24956 5.27255 122 83 55
-0.07996 0.23645 5.27657 122 83 55
-0.14928 0.20004 5.27986 122 83 55
-0.20428 0.14342 5.28144 122 83 55
-0.23848 0.07368 5.28971 122 83 55
-0.24960 0.00144 5.27524 122 83 55
-0.23790 -0.07551 5.27341 122 83 55
-0.20111 -0.14784 5.26920 122 83 55
-0.14670 -0.20194 5.26984 122 83 55
-0.07374 -0.23846 5.27841 122 83 55
-0.00330 -0.24958 5.28141 122 83 55
0.07807 -0.23708 5.27604 122 83 55
0.14754 -0.20132 5.27080 122 83 55
0.20320 -0.14495 5.29239 122 83 55
0.23654 -0.07968 5.27906 122 83 55
