ply
format ascii 1.0
comment SIMULATED DEMO - NOT FIELD EVIDENCE
element vertex 900
property float x
property float y
property float z
property uchar red
property uchar green
property uchar blue
end_header
0.25999 -0.00234 -0.01207 122 83 55
0.24625 0.08342 -0.00798 122 83 55
0.20833 0.15556 -0.00808 122 83 55
0.15337 0.20995 0.00276 122 83 55
0.08269 0.24650 0.00839 122 83 55
-0.00484 0.25996 0.00674 122 83 55
-0.07832 0.24792 0.00047 122 83 55
-0.15371 0.20970 -0.01038 122 83 55
-0.21297 0.14914 0.00676 122 83 55
-0.24862 0.07609 -0.00886 122 83 55
-0.26000 0.00023 0.00918 122 83 55
-0.24856 -0.07626 -0.01014 122 83 55
-0.21178 -0.15083 0.01234 122 83 55
-0.15207 -0.21089 0.00587 122 83 55
-0.08194 -0.24675 0.00531 122 83 55
-0.00124 -0.26000 -0.00443 122 83 55
0.07951 -0.24754 0.00776 122 83 55
0.15102 -0.21164 -0.00672 122 83 55
0.21203 -0.15047 0.00847 122 83 55
0.24573 -0.08496 0.01130 122 83 55
0.27154 -0.00538 0.13090 122 83 55
0.25865 0.08287 0.11087 122 83 55
0.21864 0.16113 0.12641 122 83 55
0.16183 0.21812 0.12275 122 83 55
0.08491 0.25798 0.12205 122 83 55
0.00025 0.27160 0.12273 122 83 55
-0.08861 0.25674 0.13119 122 83 55
-0.15594 0.22237 0.12322 122 83 55
-0.21734 0.16287 0.11644 122 83 55
-0.25981 0.07912 0.12359 122 83 55
-0.27158 -0.00323 0.13050 122 83 55
-0.25948 -0.08023 0.12299 122 83 55
-0.22115 -0.15766 0.13203 122 83 55
-0.16011 -0.21938 0.12086 122 83 55
-0.08069 -0.25933 0.10948 122 83 55
0.00458 -0.27156 0.11638 122 83 55
0.07886 -0.25990 0.12770 122 83 55
0.15960 -0.21976 0.12437 122 83 55
0.21871 -0.16103 0.11768 122 83 55
0.25876 -0.08250 0.13170 122 83 55
0.27771 -0.00384 0.23164 122 83 55
0.26563 0.08111 0.24395 122 83 55
0.22271 0.16595 0.25148 122 83 55
0.16174 0.22578 0.23901 122 83 55
0.08272 0.26514 0.24016 122 83 55
0.00114 0.27774 0.24486 122 83 55
-0.08153 0.26550 0.23171 122 83 55
-0.16349 0.22452 0.24065 122 83 55
-0.22779 0.15891 0.23672 122 83 55
-0.26463 0.08433 0.23596 122 83 55
-0.27770 0.00473 0.25166 122 83 55
-0.26440 -0.08505 0.24463 122 83 55
-0.22486 -0.16302 0.23135 122 83 55
-0.16025 -0.22685 0.24078 122 83 55
-0.09021 -0.26268 0.24536 122 83 55
-0.00138 -0.27773 0.24580 122 83 55
0.08654 -0.26391 0.24530 122 83 55
0.16401 -0.22414 0.25135 122 83 55
0.22502 -0.16281 0.25116 122 83 55
0.26536 -0.08199 0.23984 122 83 55
0.27549 0.00501 0.36612 122 83 55
0.26278 0.08289 0.36481 122 83 55
0.22203 0.16317 0.37068 122 83 55
0.16562 0.22020 0.37009 122 83 55
0.08334 0.26263 0.34791 122 83 55
-0.00401 0.27551 0.35292 122 83 55
-0.09010 0.26039 0.34804 122 83 55
-0.16425 0.22123 0.35715 122 83 55
-0.22033 0.16546 0.35700 122 83 55
-0.26074 0.08909 0.36433 122 83 55
-0.27554 0.00069 0.36937 122 83 55
-0.26219 -0.08473 0.36131 122 83 55
-0.22581 -0.15789 0.36289 122 83 55
-0.16083 -0.22373 0.35962 122 83 55
-0.08000 -0.26367 0.35767 122 83 55
0.00082 -0.27554 0.35279 122 83 55
0.08860 -0.26091 0.34949 122 83 55
0.15891 -0.22510 0.35428 122 83 55
0.22353 -0.16111 0.36301 122 83 55
0.26293 -0.08239 0.36483 122 83 55
0.26603 0.00012 0.47173 122 83 55
0.25219 0.08468 0.46934 122 83 55
0.21716 0.15367 0.47298 122 83 55
0.16048 0.21217 0.47951 122 83 55
0.08597 0.25176 0.48238 122 83 55
0.00298 0.26601 0.48995 122 83 55
-0.08428 0.25233 0.46846 122 83 55
-0.15447 0.21659 0.47147 122 83 55
-0.21210 0.16057 0.47934 122 83 55
-0.25262 0.08338 0.48171 122 83 55
-0.26601 0.00340 0.47479 122 83 55
-0.25267 -0.08323 0.48439 122 83 55
-0.21737 -0.15336 0.47305 122 83 55
-0.15466 -0.21645 0.48981 122 83 55
-0.07807 -0.25432 0.48311 122 83 55
0.00414 -0.26600 0.49031 122 83 55
0.08393 -0.25244 0.47440 122 83 55
0.15687 -0.21486 0.47097 122 83 55
0.21620 -0.15502 0.49215 122 83 55
0.25201 -0.08522 0.48170 122 83 55
0.25368 -0.00222 0.60280 122 83 55
0.24243 0.07473 0.60829 122 83 55
0.20247 0.15284 0.59522 122 83 55
0.14818 0.20591 0.59646 122 83 55
0.07470 0.24244 0.58966 122 83 55
-0.00202 0.25368 0.60874 122 83 55
-0.07788 0.24143 0.58761 122 83 55
-0.15019 0.20445 0.60063 122 83 55
-0.20325 0.15180 0.60214 122 83 55
-0.24193 0.07633 0.60863 122 83 55
-0.25368 0.00225 0.59422 122 83 55
-0.24222 -0.07539 0.60393 122 83 55
-0.20619 -0.14779 0.61223 122 83 55
-0.15144 -0.20353 0.61182 122 83 55
-0.07755 -0.24154 0.59257 122 83 55
-0.00312 -0.25367 0.60818 122 83 55
0.08150 -0.24024 0.61113 122 83 55
0.15287 -0.20246 0.61068 122 83 55
0.20241 -0.15293 0.60605 122 83 55
0.24167 -0.07715 0.58841 122 83 55
0.24428 -0.00375 0.71893 122 83 55
0.23366 0.07136 0.71503 122 83 55
0.19834 0.14265 0.71756 122 83 55
0.14562 0.19617 0.73193 122 83 55
0.07412 0.23280 0.71467 122 83 55
0.00328 0.24429 0.71370 122 83 55
-0.07247 0.23332 0.72842 122 83 55
-0.14580 0.19604 0.71007 122 83 55
-0.19893 0.14183 0.71159 122 83 55
-0.23165 0.07762 0.71905 122 83 55
-0.24431 0.00045 0.71258 122 83 55
-0.23154 -0.07794 0.70786 122 83 55
-0.19751 -0.14379 0.72783 122 83 55
-0.14741 -0.19483 0.71919 122 83 55
-0.07523 -0.23244 0.71618 122 83 55
0.00377 -0.24428 0.71141 122 83 55
0.07246 -0.23332 0.72734 122 83 55
0.14422 -0.19720 0.71314 122 83 55
0.19955 -0.14096 0.72740 122 83 55
0.23356 -0.07168 0.72818 122 83 55
0.24229 0.00352 0.83114 122 83 55
0.23149 0.07161 0.82867 122 83 55
0.19412 0.14503 0.84160 122 83 55
0.14507 0.19409 0.84004 122 83 55
0.07908 0.22905 0.84894 122 83 55
-0.00408 0.24228 0.84805 122 83 55
-0.07942 0.22893 0.84685 122 83 55
-0.14307 0.19557 0.83912 122 83 55
-0.19701 0.14108 0.83094 122 83 55
-0.23105 0.07302 0.84155 122 83 55
-0.24230 -0.00306 0.82969 122 83 55
-0.23094 -0.07337 0.84650 122 83 55
-0.19585 -0.14269 0.84011 122 83 55
-0.14608 -0.19334 0.83378 122 83 55
-0.07091 -0.23171 0.85120 122 83 55
0.00473 -0.24227 0.83873 122 83 55
0.07592 -0.23012 0.84464 122 83 55
0.14552 -0.19375 0.82788 122 83 55
0.19461 -0.14437 0.84349 122 83 55
0.22964 -0.07734 0.83210 122 83 55
0.24864 0.00035 0.95581 122 83 55
0.23489 0.08153 0.96242 122 83 55
0.20283 0.14381 0.95138 122 83 55
0.14854 0.19939 0.94976 122 83 55
0.08089 0.23511 0.96108 122 83 55
-0.00079 0.24864 0.95121 122 83 55
-0.07234 0.23788 0.96945 122 83 55
-0.14469 0.20220 0.97168 122 83 55
-0.20226 0.14461 0.95257 122 83 55
-0.23743 0.07379 0.95591 122 83 55
-0.24860 0.00443 0.94938 122 83 55
-0.23575 -0.07900 0.96738 122 83 55
-0.20285 -0.14378 0.95081 122 83 55
-0.14377 -0.20286 0.96639 122 83 55
-0.07969 -0.23552 0.95265 122 83 55
-0.00219 -0.24863 0.96147 122 83 55
0.07638 -0.23661 0.94881 122 83 55
0.14997 -0.19832 0.96394 122 83 55
0.20042 -0.14714 0.94849 122 83 55
0.23511 -0.08089 0.95706 122 83 55
0.26026 -0.00484 1.07644 122 83 55
0.24806 0.07890 1.09234 122 83 55
0.21326 0.14926 1.08219 122 83 55
0.15243 0.21101 1.09188 122 83 55
0.08387 0.24642 1.08513 122 83 55
-0.00512 0.26025 1.08667 122 83 55
-0.08400 0.24638 1.08867 122 83 55
-0.15112 0.21194 1.07736 122 83 55
-0.21041 0.15325 1.07790 122 83 55
-0.24710 0.08186 1.08495 122 83 55
-0.26028 0.00311 1.07645 122 83 55
-0.24598 -0.08516 1.07033 122 83 55
-0.21324 -0.14928 1.08464 122 83 55
-0.14893 -0.21349 1.07261 122 83 55
-0.08515 -0.24598 1.08183 122 83 55
0.00025 -0.26030 1.07774 122 83 55
0.07947 -0.24788 1.08279 122 83 55
0.15583 -0.20850 1.08480 122 83 55
0.21106 -0.15235 1.06846 122 83 55
0.24659 -0.08337 1.06902 122 83 55
0.27183 -0.00057 1.18826 122 83 55
0.25941 0.08121 1.19141 122 83 55
0.22139 0.15772 1.19715 122 83 55
0.15833 0.22095 1.19638 122 83 55
0.08143 0.25934 1.19170 122 83 55
0.00279 0.27181 1.19003 122 83 55
-0.08462 0.25832 1.19112 122 83 55
-0.15887 0.22057 1.19780 122 83 55
-0.22084 0.15850 1.19006 122 83 55
-0.25938 0.08132 1.20664 122 83 55
-0.27178 -0.00493 1.19639 122 83 55
-0.25752 -0.08701 1.20798 122 83 55
-0.21977 -0.15996 1.18849 122 83 55
-0.16381 -0.21692 1.20414 122 83 55
-0.08904 -0.25683 1.18762 122 83 55
0.00260 -0.27181 1.20194 122 83 55
0.08000 -0.25979 1.19753 122 83 55
0.16298 -0.21755 1.19867 122 83 55
0.21964 -0.16015 1.19421 122 83 55
0.25955 -0.08078 1.19659 122 83 55
0.27775 0.00438 1.32561 122 83 55
0.26502 0.08325 1.30879 122 83 55
0.22579 0.16181 1.32169 122 83 55
0.15881 0.22792 1.30997 122 83 55
0.08580 0.26420 1.31692 122 83 55
-0.00235 0.27778 1.31242 122 83 55
-0.08303 0.26509 1.31847 122 83 55
-0.16766 0.22149 1.32841 122 83 55
-0.22314 0.16545 1.30945 122 83 55
-0.26266 0.09042 1.31163 122 83 55
-0.27779 -0.00063 1.31290 122 83 55
-0.26560 -0.08137 1.33146 122 83 55
-0.22334 -0.16518 1.31355 122 83 55
-0.15998 -0.22710 1.33021 122 83 55
-0.08181 -0.26547 1.32057 122 83 55
0.00036 -0.27779 1.32460 122 83 55
0.08356 -0.26492 1.31060 122 83 55
0.16177 -0.22582 1.31909 122 83 55
0.22382 -0.16453 1.32202 122 83 55
0.26459 -0.08460 1.32986 122 83 55
0.27534 0.00497 1.44714 122 83 55
0.26059 0.08904 1.44455 122 83 55
0.22473 0.15915 1.43572 122 83 55
0.16514 0.22037 1.43412 122 83 55
0.07992 0.26353 1.44920 122 83 55
0.00352 0.27536 1.43424 122 83 55
-0.08168 0.26299 1.43631 122 83 55
-0.16199 0.22270 1.44532 122 83 55
-0.22479 0.15908 1.43206 122 83 55
-0.26303 0.08156 1.43099 122 83 55
-0.27537 0.00274 1.44328 122 83 55
-0.26179 -0.08545 1.43148 122 83 55
-0.22079 -0.16459 1.43022 122 83 55
-0.16137 -0.22315 1.42952 122 83 55
-0.08800 -0.26095 1.42982 122 83 55
0.00007 -0.27538 1.44246 122 83 55
0.08319 -0.26252 1.44772 122 83 55
0.16572 -0.21994 1.44586 122 83 55
0.22240 -0.16240 1.45209 122 83 55
0.26054 -0.08918 1.43963 122 83 55
0.26574 0.00130 1.55381 122 83 55
0.25178 0.08501 1.56963 122 83 55
0.21442 0.15698 1.54872 122 83 55
0.15419 0.21644 1.55824 122 83 55
0.08715 0.25105 1.54884 122 83 55
0.00500 0.26570 1.54916 122 83 55
-0.08263 0.25257 1.56073 122 83 55
-0.15540 0.21557 1.55273 122 83 55
-0.21725 0.15304 1.55058 122 83 55
-0.25155 0.08568 1.55933 122 83 55
-0.26573 0.00228 1.57161 122 83 55
-0.25341 -0.08001 1.54972 122 83 55
-0.21215 -0.16004 1.55075 122 83 55
-0.15874 -0.21313 1.55234 122 83 55
-0.07882 -0.25379 1.56788 122 83 55
0.00233 -0.26573 1.55895 122 83 55
0.08271 -0.25254 1.56694 122 83 55
0.15554 -0.21547 1.56620 122 83 55
0.21373 -0.15793 1.56982 122 83 55
0.25373 -0.07899 1.56690 122 83 55
0.25337 0.00389 1.68976 122 83 55
0.24152 0.07669 1.69109 122 83 55
0.20781 0.14502 1.68261 122 83 55
0.14779 0.20585 1.68832 122 83 55
0.07946 0.24062 1.67539 122 83 55
0.00031 0.25340 1.66851 122 83 55
-0.07996 0.24046 1.66774 122 83 55
-0.15297 0.20203 1.67552 122 83 55
-0.20325 0.15133 1.68339 122 83 55
-0.24145 0.07692 1.67321 122 83 55
-0.25340 0.00017 1.68471 122 83 55
-0.24056 -0.07965 1.68551 122 83 55
-0.20363 -0.15082 1.68484 122 83 55
-0.14669 -0.20663 1.67801 122 83 55
-0.07777 -0.24117 1.67812 122 83 55
-0.00296 -0.25339 1.67990 122 83 55
0.07424 -0.24228 1.69076 122 83 55
0.14712 -0.20632 1.67635 122 83 55
0.20311 -0.15152 1.68497 122 83 55
0.24134 -0.07724 1.68266 122 83 55
0.24415 0.00281 1.80092 122 83 55
0.23361 0.07102 1.78773 122 83 55
0.19882 0.14172 1.81238 122 83 55
0.14725 0.19476 1.79571 122 83 55
0.07573 0.23212 1.79787 122 83 55
-0.00348 0.24414 1.79589 122 83 55
-0.07831 0.23127 1.81053 122 83 55
-0.14306 0.19786 1.79721 122 83 55
-0.19799 0.14289 1.81132 122 83 55
-0.23271 0.07393 1.79484 122 83 55
-0.24416 0.00112 1.79096 122 83 55
-0.23133 -0.07812 1.79781 122 83 55
-0.19911 -0.14133 1.80288 122 83 55
-0.14716 -0.19484 1.79270 122 83 55
-0.07258 -0.23313 1.79017 122 83 55
0.00079 -0.24416 1.80465 122 83 55
0.07115 -0.23357 1.79605 122 83 55
0.14318 -0.19778 1.79838 122 83 55
0.19895 -0.14155 1.80356 122 83 55
0.23124 -0.07839 1.79308 122 83 55
0.24235 -0.00361 1.92650 122 83 55
0.23173 0.07103 1.91600 122 83 55
0.19631 0.14216 1.91463 122 83 55
0.14176 0.19659 1.91139 122 83 55
0.07888 0.22918 1.91278 122 83 55
0.00431 0.24234 1.92217 122 83 55
-0.07561 0.23028 1.91952 122 83 55
-0.14476 0.19440 1.91818 122 83 55
-0.19871 0.13878 1.92222 122 83 55
-0.23027 0.07565 1.92612 122 83 55
-0.24234 -0.00426 1.92190 122 83 55
-0.22987 -0.07684 1.92758 122 83 55
-0.19552 -0.14324 1.93219 122 83 55
-0.14205 -0.19638 1.91255 122 83 55
-0.07476 -0.23056 1.92310 122 83 55
0.00160 -0.24237 1.91239 122 83 55
0.07573 -0.23024 1.91168 122 83 55
0.14012 -0.19777 1.91737 122 83 55
0.19532 -0.14351 1.90760 122 83 55
0.23031 -0.07551 1.91487 122 83 55
0.24887 0.00165 2.04821 122 83 55
0.23803 0.07266 2.03621 122 83 55
0.20025 0.14778 2.04880 122 83 55
0.14333 0.20346 2.04046 122 83 55
0.07241 0.23811 2.04496 122 83 55
-0.00375 0.24885 2.04078 122 83 55
-0.08055 0.23548 2.03519 122 83 55
-0.14263 0.20395 2.03426 122 83 55
-0.20107 0.14666 2.03837 122 83 55
-0.23586 0.07943 2.02802 122 83 55
-0.24886 -0.00262 2.04168 122 83 55
-0.23803 -0.07265 2.04035 122 83 55
-0.20262 -0.14451 2.03589 122 83 55
-0.14434 -0.20274 2.05201 122 83 55
-0.07485 -0.23735 2.04638 122 83 55
-0.00280 -0.24886 2.04390 122 83 55
0.07565 -0.23710 2.04914 122 83 55
0.14951 -0.19896 2.03883 122 83 55
0.19857 -0.15003 2.04263 122 83 55
0.23521 -0.08134 2.04610 122 83 55
0.26057 0.00445 2.17236 122 83 55
0.24783 0.08058 2.15907 122 83 55
0.21252 0.15083 2.17137 122 83 55
0.15290 0.21103 2.17191 122 83 55
0.08451 0.24652 2.15618 122 83 55
-0.00069 0.26060 2.15828 122 83 55
-0.08000 0.24802 2.14877 122 83 55
-0.15164 0.21194 2.16061 122 83 55
-0.21169 0.15200 2.15166 122 83 55
-0.24898 0.07695 2.17017 122 83 55
-0.26056 -0.00489 2.16423 122 83 55
-0.24918 -0.07633 2.16418 122 83 55
-0.20974 -0.15468 2.14971 122 83 55
-0.14902 -0.21379 2.16262 122 83 55
-0.07854 -0.24849 2.14867 122 83 55
0.00217 -0.26060 2.15347 122 83 55
0.08077 -0.24777 2.16576 122 83 55
0.14924 -0.21364 2.16655 122 83 55
0.21260 -0.15073 2.16314 122 83 55
0.24939 -0.07564 2.15721 122 83 55
0.27205 0.00052 2.26979 122 83 55
0.25786 0.08673 2.28753 122 83 55
0.22147 0.15800 2.28271 122 83 55
0.15701 0.22217 2.28378 122 83 55
0.08797 0.25744 2.28664 122 83 55
0.00147 0.27205 2.27527 122 83 55
-0.08764 0.25755 2.27575 122 83 55
-0.15578 0.22303 2.27588 122 83 55
-0.22085 0.15886 2.29164 122 83 55
-0.25986 0.08053 2.27589 122 83 55
-0.27205 -0.00049 2.27839 122 83 55
-0.25803 -0.08621 2.27293 122 83 55
-0.22024 -0.15971 2.27658 122 83 55
-0.15687 -0.22227 2.29202 122 83 55
-0.08208 -0.25938 2.28948 122 83 55
-0.00386 -0.27202 2.28130 122 83 55
0.08233 -0.25930 2.28595 122 83 55
0.15685 -0.22228 2.27567 122 83 55
0.22173 -0.15763 2.28564 122 83 55
0.25818 -0.08576 2.27743 122 83 55
0.27781 -0.00336 2.39852 122 83 55
0.26354 0.08795 2.40395 122 83 55
0.22584 0.16183 2.40684 122 83 55
0.16771 0.22150 2.39361 122 83 55
0.08346 0.26500 2.40420 122 83 55
0.00419 0.27780 2.38764 122 83 55
-0.08248 0.26531 2.41212 122 83 55
-0.16087 0.22652 2.41174 122 83 55
-0.22488 0.16316 2.40131 122 83 55
-0.26571 0.08115 2.41247 122 83 55
-0.27782 0.00220 2.40574 122 83 55
-0.26387 -0.08696 2.38978 122 83 55
-0.22480 -0.16326 2.38898 122 83 55
-0.16560 -0.22308 2.38829 122 83 55
-0.08986 -0.26290 2.40855 122 83 55
0.00543 -0.27778 2.39607 122 83 55
0.08432 -0.26473 2.40508 122 83 55
0.16729 -0.22182 2.40605 122 83 55
0.22602 -0.16157 2.39977 122 83 55
0.26524 -0.08270 2.40144 122 83 55
0.27518 -0.00491 2.50928 122 83 55
0.26126 0.08656 2.52757 122 83 55
0.21943 0.16613 2.52900 122 83 55
0.15850 0.22500 2.52917 122 83 55
0.08625 0.26136 2.51152 122 83 55
-0.00540 0.27517 2.50808 122 83 55
-0.08248 0.26257 2.52357 122 83 55
-0.16506 0.22024 2.51269 122 83 55
-0.22330 0.16089 2.52080 122 83 55
-0.26227 0.08345 2.52671 122 83 55
-0.27522 0.00125 2.51623 122 83 55
-0.26235 -0.08318 2.51117 122 83 55
-0.22526 -0.15814 2.51420 122 83 55
-0.15877 -0.22481 2.52462 122 83 55
-0.08571 -0.26154 2.51810 122 83 55
-0.00435 -0.27519 2.50789 122 83 55
0.08160 -0.26285 2.52630 122 83 55
0.16046 -0.22361 2.52607 122 83 55
0.22023 -0.16507 2.51198 122 83 55
0.26208 -0.08404 2.51640 122 83 55
0.26543 0.00365 2.63387 122 83 55
0.25317 0.07981 2.64225 122 83 55
0.21505 0.15563 2.64096 122 83 55
0.15744 0.21373 2.64452 122 83 55
0.07982 0.25317 2.63587 122 83 55
0.00370 0.26543 2.63293 122 83 55
-0.08039 0.25299 2.64231 122 83 55
-0.15398 0.21623 2.64116 122 83 55
-0.21744 0.15228 2.62880 122 83 55
-0.25321 0.07971 2.65089 122 83 55
-0.26545 0.00157 2.65173 122 83 55
-0.25241 -0.08219 2.65094 122 83 55
-0.21686 -0.15310 2.65229 122 83 55
-0.15742 -0.21374 2.64427 122 83 55
-0.08202 -0.25247 2.62788 122 83 55
0.00312 -0.26544 2.65159 122 83 55
0.08371 -0.25191 2.63008 122 83 55
0.15818 -0.21318 2.64158 122 83 55
0.21203 -0.15973 2.64724 122 83 55
0.25173 -0.08425 2.64923 122 83 55
0.25312 -0.00054 2.75627 122 83 55
0.24026 0.07965 2.76965 122 83 55
0.20465 0.14896 2.76927 122 83 55
0.15182 0.20254 2.75642 122 83 55
0.07911 0.24044 2.75191 122 83 55
-0.00140 0.25312 2.75432 122 83 55
-0.07813 0.24076 2.77190 122 83 55
-0.14884 0.20474 2.75301 122 83 55
-0.20551 0.14778 2.76685 122 83 55
-0.24174 0.07505 2.75398 122 83 55
-0.25311 -0.00295 2.75731 122 83 55
-0.24159 -0.07554 2.75484 122 83 55
-0.20391 -0.14998 2.75196 122 83 55
-0.14484 -0.20759 2.75087 122 83 55
-0.07794 -0.24082 2.75304 122 83 55
0.00384 -0.25309 2.76522 122 83 55
0.08197 -0.23948 2.75164 122 83 55
0.14627 -0.20658 2.75031 122 83 55
0.20328 -0.15082 2.75839 122 83 55
0.24112 -0.07701 2.75927 122 83 55
0.24399 -0.00426 2.89163 122 83 55
0.23295 0.07269 2.88756 122 83 55
0.19931 0.14080 2.88617 122 83 55
0.14385 0.19712 2.87598 122 83 55
0.07380 0.23260 2.88716 122 83 55
0.00297 0.24401 2.86770 122 83 55
-0.07490 0.23224 2.87474 122 83 55
-0.13972 0.20006 2.86820 122 83 55
-0.19793 0.14273 2.87140 122 83 55
-0.23110 0.07837 2.88812 122 83 55
-0.24402 -0.00036 2.87034 122 83 55
-0.23298 -0.07257 2.88535 122 83 55
-0.19642 -0.14480 2.86918 122 83 55
-0.13962 -0.20013 2.86900 122 83 55
-0.07447 -0.23238 2.87978 122 83 55
0.00346 -0.24400 2.88899 122 83 55
0.07510 -0.23218 2.89112 122 83 55
0.14521 -0.19611 2.89147 122 83 55
0.20007 -0.13972 2.86842 122 83 55
0.23237 -0.07452 2.87619 122 83 55
0.24240 0.00428 2.99798 122 83 55
0.22919 0.07905 2.99366 122 83 55
0.19514 0.14386 3.00343 122 83 55
0.14036 0.19768 3.01069 122 83 55
0.07661 0.23002 3.01036 122 83 55
0.00275 0.24242 2.99954 122 83 55
-0.07083 0.23186 2.99244 122 83 55
-0.14000 0.19793 3.01193 122 83 55
-0.19858 0.13908 2.98870 122 83 55
-0.23007 0.07645 3.00555 122 83 55
-0.24244 0.00078 2.99240 122 83 55
-0.23115 -0.07312 3.00183 122 83 55
-0.19785 -0.14011 3.00865 122 83 55
-0.14545 -0.19396 3.00010 122 83 55
-0.07273 -0.23127 2.98887 122 83 55
-0.00386 -0.24241 3.00942 122 83 55
0.07562 -0.23034 3.00664 122 83 55
0.14439 -0.19475 2.99078 122 83 55
0.19587 -0.14287 2.99551 122 83 55
0.23019 -0.07608 3.00827 122 83 55
0.24911 0.00167 3.12088 122 83 55
0.23666 0.07778 3.11453 122 83 55
0.20258 0.14498 3.12397 122 83 55
0.14492 0.20262 3.11172 122 83 55
0.07863 0.23638 3.12757 122 83 55
-0.00230 0.24910 3.13049 122 83 55
-0.07521 0.23749 3.12402 122 83 55
-0.14929 0.19942 3.12597 122 83 55
-0.20357 0.14358 3.12254 122 83 55
-0.23832 0.07254 3.12071 122 83 55
-0.24911 -0.00087 3.11907 122 83 55
-0.23840 -0.07228 3.11092 122 83 55
-0.20306 -0.14430 3.12305 122 83 55
-0.14751 -0.20074 3.12369 122 83 55
-0.07674 -0.23700 3.11191 122 83 55
-0.00337 -0.24909 3.12385 122 83 55
0.07694 -0.23693 3.11508 122 83 55
0.14582 -0.20197 3.12572 122 83 55
0.20342 -0.14380 3.11089 122 83 55
0.23674 -0.07754 3.12094 122 83 55
0.26086 -0.00500 3.24574 122 83 55
0.24721 0.08342 3.23504 122 83 55
0.21010 0.15470 3.25124 122 83 55
0.15098 0.21279 3.24156 122 83 55
0.08519 0.24661 3.23620 122 83 55
0.00033 0.26091 3.23877 122 83 55
-0.08460 0.24681 3.23687 122 83 55
-0.15114 0.21267 3.25037 122 83 55
-0.20863 0.15667 3.23971 122 83 55
-0.24894 0.07813 3.24270 122 83 55
-0.26091 0.00106 3.25240 122 83 55
-0.24697 -0.08413 3.23730 122 83 55
-0.21003 -0.15479 3.24516 122 83 55
-0.15319 -0.21120 3.24391 122 83 55
-0.08233 -0.24758 3.24548 122 83 55
-0.00444 -0.26087 3.25026 122 83 55
0.08264 -0.24747 3.25075 122 83 55
0.15116 -0.21266 3.23613 122 83 55
0.21168 -0.15253 3.22949 122 83 55
0.24889 -0.07827 3.23568 122 83 55
0.27227 -0.00121 3.35811 122 83 55
0.25902 0.08392 3.34794 122 83 55
0.22142 0.15846 3.35649 122 83 55
0.15897 0.22105 3.36193 122 83 55
0.08027 0.26017 3.36168 122 83 55
-0.00517 0.27223 3.36386 122 83 55
-0.08255 0.25946 3.36057 122 83 55
-0.16054 0.21991 3.35045 122 83 55
-0.21752 0.16376 3.35840 122 83 55
-0.25822 0.08634 3.35313 122 83 55
-0.27225 -0.00392 3.37136 122 83 55
-0.26025 -0.08001 3.36479 122 83 55
-0.21979 -0.16070 3.35269 122 83 55
-0.16441 -0.21703 3.35639 122 83 55
-0.08894 -0.25734 3.34802 122 83 55
0.00303 -0.27226 3.35739 122 83 55
0.08459 -0.25880 3.35685 122 83 55
0.15994 -0.22035 3.35510 122 83 55
0.22191 -0.15776 3.35846 122 83 55
0.26015 -0.08035 3.34918 122 83 55
0.27786 0.00274 3.48662 122 83 55
0.26512 0.08320 3.47390 122 83 55
0.22539 0.16251 3.47884 122 83 55
0.16092 0.22653 3.49207 122 83 55
0.08468 0.26465 3.47714 122 83 55
-0.00323 0.27785 3.49060 122 83 55
-0.08812 0.26353 3.48846 122 83 55
-0.16719 0.22194 3.48913 122 83 55
-0.22384 0.16465 3.46926 122 83 55
-0.26285 0.09013 3.47915 122 83 55
-0.27787 -0.00158 3.48493 122 83 55
-0.26479 -0.08425 3.47269 122 83 55
-0.22700 -0.16026 3.49106 122 83 55
-0.16216 -0.22565 3.48533 122 83 55
-0.08707 -0.26388 3.46962 122 83 55
0.00082 -0.27787 3.49019 122 83 55
0.08539 -0.26443 3.48473 122 83 55
0.16715 -0.22198 3.48525 122 83 55
0.22408 -0.16431 3.47846 122 83 55
0.26382 -0.08723 3.47288 122 83 55
0.27504 -0.00334 3.60383 122 83 55
0.26080 0.08742 3.60174 122 83 55
0.22287 0.16121 3.60807 122 83 55
0.15843 0.22485 3.61228 122 83 55
0.08741 0.26080 3.60572 122 83 55
-0.00221 0.27505 3.60347 122 83 55
-0.08873 0.26035 3.61214 122 83 55
-0.15968 0.22397 3.59453 122 83 55
-0.22518 0.15796 3.58945 122 83 55
-0.26219 0.08316 3.61189 122 83 55
-0.27505 -0.00164 3.59317 122 83 55
-0.26247 -0.08228 3.59246 122 83 55
-0.22423 -0.15931 3.60384 122 83 55
-0.16161 -0.22257 3.59106 122 83 55
-0.08122 -0.26280 3.58952 122 83 55
0.00164 -0.27505 3.59057 122 83 55
0.08772 -0.26070 3.60097 122 83 55
0.16126 -0.22283 3.59519 122 83 55
0.22500 -0.15822 3.60778 122 83 55
0.26014 -0.08937 3.59275 122 83 55
0.26513 -0.00453 3.70991 122 83 55
0.25337 0.07822 3.72407 122 83 55
0.21210 0.15915 3.72537 122 83 55
0.15337 0.21631 3.71283 122 83 55
0.08199 0.25217 3.73083 122 83 55
0.00490 0.26512 3.71127 122 83 55
-0.07945 0.25298 3.71361 122 83 55
-0.15370 0.21608 3.72295 122 83 55
-0.21666 0.15288 3.72432 122 83 55
-0.25259 0.08070 3.72016 122 83 55
-0.26514 0.00365 3.73092 122 83 55
-0.25293 -0.07962 3.70978 122 83 55
-0.21606 -0.15373 3.72115 122 83 55
-0.15206 -0.21723 3.72277 122 83 55
-0.08578 -0.25091 3.71150 122 83 55
0.00177 -0.26516 3.71346 122 83 55
0.07715 -0.25370 3.72726 122 83 55
0.15881 -0.21235 3.71140 122 83 55
0.21572 -0.15420 3.72421 122 83 55
0.25219 -0.08193 3.72443 122 83 55
0.25284 0.00108 3.84907 122 83 55
0.23960 0.08075 3.84315 122 83 55
0.20649 0.14592 3.85178 122 83 55
0.14554 0.20676 3.83807 122 83 55
0.07759 0.24065 3.83912 122 83 55
0.00453 0.25280 3.84211 122 83 55
-0.07696 0.24085 3.84039 122 83 55
-0.14692 0.20578 3.84209 122 83 55
-0.20534 0.14753 3.83704 122 83 55
-0.24143 0.07511 3.83451 122 83 55
-0.25284 -0.00001 3.84451 122 83 55
-0.24018 -0.07901 3.83680 122 83 55
-0.20209 -0.15195 3.83076 122 83 55
-0.14912 -0.20419 3.84162 122 83 55
-0.08278 -0.23891 3.84205 122 83 55
-0.00084 -0.25284 3.83817 122 83 55
0.08264 -0.23896 3.83813 122 83 55
0.14921 -0.20413 3.83041 122 83 55
0.20540 -0.14744 3.84486 122 83 55
0.23977 -0.08024 3.83868 122 83 55
0.24386 -0.00336 3.95880 122 83 55
0.23131 0.07732 3.97215 122 83 55
0.19791 0.14252 3.95450 122 83 55
0.14596 0.19539 3.95103 122 83 55
0.07181 0.23308 3.97138 122 83 55
0.00154 0.24388 3.95866 122 83 55
-0.07680 0.23148 3.96338 122 83 55
-0.14503 0.19608 3.95961 122 83 55
-0.19451 0.14712 3.95098 122 83 55
-0.23239 0.07400 3.95157 122 83 55
-0.24388 0.00144 3.95112 122 83 55
-0.23062 -0.07936 3.95480 122 83 55
-0.19832 -0.14195 3.95705 122 83 55
-0.14119 -0.19886 3.96416 122 83 55
-0.07841 -0.23094 3.95134 122 83 55
0.00024 -0.24389 3.95011 122 83 55
0.07949 -0.23057 3.96646 122 83 55
0.14459 -0.19640 3.95123 122 83 55
0.19923 -0.14068 3.96364 122 83 55
0.23266 -0.07316 3.95712 122 83 55
0.24246 0.00480 4.07699 122 83 55
0.23085 0.07427 4.08167 122 83 55
0.19638 0.14228 4.08602 122 83 55
0.14031 0.19780 4.06819 122 83 55
0.07804 0.22961 4.08109 122 83 55
0.00145 0.24250 4.06880 122 83 55
-0.07927 0.22919 4.09248 122 83 55
-0.14513 0.19429 4.07204 122 83 55
-0.19572 0.14320 4.08493 122 83 55
-0.23018 0.07633 4.08367 122 83 55
-0.24251 -0.00024 4.08104 122 83 55
-0.23048 -0.07542 4.07712 122 83 55
-0.19479 -0.14446 4.07279 122 83 55
-0.14574 -0.19383 4.07602 122 83 55
-0.07856 -0.22943 4.09203 122 83 55
-0.00260 -0.24249 4.06778 122 83 55
0.07936 -0.22916 4.09178 122 83 55
0.14347 -0.19551 4.07816 122 83 55
0.19383 -0.14574 4.07167 122 83 55
0.23048 -0.07544 4.06828 122 83 55
0.24935 0.00170 4.20682 122 83 55
0.23695 0.07768 4.19158 122 83 55
0.19936 0.14978 4.20600 122 83 55
0.14822 0.20052 4.18957 122 83 55
0.08161 0.23562 4.20097 122 83 55
-0.00418 0.24932 4.20645 122 83 55
-0.07932 0.23640 4.20012 122 83 55
-0.14414 0.20348 4.20894 122 83 55
-0.20398 0.14342 4.19608 122 83 55
-0.23668 0.07849 4.20387 122 83 55
-0.24935 0.00134 4.20271 122 83 55
-0.23784 -0.07490 4.20743 122 83 55
-0.19958 -0.14949 4.19373 122 83 55
-0.14977 -0.19937 4.19099 122 83 55
-0.07286 -0.23847 4.20090 122 83 55
-0.00268 -0.24934 4.19008 122 83 55
0.07592 -0.23752 4.21147 122 83 55
0.14620 -0.20200 4.19386 122 83 55
0.20428 -0.14300 4.21041 122 83 55
0.23831 -0.07338 4.18901 122 83 55
0.26117 0.00431 4.31443 122 83 55
0.24764 0.08309 4.30819 122 83 55
0.21365 0.15028 4.31107 122 83 55
0.15609 0.20945 4.32424 122 83 55
0.08346 0.24752 4.31717 122 83 55
-0.00430 0.26117 4.30785 122 83 55
-0.08116 0.24828 4.32757 122 83 55
-0.15669 0.20900 4.32241 122 83 55
-0.21246 0.15196 4.33089 122 83 55
-0.24907 0.07872 4.31121 122 83 55
-0.26120 -0.00214 4.33060 122 83 55
-0.24822 -0.08134 4.31826 122 83 55
-0.21038 -0.15482 4.33094 122 83 55
-0.15509 -0.21018 4.33031 122 83 55
-0.07922 -0.24891 4.30823 122 83 55
0.00070 -0.26121 4.31395 122 83 55
0.08465 -0.24711 4.31966 122 83 55
0.15527 -0.21005 4.32780 122 83 55
0.20961 -0.15586 4.30768 122 83 55
0.24731 -0.08409 4.32116 122 83 55
0.27246 -0.00416 4.43448 122 83 55
0.25950 0.08316 4.43171 122 83 55
0.22148 0.15874 4.44730 122 83 55
0.16070 0.22007 4.43603 122 83 55
0.08415 0.25918 4.45139 122 83 55
-0.00423 0.27246 4.43308 122 83 55
-0.08245 0.25972 4.44900 122 83 55
-0.16240 0.21882 4.44691 122 83 55
-0.21954 0.16141 4.43370 122 83 55
-0.25946 0.08328 4.44130 122 83 55
-0.27249 0.00151 4.44085 122 83 55
-0.25853 -0.08611 4.44992 122 83 55
-0.21860 -0.16269 4.45109 122 83 55
-0.16141 -0.21954 4.44738 122 83 55
-0.08014 -0.26044 4.43009 122 83 55
0.00108 -0.27249 4.44728 122 83 55
0.08372 -0.25932 4.44403 122 83 55
0.16081 -0.21999 4.44493 122 83 55
0.21857 -0.16273 4.44644 122 83 55
0.26003 -0.08147 4.42855 122 83 55
0.27790 -0.00119 4.55846 122 83 55
0.26336 0.08872 4.55904 122 83 55
0.22784 0.15912 4.55564 122 83 55
0.16773 0.22158 4.55960 122 83 55
0.08176 0.26561 4.55078 122 83 55
-0.00396 0.27788 4.55789 122 83 55
-0.08234 0.26542 4.56844 122 83 55
-0.16761 0.22167 4.55439 122 83 55
-0.22425 0.16414 4.56321 122 83 55
-0.26556 0.08190 4.57224 122 83 55
-0.27789 0.00315 4.56978 122 83 55
-0.26285 -0.09024 4.55463 122 83 55
-0.22402 -0.16446 4.56940 122 83 55
-0.16485 -0.22373 4.54768 122 83 55
-0.08713 -0.26389 4.56834 122 83 55
-0.00525 -0.27785 4.56719 122 83 55
0.08521 -0.26452 4.56538 122 83 55
0.15969 -0.22744 4.55476 122 83 55
0.22347 -0.16521 4.56641 122 83 55
0.26404 -0.08669 4.55934 122 83 55
0.27486 -0.00389 4.68082 122 83 55
0.26026 0.08849 4.68186 122 83 55
0.21962 0.16533 4.67505 122 83 55
0.16089 0.22289 4.68682 122 83 55
0.08370 0.26184 4.68561 122 83 55
0.00466 0.27485 4.68588 122 83 55
-0.08563 0.26122 4.67453 122 83 55
-0.16062 0.22308 4.67972 122 83 55
-0.22267 0.16120 4.69175 122 83 55
-0.26219 0.08261 4.67583 122 83 55
-0.27486 -0.00385 4.67020 122 83 55
-0.26036 -0.08819 4.68611 122 83 55
-0.22083 -0.16371 4.67552 122 83 55
-0.16375 -0.22080 4.67911 122 83 55
-0.08122 -0.26262 4.66852 122 83 55
0.00530 -0.27484 4.67360 122 83 55
0.08549 -0.26126 4.67001 122 83 55
0.16070 -0.22303 4.69068 122 83 55
0.22084 -0.16370 4.67351 122 83 55
0.25970 -0.09012 4.68860 122 83 55
0.26486 -0.00245 4.80295 122 83 55
0.25217 0.08105 4.80504 122 83 55
0.21389 0.15625 4.80347 122 83 55
0.15809 0.21252 4.79847 122 83 55
0.08046 0.25236 4.80482 122 83 55
-0.00451 0.26484 4.80597 122 83 55
-0.08055 0.25233 4.80303 122 83 55
-0.15204 0.21689 4.79142 122 83 55
-0.21382 0.15634 4.81233 122 83 55
-0.25118 0.08408 4.78915 122 83 55
-0.26486 -0.00248 4.80050 122 83 55
-0.25171 -0.08247 4.80929 122 83 55
-0.21711 -0.15173 4.79214 122 83 55
-0.15531 -0.21456 4.79254 122 83 55
-0.08118 -0.25213 4.81051 122 83 55
-0.00352 -0.26485 4.78806 122 83 55
0.07921 -0.25275 4.80996 122 83 55
0.15146 -0.21730 4.80961 122 83 55
0.21184 -0.15901 4.80705 122 83 55
0.25179 -0.08224 4.80628 122 83 55
0.25254 0.00356 4.91994 122 83 55
0.24093 0.07577 4.91036 122 83 55
0.20451 0.14820 4.91668 122 83 55
0.15103 0.20244 4.91620 122 83 55
0.07688 0.24058 4.92434 122 83 55
-0.00341 0.25254 4.92014 122 83 55
-0.07521 0.24111 4.93221 122 83 55
-0.15193 0.20176 4.90778 122 83 55
-0.20172 0.15198 4.92856 122 83 55
-0.23993 0.07889 4.93131 122 83 55
-0.25252 -0.00503 4.92157 122 83 55
-0.24060 -0.07682 4.93051 122 83 55
-0.20480 -0.14781 4.91646 122 83 55
-0.14776 -0.20484 4.92274 122 83 55
-0.07937 -0.23977 4.93204 122 83 55
-0.00420 -0.25253 4.92302 122 83 55
0.07945 -0.23975 4.92099 122 83 55
0.14600 -0.20609 4.91200 122 83 55
0.20393 -0.14900 4.91482 122 83 55
0.24136 -0.07441 4.92548 122 83 55
0.24375 -0.00015 5.04015 122 83 55
0.23259 0.07294 5.04056 122 83 55
0.19539 0.14573 5.04485 122 83 55
0.14139 0.19856 5.04992 122 83 55
0.07448 0.23210 5.04821 122 83 55
0.00206 0.24375 5.04159 122 83 55
-0.07511 0.23189 5.03600 122 83 55
-0.14176 0.19829 5.03321 122 83 55
-0.19848 0.14150 5.05234 122 83 55
-0.23191 0.07506 5.04072 122 83 55
-0.24374 -0.00239 5.05155 122 83 55
-0.23047 -0.07938 5.04796 122 83 55
-0.19433 -0.14714 5.04446 122 83 55
-0.14451 -0.19630 5.03958 122 83 55
-0.07702 -0.23127 5.03494 122 83 55
-0.00198 -0.24375 5.04623 122 83 55
0.07233 -0.23277 5.04844 122 83 55
0.14287 -0.19750 5.03209 122 83 55
0.19642 -0.14434 5.03594 122 83 55
0.23195 -0.07494 5.03596 122 83 55
0.24255 -0.00387 5.16261 122 83 55
0.23041 0.07589 5.15365 122 83 55
0.19516 0.14408 5.15699 122 83 55
0.14601 0.19372 5.16534 122 83 55
0.07890 0.22939 5.14758 122 83 55
-0.00351 0.24256 5.16310 122 83 55
-0.07913 0.22931 5.17001 122 83 55
-0.14469 0.19471 5.16488 122 83 55
-0.19559 0.14349 5.15940 122 83 55
-0.23051 0.07557 5.15748 122 83 55
-0.24254 -0.00430 5.15338 122 83 55
-0.22926 -0.07928 5.17238 122 83 55
-0.19404 -0.14559 5.15298 122 83 55
-0.14613 -0.19363 5.16960 122 83 55
-0.07093 -0.23198 5.14932 122 83 55
0.00268 -0.24257 5.16565 122 83 55
0.07583 -0.23042 5.15584 122 83 55
0.14579 -0.19388 5.14850 122 83 55
0.19391 -0.14576 5.16652 122 83 55
0.22949 -0.07862 5.15308 122 83 55
0.24960 -0.00095 5.28722 122 83 55
0.23815 0.07475 5.27261 122 83 55
0.19931 0.15025 5.27820 122 83 55
0.14905 0.20021 5.27199 122 83 55
0.07403 0.23837 5.27244 122 83 55
0.00140 0.24960 5.27079 122 83 55
-0.08088 0.23613 5.29030 122 83 55
-0.14924 0.20007 5.26983 122 83 55
-0.20368 0.14427 5.27759 122 83 55
-0.23666 0.07933 5.27618 122 83 55
-0.24957 -0.00364 5.28017 122 83 55
-0.23654 -0.07970 5.26818 122 83 55
-0.20144 -0.14738 5.28957 122 83 55
-0.14323 -0.20441 5.28783 122 83 55
-0.07330 -0.23860 5.28042 122 83 55
-0.00202 -0.24959 5.28453 122 83 55
0.07881 -0.23683 5.29139 122 83 55
0.15068 -0.19899 5.29017 122 83 55
0.20444 -0.14320 5.28319 122 83 55
0.23824 -0.07445 5.28693 122 83 55
