ply
format ascii 1.0
comment SIMULATED DEMO - NOT FIELD EVIDENCE
element vertex 900
property float x
property float y
property float z
property uchar red
property uchar green
property uchar blue
end_header
0.25999 -0.00193 -0.00841 122 83 55
0.24797 0.07817 -0.00318 122 83 55
0.21328 0.14870 0.00826 122 83 55
0.15169 0.21116 -0.01180 122 83 55
0.08336 0.24628 0.00593 122 83 55
-0.00304 0.25998 -0.00147 122 83 55
-0.07968 0.24749 0.00926 122 83 55
-0.15514 0.20864 0.00318 122 83 55
-0.20783 0.15623 0.00987 122 83 55
-0.24656 0.08250 -0.00270 122 83 55
-0.26000 0.00073 0.00285 122 83 55
-0.24725 -0.08042 -0.01001 122 83 55
-0.21271 -0.14952 -0.00050 122 83 55
-0.15610 -0.20792 0.00051 122 83 55
-0.08175 -0.24681 0.00720 122 83 55
0.00101 -0.26000 -0.01163 122 83 55
0.07740 -0.24821 -0.00112 122 83 55
0.15513 -0.20865 0.00512 122 83 55
0.21027 -0.15293 0.00033 122 83 55
0.24570 -0.08504 0.01198 122 83 55
0.27159 0.00148 0.12542 122 83 55
0.25824 0.08412 0.10870 122 83 55
0.22063 0.15839 0.12999 122 83 55
0.15769 0.22113 0.11031 122 83 55
0.08145 0.25910 0.13181 122 83 55
-0.00220 0.27159 0.10960 122 83 55
-0.08339 0.25848 0.12512 122 83 55
-0.15642 0.22203 0.11957 122 83 55
-0.22273 0.15541 0.12447 122 83 55
-0.25671 0.08867 0.12110 122 83 55
-0.27157 0.00378 0.10887 122 83 55
-0.25799 -0.08489 0.12765 122 83 55
-0.22076 -0.15821 0.10862 122 83 55
-0.15868 -0.22042 0.12468 122 83 55
-0.08839 -0.25681 0.11317 122 83 55
-0.00020 -0.27160 0.12816 122 83 55
0.07901 -0.25985 0.10991 122 83 55
0.16139 -0.21844 0.11234 122 83 55
0.22039 -0.15872 0.11987 122 83 55
0.25744 -0.08655 0.11355 122 83 55
0.27774 -0.00025 0.24756 122 83 55
0.26428 0.08540 0.24294 122 83 55
0.22206 0.16682 0.22848 122 83 55
0.16598 0.22269 0.23221 122 83 55
0.08393 0.26475 0.23412 122 83 55
0.00161 0.27773 0.23772 122 83 55
-0.08096 0.26568 0.25038 122 83 55
-0.15980 0.22716 0.23475 122 83 55
-0.22666 0.16051 0.25175 122 83 55
-0.26398 0.08634 0.23969 122 83 55
-0.27774 -0.00126 0.22970 122 83 55
-0.26338 -0.08815 0.23427 122 83 55
-0.22693 -0.16013 0.23010 122 83 55
-0.16328 -0.22467 0.23731 122 83 55
-0.08527 -0.26433 0.24069 122 83 55
0.00404 -0.27771 0.23065 122 83 55
0.08510 -0.26438 0.25074 122 83 55
0.16615 -0.22256 0.25202 122 83 55
0.22343 -0.16498 0.23667 122 83 55
0.26457 -0.08451 0.24906 122 83 55
0.27553 -0.00224 0.35310 122 83 55
0.26349 0.08059 0.36499 122 83 55
0.22408 0.16034 0.35057 122 83 55
0.16495 0.22071 0.36734 122 83 55
0.08762 0.26123 0.36708 122 83 55
-0.00195 0.27553 0.35785 122 83 55
-0.08844 0.26096 0.37199 122 83 55
-0.16112 0.22352 0.35756 122 83 55
-0.22543 0.15844 0.37211 122 83 55
-0.26126 0.08754 0.36751 122 83 55
-0.27550 -0.00452 0.35085 122 83 55
-0.26192 -0.08556 0.36666 122 83 55
-0.22419 -0.16018 0.35787 122 83 55
-0.15950 -0.22468 0.35502 122 83 55
-0.09012 -0.26038 0.35259 122 83 55
-0.00204 -0.27553 0.36103 122 83 55
0.09023 -0.26035 0.36148 122 83 55
0.16097 -0.22363 0.36356 122 83 55
0.22361 -0.16099 0.36495 122 83 55
0.26090 -0.08860 0.36030 122 83 55
0.26599 0.00487 0.48133 122 83 55
0.25345 0.08084 0.49035 122 83 55
0.21717 0.15366 0.48127 122 83 55
0.15930 0.21306 0.48509 122 83 55
0.08536 0.25196 0.49243 122 83 55
-0.00095 0.26603 0.47283 122 83 55
-0.08435 0.25230 0.48543 122 83 55
-0.15804 0.21400 0.46885 122 83 55
-0.21440 0.15750 0.48835 122 83 55
-0.25457 0.07725 0.48868 122 83 55
-0.26601 0.00287 0.48828 122 83 55
-0.25425 -0.07829 0.48379 122 83 55
-0.21214 -0.16053 0.47468 122 83 55
-0.15430 -0.21671 0.47008 122 83 55
-0.07858 -0.25416 0.49063 122 83 55
-0.00495 -0.26598 0.48083 122 83 55
0.08429 -0.25232 0.48909 122 83 55
0.15460 -0.21650 0.48193 122 83 55
0.21252 -0.16002 0.47288 122 83 55
0.25316 -0.08173 0.46865 122 83 55
0.25365 -0.00440 0.59795 122 83 55
0.24213 0.07570 0.58919 122 83 55
0.20629 0.14765 0.61113 122 83 55
0.15155 0.20344 0.60679 122 83 55
0.07848 0.24124 0.59449 122 83 55
-0.00355 0.25366 0.58821 122 83 55
-0.08257 0.23987 0.59491 122 83 55
-0.15171 0.20332 0.58777 122 83 55
-0.20591 0.14818 0.59855 122 83 55
-0.24201 0.07608 0.60223 122 83 55
-0.25368 0.00156 0.59640 122 83 55
-0.24247 -0.07460 0.60835 122 83 55
-0.20279 -0.15242 0.60787 122 83 55
-0.14538 -0.20789 0.59083 122 83 55
-0.07697 -0.24173 0.59132 122 83 55
-0.00407 -0.25365 0.60482 122 83 55
0.07966 -0.24085 0.60095 122 83 55
0.14613 -0.20737 0.59852 122 83 55
0.20484 -0.14965 0.60629 122 83 55
0.24091 -0.07950 0.60230 122 83 55
0.24428 -0.00387 0.71648 122 83 55
0.23253 0.07496 0.71738 122 83 55
0.19490 0.14731 0.71779 122 83 55
0.14612 0.19580 0.72818 122 83 55
0.07775 0.23161 0.70931 122 83 55
0.00282 0.24430 0.71370 122 83 55
-0.07716 0.23181 0.72766 122 83 55
-0.14114 0.19941 0.71459 122 83 55
-0.19783 0.14336 0.70805 122 83 55
-0.23242 0.07530 0.71879 122 83 55
-0.24428 -0.00400 0.71523 122 83 55
-0.23298 -0.07355 0.71493 122 83 55
-0.20011 -0.14016 0.72410 122 83 55
-0.14348 -0.19774 0.70877 122 83 55
-0.07952 -0.23101 0.71590 122 83 55
-0.00465 -0.24427 0.70947 122 83 55
0.07292 -0.23318 0.71238 122 83 55
0.14405 -0.19733 0.72343 122 83 55
0.19480 -0.14745 0.72638 122 83 55
0.23355 -0.07172 0.72498 122 83 55
0.24231 -0.00105 0.83358 122 83 55
0.23139 0.07195 0.84919 122 83 55
0.19437 0.14470 0.83648 122 83 55
0.14213 0.19626 0.84351 122 83 55
0.07824 0.22934 0.84290 122 83 55
-0.00383 0.24229 0.84110 122 83 55
-0.07662 0.22988 0.83738 122 83 55
-0.14286 0.19572 0.85009 122 83 55
-0.19678 0.14140 0.83045 122 83 55
-0.23114 0.07273 0.83391 122 83 55
-0.24231 -0.00065 0.83157 122 83 55
-0.23090 -0.07351 0.84466 122 83 55
-0.19638 -0.14196 0.83818 122 83 55
-0.14100 -0.19707 0.84216 122 83 55
-0.07452 -0.23057 0.84429 122 83 55
0.00144 -0.24231 0.84292 122 83 55
0.07548 -0.23026 0.82835 122 83 55
0.14543 -0.19382 0.84943 122 83 55
0.19854 -0.13893 0.83654 122 83 55
0.23151 -0.07155 0.84134 122 83 55
0.24861 0.00348 0.95358 122 83 55
0.23595 0.07841 0.96154 122 83 55
0.20032 0.14728 0.96969 122 83 55
0.14794 0.19984 0.97116 122 83 55
0.07527 0.23697 0.95346 122 83 55
0.00128 0.24863 0.94890 122 83 55
-0.07791 0.23612 0.97157 122 83 55
-0.14252 0.20373 0.96649 122 83 55
-0.20360 0.14271 0.95273 122 83 55
-0.23494 0.08139 0.95286 122 83 55
-0.24861 -0.00379 0.95424 122 83 55
-0.23789 -0.07232 0.97150 122 83 55
-0.20170 -0.14539 0.96103 122 83 55
-0.14413 -0.20260 0.95615 122 83 55
-0.07466 -0.23716 0.95818 122 83 55
-0.00180 -0.24863 0.96160 122 83 55
0.07575 -0.23682 0.94915 122 83 55
0.14316 -0.20328 0.96742 122 83 55
0.19970 -0.14812 0.94822 122 83 55
0.23735 -0.07408 0.95377 122 83 55
0.26030 0.00086 1.07697 122 83 55
0.24846 0.07762 1.06975 122 83 55
0.21235 0.15055 1.08582 122 83 55
0.15497 0.20914 1.08084 122 83 55
0.08117 0.24732 1.07279 122 83 55
0.00046 0.26030 1.08333 122 83 55
-0.07731 0.24856 1.07811 122 83 55
-0.15380 0.21001 1.07997 122 83 55
-0.21132 0.15200 1.08939 122 83 55
-0.24729 0.08129 1.09210 122 83 55
-0.26026 0.00454 1.07838 122 83 55
-0.24747 -0.08071 1.07006 122 83 55
-0.21344 -0.14900 1.08657 122 83 55
-0.15477 -0.20929 1.08454 122 83 55
-0.07709 -0.24862 1.08816 122 83 55
-0.00115 -0.26030 1.06832 122 83 55
0.08420 -0.24631 1.09020 122 83 55
0.15092 -0.21209 1.08347 122 83 55
0.21175 -0.15140 1.08584 122 83 55
0.24782 -0.07964 1.07087 122 83 55
0.27181 -0.00248 1.20299 122 83 55
0.25818 0.08505 1.18991 122 83 55
0.22038 0.15913 1.20693 122 83 55
0.15644 0.22230 1.19736 122 83 55
0.07893 0.26011 1.19163 122 83 55
-0.00236 0.27182 1.19105 122 83 55
-0.08085 0.25952 1.20075 122 83 55
-0.16026 0.21956 1.19974 122 83 55
-0.22084 0.15849 1.20066 122 83 55
-0.25965 0.08043 1.20725 122 83 55
-0.27183 -0.00036 1.18886 122 83 55
-0.25913 -0.08211 1.20998 122 83 55
-0.22224 -0.15652 1.19279 122 83 55
-0.15822 -0.22103 1.20307 122 83 55
-0.08180 -0.25923 1.19984 122 83 55
-0.00496 -0.27178 1.20200 122 83 55
0.08261 -0.25897 1.19087 122 83 55
0.16205 -0.21824 1.21243 122 83 55
0.21936 -0.16054 1.20584 122 83 55
0.25799 -0.08562 1.19249 122 83 55
0.27778 -0.00137 1.32130 122 83 55
0.26349 0.08797 1.32779 122 83 55
0.22342 0.16507 1.31055 122 83 55
0.15946 0.22746 1.33095 122 83 55
0.08392 0.26481 1.30915 122 83 55
0.00333 0.27777 1.32840 122 83 55
-0.08386 0.26483 1.31379 122 83 55
-0.16570 0.22296 1.32868 122 83 55
-0.22786 0.15888 1.32475 122 83 55
-0.26546 0.08183 1.32261 122 83 55
-0.27777 0.00259 1.32764 122 83 55
-0.26536 -0.08216 1.32690 122 83 55
-0.22673 -0.16050 1.33185 122 83 55
-0.15933 -0.22755 1.32926 122 83 55
-0.08290 -0.26513 1.31916 122 83 55
-0.00095 -0.27779 1.32890 122 83 55
0.08820 -0.26341 1.31236 122 83 55
0.16430 -0.22399 1.32311 122 83 55
0.22460 -0.16347 1.32968 122 83 55
0.26454 -0.08475 1.32126 122 83 55
0.27536 -0.00378 1.44266 122 83 55
0.26201 0.08476 1.44434 122 83 55
0.21970 0.16604 1.44558 122 83 55
0.15830 0.22534 1.43411 122 83 55
0.08852 0.26077 1.44647 122 83 55
0.00048 0.27538 1.44713 122 83 55
-0.08689 0.26131 1.44570 122 83 55
-0.16503 0.22046 1.44054 122 83 55
-0.22478 0.15909 1.44924 122 83 55
-0.26304 0.08151 1.43726 122 83 55
-0.27533 -0.00530 1.45033 122 83 55
-0.26201 -0.08477 1.44493 122 83 55
-0.22569 -0.15779 1.43416 122 83 55
-0.15826 -0.22536 1.44883 122 83 55
-0.08233 -0.26279 1.44668 122 83 55
-0.00523 -0.27533 1.43549 122 83 55
0.08690 -0.26131 1.44971 122 83 55
0.16150 -0.22306 1.43497 122 83 55
0.22041 -0.16510 1.44098 122 83 55
0.26292 -0.08190 1.45074 122 83 55
0.26574 -0.00001 1.56876 122 83 55
0.25367 0.07919 1.54772 122 83 55
0.21455 0.15680 1.56214 122 83 55
0.15567 0.21537 1.56012 122 83 55
0.07846 0.25390 1.54925 122 83 55
-0.00414 0.26571 1.55683 122 83 55
-0.08023 0.25334 1.56691 122 83 55
-0.15907 0.21288 1.55868 122 83 55
-0.21463 0.15670 1.57144 122 83 55
-0.25180 0.08496 1.55777 122 83 55
-0.26571 0.00411 1.57171 122 83 55
-0.25411 -0.07776 1.55075 122 83 55
-0.21557 -0.15540 1.55168 122 83 55
-0.15458 -0.21616 1.56868 122 83 55
-0.08455 -0.25193 1.56090 122 83 55
0.00049 -0.26574 1.54778 122 83 55
0.08566 -0.25156 1.55779 122 83 55
0.15314 -0.21718 1.56645 122 83 55
0.21769 -0.15242 1.57170 122 83 55
0.25147 -0.08592 1.55512 122 83 55
0.25340 0.00063 1.67598 122 83 55
0.24193 0.07539 1.68687 122 83 55
0.20264 0.15215 1.68065 122 83 55
0.14650 0.20676 1.67299 122 83 55
0.08229 0.23967 1.67934 122 83 55
0.00084 0.25340 1.68879 122 83 55
-0.07749 0.24126 1.69161 122 83 55
-0.14540 0.20754 1.68640 122 83 55
-0.20270 0.15208 1.67287 122 83 55
-0.24060 0.07953 1.68238 122 83 55
-0.25340 -0.00126 1.67538 122 83 55
-0.24213 -0.07474 1.66924 122 83 55
-0.20682 -0.14641 1.69014 122 83 55
-0.14921 -0.20482 1.67144 122 83 55
-0.08242 -0.23962 1.68577 122 83 55
0.00356 -0.25338 1.67730 122 83 55
0.08030 -0.24034 1.69140 122 83 55
0.14965 -0.20450 1.68480 122 83 55
0.20598 -0.14760 1.67739 122 83 55
0.24128 -0.07744 1.68050 122 83 55
0.24415 -0.00265 1.78836 122 83 55
0.23204 0.07599 1.79674 122 83 55
0.19530 0.14654 1.79984 122 83 55
0.14104 0.19931 1.80907 122 83 55
0.07883 0.23109 1.79547 122 83 55
0.00061 0.24416 1.81149 122 83 55
-0.07396 0.23269 1.79360 122 83 55
-0.14370 0.19740 1.78886 122 83 55
-0.19790 0.14301 1.80779 122 83 55
-0.23247 0.07465 1.81180 122 83 55
-0.24416 -0.00103 1.81239 122 83 55
-0.23218 -0.07555 1.79065 122 83 55
-0.19655 -0.14487 1.80540 122 83 55
-0.14292 -0.19797 1.79656 122 83 55
-0.07636 -0.23192 1.79714 122 83 55
-0.00095 -0.24416 1.79359 122 83 55
0.07268 -0.23310 1.80943 122 83 55
0.14667 -0.19521 1.80751 122 83 55
0.19502 -0.14692 1.80148 122 83 55
0.23232 -0.07511 1.78766 122 83 55
0.24237 -0.00120 1.91454 122 83 55
0.23050 0.07494 1.91997 122 83 55
0.19697 0.14124 1.91888 122 83 55
0.14139 0.19686 1.91518 122 83 55
0.07870 0.22924 1.92307 122 83 55
0.00374 0.24235 1.92266 122 83 55
-0.07486 0.23052 1.91122 122 83 55
-0.14103 0.19712 1.92647 122 83 55
-0.19555 0.14320 1.93075 122 83 55
-0.23020 0.07586 1.91159 122 83 55
-0.24237 -0.00203 1.91404 122 83 55
-0.23087 -0.07378 1.92443 122 83 55
-0.19657 -0.14180 1.91384 122 83 55
-0.13922 -0.19841 1.92298 122 83 55
-0.07184 -0.23148 1.91830 122 83 55
0.00422 -0.24234 1.92331 122 83 55
0.07333 -0.23101 1.91804 122 83 55
0.14560 -0.19377 1.93027 122 83 55
0.19554 -0.14321 1.92870 122 83 55
0.23003 -0.07635 1.92149 122 83 55
0.24883 0.00454 2.04875 122 83 55
0.23554 0.08038 2.03018 122 83 55
0.20407 0.14246 2.04858 122 83 55
0.14272 0.20389 2.03829 122 83 55
0.07746 0.23651 2.03809 122 83 55
-0.00471 0.24883 2.04287 122 83 55
-0.07231 0.23814 2.04139 122 83 55
-0.14719 0.20068 2.03993 122 83 55
-0.20049 0.14745 2.03829 122 83 55
-0.23593 0.07920 2.05106 122 83 55
-0.24887 0.00121 2.04366 122 83 55
-0.23773 -0.07364 2.02947 122 83 55
-0.20385 -0.14278 2.04182 122 83 55
-0.14498 -0.20228 2.02836 122 83 55
-0.08054 -0.23548 2.02965 122 83 55
-0.00040 -0.24887 2.05083 122 83 55
0.07643 -0.23685 2.02796 122 83 55
0.14922 -0.19918 2.03153 122 83 55
0.20318 -0.14372 2.05242 122 83 55
0.23670 -0.07689 2.03192 122 83 55
0.26057 0.00401 2.16098 122 83 55
0.24639 0.08489 2.15687 122 83 55
0.21035 0.15385 2.16159 122 83 55
0.15610 0.20868 2.16679 122 83 55
0.07968 0.24812 2.16486 122 83 55
-0.00321 0.26059 2.16068 122 83 55
-0.07792 0.24868 2.14759 122 83 55
-0.15568 0.20900 2.16181 122 83 55
-0.20919 0.15542 2.14964 122 83 55
-0.24790 0.08037 2.16874 122 83 55
-0.26057 -0.00415 2.16247 122 83 55
-0.24698 -0.08317 2.17103 122 83 55
-0.20822 -0.15672 2.16423 122 83 55
-0.15459 -0.20980 2.14988 122 83 55
-0.07752 -0.24881 2.16733 122 83 55
0.00082 -0.26060 2.17044 122 83 55
0.07977 -0.24810 2.15085 122 83 55
0.15432 -0.21000 2.15360 122 83 55
0.21076 -0.15329 2.15623 122 83 55
0.24619 -0.08547 2.17145 122 83 55
0.27204 0.00273 2.27603 122 83 55
0.25827 0.08550 2.28678 122 83 55
0.22161 0.15781 2.28176 122 83 55
0.15627 0.22270 2.27331 122 83 55
0.08868 0.25719 2.28812 122 83 55
-0.00440 0.27202 2.27941 122 83 55
-0.07891 0.26036 2.28207 122 83 55
-0.16418 0.21693 2.27967 122 83 55
-0.22203 0.15721 2.27648 122 83 55
-0.25937 0.08210 2.28943 122 83 55
-0.27204 0.00265 2.28454 122 83 55
-0.25973 -0.08096 2.27918 122 83 55
-0.22124 -0.15832 2.28204 122 83 55
-0.16345 -0.21748 2.27157 122 83 55
-0.08248 -0.25925 2.28600 122 83 55
-0.00423 -0.27202 2.29013 122 83 55
0.08482 -0.25849 2.28465 122 83 55
0.15570 -0.22309 2.28531 122 83 55
0.22098 -0.15869 2.28446 122 83 55
0.25702 -0.08919 2.26917 122 83 55
0.27782 -0.00187 2.39179 122 83 55
0.26259 0.09075 2.39190 122 83 55
0.22470 0.16340 2.41245 122 83 55
0.16052 0.22676 2.40911 122 83 55
0.08470 0.26460 2.40401 122 83 55
-0.00077 0.27783 2.39040 122 83 55
-0.08878 0.26326 2.39694 122 83 55
-0.16641 0.22248 2.40076 122 83 55
-0.22424 0.16404 2.40676 122 83 55
-0.26269 0.09047 2.39280 122 83 55
-0.27781 -0.00358 2.39576 122 83 55
-0.26460 -0.08471 2.40882 122 83 55
-0.22247 -0.16643 2.38898 122 83 55
-0.16377 -0.22443 2.38824 122 83 55
-0.08185 -0.26550 2.41064 122 83 55
-0.00519 -0.27778 2.41189 122 83 55
0.08532 -0.26441 2.38807 122 83 55
0.16368 -0.22450 2.39624 122 83 55
0.22363 -0.16487 2.40179 122 83 55
0.26544 -0.08205 2.40647 122 83 55
0.27518 0.00464 2.51153 122 83 55
0.26071 0.08819 2.50901 122 83 55
0.22401 0.15990 2.52903 122 83 55
0.16217 0.22237 2.52504 122 83 55
0.08882 0.26050 2.51013 122 83 55
-0.00528 0.27517 2.52285 122 83 55
-0.08570 0.26154 2.51949 122 83 55
-0.16358 0.22133 2.51828 122 83 55
-0.22240 0.16214 2.52768 122 83 55
-0.26206 0.08409 2.50856 122 83 55
-0.27520 -0.00355 2.51189 122 83 55
-0.26206 -0.08411 2.52623 122 83 55
-0.22353 -0.16057 2.52725 122 83 55
-0.16459 -0.22058 2.52098 122 83 55
-0.08834 -0.26066 2.52740 122 83 55
0.00253 -0.27521 2.51362 122 83 55
0.08412 -0.26205 2.51912 122 83 55
0.16106 -0.22317 2.52251 122 83 55
0.21972 -0.16574 2.51697 122 83 55
0.26145 -0.08596 2.51916 122 83 55
0.26546 -0.00022 2.64015 122 83 55
0.25078 0.08704 2.64577 122 83 55
0.21616 0.15409 2.63531 122 83 55
0.15291 0.21699 2.64401 122 83 55
0.08347 0.25199 2.63477 122 83 55
0.00170 0.26545 2.64527 122 83 55
-0.08343 0.25200 2.64144 122 83 55
-0.15172 0.21782 2.62920 122 83 55
-0.21550 0.15501 2.63754 122 83 55
-0.25124 0.08572 2.63819 122 83 55
-0.26545 -0.00160 2.65073 122 83 55
-0.25091 -0.08666 2.64721 122 83 55
-0.21274 -0.15877 2.63228 122 83 55
-0.15461 -0.21578 2.63416 122 83 55
-0.08060 -0.25292 2.63855 122 83 55
0.00065 -0.26546 2.63252 122 83 55
0.07714 -0.25400 2.63770 122 83 55
0.16001 -0.21181 2.62914 122 83 55
0.21278 -0.15872 2.64550 122 83 55
0.25289 -0.08069 2.65129 122 83 55
0.25312 0.00079 2.76968 122 83 55
0.23983 0.08096 2.76339 122 83 55
0.20283 0.15143 2.75914 122 83 55
0.15184 0.20253 2.76009 122 83 55
0.07991 0.24018 2.75503 122 83 55
0.00150 0.25312 2.76846 122 83 55
-0.07449 0.24191 2.77235 122 83 55
-0.14503 0.20746 2.75366 122 83 55
-0.20757 0.14487 2.77187 122 83 55
-0.24218 0.07362 2.75323 122 83 55
-0.25308 -0.00478 2.76822 122 83 55
-0.24167 -0.07528 2.75179 122 83 55
-0.20233 -0.15210 2.76658 122 83 55
-0.14927 -0.20443 2.75405 122 83 55
-0.07966 -0.24026 2.75646 122 83 55
0.00239 -0.25311 2.75018 122 83 55
0.07565 -0.24155 2.77223 122 83 55
0.14646 -0.20645 2.74896 122 83 55
0.20301 -0.15119 2.76151 122 83 55
0.24089 -0.07773 2.76045 122 83 55
0.24400 -0.00317 2.87868 122 83 55
0.23211 0.07532 2.88589 122 83 55
0.19572 0.14575 2.88701 122 83 55
0.14399 0.19701 2.88916 122 83 55
0.07288 0.23289 2.87916 122 83 55
-0.00486 0.24398 2.87501 122 83 55
-0.07339 0.23273 2.88204 122 83 55
-0.13995 0.19990 2.88090 122 83 55
-0.19959 0.14039 2.86845 122 83 55
-0.23261 0.07375 2.87011 122 83 55
-0.24402 -0.00148 2.88376 122 83 55
-0.23102 -0.07861 2.87548 122 83 55
-0.19735 -0.14354 2.86763 122 83 55
-0.14631 -0.19530 2.88901 122 83 55
-0.07139 -0.23335 2.88669 122 83 55
0.00003 -0.24402 2.87909 122 83 55
0.07491 -0.23224 2.87537 122 83 55
0.14665 -0.19504 2.87309 122 83 55
0.19879 -0.14153 2.88858 122 83 55
0.23213 -0.07527 2.87463 122 83 55
0.24242 -0.00297 2.99579 122 83 55
0.23034 0.07563 3.01082 122 83 55
0.19817 0.13967 2.98774 122 83 55
0.14357 0.19535 2.99606 122 83 55
0.07718 0.22983 2.99287 122 83 55
-0.00134 0.24244 3.00045 122 83 55
-0.07771 0.22965 3.00706 122 83 55
-0.14320 0.19563 2.99178 122 83 55
-0.19719 0.14105 2.99648 122 83 55
-0.22976 0.07738 3.00162 122 83 55
-0.24244 0.00014 2.99447 122 83 55
-0.23009 -0.07639 3.00210 122 83 55
-0.19333 -0.14628 3.00986 122 83 55
-0.14116 -0.19711 3.00119 122 83 55
-0.07191 -0.23153 3.00006 122 83 55
0.00149 -0.24243 3.00080 122 83 55
0.07304 -0.23117 2.99382 122 83 55
0.14458 -0.19461 2.99297 122 83 55
0.19579 -0.14298 3.00468 122 83 55
0.23132 -0.07259 3.00073 122 83 55
0.24908 0.00411 3.12731 122 83 55
0.23538 0.08157 3.12169 122 83 55
0.20245 0.14515 3.12522 122 83 55
0.14606 0.20180 3.12341 122 83 55
0.08080 0.23565 3.11976 122 83 55
0.00083 0.24911 3.11587 122 83 55
-0.07867 0.23637 3.12129 122 83 55
-0.14360 0.20356 3.10782 122 83 55
-0.19989 0.14866 3.12480 122 83 55
-0.23704 0.07660 3.10983 122 83 55
-0.24910 -0.00254 3.12860 122 83 55
-0.23796 -0.07369 3.10815 122 83 55
-0.20319 -0.14413 3.13067 122 83 55
-0.14387 -0.20337 3.12981 122 83 55
-0.07790 -0.23662 3.11886 122 83 55
-0.00163 -0.24911 3.13064 122 83 55
0.07530 -0.23746 3.12710 122 83 55
0.14307 -0.20393 3.11901 122 83 55
0.20235 -0.14530 3.11119 122 83 55
0.23613 -0.07938 3.10949 122 83 55
0.26088 -0.00344 3.24886 122 83 55
0.24718 0.08350 3.25185 122 83 55
0.21018 0.15458 3.23520 122 83 55
0.15284 0.21146 3.24688 122 83 55
0.08398 0.24702 3.24573 122 83 55
-0.00506 0.26086 3.23719 122 83 55
-0.07625 0.24952 3.24550 122 83 55
-0.15143 0.21247 3.24191 122 83 55
-0.20901 0.15617 3.22917 122 83 55
-0.24710 0.08375 3.23568 122 83 55
-0.26091 -0.00087 3.23791 122 83 55
-0.24757 -0.08236 3.23378 122 83 55
-0.21088 -0.15363 3.24549 122 83 55
-0.15745 -0.20804 3.24105 122 83 55
-0.07677 -0.24936 3.24210 122 83 55
-0.00335 -0.26089 3.23390 122 83 55
0.07974 -0.24842 3.25054 122 83 55
0.15473 -0.21008 3.25067 122 83 55
0.21322 -0.15037 3.24092 122 83 55
0.24948 -0.07638 3.24714 122 83 55
0.27227 -0.00121 3.36107 122 83 55
0.26001 0.08079 3.34994 122 83 55
0.22280 0.15651 3.36619 122 83 55
0.16247 0.21849 3.35709 122 83 55
0.08480 0.25873 3.35755 122 83 55
-0.00033 0.27228 3.36095 122 83 55
-0.08785 0.25771 3.37111 122 83 55
-0.16252 0.21845 3.35041 122 83 55
-0.21810 0.16299 3.36359 122 83 55
-0.25906 0.08379 3.35502 122 83 55
-0.27224 0.00422 3.35419 122 83 55
-0.25798 -0.08706 3.35527 122 83 55
-0.22093 -0.15914 3.35197 122 83 55
-0.15966 -0.22055 3.35446 122 83 55
-0.08834 -0.25755 3.35981 122 83 55
0.00258 -0.27226 3.36875 122 83 55
0.07965 -0.26036 3.35215 122 83 55
0.16434 -0.21709 3.34828 122 83 55
0.21747 -0.16383 3.35525 122 83 55
0.25782 -0.08753 3.34846 122 83 55
0.27787 -0.00114 3.48439 122 83 55
0.26351 0.08817 3.47201 122 83 55
0.22520 0.16278 3.48439 122 83 55
0.16668 0.22233 3.46808 122 83 55
0.08673 0.26399 3.47043 122 83 55
0.00413 0.27784 3.47661 122 83 55
-0.08233 0.26539 3.47286 122 83 55
-0.16288 0.22513 3.48701 122 83 55
-0.22668 0.16071 3.47071 122 83 55
-0.26304 0.08957 3.48636 122 83 55
-0.27787 0.00012 3.48484 122 83 55
-0.26274 -0.09045 3.48413 122 83 55
-0.22190 -0.16725 3.47319 122 83 55
-0.16774 -0.22153 3.47090 122 83 55
-0.08086 -0.26585 3.48139 122 83 55
-0.00293 -0.27785 3.48058 122 83 55
0.08585 -0.26427 3.48371 122 83 55
0.16614 -0.22273 3.48127 122 83 55
0.22711 -0.16010 3.48031 122 83 55
0.26468 -0.08458 3.47656 122 83 55
0.27502 -0.00465 3.59291 122 83 55
0.25993 0.08996 3.60004 122 83 55
0.22104 0.16370 3.59264 122 83 55
0.16146 0.22269 3.60229 122 83 55
0.08683 0.26100 3.59468 122 83 55
0.00115 0.27506 3.60554 122 83 55
-0.08490 0.26163 3.61066 122 83 55
-0.16537 0.21980 3.60795 122 83 55
-0.22136 0.16328 3.60628 122 83 55
-0.26160 0.08499 3.60004 122 83 55
-0.27505 -0.00179 3.59745 122 83 55
-0.26163 -0.08489 3.59273 122 83 55
-0.22404 -0.15958 3.58989 122 83 55
-0.16534 -0.21982 3.60213 122 83 55
-0.07997 -0.26318 3.60307 122 83 55
0.00160 -0.27506 3.59791 122 83 55
0.08498 -0.26160 3.60082 122 83 55
0.16573 -0.21953 3.60305 122 83 55
0.22128 -0.16338 3.60721 122 83 55
0.26093 -0.08702 3.58904 122 83 55
0.26515 0.00337 3.71223 122 83 55
0.25250 0.08097 3.71216 122 83 55
0.21216 0.15906 3.71354 122 83 55
0.15558 0.21473 3.72714 122 83 55
0.08588 0.25088 3.71642 122 83 55
0.00042 0.26517 3.71644 122 83 55
-0.08506 0.25115 3.72045 122 83 55
-0.15975 0.21164 3.72899 122 83 55
-0.21327 0.15757 3.72771 122 83 55
-0.25052 0.08691 3.72902 122 83 55
-0.26511 -0.00527 3.71851 122 83 55
-0.25371 -0.07711 3.71647 122 83 55
-0.21379 -0.15687 3.71187 122 83 55
-0.15448 -0.21552 3.72687 122 83 55
-0.08455 -0.25133 3.71439 122 83 55
-0.00481 -0.26512 3.72999 122 83 55
0.07851 -0.25328 3.71708 122 83 55
0.15585 -0.21453 3.72742 122 83 55
0.21606 -0.15372 3.73138 122 83 55
0.25079 -0.08612 3.73093 122 83 55
0.25283 0.00284 3.83149 122 83 55
0.24024 0.07882 3.82935 122 83 55
0.20206 0.15199 3.83651 122 83 55
0.14768 0.20523 3.84320 122 83 55
0.08018 0.23979 3.84234 122 83 55
0.00252 0.25283 3.84241 122 83 55
-0.07745 0.24069 3.84412 122 83 55
-0.14475 0.20731 3.83382 122 83 55
-0.20720 0.14491 3.84663 122 83 55
-0.24007 0.07936 3.83128 122 83 55
-0.25284 -0.00195 3.84612 122 83 55
-0.23903 -0.08244 3.83258 122 83 55
-0.20559 -0.14718 3.83834 122 83 55
-0.15101 -0.20279 3.84851 122 83 55
-0.07769 -0.24061 3.84375 122 83 55
-0.00175 -0.25284 3.84077 122 83 55
0.07707 -0.24081 3.84726 122 83 55
0.14636 -0.20618 3.83154 122 83 55
0.20339 -0.15020 3.83091 122 83 55
0.24014 -0.07914 3.82895 122 83 55
0.24384 0.00474 3.95433 122 83 55
0.23135 0.07720 3.96374 122 83 55
0.19943 0.14038 3.95401 122 83 55
0.14412 0.19675 3.94881 122 83 55
0.07456 0.23221 3.95856 122 83 55
0.00405 0.24385 3.94955 122 83 55
-0.07682 0.23147 3.94851 122 83 55
-0.14076 0.19917 3.95906 122 83 55
-0.19651 0.14445 3.97052 122 83 55
-0.23121 0.07762 3.95367 122 83 55
-0.24384 0.00460 3.95184 122 83 55
-0.23204 -0.07508 3.96541 122 83 55
-0.19693 -0.14387 3.95741 122 83 55
-0.14324 -0.19739 3.95431 122 83 55
-0.07870 -0.23084 3.96806 122 83 55
-0.00309 -0.24387 3.94962 122 83 55
0.07290 -0.23274 3.96464 122 83 55
0.14279 -0.19771 3.96050 122 83 55
0.19593 -0.14523 3.95897 122 83 55
0.23142 -0.07699 3.96257 122 83 55
0.24249 -0.00293 4.08903 122 83 55
0.23066 0.07488 4.06848 122 83 55
0.19358 0.14607 4.08679 122 83 55
0.13995 0.19805 4.08142 122 83 55
0.07590 0.23033 4.07851 122 83 55
-0.00082 0.24251 4.08212 122 83 55
-0.07298 0.23127 4.08348 122 83 55
-0.13997 0.19804 4.08086 122 83 55
-0.19630 0.14239 4.08348 122 83 55
-0.22983 0.07738 4.07245 122 83 55
-0.24251 0.00094 4.07154 122 83 55
-0.22967 -0.07785 4.06834 122 83 55
-0.19359 -0.14606 4.08461 122 83 55
-0.14073 -0.19749 4.07618 122 83 55
-0.07639 -0.23016 4.08638 122 83 55
-0.00064 -0.24251 4.08349 122 83 55
0.07063 -0.23199 4.07229 122 83 55
0.14641 -0.19333 4.08338 122 83 55
0.19464 -0.14466 4.07535 122 83 55
0.23203 -0.07050 4.08644 122 83 55
0.24935 0.00136 4.20261 122 83 55
0.23769 0.07538 4.18913 122 83 55
0.20031 0.14851 4.19815 122 83 55
0.14613 0.20205 4.21037 122 83 55
0.08143 0.23569 4.20493 122 83 55
-0.00387 0.24933 4.20928 122 83 55
-0.08090 0.23587 4.20402 122 83 55
-0.14319 0.20414 4.20301 122 83 55
-0.19954 0.14954 4.19097 122 83 55
-0.23585 0.08096 4.21029 122 83 55
-0.24934 0.00299 4.21031 122 83 55
-0.23614 -0.08010 4.20721 122 83 55
-0.19924 -0.14994 4.19048 122 83 55
-0.14500 -0.20286 4.20307 122 83 55
-0.07264 -0.23854 4.20769 122 83 55
0.00144 -0.24935 4.20564 122 83 55
0.07577 -0.23757 4.18848 122 83 55
0.14911 -0.19986 4.20095 122 83 55
0.19959 -0.14948 4.19197 122 83 55
0.23614 -0.08010 4.20450 122 83 55
0.26121 -0.00013 4.31409 122 83 55
0.24785 0.08246 4.31664 122 83 55
0.21258 0.15178 4.32236 122 83 55
0.15157 0.21274 4.33129 122 83 55
0.07731 0.24951 4.33084 122 83 55
0.00320 0.26119 4.32336 122 83 55
-0.08563 0.24678 4.33142 122 83 55
-0.14956 0.21416 4.32165 122 83 55
-0.20986 0.15553 4.32863 122 83 55
-0.24807 0.08180 4.32991 122 83 55
-0.26121 0.00038 4.31148 122 83 55
-0.24747 -0.08361 4.32032 122 83 55
-0.20857 -0.15725 4.31720 122 83 55
-0.15266 -0.21195 4.31987 122 83 55
-0.08023 -0.24858 4.32768 122 83 55
-0.00450 -0.26117 4.32103 122 83 55
0.08381 -0.24740 4.32119 122 83 55
0.15356 -0.21130 4.32988 122 83 55
0.20841 -0.15746 4.30753 122 83 55
0.24828 -0.08117 4.32060 122 83 55
0.27248 -0.00283 4.45174 122 83 55
0.25763 0.08877 4.44193 122 83 55
0.22224 0.15767 4.43206 122 83 55
0.16398 0.21763 4.43701 122 83 55
0.08891 0.25758 4.42967 122 83 55
-0.00103 0.27249 4.43973 122 83 55
-0.08792 0.25792 4.42853 122 83 55
-0.15881 0.22143 4.44154 122 83 55
-0.22243 0.15741 4.43522 122 83 55
-0.25892 0.08493 4.42919 122 83 55
-0.27249 0.00130 4.43970 122 83 55
-0.25848 -0.08627 4.43004 122 83 55
-0.22024 -0.16046 4.43434 122 83 55
-0.15591 -0.22349 4.44786 122 83 55
-0.08503 -0.25889 4.44465 122 83 55
0.00440 -0.27246 4.43316 122 83 55
0.08476 -0.25898 4.43156 122 83 55
0.15954 -0.22091 4.43855 122 83 55
0.22163 -0.15854 4.43118 122 83 55
0.25871 -0.08557 4.44072 122 83 55
0.27788 0.00362 4.54940 122 83 55
0.26425 0.08605 4.56193 122 83 55
0.22732 0.15986 4.56976 122 83 55
0.16617 0.22275 4.56514 122 83 55
0.08599 0.26427 4.55939 122 83 55
0.00281 0.27789 4.54822 122 83 55
-0.08442 0.26477 4.56405 122 83 55
-0.16778 0.22154 4.56886 122 83 55
-0.22647 0.16107 4.56456 122 83 55
-0.26402 0.08674 4.56296 122 83 55
-0.27790 -0.00092 4.55299 122 83 55
-0.26367 -0.08780 4.55591 122 83 55
-0.22749 -0.15962 4.55861 122 83 55
-0.15922 -0.22777 4.56180 122 83 55
-0.08546 -0.26444 4.56440 122 83 55
0.00387 -0.27788 4.55251 122 83 55
0.08847 -0.26345 4.56155 122 83 55
0.15945 -0.22761 4.55938 122 83 55
0.22164 -0.16765 4.57027 122 83 55
0.26302 -0.08971 4.55170 122 83 55
0.27489 0.00079 4.68195 122 83 55
0.26242 0.08186 4.68730 122 83 55
0.22205 0.16205 4.66842 122 83 55
0.16298 0.22137 4.67208 122 83 55
0.08863 0.26021 4.68074 122 83 55
-0.00366 0.27487 4.69109 122 83 55
-0.08468 0.26152 4.69094 122 83 55
-0.16021 0.22338 4.68059 122 83 55
-0.22064 0.16397 4.68656 122 83 55
-0.25979 0.08987 4.69126 122 83 55
-0.27488 0.00267 4.68897 122 83 55
-0.26018 -0.08871 4.67935 122 83 55
-0.22225 -0.16178 4.68769 122 83 55
-0.15827 -0.22476 4.68350 122 83 55
-0.08821 -0.26035 4.66927 122 83 55
0.00532 -0.27484 4.68158 122 83 55
0.08739 -0.26063 4.67553 122 83 55
0.16299 -0.22136 4.67777 122 83 55
0.22136 -0.16299 4.68213 122 83 55
0.26167 -0.08423 4.67656 122 83 55
0.26483 0.00502 4.78968 122 83 55
0.25042 0.08630 4.80164 122 83 55
0.21192 0.15891 4.81104 122 83 55
0.15650 0.21370 4.80868 122 83 55
0.08242 0.25173 4.78950 122 83 55
0.00160 0.26487 4.79255 122 83 55
-0.08325 0.25145 4.78878 122 83 55
-0.15325 0.21604 4.79549 122 83 55
-0.21398 0.15611 4.80231 122 83 55
-0.25104 0.08449 4.80419 122 83 55
-0.26484 0.00457 4.79012 122 83 55
-0.25203 -0.08148 4.80991 122 83 55
-0.21286 -0.15764 4.79816 122 83 55
-0.15852 -0.21221 4.80199 122 83 55
-0.08244 -0.25172 4.80114 122 83 55
0.00490 -0.26483 4.80145 122 83 55
0.07747 -0.25329 4.79105 122 83 55
0.15285 -0.21633 4.79755 122 83 55
0.21367 -0.15654 4.78999 122 83 55
0.25132 -0.08365 4.80644 122 83 55
0.25256 -0.00233 4.91688 122 83 55
0.23915 0.08121 4.92227 122 83 55
0.20246 0.15100 4.92935 122 83 55
0.15107 0.20241 4.92244 122 83 55
0.07895 0.23991 4.91280 122 83 55
0.00305 0.25255 4.91491 122 83 55
-0.08223 0.23881 4.92033 122 83 55
-0.14652 0.20572 4.92159 122 83 55
-0.20364 0.14940 4.92324 122 83 55
-0.24019 0.07811 4.92334 122 83 55
-0.25254 -0.00402 4.91804 122 83 55
-0.24093 -0.07579 4.92813 122 83 55
-0.20230 -0.15122 4.93244 122 83 55
-0.14733 -0.20515 4.92027 122 83 55
-0.07822 -0.24015 4.90860 122 83 55
0.00010 -0.25257 4.90991 122 83 55
0.07639 -0.24074 4.92357 122 83 55
0.14914 -0.20383 4.90806 122 83 55
0.20276 -0.15059 4.91286 122 83 55
0.24009 -0.07840 4.90898 122 83 55
0.24373 0.00329 5.03941 122 83 55
0.23190 0.07509 5.03759 122 83 55
0.19493 0.14636 5.04155 122 83 55
0.14698 0.19446 5.03626 122 83 55
0.07428 0.23216 5.04457 122 83 55
-0.00097 0.24375 5.04121 122 83 55
-0.07144 0.23305 5.05208 122 83 55
-0.14460 0.19623 5.03026 122 83 55
-0.19595 0.14499 5.03929 122 83 55
-0.23082 0.07834 5.02975 122 83 55
-0.24375 0.00108 5.03183 122 83 55
-0.23230 -0.07385 5.02986 122 83 55
-0.19825 -0.14182 5.04981 122 83 55
-0.13989 -0.19962 5.02858 122 83 55
-0.07347 -0.23242 5.03312 122 83 55
-0.00253 -0.24374 5.03615 122 83 55
0.07789 -0.23097 5.04531 122 83 55
0.14326 -0.19721 5.02770 122 83 55
0.19929 -0.14036 5.03455 122 83 55
0.23137 -0.07671 5.03835 122 83 55
0.24258 -0.00099 5.15635 122 83 55
0.23024 0.07637 5.17101 122 83 55
0.19514 0.14410 5.15413 122 83 55
0.14008 0.19805 5.15377 122 83 55
0.07066 0.23206 5.16996 122 83 55
0.00183 0.24257 5.15947 122 83 55
-0.07233 0.23155 5.16380 122 83 55
-0.13971 0.19831 5.15685 122 83 55
-0.19342 0.14640 5.15124 122 83 55
-0.23034 0.07609 5.16848 122 83 55
-0.24257 0.00183 5.15558 122 83 55
-0.23179 -0.07156 5.17226 122 83 55
-0.19434 -0.14518 5.16654 122 83 55
-0.14337 -0.19568 5.15424 122 83 55
-0.07386 -0.23106 5.15926 122 83 55
0.00271 -0.24257 5.15704 122 83 55
0.07780 -0.22977 5.15816 122 83 55
0.13884 -0.19892 5.14916 122 83 55
0.19773 -0.14053 5.16174 122 83 55
0.23163 -0.07205 5.17184 122 83 55
0.24956 -0.00467 5.27070 122 83 55
0.23805 0.07506 5.27141 122 83 55
0.19966 0.14979 5.27775 122 83 55
0.14937 0.19997 5.29120 122 83 55
0.07936 0.23665 5.27889 122 83 55
-0.00159 0.24960 5.27346 122 83 55
-0.07728 0.23733 5.27233 122 83 55
-0.14440 0.20359 5.27789 122 83 55
-0.20009 0.14921 5.29204 122 83 55
-0.23585 0.08170 5.27969 122 83 55
-0.24959 -0.00235 5.28475 122 83 55
-0.23639 -0.08014 5.27130 122 83 55
-0.19905 -0.15060 5.28497 122 83 55
-0.14839 -0.20070 5.28811 122 83 55
-0.07581 -0.23781 5.27904 122 83 55
-0.00290 -0.24958 5.28995 122 83 55
0.07440 -0.23826 5.28064 122 83 55
0.14283 -0.20469 5.28609 122 83 55
0.19982 -0.14958 5.27105 122 83 55
0.23790 -0.07552 5.27301 122 83 55
