ply
format ascii 1.0
comment SIMULATED DEMO - NOT FIELD EVIDENCE
element vertex 900
property float x
property float y
property float z
property uchar red
property uchar green
property uchar blue
end_header
0.26000 -0.00122 0.00139 122 83 55
0.24628 0.08334 0.00330 122 83 55
0.21231 0.15009 -0.01071 122 83 55
0.15303 0.21019 0.00230 122 83 55
0.08520 0.24565 0.00668 122 83 55
0.00130 0.26000 -0.00329 122 83 55
-0.08178 0.24680 -0.00348 122 83 55
-0.15090 0.21173 -0.00921 122 83 55
-0.20893 0.15476 0.00741 122 83 55
-0.24570 0.08505 -0.00861 122 83 55
-0.25998 0.00353 -0.00860 122 83 55
-0.24881 -0.07544 -0.01045 122 83 55
-0.21046 -0.15267 -0.00631 122 83 55
-0.14949 -0.21272 -0.00709 122 83 55
-0.07571 -0.24873 0.00365 122 83 55
0.00237 -0.25999 -0.00629 122 83 55
0.08163 -0.24685 -0.00779 122 83 55
0.15286 -0.21032 -0.01168 122 83 55
0.21197 -0.15056 -0.00741 122 83 55
0.24795 -0.07824 -0.00428 122 83 55
0.27156 0.00434 0.13201 122 83 55
0.25820 0.08426 0.12322 122 83 55
0.22031 0.15883 0.11365 122 83 55
0.15827 0.22072 0.11944 122 83 55
0.08896 0.25662 0.12426 122 83 55
-0.00451 0.27156 0.13038 122 83 55
-0.08253 0.25875 0.12396 122 83 55
-0.15688 0.22170 0.13087 122 83 55
-0.21891 0.16075 0.13119 122 83 55
-0.25753 0.08628 0.11001 122 83 55
-0.27155 0.00480 0.12701 122 83 55
-0.25765 -0.08591 0.12530 122 83 55
-0.22263 -0.15557 0.12397 122 83 55
-0.15851 -0.22054 0.11146 122 83 55
-0.07906 -0.25983 0.13139 122 83 55
-0.00066 -0.27160 0.11620 122 83 55
0.08386 -0.25833 0.12976 122 83 55
0.15928 -0.21999 0.11657 122 83 55
0.22017 -0.15902 0.12356 122 83 55
0.25671 -0.08867 0.12550 122 83 55
0.27772 -0.00304 0.24275 122 83 55
0.26568 0.08095 0.24960 122 83 55
0.22748 0.15935 0.22969 122 83 55
0.16596 0.22270 0.25057 122 83 55
0.08957 0.26290 0.24928 122 83 55
0.00428 0.27771 0.23862 122 83 55
-0.09073 0.26250 0.24157 122 83 55
-0.16579 0.22282 0.23270 122 83 55
-0.22652 0.16071 0.24207 122 83 55
-0.26540 0.08185 0.22859 122 83 55
-0.27774 0.00083 0.23160 122 83 55
-0.26507 -0.08293 0.25210 122 83 55
-0.22587 -0.16162 0.24841 122 83 55
-0.16549 -0.22305 0.24589 122 83 55
-0.08631 -0.26399 0.23180 122 83 55
-0.00332 -0.27772 0.24959 122 83 55
0.08510 -0.26438 0.24754 122 83 55
0.16334 -0.22463 0.23949 122 83 55
0.22725 -0.15968 0.25190 122 83 55
0.26463 -0.08432 0.24971 122 83 55
0.27550 0.00472 0.35196 122 83 55
0.26312 0.08178 0.34867 122 83 55
0.22460 0.15961 0.36153 122 83 55
0.16576 0.22010 0.36047 122 83 55
0.08803 0.26110 0.35294 122 83 55
0.00250 0.27553 0.37224 122 83 55
-0.08237 0.26294 0.36142 122 83 55
-0.15945 0.22471 0.34968 122 83 55
-0.22364 0.16095 0.35496 122 83 55
-0.26315 0.08169 0.36440 122 83 55
-0.27553 0.00183 0.36868 122 83 55
-0.26033 -0.09029 0.34776 122 83 55
-0.22389 -0.16061 0.34931 122 83 55
-0.15956 -0.22463 0.35716 122 83 55
-0.08073 -0.26345 0.36616 122 83 55
0.00231 -0.27553 0.35222 122 83 55
0.08576 -0.26185 0.35172 122 83 55
0.15795 -0.22577 0.35922 122 83 55
0.22212 -0.16305 0.36584 122 83 55
0.26270 -0.08311 0.35860 122 83 55
0.26599 0.00471 0.47901 122 83 55
0.25405 0.07894 0.48157 122 83 55
0.21236 0.16023 0.48631 122 83 55
0.15940 0.21299 0.46805 122 83 55
0.08414 0.25237 0.48990 122 83 55
-0.00474 0.26599 0.48951 122 83 55
-0.08159 0.25321 0.46931 122 83 55
-0.15504 0.21618 0.47141 122 83 55
-0.21773 0.15285 0.48977 122 83 55
-0.25328 0.08137 0.48133 122 83 55
-0.26602 -0.00184 0.48532 122 83 55
-0.25409 -0.07879 0.48493 122 83 55
-0.21475 -0.15701 0.47457 122 83 55
-0.15936 -0.21302 0.46848 122 83 55
-0.07879 -0.25409 0.47822 122 83 55
0.00399 -0.26600 0.48745 122 83 55
0.08437 -0.25230 0.48875 122 83 55
0.15441 -0.21664 0.48239 122 83 55
0.21572 -0.15568 0.47399 122 83 55
0.25237 -0.08416 0.48425 122 83 55
0.25364 -0.00457 0.59726 122 83 55
0.24226 0.07528 0.60773 122 83 55
0.20252 0.15278 0.60353 122 83 55
0.15096 0.20388 0.59737 122 83 55
0.08100 0.24041 0.59662 122 83 55
0.00452 0.25365 0.59237 122 83 55
-0.07487 0.24239 0.58948 122 83 55
-0.14784 0.20615 0.60756 122 83 55
-0.20355 0.15140 0.59005 122 83 55
-0.24193 0.07632 0.60880 122 83 55
-0.25364 0.00481 0.59714 122 83 55
-0.23994 -0.08238 0.59778 122 83 55
-0.20513 -0.14926 0.60162 122 83 55
-0.14853 -0.20566 0.59214 122 83 55
-0.07763 -0.24152 0.59944 122 83 55
0.00085 -0.25368 0.59819 122 83 55
0.07528 -0.24226 0.60458 122 83 55
0.15266 -0.20261 0.60474 122 83 55
0.20222 -0.15318 0.60595 122 83 55
0.24238 -0.07488 0.60782 122 83 55
0.24431 0.00149 0.71360 122 83 55
0.23202 0.07651 0.72732 122 83 55
0.19625 0.14551 0.73101 122 83 55
0.14615 0.19578 0.71773 122 83 55
0.07608 0.23216 0.71619 122 83 55
-0.00308 0.24429 0.72666 122 83 55
-0.07368 0.23294 0.72587 122 83 55
-0.14113 0.19942 0.71072 122 83 55
-0.19786 0.14331 0.71811 122 83 55
-0.23209 0.07629 0.72490 122 83 55
-0.24429 -0.00352 0.72492 122 83 55
-0.23254 -0.07492 0.71267 122 83 55
-0.19626 -0.14550 0.72791 122 83 55
-0.14401 -0.19736 0.72033 122 83 55
-0.07382 -0.23289 0.73096 122 83 55
-0.00215 -0.24430 0.72036 122 83 55
0.07743 -0.23172 0.73045 122 83 55
0.13963 -0.20048 0.70981 122 83 55
0.19698 -0.14453 0.71455 122 83 55
0.23129 -0.07869 0.73093 122 83 55
0.24229 0.00364 0.84956 122 83 55
0.23089 0.07352 0.83770 122 83 55
0.19322 0.14623 0.85242 122 83 55
0.14513 0.19405 0.84783 122 83 55
0.07802 0.22941 0.84972 122 83 55
0.00030 0.24232 0.84641 122 83 55
-0.07753 0.22958 0.82996 122 83 55
-0.14559 0.19370 0.83840 122 83 55
-0.19596 0.14254 0.85181 122 83 55
-0.23129 0.07225 0.82847 122 83 55
-0.24227 0.00458 0.83271 122 83 55
-0.22963 -0.07737 0.84298 122 83 55
-0.19809 -0.13957 0.83792 122 83 55
-0.14390 -0.19496 0.83014 122 83 55
-0.07583 -0.23015 0.85199 122 83 55
-0.00136 -0.24231 0.83555 122 83 55
0.07843 -0.22927 0.84524 122 83 55
0.13891 -0.19855 0.83167 122 83 55
0.19514 -0.14366 0.82957 122 83 55
0.22999 -0.07631 0.83601 122 83 55
0.24859 0.00469 0.94897 122 83 55
0.23574 0.07903 0.95403 122 83 55
0.20299 0.14357 0.96633 122 83 55
0.14532 0.20175 0.94896 122 83 55
0.07334 0.23757 0.95938 122 83 55
-0.00332 0.24862 0.96723 122 83 55
-0.07245 0.23785 0.97011 122 83 55
-0.14741 0.20023 0.95404 122 83 55
-0.20333 0.14310 0.95780 122 83 55
-0.23782 0.07253 0.95026 122 83 55
-0.24864 -0.00081 0.96752 122 83 55
-0.23664 -0.07629 0.94788 122 83 55
-0.20102 -0.14633 0.97181 122 83 55
-0.14636 -0.20100 0.95250 122 83 55
-0.07599 -0.23674 0.95486 122 83 55
-0.00128 -0.24863 0.96260 122 83 55
0.07937 -0.23563 0.96440 122 83 55
0.14640 -0.20097 0.95676 122 83 55
0.20005 -0.14766 0.96309 122 83 55
0.23715 -0.07471 0.96082 122 83 55
0.26026 -0.00476 1.08721 122 83 55
0.24815 0.07860 1.06885 122 83 55
0.20962 0.15432 1.08684 122 83 55
0.15434 0.20961 1.08230 122 83 55
0.08464 0.24616 1.07288 122 83 55
-0.00172 0.26030 1.08373 122 83 55
-0.07728 0.24857 1.07756 122 83 55
-0.15417 0.20974 1.09209 122 83 55
-0.21085 0.15264 1.09139 122 83 55
-0.24911 0.07551 1.07822 122 83 55
-0.26027 -0.00416 1.07561 122 83 55
-0.24616 -0.08464 1.08030 122 83 55
-0.21031 -0.15339 1.07054 122 83 55
-0.15287 -0.21069 1.08025 122 83 55
-0.07645 -0.24882 1.08155 122 83 55
-0.00478 -0.26026 1.08836 122 83 55
0.08408 -0.24635 1.08041 122 83 55
0.15530 -0.20890 1.08969 122 83 55
0.21232 -0.15059 1.09135 122 83 55
0.24691 -0.08241 1.08692 122 83 55
0.27179 -0.00462 1.20695 122 83 55
0.25848 0.08413 1.20078 122 83 55
0.21733 0.16327 1.19581 122 83 55
0.15750 0.22155 1.20525 122 83 55
0.08495 0.25821 1.18960 122 83 55
-0.00361 0.27180 1.20104 122 83 55
-0.08299 0.25885 1.19390 122 83 55
-0.16218 0.21815 1.21221 122 83 55
-0.21992 0.15976 1.19798 122 83 55
-0.25908 0.08225 1.19679 122 83 55
-0.27180 0.00402 1.19529 122 83 55
-0.25713 -0.08816 1.19884 122 83 55
-0.21728 -0.16334 1.19763 122 83 55
-0.15899 -0.22048 1.19028 122 83 55
-0.08631 -0.25776 1.21185 122 83 55
-0.00442 -0.27179 1.21245 122 83 55
0.08328 -0.25875 1.20485 122 83 55
0.16320 -0.21738 1.20827 122 83 55
0.22237 -0.15633 1.18823 122 83 55
0.25746 -0.08719 1.19230 122 83 55
0.27778 -0.00243 1.33058 122 83 55
0.26579 0.08077 1.33227 122 83 55
0.22683 0.16036 1.32157 122 83 55
0.16090 0.22645 1.33181 122 83 55
0.09070 0.26256 1.31327 122 83 55
0.00224 0.27778 1.33032 122 83 55
-0.08718 0.26375 1.32017 122 83 55
-0.16095 0.22641 1.31740 122 83 55
-0.22425 0.16395 1.31600 122 83 55
-0.26574 0.08093 1.31526 122 83 55
-0.27774 -0.00484 1.32631 122 83 55
-0.26468 -0.08431 1.31882 122 83 55
-0.22213 -0.16680 1.31242 122 83 55
-0.16305 -0.22490 1.32969 122 83 55
-0.08312 -0.26506 1.32807 122 83 55
0.00448 -0.27775 1.33109 122 83 55
0.08085 -0.26576 1.31197 122 83 55
0.16267 -0.22518 1.33241 122 83 55
0.22313 -0.16547 1.31023 122 83 55
0.26527 -0.08246 1.31799 122 83 55
0.27537 0.00288 1.44903 122 83 55
0.26342 0.08030 1.43639 122 83 55
0.22295 0.16164 1.44430 122 83 55
0.16133 0.22318 1.43208 122 83 55
0.08625 0.26153 1.43618 122 83 55
-0.00472 0.27534 1.44841 122 83 55
-0.08534 0.26183 1.44248 122 83 55
-0.16452 0.22084 1.43635 122 83 55
-0.22228 0.16256 1.43150 122 83 55
-0.26179 0.08545 1.43519 122 83 55
-0.27538 -0.00071 1.45080 122 83 55
-0.26210 -0.08449 1.45237 122 83 55
-0.22457 -0.15938 1.44496 122 83 55
-0.15954 -0.22446 1.44104 122 83 55
-0.08380 -0.26232 1.43126 122 83 55
0.00488 -0.27534 1.43502 122 83 55
0.08488 -0.26198 1.43387 122 83 55
0.16512 -0.22038 1.43222 122 83 55
0.22091 -0.16442 1.43306 122 83 55
0.26337 -0.08044 1.44882 122 83 55
0.26574 -0.00028 1.56236 122 83 55
0.25324 0.08054 1.56769 122 83 55
0.21341 0.15835 1.55287 122 83 55
0.15862 0.21321 1.57076 122 83 55
0.08540 0.25165 1.54996 122 83 55
0.00434 0.26571 1.57154 122 83 55
-0.08538 0.25166 1.55920 122 83 55
-0.15988 0.21227 1.56975 122 83 55
-0.21268 0.15933 1.55922 122 83 55
-0.25283 0.08183 1.55694 122 83 55
-0.26573 0.00296 1.55579 122 83 55
-0.25365 -0.07925 1.56256 122 83 55
-0.21684 -0.15362 1.57240 122 83 55
-0.15991 -0.21224 1.55166 122 83 55
-0.07880 -0.25379 1.55908 122 83 55
-0.00472 -0.26570 1.57144 122 83 55
0.07756 -0.25417 1.55723 122 83 55
0.15961 -0.21247 1.55015 122 83 55
0.21365 -0.15804 1.56474 122 83 55
0.25267 -0.08234 1.55816 122 83 55
0.25340 0.00014 1.67170 122 83 55
0.24219 0.07455 1.69216 122 83 55
0.20501 0.14895 1.67829 122 83 55
0.15245 0.20242 1.68475 122 83 55
0.07600 0.24174 1.68296 122 83 55
0.00414 0.25337 1.66799 122 83 55
-0.08255 0.23958 1.68474 122 83 55
-0.15137 0.20322 1.67566 122 83 55
-0.20286 0.15185 1.67528 122 83 55
-0.24023 0.08063 1.67520 122 83 55
-0.25339 -0.00269 1.68228 122 83 55
-0.24211 -0.07480 1.68164 122 83 55
-0.20680 -0.14646 1.67199 122 83 55
-0.15214 -0.20265 1.67701 122 83 55
-0.07594 -0.24176 1.68014 122 83 55
0.00032 -0.25340 1.67005 122 83 55
0.07354 -0.24250 1.67160 122 83 55
0.14943 -0.20465 1.68712 122 83 55
0.20208 -0.15289 1.68537 122 83 55
0.23985 -0.08175 1.69177 122 83 55
0.24416 0.00212 1.79790 122 83 55
0.23183 0.07663 1.80622 122 83 55
0.19680 0.14452 1.80377 122 83 55
0.14016 0.19993 1.79977 122 83 55
0.07337 0.23288 1.78916 122 83 55
0.00101 0.24416 1.80998 122 83 55
-0.07935 0.23091 1.80484 122 83 55
-0.13959 0.20033 1.79404 122 83 55
-0.19866 0.14196 1.80138 122 83 55
-0.23166 0.07715 1.78863 122 83 55
-0.24416 -0.00197 1.80088 122 83 55
-0.23251 -0.07454 1.79330 122 83 55
-0.19798 -0.14291 1.80059 122 83 55
-0.14113 -0.19925 1.78813 122 83 55
-0.07785 -0.23142 1.79000 122 83 55
-0.00486 -0.24412 1.80813 122 83 55
0.07501 -0.23236 1.79427 122 83 55
0.14070 -0.19955 1.80282 122 83 55
0.19509 -0.14682 1.78832 122 83 55
0.23341 -0.07166 1.79071 122 83 55
0.24237 0.00060 1.92672 122 83 55
0.22973 0.07728 1.91976 122 83 55
0.19527 0.14358 1.92620 122 83 55
0.14589 0.19355 1.91112 122 83 55
0.07920 0.22907 1.91363 122 83 55
-0.00191 0.24237 1.91450 122 83 55
-0.07656 0.22997 1.90852 122 83 55
-0.14005 0.19782 1.91020 122 83 55
-0.19741 0.14063 1.91560 122 83 55
-0.23059 0.07465 1.92351 122 83 55
-0.24237 -0.00004 1.91399 122 83 55
-0.23172 -0.07109 1.92900 122 83 55
-0.19874 -0.13874 1.92581 122 83 55
-0.14260 -0.19599 1.91810 122 83 55
-0.07906 -0.22912 1.90859 122 83 55
-0.00344 -0.24235 1.91471 122 83 55
0.07473 -0.23057 1.92164 122 83 55
0.14596 -0.19350 1.92996 122 83 55
0.19741 -0.14062 1.92307 122 83 55
0.22983 -0.07697 1.92826 122 83 55
0.24887 -0.00110 2.03050 122 83 55
0.23745 0.07454 2.02826 122 83 55
0.20332 0.14352 2.04440 122 83 55
0.14957 0.19891 2.02843 122 83 55
0.08055 0.23548 2.03458 122 83 55
-0.00258 0.24886 2.04826 122 83 55
-0.07768 0.23644 2.04644 122 83 55
-0.14559 0.20185 2.03246 122 83 55
-0.19978 0.14841 2.03979 122 83 55
-0.23608 0.07877 2.04650 122 83 55
-0.24886 0.00262 2.03457 122 83 55
-0.23787 -0.07318 2.02839 122 83 55
-0.20128 -0.14638 2.03363 122 83 55
-0.14303 -0.20367 2.03264 122 83 55
-0.07738 -0.23654 2.02941 122 83 55
-0.00295 -0.24886 2.03876 122 83 55
0.07843 -0.23619 2.03225 122 83 55
0.14873 -0.19954 2.02769 122 83 55
0.20174 -0.14574 2.03961 122 83 55
0.23623 -0.07833 2.03603 122 83 55
0.26056 0.00462 2.16649 122 83 55
0.24672 0.08393 2.14900 122 83 55
0.20956 0.15492 2.14870 122 83 55
0.15258 0.21127 2.15949 122 83 55
0.07991 0.24805 2.15699 122 83 55
0.00417 0.26057 2.17164 122 83 55
-0.07861 0.24847 2.16597 122 83 55
-0.15186 0.21179 2.15874 122 83 55
-0.21314 0.14996 2.15341 122 83 55
-0.24905 0.07674 2.16648 122 83 55
-0.26061 0.00000 2.16647 122 83 55
-0.24627 -0.08525 2.16375 122 83 55
-0.21121 -0.15267 2.16269 122 83 55
-0.15722 -0.20784 2.16470 122 83 55
-0.08258 -0.24718 2.17004 122 83 55
-0.00196 -0.26060 2.15646 122 83 55
0.08353 -0.24685 2.16630 122 83 55
0.15283 -0.21109 2.14899 122 83 55
0.21123 -0.15263 2.15940 122 83 55
0.24859 -0.07823 2.16894 122 83 55
0.27203 -0.00318 2.27670 122 83 55
0.25975 0.08089 2.27125 122 83 55
0.21773 0.16312 2.28730 122 83 55
0.16007 0.21997 2.28318 122 83 55
0.08901 0.25708 2.28272 122 83 55
0.00025 0.27205 2.27182 122 83 55
-0.07934 0.26023 2.27275 122 83 55
-0.15819 0.22133 2.28232 122 83 55
-0.21698 0.16410 2.28410 122 83 55
-0.25831 0.08538 2.27534 122 83 55
-0.27205 -0.00188 2.28631 122 83 55
-0.25909 -0.08298 2.27856 122 83 55
-0.22023 -0.15972 2.29002 122 83 55
-0.15896 -0.22078 2.28815 122 83 55
-0.08620 -0.25804 2.27442 122 83 55
0.00156 -0.27205 2.26757 122 83 55
0.07959 -0.26015 2.28174 122 83 55
0.16195 -0.21860 2.27220 122 83 55
0.21997 -0.16008 2.27282 122 83 55
0.25780 -0.08690 2.28447 122 83 55
0.27783 0.00079 2.38932 122 83 55
0.26386 0.08698 2.39564 122 83 55
0.22346 0.16509 2.40902 122 83 55
0.16352 0.22461 2.41139 122 83 55
0.08687 0.26390 2.40731 122 83 55
0.00350 0.27781 2.40983 122 83 55
-0.09107 0.26248 2.39382 122 83 55
-0.15960 0.22741 2.41156 122 83 55
-0.22772 0.15917 2.39964 122 83 55
-0.26466 0.08454 2.40301 122 83 55
-0.27783 0.00016 2.40192 122 83 55
-0.26377 -0.08726 2.39002 122 83 55
-0.22316 -0.16550 2.39343 122 83 55
-0.16154 -0.22604 2.40552 122 83 55
-0.08409 -0.26480 2.39157 122 83 55
-0.00155 -0.27783 2.40581 122 83 55
0.08447 -0.26468 2.41195 122 83 55
0.16347 -0.22465 2.39656 122 83 55
0.22498 -0.16302 2.38831 122 83 55
0.26373 -0.08738 2.41081 122 83 55
0.27521 -0.00228 2.52166 122 83 55
0.26143 0.08604 2.51249 122 83 55
0.22262 0.16182 2.50773 122 83 55
0.15752 0.22569 2.51509 122 83 55
0.08579 0.26151 2.51821 122 83 55
0.00365 0.27520 2.53176 122 83 55
-0.08173 0.26281 2.51731 122 83 55
-0.16272 0.22197 2.52881 122 83 55
-0.22293 0.16140 2.52661 122 83 55
-0.26304 0.08098 2.51136 122 83 55
-0.27519 -0.00434 2.51235 122 83 55
-0.26089 -0.08765 2.53075 122 83 55
-0.22293 -0.16140 2.51542 122 83 55
-0.15922 -0.22450 2.52482 122 83 55
-0.08960 -0.26023 2.53094 122 83 55
-0.00125 -0.27522 2.51331 122 83 55
0.08078 -0.26310 2.52499 122 83 55
0.16240 -0.22220 2.52680 122 83 55
0.22202 -0.16266 2.50797 122 83 55
0.26241 -0.08300 2.52915 122 83 55
0.26545 -0.00223 2.63475 122 83 55
0.25334 0.07929 2.64423 122 83 55
0.21232 0.15934 2.64327 122 83 55
0.15991 0.21189 2.63938 122 83 55
0.08236 0.25236 2.64464 122 83 55
-0.00468 0.26541 2.64403 122 83 55
-0.08292 0.25217 2.63371 122 83 55
-0.15456 0.21582 2.63825 122 83 55
-0.21213 0.15958 2.64552 122 83 55
-0.25184 0.08392 2.65234 122 83 55
-0.26544 0.00245 2.64445 122 83 55
-0.25216 -0.08296 2.62950 122 83 55
-0.21214 -0.15957 2.62866 122 83 55
-0.15248 -0.21729 2.65039 122 83 55
-0.07869 -0.25353 2.64425 122 83 55
0.00513 -0.26541 2.62916 122 83 55
0.07835 -0.25363 2.63433 122 83 55
0.15278 -0.21709 2.64689 122 83 55
0.21504 -0.15564 2.62976 122 83 55
0.25081 -0.08695 2.64504 122 83 55
0.25311 -0.00272 2.76440 122 83 55
0.24130 0.07647 2.75196 122 83 55
0.20700 0.14568 2.76398 122 83 55
0.15187 0.20250 2.75767 122 83 55
0.07634 0.24134 2.75907 122 83 55
0.00173 0.25312 2.75264 122 83 55
-0.07895 0.24050 2.75369 122 83 55
-0.14938 0.20435 2.75289 122 83 55
-0.20519 0.14822 2.76257 122 83 55
-0.23991 0.08071 2.76503 122 83 55
-0.25309 -0.00403 2.76601 122 83 55
-0.24027 -0.07962 2.75589 122 83 55
-0.20317 -0.15098 2.75301 122 83 55
-0.14881 -0.20476 2.76285 122 83 55
-0.07761 -0.24093 2.75899 122 83 55
-0.00360 -0.25310 2.76698 122 83 55
0.07578 -0.24151 2.76127 122 83 55
0.14721 -0.20591 2.75773 122 83 55
0.20673 -0.14606 2.75126 122 83 55
0.23984 -0.08091 2.74875 122 83 55
0.24399 0.00433 2.87888 122 83 55
0.23239 0.07444 2.88091 122 83 55
0.19532 0.14629 2.88075 122 83 55
0.14339 0.19745 2.88988 122 83 55
0.07476 0.23229 2.88010 122 83 55
0.00473 0.24398 2.89159 122 83 55
-0.07688 0.23160 2.87750 122 83 55
-0.14397 0.19703 2.87055 122 83 55
-0.19563 0.14586 2.88289 122 83 55
-0.23154 0.07706 2.88686 122 83 55
-0.24401 -0.00290 2.87545 122 83 55
-0.23159 -0.07690 2.87931 122 83 55
-0.19666 -0.14447 2.87416 122 83 55
-0.14712 -0.19469 2.88807 122 83 55
-0.07082 -0.23352 2.88841 122 83 55
0.00293 -0.24401 2.88160 122 83 55
0.07712 -0.23152 2.87382 122 83 55
0.14263 -0.19800 2.87896 122 83 55
0.19722 -0.14371 2.87500 122 83 55
0.23100 -0.07866 2.88976 122 83 55
0.24241 -0.00352 2.98816 122 83 55
0.23053 0.07505 2.99514 122 83 55
0.19826 0.13954 2.99269 122 83 55
0.14082 0.19735 3.00970 122 83 55
0.07391 0.23090 3.00208 122 83 55
-0.00388 0.24241 2.99029 122 83 55
-0.07545 0.23040 2.99087 122 83 55
-0.14138 0.19695 2.98902 122 83 55
-0.19445 0.14480 3.01048 122 83 55
-0.23036 0.07557 3.00385 122 83 55
-0.24242 -0.00335 2.99305 122 83 55
-0.23170 -0.07136 2.99176 122 83 55
-0.19338 -0.14622 2.98874 122 83 55
-0.14208 -0.19645 3.00526 122 83 55
-0.07796 -0.22956 2.99307 122 83 55
0.00325 -0.24242 2.99972 122 83 55
0.07207 -0.23148 3.00219 122 83 55
0.14523 -0.19413 2.98986 122 83 55
0.19473 -0.14442 2.99035 122 83 55
0.22942 -0.07837 2.99031 122 83 55
0.24911 -0.00066 3.12967 122 83 55
0.23578 0.08040 3.12620 122 83 55
0.20090 0.14730 3.11427 122 83 55
0.14557 0.20216 3.11596 122 83 55
0.07705 0.23690 3.12617 122 83 55
0.00221 0.24910 3.13005 122 83 55
-0.07771 0.23668 3.11258 122 83 55
-0.14638 0.20157 3.11013 122 83 55
-0.19905 0.14979 3.12452 122 83 55
-0.23663 0.07788 3.11491 122 83 55
-0.24910 0.00284 3.12884 122 83 55
-0.23699 -0.07678 3.11982 122 83 55
-0.20235 -0.14529 3.12613 122 83 55
-0.14271 -0.20418 3.11906 122 83 55
-0.07253 -0.23832 3.11899 122 83 55
0.00418 -0.24908 3.11474 122 83 55
0.07487 -0.23760 3.13083 122 83 55
0.14370 -0.20349 3.10924 122 83 55
0.19956 -0.14910 3.13193 122 83 55
0.23649 -0.07830 3.12293 122 83 55
0.26090 0.00226 3.23069 122 83 55
0.24915 0.07745 3.23583 122 83 55
0.21211 0.15193 3.22914 122 83 55
0.15463 0.21015 3.24302 122 83 55
0.08101 0.24801 3.24305 122 83 55
-0.00338 0.26089 3.23964 122 83 55
-0.07859 0.24879 3.24349 122 83 55
-0.15395 0.21065 3.23303 122 83 55
-0.21391 0.14938 3.23244 122 83 55
-0.24848 0.07957 3.23521 122 83 55
-0.26088 0.00385 3.25192 122 83 55
-0.24878 -0.07861 3.25073 122 83 55
-0.20825 -0.15718 3.24668 122 83 55
-0.15678 -0.20855 3.24573 122 83 55
-0.07665 -0.24939 3.23738 122 83 55
-0.00366 -0.26088 3.24556 122 83 55
0.08369 -0.24712 3.24200 122 83 55
0.15392 -0.21067 3.23948 122 83 55
0.20924 -0.15586 3.23967 122 83 55
0.24703 -0.08396 3.25212 122 83 55
0.27226 0.00311 3.37225 122 83 55
0.26055 0.07904 3.36784 122 83 55
0.21992 0.16053 3.37043 122 83 55
0.16287 0.21819 3.36020 122 83 55
0.08883 0.25738 3.36709 122 83 55
0.00122 0.27227 3.35492 122 83 55
-0.08482 0.25873 3.36719 122 83 55
-0.16034 0.22006 3.36142 122 83 55
-0.22020 0.16014 3.34941 122 83 55
-0.25813 0.08661 3.36362 122 83 55
-0.27223 -0.00469 3.36145 122 83 55
-0.26032 -0.07979 3.37241 122 83 55
-0.22091 -0.15917 3.36659 122 83 55
-0.15832 -0.22152 3.36340 122 83 55
-0.08683 -0.25806 3.36084 122 83 55
0.00003 -0.27228 3.35950 122 83 55
0.08853 -0.25748 3.36102 122 83 55
0.15996 -0.22033 3.34954 122 83 55
0.22089 -0.15920 3.37035 122 83 55
0.26042 -0.07948 3.36506 122 83 55
0.27786 -0.00189 3.47958 122 83 55
0.26348 0.08827 3.48893 122 83 55
0.22771 0.15924 3.47761 122 83 55
0.15896 0.22791 3.48535 122 83 55
0.09011 0.26285 3.47219 122 83 55
-0.00125 0.27787 3.46750 122 83 55
-0.08942 0.26309 3.47720 122 83 55
-0.16639 0.22255 3.47492 122 83 55
-0.22693 0.16035 3.47944 122 83 55
-0.26479 0.08426 3.48918 122 83 55
-0.27787 0.00063 3.48412 122 83 55
-0.26589 -0.08069 3.47766 122 83 55
-0.22180 -0.16738 3.48432 122 83 55
-0.16669 -0.22232 3.47639 122 83 55
-0.08620 -0.26416 3.48623 122 83 55
-0.00435 -0.27784 3.48427 122 83 55
0.08327 -0.26510 3.47790 122 83 55
0.16667 -0.22234 3.47212 122 83 55
0.22353 -0.16506 3.48577 122 83 55
0.26278 -0.09034 3.49142 122 83 55
0.27504 -0.00321 3.58921 122 83 55
0.26188 0.08412 3.59361 122 83 55
0.22158 0.16297 3.60497 122 83 55
0.15993 0.22379 3.61242 122 83 55
0.08885 0.26032 3.60408 122 83 55
0.00164 0.27505 3.58752 122 83 55
-0.08781 0.26067 3.60572 122 83 55
-0.16089 0.22310 3.58945 122 83 55
-0.22023 0.16479 3.59810 122 83 55
-0.26017 0.08926 3.61170 122 83 55
-0.27505 -0.00196 3.59827 122 83 55
-0.26173 -0.08459 3.60733 122 83 55
-0.21949 -0.16577 3.60859 122 83 55
-0.15804 -0.22512 3.59353 122 83 55
-0.08999 -0.25992 3.58902 122 83 55
-0.00193 -0.27505 3.60895 122 83 55
0.08447 -0.26177 3.59570 122 83 55
0.15963 -0.22400 3.58983 122 83 55
0.22471 -0.15863 3.59237 122 83 55
0.26155 -0.08515 3.61213 122 83 55
0.26512 -0.00478 3.71754 122 83 55
0.25207 0.08231 3.72326 122 83 55
0.21684 0.15263 3.73162 122 83 55
0.15585 0.21453 3.72812 122 83 55
0.07700 0.25374 3.71932 122 83 55
-0.00432 0.26513 3.72041 122 83 55
-0.07876 0.25320 3.72897 122 83 55
-0.15489 0.21523 3.73167 122 83 55
-0.21325 0.15760 3.71167 122 83 55
-0.25294 0.07961 3.72632 122 83 55
-0.26514 -0.00348 3.70948 122 83 55
-0.25278 -0.08010 3.70764 122 83 55
-0.21357 -0.15717 3.71288 122 83 55
-0.15926 -0.21202 3.72066 122 83 55
-0.08339 -0.25171 3.71927 122 83 55
0.00140 -0.26516 3.72415 122 83 55
0.07718 -0.25369 3.73035 122 83 55
0.15825 -0.21277 3.71040 122 83 55
0.21373 -0.15696 3.70759 122 83 55
0.25104 -0.08539 3.73232 122 83 55
0.25282 -0.00346 3.83099 122 83 55
0.24074 0.07729 3.84911 122 83 55
0.20515 0.14780 3.84807 122 83 55
0.14577 0.20659 3.84259 122 83 55
0.07521 0.24140 3.85070 122 83 55
0.00421 0.25281 3.83280 122 83 55
-0.07633 0.24105 3.84904 122 83 55
-0.15042 0.20324 3.82758 122 83 55
-0.20663 0.14571 3.84300 122 83 55
-0.23940 0.08135 3.84726 122 83 55
-0.25284 -0.00081 3.82781 122 83 55
-0.24159 -0.07459 3.85149 122 83 55
-0.20622 -0.14630 3.84159 122 83 55
-0.14880 -0.20442 3.84205 122 83 55
-0.07983 -0.23991 3.84912 122 83 55
-0.00165 -0.25284 3.85109 122 83 55
0.07854 -0.24034 3.83709 122 83 55
0.15085 -0.20292 3.83103 122 83 55
0.20268 -0.15116 3.82761 122 83 55
0.24008 -0.07932 3.84329 122 83 55
0.24388 0.00225 3.96775 122 83 55
0.23186 0.07563 3.96941 122 83 55
0.20004 0.13951 3.96934 122 83 55
0.14509 0.19603 3.95926 122 83 55
0.07733 0.23130 3.94931 122 83 55
0.00446 0.24385 3.95742 122 83 55
-0.07401 0.23239 3.95238 122 83 55
-0.14386 0.19694 3.95504 122 83 55
-0.19712 0.14361 3.96882 122 83 55
-0.23301 0.07203 3.97049 122 83 55
-0.24387 -0.00241 3.97150 122 83 55
-0.23320 -0.07139 3.94885 122 83 55
-0.19884 -0.14123 3.96765 122 83 55
-0.14345 -0.19724 3.96603 122 83 55
-0.07196 -0.23303 3.97186 122 83 55
-0.00396 -0.24385 3.95986 122 83 55
0.07102 -0.23332 3.96341 122 83 55
0.14299 -0.19757 3.96675 122 83 55
0.19693 -0.14388 3.97179 122 83 55
0.23288 -0.07244 3.94853 122 83 55
0.24251 -0.00098 4.08609 122 83 55
0.23020 0.07628 4.07059 122 83 55
0.19346 0.14623 4.07467 122 83 55
0.14579 0.19379 4.08358 122 83 55
0.07650 0.23013 4.07814 122 83 55
-0.00464 0.24246 4.08713 122 83 55
-0.07368 0.23104 4.06979 122 83 55
-0.14237 0.19632 4.08543 122 83 55
-0.19630 0.14240 4.08369 122 83 55
-0.23028 0.07603 4.07561 122 83 55
-0.24249 0.00285 4.07238 122 83 55
-0.23006 -0.07670 4.07127 122 83 55
-0.19695 -0.14149 4.07677 122 83 55
-0.14580 -0.19378 4.08455 122 83 55
-0.07944 -0.22913 4.07758 122 83 55
-0.00262 -0.24249 4.07668 122 83 55
0.07798 -0.22963 4.07863 122 83 55
0.14027 -0.19783 4.06785 122 83 55
0.19438 -0.14500 4.07859 122 83 55
0.23040 -0.07566 4.07879 122 83 55
0.24932 -0.00432 4.18916 122 83 55
0.23646 0.07914 4.20251 122 83 55
0.19969 0.14934 4.19879 122 83 55
0.14461 0.20314 4.19602 122 83 55
0.07326 0.23835 4.20728 122 83 55
-0.00106 0.24935 4.20793 122 83 55
-0.07642 0.23736 4.18798 122 83 55
-0.14610 0.20207 4.18938 122 83 55
-0.19930 0.14986 4.19044 122 83 55
-0.23702 0.07744 4.19167 122 83 55
-0.24933 0.00351 4.20765 122 83 55
-0.23714 -0.07709 4.19034 122 83 55
-0.20215 -0.14599 4.20324 122 83 55
-0.14811 -0.20060 4.19690 122 83 55
-0.07999 -0.23618 4.20535 122 83 55
0.00390 -0.24932 4.20522 122 83 55
0.07834 -0.23673 4.20500 122 83 55
0.14893 -0.19999 4.20134 122 83 55
0.20359 -0.14397 4.20308 122 83 55
0.23599 -0.08053 4.19623 122 83 55
0.26117 -0.00448 4.32646 122 83 55
0.24796 0.08214 4.31777 122 83 55
0.21301 0.15119 4.32474 122 83 55
0.15609 0.20944 4.31397 122 83 55
0.08307 0.24765 4.31057 122 83 55
0.00041 0.26121 4.32112 122 83 55
-0.07771 0.24938 4.31271 122 83 55
-0.15515 0.21014 4.33157 122 83 55
-0.20974 0.15569 4.31724 122 83 55
-0.24948 0.07741 4.32711 122 83 55
-0.26121 -0.00149 4.30842 122 83 55
-0.24881 -0.07953 4.33034 122 83 55
-0.21009 -0.15522 4.31729 122 83 55
-0.15148 -0.21280 4.32243 122 83 55
-0.07707 -0.24958 4.32200 122 83 55
0.00519 -0.26116 4.31205 122 83 55
0.08505 -0.24697 4.32533 122 83 55
0.15186 -0.21253 4.32157 122 83 55
0.21260 -0.15177 4.31602 122 83 55
0.24804 -0.08190 4.31268 122 83 55
0.27249 0.00168 4.44679 122 83 55
0.25816 0.08721 4.45007 122 83 55
0.22066 0.15989 4.42825 122 83 55
0.15634 0.22318 4.44279 122 83 55
0.08389 0.25926 4.43897 122 83 55
0.00540 0.27244 4.42947 122 83 55
-0.08575 0.25865 4.43353 122 83 55
-0.15891 0.22136 4.42949 122 83 55
-0.22127 0.15903 4.43620 122 83 55
-0.26057 0.07973 4.43877 122 83 55
-0.27249 -0.00020 4.44467 122 83 55
-0.25827 -0.08688 4.43486 122 83 55
-0.21979 -0.16108 4.43898 122 83 55
-0.15822 -0.22186 4.45238 122 83 55
-0.08451 -0.25906 4.45242 122 83 55
-0.00540 -0.27244 4.45104 122 83 55
0.08660 -0.25837 4.44227 122 83 55
0.16437 -0.21733 4.42979 122 83 55
0.21862 -0.16266 4.42949 122 83 55
0.25894 -0.08488 4.44685 122 83 55
0.27789 0.00273 4.55279 122 83 55
0.26472 0.08459 4.55664 122 83 55
0.22305 0.16577 4.54867 122 83 55
0.16003 0.22720 4.56590 122 83 55
0.08598 0.26427 4.57039 122 83 55
-0.00063 0.27790 4.56246 122 83 55
-0.08334 0.26511 4.56496 122 83 55
-0.16711 0.22205 4.55143 122 83 55
-0.22402 0.16446 4.55852 122 83 55
-0.26383 0.08732 4.56493 122 83 55
-0.27790 -0.00053 4.56183 122 83 55
-0.26378 -0.08747 4.54750 122 83 55
-0.22375 -0.16482 4.55368 122 83 55
-0.16433 -0.22411 4.56573 122 83 55
-0.08422 -0.26483 4.56145 122 83 55
-0.00006 -0.27790 4.55194 122 83 55
0.08639 -0.26413 4.56405 122 83 55
0.16632 -0.22264 4.54788 122 83 55
0.22165 -0.16764 4.54910 122 83 55
0.26442 -0.08552 4.57070 122 83 55
0.27485 -0.00487 4.68205 122 83 55
0.26095 0.08643 4.67475 122 83 55
0.22218 0.16187 4.68651 122 83 55
0.16543 0.21954 4.67391 122 83 55
0.08214 0.26233 4.68607 122 83 55
0.00524 0.27484 4.69056 122 83 55
-0.08421 0.26168 4.68938 122 83 55
-0.16141 0.22251 4.67837 122 83 55
-0.22128 0.16309 4.68123 122 83 55
-0.26043 0.08798 4.67245 122 83 55
-0.27485 -0.00499 4.66891 122 83 55
-0.26151 -0.08473 4.68168 122 83 55
-0.22043 -0.16425 4.67915 122 83 55
-0.16093 -0.22286 4.68412 122 83 55
-0.08115 -0.26264 4.68735 122 83 55
0.00064 -0.27489 4.67291 122 83 55
0.08816 -0.26037 4.69188 122 83 55
0.15747 -0.22532 4.68105 122 83 55
0.22386 -0.15954 4.67772 122 83 55
0.26259 -0.08131 4.66987 122 83 55
0.26488 -0.00008 4.78979 122 83 55
0.25083 0.08511 4.79227 122 83 55
0.21701 0.15188 4.80250 122 83 55
0.15792 0.21265 4.80786 122 83 55
0.08383 0.25126 4.79861 122 83 55
0.00050 0.26488 4.80367 122 83 55
-0.07909 0.25279 4.80139 122 83 55
-0.15858 0.21216 4.80506 122 83 55
-0.21473 0.15508 4.81049 122 83 55
-0.25070 0.08549 4.79292 122 83 55
-0.26486 0.00297 4.80322 122 83 55
-0.25118 -0.08408 4.80443 122 83 55
-0.21165 -0.15926 4.80909 122 83 55
-0.15626 -0.21388 4.79088 122 83 55
-0.08496 -0.25088 4.80178 122 83 55
-0.00523 -0.26482 4.79224 122 83 55
0.08154 -0.25201 4.80882 122 83 55
0.15322 -0.21606 4.79468 122 83 55
0.21633 -0.15285 4.79585 122 83 55
0.25105 -0.08446 4.79308 122 83 55
0.25254 0.00371 4.90806 122 83 55
0.23871 0.08250 4.93225 122 83 55
0.20405 0.14884 4.91822 122 83 55
0.15173 0.20191 4.91647 122 83 55
0.08162 0.23902 4.93148 122 83 55
0.00110 0.25256 4.92848 122 83 55
-0.07769 0.24032 4.92876 122 83 55
-0.14748 0.20504 4.93006 122 83 55
-0.20299 0.15028 4.91143 122 83 55
-0.23966 0.07970 4.92292 122 83 55
-0.25255 0.00284 4.92161 122 83 55
-0.24065 -0.07668 4.90936 122 83 55
-0.20244 -0.15103 4.90835 122 83 55
-0.14458 -0.20709 4.91407 122 83 55
-0.07713 -0.24050 4.92138 122 83 55
-0.00116 -0.25256 4.91402 122 83 55
0.07328 -0.24170 4.92031 122 83 55
0.14779 -0.20481 4.93017 122 83 55
0.20691 -0.14483 4.91845 122 83 55
0.24130 -0.07460 4.91569 122 83 55
0.24372 0.00430 5.03156 122 83 55
0.23175 0.07554 5.05164 122 83 55
0.19767 0.14263 5.04329 122 83 55
0.14349 0.19704 5.05250 122 83 55
0.07568 0.23171 5.05013 122 83 55
0.00429 0.24372 5.03499 122 83 55
-0.07128 0.23310 5.02992 122 83 55
-0.14559 0.19550 5.03495 122 83 55
-0.19924 0.14043 5.03456 122 83 55
-0.23091 0.07808 5.03835 122 83 55
-0.24375 -0.00151 5.04329 122 83 55
-0.23286 -0.07204 5.02856 122 83 55
-0.19774 -0.14252 5.03462 122 83 55
-0.14474 -0.19613 5.04859 122 83 55
-0.07640 -0.23147 5.04592 122 83 55
0.00298 -0.24374 5.03790 122 83 55
0.07707 -0.23125 5.04617 122 83 55
0.13975 -0.19972 5.03490 122 83 55
0.19643 -0.14433 5.02842 122 83 55
0.23186 -0.07522 5.04231 122 83 55
0.24257 0.00258 5.15496 122 83 55
0.22981 0.07768 5.15403 122 83 55
0.19375 0.14597 5.15417 122 83 55
0.14425 0.19503 5.15813 122 83 55
0.07842 0.22956 5.16965 122 83 55
0.00154 0.24258 5.15708 122 83 55
-0.07741 0.22990 5.16806 122 83 55
-0.14321 0.19580 5.15248 122 83 55
-0.19600 0.14293 5.16876 122 83 55
-0.23211 0.07051 5.14776 122 83 55
-0.24256 -0.00301 5.16924 122 83 55
-0.23010 -0.07680 5.15864 122 83 55
-0.19768 -0.14060 5.16177 122 83 55
-0.13994 -0.19815 5.16736 122 83 55
-0.07923 -0.22928 5.14799 122 83 55
0.00086 -0.24258 5.16797 122 83 55
0.07201 -0.23165 5.16420 122 83 55
0.14279 -0.19611 5.15616 122 83 55
0.19897 -0.13877 5.16161 122 83 55
0.23184 -0.07139 5.14839 122 83 55
0.24960 -0.00158 5.28685 122 83 55
0.23844 0.07380 5.29144 122 83 55
0.20405 0.14375 5.27443 122 83 55
0.14821 0.20083 5.28944 122 83 55
0.07948 0.23661 5.28902 122 83 55
-0.00075 0.24960 5.27711 122 83 55
-0.07335 0.23858 5.28677 122 83 55
-0.14573 0.20264 5.27387 122 83 55
-0.20310 0.14508 5.27085 122 83 55
-0.23592 0.08149 5.28481 122 83 55
-0.24960 -0.00114 5.27812 122 83 55
-0.23776 -0.07596 5.27584 122 83 55
-0.20251 -0.14591 5.27965 122 83 55
-0.15014 -0.19940 5.27160 122 83 55
-0.07881 -0.23683 5.28924 122 83 55
0.00217 -0.24959 5.28565 122 83 55
0.07661 -0.23755 5.28040 122 83 55
0.14848 -0.20064 5.27428 122 83 55
0.20150 -0.14731 5.26839 122 83 55
0.23757 -0.07656 5.28600 122 83 55
