ply
format ascii 1.0
comment SIMULATED DEMO - NOT FIELD EVIDENCE
element vertex 900
property float x
property float y
property float z
property uchar red
property uchar green
property uchar blue
end_header
0.26000 0.00046 -0.00122 122 83 55
0.24851 0.07645 -0.00870 122 83 55
0.21268 0.14956 0.00403 122 83 55
0.14953 0.21270 0.00136 122 83 55
0.08077 0.24714 0.01102 122 83 55
-0.00281 0.25998 -0.00665 122 83 55
-0.07899 0.24771 -0.00568 122 83 55
-0.14885 0.21318 -0.00829 122 83 55
-0.20819 0.15574 0.01196 122 83 55
-0.24598 0.08421 -0.00568 122 83 55
-0.26000 0.00130 -0.00730 122 83 55
-0.24743 -0.07987 0.00377 122 83 55
-0.21133 -0.15146 0.00020 122 83 55
-0.14978 -0.21253 0.00150 122 83 55
-0.08214 -0.24669 -0.01149 122 83 55
0.00323 -0.25998 0.00703 122 83 55
0.08164 -0.24685 -0.00538 122 83 55
0.15320 -0.21007 -0.00356 122 83 55
0.21295 -0.14918 -0.00500 122 83 55
0.24864 -0.07602 0.00995 122 83 55
0.27159 -0.00119 0.12929 122 83 55
0.25869 0.08272 0.13011 122 83 55
0.21882 0.16088 0.11066 122 83 55
0.16157 0.21831 0.12792 122 83 55
0.08257 0.25874 0.11857 122 83 55
-0.00310 0.27158 0.12605 122 83 55
-0.08665 0.25740 0.12573 122 83 55
-0.16349 0.21687 0.10892 122 83 55
-0.22285 0.15526 0.11766 122 83 55
-0.25795 0.08499 0.11618 122 83 55
-0.27158 -0.00266 0.12413 122 83 55
-0.25916 -0.08123 0.11707 122 83 55
-0.21790 -0.16213 0.12834 122 83 55
-0.15773 -0.22110 0.10949 122 83 55
-0.08411 -0.25824 0.13063 122 83 55
0.00390 -0.27157 0.12395 122 83 55
0.07930 -0.25976 0.12509 122 83 55
0.15755 -0.22123 0.11856 122 83 55
0.22098 -0.15789 0.12837 122 83 55
0.25850 -0.08332 0.10780 122 83 55
0.27772 0.00302 0.25152 122 83 55
0.26477 0.08389 0.24384 122 83 55
0.22546 0.16219 0.24669 122 83 55
0.16386 0.22425 0.23542 122 83 55
0.09064 0.26253 0.23707 122 83 55
0.00317 0.27772 0.24076 122 83 55
-0.08361 0.26486 0.24425 122 83 55
-0.16542 0.22310 0.25196 122 83 55
-0.22395 0.16427 0.23407 122 83 55
-0.26314 0.08886 0.24472 122 83 55
-0.27774 -0.00012 0.23748 122 83 55
-0.26477 -0.08388 0.22855 122 83 55
-0.22738 -0.15949 0.25009 122 83 55
-0.15953 -0.22735 0.22875 122 83 55
-0.09012 -0.26271 0.24936 122 83 55
-0.00008 -0.27774 0.24265 122 83 55
0.08678 -0.26383 0.25061 122 83 55
0.16091 -0.22638 0.24414 122 83 55
0.22619 -0.16117 0.22845 122 83 55
0.26465 -0.08426 0.24130 122 83 55
0.27548 -0.00551 0.35699 122 83 55
0.26367 0.07998 0.36877 122 83 55
0.22277 0.16216 0.36331 122 83 55
0.16401 0.22141 0.36212 122 83 55
0.08426 0.26234 0.36477 122 83 55
0.00536 0.27549 0.36330 122 83 55
-0.08806 0.26109 0.36722 122 83 55
-0.16287 0.22225 0.36214 122 83 55
-0.22216 0.16299 0.35726 122 83 55
-0.26278 0.08286 0.36016 122 83 55
-0.27550 -0.00443 0.35810 122 83 55
-0.26083 -0.08883 0.35449 122 83 55
-0.22051 -0.16521 0.36448 122 83 55
-0.16212 -0.22280 0.36038 122 83 55
-0.08694 -0.26146 0.35893 122 83 55
0.00503 -0.27549 0.35283 122 83 55
0.08675 -0.26152 0.36734 122 83 55
0.16077 -0.22377 0.36318 122 83 55
0.22308 -0.16173 0.36834 122 83 55
0.26341 -0.08086 0.34864 122 83 55
0.26602 -0.00218 0.47226 122 83 55
0.25303 0.08214 0.47839 122 83 55
0.21795 0.15255 0.47655 122 83 55
0.15504 0.21618 0.47131 122 83 55
0.08603 0.25174 0.48094 122 83 55
-0.00496 0.26598 0.47176 122 83 55
-0.08441 0.25228 0.47665 122 83 55
-0.15677 0.21493 0.48101 122 83 55
-0.21301 0.15937 0.48058 122 83 55
-0.25254 0.08363 0.46795 122 83 55
-0.26602 -0.00222 0.47117 122 83 55
-0.25345 -0.08083 0.46944 122 83 55
-0.21799 -0.15249 0.47935 122 83 55
-0.15406 -0.21688 0.48641 122 83 55
-0.07815 -0.25429 0.47393 122 83 55
0.00414 -0.26600 0.46835 122 83 55
0.07913 -0.25399 0.48715 122 83 55
0.15563 -0.21576 0.48510 122 83 55
0.21297 -0.15942 0.48230 122 83 55
0.25148 -0.08676 0.49087 122 83 55
0.25368 0.00234 0.59175 122 83 55
0.24022 0.08156 0.61195 122 83 55
0.20435 0.15033 0.59466 122 83 55
0.14808 0.20598 0.60563 122 83 55
0.07598 0.24204 0.60521 122 83 55
-0.00082 0.25368 0.58916 122 83 55
-0.07761 0.24152 0.59825 122 83 55
-0.14927 0.20512 0.59379 122 83 55
-0.20533 0.14899 0.60556 122 83 55
-0.24151 0.07764 0.60535 122 83 55
-0.25367 -0.00265 0.60226 122 83 55
-0.24101 -0.07918 0.58877 122 83 55
-0.20383 -0.15103 0.59889 122 83 55
-0.14556 -0.20777 0.59048 122 83 55
-0.07510 -0.24231 0.59135 122 83 55
-0.00503 -0.25364 0.59882 122 83 55
0.08234 -0.23995 0.60169 122 83 55
0.14805 -0.20601 0.59858 122 83 55
0.20413 -0.15062 0.59935 122 83 55
0.24057 -0.08052 0.61248 122 83 55
0.24430 0.00241 0.71849 122 83 55
0.23311 0.07312 0.72330 122 83 55
0.20034 0.13983 0.72835 122 83 55
0.14194 0.19885 0.71174 122 83 55
0.07436 0.23272 0.71488 122 83 55
0.00433 0.24427 0.72134 122 83 55
-0.07771 0.23162 0.71309 122 83 55
-0.14358 0.19767 0.71810 122 83 55
-0.19545 0.14659 0.71078 122 83 55
-0.23260 0.07472 0.71854 122 83 55
-0.24427 -0.00460 0.73066 122 83 55
-0.23271 -0.07438 0.72137 122 83 55
-0.19693 -0.14459 0.71904 122 83 55
-0.14325 -0.19790 0.72396 122 83 55
-0.07214 -0.23342 0.73050 122 83 55
0.00331 -0.24429 0.71636 122 83 55
0.07998 -0.23085 0.72936 122 83 55
0.14628 -0.19568 0.72661 122 83 55
0.19538 -0.14668 0.70972 122 83 55
0.23343 -0.07211 0.72234 122 83 55
0.24230 -0.00269 0.83751 122 83 55
0.23089 0.07354 0.85015 122 83 55
0.19326 0.14617 0.83375 122 83 55
0.14409 0.19482 0.83526 122 83 55
0.07645 0.22994 0.84492 122 83 55
0.00184 0.24231 0.84024 122 83 55
-0.07370 0.23083 0.85228 122 83 55
-0.14379 0.19504 0.83792 122 83 55
-0.19377 0.14549 0.82843 122 83 55
-0.22952 0.07769 0.83485 122 83 55
-0.24228 -0.00421 0.83549 122 83 55
-0.22962 -0.07742 0.84281 122 83 55
-0.19845 -0.13905 0.83059 122 83 55
-0.14439 -0.19459 0.84228 122 83 55
-0.07707 -0.22973 0.83070 122 83 55
0.00050 -0.24232 0.84285 122 83 55
0.07422 -0.23067 0.84501 122 83 55
0.14252 -0.19597 0.85203 122 83 55
0.19402 -0.14517 0.83916 122 83 55
0.23118 -0.07263 0.84490 122 83 55
0.24861 -0.00391 0.97224 122 83 55
0.23667 0.07622 0.95350 122 83 55
0.19879 0.14934 0.96331 122 83 55
0.14993 0.19835 0.96110 122 83 55
0.07350 0.23752 0.97084 122 83 55
0.00439 0.24860 0.96248 122 83 55
-0.07881 0.23582 0.94928 122 83 55
-0.14778 0.19995 0.95805 122 83 55
-0.20047 0.14708 0.95379 122 83 55
-0.23719 0.07457 0.95544 122 83 55
-0.24861 0.00399 0.94969 122 83 55
-0.23494 -0.08138 0.96374 122 83 55
-0.20045 -0.14711 0.95523 122 83 55
-0.14649 -0.20090 0.96167 122 83 55
-0.07758 -0.23622 0.95681 122 83 55
0.00298 -0.24862 0.95732 122 83 55
0.08115 -0.23502 0.96752 122 83 55
0.14755 -0.20012 0.96319 122 83 55
0.20069 -0.14677 0.95597 122 83 55
0.23559 -0.07950 0.96672 122 83 55
0.26030 0.00125 1.07353 122 83 55
0.24671 0.08302 1.07752 122 83 55
0.20830 0.15611 1.07440 122 83 55
0.15405 0.20982 1.07401 122 83 55
0.08477 0.24611 1.07438 122 83 55
-0.00493 0.26026 1.07320 122 83 55
-0.07792 0.24837 1.07518 122 83 55
-0.14883 0.21356 1.07868 122 83 55
-0.21023 0.15350 1.08739 122 83 55
-0.24595 0.08523 1.06822 122 83 55
-0.26030 0.00010 1.07176 122 83 55
-0.24747 -0.08072 1.06857 122 83 55
-0.21267 -0.15010 1.08934 122 83 55
-0.15605 -0.20834 1.08613 122 83 55
-0.07723 -0.24858 1.08753 122 83 55
0.00176 -0.26030 1.07378 122 83 55
0.07984 -0.24775 1.08013 122 83 55
0.15567 -0.20862 1.07007 122 83 55
0.21132 -0.15199 1.08594 122 83 55
0.24815 -0.07862 1.07832 122 83 55
0.27177 -0.00532 1.19164 122 83 55
0.26014 0.07885 1.20460 122 83 55
0.22089 0.15842 1.19574 122 83 55
0.16311 0.21745 1.18953 122 83 55
0.08087 0.25952 1.19201 122 83 55
-0.00428 0.27179 1.19527 122 83 55
-0.08469 0.25830 1.20666 122 83 55
-0.15663 0.22216 1.19037 122 83 55
-0.22146 0.15762 1.21014 122 83 55
-0.25789 0.08591 1.20609 122 83 55
-0.27177 0.00538 1.21034 122 83 55
-0.25872 -0.08339 1.19953 122 83 55
-0.21924 -0.16070 1.20557 122 83 55
-0.15854 -0.22080 1.20473 122 83 55
-0.08221 -0.25910 1.21160 122 83 55
0.00177 -0.27182 1.18932 122 83 55
0.08817 -0.25713 1.20863 122 83 55
0.15776 -0.22136 1.19065 122 83 55
0.21705 -0.16365 1.21000 122 83 55
0.25834 -0.08454 1.21137 122 83 55
0.27775 0.00422 1.33094 122 83 55
0.26350 0.08794 1.33089 122 83 55
0.22555 0.16214 1.32674 122 83 55
0.16774 0.22143 1.33017 122 83 55
0.08560 0.26427 1.32116 122 83 55
0.00444 0.27775 1.32880 122 83 55
-0.08988 0.26285 1.32684 122 83 55
-0.16091 0.22644 1.31438 122 83 55
-0.22587 0.16171 1.31613 122 83 55
-0.26426 0.08562 1.32552 122 83 55
-0.27777 0.00263 1.31165 122 83 55
-0.26423 -0.08572 1.31105 122 83 55
-0.22681 -0.16039 1.31229 122 83 55
-0.16227 -0.22546 1.30929 122 83 55
-0.09055 -0.26262 1.33170 122 83 55
0.00295 -0.27777 1.32748 122 83 55
0.08176 -0.26548 1.33237 122 83 55
0.16706 -0.22194 1.30757 122 83 55
0.22245 -0.16638 1.31980 122 83 55
0.26451 -0.08485 1.32110 122 83 55
0.27534 -0.00480 1.43747 122 83 55
0.26097 0.08792 1.43694 122 83 55
0.22351 0.16087 1.44452 122 83 55
0.16275 0.22214 1.44697 122 83 55
0.08540 0.26181 1.43440 122 83 55
-0.00168 0.27538 1.43592 122 83 55
-0.08131 0.26311 1.43392 122 83 55
-0.16166 0.22294 1.43824 122 83 55
-0.21977 0.16594 1.42834 122 83 55
-0.26103 0.08774 1.43044 122 83 55
-0.27533 0.00524 1.44462 122 83 55
-0.26195 -0.08497 1.44434 122 83 55
-0.22462 -0.15931 1.44581 122 83 55
-0.15783 -0.22567 1.43227 122 83 55
-0.08342 -0.26244 1.45123 122 83 55
0.00065 -0.27538 1.45200 122 83 55
0.08724 -0.26120 1.42800 122 83 55
0.16622 -0.21956 1.44516 122 83 55
0.22259 -0.16213 1.43099 122 83 55
0.26328 -0.08075 1.43911 122 83 55
0.26571 -0.00441 1.56932 122 83 55
0.25398 0.07819 1.55387 122 83 55
0.21459 0.15675 1.56883 122 83 55
0.15977 0.21235 1.56134 122 83 55
0.08258 0.25259 1.55136 122 83 55
-0.00310 0.26573 1.57096 122 83 55
-0.08389 0.25216 1.55765 122 83 55
-0.15763 0.21394 1.57163 122 83 55
-0.21280 0.15918 1.57211 122 83 55
-0.25123 0.08661 1.56640 122 83 55
-0.26572 0.00355 1.56898 122 83 55
-0.25216 -0.08387 1.57244 122 83 55
-0.21471 -0.15659 1.57047 122 83 55
-0.15336 -0.21703 1.55503 122 83 55
-0.08626 -0.25135 1.56891 122 83 55
-0.00105 -0.26574 1.55086 122 83 55
0.08589 -0.25148 1.57113 122 83 55
0.15937 -0.21265 1.56675 122 83 55
0.21384 -0.15777 1.55439 122 83 55
0.25403 -0.07804 1.57151 122 83 55
0.25338 -0.00348 1.67476 122 83 55
0.24177 0.07590 1.67466 122 83 55
0.20365 0.15080 1.68474 122 83 55
0.14484 0.20793 1.67723 122 83 55
0.08153 0.23993 1.66843 122 83 55
0.00100 0.25340 1.68084 122 83 55
-0.07791 0.24113 1.68358 122 83 55
-0.15183 0.20288 1.67264 122 83 55
-0.20473 0.14933 1.68144 122 83 55
-0.24171 0.07610 1.68509 122 83 55
-0.25339 0.00278 1.68603 122 83 55
-0.24214 -0.07471 1.69044 122 83 55
-0.20527 -0.14859 1.68642 122 83 55
-0.14657 -0.20671 1.68641 122 83 55
-0.07644 -0.24160 1.68117 122 83 55
0.00178 -0.25340 1.69058 122 83 55
0.07973 -0.24053 1.67075 122 83 55
0.14498 -0.20783 1.69230 122 83 55
0.20745 -0.14552 1.67493 122 83 55
0.24197 -0.07526 1.69224 122 83 55
0.24415 0.00252 1.80326 122 83 55
0.23355 0.07122 1.81089 122 83 55
0.19556 0.14619 1.79817 122 83 55
0.14621 0.19555 1.78857 122 83 55
0.07951 0.23086 1.79630 122 83 55
-0.00032 0.24417 1.80084 122 83 55
-0.07891 0.23106 1.81016 122 83 55
-0.14743 0.19463 1.79430 122 83 55
-0.19880 0.14176 1.78810 122 83 55
-0.23256 0.07437 1.80414 122 83 55
-0.24417 -0.00004 1.79732 122 83 55
-0.23287 -0.07339 1.80113 122 83 55
-0.19928 -0.14108 1.79539 122 83 55
-0.14045 -0.19972 1.81162 122 83 55
-0.07085 -0.23366 1.79232 122 83 55
-0.00396 -0.24413 1.79095 122 83 55
0.07731 -0.23160 1.81144 122 83 55
0.14693 -0.19501 1.81133 122 83 55
0.19539 -0.14642 1.78842 122 83 55
0.23305 -0.07282 1.80688 122 83 55
0.24236 0.00262 1.92429 122 83 55
0.23059 0.07465 1.91973 122 83 55
0.19866 0.13885 1.92421 122 83 55
0.14199 0.19643 1.93208 122 83 55
0.07194 0.23145 1.93041 122 83 55
-0.00480 0.24233 1.92069 122 83 55
-0.07097 0.23175 1.91359 122 83 55
-0.14427 0.19476 1.92639 122 83 55
-0.19791 0.13992 1.91857 122 83 55
-0.22905 0.07927 1.91228 122 83 55
-0.24236 -0.00221 1.92111 122 83 55
-0.23065 -0.07447 1.92086 122 83 55
-0.19874 -0.13874 1.92411 122 83 55
-0.13926 -0.19838 1.91138 122 83 55
-0.07340 -0.23099 1.90762 122 83 55
-0.00417 -0.24234 1.91994 122 83 55
0.07712 -0.22978 1.92844 122 83 55
0.13987 -0.19794 1.91616 122 83 55
0.19755 -0.14043 1.92115 122 83 55
0.23196 -0.07028 1.91163 122 83 55
0.24885 -0.00328 2.02891 122 83 55
0.23682 0.07652 2.05126 122 83 55
0.20280 0.14425 2.03327 122 83 55
0.14876 0.19952 2.03535 122 83 55
0.07846 0.23618 2.02900 122 83 55
0.00493 0.24882 2.04591 122 83 55
-0.08072 0.23542 2.04557 122 83 55
-0.14343 0.20338 2.03266 122 83 55
-0.19863 0.14995 2.04876 122 83 55
-0.23726 0.07513 2.04473 122 83 55
-0.24886 0.00213 2.04160 122 83 55
-0.23670 -0.07688 2.03080 122 83 55
-0.19894 -0.14953 2.03062 122 83 55
-0.14515 -0.20216 2.05148 122 83 55
-0.08104 -0.23531 2.03406 122 83 55
-0.00356 -0.24885 2.03400 122 83 55
0.07650 -0.23683 2.04050 122 83 55
0.14572 -0.20175 2.03051 122 83 55
0.20065 -0.14723 2.03226 122 83 55
0.23807 -0.07254 2.04764 122 83 55
0.26060 -0.00214 2.16421 122 83 55
0.24692 0.08334 2.16608 122 83 55
0.21194 0.15164 2.15504 122 83 55
0.15674 0.20820 2.16025 122 83 55
0.08244 0.24722 2.14919 122 83 55
-0.00412 0.26057 2.15449 122 83 55
-0.07920 0.24828 2.16381 122 83 55
-0.15474 0.20969 2.15822 122 83 55
-0.21361 0.14929 2.16655 122 83 55
-0.24715 0.08266 2.15399 122 83 55
-0.26056 0.00511 2.16605 122 83 55
-0.24799 -0.08011 2.14844 122 83 55
-0.21004 -0.15426 2.16841 122 83 55
-0.15552 -0.20911 2.16753 122 83 55
-0.08203 -0.24736 2.16403 122 83 55
-0.00023 -0.26061 2.16366 122 83 55
0.07582 -0.24933 2.16558 122 83 55
0.15494 -0.20954 2.15834 122 83 55
0.21257 -0.15075 2.14895 122 83 55
0.24872 -0.07781 2.15075 122 83 55
0.27205 0.00172 2.27555 122 83 55
0.26024 0.07929 2.27326 122 83 55
0.21826 0.16240 2.29025 122 83 55
0.16082 0.21943 2.29169 122 83 55
0.08551 0.25827 2.29075 122 83 55
-0.00432 0.27202 2.27396 122 83 55
-0.08587 0.25814 2.27034 122 83 55
-0.15595 0.22292 2.28241 122 83 55
-0.22263 0.15636 2.29218 122 83 55
-0.25714 0.08884 2.27590 122 83 55
-0.27205 -0.00040 2.28962 122 83 55
-0.25932 -0.08225 2.26946 122 83 55
-0.21929 -0.16101 2.28330 122 83 55
-0.15970 -0.22024 2.27017 122 83 55
-0.08780 -0.25750 2.29180 122 83 55
-0.00083 -0.27205 2.26945 122 83 55
0.08085 -0.25976 2.26930 122 83 55
0.16009 -0.21996 2.27807 122 83 55
0.22286 -0.15603 2.28449 122 83 55
0.25884 -0.08376 2.27136 122 83 55
0.27783 -0.00178 2.40659 122 83 55
0.26367 0.08758 2.38859 122 83 55
0.22707 0.16009 2.40523 122 83 55
0.16168 0.22594 2.39657 122 83 55
0.08318 0.26509 2.39769 122 83 55
-0.00527 0.27778 2.40362 122 83 55
-0.08956 0.26300 2.40766 122 83 55
-0.16081 0.22656 2.39181 122 83 55
-0.22768 0.15923 2.40639 122 83 55
-0.26373 0.08740 2.39100 122 83 55
-0.27781 0.00310 2.39317 122 83 55
-0.26303 -0.08947 2.40488 122 83 55
-0.22628 -0.16121 2.39322 122 83 55
-0.16215 -0.22560 2.39541 122 83 55
-0.08334 -0.26504 2.38772 122 83 55
-0.00413 -0.27780 2.39311 122 83 55
0.08994 -0.26287 2.39625 122 83 55
0.16021 -0.22699 2.40706 122 83 55
0.22492 -0.16310 2.38908 122 83 55
0.26500 -0.08347 2.38978 122 83 55
0.27518 0.00476 2.53216 122 83 55
0.26335 0.07997 2.51316 122 83 55
0.22128 0.16366 2.50935 122 83 55
0.16587 0.21963 2.52820 122 83 55
0.08371 0.26219 2.51772 122 83 55
-0.00245 0.27521 2.53223 122 83 55
-0.08916 0.26038 2.51271 122 83 55
-0.16170 0.22271 2.52374 122 83 55
-0.22279 0.16159 2.51146 122 83 55
-0.26190 0.08461 2.53123 122 83 55
-0.27522 -0.00123 2.52365 122 83 55
-0.26217 -0.08375 2.51353 122 83 55
-0.22096 -0.16409 2.52574 122 83 55
-0.16314 -0.22166 2.52549 122 83 55
-0.08054 -0.26317 2.53035 122 83 55
-0.00306 -0.27521 2.52911 122 83 55
0.08453 -0.26192 2.50911 122 83 55
0.15764 -0.22560 2.51144 122 83 55
0.21975 -0.16571 2.50846 122 83 55
0.26265 -0.08224 2.52681 122 83 55
0.26541 -0.00480 2.64894 122 83 55
0.25233 0.08243 2.63220 122 83 55
0.21762 0.15202 2.64017 122 83 55
0.15627 0.21458 2.65095 122 83 55
0.07856 0.25356 2.64444 122 83 55
0.00176 0.26545 2.65091 122 83 55
-0.08208 0.25245 2.62862 122 83 55
-0.15684 0.21417 2.62988 122 83 55
-0.21467 0.15616 2.64992 122 83 55
-0.25275 0.08116 2.63193 122 83 55
-0.26546 0.00002 2.63255 122 83 55
-0.25133 -0.08545 2.62983 122 83 55
-0.21423 -0.15676 2.63842 122 83 55
-0.15335 -0.21668 2.62984 122 83 55
-0.08373 -0.25191 2.64635 122 83 55
0.00062 -0.26546 2.64151 122 83 55
0.08069 -0.25290 2.63559 122 83 55
0.15264 -0.21718 2.63622 122 83 55
0.21500 -0.15570 2.65037 122 83 55
0.25254 -0.08180 2.64963 122 83 55
0.25312 -0.00107 2.74896 122 83 55
0.23923 0.08271 2.75932 122 83 55
0.20253 0.15184 2.75652 122 83 55
0.15084 0.20327 2.76017 122 83 55
0.07967 0.24026 2.76746 122 83 55
-0.00126 0.25312 2.76143 122 83 55
-0.07707 0.24110 2.74930 122 83 55
-0.15195 0.20244 2.76040 122 83 55
-0.20701 0.14566 2.75627 122 83 55
-0.24221 0.07352 2.75417 122 83 55
-0.25312 -0.00008 2.77197 122 83 55
-0.24012 -0.08010 2.76189 122 83 55
-0.20474 -0.14884 2.77198 122 83 55
-0.15188 -0.20249 2.75153 122 83 55
-0.08004 -0.24014 2.75818 122 83 55
-0.00477 -0.25308 2.75112 122 83 55
0.07920 -0.24041 2.74812 122 83 55
0.14709 -0.20600 2.75574 122 83 55
0.20595 -0.14716 2.75883 122 83 55
0.24208 -0.07395 2.74806 122 83 55
0.24402 -0.00092 2.87585 122 83 55
0.23178 0.07633 2.87595 122 83 55
0.19602 0.14534 2.88927 122 83 55
0.14482 0.19641 2.87252 122 83 55
0.07873 0.23097 2.88018 122 83 55
0.00374 0.24400 2.87972 122 83 55
-0.07138 0.23335 2.87183 122 83 55
-0.14424 0.19683 2.86824 122 83 55
-0.19543 0.14614 2.89130 122 83 55
-0.23255 0.07394 2.87734 122 83 55
-0.24401 0.00218 2.87359 122 83 55
-0.23351 -0.07085 2.88492 122 83 55
-0.19938 -0.14070 2.88634 122 83 55
-0.14692 -0.19484 2.88895 122 83 55
-0.07576 -0.23196 2.88960 122 83 55
-0.00077 -0.24402 2.86796 122 83 55
0.07521 -0.23215 2.87643 122 83 55
0.13976 -0.20004 2.86943 122 83 55
0.19893 -0.14133 2.87123 122 83 55
0.23279 -0.07320 2.88104 122 83 55
0.24244 -0.00053 2.98901 122 83 55
0.23015 0.07620 2.99122 122 83 55
0.19891 0.13861 3.00001 122 83 55
0.13979 0.19808 3.01155 122 83 55
0.07245 0.23136 2.99552 122 83 55
0.00295 0.24242 3.00981 122 83 55
-0.07376 0.23095 3.00665 122 83 55
-0.13960 0.19821 3.00878 122 83 55
-0.19333 0.14629 3.00940 122 83 55
-0.23171 0.07132 3.01214 122 83 55
-0.24242 0.00316 3.01046 122 83 55
-0.23036 -0.07558 3.00496 122 83 55
-0.19811 -0.13975 3.00435 122 83 55
-0.13966 -0.19817 2.99776 122 83 55
-0.07356 -0.23101 3.00401 122 83 55
-0.00134 -0.24244 2.99406 122 83 55
0.07152 -0.23165 3.00292 122 83 55
0.14549 -0.19393 2.99286 122 83 55
0.19807 -0.13981 3.00819 122 83 55
0.22943 -0.07834 2.99352 122 83 55
0.24911 0.00058 3.11048 122 83 55
0.23662 0.07791 3.12205 122 83 55
0.20118 0.14692 3.12248 122 83 55
0.14483 0.20268 3.11363 122 83 55
0.07794 0.23661 3.11939 122 83 55
0.00183 0.24911 3.11297 122 83 55
-0.07563 0.23736 3.12062 122 83 55
-0.14578 0.20200 3.10984 122 83 55
-0.20314 0.14419 3.10859 122 83 55
-0.23654 0.07815 3.10876 122 83 55
-0.24911 -0.00099 3.11653 122 83 55
-0.23820 -0.07291 3.11787 122 83 55
-0.19973 -0.14889 3.11343 122 83 55
-0.14989 -0.19897 3.11327 122 83 55
-0.07602 -0.23723 3.12562 122 83 55
-0.00198 -0.24911 3.12155 122 83 55
0.07712 -0.23688 3.11581 122 83 55
0.14335 -0.20373 3.11911 122 83 55
0.20332 -0.14394 3.12129 122 83 55
0.23738 -0.07556 3.12860 122 83 55
0.26089 0.00313 3.22972 122 83 55
0.24730 0.08315 3.24357 122 83 55
0.21382 0.14951 3.23687 122 83 55
0.15644 0.20881 3.22912 122 83 55
0.08092 0.24804 3.23198 122 83 55
0.00224 0.26090 3.24724 122 83 55
-0.08412 0.24697 3.23779 122 83 55
-0.15237 0.21180 3.23693 122 83 55
-0.21010 0.15470 3.23836 122 83 55
-0.24750 0.08257 3.23554 122 83 55
-0.26088 -0.00343 3.23912 122 83 55
-0.24862 -0.07914 3.23873 122 83 55
-0.21177 -0.15240 3.25000 122 83 55
-0.15413 -0.21052 3.24303 122 83 55
-0.08461 -0.24681 3.24336 122 83 55
0.00079 -0.26091 3.25104 122 83 55
0.08527 -0.24658 3.24514 122 83 55
0.15343 -0.21103 3.25050 122 83 55
0.21289 -0.15083 3.24857 122 83 55
0.24654 -0.08539 3.23500 122 83 55
0.27224 -0.00416 3.36614 122 83 55
0.25834 0.08599 3.35993 122 83 55
0.21931 0.16136 3.35186 122 83 55
0.16049 0.21995 3.36896 122 83 55
0.08029 0.26017 3.35188 122 83 55
-0.00101 0.27227 3.35223 122 83 55
-0.08504 0.25865 3.34811 122 83 55
-0.15918 0.22089 3.35387 122 83 55
-0.22148 0.15836 3.36535 122 83 55
-0.25894 0.08416 3.35277 122 83 55
-0.27227 0.00070 3.34905 122 83 55
-0.25827 -0.08621 3.35148 122 83 55
-0.21750 -0.16380 3.36672 122 83 55
-0.15761 -0.22202 3.35478 122 83 55
-0.08231 -0.25954 3.34767 122 83 55
0.00028 -0.27228 3.35538 122 83 55
0.08275 -0.25940 3.35656 122 83 55
0.15595 -0.22319 3.35054 122 83 55
0.21868 -0.16221 3.35288 122 83 55
0.25745 -0.08860 3.36984 122 83 55
0.27785 0.00332 3.48947 122 83 55
0.26313 0.08930 3.47032 122 83 55
0.22512 0.16289 3.46955 122 83 55
0.16126 0.22629 3.47148 122 83 55
0.08369 0.26497 3.48300 122 83 55
-0.00351 0.27785 3.47924 122 83 55
-0.08945 0.26308 3.47381 122 83 55
-0.16682 0.22222 3.47867 122 83 55
-0.22778 0.15914 3.47187 122 83 55
-0.26474 0.08439 3.48189 122 83 55
-0.27786 0.00258 3.48369 122 83 55
-0.26514 -0.08313 3.47886 122 83 55
-0.22395 -0.16449 3.48252 122 83 55
-0.16568 -0.22308 3.48470 122 83 55
-0.08126 -0.26572 3.47509 122 83 55
0.00194 -0.27786 3.48868 122 83 55
0.08897 -0.26324 3.47796 122 83 55
0.16589 -0.22292 3.49127 122 83 55
0.22489 -0.16321 3.46802 122 83 55
0.26507 -0.08336 3.47177 122 83 55
0.27506 -0.00022 3.59791 122 83 55
0.26267 0.08163 3.60534 122 83 55
0.22355 0.16026 3.60815 122 83 55
0.16032 0.22351 3.58956 122 83 55
0.08373 0.26201 3.59432 122 83 55
0.00461 0.27502 3.59175 122 83 55
-0.08679 0.26101 3.59373 122 83 55
-0.16519 0.21993 3.60977 122 83 55
-0.21983 0.16532 3.61216 122 83 55
-0.26172 0.08461 3.59503 122 83 55
-0.27501 -0.00536 3.59780 122 83 55
-0.26211 -0.08339 3.59776 122 83 55
-0.22064 -0.16424 3.59048 122 83 55
-0.16481 -0.22022 3.59097 122 83 55
-0.08624 -0.26119 3.61065 122 83 55
0.00525 -0.27501 3.59065 122 83 55
0.08842 -0.26046 3.60886 122 83 55
0.16431 -0.22059 3.59589 122 83 55
0.22566 -0.15728 3.60266 122 83 55
0.26032 -0.08882 3.60430 122 83 55
0.26516 0.00235 3.72913 122 83 55
0.25061 0.08665 3.70874 122 83 55
0.21451 0.15588 3.73248 122 83 55
0.15704 0.21367 3.72312 122 83 55
0.08005 0.25279 3.73243 122 83 55
-0.00097 0.26517 3.71108 122 83 55
-0.08414 0.25146 3.72539 122 83 55
-0.15845 0.21262 3.72260 122 83 55
-0.21750 0.15168 3.72651 122 83 55
-0.25209 0.08225 3.72480 122 83 55
-0.26514 0.00342 3.72216 122 83 55
-0.25334 -0.07829 3.72473 122 83 55
-0.21561 -0.15436 3.72348 122 83 55
-0.15785 -0.21306 3.72767 122 83 55
-0.07838 -0.25332 3.72303 122 83 55
-0.00400 -0.26514 3.71125 122 83 55
0.08038 -0.25269 3.71269 122 83 55
0.15206 -0.21723 3.72670 122 83 55
0.21695 -0.15247 3.72717 122 83 55
0.25267 -0.08044 3.71962 122 83 55
0.25282 -0.00367 3.82910 122 83 55
0.24064 0.07759 3.83937 122 83 55
0.20486 0.14820 3.84232 122 83 55
0.14943 0.20397 3.84690 122 83 55
0.07482 0.24152 3.84186 122 83 55
0.00293 0.25283 3.83256 122 83 55
-0.07854 0.24034 3.83984 122 83 55
-0.14496 0.20716 3.83635 122 83 55
-0.20346 0.15011 3.83820 122 83 55
-0.24072 0.07737 3.84441 122 83 55
-0.25279 0.00500 3.83001 122 83 55
-0.24184 -0.07378 3.84697 122 83 55
-0.20250 -0.15140 3.82770 122 83 55
-0.15264 -0.20157 3.83892 122 83 55
-0.07824 -0.24043 3.83266 122 83 55
0.00412 -0.25281 3.83070 122 83 55
0.08213 -0.23913 3.84179 122 83 55
0.14886 -0.20438 3.84334 122 83 55
0.20466 -0.14847 3.84314 122 83 55
0.23932 -0.08158 3.84256 122 83 55
0.24386 -0.00392 3.95365 122 83 55
0.23130 0.07734 3.96851 122 83 55
0.19657 0.14436 3.96858 122 83 55
0.14179 0.19843 3.95852 122 83 55
0.07153 0.23316 3.96832 122 83 55
0.00376 0.24386 3.96182 122 83 55
-0.07580 0.23181 3.95942 122 83 55
-0.14712 0.19452 3.95121 122 83 55
-0.19914 0.14079 3.95822 122 83 55
-0.23148 0.07681 3.96812 122 83 55
-0.24389 0.00047 3.96135 122 83 55
-0.23216 -0.07471 3.94849 122 83 55
-0.19864 -0.14150 3.96894 122 83 55
-0.14197 -0.19831 3.94843 122 83 55
-0.07741 -0.23127 3.96247 122 83 55
0.00158 -0.24388 3.94972 122 83 55
0.07763 -0.23120 3.97033 122 83 55
0.14109 -0.19894 3.95637 122 83 55
0.19503 -0.14644 3.96081 122 83 55
0.23096 -0.07835 3.94997 122 83 55
0.24246 0.00472 4.07791 122 83 55
0.23021 0.07624 4.07252 122 83 55
0.19569 0.14323 4.07718 122 83 55
0.14153 0.19693 4.07195 122 83 55
0.07799 0.22962 4.06962 122 83 55
-0.00007 0.24251 4.07152 122 83 55
-0.07457 0.23076 4.08823 122 83 55
-0.14371 0.19534 4.08080 122 83 55
-0.19443 0.14494 4.07282 122 83 55
-0.22939 0.07867 4.07199 122 83 55
-0.24248 0.00387 4.08000 122 83 55
-0.23139 -0.07257 4.08167 122 83 55
-0.19876 -0.13893 4.07171 122 83 55
-0.13987 -0.19811 4.06931 122 83 55
-0.07805 -0.22960 4.07158 122 83 55
0.00241 -0.24250 4.07512 122 83 55
0.07198 -0.23158 4.08493 122 83 55
0.14115 -0.19720 4.07612 122 83 55
0.19479 -0.14445 4.08426 122 83 55
0.23017 -0.07638 4.07034 122 83 55
0.24931 -0.00477 4.18859 122 83 55
0.23616 0.08006 4.19575 122 83 55
0.20051 0.14823 4.20588 122 83 55
0.14947 0.19959 4.20617 122 83 55
0.07730 0.23707 4.20951 122 83 55
0.00105 0.24935 4.20336 122 83 55
-0.07581 0.23755 4.20051 122 83 55
-0.14904 0.19991 4.20494 122 83 55
-0.20187 0.14638 4.18888 122 83 55
-0.23747 0.07606 4.20994 122 83 55
-0.24936 0.00003 4.18849 122 83 55
-0.23620 -0.07993 4.20912 122 83 55
-0.19936 -0.14978 4.19112 122 83 55
-0.14486 -0.20296 4.20916 122 83 55
-0.07522 -0.23774 4.19675 122 83 55
-0.00382 -0.24933 4.20077 122 83 55
0.07985 -0.23623 4.20816 122 83 55
0.14644 -0.20182 4.20691 122 83 55
0.20407 -0.14330 4.20443 122 83 55
0.23750 -0.07599 4.20384 122 83 55
0.26121 0.00152 4.30894 122 83 55
0.24819 0.08144 4.30879 122 83 55
0.21143 0.15339 4.30885 122 83 55
0.14999 0.21385 4.31926 122 83 55
0.07596 0.24992 4.30929 122 83 55
0.00085 0.26121 4.31536 122 83 55
-0.07900 0.24898 4.31172 122 83 55
-0.15672 0.20897 4.31779 122 83 55
-0.21020 0.15507 4.31208 122 83 55
-0.24921 0.07827 4.32514 122 83 55
-0.26117 0.00463 4.32578 122 83 55
-0.24816 -0.08152 4.31580 122 83 55
-0.21337 -0.15067 4.31770 122 83 55
-0.15258 -0.21201 4.32055 122 83 55
-0.08299 -0.24767 4.32663 122 83 55
0.00444 -0.26117 4.30874 122 83 55
0.07586 -0.24995 4.32986 122 83 55
0.14943 -0.21424 4.31153 122 83 55
0.21351 -0.15048 4.32495 122 83 55
0.24929 -0.07801 4.31254 122 83 55
0.27249 -0.00040 4.43171 122 83 55
0.26054 0.07982 4.43708 122 83 55
0.22118 0.15917 4.43404 122 83 55
0.15887 0.22139 4.43767 122 83 55
0.08554 0.25872 4.43221 122 83 55
-0.00287 0.27248 4.44953 122 83 55
-0.08445 0.25908 4.43256 122 83 55
-0.15579 0.22357 4.44620 122 83 55
-0.21765 0.16396 4.43288 122 83 55
-0.25811 0.08736 4.43169 122 83 55
-0.27249 -0.00056 4.44775 122 83 55
-0.26056 -0.07976 4.44152 122 83 55
-0.21951 -0.16146 4.43986 122 83 55
-0.16010 -0.22050 4.44676 122 83 55
-0.07973 -0.26057 4.43384 122 83 55
-0.00309 -0.27248 4.44091 122 83 55
0.08220 -0.25980 4.44624 122 83 55
0.15816 -0.22190 4.44609 122 83 55
0.22313 -0.15642 4.44579 122 83 55
0.26055 -0.07979 4.43101 122 83 55
0.27789 0.00293 4.55976 122 83 55
0.26435 0.08573 4.55972 122 83 55
0.22626 0.16137 4.55841 122 83 55
0.16506 0.22358 4.55597 122 83 55
0.08359 0.26503 4.55071 122 83 55
0.00428 0.27787 4.56977 122 83 55
-0.08059 0.26596 4.55570 122 83 55
-0.16054 0.22684 4.56350 122 83 55
-0.22406 0.16440 4.57033 122 83 55
-0.26329 0.08893 4.56660 122 83 55
-0.27788 0.00396 4.56559 122 83 55
-0.26349 -0.08835 4.55871 122 83 55
-0.22743 -0.15970 4.56431 122 83 55
-0.16262 -0.22536 4.56282 122 83 55
-0.08377 -0.26498 4.56490 122 83 55
0.00188 -0.27790 4.56575 122 83 55
0.09076 -0.26267 4.55680 122 83 55
0.15908 -0.22787 4.56508 122 83 55
0.22505 -0.16304 4.55470 122 83 55
0.26268 -0.09071 4.57229 122 83 55
0.27489 0.00088 4.67954 122 83 55
0.26261 0.08126 4.67871 122 83 55
0.22308 0.16062 4.68093 122 83 55
0.16111 0.22273 4.68175 122 83 55
0.08156 0.26251 4.67151 122 83 55
-0.00206 0.27488 4.67015 122 83 55
-0.08976 0.25982 4.67537 122 83 55
-0.16112 0.22273 4.67348 122 83 55
-0.22361 0.15989 4.67367 122 83 55
-0.26135 0.08523 4.68716 122 83 55
-0.27484 -0.00544 4.69185 122 83 55
-0.25978 -0.08990 4.67054 122 83 55
-0.22428 -0.15894 4.66923 122 83 55
-0.15804 -0.22492 4.68692 122 83 55
-0.08490 -0.26145 4.68787 122 83 55
-0.00112 -0.27489 4.69053 122 83 55
0.08390 -0.26178 4.66904 122 83 55
0.16563 -0.21939 4.67188 122 83 55
0.21919 -0.16589 4.67648 122 83 55
0.26171 -0.08411 4.67902 122 83 55
0.26487 -0.00174 4.79246 122 83 55
0.25061 0.08575 4.80844 122 83 55
0.21201 0.15879 4.79842 122 83 55
0.15889 0.21193 4.80094 122 83 55
0.08482 0.25093 4.79340 122 83 55
0.00202 0.26487 4.80345 122 83 55
-0.08292 0.25156 4.78973 122 83 55
-0.15208 0.21687 4.78973 122 83 55
-0.21422 0.15578 4.80677 122 83 55
-0.25345 0.07697 4.78851 122 83 55
-0.26488 0.00076 4.79448 122 83 55
-0.25283 -0.07896 4.80429 122 83 55
-0.21628 -0.15292 4.79020 122 83 55
-0.15908 -0.21178 4.81210 122 83 55
-0.08023 -0.25243 4.79795 122 83 55
0.00348 -0.26485 4.79374 122 83 55
0.07733 -0.25334 4.81108 122 83 55
0.15270 -0.21643 4.78948 122 83 55
0.21330 -0.15704 4.80508 122 83 55
0.25080 -0.08519 4.79505 122 83 55
0.25252 -0.00473 4.92892 122 83 55
0.24070 0.07652 4.91050 122 83 55
0.20228 0.15124 4.91420 122 83 55
0.14955 0.20353 4.91338 122 83 55
0.07726 0.24046 4.92299 122 83 55
-0.00078 0.25257 4.93007 122 83 55
-0.07861 0.24002 4.91113 122 83 55
-0.15223 0.20154 4.91037 122 83 55
-0.20244 0.15102 4.91535 122 83 55
-0.23868 0.08259 4.91662 122 83 55
-0.25256 -0.00162 4.90856 122 83 55
-0.23861 -0.08280 4.92509 122 83 55
-0.20210 -0.15148 4.91409 122 83 55
-0.15079 -0.20262 4.90820 122 83 55
-0.07411 -0.24145 4.93074 122 83 55
0.00125 -0.25256 4.92793 122 83 55
0.08113 -0.23918 4.92695 122 83 55
0.15016 -0.20308 4.92653 122 83 55
0.20451 -0.14820 4.91848 122 83 55
0.23972 -0.07952 4.93224 122 83 55
0.24371 -0.00474 5.04526 122 83 55
0.23226 0.07398 5.04878 122 83 55
0.19912 0.14059 5.02951 122 83 55
0.14116 0.19872 5.03875 122 83 55
0.07109 0.23316 5.04814 122 83 55
0.00423 0.24372 5.03719 122 83 55
-0.07849 0.23077 5.03406 122 83 55
-0.14659 0.19475 5.03792 122 83 55
-0.19696 0.14360 5.05202 122 83 55
-0.23088 0.07816 5.05151 122 83 55
-0.24372 0.00402 5.03087 122 83 55
-0.23277 -0.07235 5.04496 122 83 55
-0.19725 -0.14321 5.03058 122 83 55
-0.14369 -0.19690 5.04426 122 83 55
-0.07983 -0.23031 5.03339 122 83 55
0.00178 -0.24375 5.04277 122 83 55
0.07144 -0.23305 5.02980 122 83 55
0.14235 -0.19787 5.03875 122 83 55
0.19732 -0.14311 5.05138 122 83 55
0.23145 -0.07646 5.03264 122 83 55
0.24257 -0.00204 5.15354 122 83 55
0.23086 0.07451 5.16497 122 83 55
0.19592 0.14304 5.16782 122 83 55
0.14189 0.19676 5.16778 122 83 55
0.07733 0.22993 5.16927 122 83 55
-0.00101 0.24258 5.15327 122 83 55
-0.07424 0.23094 5.16104 122 83 55
-0.13993 0.19816 5.16966 122 83 55
-0.19468 0.14472 5.15919 122 83 55
-0.23064 0.07517 5.16085 122 83 55
-0.24256 0.00343 5.17231 122 83 55
-0.23166 -0.07196 5.15213 122 83 55
-0.19424 -0.14531 5.16665 122 83 55
-0.14555 -0.19407 5.15608 122 83 55
-0.07092 -0.23198 5.16860 122 83 55
-0.00297 -0.24256 5.15344 122 83 55
0.07271 -0.23143 5.16288 122 83 55
0.14100 -0.19740 5.16060 122 83 55
0.19722 -0.14124 5.15075 122 83 55
0.22952 -0.07853 5.15096 122 83 55
0.24960 -0.00081 5.28403 122 83 55
0.23785 0.07570 5.27426 122 83 55
0.20213 0.14644 5.28189 122 83 55
0.14638 0.20217 5.28380 122 83 55
0.07736 0.23731 5.28851 122 83 55
-0.00113 0.24960 5.28289 122 83 55
-0.07527 0.23798 5.28622 122 83 55
-0.14884 0.20037 5.28320 122 83 55
-0.19982 0.14957 5.28467 122 83 55
-0.23713 0.07793 5.27378 122 83 55
-0.24959 -0.00222 5.26809 122 83 55
-0.23813 -0.07480 5.28575 122 83 55
-0.20376 -0.14417 5.27879 122 83 55
-0.14576 -0.20262 5.28416 122 83 55
-0.07652 -0.23758 5.27636 122 83 55
0.00255 -0.24959 5.27941 122 83 55
0.08138 -0.23596 5.26833 122 83 55
0.14851 -0.20061 5.28227 122 83 55
0.20364 -0.14433 5.28912 122 83 55
0.23866 -0.07310 5.28233 122 83 55
