ply
format ascii 1.0
comment SIMULATED DEMO - NOT FIELD EVIDENCE
element vertex 900
property float x
property float y
property float z
property uchar red
property uchar green
property uchar blue
end_header
0.25998 0.00348 -0.01027 122 83 55
0.24846 0.07660 -0.01016 122 83 55
0.21222 0.15021 0.00502 122 83 55
0.15314 0.21012 -0.00236 122 83 55
0.08103 0.24705 -0.01243 122 83 55
-0.00130 0.26000 0.00405 122 83 55
-0.07942 0.24757 -0.00338 122 83 55
-0.14966 0.21261 0.00043 122 83 55
-0.20801 0.15599 -0.00761 122 83 55
-0.24562 0.08526 -0.00654 122 83 55
-0.25997 -0.00389 -0.00474 122 83 55
-0.24684 -0.08166 0.00526 122 83 55
-0.21216 -0.15029 -0.00965 122 83 55
-0.15061 -0.21193 -0.00644 122 83 55
-0.07851 -0.24786 0.00311 122 83 55
0.00380 -0.25997 0.00778 122 83 55
0.08502 -0.24571 0.00244 122 83 55
0.15185 -0.21105 0.00335 122 83 55
0.21073 -0.15230 -0.00571 122 83 55
0.24720 -0.08057 -0.00722 122 83 55
0.27158 -0.00332 0.11981 122 83 55
0.25909 0.08146 0.11323 122 83 55
0.21686 0.16351 0.11350 122 83 55
0.15738 0.22135 0.13159 122 83 55
0.08596 0.25763 0.12805 122 83 55
-0.00499 0.27155 0.10940 122 83 55
-0.08783 0.25700 0.11360 122 83 55
-0.16213 0.21789 0.13102 122 83 55
-0.21964 0.15976 0.12070 122 83 55
-0.25926 0.08092 0.12988 122 83 55
-0.27158 -0.00276 0.13233 122 83 55
-0.25685 -0.08826 0.10887 122 83 55
-0.21942 -0.16006 0.12661 122 83 55
-0.15789 -0.22099 0.12202 122 83 55
-0.08079 -0.25930 0.10804 122 83 55
0.00095 -0.27159 0.12105 122 83 55
0.08481 -0.25802 0.12654 122 83 55
0.15926 -0.22000 0.12662 122 83 55
0.21945 -0.16002 0.10952 122 83 55
0.25789 -0.08520 0.11517 122 83 55
0.27774 -0.00012 0.23375 122 83 55
0.26524 0.08238 0.23865 122 83 55
0.22479 0.16311 0.22986 122 83 55
0.16354 0.22449 0.23578 122 83 55
0.08850 0.26326 0.23863 122 83 55
0.00418 0.27771 0.24440 122 83 55
-0.09072 0.26250 0.24441 122 83 55
-0.16191 0.22566 0.23112 122 83 55
-0.22179 0.16718 0.24245 122 83 55
-0.26539 0.08191 0.23537 122 83 55
-0.27769 0.00496 0.23278 122 83 55
-0.26283 -0.08976 0.23648 122 83 55
-0.22610 -0.16131 0.23012 122 83 55
-0.16125 -0.22613 0.24855 122 83 55
-0.08500 -0.26441 0.23988 122 83 55
0.00098 -0.27774 0.23404 122 83 55
0.08225 -0.26528 0.23207 122 83 55
0.16316 -0.22476 0.23342 122 83 55
0.22426 -0.16385 0.25106 122 83 55
0.26389 -0.08661 0.23938 122 83 55
0.27553 -0.00125 0.35012 122 83 55
0.26184 0.08579 0.37038 122 83 55
0.22097 0.16460 0.35633 122 83 55
0.16045 0.22400 0.36447 122 83 55
0.08545 0.26195 0.37245 122 83 55
0.00244 0.27553 0.36581 122 83 55
-0.08153 0.26320 0.35355 122 83 55
-0.15963 0.22458 0.35723 122 83 55
-0.22564 0.15813 0.35267 122 83 55
-0.26254 0.08363 0.34871 122 83 55
-0.27551 0.00400 0.36581 122 83 55
-0.26267 -0.08321 0.36773 122 83 55
-0.22448 -0.15978 0.35291 122 83 55
-0.16350 -0.22178 0.36883 122 83 55
-0.08860 -0.26090 0.34776 122 83 55
-0.00297 -0.27552 0.36583 122 83 55
0.08797 -0.26112 0.35092 122 83 55
0.16620 -0.21977 0.37146 122 83 55
0.22571 -0.15804 0.35606 122 83 55
0.26277 -0.08291 0.36050 122 83 55
0.26601 -0.00328 0.48637 122 83 55
0.25171 0.08609 0.47366 122 83 55
0.21424 0.15771 0.48391 122 83 55
0.15701 0.21475 0.47062 122 83 55
0.08626 0.25166 0.47108 122 83 55
-0.00417 0.26600 0.49219 122 83 55
-0.07886 0.25407 0.48456 122 83 55
-0.15906 0.21324 0.47238 122 83 55
-0.21309 0.15926 0.48839 122 83 55
-0.25360 0.08038 0.47288 122 83 55
-0.26601 -0.00363 0.48401 122 83 55
-0.25372 -0.07997 0.47324 122 83 55
-0.21702 -0.15386 0.48155 122 83 55
-0.15778 -0.21419 0.47167 122 83 55
-0.08456 -0.25223 0.48261 122 83 55
0.00164 -0.26602 0.48744 122 83 55
0.07801 -0.25433 0.48123 122 83 55
0.15400 -0.21692 0.48710 122 83 55
0.21712 -0.15373 0.47091 122 83 55
0.25457 -0.07724 0.48809 122 83 55
0.25368 -0.00161 0.59698 122 83 55
0.24217 0.07557 0.59447 122 83 55
0.20273 0.15250 0.60939 122 83 55
0.14776 0.20622 0.61080 122 83 55
0.07627 0.24195 0.59791 122 83 55
0.00375 0.25366 0.60646 122 83 55
-0.07646 0.24189 0.59739 122 83 55
-0.15157 0.20343 0.60889 122 83 55
-0.20508 0.14933 0.60730 122 83 55
-0.24177 0.07683 0.61045 122 83 55
-0.25366 -0.00385 0.60601 122 83 55
-0.23970 -0.08308 0.61016 122 83 55
-0.20539 -0.14890 0.61131 122 83 55
-0.14979 -0.20474 0.60723 122 83 55
-0.07785 -0.24145 0.60016 122 83 55
-0.00178 -0.25368 0.60023 122 83 55
0.07499 -0.24235 0.60680 122 83 55
0.14842 -0.20574 0.60142 122 83 55
0.20708 -0.14654 0.59958 122 83 55
0.24213 -0.07568 0.60741 122 83 55
0.24430 -0.00270 0.71315 122 83 55
0.23133 0.07857 0.71836 122 83 55
0.19992 0.14042 0.72899 122 83 55
0.14083 0.19964 0.71417 122 83 55
0.07753 0.23168 0.72320 122 83 55
0.00419 0.24428 0.72261 122 83 55
-0.07144 0.23363 0.73227 122 83 55
-0.14390 0.19743 0.72016 122 83 55
-0.19547 0.14655 0.71816 122 83 55
-0.23129 0.07870 0.71303 122 83 55
-0.24431 -0.00062 0.72573 122 83 55
-0.23189 -0.07690 0.73177 122 83 55
-0.19493 -0.14727 0.72171 122 83 55
-0.14425 -0.19718 0.71931 122 83 55
-0.07545 -0.23237 0.71540 122 83 55
-0.00099 -0.24431 0.72830 122 83 55
0.07477 -0.23259 0.71804 122 83 55
0.14373 -0.19756 0.72524 122 83 55
0.19765 -0.14361 0.72842 122 83 55
0.23177 -0.07727 0.72966 122 83 55
0.24231 -0.00189 0.83407 122 83 55
0.22969 0.07721 0.84337 122 83 55
0.19705 0.14102 0.83346 122 83 55
0.14275 0.19581 0.84059 122 83 55
0.07706 0.22974 0.83560 122 83 55
-0.00202 0.24231 0.84135 122 83 55
-0.07200 0.23137 0.85026 122 83 55
-0.13861 0.19876 0.84658 122 83 55
-0.19431 0.14478 0.83766 122 83 55
-0.22951 0.07772 0.84479 122 83 55
-0.24229 -0.00332 0.84818 122 83 55
-0.23166 -0.07106 0.83619 122 83 55
-0.19596 -0.14254 0.82878 122 83 55
-0.14246 -0.19601 0.84166 122 83 55
-0.07528 -0.23033 0.83380 122 83 55
0.00379 -0.24229 0.85002 122 83 55
0.07187 -0.23141 0.83449 122 83 55
0.14614 -0.19329 0.83831 122 83 55
0.19516 -0.14364 0.82763 122 83 55
0.22964 -0.07734 0.83124 122 83 55
0.24864 0.00067 0.96972 122 83 55
0.23511 0.08088 0.96697 122 83 55
0.20121 0.14606 0.95488 122 83 55
0.14780 0.19994 0.95268 122 83 55
0.07972 0.23551 0.95535 122 83 55
-0.00292 0.24862 0.96991 122 83 55
-0.08036 0.23529 0.95023 122 83 55
-0.14807 0.19974 0.97043 122 83 55
-0.19912 0.14890 0.94883 122 83 55
-0.23695 0.07533 0.96010 122 83 55
-0.24863 -0.00137 0.95177 122 83 55
-0.23756 -0.07337 0.95410 122 83 55
-0.20135 -0.14588 0.96381 122 83 55
-0.14945 -0.19871 0.95843 122 83 55
-0.08116 -0.23502 0.95887 122 83 55
0.00165 -0.24863 0.96854 122 83 55
0.07368 -0.23747 0.95386 122 83 55
0.14409 -0.20263 0.95752 122 83 55
0.19959 -0.14827 0.95422 122 83 55
0.23550 -0.07976 0.95720 122 83 55
0.26029 -0.00250 1.08528 122 83 55
0.24800 0.07907 1.08709 122 83 55
0.20841 0.15596 1.08990 122 83 55
0.15231 0.21109 1.07702 122 83 55
0.08090 0.24741 1.07393 122 83 55
0.00027 0.26030 1.08088 122 83 55
-0.07953 0.24785 1.08749 122 83 55
-0.15223 0.21115 1.08486 122 83 55
-0.21190 0.15118 1.08612 122 83 55
-0.24759 0.08035 1.07010 122 83 55
-0.26030 -0.00013 1.07726 122 83 55
-0.24625 -0.08437 1.07555 122 83 55
-0.20969 -0.15423 1.07863 122 83 55
-0.15161 -0.21159 1.07855 122 83 55
-0.07654 -0.24880 1.07645 122 83 55
-0.00277 -0.26029 1.07146 122 83 55
0.08199 -0.24705 1.07767 122 83 55
0.14968 -0.21296 1.06917 122 83 55
0.20897 -0.15521 1.08153 122 83 55
0.24646 -0.08376 1.08861 122 83 55
0.27178 0.00508 1.19706 122 83 55
0.25684 0.08901 1.19224 122 83 55
0.21772 0.16275 1.19962 122 83 55
0.15616 0.22249 1.20443 122 83 55
0.08496 0.25821 1.19532 122 83 55
-0.00267 0.27181 1.21011 122 83 55
-0.07951 0.25994 1.19394 122 83 55
-0.15883 0.22059 1.20200 122 83 55
-0.21694 0.16378 1.19691 122 83 55
-0.25941 0.08121 1.19850 122 83 55
-0.27182 -0.00145 1.19325 122 83 55
-0.25753 -0.08698 1.19087 122 83 55
-0.21929 -0.16063 1.20255 122 83 55
-0.16132 -0.21878 1.19936 122 83 55
-0.08209 -0.25913 1.19049 122 83 55
-0.00147 -0.27182 1.20446 122 83 55
0.08617 -0.25781 1.18850 122 83 55
0.16256 -0.21786 1.20031 122 83 55
0.22120 -0.15799 1.20536 122 83 55
0.25905 -0.08236 1.19905 122 83 55
0.27774 0.00534 1.32003 122 83 55
0.26461 0.08454 1.31560 122 83 55
0.22656 0.16073 1.31101 122 83 55
0.15925 0.22761 1.32922 122 83 55
0.08222 0.26534 1.32885 122 83 55
-0.00249 0.27778 1.31867 122 83 55
-0.08407 0.26476 1.32481 122 83 55
-0.15912 0.22770 1.32501 122 83 55
-0.22306 0.16556 1.32967 122 83 55
-0.26378 0.08711 1.32627 122 83 55
-0.27774 0.00489 1.31317 122 83 55
-0.26456 -0.08471 1.32051 122 83 55
-0.22701 -0.16010 1.32576 122 83 55
-0.16620 -0.22258 1.30912 122 83 55
-0.08610 -0.26411 1.31039 122 83 55
0.00011 -0.27779 1.30911 122 83 55
0.08929 -0.26304 1.32866 122 83 55
0.15932 -0.22756 1.32914 122 83 55
0.22589 -0.16168 1.32662 122 83 55
0.26479 -0.08397 1.32521 122 83 55
0.27533 0.00542 1.44186 122 83 55
0.26268 0.08267 1.42829 122 83 55
0.22236 0.16246 1.44485 122 83 55
0.16624 0.21954 1.42759 122 83 55
0.08278 0.26265 1.43358 122 83 55
-0.00246 0.27537 1.44389 122 83 55
-0.08434 0.26215 1.43198 122 83 55
-0.16439 0.22094 1.43432 122 83 55
-0.22085 0.16450 1.44865 122 83 55
-0.26301 0.08162 1.45055 122 83 55
-0.27538 0.00181 1.43895 122 83 55
-0.26309 -0.08135 1.43415 122 83 55
-0.22412 -0.16002 1.43440 122 83 55
-0.16152 -0.22304 1.42866 122 83 55
-0.08651 -0.26144 1.43994 122 83 55
-0.00511 -0.27534 1.44960 122 83 55
0.08915 -0.26055 1.43061 122 83 55
0.16384 -0.22134 1.43446 122 83 55
0.22355 -0.16081 1.43558 122 83 55
0.26200 -0.08480 1.45148 122 83 55
0.26571 -0.00429 1.54859 122 83 55
0.25146 0.08595 1.57162 122 83 55
0.21771 0.15238 1.57032 122 83 55
0.15705 0.21437 1.55008 122 83 55
0.08469 0.25189 1.56422 122 83 55
0.00373 0.26572 1.56442 122 83 55
-0.07875 0.25381 1.56376 122 83 55
-0.15246 0.21766 1.56285 122 83 55
-0.21609 0.15467 1.55016 122 83 55
-0.25313 0.08089 1.55750 122 83 55
-0.26574 0.00105 1.55613 122 83 55
-0.25172 -0.08518 1.55866 122 83 55
-0.21576 -0.15514 1.57205 122 83 55
-0.15203 -0.21796 1.56717 122 83 55
-0.08242 -0.25264 1.56774 122 83 55
-0.00231 -0.26573 1.55366 122 83 55
0.08106 -0.25308 1.54876 122 83 55
0.15581 -0.21527 1.55922 122 83 55
0.21452 -0.15685 1.54762 122 83 55
0.25253 -0.08275 1.55864 122 83 55
0.25337 -0.00405 1.67679 122 83 55
0.24233 0.07409 1.67840 122 83 55
0.20468 0.14940 1.68607 122 83 55
0.14796 0.20572 1.67801 122 83 55
0.08090 0.24014 1.66867 122 83 55
0.00301 0.25339 1.67938 122 83 55
-0.07453 0.24220 1.69138 122 83 55
-0.14550 0.20747 1.68531 122 83 55
-0.20656 0.14678 1.68037 122 83 55
-0.24107 0.07808 1.68430 122 83 55
-0.25338 -0.00314 1.68060 122 83 55
-0.24015 -0.08088 1.67527 122 83 55
-0.20443 -0.14974 1.67793 122 83 55
-0.15197 -0.20278 1.69188 122 83 55
-0.08120 -0.24004 1.68434 122 83 55
-0.00089 -0.25340 1.69249 122 83 55
0.07395 -0.24237 1.66796 122 83 55
0.14555 -0.20743 1.68809 122 83 55
0.20671 -0.14657 1.69064 122 83 55
0.24241 -0.07382 1.68661 122 83 55
0.24414 -0.00335 1.79238 122 83 55
0.23295 0.07317 1.80842 122 83 55
0.20028 0.13966 1.80290 122 83 55
0.14503 0.19643 1.79410 122 83 55
0.07265 0.23311 1.81207 122 83 55
0.00098 0.24416 1.80163 122 83 55
-0.07105 0.23360 1.81193 122 83 55
-0.14203 0.19861 1.79659 122 83 55
-0.19829 0.14247 1.80470 122 83 55
-0.23271 0.07392 1.79514 122 83 55
-0.24415 0.00231 1.80694 122 83 55
-0.23318 -0.07241 1.80574 122 83 55
-0.19566 -0.14606 1.80158 122 83 55
-0.14496 -0.19648 1.81195 122 83 55
-0.07212 -0.23327 1.80076 122 83 55
-0.00398 -0.24413 1.79973 122 83 55
0.07653 -0.23186 1.78853 122 83 55
0.14608 -0.19565 1.78912 122 83 55
0.19953 -0.14073 1.79392 122 83 55
0.23143 -0.07783 1.81123 122 83 55
0.24237 0.00194 1.92086 122 83 55
0.23127 0.07251 1.92282 122 83 55
0.19769 0.14023 1.92800 122 83 55
0.14579 0.19363 1.91703 122 83 55
0.07595 0.23017 1.92745 122 83 55
-0.00386 0.24234 1.91496 122 83 55
-0.07672 0.22991 1.92790 122 83 55
-0.14557 0.19379 1.92917 122 83 55
-0.19669 0.14163 1.92877 122 83 55
-0.23027 0.07564 1.92133 122 83 55
-0.24237 0.00039 1.90821 122 83 55
-0.22952 -0.07790 1.91260 122 83 55
-0.19484 -0.14417 1.91912 122 83 55
-0.14601 -0.19346 1.92637 122 83 55
-0.07445 -0.23066 1.91866 122 83 55
0.00464 -0.24233 1.92952 122 83 55
0.07140 -0.23162 1.91277 122 83 55
0.14057 -0.19744 1.91943 122 83 55
0.19421 -0.14501 1.92863 122 83 55
0.22908 -0.07916 1.91016 122 83 55
0.24887 0.00195 2.02930 122 83 55
0.23592 0.07924 2.04769 122 83 55
0.19965 0.14859 2.05071 122 83 55
0.14955 0.19893 2.05017 122 83 55
0.08126 0.23523 2.04293 122 83 55
-0.00144 0.24887 2.04550 122 83 55
-0.08154 0.23514 2.02831 122 83 55
-0.14881 0.19948 2.03462 122 83 55
-0.20149 0.14607 2.04592 122 83 55
-0.23549 0.08053 2.04047 122 83 55
-0.24886 0.00253 2.03738 122 83 55
-0.23533 -0.08098 2.03847 122 83 55
-0.20320 -0.14370 2.05105 122 83 55
-0.14836 -0.19982 2.03591 122 83 55
-0.07787 -0.23638 2.05213 122 83 55
-0.00484 -0.24883 2.02867 122 83 55
0.07549 -0.23715 2.03315 122 83 55
0.14391 -0.20305 2.04504 122 83 55
0.19850 -0.15012 2.04988 122 83 55
0.23695 -0.07609 2.04280 122 83 55
0.26059 -0.00302 2.15969 122 83 55
0.24680 0.08368 2.15159 122 83 55
0.21051 0.15363 2.15489 122 83 55
0.15288 0.21105 2.16930 122 83 55
0.08490 0.24639 2.16045 122 83 55
0.00182 0.26060 2.17208 122 83 55
-0.07835 0.24855 2.17135 122 83 55
-0.15612 0.20867 2.15417 122 83 55
-0.21049 0.15365 2.16124 122 83 55
-0.24802 0.08001 2.16959 122 83 55
-0.26057 0.00424 2.15534 122 83 55
-0.24737 -0.08200 2.15939 122 83 55
-0.21328 -0.14976 2.15666 122 83 55
-0.15445 -0.20991 2.16915 122 83 55
-0.08462 -0.24648 2.15093 122 83 55
0.00042 -0.26060 2.14774 122 83 55
0.08217 -0.24731 2.17198 122 83 55
0.15188 -0.21177 2.14964 122 83 55
0.21357 -0.14935 2.16529 122 83 55
0.24718 -0.08257 2.16929 122 83 55
0.27204 -0.00234 2.28902 122 83 55
0.26026 0.07922 2.28728 122 83 55
0.22202 0.15722 2.28285 122 83 55
0.15719 0.22205 2.27440 122 83 55
0.07955 0.26016 2.28614 122 83 55
0.00395 0.27202 2.27570 122 83 55
-0.08059 0.25984 2.26861 122 83 55
-0.15909 0.22069 2.27832 122 83 55
-0.22092 0.15877 2.29227 122 83 55
-0.25814 0.08587 2.27253 122 83 55
-0.27202 -0.00414 2.28542 122 83 55
-0.25892 -0.08351 2.27732 122 83 55
-0.22071 -0.15906 2.27998 122 83 55
-0.16244 -0.21824 2.27256 122 83 55
-0.08208 -0.25938 2.27536 122 83 55
-0.00302 -0.27204 2.29140 122 83 55
0.08023 -0.25995 2.27269 122 83 55
0.16149 -0.21894 2.28253 122 83 55
0.22161 -0.15781 2.28017 122 83 55
0.25774 -0.08708 2.28354 122 83 55
0.27780 -0.00415 2.39083 122 83 55
0.26417 0.08604 2.39736 122 83 55
0.22657 0.16079 2.40080 122 83 55
0.16250 0.22535 2.40556 122 83 55
0.08482 0.26457 2.41217 122 83 55
0.00150 0.27783 2.40308 122 83 55
-0.08586 0.26423 2.39589 122 83 55
-0.15986 0.22723 2.39550 122 83 55
-0.22719 0.15992 2.39615 122 83 55
-0.26582 0.08082 2.40618 122 83 55
-0.27778 -0.00540 2.39447 122 83 55
-0.26497 -0.08356 2.40156 122 83 55
-0.22498 -0.16302 2.39728 122 83 55
-0.16075 -0.22661 2.38967 122 83 55
-0.08209 -0.26543 2.39764 122 83 55
0.00314 -0.27781 2.40764 122 83 55
0.09056 -0.26266 2.39263 122 83 55
0.16593 -0.22284 2.39558 122 83 55
0.22526 -0.16262 2.39428 122 83 55
0.26361 -0.08776 2.41039 122 83 55
0.27522 0.00119 2.52333 122 83 55
0.26080 0.08793 2.50909 122 83 55
0.22429 0.15951 2.51591 122 83 55
0.15995 0.22397 2.52290 122 83 55
0.07999 0.26334 2.52520 122 83 55
-0.00304 0.27521 2.51919 122 83 55
-0.08764 0.26090 2.53053 122 83 55
-0.15968 0.22416 2.52987 122 83 55
-0.22025 0.16504 2.52340 122 83 55
-0.26321 0.08043 2.53094 122 83 55
-0.27521 -0.00220 2.52559 122 83 55
-0.26144 -0.08600 2.51937 122 83 55
-0.22087 -0.16421 2.51613 122 83 55
-0.16050 -0.22358 2.52926 122 83 55
-0.08774 -0.26086 2.52997 122 83 55
0.00058 -0.27522 2.51620 122 83 55
0.08205 -0.26271 2.52246 122 83 55
0.16568 -0.21977 2.51925 122 83 55
0.22345 -0.16068 2.52508 122 83 55
0.26234 -0.08322 2.51676 122 83 55
0.26542 -0.00443 2.64410 122 83 55
0.25301 0.08034 2.64320 122 83 55
0.21418 0.15683 2.64492 122 83 55
0.15354 0.21654 2.65053 122 83 55
0.07797 0.25375 2.64139 122 83 55
-0.00345 0.26543 2.64898 122 83 55
-0.08330 0.25205 2.64035 122 83 55
-0.15187 0.21772 2.64305 122 83 55
-0.21441 0.15651 2.64821 122 83 55
-0.25188 0.08381 2.63518 122 83 55
-0.26542 -0.00467 2.63228 122 83 55
-0.25384 -0.07767 2.63053 122 83 55
-0.21207 -0.15966 2.65106 122 83 55
-0.15751 -0.21367 2.64764 122 83 55
-0.08371 -0.25191 2.62900 122 83 55
0.00352 -0.26543 2.65098 122 83 55
0.08694 -0.25081 2.63211 122 83 55
0.15978 -0.21198 2.62767 122 83 55
0.21687 -0.15308 2.63258 122 83 55
0.25179 -0.08409 2.63692 122 83 55
0.25312 0.00015 2.75139 122 83 55
0.24169 0.07523 2.76180 122 83 55
0.20659 0.14626 2.75930 122 83 55
0.14646 0.20645 2.75965 122 83 55
0.08068 0.23992 2.76800 122 83 55
-0.00171 0.25312 2.75803 122 83 55
-0.07426 0.24198 2.74912 122 83 55
-0.14862 0.20490 2.75007 122 83 55
-0.20301 0.15118 2.75039 122 83 55
-0.24065 0.07848 2.74871 122 83 55
-0.25311 0.00211 2.76428 122 83 55
-0.24133 -0.07635 2.77108 122 83 55
-0.20201 -0.15253 2.75073 122 83 55
-0.14902 -0.20460 2.77001 122 83 55
-0.07804 -0.24079 2.75194 122 83 55
-0.00442 -0.25308 2.76653 122 83 55
0.07975 -0.24023 2.76828 122 83 55
0.15177 -0.20258 2.76782 122 83 55
0.20276 -0.15153 2.77080 122 83 55
0.24203 -0.07411 2.76176 122 83 55
0.24399 0.00402 2.87687 122 83 55
0.23328 0.07161 2.88038 122 83 55
0.19558 0.14593 2.88194 122 83 55
0.14561 0.19582 2.89063 122 83 55
0.07569 0.23199 2.89148 122 83 55
0.00488 0.24398 2.87234 122 83 55
-0.07641 0.23175 2.87857 122 83 55
-0.14387 0.19710 2.87423 122 83 55
-0.19865 0.14172 2.87375 122 83 55
-0.23171 0.07654 2.87046 122 83 55
-0.24402 0.00149 2.87994 122 83 55
-0.23299 -0.07255 2.87601 122 83 55
-0.19464 -0.14719 2.87672 122 83 55
-0.14135 -0.19891 2.87583 122 83 55
-0.07542 -0.23208 2.88925 122 83 55
0.00312 -0.24400 2.88362 122 83 55
0.07673 -0.23165 2.87851 122 83 55
0.14409 -0.19694 2.87769 122 83 55
0.19997 -0.13986 2.89071 122 83 55
0.23228 -0.07480 2.89220 122 83 55
0.24241 -0.00401 3.00510 122 83 55
0.23025 0.07589 2.99376 122 83 55
0.19557 0.14328 3.01051 122 83 55
0.14357 0.19535 2.98925 122 83 55
0.07560 0.23035 2.99220 122 83 55
-0.00184 0.24243 3.01219 122 83 55
-0.07730 0.22978 2.99205 122 83 55
-0.14339 0.19549 2.99115 122 83 55
-0.19364 0.14588 3.01114 122 83 55
-0.23164 0.07154 3.01003 122 83 55
-0.24244 0.00127 3.01007 122 83 55
-0.23156 -0.07182 3.00613 122 83 55
-0.19850 -0.13919 3.00883 122 83 55
-0.14082 -0.19734 2.99831 122 83 55
-0.07935 -0.22908 2.99889 122 83 55
0.00097 -0.24244 2.99886 122 83 55
0.07379 -0.23094 3.01182 122 83 55
0.13908 -0.19858 2.99361 122 83 55
0.19774 -0.14027 2.99477 122 83 55
0.23159 -0.07172 3.00659 122 83 55
0.24910 0.00210 3.11940 122 83 55
0.23836 0.07239 3.11624 122 83 55
0.19925 0.14952 3.11727 122 83 55
0.14975 0.19908 3.13187 122 83 55
0.07723 0.23684 3.11071 122 83 55
0.00259 0.24910 3.11501 122 83 55
-0.07359 0.23799 3.11466 122 83 55
-0.15033 0.19864 3.11179 122 83 55
-0.20051 0.14783 3.11602 122 83 55
-0.23731 0.07577 3.11850 122 83 55
-0.24910 0.00244 3.12348 122 83 55
-0.23768 -0.07460 3.11386 122 83 55
-0.20084 -0.14738 3.12696 122 83 55
-0.14855 -0.19997 3.11292 122 83 55
-0.07332 -0.23808 3.11703 122 83 55
-0.00056 -0.24911 3.10834 122 83 55
0.07838 -0.23646 3.12092 122 83 55
0.14678 -0.20128 3.12155 122 83 55
0.20190 -0.14592 3.11808 122 83 55
0.23596 -0.07987 3.11722 122 83 55
0.26090 0.00209 3.24941 122 83 55
0.24961 0.07595 3.23573 122 83 55
0.21171 0.15248 3.25048 122 83 55
0.15211 0.21198 3.23978 122 83 55
0.07634 0.24949 3.24054 122 83 55
0.00468 0.26087 3.24737 122 83 55
-0.08162 0.24781 3.22998 122 83 55
-0.15136 0.21251 3.22960 122 83 55
-0.20821 0.15723 3.24061 122 83 55
-0.24663 0.08513 3.23311 122 83 55
-0.26089 -0.00343 3.24399 122 83 55
-0.24672 -0.08486 3.24823 122 83 55
-0.20944 -0.15559 3.24460 122 83 55
-0.15726 -0.20819 3.23996 122 83 55
-0.08232 -0.24758 3.24550 122 83 55
-0.00151 -0.26090 3.24543 122 83 55
0.07765 -0.24908 3.24093 122 83 55
0.15299 -0.21135 3.24756 122 83 55
0.21354 -0.14991 3.23598 122 83 55
0.24917 -0.07739 3.24090 122 83 55
0.27224 0.00436 3.37012 122 83 55
0.25965 0.08195 3.35696 122 83 55
0.21904 0.16173 3.36242 122 83 55
0.16246 0.21850 3.35759 122 83 55
0.08086 0.25999 3.34760 122 83 55
-0.00007 0.27228 3.35599 122 83 55
-0.08664 0.25812 3.35336 122 83 55
-0.15913 0.22093 3.35665 122 83 55
-0.21733 0.16401 3.35054 122 83 55
-0.26005 0.08068 3.36118 122 83 55
-0.27227 0.00080 3.36906 122 83 55
-0.25789 -0.08734 3.34884 122 83 55
-0.22102 -0.15901 3.36877 122 83 55
-0.15722 -0.22230 3.36126 122 83 55
-0.08258 -0.25945 3.36563 122 83 55
0.00038 -0.27228 3.35758 122 83 55
0.08614 -0.25829 3.36974 122 83 55
0.15757 -0.22205 3.36218 122 83 55
0.22265 -0.15672 3.34833 122 83 55
0.25907 -0.08376 3.35850 122 83 55
0.27783 -0.00458 3.47757 122 83 55
0.26355 0.08806 3.48376 122 83 55
0.22178 0.16741 3.48888 122 83 55
0.16533 0.22333 3.47059 122 83 55
0.08137 0.26569 3.49112 122 83 55
-0.00398 0.27784 3.48283 122 83 55
-0.08903 0.26322 3.48180 122 83 55
-0.16450 0.22395 3.47393 122 83 55
-0.22552 0.16234 3.49118 122 83 55
-0.26425 0.08593 3.47797 122 83 55
-0.27785 -0.00349 3.48991 122 83 55
-0.26556 -0.08180 3.47893 122 83 55
-0.22660 -0.16082 3.48666 122 83 55
-0.16505 -0.22354 3.47584 122 83 55
-0.08909 -0.26320 3.47876 122 83 55
-0.00073 -0.27787 3.47215 122 83 55
0.09051 -0.26272 3.47489 122 83 55
0.16615 -0.22273 3.47401 122 83 55
0.22155 -0.16771 3.49027 122 83 55
0.26365 -0.08776 3.48873 122 83 55
0.27505 -0.00233 3.59098 122 83 55
0.26122 0.08614 3.59039 122 83 55
0.22511 0.15807 3.60529 122 83 55
0.15975 0.22391 3.61134 122 83 55
0.08821 0.26053 3.59617 122 83 55
-0.00482 0.27502 3.59423 122 83 55
-0.08795 0.26062 3.59533 122 83 55
-0.15934 0.22421 3.59565 122 83 55
-0.22478 0.15853 3.60540 122 83 55
-0.26189 0.08409 3.58863 122 83 55
-0.27506 0.00109 3.58829 122 83 55
-0.25991 -0.09002 3.59747 122 83 55
-0.22308 -0.16092 3.60372 122 83 55
-0.16545 -0.21974 3.59472 122 83 55
-0.08358 -0.26206 3.59831 122 83 55
0.00124 -0.27506 3.60136 122 83 55
0.08479 -0.26166 3.60201 122 83 55
0.15866 -0.22469 3.61227 122 83 55
0.22362 -0.16016 3.59460 122 83 55
0.26257 -0.08194 3.60082 122 83 55
0.26516 -0.00106 3.73153 122 83 55
0.25157 0.08381 3.73196 122 83 55
0.21671 0.15281 3.70940 122 83 55
0.15243 0.21698 3.73012 122 83 55
0.08296 0.25185 3.72773 122 83 55
-0.00184 0.26516 3.72415 122 83 55
-0.08643 0.25068 3.71000 122 83 55
-0.15215 0.21717 3.72256 122 83 55
-0.21455 0.15582 3.72797 122 83 55
-0.25317 0.07884 3.72927 122 83 55
-0.26515 -0.00295 3.70977 122 83 55
-0.25198 -0.08259 3.72040 122 83 55
-0.21580 -0.15410 3.70838 122 83 55
-0.15864 -0.21248 3.72475 122 83 55
-0.08122 -0.25242 3.71832 122 83 55
-0.00090 -0.26517 3.71130 122 83 55
0.08146 -0.25234 3.70980 122 83 55
0.15456 -0.21547 3.71848 122 83 55
0.21575 -0.15417 3.73066 122 83 55
0.25192 -0.08276 3.71635 122 83 55
0.25282 -0.00369 3.82772 122 83 55
0.23964 0.08065 3.84386 122 83 55
0.20161 0.15258 3.83048 122 83 55
0.14929 0.20407 3.82966 122 83 55
0.08143 0.23937 3.84131 122 83 55
0.00086 0.25284 3.83142 122 83 55
-0.07890 0.24022 3.83244 122 83 55
-0.15197 0.20207 3.83445 122 83 55
-0.20736 0.14467 3.83153 122 83 55
-0.24162 0.07450 3.83201 122 83 55
-0.25284 -0.00061 3.83856 122 83 55
-0.23896 -0.08263 3.84582 122 83 55
-0.20442 -0.14881 3.83830 122 83 55
-0.14767 -0.20524 3.84150 122 83 55
-0.07880 -0.24025 3.83366 122 83 55
-0.00046 -0.25284 3.82999 122 83 55
0.08088 -0.23956 3.83168 122 83 55
0.14963 -0.20381 3.85213 122 83 55
0.20386 -0.14957 3.84486 122 83 55
0.24070 -0.07742 3.85011 122 83 55
0.24388 -0.00224 3.97219 122 83 55
0.23232 0.07422 3.95531 122 83 55
0.19794 0.14248 3.96513 122 83 55
0.14157 0.19859 3.96371 122 83 55
0.07783 0.23113 3.96016 122 83 55
0.00408 0.24385 3.97109 122 83 55
-0.07162 0.23313 3.96595 122 83 55
-0.14465 0.19636 3.97157 122 83 55
-0.19867 0.14146 3.94909 122 83 55
-0.23120 0.07763 3.95413 122 83 55
-0.24389 -0.00046 3.94896 122 83 55
-0.23044 -0.07987 3.96831 122 83 55
-0.19715 -0.14357 3.94819 122 83 55
-0.14247 -0.19794 3.95123 122 83 55
-0.07355 -0.23253 3.96176 122 83 55
0.00404 -0.24385 3.96945 122 83 55
0.07723 -0.23134 3.96383 122 83 55
0.14138 -0.19873 3.96050 122 83 55
0.19877 -0.14132 3.95266 122 83 55
0.23164 -0.07631 3.96504 122 83 55
0.24249 -0.00278 4.08023 122 83 55
0.23159 0.07195 4.09196 122 83 55
0.19707 0.14132 4.08962 122 83 55
0.14221 0.19644 4.07488 122 83 55
0.07790 0.22966 4.07904 122 83 55
0.00373 0.24248 4.07984 122 83 55
-0.07445 0.23080 4.06815 122 83 55
-0.14117 0.19719 4.08026 122 83 55
-0.19895 0.13867 4.07309 122 83 55
-0.23109 0.07355 4.07131 122 83 55
-0.24249 0.00301 4.08333 122 83 55
-0.23022 -0.07623 4.08232 122 83 55
-0.19759 -0.14059 4.07920 122 83 55
-0.14120 -0.19716 4.09192 122 83 55
-0.07555 -0.23044 4.09086 122 83 55
0.00149 -0.24250 4.08696 122 83 55
0.07516 -0.23057 4.07997 122 83 55
0.13963 -0.19828 4.08747 122 83 55
0.19430 -0.14511 4.08222 122 83 55
0.23055 -0.07522 4.09122 122 83 55
0.24933 0.00375 4.19974 122 83 55
0.23830 0.07343 4.19251 122 83 55
0.20034 0.14846 4.19881 122 83 55
0.14973 0.19939 4.19639 122 83 55
0.07934 0.23640 4.19451 122 83 55
0.00250 0.24934 4.20040 122 83 55
-0.08022 0.23610 4.21023 122 83 55
-0.14886 0.20005 4.19752 122 83 55
-0.20281 0.14507 4.20604 122 83 55
-0.23669 0.07846 4.20990 122 83 55
-0.24935 0.00120 4.20660 122 83 55
-0.23702 -0.07747 4.19958 122 83 55
-0.20332 -0.14436 4.20488 122 83 55
-0.14666 -0.20166 4.19835 122 83 55
-0.08042 -0.23603 4.20493 122 83 55
-0.00357 -0.24933 4.21021 122 83 55
0.08005 -0.23616 4.19757 122 83 55
0.14469 -0.20308 4.19643 122 83 55
0.20009 -0.14881 4.19456 122 83 55
0.23651 -0.07901 4.20892 122 83 55
0.26118 0.00385 4.32283 122 83 55
0.24845 0.08063 4.31444 122 83 55
0.21255 0.15184 4.32164 122 83 55
0.15598 0.20952 4.31796 122 83 55
0.07861 0.24910 4.31187 122 83 55
0.00434 0.26117 4.32014 122 83 55
-0.08323 0.24760 4.31274 122 83 55
-0.15309 0.21164 4.32471 122 83 55
-0.21336 0.15069 4.31273 122 83 55
-0.24801 0.08197 4.31822 122 83 55
-0.26121 -0.00042 4.31244 122 83 55
-0.24974 -0.07657 4.33060 122 83 55
-0.20859 -0.15722 4.32867 122 83 55
-0.15230 -0.21221 4.33125 122 83 55
-0.07657 -0.24973 4.31002 122 83 55
-0.00331 -0.26119 4.32671 122 83 55
0.08379 -0.24741 4.32067 122 83 55
0.14961 -0.21412 4.33224 122 83 55
0.21412 -0.14961 4.33025 122 83 55
0.24875 -0.07972 4.32074 122 83 55
0.27244 0.00543 4.44894 122 83 55
0.25834 0.08668 4.42876 122 83 55
0.21775 0.16382 4.43816 122 83 55
0.16391 0.21769 4.44074 122 83 55
0.08612 0.25853 4.42853 122 83 55
0.00012 0.27249 4.44860 122 83 55
-0.08246 0.25972 4.43293 122 83 55
-0.16146 0.21951 4.44029 122 83 55
-0.21810 0.16336 4.44895 122 83 55
-0.25885 0.08515 4.45202 122 83 55
-0.27245 0.00508 4.43085 122 83 55
-0.25950 -0.08314 4.43023 122 83 55
-0.22029 -0.16040 4.43297 122 83 55
-0.16337 -0.21809 4.44553 122 83 55
-0.08007 -0.26047 4.43728 122 83 55
-0.00028 -0.27249 4.43706 122 83 55
0.08070 -0.26027 4.43432 122 83 55
0.15808 -0.22196 4.44726 122 83 55
0.22005 -0.16073 4.43277 122 83 55
0.25901 -0.08467 4.43776 122 83 55
0.27787 -0.00461 4.54958 122 83 55
0.26560 0.08178 4.55391 122 83 55
0.22677 0.16065 4.54814 122 83 55
0.16771 0.22159 4.57130 122 83 55
0.08847 0.26344 4.56908 122 83 55
-0.00327 0.27788 4.55918 122 83 55
-0.09107 0.26256 4.55369 122 83 55
-0.16678 0.22230 4.55163 122 83 55
-0.22750 0.15961 4.56688 122 83 55
-0.26463 0.08486 4.54889 122 83 55
-0.27787 -0.00432 4.56245 122 83 55
-0.26539 -0.08244 4.55728 122 83 55
-0.22301 -0.16582 4.55479 122 83 55
-0.16170 -0.22602 4.54752 122 83 55
-0.09028 -0.26283 4.57249 122 83 55
0.00511 -0.27786 4.57246 122 83 55
0.08079 -0.26590 4.55044 122 83 55
0.15977 -0.22738 4.56643 122 83 55
0.22502 -0.16309 4.54830 122 83 55
0.26320 -0.08918 4.55482 122 83 55
0.27485 -0.00451 4.68450 122 83 55
0.26271 0.08094 4.67858 122 83 55
0.22296 0.16080 4.69123 122 83 55
0.15781 0.22508 4.67968 122 83 55
0.08682 0.26082 4.67186 122 83 55
-0.00353 0.27487 4.66983 122 83 55
-0.08410 0.26171 4.67399 122 83 55
-0.16492 0.21993 4.68589 122 83 55
-0.22152 0.16277 4.67192 122 83 55
-0.26006 0.08909 4.69182 122 83 55
-0.27487 -0.00359 4.68923 122 83 55
-0.26219 -0.08260 4.67318 122 83 55
-0.22275 -0.16108 4.68793 122 83 55
-0.15800 -0.22495 4.69135 122 83 55
-0.08597 -0.26110 4.68714 122 83 55
-0.00540 -0.27484 4.67615 122 83 55
0.08386 -0.26179 4.68041 122 83 55
0.16399 -0.22062 4.69142 122 83 55
0.21989 -0.16496 4.67714 122 83 55
0.26010 -0.08895 4.68979 122 83 55
0.26488 0.00053 4.79462 122 83 55
0.25096 0.08471 4.79873 122 83 55
0.21319 0.15719 4.79367 122 83 55
0.15501 0.21478 4.79652 122 83 55
0.08278 0.25161 4.80207 122 83 55
-0.00216 0.26487 4.78783 122 83 55
-0.08530 0.25077 4.80096 122 83 55
-0.15506 0.21475 4.79490 122 83 55
-0.21201 0.15878 4.80615 122 83 55
-0.25196 0.08171 4.81176 122 83 55
-0.26487 -0.00114 4.81194 122 83 55
-0.25306 -0.07824 4.80476 122 83 55
-0.21192 -0.15890 4.81178 122 83 55
-0.15800 -0.21259 4.78933 122 83 55
-0.08552 -0.25069 4.79614 122 83 55
-0.00104 -0.26487 4.79901 122 83 55
0.08545 -0.25072 4.80911 122 83 55
0.15172 -0.21712 4.79386 122 83 55
0.21459 -0.15528 4.80176 122 83 55
0.25061 -0.08576 4.81197 122 83 55
0.25256 -0.00167 4.92132 122 83 55
0.23942 0.08043 4.91861 122 83 55
0.20426 0.14855 4.91664 122 83 55
0.14634 0.20585 4.92426 122 83 55
0.07968 0.23967 4.91645 122 83 55
-0.00038 0.25257 4.91863 122 83 55
-0.07938 0.23977 4.91847 122 83 55
-0.14500 0.20680 4.92423 122 83 55
-0.20247 0.15098 4.90835 122 83 55
-0.23872 0.08247 4.92931 122 83 55
-0.25256 -0.00197 4.91395 122 83 55
-0.24159 -0.07364 4.92103 122 83 55
-0.20161 -0.15212 4.92159 122 83 55
-0.14667 -0.20562 4.91139 122 83 55
-0.07680 -0.24061 4.91703 122 83 55
-0.00375 -0.25254 4.90913 122 83 55
0.07834 -0.24011 4.92054 122 83 55
0.14905 -0.20390 4.92260 122 83 55
0.20382 -0.14915 4.91623 122 83 55
0.24156 -0.07373 4.90951 122 83 55
0.24375 0.00204 5.05245 122 83 55
0.23288 0.07199 5.04081 122 83 55
0.19611 0.14477 5.03104 122 83 55
0.14608 0.19513 5.03732 122 83 55
0.07117 0.23313 5.02961 122 83 55
-0.00319 0.24373 5.03875 122 83 55
-0.07282 0.23262 5.03230 122 83 55
-0.14427 0.19647 5.04620 122 83 55
-0.20000 0.13935 5.05055 122 83 55
-0.23191 0.07505 5.03538 122 83 55
-0.24374 0.00275 5.05180 122 83 55
-0.23295 -0.07178 5.04908 122 83 55
-0.19815 -0.14196 5.03537 122 83 55
-0.14252 -0.19774 5.04866 122 83 55
-0.07685 -0.23132 5.03075 122 83 55
0.00487 -0.24371 5.04056 122 83 55
0.07452 -0.23209 5.05004 122 83 55
0.13991 -0.19960 5.05005 122 83 55
0.19811 -0.14202 5.03244 122 83 55
0.23176 -0.07551 5.04589 122 83 55
0.24257 0.00204 5.16983 122 83 55
0.23130 0.07312 5.17045 122 83 55
0.19695 0.14162 5.16895 122 83 55
0.14591 0.19379 5.17149 122 83 55
0.07404 0.23101 5.15677 122 83 55
-0.00254 0.24257 5.15777 122 83 55
-0.07323 0.23126 5.16689 122 83 55
-0.14173 0.19687 5.15700 122 83 55
-0.19355 0.14623 5.15121 122 83 55
-0.23013 0.07672 5.16102 122 83 55
-0.24257 0.00230 5.17219 122 83 55
-0.23145 -0.07262 5.15396 122 83 55
-0.19889 -0.13888 5.15237 122 83 55
-0.14128 -0.19719 5.16601 122 83 55
-0.07820 -0.22963 5.16901 122 83 55
-0.00419 -0.24255 5.15597 122 83 55
0.07956 -0.22916 5.16304 122 83 55
0.14056 -0.19771 5.15758 122 83 55
0.19893 -0.13883 5.16266 122 83 55
0.23109 -0.07376 5.15552 122 83 55
0.24958 0.00336 5.27328 122 83 55
0.23806 0.07504 5.28339 122 83 55
0.20125 0.14764 5.27662 122 83 55
0.15000 0.19950 5.27725 122 83 55
0.07358 0.23851 5.28321 122 83 55
0.00211 0.24959 5.26928 122 83 55
-0.07606 0.23773 5.28858 122 83 55
-0.14550 0.20281 5.28789 122 83 55
-0.20258 0.14582 5.28985 122 83 55
-0.23834 0.07411 5.28620 122 83 55
-0.24960 0.00040 5.28059 122 83 55
-0.23672 -0.07916 5.28272 122 83 55
-0.20319 -0.14496 5.28804 122 83 55
-0.14658 -0.20203 5.26871 122 83 55
-0.08122 -0.23602 5.27822 122 83 55
0.00370 -0.24957 5.27353 122 83 55
0.07452 -0.23822 5.28538 122 83 55
0.14694 -0.20176 5.28498 122 83 55
0.20213 -0.14644 5.27886 122 83 55
0.23639 -0.08012 5.27828 122 83 55
