ply
format ascii 1.0
comment SIMULATED DEMO - NOT FIELD EVIDENCE
element vertex 900
property float x
property float y
property float z
property uchar red
property uchar green
property uchar blue
end_header
0.25999 0.00225 0.00795 122 83 55
0.24827 0.07723 0.00835 122 83 55
0.20993 0.15340 -0.00413 122 83 55
0.15081 0.21180 0.00455 122 83 55
0.07737 0.24822 -0.01011 122 83 55
0.00020 0.26000 0.00344 122 83 55
-0.07996 0.24740 -0.00579 122 83 55
-0.15153 0.21128 0.01211 122 83 55
-0.21082 0.15216 0.00223 122 83 55
-0.24592 0.08440 -0.00647 122 83 55
-0.25997 -0.00369 -0.00173 122 83 55
-0.24759 -0.07936 0.00504 122 83 55
-0.20945 -0.15404 -0.00888 122 83 55
-0.15644 -0.20767 0.00475 122 83 55
-0.07794 -0.24804 -0.00312 122 83 55
-0.00240 -0.25999 -0.00349 122 83 55
0.08268 -0.24650 -0.00500 122 83 55
0.15227 -0.21074 -0.00959 122 83 55
0.21312 -0.14893 -0.01247 122 83 55
0.24655 -0.08254 0.01214 122 83 55
0.27159 -0.00238 0.11798 122 83 55
0.25685 0.08828 0.12038 122 83 55
0.22118 0.15763 0.12232 122 83 55
0.16194 0.21804 0.10831 122 83 55
0.08386 0.25833 0.11099 122 83 55
-0.00314 0.27158 0.11578 122 83 55
-0.07885 0.25990 0.11187 122 83 55
-0.15559 0.22261 0.11072 122 83 55
-0.21728 0.16296 0.11081 122 83 55
-0.25896 0.08188 0.12896 122 83 55
-0.27159 0.00236 0.11194 122 83 55
-0.25888 -0.08214 0.12333 122 83 55
-0.21947 -0.16000 0.11188 122 83 55
-0.15826 -0.22072 0.11889 122 83 55
-0.08147 -0.25909 0.11786 122 83 55
-0.00337 -0.27157 0.10760 122 83 55
0.08596 -0.25763 0.12089 122 83 55
0.15536 -0.22278 0.12175 122 83 55
0.22222 -0.15615 0.11687 122 83 55
0.25984 -0.07903 0.13200 122 83 55
0.27774 -0.00121 0.24421 122 83 55
0.26401 0.08625 0.24187 122 83 55
0.22768 0.15907 0.24816 122 83 55
0.16673 0.22212 0.24190 122 83 55
0.08876 0.26317 0.23317 122 83 55
-0.00032 0.27774 0.23801 122 83 55
-0.08763 0.26355 0.24580 122 83 55
-0.15904 0.22769 0.24968 122 83 55
-0.22186 0.16708 0.23710 122 83 55
-0.26241 0.09100 0.22993 122 83 55
-0.27774 -0.00038 0.23943 122 83 55
-0.26532 -0.08211 0.24529 122 83 55
-0.22695 -0.16011 0.23917 122 83 55
-0.15886 -0.22782 0.25027 122 83 55
-0.08915 -0.26304 0.23779 122 83 55
0.00397 -0.27771 0.25196 122 83 55
0.08709 -0.26373 0.25013 122 83 55
0.16555 -0.22301 0.24174 122 83 55
0.22232 -0.16647 0.24506 122 83 55
0.26471 -0.08408 0.25235 122 83 55
0.27552 0.00273 0.35973 122 83 55
0.26276 0.08295 0.34966 122 83 55
0.22239 0.16267 0.36003 122 83 55
0.16345 0.22182 0.35998 122 83 55
0.08345 0.26260 0.37111 122 83 55
-0.00183 0.27553 0.35974 122 83 55
-0.08641 0.26164 0.35803 122 83 55
-0.15835 0.22549 0.36089 122 83 55
-0.22381 0.16071 0.36784 122 83 55
-0.26229 0.08440 0.35624 122 83 55
-0.27551 0.00400 0.35572 122 83 55
-0.26043 -0.08997 0.35075 122 83 55
-0.21982 -0.16613 0.36392 122 83 55
-0.15864 -0.22529 0.35041 122 83 55
-0.08871 -0.26087 0.35869 122 83 55
-0.00519 -0.27549 0.36719 122 83 55
0.08395 -0.26244 0.36147 122 83 55
0.15956 -0.22464 0.35427 122 83 55
0.22502 -0.15902 0.36685 122 83 55
0.26345 -0.08072 0.36746 122 83 55
0.26598 -0.00494 0.49131 122 83 55
0.25195 0.08541 0.47463 122 83 55
0.21262 0.15989 0.48762 122 83 55
0.15857 0.21361 0.47640 122 83 55
0.08683 0.25146 0.48635 122 83 55
0.00502 0.26598 0.47755 122 83 55
-0.08612 0.25171 0.48201 122 83 55
-0.15309 0.21756 0.47978 122 83 55
-0.21594 0.15538 0.48772 122 83 55
-0.25244 0.08394 0.47296 122 83 55
-0.26603 -0.00084 0.46839 122 83 55
-0.25203 -0.08517 0.48782 122 83 55
-0.21386 -0.15823 0.48382 122 83 55
-0.15964 -0.21281 0.46973 122 83 55
-0.08353 -0.25258 0.48421 122 83 55
-0.00244 -0.26602 0.46919 122 83 55
0.08025 -0.25364 0.48207 122 83 55
0.15781 -0.21417 0.47597 122 83 55
0.21807 -0.15237 0.48040 122 83 55
0.25152 -0.08666 0.48019 122 83 55
0.25366 -0.00369 0.58861 122 83 55
0.24240 0.07481 0.59465 122 83 55
0.20396 0.15085 0.59870 122 83 55
0.14549 0.20782 0.58929 122 83 55
0.08215 0.24002 0.59562 122 83 55
-0.00097 0.25368 0.58955 122 83 55
-0.07863 0.24119 0.60669 122 83 55
-0.15167 0.20335 0.59701 122 83 55
-0.20349 0.15149 0.60167 122 83 55
-0.24040 0.08103 0.59657 122 83 55
-0.25368 0.00202 0.59076 122 83 55
-0.24090 -0.07951 0.60108 122 83 55
-0.20233 -0.15304 0.58971 122 83 55
-0.14961 -0.20487 0.60522 122 83 55
-0.07391 -0.24268 0.60676 122 83 55
-0.00221 -0.25368 0.60690 122 83 55
0.07922 -0.24100 0.58798 122 83 55
0.14633 -0.20723 0.61058 122 83 55
0.20239 -0.15295 0.58854 122 83 55
0.24213 -0.07568 0.60834 122 83 55
0.24431 -0.00092 0.71365 122 83 55
0.23339 0.07223 0.71044 122 83 55
0.19615 0.14565 0.71434 122 83 55
0.14589 0.19597 0.71384 122 83 55
0.07806 0.23150 0.72436 122 83 55
0.00144 0.24431 0.72285 122 83 55
-0.07884 0.23124 0.73085 122 83 55
-0.14719 0.19499 0.71786 122 83 55
-0.20023 0.13999 0.72749 122 83 55
-0.23195 0.07674 0.72392 122 83 55
-0.24430 -0.00246 0.71027 122 83 55
-0.23106 -0.07937 0.71754 122 83 55
-0.19505 -0.14711 0.72229 122 83 55
-0.14019 -0.20009 0.73096 122 83 55
-0.07647 -0.23204 0.71499 122 83 55
0.00274 -0.24430 0.72482 122 83 55
0.07870 -0.23129 0.72482 122 83 55
0.14347 -0.19775 0.73094 122 83 55
0.19874 -0.14209 0.72026 122 83 55
0.23196 -0.07670 0.72372 122 83 55
0.24227 -0.00474 0.85069 122 83 55
0.22952 0.07770 0.82923 122 83 55
0.19645 0.14186 0.84454 122 83 55
0.14587 0.19349 0.84807 122 83 55
0.07477 0.23049 0.83062 122 83 55
-0.00197 0.24231 0.84367 122 83 55
-0.07768 0.22953 0.83773 122 83 55
-0.14034 0.19754 0.82943 122 83 55
-0.19698 0.14113 0.83380 122 83 55
-0.23119 0.07260 0.84399 122 83 55
-0.24232 -0.00009 0.85220 122 83 55
-0.22943 -0.07797 0.84045 122 83 55
-0.19796 -0.13974 0.84906 122 83 55
-0.14549 -0.19378 0.83646 122 83 55
-0.07615 -0.23004 0.84661 122 83 55
0.00432 -0.24228 0.83338 122 83 55
0.07685 -0.22981 0.84891 122 83 55
0.14178 -0.19651 0.84394 122 83 55
0.19614 -0.14229 0.84758 122 83 55
0.23032 -0.07531 0.84910 122 83 55
0.24863 -0.00168 0.96129 122 83 55
0.23580 0.07887 0.95617 122 83 55
0.20269 0.14401 0.96915 122 83 55
0.14398 0.20271 0.97123 122 83 55
0.08080 0.23514 0.94924 122 83 55
0.00047 0.24864 0.95043 122 83 55
-0.07409 0.23734 0.96503 122 83 55
-0.14704 0.20050 0.95078 122 83 55
-0.20097 0.14639 0.94828 122 83 55
-0.23662 0.07638 0.95747 122 83 55
-0.24864 0.00038 0.96373 122 83 55
-0.23535 -0.08020 0.95091 122 83 55
-0.20194 -0.14506 0.96171 122 83 55
-0.14595 -0.20129 0.94779 122 83 55
-0.07406 -0.23735 0.96143 122 83 55
-0.00063 -0.24864 0.96216 122 83 55
0.07663 -0.23653 0.96362 122 83 55
0.14766 -0.20004 0.96318 122 83 55
0.20291 -0.14369 0.94771 122 83 55
0.23591 -0.07853 0.96292 122 83 55
0.26030 -0.00087 1.08479 122 83 55
0.24790 0.07939 1.06863 122 83 55
0.21073 0.15281 1.08904 122 83 55
0.15268 0.21082 1.07518 122 83 55
0.08253 0.24687 1.08134 122 83 55
0.00160 0.26030 1.07454 122 83 55
-0.07862 0.24815 1.07018 122 83 55
-0.15118 0.21190 1.09068 122 83 55
-0.21293 0.14973 1.08626 122 83 55
-0.24908 0.07562 1.07917 122 83 55
-0.26026 0.00467 1.06826 122 83 55
-0.24890 -0.07620 1.09230 122 83 55
-0.21111 -0.15228 1.06869 122 83 55
-0.14944 -0.21313 1.08155 122 83 55
-0.07640 -0.24884 1.08482 122 83 55
0.00475 -0.26026 1.07080 122 83 55
0.08334 -0.24660 1.07607 122 83 55
0.15247 -0.21097 1.08953 122 83 55
0.21017 -0.15358 1.08550 122 83 55
0.24854 -0.07736 1.08686 122 83 55
0.27183 0.00023 1.20903 122 83 55
0.25996 0.07942 1.19829 122 83 55
0.21736 0.16323 1.19770 122 83 55
0.15819 0.22106 1.20342 122 83 55
0.08822 0.25711 1.20415 122 83 55
0.00355 0.27180 1.18906 122 83 55
-0.08125 0.25940 1.19094 122 83 55
-0.15703 0.22188 1.18837 122 83 55
-0.22297 0.15547 1.19954 122 83 55
-0.25927 0.08167 1.19820 122 83 55
-0.27182 -0.00088 1.19008 122 83 55
-0.26012 -0.07890 1.18751 122 83 55
-0.22168 -0.15731 1.20818 122 83 55
-0.15568 -0.22283 1.20663 122 83 55
-0.08572 -0.25796 1.19637 122 83 55
-0.00121 -0.27182 1.19285 122 83 55
0.08359 -0.25866 1.19911 122 83 55
0.15763 -0.22145 1.19944 122 83 55
0.22184 -0.15709 1.19125 122 83 55
0.25937 -0.08133 1.20619 122 83 55
0.27778 0.00205 1.31145 122 83 55
0.26250 0.09089 1.32098 122 83 55
0.22523 0.16259 1.32302 122 83 55
0.16435 0.22395 1.32309 122 83 55
0.08655 0.26396 1.32614 122 83 55
0.00074 0.27779 1.32515 122 83 55
-0.08591 0.26417 1.32631 122 83 55
-0.15944 0.22748 1.31203 122 83 55
-0.22537 0.16240 1.32064 122 83 55
-0.26542 0.08195 1.32101 122 83 55
-0.27779 -0.00093 1.32434 122 83 55
-0.26585 -0.08054 1.31401 122 83 55
-0.22282 -0.16588 1.33131 122 83 55
-0.16300 -0.22494 1.31379 122 83 55
-0.08801 -0.26348 1.31400 122 83 55
-0.00002 -0.27779 1.31237 122 83 55
0.08331 -0.26500 1.32367 122 83 55
0.16601 -0.22273 1.31608 122 83 55
0.22693 -0.16021 1.30880 122 83 55
0.26244 -0.09105 1.32296 122 83 55
0.27538 -0.00127 1.44544 122 83 55
0.26227 0.08396 1.42946 122 83 55
0.22597 0.15740 1.43951 122 83 55
0.16612 0.21964 1.42963 122 83 55
0.08285 0.26262 1.43745 122 83 55
-0.00070 0.27538 1.44634 122 83 55
-0.08746 0.26113 1.43776 122 83 55
-0.15862 0.22511 1.44003 122 83 55
-0.22336 0.16108 1.45228 122 83 55
-0.26184 0.08529 1.44719 122 83 55
-0.27537 0.00269 1.45231 122 83 55
-0.26308 -0.08140 1.43665 122 83 55
-0.22404 -0.16013 1.43077 122 83 55
-0.16123 -0.22325 1.44304 122 83 55
-0.08146 -0.26306 1.44824 122 83 55
-0.00343 -0.27536 1.44834 122 83 55
0.08889 -0.26064 1.43633 122 83 55
0.16594 -0.21978 1.43829 122 83 55
0.21970 -0.16603 1.43891 122 83 55
0.26346 -0.08015 1.44195 122 83 55
0.26573 -0.00265 1.57205 122 83 55
0.25112 0.08694 1.56386 122 83 55
0.21536 0.15570 1.55072 122 83 55
0.15997 0.21220 1.55942 122 83 55
0.08395 0.25213 1.55565 122 83 55
-0.00245 0.26573 1.55561 122 83 55
-0.07926 0.25365 1.57073 122 83 55
-0.15376 0.21674 1.55009 122 83 55
-0.21307 0.15881 1.55219 122 83 55
-0.25343 0.07994 1.55316 122 83 55
-0.26570 -0.00474 1.55202 122 83 55
-0.25166 -0.08536 1.54842 122 83 55
-0.21637 -0.15429 1.56466 122 83 55
-0.15606 -0.21509 1.56889 122 83 55
-0.08527 -0.25169 1.55190 122 83 55
-0.00188 -0.26574 1.57194 122 83 55
0.08494 -0.25180 1.55734 122 83 55
0.15669 -0.21464 1.55238 122 83 55
0.21533 -0.15573 1.55301 122 83 55
0.25366 -0.07921 1.56453 122 83 55
0.25338 0.00343 1.68698 122 83 55
0.23968 0.08227 1.67507 122 83 55
0.20589 0.14772 1.69205 122 83 55
0.14906 0.20493 1.68503 122 83 55
0.08123 0.24003 1.69178 122 83 55
0.00318 0.25338 1.68528 122 83 55
-0.08102 0.24010 1.67152 122 83 55
-0.14945 0.20464 1.69120 122 83 55
-0.20461 0.14950 1.68822 122 83 55
-0.24085 0.07876 1.68357 122 83 55
-0.25339 -0.00222 1.67913 122 83 55
-0.24025 -0.08059 1.66886 122 83 55
-0.20344 -0.15108 1.67567 122 83 55
-0.15094 -0.20355 1.66831 122 83 55
-0.08284 -0.23948 1.69010 122 83 55
-0.00394 -0.25337 1.68152 122 83 55
0.07729 -0.24133 1.67380 122 83 55
0.15038 -0.20396 1.67666 122 83 55
0.20482 -0.14921 1.67723 122 83 55
0.24251 -0.07351 1.69018 122 83 55
0.24417 -0.00033 1.79288 122 83 55
0.23236 0.07501 1.79585 122 83 55
0.19958 0.14065 1.80383 122 83 55
0.14091 0.19940 1.79351 122 83 55
0.07528 0.23227 1.81177 122 83 55
0.00313 0.24415 1.79472 122 83 55
-0.07549 0.23220 1.79940 122 83 55
-0.14065 0.19959 1.78834 122 83 55
-0.19782 0.14312 1.78883 122 83 55
-0.23237 0.07496 1.80061 122 83 55
-0.24412 -0.00458 1.79318 122 83 55
-0.23195 -0.07626 1.80042 122 83 55
-0.19681 -0.14450 1.80559 122 83 55
-0.14202 -0.19861 1.79658 122 83 55
-0.07988 -0.23073 1.80545 122 83 55
-0.00434 -0.24413 1.81056 122 83 55
0.07129 -0.23353 1.79326 122 83 55
0.14348 -0.19756 1.78888 122 83 55
0.20004 -0.14000 1.79675 122 83 55
0.23314 -0.07256 1.80103 122 83 55
0.24235 -0.00369 1.91700 122 83 55
0.23163 0.07137 1.91981 122 83 55
0.19852 0.13905 1.92476 122 83 55
0.14074 0.19733 1.92229 122 83 55
0.07593 0.23017 1.91808 122 83 55
0.00062 0.24237 1.92585 122 83 55
-0.07600 0.23015 1.90914 122 83 55
-0.14273 0.19589 1.93003 122 83 55
-0.19642 0.14201 1.91378 122 83 55
-0.23090 0.07368 1.91608 122 83 55
-0.24234 0.00384 1.92909 122 83 55
-0.23128 -0.07250 1.91750 122 83 55
-0.19381 -0.14554 1.93016 122 83 55
-0.13999 -0.19786 1.92096 122 83 55
-0.07714 -0.22977 1.92875 122 83 55
-0.00036 -0.24237 1.91824 122 83 55
0.07221 -0.23137 1.91759 122 83 55
0.14410 -0.19489 1.91140 122 83 55
0.19649 -0.14191 1.93042 122 83 55
0.23178 -0.07087 1.92899 122 83 55
0.24887 -0.00090 2.04914 122 83 55
0.23696 0.07608 2.03815 122 83 55
0.20211 0.14522 2.03058 122 83 55
0.14997 0.19861 2.02801 122 83 55
0.07583 0.23704 2.05176 122 83 55
0.00295 0.24886 2.04150 122 83 55
-0.07641 0.23685 2.02873 122 83 55
-0.14539 0.20199 2.03870 122 83 55
-0.20321 0.14368 2.04526 122 83 55
-0.23645 0.07764 2.03125 122 83 55
-0.24886 0.00210 2.03904 122 83 55
-0.23669 -0.07693 2.03847 122 83 55
-0.20336 -0.14346 2.03913 122 83 55
-0.14702 -0.20080 2.03710 122 83 55
-0.07389 -0.23765 2.03482 122 83 55
0.00012 -0.24887 2.03803 122 83 55
0.07823 -0.23626 2.03716 122 83 55
0.14631 -0.20132 2.02923 122 83 55
0.20273 -0.14435 2.05079 122 83 55
0.23805 -0.07260 2.03086 122 83 55
0.26060 0.00105 2.14986 122 83 55
0.24906 0.07672 2.15926 122 83 55
0.21127 0.15257 2.16815 122 83 55
0.15227 0.21149 2.16315 122 83 55
0.08001 0.24802 2.16470 122 83 55
-0.00364 0.26058 2.17152 122 83 55
-0.07939 0.24822 2.15751 122 83 55
-0.15246 0.21136 2.14886 122 83 55
-0.21206 0.15147 2.14920 122 83 55
-0.24844 0.07869 2.15964 122 83 55
-0.26059 0.00256 2.15460 122 83 55
-0.24806 -0.07989 2.15531 122 83 55
-0.20777 -0.15731 2.16176 122 83 55
-0.15532 -0.20927 2.16837 122 83 55
-0.08151 -0.24753 2.16877 122 83 55
0.00411 -0.26057 2.15889 122 83 55
0.08270 -0.24713 2.17037 122 83 55
0.14978 -0.21327 2.16585 122 83 55
0.20811 -0.15687 2.14934 122 83 55
0.24709 -0.08283 2.17118 122 83 55
0.27204 0.00216 2.27907 122 83 55
0.25992 0.08032 2.28609 122 83 55
0.22304 0.15578 2.28477 122 83 55
0.16036 0.21976 2.28540 122 83 55
0.08917 0.25702 2.28731 122 83 55
0.00514 0.27200 2.29178 122 83 55
-0.08886 0.25713 2.28460 122 83 55
-0.16393 0.21712 2.26810 122 83 55
-0.21865 0.16188 2.28201 122 83 55
-0.25938 0.08207 2.28243 122 83 55
-0.27203 0.00368 2.26922 122 83 55
-0.25958 -0.08142 2.27123 122 83 55
-0.21970 -0.16044 2.28753 122 83 55
-0.15641 -0.22259 2.27285 122 83 55
-0.07889 -0.26036 2.29250 122 83 55
-0.00537 -0.27200 2.28946 122 83 55
0.08675 -0.25785 2.27342 122 83 55
0.16301 -0.21781 2.29186 122 83 55
0.22239 -0.15670 2.27212 122 83 55
0.25914 -0.08282 2.28788 122 83 55
0.27783 0.00110 2.39492 122 83 55
0.26269 0.09046 2.40139 122 83 55
0.22363 0.16486 2.40286 122 83 55
0.16235 0.22546 2.39997 122 83 55
0.08920 0.26312 2.39142 122 83 55
0.00097 0.27783 2.41087 122 83 55
-0.09080 0.26258 2.40256 122 83 55
-0.16017 0.22702 2.39586 122 83 55
-0.22217 0.16682 2.39255 122 83 55
-0.26342 0.08833 2.41190 122 83 55
-0.27783 -0.00044 2.39101 122 83 55
-0.26345 -0.08823 2.39598 122 83 55
-0.22717 -0.15996 2.40724 122 83 55
-0.16715 -0.22192 2.40831 122 83 55
-0.08438 -0.26471 2.40156 122 83 55
0.00236 -0.27782 2.40495 122 83 55
0.08489 -0.26454 2.39548 122 83 55
0.16715 -0.22192 2.39141 122 83 55
0.22639 -0.16106 2.40062 122 83 55
0.26303 -0.08946 2.39081 122 83 55
0.27521 -0.00217 2.52298 122 83 55
0.26179 0.08495 2.51070 122 83 55
0.21997 0.16542 2.51488 122 83 55
0.16147 0.22288 2.50956 122 83 55
0.08264 0.26252 2.52358 122 83 55
-0.00534 0.27517 2.51475 122 83 55
-0.08630 0.26134 2.51648 122 83 55
-0.16259 0.22206 2.52504 122 83 55
-0.21997 0.16541 2.51948 122 83 55
-0.26133 0.08634 2.51251 122 83 55
-0.27521 0.00249 2.51582 122 83 55
-0.26252 -0.08265 2.52405 122 83 55
-0.22101 -0.16402 2.52434 122 83 55
-0.16139 -0.22294 2.52987 122 83 55
-0.08821 -0.26070 2.51233 122 83 55
0.00184 -0.27522 2.52686 122 83 55
0.08100 -0.26304 2.52910 122 83 55
0.16199 -0.22250 2.51152 122 83 55
0.22083 -0.16426 2.52801 122 83 55
0.26024 -0.08957 2.51798 122 83 55
0.26544 -0.00328 2.64570 122 83 55
0.25131 0.08551 2.64318 122 83 55
0.21276 0.15874 2.64870 122 83 55
0.15994 0.21186 2.64731 122 83 55
0.07888 0.25347 2.63355 122 83 55
-0.00409 0.26542 2.64409 122 83 55
-0.08522 0.25141 2.64829 122 83 55
-0.15696 0.21408 2.65149 122 83 55
-0.21376 0.15740 2.63384 122 83 55
-0.25187 0.08383 2.62985 122 83 55
-0.26545 -0.00176 2.64566 122 83 55
-0.25263 -0.08153 2.64567 122 83 55
-0.21170 -0.16015 2.63668 122 83 55
-0.15490 -0.21557 2.64551 122 83 55
-0.08442 -0.25168 2.64445 122 83 55
-0.00322 -0.26544 2.63556 122 83 55
0.08351 -0.25198 2.63100 122 83 55
0.15734 -0.21380 2.64409 122 83 55
0.21381 -0.15733 2.63068 122 83 55
0.25334 -0.07927 2.64975 122 83 55
0.25312 -0.00141 2.76231 122 83 55
0.24161 0.07548 2.76028 122 83 55
0.20503 0.14843 2.75310 122 83 55
0.14628 0.20657 2.76738 122 83 55
0.08045 0.24000 2.74827 122 83 55
-0.00336 0.25310 2.75453 122 83 55
-0.07767 0.24091 2.76144 122 83 55
-0.14540 0.20720 2.76615 122 83 55
-0.20280 0.15148 2.75204 122 83 55
-0.24055 0.07879 2.75243 122 83 55
-0.25312 -0.00054 2.75243 122 83 55
-0.24185 -0.07471 2.76559 122 83 55
-0.20396 -0.14991 2.76346 122 83 55
-0.15099 -0.20316 2.75445 122 83 55
-0.08233 -0.23936 2.74862 122 83 55
0.00253 -0.25311 2.76565 122 83 55
0.08005 -0.24013 2.76306 122 83 55
0.14886 -0.20472 2.76586 122 83 55
0.20495 -0.14855 2.76007 122 83 55
0.24135 -0.07629 2.75566 122 83 55
0.24398 -0.00462 2.86886 122 83 55
0.23161 0.07684 2.87216 122 83 55
0.19766 0.14310 2.87874 122 83 55
0.14397 0.19703 2.86849 122 83 55
0.07240 0.23304 2.89097 122 83 55
0.00390 0.24399 2.88462 122 83 55
-0.07764 0.23134 2.88086 122 83 55
-0.14626 0.19533 2.88017 122 83 55
-0.19511 0.14656 2.86906 122 83 55
-0.23182 0.07620 2.88128 122 83 55
-0.24402 0.00011 2.88695 122 83 55
-0.23295 -0.07267 2.87966 122 83 55
-0.19658 -0.14459 2.86757 122 83 55
-0.14406 -0.19696 2.86822 122 83 55
-0.07541 -0.23208 2.87972 122 83 55
0.00397 -0.24399 2.88411 122 83 55
0.07536 -0.23210 2.87879 122 83 55
0.14252 -0.19808 2.88607 122 83 55
0.19615 -0.14517 2.87983 122 83 55
0.23236 -0.07455 2.87425 122 83 55
0.24239 0.00469 3.00871 122 83 55
0.23125 0.07281 3.01198 122 83 55
0.19546 0.14343 3.00438 122 83 55
0.14553 0.19390 3.00024 122 83 55
0.07619 0.23016 2.99571 122 83 55
0.00426 0.24240 3.00673 122 83 55
-0.07710 0.22985 3.00825 122 83 55
-0.14355 0.19537 3.00773 122 83 55
-0.19874 0.13884 3.01206 122 83 55
-0.22940 0.07845 3.00730 122 83 55
-0.24239 -0.00471 3.00827 122 83 55
-0.22966 -0.07767 3.00934 122 83 55
-0.19357 -0.14597 2.99822 122 83 55
-0.14146 -0.19689 2.98968 122 83 55
-0.07843 -0.22940 2.99016 122 83 55
0.00435 -0.24240 3.00130 122 83 55
0.07567 -0.23033 3.00496 122 83 55
0.13961 -0.19820 3.00200 122 83 55
0.19394 -0.14547 2.99830 122 83 55
0.23027 -0.07584 3.00057 122 83 55
0.24909 -0.00364 3.11828 122 83 55
0.23830 0.07259 3.11797 122 83 55
0.20097 0.14721 3.10836 122 83 55
0.14402 0.20326 3.12715 122 83 55
0.07918 0.23619 3.11719 122 83 55
0.00214 0.24910 3.11063 122 83 55
-0.07923 0.23618 3.10767 122 83 55
-0.14658 0.20143 3.13176 122 83 55
-0.19879 0.15014 3.11423 122 83 55
-0.23542 0.08144 3.12147 122 83 55
-0.24909 -0.00323 3.10840 122 83 55
-0.23799 -0.07361 3.11883 122 83 55
-0.20189 -0.14594 3.12885 122 83 55
-0.14740 -0.20082 3.12477 122 83 55
-0.07872 -0.23635 3.11867 122 83 55
0.00495 -0.24906 3.11475 122 83 55
0.07724 -0.23684 3.11859 122 83 55
0.14424 -0.20311 3.11229 122 83 55
0.20148 -0.14650 3.12130 122 83 55
0.23760 -0.07486 3.13152 122 83 55
0.26087 -0.00443 3.24309 122 83 55
0.24931 0.07692 3.24833 122 83 55
0.21015 0.15463 3.23553 122 83 55
0.14935 0.21393 3.25065 122 83 55
0.07741 0.24916 3.23588 122 83 55
0.00301 0.26089 3.24501 122 83 55
-0.08448 0.24685 3.23643 122 83 55
-0.14990 0.21354 3.25237 122 83 55
-0.20965 0.15530 3.23399 122 83 55
-0.24721 0.08344 3.23291 122 83 55
-0.26091 0.00081 3.23220 122 83 55
-0.24668 -0.08499 3.24021 122 83 55
-0.21388 -0.14942 3.24042 122 83 55
-0.15303 -0.21131 3.25204 122 83 55
-0.08083 -0.24807 3.24928 122 83 55
0.00215 -0.26090 3.23580 122 83 55
0.08355 -0.24717 3.24433 122 83 55
0.15218 -0.21193 3.23807 122 83 55
0.21265 -0.15117 3.25019 122 83 55
0.24918 -0.07736 3.24409 122 83 55
0.27226 0.00268 3.34916 122 83 55
0.25777 0.08767 3.35393 122 83 55
0.22062 0.15956 3.35931 122 83 55
0.15588 0.22323 3.36379 122 83 55
0.08235 0.25952 3.35843 122 83 55
0.00140 0.27227 3.36666 122 83 55
-0.08718 0.25794 3.37135 122 83 55
-0.15595 0.22319 3.36819 122 83 55
-0.22060 0.15959 3.36949 122 83 55
-0.26019 0.08021 3.36965 122 83 55
-0.27226 0.00256 3.36773 122 83 55
-0.25960 -0.08209 3.35624 122 83 55
-0.21883 -0.16201 3.34995 122 83 55
-0.16253 -0.21844 3.35013 122 83 55
-0.08687 -0.25805 3.36570 122 83 55
0.00031 -0.27228 3.34898 122 83 55
0.08557 -0.25848 3.37203 122 83 55
0.16086 -0.21967 3.35196 122 83 55
0.21876 -0.16210 3.35033 122 83 55
0.25796 -0.08712 3.35626 122 83 55
0.27784 -0.00397 3.47968 122 83 55
0.26566 0.08145 3.48382 122 83 55
0.22199 0.16713 3.48925 122 83 55
0.16007 0.22713 3.48878 122 83 55
0.08748 0.26374 3.48848 122 83 55
0.00352 0.27785 3.47264 122 83 55
-0.08259 0.26531 3.48028 122 83 55
-0.16187 0.22585 3.49046 122 83 55
-0.22183 0.16734 3.46841 122 83 55
-0.26407 0.08647 3.48734 122 83 55
-0.27787 0.00113 3.48180 122 83 55
-0.26503 -0.08348 3.49108 122 83 55
-0.22332 -0.16534 3.48440 122 83 55
-0.16640 -0.22253 3.48290 122 83 55
-0.08309 -0.26516 3.47596 122 83 55
0.00035 -0.27787 3.47930 122 83 55
0.08125 -0.26573 3.46970 122 83 55
0.15980 -0.22732 3.48978 122 83 55
0.22449 -0.16376 3.48974 122 83 55
0.26509 -0.08331 3.47088 122 83 55
0.27502 -0.00445 3.60704 122 83 55
0.26194 0.08394 3.59859 122 83 55
0.22420 0.15936 3.59876 122 83 55
0.15807 0.22511 3.59737 122 83 55
0.08128 0.26278 3.59267 122 83 55
0.00215 0.27505 3.59012 122 83 55
-0.08712 0.26090 3.58892 122 83 55
-0.15751 0.22550 3.58996 122 83 55
-0.22330 0.16061 3.60813 122 83 55
-0.26068 0.08777 3.61062 122 83 55
-0.27501 -0.00538 3.60089 122 83 55
-0.26021 -0.08916 3.60874 122 83 55
-0.22115 -0.16355 3.59989 122 83 55
-0.15970 -0.22395 3.59249 122 83 55
-0.08864 -0.26039 3.60738 122 83 55
0.00313 -0.27504 3.59223 122 83 55
0.08871 -0.26036 3.59174 122 83 55
0.16157 -0.22260 3.59517 122 83 55
0.21950 -0.16577 3.59821 122 83 55
0.26109 -0.08654 3.60223 122 83 55
0.26513 -0.00419 3.73011 122 83 55
0.25192 0.08276 3.71648 122 83 55
0.21298 0.15796 3.72322 122 83 55
0.15548 0.21480 3.71401 122 83 55
0.08369 0.25161 3.71204 122 83 55
-0.00052 0.26517 3.72409 122 83 55
-0.08337 0.25172 3.71801 122 83 55
-0.15632 0.21419 3.72676 122 83 55
-0.21295 0.15800 3.72112 122 83 55
-0.25285 0.07988 3.73248 122 83 55
-0.26513 -0.00467 3.71240 122 83 55
-0.25100 -0.08552 3.71938 122 83 55
-0.21713 -0.15222 3.72113 122 83 55
-0.15645 -0.21410 3.72513 122 83 55
-0.07843 -0.25330 3.72186 122 83 55
-0.00205 -0.26516 3.72663 122 83 55
0.08359 -0.25165 3.70756 122 83 55
0.15643 -0.21411 3.72199 122 83 55
0.21304 -0.15788 3.72155 122 83 55
0.25154 -0.08392 3.71046 122 83 55
0.25283 -0.00260 3.84188 122 83 55
0.23939 0.08137 3.84233 122 83 55
0.20718 0.14494 3.82839 122 83 55
0.14451 0.20748 3.85185 122 83 55
0.07587 0.24119 3.84371 122 83 55
0.00138 0.25284 3.83788 122 83 55
-0.08174 0.23927 3.84077 122 83 55
-0.14933 0.20403 3.83774 122 83 55
-0.20517 0.14777 3.84071 122 83 55
-0.23958 0.08081 3.84628 122 83 55
-0.25284 -0.00076 3.83615 122 83 55
-0.23998 -0.07961 3.84346 122 83 55
-0.20585 -0.14681 3.85133 122 83 55
-0.15209 -0.20198 3.83980 122 83 55
-0.08163 -0.23930 3.85147 122 83 55
0.00079 -0.25284 3.83538 122 83 55
0.07479 -0.24153 3.85039 122 83 55
0.15147 -0.20245 3.84446 122 83 55
0.20277 -0.15105 3.84635 122 83 55
0.23887 -0.08288 3.84384 122 83 55
0.24386 -0.00378 3.96743 122 83 55
0.23190 0.07552 3.95439 122 83 55
0.19925 0.14064 3.94914 122 83 55
0.14430 0.19662 3.95652 122 83 55
0.07386 0.23243 3.96791 122 83 55
-0.00360 0.24386 3.96653 122 83 55
-0.07783 0.23113 3.96073 122 83 55
-0.14372 0.19704 3.95699 122 83 55
-0.19787 0.14258 3.96716 122 83 55
-0.23172 0.07606 3.96065 122 83 55
-0.24388 0.00117 3.96622 122 83 55
-0.23225 -0.07442 3.95863 122 83 55
-0.19881 -0.14126 3.95223 122 83 55
-0.14448 -0.19648 3.94966 122 83 55
-0.07349 -0.23255 3.95437 122 83 55
0.00104 -0.24388 3.95888 122 83 55
0.07277 -0.23278 3.96151 122 83 55
0.14333 -0.19733 3.95026 122 83 55
0.19513 -0.14631 3.96987 122 83 55
0.23164 -0.07632 3.96376 122 83 55
0.24248 0.00367 4.07214 122 83 55
0.23094 0.07400 4.07385 122 83 55
0.19557 0.14339 4.07345 122 83 55
0.14331 0.19563 4.08276 122 83 55
0.07819 0.22956 4.07025 122 83 55
0.00034 0.24251 4.08785 122 83 55
-0.07176 0.23165 4.08478 122 83 55
-0.14303 0.19584 4.06893 122 83 55
-0.19364 0.14599 4.07903 122 83 55
-0.22953 0.07826 4.07222 122 83 55
-0.24249 -0.00302 4.08314 122 83 55
-0.23179 -0.07128 4.07945 122 83 55
-0.19455 -0.14478 4.06962 122 83 55
-0.14524 -0.19421 4.07136 122 83 55
-0.07721 -0.22989 4.09101 122 83 55
0.00066 -0.24251 4.08135 122 83 55
0.07276 -0.23133 4.07975 122 83 55
0.14529 -0.19417 4.09131 122 83 55
0.19861 -0.13916 4.09036 122 83 55
0.23182 -0.07121 4.07767 122 83 55
0.24935 -0.00147 4.19025 122 83 55
0.23699 0.07754 4.19229 122 83 55
0.20018 0.14868 4.19680 122 83 55
0.14549 0.20251 4.20382 122 83 55
0.07632 0.23739 4.20938 122 83 55
-0.00495 0.24931 4.20146 122 83 55
-0.07637 0.23737 4.19158 122 83 55
-0.14305 0.20425 4.19436 122 83 55
-0.20131 0.14715 4.18990 122 83 55
-0.23823 0.07367 4.19610 122 83 55
-0.24933 0.00332 4.21135 122 83 55
-0.23688 -0.07789 4.19499 122 83 55
-0.20334 -0.14432 4.20405 122 83 55
-0.14829 -0.20047 4.20704 122 83 55
-0.07995 -0.23619 4.19570 122 83 55
-0.00497 -0.24931 4.19496 122 83 55
0.07731 -0.23707 4.20128 122 83 55
0.14702 -0.20140 4.19244 122 83 55
0.20257 -0.14541 4.19265 122 83 55
0.23846 -0.07290 4.20468 122 83 55
0.26118 -0.00374 4.32379 122 83 55
0.24763 0.08314 4.33182 122 83 55
0.21382 0.15004 4.32179 122 83 55
0.15503 0.21023 4.32875 122 83 55
0.07917 0.24892 4.32992 122 83 55
0.00019 0.26121 4.31550 122 83 55
-0.08198 0.24801 4.32033 122 83 55
-0.15706 0.20872 4.30921 122 83 55
-0.21162 0.15312 4.32530 122 83 55
-0.24929 0.07800 4.32926 122 83 55
-0.26121 -0.00015 4.32194 122 83 55
-0.24707 -0.08479 4.31416 122 83 55
-0.20900 -0.15669 4.32690 122 83 55
-0.15040 -0.21357 4.30934 122 83 55
-0.08194 -0.24802 4.31841 122 83 55
0.00073 -0.26121 4.32169 122 83 55
0.08065 -0.24845 4.30977 122 83 55
0.15108 -0.21308 4.31780 122 83 55
0.21420 -0.14950 4.32908 122 83 55
0.24991 -0.07600 4.32408 122 83 55
0.27247 0.00400 4.43672 122 83 55
0.25940 0.08345 4.43815 122 83 55
0.22024 0.16046 4.42814 122 83 55
0.15763 0.22228 4.45236 122 83 55
0.08497 0.25891 4.44571 122 83 55
0.00109 0.27249 4.44124 122 83 55
-0.08563 0.25869 4.42974 122 83 55
-0.15673 0.22291 4.44616 122 83 55
-0.22040 0.16025 4.44511 122 83 55
-0.25880 0.08530 4.44661 122 83 55
-0.27249 -0.00202 4.43084 122 83 55
-0.25952 -0.08307 4.44388 122 83 55
-0.21878 -0.16245 4.44175 122 83 55
-0.16242 -0.21880 4.42898 122 83 55
-0.08002 -0.26048 4.43695 122 83 55
-0.00130 -0.27249 4.44315 122 83 55
0.08268 -0.25965 4.45180 122 83 55
0.16110 -0.21977 4.44519 122 83 55
0.22316 -0.15637 4.44566 122 83 55
0.25808 -0.08747 4.43164 122 83 55
0.27790 -0.00077 4.56944 122 83 55
0.26507 0.08347 4.55637 122 83 55
0.22182 0.16741 4.56296 122 83 55
0.16469 0.22385 4.56317 122 83 55
0.08734 0.26382 4.56838 122 83 55
-0.00058 0.27790 4.57046 122 83 55
-0.08515 0.26454 4.55242 122 83 55
-0.15903 0.22790 4.55410 122 83 55
-0.22458 0.16369 4.56111 122 83 55
-0.26500 0.08371 4.55502 122 83 55
-0.27790 0.00185 4.56712 122 83 55
-0.26540 -0.08241 4.55007 122 83 55
-0.22616 -0.16149 4.56609 122 83 55
-0.16384 -0.22447 4.57039 122 83 55
-0.08063 -0.26595 4.56445 122 83 55
0.00411 -0.27787 4.56307 122 83 55
0.08617 -0.26421 4.55762 122 83 55
0.16343 -0.22477 4.54810 122 83 55
0.22479 -0.16340 4.55366 122 83 55
0.26478 -0.08441 4.55372 122 83 55
0.27489 -0.00153 4.67363 122 83 55
0.26218 0.08262 4.68967 122 83 55
0.22163 0.16262 4.67633 122 83 55
0.15835 0.22470 4.68403 122 83 55
0.08482 0.26148 4.68121 122 83 55
0.00034 0.27489 4.68566 122 83 55
-0.08358 0.26188 4.66952 122 83 55
-0.15930 0.22403 4.69031 122 83 55
-0.22408 0.15923 4.67499 122 83 55
-0.26273 0.08088 4.68004 122 83 55
-0.27485 0.00488 4.68680 122 83 55
-0.26189 -0.08355 4.67648 122 83 55
-0.22511 -0.15777 4.68332 122 83 55
-0.16385 -0.22072 4.67994 122 83 55
-0.08044 -0.26286 4.67712 122 83 55
-0.00270 -0.27488 4.67768 122 83 55
0.08241 -0.26225 4.68224 122 83 55
0.15730 -0.22544 4.68559 122 83 55
0.22167 -0.16257 4.67146 122 83 55
0.25989 -0.08956 4.66919 122 83 55
0.26486 -0.00306 4.79235 122 83 55
0.25214 0.08115 4.79070 122 83 55
0.21272 0.15783 4.80225 122 83 55
0.15347 0.21589 4.79563 122 83 55
0.07963 0.25262 4.80836 122 83 55
0.00111 0.26487 4.80306 122 83 55
-0.08262 0.25166 4.80569 122 83 55
-0.15963 0.21137 4.79555 122 83 55
-0.21625 0.15295 4.81155 122 83 55
-0.25233 0.08056 4.81050 122 83 55
-0.26488 -0.00075 4.80681 122 83 55
-0.25111 -0.08427 4.79623 122 83 55
-0.21299 -0.15747 4.79004 122 83 55
-0.15351 -0.21585 4.79217 122 83 55
-0.08659 -0.25032 4.81238 122 83 55
0.00038 -0.26488 4.80390 122 83 55
0.07935 -0.25271 4.79178 122 83 55
0.15567 -0.21431 4.80005 122 83 55
0.21650 -0.15260 4.81165 122 83 55
0.25070 -0.08549 4.78914 122 83 55
0.25252 -0.00485 4.91049 122 83 55
0.23880 0.08226 4.91091 122 83 55
0.20633 0.14567 4.90981 122 83 55
0.14670 0.20560 4.91778 122 83 55
0.07423 0.24141 4.92931 122 83 55
-0.00330 0.25255 4.92347 122 83 55
-0.07680 0.24061 4.91939 122 83 55
-0.15175 0.20190 4.92691 122 83 55
-0.20290 0.15041 4.92229 122 83 55
-0.24158 0.07369 4.92591 122 83 55
-0.25252 -0.00466 4.90939 122 83 55
-0.23865 -0.08269 4.92133 122 83 55
-0.20303 -0.15023 4.91369 122 83 55
-0.14769 -0.20488 4.90867 122 83 55
-0.07597 -0.24087 4.91224 122 83 55
-0.00428 -0.25253 4.91529 122 83 55
0.07712 -0.24051 4.92014 122 83 55
0.14444 -0.20719 4.92266 122 83 55
0.20465 -0.14802 4.91355 122 83 55
0.24002 -0.07861 4.91951 122 83 55
0.24373 0.00329 5.05052 122 83 55
0.23322 0.07089 5.03261 122 83 55
0.19476 0.14658 5.04976 122 83 55
0.14071 0.19904 5.04855 122 83 55
0.07669 0.23138 5.03873 122 83 55
-0.00116 0.24375 5.04090 122 83 55
-0.07767 0.23105 5.03848 122 83 55
-0.14606 0.19515 5.04847 122 83 55
-0.19478 0.14655 5.03426 122 83 55
-0.23230 0.07386 5.03162 122 83 55
-0.24371 -0.00475 5.04175 122 83 55
-0.23174 -0.07559 5.04481 122 83 55
-0.19717 -0.14332 5.05052 122 83 55
-0.14233 -0.19788 5.03492 122 83 55
-0.07402 -0.23224 5.03701 122 83 55
0.00224 -0.24374 5.03588 122 83 55
0.07588 -0.23164 5.04606 122 83 55
0.14260 -0.19769 5.03675 122 83 55
0.19695 -0.14361 5.04599 122 83 55
0.23281 -0.07221 5.03133 122 83 55
0.24257 -0.00179 5.16355 122 83 55
0.23140 0.07280 5.15883 122 83 55
0.19845 0.13952 5.17135 122 83 55
0.14362 0.19550 5.16116 122 83 55
0.07763 0.22982 5.15158 122 83 55
-0.00143 0.24258 5.15902 122 83 55
-0.07933 0.22924 5.16611 122 83 55
-0.14430 0.19499 5.15482 122 83 55
-0.19824 0.13981 5.16928 122 83 55
-0.23005 0.07697 5.15191 122 83 55
-0.24258 0.00050 5.16097 122 83 55
-0.22938 -0.07894 5.16588 122 83 55
-0.19696 -0.14160 5.14878 122 83 55
-0.14483 -0.19460 5.14980 122 83 55
-0.07171 -0.23174 5.14937 122 83 55
0.00045 -0.24258 5.16677 122 83 55
0.07374 -0.23110 5.16539 122 83 55
0.14589 -0.19381 5.14893 122 83 55
0.19840 -0.13958 5.15539 122 83 55
0.23073 -0.07490 5.16402 122 83 55
0.24960 -0.00144 5.29073 122 83 55
0.23729 0.07742 5.28608 122 83 55
0.20120 0.14772 5.28447 122 83 55
0.14964 0.19978 5.28373 122 83 55
0.07374 0.23846 5.27856 122 83 55
0.00461 0.24956 5.29043 122 83 55
-0.07376 0.23846 5.28195 122 83 55
-0.14399 0.20388 5.27732 122 83 55
-0.20472 0.14279 5.28345 122 83 55
-0.23784 0.07573 5.28078 122 83 55
-0.24960 -0.00121 5.27438 122 83 55
-0.23636 -0.08023 5.27268 122 83 55
-0.20123 -0.14767 5.28733 122 83 55
-0.14964 -0.19977 5.28304 122 83 55
-0.08139 -0.23596 5.26870 122 83 55
-0.00477 -0.24956 5.27055 122 83 55
0.07395 -0.23840 5.28372 122 83 55
0.14506 -0.20312 5.26808 122 83 55
0.20205 -0.14655 5.28415 122 83 55
0.23749 -0.07681 5.28628 122 83 55
