ply
format ascii 1.0
comment SIMULATED DEMO - NOT FIELD EVIDENCE
element vertex 900
property float x
property float y
property float z
property uchar red
property uchar green
property uchar blue
end_header
0.25995 -0.00518 -0.00016 122 83 55
0.24583 0.08465 0.00332 122 83 55
0.21075 0.15227 0.00130 122 83 55
0.15485 0.20886 0.01217 122 83 55
0.08123 0.24698 0.00708 122 83 55
0.00227 0.25999 -0.00155 122 83 55
-0.07870 0.24780 0.00079 122 83 55
-0.15256 0.21054 -0.00531 122 83 55
-0.20841 0.15545 -0.00399 122 83 55
-0.24873 0.07574 -0.00677 122 83 55
-0.26000 -0.00011 -0.00670 122 83 55
-0.24770 -0.07901 -0.00021 122 83 55
-0.21259 -0.14969 0.01248 122 83 55
-0.15625 -0.20781 -0.00080 122 83 55
-0.07865 -0.24782 0.00055 122 83 55
0.00083 -0.26000 -0.00067 122 83 55
0.07773 -0.24811 -0.00319 122 83 55
0.15499 -0.20875 0.00032 122 83 55
0.21200 -0.15052 -0.00686 122 83 55
0.24721 -0.08054 -0.00712 122 83 55
0.27154 -0.00536 0.12855 122 83 55
0.25697 0.08791 0.11518 122 83 55
0.21661 0.16385 0.12343 122 83 55
0.15603 0.22230 0.11450 122 83 55
0.08328 0.25851 0.11010 122 83 55
0.00173 0.27159 0.11085 122 83 55
-0.08345 0.25846 0.12256 122 83 55
-0.15712 0.22154 0.11606 122 83 55
-0.22025 0.15891 0.11458 122 83 55
-0.25793 0.08507 0.11817 122 83 55
-0.27156 -0.00453 0.11154 122 83 55
-0.25792 -0.08510 0.12710 122 83 55
-0.22262 -0.15559 0.12263 122 83 55
-0.16002 -0.21945 0.12376 122 83 55
-0.08828 -0.25685 0.12633 122 83 55
0.00385 -0.27157 0.11636 122 83 55
0.08673 -0.25738 0.12330 122 83 55
0.15698 -0.22163 0.11342 122 83 55
0.22181 -0.15673 0.13206 122 83 55
0.25724 -0.08712 0.12972 122 83 55
0.27771 0.00364 0.22909 122 83 55
0.26278 0.08991 0.24225 122 83 55
0.22613 0.16125 0.25129 122 83 55
0.16165 0.22585 0.22985 122 83 55
0.08401 0.26473 0.22991 122 83 55
0.00437 0.27770 0.23121 122 83 55
-0.08671 0.26385 0.23130 122 83 55
-0.16572 0.22288 0.23727 122 83 55
-0.22250 0.16623 0.23621 122 83 55
-0.26503 0.08304 0.24031 122 83 55
-0.27774 -0.00118 0.25047 122 83 55
-0.26494 -0.08333 0.24815 122 83 55
-0.22548 -0.16216 0.23615 122 83 55
-0.16406 -0.22410 0.24338 122 83 55
-0.08718 -0.26370 0.23874 122 83 55
-0.00035 -0.27774 0.22850 122 83 55
0.08271 -0.26514 0.24179 122 83 55
0.16661 -0.22221 0.22931 122 83 55
0.22368 -0.16464 0.23710 122 83 55
0.26517 -0.08260 0.23504 122 83 55
0.27552 0.00329 0.34940 122 83 55
0.26299 0.08222 0.35495 122 83 55
0.22279 0.16213 0.37113 122 83 55
0.16076 0.22378 0.36257 122 83 55
0.08188 0.26309 0.36377 122 83 55
-0.00540 0.27548 0.34954 122 83 55
-0.08325 0.26266 0.36369 122 83 55
-0.16125 0.22343 0.36796 122 83 55
-0.22263 0.16235 0.36168 122 83 55
-0.26301 0.08214 0.37065 122 83 55
-0.27553 0.00212 0.36153 122 83 55
-0.26298 -0.08223 0.37062 122 83 55
-0.22373 -0.16083 0.36929 122 83 55
-0.16500 -0.22067 0.36179 122 83 55
-0.08290 -0.26277 0.35111 122 83 55
-0.00032 -0.27554 0.35463 122 83 55
0.08320 -0.26268 0.35376 122 83 55
0.16453 -0.22102 0.36146 122 83 55
0.22468 -0.15950 0.36337 122 83 55
0.26059 -0.08953 0.37234 122 83 55
0.26603 0.00137 0.47877 122 83 55
0.25452 0.07739 0.48889 122 83 55
0.21282 0.15962 0.46762 122 83 55
0.15321 0.21748 0.47460 122 83 55
0.08138 0.25328 0.47422 122 83 55
-0.00186 0.26602 0.48122 122 83 55
-0.08260 0.25288 0.47951 122 83 55
-0.15432 0.21670 0.46751 122 83 55
-0.21499 0.15669 0.46994 122 83 55
-0.25186 0.08567 0.48233 122 83 55
-0.26600 0.00370 0.48297 122 83 55
-0.25340 -0.08098 0.47078 122 83 55
-0.21506 -0.15659 0.46848 122 83 55
-0.15248 -0.21799 0.48316 122 83 55
-0.08117 -0.25335 0.49134 122 83 55
-0.00168 -0.26602 0.47759 122 83 55
0.08452 -0.25225 0.48194 122 83 55
0.15497 -0.21624 0.48872 122 83 55
0.21619 -0.15502 0.47243 122 83 55
0.25449 -0.07750 0.49105 122 83 55
0.25368 -0.00215 0.60789 122 83 55
0.24127 0.07840 0.61148 122 83 55
0.20718 0.14640 0.58778 122 83 55
0.14725 0.20657 0.61225 122 83 55
0.08266 0.23984 0.59434 122 83 55
-0.00391 0.25366 0.59147 122 83 55
-0.07478 0.24241 0.59585 122 83 55
-0.14549 0.20782 0.60478 122 83 55
-0.20638 0.14752 0.59379 122 83 55
-0.24252 0.07442 0.59289 122 83 55
-0.25369 0.00040 0.59440 122 83 55
-0.23976 -0.08289 0.61095 122 83 55
-0.20423 -0.15049 0.60627 122 83 55
-0.14522 -0.20801 0.60226 122 83 55
-0.07630 -0.24194 0.60177 122 83 55
0.00420 -0.25365 0.59443 122 83 55
0.07417 -0.24260 0.61156 122 83 55
0.15128 -0.20364 0.60319 122 83 55
0.20531 -0.14901 0.60244 122 83 55
0.23991 -0.08246 0.60953 122 83 55
0.24429 -0.00302 0.71539 122 83 55
0.23104 0.07944 0.72765 122 83 55
0.19586 0.14604 0.73143 122 83 55
0.14059 0.19980 0.72207 122 83 55
0.07986 0.23089 0.70970 122 83 55
-0.00457 0.24427 0.70884 122 83 55
-0.07090 0.23380 0.72291 122 83 55
-0.14626 0.19570 0.73172 122 83 55
-0.19744 0.14389 0.72202 122 83 55
-0.23251 0.07502 0.71063 122 83 55
-0.24429 -0.00327 0.72285 122 83 55
-0.23162 -0.07771 0.72098 122 83 55
-0.19854 -0.14237 0.72887 122 83 55
-0.14713 -0.19504 0.70851 122 83 55
-0.07945 -0.23103 0.71563 122 83 55
-0.00380 -0.24428 0.73072 122 83 55
0.07416 -0.23278 0.70821 122 83 55
0.14312 -0.19800 0.72219 122 83 55
0.19519 -0.14693 0.71489 122 83 55
0.23086 -0.07996 0.71221 122 83 55
0.24231 0.00192 0.83099 122 83 55
0.23049 0.07478 0.84964 122 83 55
0.19826 0.13932 0.84328 122 83 55
0.14509 0.19408 0.83080 122 83 55
0.07415 0.23069 0.84174 122 83 55
0.00215 0.24231 0.82785 122 83 55
-0.07476 0.23049 0.85134 122 83 55
-0.14078 0.19722 0.84611 122 83 55
-0.19618 0.14224 0.82824 122 83 55
-0.22896 0.07934 0.84501 122 83 55
-0.24231 -0.00068 0.85049 122 83 55
-0.22907 -0.07901 0.84381 122 83 55
-0.19606 -0.14239 0.83023 122 83 55
-0.14502 -0.19413 0.82929 122 83 55
-0.07485 -0.23046 0.83495 122 83 55
-0.00004 -0.24232 0.84392 122 83 55
0.07782 -0.22948 0.83719 122 83 55
0.14573 -0.19360 0.83928 122 83 55
0.19786 -0.13989 0.84289 122 83 55
0.23036 -0.07517 0.83576 122 83 55
0.24860 0.00432 0.95019 122 83 55
0.23510 0.08092 0.95584 122 83 55
0.19907 0.14897 0.95649 122 83 55
0.14815 0.19968 0.96434 122 83 55
0.07258 0.23781 0.95782 122 83 55
0.00106 0.24863 0.95061 122 83 55
-0.08078 0.23515 0.96617 122 83 55
-0.14242 0.20380 0.96842 122 83 55
-0.19822 0.15010 0.95111 122 83 55
-0.23626 0.07748 0.95607 122 83 55
-0.24863 0.00128 0.94883 122 83 55
-0.23750 -0.07358 0.97006 122 83 55
-0.20136 -0.14586 0.95261 122 83 55
-0.14375 -0.20287 0.96215 122 83 55
-0.07753 -0.23624 0.96016 122 83 55
0.00130 -0.24863 0.96581 122 83 55
0.08064 -0.23520 0.95946 122 83 55
0.14913 -0.19895 0.96438 122 83 55
0.20297 -0.14361 0.96601 122 83 55
0.23529 -0.08038 0.96935 122 83 55
0.26027 0.00433 1.07557 122 83 55
0.24911 0.07552 1.08865 122 83 55
0.21217 0.15081 1.08785 122 83 55
0.15582 0.20851 1.08082 122 83 55
0.07812 0.24830 1.08281 122 83 55
0.00389 0.26027 1.06751 122 83 55
-0.08208 0.24702 1.08727 122 83 55
-0.15446 0.20952 1.08262 122 83 55
-0.21156 0.15166 1.07632 122 83 55
-0.24823 0.07834 1.06802 122 83 55
-0.26030 0.00114 1.08952 122 83 55
-0.24646 -0.08375 1.08678 122 83 55
-0.21174 -0.15141 1.08885 122 83 55
-0.15690 -0.20770 1.07116 122 83 55
-0.07590 -0.24899 1.07115 122 83 55
-0.00259 -0.26029 1.08396 122 83 55
0.08218 -0.24699 1.07917 122 83 55
0.15501 -0.20912 1.07786 122 83 55
0.21277 -0.14996 1.08673 122 83 55
0.24732 -0.08119 1.06894 122 83 55
0.27177 0.00526 1.20952 122 83 55
0.25775 0.08634 1.19150 122 83 55
0.22261 0.15600 1.20953 122 83 55
0.15937 0.22020 1.19273 122 83 55
0.08522 0.25812 1.21216 122 83 55
0.00161 0.27182 1.20206 122 83 55
-0.08286 0.25889 1.21142 122 83 55
-0.16069 0.21925 1.19115 122 83 55
-0.21951 0.16033 1.19497 122 83 55
-0.25993 0.07952 1.19677 122 83 55
-0.27182 -0.00076 1.20669 122 83 55
-0.25751 -0.08705 1.19011 122 83 55
-0.22032 -0.15922 1.21111 122 83 55
-0.15917 -0.22035 1.19735 122 83 55
-0.08604 -0.25785 1.20999 122 83 55
-0.00265 -0.27181 1.21233 122 83 55
0.08411 -0.25848 1.19272 122 83 55
0.15790 -0.22126 1.19882 122 83 55
0.22296 -0.15550 1.20838 122 83 55
0.25716 -0.08809 1.21068 122 83 55
0.27779 0.00070 1.32372 122 83 55
0.26427 0.08560 1.30984 122 83 55
0.22602 0.16150 1.32233 122 83 55
0.16071 0.22658 1.32807 122 83 55
0.09098 0.26247 1.32666 122 83 55
-0.00175 0.27778 1.31967 122 83 55
-0.08736 0.26369 1.33089 122 83 55
-0.16551 0.22310 1.30892 122 83 55
-0.22377 0.16459 1.31361 122 83 55
-0.26434 0.08538 1.31663 122 83 55
-0.27778 0.00224 1.31088 122 83 55
-0.26445 -0.08503 1.31218 122 83 55
-0.22458 -0.16350 1.32615 122 83 55
-0.16382 -0.22434 1.30812 122 83 55
-0.08595 -0.26416 1.31510 122 83 55
0.00002 -0.27779 1.32587 122 83 55
0.08146 -0.26557 1.31438 122 83 55
0.16709 -0.22191 1.31731 122 83 55
0.22283 -0.16587 1.31472 122 83 55
0.26437 -0.08527 1.30827 122 83 55
0.27537 -0.00306 1.43005 122 83 55
0.26058 0.08909 1.43123 122 83 55
0.22033 0.16519 1.43056 122 83 55
0.15798 0.22556 1.43061 122 83 55
0.08470 0.26203 1.43368 122 83 55
-0.00321 0.27536 1.45058 122 83 55
-0.08806 0.26092 1.42861 122 83 55
-0.15751 0.22589 1.44632 122 83 55
-0.22398 0.16021 1.44081 122 83 55
-0.26154 0.08623 1.44097 122 83 55
-0.27538 0.00122 1.42951 122 83 55
-0.26112 -0.08748 1.43687 122 83 55
-0.22089 -0.16445 1.43227 122 83 55
-0.16082 -0.22355 1.43580 122 83 55
-0.08616 -0.26156 1.43208 122 83 55
-0.00093 -0.27538 1.43419 122 83 55
0.08725 -0.26119 1.42852 122 83 55
0.16500 -0.22048 1.44070 122 83 55
0.22383 -0.16042 1.45100 122 83 55
0.26355 -0.07987 1.44457 122 83 55
0.26570 -0.00474 1.55308 122 83 55
0.25268 0.08228 1.56451 122 83 55
0.21252 0.15954 1.56845 122 83 55
0.15664 0.21467 1.54923 122 83 55
0.08607 0.25142 1.55998 122 83 55
-0.00461 0.26570 1.55181 122 83 55
-0.07889 0.25376 1.54991 122 83 55
-0.15700 0.21441 1.55638 122 83 55
-0.21479 0.15648 1.55028 122 83 55
-0.25288 0.08169 1.56704 122 83 55
-0.26574 0.00155 1.54893 122 83 55
-0.25369 -0.07911 1.55485 122 83 55
-0.21465 -0.15667 1.55273 122 83 55
-0.15706 -0.21436 1.55521 122 83 55
-0.08611 -0.25141 1.55104 122 83 55
-0.00087 -0.26574 1.56931 122 83 55
0.08635 -0.25132 1.56834 122 83 55
0.15190 -0.21805 1.55408 122 83 55
0.21784 -0.15221 1.55666 122 83 55
0.25265 -0.08238 1.56703 122 83 55
0.25340 -0.00140 1.67918 122 83 55
0.24122 0.07762 1.68297 122 83 55
0.20755 0.14539 1.67814 122 83 55
0.14697 0.20643 1.69123 122 83 55
0.07484 0.24210 1.67109 122 83 55
-0.00279 0.25339 1.68317 122 83 55
-0.08090 0.24014 1.67579 122 83 55
-0.14546 0.20750 1.67094 122 83 55
-0.20388 0.15048 1.67059 122 83 55
-0.24230 0.07420 1.68481 122 83 55
-0.25335 0.00499 1.68302 122 83 55
-0.24100 -0.07832 1.68249 122 83 55
-0.20734 -0.14568 1.67077 122 83 55
-0.14801 -0.20569 1.67536 122 83 55
-0.07794 -0.24112 1.67053 122 83 55
-0.00341 -0.25338 1.68748 122 83 55
0.07798 -0.24111 1.67122 122 83 55
0.15159 -0.20306 1.66969 122 83 55
0.20770 -0.14517 1.67456 122 83 55
0.24143 -0.07698 1.67241 122 83 55
0.24416 0.00158 1.80711 122 83 55
0.23231 0.07515 1.80669 122 83 55
0.19732 0.14382 1.78920 122 83 55
0.14331 0.19769 1.78980 122 83 55
0.07101 0.23361 1.79229 122 83 55
0.00086 0.24416 1.79741 122 83 55
-0.07895 0.23105 1.79780 122 83 55
-0.14257 0.19822 1.80091 122 83 55
-0.19772 0.14327 1.80141 122 83 55
-0.23307 0.07276 1.79981 122 83 55
-0.24416 0.00131 1.79335 122 83 55
-0.23091 -0.07935 1.79496 122 83 55
-0.19523 -0.14664 1.79116 122 83 55
-0.14242 -0.19832 1.79509 122 83 55
-0.07585 -0.23208 1.78802 122 83 55
0.00080 -0.24416 1.81003 122 83 55
0.07570 -0.23214 1.81056 122 83 55
0.14626 -0.19551 1.79050 122 83 55
0.19900 -0.14148 1.81173 122 83 55
0.23181 -0.07668 1.80539 122 83 55
0.24233 0.00484 1.92528 122 83 55
0.23074 0.07419 1.92382 122 83 55
0.19362 0.14579 1.92476 122 83 55
0.14623 0.19329 1.91051 122 83 55
0.07877 0.22922 1.93111 122 83 55
0.00440 0.24233 1.91928 122 83 55
-0.07392 0.23083 1.91944 122 83 55
-0.14228 0.19622 1.92553 122 83 55
-0.19655 0.14183 1.93134 122 83 55
-0.23189 0.07052 1.92017 122 83 55
-0.24235 -0.00366 1.91091 122 83 55
-0.22991 -0.07674 1.92336 122 83 55
-0.19858 -0.13896 1.92837 122 83 55
-0.14462 -0.19450 1.92291 122 83 55
-0.07281 -0.23118 1.91693 122 83 55
0.00240 -0.24236 1.92833 122 83 55
0.07290 -0.23115 1.92927 122 83 55
0.13928 -0.19836 1.91275 122 83 55
0.19360 -0.14583 1.92677 122 83 55
0.22959 -0.07766 1.92138 122 83 55
0.24887 0.00074 2.04045 122 83 55
0.23517 0.08145 2.05101 122 83 55
0.19972 0.14849 2.03412 122 83 55
0.14312 0.20360 2.04685 122 83 55
0.07312 0.23789 2.05136 122 83 55
-0.00008 0.24887 2.03883 122 83 55
-0.07441 0.23749 2.03412 122 83 55
-0.14985 0.19870 2.04579 122 83 55
-0.20313 0.14379 2.03230 122 83 55
-0.23813 0.07233 2.03259 122 83 55
-0.24883 -0.00448 2.03441 122 83 55
-0.23779 -0.07346 2.04084 122 83 55
-0.20316 -0.14374 2.04625 122 83 55
-0.14909 -0.19927 2.03581 122 83 55
-0.07294 -0.23795 2.03025 122 83 55
0.00047 -0.24887 2.04773 122 83 55
0.07977 -0.23574 2.04979 122 83 55
0.14442 -0.20268 2.04262 122 83 55
0.20345 -0.14335 2.04375 122 83 55
0.23684 -0.07644 2.03826 122 83 55
0.26060 0.00191 2.15807 122 83 55
0.24786 0.08051 2.15786 122 83 55
0.21234 0.15108 2.15207 122 83 55
0.15653 0.20836 2.15487 122 83 55
0.08261 0.24717 2.14881 122 83 55
-0.00086 0.26060 2.16862 122 83 55
-0.07691 0.24900 2.15476 122 83 55
-0.15181 0.21182 2.15184 122 83 55
-0.21094 0.15303 2.15545 122 83 55
-0.24904 0.07677 2.16746 122 83 55
-0.26059 -0.00310 2.15512 122 83 55
-0.24783 -0.08058 2.16293 122 83 55
-0.21084 -0.15317 2.14927 122 83 55
-0.15180 -0.21183 2.15215 122 83 55
-0.08334 -0.24692 2.15569 122 83 55
-0.00344 -0.26058 2.17070 122 83 55
0.07777 -0.24873 2.16061 122 83 55
0.15551 -0.20912 2.15194 122 83 55
0.20988 -0.15449 2.16769 122 83 55
0.24872 -0.07781 2.15229 122 83 55
0.27201 0.00507 2.28918 122 83 55
0.25850 0.08479 2.28046 122 83 55
0.22205 0.15718 2.28460 122 83 55
0.16007 0.21998 2.27685 122 83 55
0.08363 0.25888 2.27840 122 83 55
0.00374 0.27203 2.29009 122 83 55
-0.08643 0.25796 2.26981 122 83 55
-0.15856 0.22107 2.27949 122 83 55
-0.21914 0.16121 2.27876 122 83 55
-0.26034 0.07896 2.27799 122 83 55
-0.27205 -0.00106 2.28331 122 83 55
-0.25773 -0.08711 2.28678 122 83 55
-0.22166 -0.15774 2.27537 122 83 55
-0.15761 -0.22175 2.26865 122 83 55
-0.08263 -0.25920 2.27241 122 83 55
-0.00104 -0.27205 2.26885 122 83 55
0.08148 -0.25956 2.27943 122 83 55
0.16046 -0.21969 2.27297 122 83 55
0.21837 -0.16226 2.27657 122 83 55
0.25709 -0.08898 2.26803 122 83 55
0.27778 0.00528 2.40886 122 83 55
0.26445 0.08517 2.39896 122 83 55
0.22518 0.16274 2.39628 122 83 55
0.16620 0.22264 2.40403 122 83 55
0.09108 0.26248 2.40793 122 83 55
0.00370 0.27781 2.38896 122 83 55
-0.09080 0.26258 2.40101 122 83 55
-0.16594 0.22283 2.40574 122 83 55
-0.22782 0.15902 2.40602 122 83 55
-0.26401 0.08652 2.40845 122 83 55
-0.27778 -0.00515 2.40120 122 83 55
-0.26505 -0.08330 2.39454 122 83 55
-0.22469 -0.16342 2.39035 122 83 55
-0.16546 -0.22319 2.41141 122 83 55
-0.08510 -0.26448 2.40931 122 83 55
0.00279 -0.27782 2.39421 122 83 55
0.09097 -0.26251 2.39289 122 83 55
0.16550 -0.22316 2.40724 122 83 55
0.22381 -0.16462 2.38998 122 83 55
0.26565 -0.08137 2.39236 122 83 55
0.27518 -0.00495 2.51620 122 83 55
0.26284 0.08162 2.52924 122 83 55
0.22266 0.16177 2.52419 122 83 55
0.15845 0.22504 2.52847 122 83 55
0.09000 0.26009 2.52347 122 83 55
0.00137 0.27522 2.52969 122 83 55
-0.08870 0.26054 2.51253 122 83 55
-0.16116 0.22311 2.50845 122 83 55
-0.21988 0.16554 2.51749 122 83 55
-0.26153 0.08573 2.52640 122 83 55
-0.27521 -0.00253 2.51750 122 83 55
-0.26079 -0.08795 2.52083 122 83 55
-0.22460 -0.15907 2.50878 122 83 55
-0.16004 -0.22391 2.52596 122 83 55
-0.08389 -0.26213 2.51991 122 83 55
-0.00170 -0.27522 2.52939 122 83 55
0.08022 -0.26327 2.52276 122 83 55
0.15798 -0.22537 2.52342 122 83 55
0.22305 -0.16123 2.51428 122 83 55
0.26019 -0.08973 2.51747 122 83 55
0.26546 0.00011 2.64592 122 83 55
0.25172 0.08430 2.62860 122 83 55
0.21457 0.15628 2.64340 122 83 55
0.15307 0.21688 2.63384 122 83 55
0.08494 0.25150 2.63617 122 83 55
-0.00473 0.26541 2.64398 122 83 55
-0.08132 0.25269 2.64682 122 83 55
-0.15642 0.21448 2.63999 122 83 55
-0.21592 0.15442 2.64712 122 83 55
-0.25236 0.08236 2.64408 122 83 55
-0.26541 0.00486 2.64856 122 83 55
-0.25396 -0.07726 2.63418 122 83 55
-0.21492 -0.15581 2.64155 122 83 55
-0.16013 -0.21172 2.63147 122 83 55
-0.07975 -0.25319 2.63372 122 83 55
0.00204 -0.26545 2.65193 122 83 55
0.08685 -0.25085 2.64383 122 83 55
0.15352 -0.21656 2.64434 122 83 55
0.21748 -0.15221 2.63930 122 83 55
0.25162 -0.08459 2.64307 122 83 55
0.25310 -0.00354 2.75647 122 83 55
0.24003 0.08034 2.76556 122 83 55
0.20420 0.14957 2.75896 122 83 55
0.14612 0.20669 2.75041 122 83 55
0.07357 0.24219 2.76575 122 83 55
-0.00335 0.25310 2.75841 122 83 55
-0.07521 0.24169 2.76194 122 83 55
-0.14788 0.20543 2.76496 122 83 55
-0.20660 0.14625 2.76130 122 83 55
-0.23986 0.08087 2.75376 122 83 55
-0.25311 -0.00274 2.75096 122 83 55
-0.24081 -0.07799 2.75764 122 83 55
-0.20515 -0.14827 2.76991 122 83 55
-0.15179 -0.20256 2.76392 122 83 55
-0.07604 -0.24143 2.75926 122 83 55
-0.00284 -0.25311 2.76269 122 83 55
0.07411 -0.24203 2.75326 122 83 55
0.15101 -0.20314 2.74796 122 83 55
0.20394 -0.14994 2.76164 122 83 55
0.24139 -0.07619 2.76249 122 83 55
0.24399 -0.00427 2.86976 122 83 55
0.23318 0.07193 2.87868 122 83 55
0.19861 0.14178 2.87458 122 83 55
0.14209 0.19839 2.87405 122 83 55
0.07588 0.23193 2.87550 122 83 55
-0.00478 0.24398 2.88603 122 83 55
-0.07704 0.23154 2.87048 122 83 55
-0.14278 0.19789 2.88705 122 83 55
-0.19653 0.14465 2.88917 122 83 55
-0.23169 0.07659 2.87725 122 83 55
-0.24401 0.00267 2.88082 122 83 55
-0.23306 -0.07232 2.87835 122 83 55
-0.19960 -0.14039 2.87114 122 83 55
-0.14587 -0.19562 2.88337 122 83 55
-0.07959 -0.23068 2.88858 122 83 55
0.00131 -0.24402 2.87822 122 83 55
0.07418 -0.23248 2.89154 122 83 55
0.14164 -0.19871 2.88249 122 83 55
0.19623 -0.14506 2.88454 122 83 55
0.23337 -0.07131 2.88796 122 83 55
0.24243 0.00250 3.01238 122 83 55
0.22999 0.07670 2.99945 122 83 55
0.19542 0.14349 2.98775 122 83 55
0.13970 0.19814 2.99924 122 83 55
0.07387 0.23091 3.00885 122 83 55
0.00103 0.24244 3.00714 122 83 55
-0.07481 0.23061 3.00503 122 83 55
-0.14116 0.19711 2.98987 122 83 55
-0.19536 0.14356 3.00451 122 83 55
-0.22946 0.07825 3.00439 122 83 55
-0.24242 0.00292 3.00453 122 83 55
-0.23103 -0.07351 2.99626 122 83 55
-0.19450 -0.14472 2.99571 122 83 55
-0.14036 -0.19767 2.99536 122 83 55
-0.07172 -0.23159 3.00336 122 83 55
-0.00387 -0.24241 3.01230 122 83 55
0.07075 -0.23189 2.98998 122 83 55
0.14478 -0.19446 2.99553 122 83 55
0.19328 -0.14635 2.99429 122 83 55
0.23045 -0.07530 2.98993 122 83 55
0.24911 0.00107 3.10846 122 83 55
0.23773 0.07443 3.11429 122 83 55
0.20292 0.14450 3.11146 122 83 55
0.14429 0.20307 3.11620 122 83 55
0.07357 0.23800 3.12750 122 83 55
-0.00361 0.24909 3.11399 122 83 55
-0.07744 0.23677 3.11025 122 83 55
-0.14990 0.19897 3.11692 122 83 55
-0.20243 0.14519 3.10919 122 83 55
-0.23752 0.07511 3.12066 122 83 55
-0.24910 0.00201 3.11113 122 83 55
-0.23573 -0.08055 3.11185 122 83 55
-0.20101 -0.14715 3.12107 122 83 55
-0.14386 -0.20338 3.11122 122 83 55
-0.07788 -0.23663 3.10760 122 83 55
-0.00274 -0.24910 3.12150 122 83 55
0.07360 -0.23799 3.11981 122 83 55
0.14645 -0.20152 3.12729 122 83 55
0.19857 -0.15042 3.11319 122 83 55
0.23650 -0.07826 3.12542 122 83 55
0.26091 0.00099 3.24903 122 83 55
0.24753 0.08247 3.24056 122 83 55
0.21387 0.14945 3.24752 122 83 55
0.15078 0.21293 3.24712 122 83 55
0.07795 0.24899 3.25113 122 83 55
-0.00215 0.26090 3.24469 122 83 55
-0.08266 0.24747 3.23644 122 83 55
-0.15610 0.20906 3.24052 122 83 55
-0.21169 0.15251 3.24319 122 83 55
-0.24776 0.08179 3.24882 122 83 55
-0.26090 -0.00122 3.25123 122 83 55
-0.24821 -0.08040 3.22795 122 83 55
-0.21111 -0.15332 3.23193 122 83 55
-0.15419 -0.21047 3.24761 122 83 55
-0.07706 -0.24927 3.23682 122 83 55
0.00366 -0.26088 3.23976 122 83 55
0.08079 -0.24808 3.24279 122 83 55
0.14919 -0.21404 3.24284 122 83 55
0.21300 -0.15068 3.22912 122 83 55
0.24876 -0.07867 3.23045 122 83 55
0.27227 -0.00131 3.36298 122 83 55
0.26048 0.07926 3.36661 122 83 55
0.21818 0.16288 3.36140 122 83 55
0.16153 0.21919 3.37135 122 83 55
0.08669 0.25811 3.34866 122 83 55
0.00350 0.27225 3.35605 122 83 55
-0.08556 0.25848 3.35973 122 83 55
-0.16328 0.21788 3.36993 122 83 55
-0.21953 0.16105 3.37115 122 83 55
-0.25961 0.08208 3.35462 122 83 55
-0.27227 -0.00214 3.35247 122 83 55
-0.25803 -0.08693 3.36560 122 83 55
-0.22010 -0.16028 3.35222 122 83 55
-0.16168 -0.21907 3.36501 122 83 55
-0.08700 -0.25800 3.36886 122 83 55
0.00194 -0.27227 3.35212 122 83 55
0.08088 -0.25998 3.36343 122 83 55
0.15988 -0.22039 3.35350 122 83 55
0.21779 -0.16341 3.35162 122 83 55
0.25929 -0.08309 3.35153 122 83 55
0.27786 0.00197 3.48956 122 83 55
0.26260 0.09084 3.48100 122 83 55
0.22372 0.16480 3.48364 122 83 55
0.16437 0.22404 3.48972 122 83 55
0.08067 0.26590 3.48104 122 83 55
-0.00272 0.27786 3.48558 122 83 55
-0.08138 0.26569 3.47877 122 83 55
-0.16330 0.22482 3.47344 122 83 55
-0.22465 0.16353 3.47052 122 83 55
-0.26305 0.08953 3.49159 122 83 55
-0.27785 -0.00349 3.48657 122 83 55
-0.26546 -0.08210 3.46898 122 83 55
-0.22583 -0.16191 3.47845 122 83 55
-0.16379 -0.22447 3.47029 122 83 55
-0.08329 -0.26509 3.48625 122 83 55
0.00199 -0.27786 3.48241 122 83 55
0.09061 -0.26268 3.48273 122 83 55
0.16431 -0.22408 3.47716 122 83 55
0.22216 -0.16690 3.46957 122 83 55
0.26367 -0.08768 3.49126 122 83 55
0.27502 0.00487 3.60246 122 83 55
0.26170 0.08467 3.59065 122 83 55
0.22405 0.15956 3.58786 122 83 55
0.16402 0.22081 3.60293 122 83 55
0.08840 0.26047 3.59568 122 83 55
0.00370 0.27503 3.60252 122 83 55
-0.08333 0.26213 3.58808 122 83 55
-0.16451 0.22044 3.58955 122 83 55
-0.22224 0.16207 3.59626 122 83 55
-0.26292 0.08080 3.60985 122 83 55
-0.27506 -0.00082 3.58794 122 83 55
-0.26183 -0.08428 3.59944 122 83 55
-0.22505 -0.15814 3.58978 122 83 55
-0.16595 -0.21936 3.60842 122 83 55
-0.08447 -0.26177 3.59010 122 83 55
-0.00177 -0.27505 3.59511 122 83 55
0.08316 -0.26219 3.60351 122 83 55
0.16057 -0.22332 3.58785 122 83 55
0.22073 -0.16412 3.61041 122 83 55
0.25991 -0.09002 3.59288 122 83 55
0.26516 -0.00129 3.71044 122 83 55
0.25359 0.07750 3.72814 122 83 55
0.21289 0.15808 3.72025 122 83 55
0.15368 0.21609 3.72896 122 83 55
0.08108 0.25247 3.72237 122 83 55
0.00128 0.26516 3.72290 122 83 55
-0.07869 0.25322 3.72786 122 83 55
-0.15632 0.21419 3.72725 122 83 55
-0.21218 0.15903 3.72209 122 83 55
-0.25117 0.08501 3.72904 122 83 55
-0.26514 -0.00342 3.72384 122 83 55
-0.25257 -0.08077 3.71849 122 83 55
-0.21344 -0.15735 3.70958 122 83 55
-0.15541 -0.21485 3.71812 122 83 55
-0.08060 -0.25262 3.71560 122 83 55
0.00218 -0.26516 3.71120 122 83 55
0.08496 -0.25119 3.71230 122 83 55
0.15701 -0.21368 3.72915 122 83 55
0.21284 -0.15816 3.72594 122 83 55
0.25161 -0.08369 3.71399 122 83 55
0.25283 -0.00258 3.83453 122 83 55
0.24195 0.07343 3.84807 122 83 55
0.20259 0.15129 3.83071 122 83 55
0.14804 0.20497 3.83458 122 83 55
0.07370 0.24186 3.84580 122 83 55
0.00278 0.25283 3.83869 122 83 55
-0.08224 0.23909 3.83543 122 83 55
-0.15070 0.20302 3.83025 122 83 55
-0.20737 0.14467 3.83331 122 83 55
-0.24097 0.07658 3.85028 122 83 55
-0.25282 -0.00366 3.84112 122 83 55
-0.23891 -0.08277 3.83498 122 83 55
-0.20687 -0.14538 3.84354 122 83 55
-0.14653 -0.20606 3.85166 122 83 55
-0.08179 -0.23925 3.84905 122 83 55
-0.00258 -0.25283 3.83806 122 83 55
0.07718 -0.24078 3.83778 122 83 55
0.14861 -0.20456 3.84187 122 83 55
0.20456 -0.14862 3.82967 122 83 55
0.24149 -0.07492 3.83932 122 83 55
0.24389 -0.00010 3.96180 122 83 55
0.23264 0.07319 3.96241 122 83 55
0.19968 0.14004 3.95550 122 83 55
0.14668 0.19485 3.95587 122 83 55
0.07364 0.23250 3.95462 122 83 55
-0.00430 0.24385 3.96105 122 83 55
-0.07990 0.23043 3.94817 122 83 55
-0.14233 0.19805 3.95542 122 83 55
-0.19967 0.14005 3.97120 122 83 55
-0.23155 0.07657 3.95718 122 83 55
-0.24384 -0.00475 3.96447 122 83 55
-0.23181 -0.07580 3.96624 122 83 55
-0.19746 -0.14315 3.96940 122 83 55
-0.14633 -0.19511 3.95872 122 83 55
-0.07189 -0.23305 3.97146 122 83 55
0.00023 -0.24389 3.96352 122 83 55
0.07597 -0.23175 3.96079 122 83 55
0.14379 -0.19699 3.95566 122 83 55
0.19846 -0.14175 3.96071 122 83 55
0.23132 -0.07728 3.95749 122 83 55
0.24250 0.00181 4.07567 122 83 55
0.23149 0.07228 4.09003 122 83 55
0.19447 0.14488 4.07648 122 83 55
0.14481 0.19453 4.08289 122 83 55
0.07216 0.23152 4.09209 122 83 55
-0.00005 0.24251 4.07758 122 83 55
-0.07592 0.23032 4.08311 122 83 55
-0.14328 0.19565 4.09022 122 83 55
-0.19525 0.14383 4.07896 122 83 55
-0.23133 0.07277 4.08092 122 83 55
-0.24250 0.00163 4.07133 122 83 55
-0.23019 -0.07631 4.08835 122 83 55
-0.19339 -0.14632 4.07819 122 83 55
-0.14327 -0.19566 4.08425 122 83 55
-0.07579 -0.23036 4.07874 122 83 55
0.00182 -0.24250 4.08888 122 83 55
0.07340 -0.23113 4.07591 122 83 55
0.14544 -0.19405 4.06970 122 83 55
0.19773 -0.14040 4.07430 122 83 55
0.23116 -0.07333 4.07688 122 83 55
0.24935 -0.00214 4.18777 122 83 55
0.23786 0.07483 4.19514 122 83 55
0.19907 0.15017 4.20691 122 83 55
0.14993 0.19924 4.20834 122 83 55
0.07885 0.23656 4.20828 122 83 55
-0.00277 0.24934 4.19864 122 83 55
-0.08140 0.23570 4.19301 122 83 55
-0.14288 0.20436 4.20912 122 83 55
-0.20172 0.14658 4.19920 122 83 55
-0.23626 0.07975 4.20443 122 83 55
-0.24931 0.00475 4.19327 122 83 55
-0.23600 -0.08050 4.20045 122 83 55
-0.20216 -0.14598 4.19204 122 83 55
-0.14337 -0.20402 4.20546 122 83 55
-0.08089 -0.23587 4.20338 122 83 55
0.00264 -0.24934 4.20102 122 83 55
0.08036 -0.23605 4.20458 122 83 55
0.14924 -0.19976 4.19755 122 83 55
0.19990 -0.14906 4.20882 122 83 55
0.23564 -0.08155 4.20560 122 83 55
0.26119 -0.00334 4.32144 122 83 55
0.24918 0.07836 4.31497 122 83 55
0.21105 0.15392 4.32877 122 83 55
0.15455 0.21058 4.31529 122 83 55
0.07761 0.24941 4.31380 122 83 55
0.00051 0.26121 4.31779 122 83 55
-0.08149 0.24817 4.32401 122 83 55
-0.15570 0.20974 4.31927 122 83 55
-0.20962 0.15586 4.32304 122 83 55
-0.24948 0.07739 4.33058 122 83 55
-0.26120 -0.00167 4.31899 122 83 55
-0.24904 -0.07882 4.32809 122 83 55
-0.20871 -0.15707 4.30862 122 83 55
-0.15381 -0.21112 4.30784 122 83 55
-0.07865 -0.24909 4.31280 122 83 55
0.00287 -0.26119 4.30861 122 83 55
0.07749 -0.24945 4.30981 122 83 55
0.15592 -0.20957 4.32589 122 83 55
0.21182 -0.15285 4.32939 122 83 55
0.24725 -0.08426 4.32046 122 83 55
0.27249 0.00091 4.44671 122 83 55
0.25860 0.08589 4.45135 122 83 55
0.22174 0.15839 4.43169 122 83 55
0.15904 0.22127 4.42901 122 83 55
0.08491 0.25893 4.43516 122 83 55
-0.00351 0.27247 4.43622 122 83 55
-0.07962 0.26060 4.44991 122 83 55
-0.16424 0.21744 4.44500 122 83 55
-0.22291 0.15673 4.44075 122 83 55
-0.25919 0.08412 4.43948 122 83 55
-0.27246 0.00454 4.44883 122 83 55
-0.26076 -0.07910 4.44065 122 83 55
-0.21733 -0.16439 4.44701 122 83 55
-0.16008 -0.22052 4.45024 122 83 55
-0.08667 -0.25835 4.43416 122 83 55
0.00170 -0.27249 4.44236 122 83 55
0.08340 -0.25942 4.43745 122 83 55
0.15999 -0.22058 4.43750 122 83 55
0.22122 -0.15911 4.44804 122 83 55
0.25767 -0.08866 4.45003 122 83 55
0.27789 -0.00318 4.56688 122 83 55
0.26407 0.08660 4.55144 122 83 55
0.22424 0.16416 4.55346 122 83 55
0.16589 0.22296 4.55782 122 83 55
0.09025 0.26284 4.57163 122 83 55
0.00143 0.27790 4.55131 122 83 55
-0.08167 0.26563 4.55790 122 83 55
-0.16541 0.22332 4.55160 122 83 55
-0.22636 0.16121 4.56892 122 83 55
-0.26322 0.08914 4.55978 122 83 55
-0.27790 0.00015 4.55090 122 83 55
-0.26574 -0.08130 4.55787 122 83 55
-0.22222 -0.16688 4.57027 122 83 55
-0.16239 -0.22552 4.56903 122 83 55
-0.08927 -0.26318 4.55580 122 83 55
0.00553 -0.27785 4.56929 122 83 55
0.08253 -0.26537 4.55898 122 83 55
0.16208 -0.22574 4.54819 122 83 55
0.22320 -0.16557 4.57044 122 83 55
0.26388 -0.08717 4.57175 122 83 55
0.27487 0.00336 4.68163 122 83 55
0.26126 0.08548 4.67755 122 83 55
0.22074 0.16383 4.67202 122 83 55
0.16361 0.22090 4.67304 122 83 55
0.08982 0.25980 4.67869 122 83 55
0.00381 0.27487 4.68416 122 83 55
-0.08865 0.26020 4.68594 122 83 55
-0.16031 0.22331 4.68301 122 83 55
-0.22250 0.16143 4.67921 122 83 55
-0.26253 0.08152 4.67911 122 83 55
-0.27487 -0.00344 4.66876 122 83 55
-0.26089 -0.08662 4.67041 122 83 55
-0.22297 -0.16078 4.68450 122 83 55
-0.16544 -0.21953 4.67130 122 83 55
-0.08236 -0.26226 4.68020 122 83 55
0.00098 -0.27489 4.67112 122 83 55
0.08276 -0.26214 4.69092 122 83 55
0.16266 -0.22160 4.68283 122 83 55
0.22061 -0.16400 4.66922 122 83 55
0.26073 -0.08711 4.67312 122 83 55
0.26484 0.00437 4.80175 122 83 55
0.25255 0.07985 4.79090 122 83 55
0.21321 0.15716 4.79910 122 83 55
0.15716 0.21321 4.80295 122 83 55
0.07923 0.25275 4.80307 122 83 55
0.00526 0.26482 4.79631 122 83 55
-0.08252 0.25169 4.81168 122 83 55
-0.15682 0.21346 4.78864 122 83 55
-0.21375 0.15643 4.80374 122 83 55
-0.25064 0.08566 4.79350 122 83 55
-0.26488 0.00019 4.80558 122 83 55
-0.25084 -0.08507 4.79940 122 83 55
-0.21279 -0.15773 4.78944 122 83 55
-0.15797 -0.21262 4.79217 122 83 55
-0.07764 -0.25324 4.80354 122 83 55
0.00302 -0.26486 4.81170 122 83 55
0.08563 -0.25065 4.79077 122 83 55
0.15241 -0.21664 4.79044 122 83 55
0.21703 -0.15185 4.80876 122 83 55
0.25228 -0.08070 4.80197 122 83 55
0.25253 -0.00460 4.91540 122 83 55
0.24149 0.07396 4.92460 122 83 55
0.20323 0.14996 4.92538 122 83 55
0.14585 0.20620 4.91589 122 83 55
0.08123 0.23915 4.91926 122 83 55
-0.00057 0.25257 4.92041 122 83 55
-0.07867 0.24000 4.91795 122 83 55
-0.15146 0.20212 4.91424 122 83 55
-0.20314 0.15008 4.91688 122 83 55
-0.23898 0.08174 4.92096 122 83 55
-0.25257 0.00081 4.91003 122 83 55
-0.24153 -0.07384 4.92023 122 83 55
-0.20209 -0.15149 4.93072 122 83 55
-0.14709 -0.20532 4.91607 122 83 55
-0.07914 -0.23985 4.92178 122 83 55
0.00178 -0.25256 4.91852 122 83 55
0.08046 -0.23941 4.92953 122 83 55
0.14486 -0.20690 4.92331 122 83 55
0.20503 -0.14750 4.92166 122 83 55
0.24003 -0.07858 4.93069 122 83 55
0.24372 -0.00388 5.03089 122 83 55
0.23037 0.07967 5.04554 122 83 55
0.19541 0.14570 5.04219 122 83 55
0.14437 0.19640 5.04237 122 83 55
0.07923 0.23052 5.04270 122 83 55
0.00415 0.24372 5.03000 122 83 55
-0.07567 0.23171 5.03478 122 83 55
-0.14543 0.19562 5.03182 122 83 55
-0.19609 0.14479 5.04379 122 83 55
-0.23208 0.07454 5.02901 122 83 55
-0.24375 0.00091 5.03856 122 83 55
-0.23089 -0.07815 5.05018 122 83 55
-0.19887 -0.14095 5.02856 122 83 55
-0.14673 -0.19465 5.03719 122 83 55
-0.07981 -0.23032 5.03836 122 83 55
-0.00414 -0.24372 5.02823 122 83 55
0.07156 -0.23301 5.04074 122 83 55
0.14359 -0.19697 5.03028 122 83 55
0.19851 -0.14146 5.03670 122 83 55
0.23257 -0.07300 5.03471 122 83 55
0.24255 -0.00362 5.17113 122 83 55
0.22918 0.07953 5.15547 122 83 55
0.19754 0.14079 5.16486 122 83 55
0.13951 0.19845 5.16122 122 83 55
0.07923 0.22928 5.16947 122 83 55
0.00399 0.24255 5.14835 122 83 55
-0.07148 0.23181 5.15799 122 83 55
-0.13957 0.19841 5.15867 122 83 55
-0.19736 0.14105 5.17035 122 83 55
-0.22992 0.07734 5.15138 122 83 55
-0.24257 -0.00226 5.16931 122 83 55
-0.23042 -0.07584 5.15031 122 83 55
-0.19636 -0.14244 5.15817 122 83 55
-0.14631 -0.19349 5.15894 122 83 55
-0.07456 -0.23084 5.14838 122 83 55
-0.00177 -0.24258 5.17130 122 83 55
0.07457 -0.23084 5.17116 122 83 55
0.14528 -0.19427 5.16396 122 83 55
0.19813 -0.13997 5.15838 122 83 55
0.23134 -0.07300 5.15982 122 83 55
0.24960 -0.00130 5.26952 122 83 55
0.23587 0.08164 5.28108 122 83 55
0.20276 0.14557 5.28250 122 83 55
0.14622 0.20229 5.27486 122 83 55
0.07758 0.23724 5.26753 122 83 55
-0.00360 0.24958 5.27137 122 83 55
-0.08026 0.23635 5.26939 122 83 55
-0.14445 0.20356 5.29041 122 83 55
-0.19924 0.15035 5.27980 122 83 55
-0.23815 0.07474 5.26868 122 83 55
-0.24958 0.00326 5.26767 122 83 55
-0.23837 -0.07402 5.29131 122 83 55
-0.20464 -0.14291 5.28155 122 83 55
-0.14541 -0.20287 5.28242 122 83 55
-0.07594 -0.23777 5.27446 122 83 55
0.00371 -0.24957 5.27066 122 83 55
0.07306 -0.23867 5.28293 122 83 55
0.14768 -0.20123 5.27707 122 83 55
0.20272 -0.14563 5.27302 122 83 55
0.23861 -0.07325 5.27875 122 83 55
