ply
format ascii 1.0
comment SIMULATED DEMO - NOT FIELD EVIDENCE
element vertex 900
property float x
property float y
property float z
property uchar red
property uchar green
property uchar blue
end_header
0.26000 0.00047 0.00558 122 83 55
0.24834 0.07699 -0.00593 122 83 55
0.21268 0.14955 0.01011 122 83 55
0.15548 0.20839 -0.00493 122 83 55
0.07555 0.24878 -0.00968 122 83 55
0.00384 0.25997 -0.00529 122 83 55
-0.07830 0.24793 -0.00930 122 83 55
-0.15463 0.20902 0.00167 122 83 55
-0.21102 0.15189 -0.01190 122 83 55
-0.24563 0.08524 0.01082 122 83 55
-0.26000 0.00054 0.00992 122 83 55
-0.24740 -0.07997 0.00915 122 83 55
-0.20917 -0.15442 0.00834 122 83 55
-0.15149 -0.21131 0.00903 122 83 55
-0.07788 -0.24806 0.00981 122 83 55
0.00076 -0.26000 -0.00634 122 83 55
0.08055 -0.24721 -0.00990 122 83 55
0.15481 -0.20888 -0.00936 122 83 55
0.21035 -0.15282 0.00665 122 83 55
0.24769 -0.07905 -0.00406 122 83 55
0.27159 0.00095 0.12101 122 83 55
0.25973 0.07939 0.12185 122 83 55
0.22002 0.15923 0.11060 122 83 55
0.15989 0.21954 0.10857 122 83 55
0.08367 0.25839 0.12013 122 83 55
0.00150 0.27159 0.11554 122 83 55
-0.08821 0.25687 0.10936 122 83 55
-0.15805 0.22087 0.11476 122 83 55
-0.22219 0.15619 0.11000 122 83 55
-0.25767 0.08585 0.11457 122 83 55
-0.27159 -0.00202 0.11603 122 83 55
-0.25917 -0.08121 0.12872 122 83 55
-0.21807 -0.16190 0.12771 122 83 55
-0.15613 -0.22223 0.12669 122 83 55
-0.08080 -0.25930 0.13094 122 83 55
0.00416 -0.27156 0.11258 122 83 55
0.07989 -0.25958 0.12499 122 83 55
0.15574 -0.22251 0.11102 122 83 55
0.21710 -0.16319 0.11751 122 83 55
0.25858 -0.08308 0.11990 122 83 55
0.27769 -0.00491 0.23244 122 83 55
0.26347 0.08788 0.24101 122 83 55
0.22436 0.16371 0.24229 122 83 55
0.16133 0.22608 0.24067 122 83 55
0.08198 0.26536 0.23776 122 83 55
-0.00483 0.27770 0.24406 122 83 55
-0.08593 0.26411 0.22891 122 83 55
-0.16240 0.22531 0.24794 122 83 55
-0.22648 0.16077 0.22806 122 83 55
-0.26500 0.08315 0.24268 122 83 55
-0.27773 -0.00157 0.25128 122 83 55
-0.26398 -0.08633 0.24604 122 83 55
-0.22349 -0.16490 0.24625 122 83 55
-0.15982 -0.22715 0.24713 122 83 55
-0.08304 -0.26503 0.24065 122 83 55
-0.00430 -0.27770 0.24525 122 83 55
0.08670 -0.26386 0.23647 122 83 55
0.15899 -0.22773 0.24975 122 83 55
0.22440 -0.16365 0.23189 122 83 55
0.26512 -0.08276 0.23813 122 83 55
0.27551 0.00375 0.35361 122 83 55
0.26224 0.08457 0.37077 122 83 55
0.22296 0.16190 0.34876 122 83 55
0.15810 0.22567 0.35237 122 83 55
0.08730 0.26134 0.36184 122 83 55
-0.00275 0.27552 0.35569 122 83 55
-0.08086 0.26341 0.35324 122 83 55
-0.16472 0.22088 0.35526 122 83 55
-0.22059 0.16511 0.37228 122 83 55
-0.26069 0.08922 0.34925 122 83 55
-0.27549 -0.00510 0.35895 122 83 55
-0.26303 -0.08208 0.35958 122 83 55
-0.22180 -0.16348 0.36965 122 83 55
-0.15997 -0.22435 0.37094 122 83 55
-0.08850 -0.26094 0.35864 122 83 55
-0.00249 -0.27553 0.35627 122 83 55
0.08788 -0.26115 0.35305 122 83 55
0.16280 -0.22230 0.36708 122 83 55
0.22526 -0.15867 0.36567 122 83 55
0.26287 -0.08259 0.34842 122 83 55
0.26602 -0.00276 0.49076 122 83 55
0.25250 0.08377 0.48947 122 83 55
0.21406 0.15796 0.46967 122 83 55
0.15690 0.21483 0.48705 122 83 55
0.08696 0.25142 0.48911 122 83 55
0.00355 0.26601 0.47559 122 83 55
-0.07863 0.25414 0.48115 122 83 55
-0.15280 0.21777 0.48327 122 83 55
-0.21271 0.15978 0.47544 122 83 55
-0.25287 0.08263 0.48037 122 83 55
-0.26602 -0.00245 0.49024 122 83 55
-0.25310 -0.08192 0.47212 122 83 55
-0.21668 -0.15434 0.47011 122 83 55
-0.15237 -0.21807 0.48451 122 83 55
-0.07907 -0.25401 0.48949 122 83 55
0.00381 -0.26600 0.47791 122 83 55
0.08467 -0.25220 0.47251 122 83 55
0.15695 -0.21480 0.47939 122 83 55
0.21461 -0.15721 0.48566 122 83 55
0.25388 -0.07948 0.48115 122 83 55
0.25368 0.00082 0.61125 122 83 55
0.24192 0.07637 0.60350 122 83 55
0.20388 0.15096 0.60071 122 83 55
0.15277 0.20253 0.61207 122 83 55
0.07497 0.24236 0.60831 122 83 55
0.00255 0.25367 0.60549 122 83 55
-0.07902 0.24106 0.61169 122 83 55
-0.14714 0.20665 0.59559 122 83 55
-0.20640 0.14750 0.60731 122 83 55
-0.24265 0.07400 0.60873 122 83 55
-0.25369 0.00044 0.60483 122 83 55
-0.24171 -0.07704 0.59802 122 83 55
-0.20739 -0.14610 0.59083 122 83 55
-0.14569 -0.20768 0.60245 122 83 55
-0.07668 -0.24182 0.59360 122 83 55
0.00229 -0.25368 0.60017 122 83 55
0.08076 -0.24049 0.61175 122 83 55
0.14955 -0.20491 0.60946 122 83 55
0.20257 -0.15272 0.60090 122 83 55
0.24120 -0.07861 0.59712 122 83 55
0.24428 -0.00380 0.71374 122 83 55
0.23255 0.07489 0.73039 122 83 55
0.19709 0.14437 0.73024 122 83 55
0.14672 0.19535 0.72450 122 83 55
0.07921 0.23111 0.71573 122 83 55
-0.00299 0.24429 0.71455 122 83 55
-0.07916 0.23113 0.72608 122 83 55
-0.14294 0.19813 0.71136 122 83 55
-0.20019 0.14004 0.71047 122 83 55
-0.23221 0.07595 0.73232 122 83 55
-0.24431 0.00098 0.72312 122 83 55
-0.23141 -0.07835 0.70960 122 83 55
-0.19954 -0.14097 0.72718 122 83 55
-0.14078 -0.19967 0.72409 122 83 55
-0.07589 -0.23223 0.70972 122 83 55
0.00313 -0.24429 0.72496 122 83 55
0.07325 -0.23307 0.70824 122 83 55
0.14506 -0.19658 0.72578 122 83 55
0.19585 -0.14605 0.73042 122 83 55
0.23092 -0.07979 0.72453 122 83 55
0.24230 -0.00267 0.84991 122 83 55
0.23021 0.07563 0.84592 122 83 55
0.19792 0.13981 0.85239 122 83 55
0.14420 0.19474 0.84590 122 83 55
0.07098 0.23169 0.83218 122 83 55
0.00234 0.24230 0.84430 122 83 55
-0.07866 0.22919 0.84611 122 83 55
-0.13920 0.19835 0.83285 122 83 55
-0.19434 0.14474 0.83761 122 83 55
-0.23168 0.07099 0.83718 122 83 55
-0.24230 0.00297 0.82997 122 83 55
-0.23011 -0.07594 0.84751 122 83 55
-0.19380 -0.14545 0.83432 122 83 55
-0.13851 -0.19883 0.82904 122 83 55
-0.07799 -0.22942 0.82900 122 83 55
0.00171 -0.24231 0.83427 122 83 55
0.07512 -0.23038 0.84795 122 83 55
0.13984 -0.19789 0.84592 122 83 55
0.19469 -0.14426 0.84768 122 83 55
0.22970 -0.07716 0.83502 122 83 55
0.24859 0.00495 0.94774 122 83 55
0.23570 0.07917 0.97031 122 83 55
0.20401 0.14213 0.95676 122 83 55
0.14832 0.19956 0.95618 122 83 55
0.07299 0.23768 0.97163 122 83 55
0.00192 0.24863 0.95262 122 83 55
-0.07669 0.23651 0.96918 122 83 55
-0.14593 0.20131 0.96211 122 83 55
-0.20283 0.14380 0.96553 122 83 55
-0.23705 0.07501 0.94917 122 83 55
-0.24862 -0.00282 0.95503 122 83 55
-0.23732 -0.07415 0.97020 122 83 55
-0.20313 -0.14339 0.96145 122 83 55
-0.14780 -0.19994 0.96178 122 83 55
-0.08026 -0.23533 0.97061 122 83 55
0.00254 -0.24862 0.97248 122 83 55
0.07512 -0.23702 0.96994 122 83 55
0.14741 -0.20023 0.95394 122 83 55
0.20364 -0.14266 0.95148 122 83 55
0.23633 -0.07724 0.95877 122 83 55
0.26026 -0.00491 1.08636 122 83 55
0.24789 0.07942 1.06847 122 83 55
0.21056 0.15305 1.06967 122 83 55
0.15649 0.20801 1.09144 122 83 55
0.07586 0.24900 1.08639 122 83 55
0.00076 0.26030 1.07182 122 83 55
-0.08321 0.24664 1.07984 122 83 55
-0.15240 0.21102 1.08169 122 83 55
-0.21350 0.14891 1.08552 122 83 55
-0.24756 0.08046 1.07489 122 83 55
-0.26030 -0.00189 1.07964 122 83 55
-0.24832 -0.07806 1.09243 122 83 55
-0.21221 -0.15075 1.08758 122 83 55
-0.15672 -0.20784 1.08041 122 83 55
-0.08156 -0.24720 1.08399 122 83 55
0.00088 -0.26030 1.06769 122 83 55
0.07582 -0.24902 1.07240 122 83 55
0.15219 -0.21118 1.08192 122 83 55
0.20986 -0.15400 1.08851 122 83 55
0.24663 -0.08324 1.08861 122 83 55
0.27182 0.00109 1.19749 122 83 55
0.25957 0.08070 1.18928 122 83 55
0.22100 0.15827 1.19701 122 83 55
0.15833 0.22095 1.20600 122 83 55
0.08340 0.25872 1.18880 122 83 55
0.00371 0.27180 1.20574 122 83 55
-0.08661 0.25766 1.18798 122 83 55
-0.15824 0.22102 1.19942 122 83 55
-0.21857 0.16161 1.19550 122 83 55
-0.25797 0.08568 1.20657 122 83 55
-0.27183 -0.00031 1.19525 122 83 55
-0.26014 -0.07884 1.18789 122 83 55
-0.22251 -0.15614 1.20891 122 83 55
-0.16097 -0.21904 1.19430 122 83 55
-0.08717 -0.25747 1.20256 122 83 55
0.00236 -0.27182 1.19212 122 83 55
0.07995 -0.25980 1.19541 122 83 55
0.15769 -0.22141 1.20548 122 83 55
0.21707 -0.16362 1.20238 122 83 55
0.25967 -0.08037 1.19827 122 83 55
0.27776 -0.00388 1.31842 122 83 55
0.26426 0.08563 1.31898 122 83 55
0.22695 0.16018 1.31861 122 83 55
0.16250 0.22530 1.32338 122 83 55
0.08852 0.26331 1.32452 122 83 55
0.00306 0.27777 1.31592 122 83 55
-0.09073 0.26255 1.31848 122 83 55
-0.16487 0.22357 1.33222 122 83 55
-0.22181 0.16723 1.31854 122 83 55
-0.26295 0.08956 1.31608 122 83 55
-0.27774 -0.00525 1.31342 122 83 55
-0.26416 -0.08594 1.33083 122 83 55
-0.22736 -0.15960 1.32773 122 83 55
-0.16495 -0.22351 1.31599 122 83 55
-0.09050 -0.26263 1.32407 122 83 55
-0.00008 -0.27779 1.31155 122 83 55
0.08827 -0.26339 1.33006 122 83 55
0.16322 -0.22478 1.32842 122 83 55
0.22573 -0.16190 1.30927 122 83 55
0.26506 -0.08314 1.32463 122 83 55
0.27534 -0.00491 1.44651 122 83 55
0.26097 0.08792 1.44860 122 83 55
0.22115 0.16410 1.43418 122 83 55
0.16493 0.22053 1.45141 122 83 55
0.08500 0.26194 1.44745 122 83 55
0.00056 0.27538 1.44688 122 83 55
-0.08726 0.26119 1.45247 122 83 55
-0.16273 0.22216 1.42903 122 83 55
-0.22188 0.16311 1.44807 122 83 55
-0.26119 0.08726 1.43801 122 83 55
-0.27535 -0.00394 1.45245 122 83 55
-0.26129 -0.08697 1.45177 122 83 55
-0.21972 -0.16600 1.44289 122 83 55
-0.16577 -0.21990 1.45198 122 83 55
-0.08033 -0.26341 1.44246 122 83 55
0.00138 -0.27538 1.44890 122 83 55
0.08904 -0.26059 1.42933 122 83 55
0.16055 -0.22374 1.43139 122 83 55
0.22217 -0.16271 1.45013 122 83 55
0.26210 -0.08449 1.43908 122 83 55
0.26573 0.00233 1.57033 122 83 55
0.25175 0.08509 1.55544 122 83 55
0.21602 0.15477 1.56084 122 83 55
0.15996 0.21221 1.56136 122 83 55
0.07784 0.25409 1.57105 122 83 55
0.00001 0.26574 1.56540 122 83 55
-0.08162 0.25290 1.57017 122 83 55
-0.15247 0.21765 1.55775 122 83 55
-0.21333 0.15846 1.56960 122 83 55
-0.25391 0.07841 1.56673 122 83 55
-0.26573 -0.00239 1.55045 122 83 55
-0.25413 -0.07771 1.55729 122 83 55
-0.21761 -0.15253 1.56686 122 83 55
-0.15464 -0.21611 1.55772 122 83 55
-0.07816 -0.25399 1.55633 122 83 55
0.00094 -0.26574 1.56176 122 83 55
0.08375 -0.25220 1.57039 122 83 55
0.15650 -0.21477 1.55966 122 83 55
0.21653 -0.15406 1.56944 122 83 55
0.25125 -0.08658 1.55790 122 83 55
0.25335 0.00499 1.67732 122 83 55
0.24084 0.07880 1.67365 122 83 55
0.20632 0.14712 1.68215 122 83 55
0.14561 0.20739 1.68120 122 83 55
0.07719 0.24136 1.67140 122 83 55
0.00073 0.25340 1.68890 122 83 55
-0.07912 0.24073 1.67030 122 83 55
-0.14501 0.20781 1.68130 122 83 55
-0.20330 0.15127 1.68401 122 83 55
-0.24189 0.07552 1.66764 122 83 55
-0.25340 -0.00131 1.68009 122 83 55
-0.24091 -0.07857 1.68885 122 83 55
-0.20785 -0.14495 1.66934 122 83 55
-0.14606 -0.20707 1.68158 122 83 55
-0.07549 -0.24190 1.67895 122 83 55
0.00331 -0.25338 1.68407 122 83 55
0.08301 -0.23942 1.66854 122 83 55
0.14813 -0.20560 1.67489 122 83 55
0.20344 -0.15108 1.67055 122 83 55
0.23940 -0.08306 1.69173 122 83 55
0.24414 0.00377 1.78802 122 83 55
0.23342 0.07165 1.80383 122 83 55
0.19977 0.14039 1.79880 122 83 55
0.14332 0.19768 1.80281 122 83 55
0.07945 0.23088 1.79169 122 83 55
0.00448 0.24412 1.80286 122 83 55
-0.07538 0.23224 1.79096 122 83 55
-0.14140 0.19906 1.79765 122 83 55
-0.19560 0.14614 1.80741 122 83 55
-0.23296 0.07313 1.80236 122 83 55
-0.24415 0.00230 1.78980 122 83 55
-0.23166 -0.07714 1.79570 122 83 55
-0.19734 -0.14379 1.79739 122 83 55
-0.14490 -0.19652 1.79789 122 83 55
-0.07378 -0.23275 1.79982 122 83 55
0.00261 -0.24415 1.80682 122 83 55
0.07574 -0.23212 1.79269 122 83 55
0.13977 -0.20020 1.79602 122 83 55
0.19932 -0.14103 1.79753 122 83 55
0.23274 -0.07382 1.80910 122 83 55
0.24237 0.00102 1.91683 122 83 55
0.23159 0.07149 1.91172 122 83 55
0.19433 0.14485 1.93078 122 83 55
0.14528 0.19401 1.92835 122 83 55
0.07769 0.22959 1.92335 122 83 55
0.00419 0.24234 1.91733 122 83 55
-0.07875 0.22922 1.93220 122 83 55
-0.13864 0.19881 1.91904 122 83 55
-0.19580 0.14286 1.92254 122 83 55
-0.23176 0.07094 1.91807 122 83 55
-0.24237 0.00093 1.92167 122 83 55
-0.23149 -0.07182 1.92186 122 83 55
-0.19472 -0.14432 1.92219 122 83 55
-0.14449 -0.19460 1.92910 122 83 55
-0.07780 -0.22955 1.92281 122 83 55
0.00151 -0.24237 1.92284 122 83 55
0.07028 -0.23196 1.93239 122 83 55
0.13913 -0.19847 1.92920 122 83 55
0.19522 -0.14365 1.91862 122 83 55
0.22979 -0.07708 1.91402 122 83 55
0.24884 0.00395 2.03443 122 83 55
0.23678 0.07664 2.04095 122 83 55
0.20158 0.14595 2.04612 122 83 55
0.14788 0.20018 2.03068 122 83 55
0.07440 0.23749 2.03871 122 83 55
0.00351 0.24885 2.03748 122 83 55
-0.07849 0.23617 2.03006 122 83 55
-0.14834 0.19984 2.04013 122 83 55
-0.20074 0.14711 2.03176 122 83 55
-0.23686 0.07639 2.05086 122 83 55
-0.24887 -0.00150 2.03075 122 83 55
-0.23598 -0.07906 2.03210 122 83 55
-0.20056 -0.14736 2.03732 122 83 55
-0.14846 -0.19974 2.03193 122 83 55
-0.07829 -0.23624 2.03084 122 83 55
-0.00304 -0.24886 2.03565 122 83 55
0.07934 -0.23589 2.04142 122 83 55
0.14592 -0.20161 2.03680 122 83 55
0.20159 -0.14594 2.03628 122 83 55
0.23539 -0.08080 2.03763 122 83 55
0.26060 0.00215 2.15661 122 83 55
0.24866 0.07799 2.16482 122 83 55
0.21279 0.15045 2.16625 122 83 55
0.15177 0.21185 2.15279 122 83 55
0.08447 0.24654 2.15021 122 83 55
-0.00134 0.26060 2.14821 122 83 55
-0.08150 0.24753 2.15723 122 83 55
-0.15088 0.21249 2.17032 122 83 55
-0.20828 0.15664 2.16160 122 83 55
-0.24707 0.08289 2.16818 122 83 55
-0.26061 -0.00005 2.15608 122 83 55
-0.24909 -0.07662 2.15207 122 83 55
-0.20789 -0.15715 2.15862 122 83 55
-0.15457 -0.20982 2.14762 122 83 55
-0.07775 -0.24874 2.15219 122 83 55
-0.00520 -0.26055 2.15729 122 83 55
0.08261 -0.24717 2.15799 122 83 55
0.15576 -0.20893 2.17041 122 83 55
0.20835 -0.15655 2.14872 122 83 55
0.24820 -0.07945 2.16889 122 83 55
0.27203 -0.00382 2.28483 122 83 55
0.25719 0.08868 2.27720 122 83 55
0.22098 0.15869 2.27286 122 83 55
0.15925 0.22057 2.27134 122 83 55
0.08774 0.25752 2.27123 122 83 55
0.00348 0.27203 2.28784 122 83 55
-0.08862 0.25721 2.27520 122 83 55
-0.16206 0.21851 2.28006 122 83 55
-0.21974 0.16039 2.26884 122 83 55
-0.25793 0.08652 2.27530 122 83 55
-0.27204 -0.00257 2.26812 122 83 55
-0.25789 -0.08663 2.27245 122 83 55
-0.22066 -0.15913 2.27559 122 83 55
-0.15763 -0.22173 2.29124 122 83 55
-0.08879 -0.25716 2.27825 122 83 55
0.00403 -0.27202 2.27039 122 83 55
0.08446 -0.25861 2.27645 122 83 55
0.16274 -0.21801 2.26804 122 83 55
0.21838 -0.16225 2.28806 122 83 55
0.25792 -0.08653 2.27439 122 83 55
0.27781 0.00327 2.39822 122 83 55
0.26485 0.08392 2.39746 122 83 55
0.22637 0.16108 2.39137 122 83 55
0.16385 0.22437 2.39925 122 83 55
0.08298 0.26515 2.40340 122 83 55
0.00315 0.27781 2.41086 122 83 55
-0.09037 0.26272 2.38809 122 83 55
-0.15980 0.22728 2.41128 122 83 55
-0.22575 0.16195 2.39819 122 83 55
-0.26368 0.08753 2.41093 122 83 55
-0.27779 0.00468 2.39288 122 83 55
-0.26485 -0.08392 2.39212 122 83 55
-0.22165 -0.16751 2.40440 122 83 55
-0.16422 -0.22410 2.40507 122 83 55
-0.08631 -0.26408 2.40798 122 83 55
0.00403 -0.27780 2.40411 122 83 55
0.08296 -0.26516 2.39559 122 83 55
0.16180 -0.22585 2.39024 122 83 55
0.22469 -0.16342 2.41000 122 83 55
0.26280 -0.09015 2.40717 122 83 55
0.27521 -0.00267 2.52216 122 83 55
0.26000 0.09026 2.51444 122 83 55
0.22053 0.16467 2.52591 122 83 55
0.15768 0.22557 2.52735 122 83 55
0.08537 0.26165 2.52556 122 83 55
0.00405 0.27519 2.51472 122 83 55
-0.08744 0.26097 2.52291 122 83 55
-0.16081 0.22336 2.52681 122 83 55
-0.22494 0.15859 2.51652 122 83 55
-0.26223 0.08357 2.53176 122 83 55
-0.27521 0.00298 2.51255 122 83 55
-0.26331 -0.08009 2.52549 122 83 55
-0.22046 -0.16476 2.51738 122 83 55
-0.16427 -0.22082 2.52599 122 83 55
-0.08881 -0.26050 2.51878 122 83 55
-0.00343 -0.27520 2.52425 122 83 55
0.08933 -0.26032 2.51846 122 83 55
0.15950 -0.22429 2.52036 122 83 55
0.22493 -0.15860 2.51013 122 83 55
0.26078 -0.08798 2.52961 122 83 55
0.26542 -0.00410 2.64851 122 83 55
0.25395 0.07730 2.64452 122 83 55
0.21182 0.16000 2.64590 122 83 55
0.15929 0.21235 2.63007 122 83 55
0.08406 0.25180 2.63419 122 83 55
0.00159 0.26545 2.63073 122 83 55
-0.08405 0.25180 2.63647 122 83 55
-0.15592 0.21484 2.64894 122 83 55
-0.21301 0.15841 2.64865 122 83 55
-0.25176 0.08417 2.63619 122 83 55
-0.26543 0.00359 2.64266 122 83 55
-0.25150 -0.08494 2.64879 122 83 55
-0.21513 -0.15552 2.64918 122 83 55
-0.15673 -0.21425 2.64205 122 83 55
-0.08316 -0.25209 2.63908 122 83 55
0.00446 -0.26542 2.63742 122 83 55
0.07730 -0.25395 2.62884 122 83 55
0.15410 -0.21615 2.62887 122 83 55
0.21298 -0.15845 2.64168 122 83 55
0.25110 -0.08611 2.65042 122 83 55
0.25309 -0.00391 2.75728 122 83 55
0.24180 0.07486 2.75375 122 83 55
0.20193 0.15263 2.74921 122 83 55
0.15247 0.20205 2.76027 122 83 55
0.08128 0.23972 2.76048 122 83 55
0.00316 0.25310 2.75395 122 83 55
-0.08261 0.23926 2.74884 122 83 55
-0.14904 0.20459 2.76201 122 83 55
-0.20336 0.15072 2.76471 122 83 55
-0.24167 0.07528 2.75209 122 83 55
-0.25311 -0.00261 2.76087 122 83 55
-0.24179 -0.07488 2.76052 122 83 55
-0.20251 -0.15186 2.75440 122 83 55
-0.14943 -0.20431 2.76293 122 83 55
-0.07952 -0.24031 2.77236 122 83 55
0.00002 -0.25312 2.75925 122 83 55
0.08125 -0.23973 2.76919 122 83 55
0.14876 -0.20480 2.75171 122 83 55
0.20240 -0.15201 2.75998 122 83 55
0.24102 -0.07732 2.75064 122 83 55
0.24401 0.00215 2.88995 122 83 55
0.23087 0.07904 2.86900 122 83 55
0.19808 0.14251 2.87682 122 83 55
0.14237 0.19819 2.88300 122 83 55
0.07547 0.23206 2.88895 122 83 55
-0.00024 0.24402 2.88720 122 83 55
-0.07305 0.23283 2.87834 122 83 55
-0.14023 0.19971 2.87903 122 83 55
-0.19745 0.14339 2.86902 122 83 55
-0.23163 0.07677 2.88855 122 83 55
-0.24401 -0.00235 2.88729 122 83 55
-0.23327 -0.07164 2.88086 122 83 55
-0.19671 -0.14440 2.89183 122 83 55
-0.14208 -0.19839 2.87967 122 83 55
-0.07909 -0.23085 2.87278 122 83 55
-0.00401 -0.24399 2.87164 122 83 55
0.07116 -0.23342 2.87016 122 83 55
0.14502 -0.19626 2.88275 122 83 55
0.19885 -0.14145 2.86834 122 83 55
0.23324 -0.07174 2.87374 122 83 55
0.24240 0.00438 2.99932 122 83 55
0.23051 0.07512 3.00326 122 83 55
0.19845 0.13926 3.00413 122 83 55
0.14639 0.19325 2.99848 122 83 55
0.07055 0.23195 3.00257 122 83 55
0.00204 0.24243 2.99916 122 83 55
-0.07152 0.23165 3.00311 122 83 55
-0.14020 0.19779 2.99742 122 83 55
-0.19589 0.14284 2.99063 122 83 55
-0.23140 0.07233 3.00179 122 83 55
-0.24240 -0.00418 2.99136 122 83 55
-0.23034 -0.07563 2.99023 122 83 55
-0.19578 -0.14300 3.01024 122 83 55
-0.14450 -0.19467 2.98823 122 83 55
-0.07195 -0.23152 2.99740 122 83 55
0.00178 -0.24243 2.99411 122 83 55
0.07178 -0.23157 3.00676 122 83 55
0.14307 -0.19572 3.00525 122 83 55
0.19600 -0.14269 2.99062 122 83 55
0.22964 -0.07772 3.00478 122 83 55
0.24911 0.00040 3.12593 122 83 55
0.23606 0.07957 3.11988 122 83 55
0.19989 0.14867 3.10871 122 83 55
0.14436 0.20302 3.12901 122 83 55
0.07278 0.23824 3.12954 122 83 55
-0.00265 0.24910 3.12141 122 83 55
-0.07703 0.23690 3.12426 122 83 55
-0.14380 0.20342 3.11878 122 83 55
-0.20380 0.14326 3.12531 122 83 55
-0.23686 0.07717 3.12509 122 83 55
-0.24909 -0.00311 3.12530 122 83 55
-0.23548 -0.08127 3.13188 122 83 55
-0.20243 -0.14519 3.11072 122 83 55
-0.14821 -0.20023 3.12733 122 83 55
-0.07652 -0.23707 3.10997 122 83 55
-0.00408 -0.24908 3.11922 122 83 55
0.07863 -0.23638 3.13098 122 83 55
0.14784 -0.20050 3.11244 122 83 55
0.20080 -0.14743 3.12025 122 83 55
0.23606 -0.07958 3.11359 122 83 55
0.26091 -0.00098 3.25101 122 83 55
0.24848 0.07955 3.23599 122 83 55
0.20988 0.15499 3.23976 122 83 55
0.15685 0.20849 3.24502 122 83 55
0.07723 0.24922 3.24153 122 83 55
-0.00202 0.26090 3.23467 122 83 55
-0.07956 0.24848 3.23056 122 83 55
-0.15112 0.21269 3.23270 122 83 55
-0.21072 0.15386 3.22917 122 83 55
-0.24671 0.08490 3.23778 122 83 55
-0.26091 0.00102 3.23410 122 83 55
-0.24917 -0.07738 3.22851 122 83 55
-0.21386 -0.14946 3.23564 122 83 55
-0.15590 -0.20921 3.23024 122 83 55
-0.08492 -0.24670 3.23616 122 83 55
0.00198 -0.26090 3.23701 122 83 55
0.08439 -0.24688 3.23102 122 83 55
0.15128 -0.21258 3.24213 122 83 55
0.20996 -0.15488 3.24591 122 83 55
0.24838 -0.07987 3.23709 122 83 55
0.27227 -0.00070 3.35107 122 83 55
0.25895 0.08413 3.36490 122 83 55
0.21908 0.16168 3.36400 122 83 55
0.15883 0.22115 3.35512 122 83 55
0.08854 0.25748 3.35358 122 83 55
0.00325 0.27226 3.36902 122 83 55
-0.07984 0.26031 3.36470 122 83 55
-0.15568 0.22338 3.36472 122 83 55
-0.22035 0.15993 3.36382 122 83 55
-0.26015 0.08033 3.34828 122 83 55
-0.27227 0.00054 3.36712 122 83 55
-0.25794 -0.08717 3.36302 122 83 55
-0.22281 -0.15649 3.35906 122 83 55
-0.15761 -0.22202 3.36558 122 83 55
-0.08770 -0.25777 3.37054 122 83 55
-0.00536 -0.27222 3.34853 122 83 55
0.08823 -0.25759 3.36711 122 83 55
0.16301 -0.21809 3.35039 122 83 55
0.21878 -0.16207 3.35370 122 83 55
0.26008 -0.08056 3.35059 122 83 55
0.27787 0.00090 3.47896 122 83 55
0.26334 0.08867 3.47263 122 83 55
0.22414 0.16424 3.48822 122 83 55
0.16566 0.22309 3.48533 122 83 55
0.08944 0.26308 3.47548 122 83 55
-0.00042 0.27787 3.46823 122 83 55
-0.08672 0.26399 3.49111 122 83 55
-0.16568 0.22307 3.48824 122 83 55
-0.22479 0.16334 3.46813 122 83 55
-0.26324 0.08899 3.49123 122 83 55
-0.27783 -0.00480 3.49124 122 83 55
-0.26318 -0.08915 3.47325 122 83 55
-0.22384 -0.16464 3.47884 122 83 55
-0.15896 -0.22791 3.49236 122 83 55
-0.08937 -0.26311 3.48499 122 83 55
-0.00421 -0.27784 3.46842 122 83 55
0.08058 -0.26593 3.48382 122 83 55
0.16489 -0.22366 3.47429 122 83 55
0.22740 -0.15969 3.48089 122 83 55
0.26457 -0.08495 3.47821 122 83 55
0.27505 -0.00259 3.59656 122 83 55
0.26195 0.08391 3.59840 122 83 55
0.21949 0.16577 3.60832 122 83 55
0.16256 0.22189 3.59721 122 83 55
0.08793 0.26063 3.58976 122 83 55
-0.00133 0.27506 3.59310 122 83 55
-0.08320 0.26217 3.59034 122 83 55
-0.16165 0.22255 3.60056 122 83 55
-0.22134 0.16330 3.60648 122 83 55
-0.26169 0.08471 3.58869 122 83 55
-0.27503 -0.00404 3.60548 122 83 55
-0.26224 -0.08301 3.61084 122 83 55
-0.22523 -0.15789 3.61020 122 83 55
-0.16016 -0.22362 3.60387 122 83 55
-0.08083 -0.26291 3.58868 122 83 55
0.00386 -0.27503 3.59160 122 83 55
0.08294 -0.26226 3.59903 122 83 55
0.16569 -0.21955 3.60874 122 83 55
0.22289 -0.16118 3.59627 122 83 55
0.26017 -0.08928 3.59233 122 83 55
0.26513 -0.00419 3.70898 122 83 55
0.25073 0.08629 3.71435 122 83 55
0.21149 0.15995 3.70997 122 83 55
0.15455 0.21547 3.72016 122 83 55
0.07953 0.25296 3.73125 122 83 55
0.00104 0.26516 3.71389 122 83 55
-0.07992 0.25284 3.73003 122 83 55
-0.15869 0.21244 3.71297 122 83 55
-0.21298 0.15797 3.71862 122 83 55
-0.25161 0.08371 3.72535 122 83 55
-0.26517 0.00056 3.73235 122 83 55
-0.25082 -0.08605 3.71415 122 83 55
-0.21162 -0.15978 3.73088 122 83 55
-0.15968 -0.21170 3.71082 122 83 55
-0.07920 -0.25306 3.71469 122 83 55
0.00305 -0.26515 3.72392 122 83 55
0.08398 -0.25152 3.71935 122 83 55
0.15905 -0.21217 3.72230 122 83 55
0.21437 -0.15607 3.73202 122 83 55
0.25361 -0.07744 3.72715 122 83 55
0.25280 0.00451 3.85041 122 83 55
0.23932 0.08158 3.84912 122 83 55
0.20241 0.15152 3.84580 122 83 55
0.14710 0.20565 3.84779 122 83 55
0.07642 0.24102 3.84317 122 83 55
0.00469 0.25280 3.84185 122 83 55
-0.07684 0.24089 3.83741 122 83 55
-0.15038 0.20327 3.82991 122 83 55
-0.20228 0.15170 3.84612 122 83 55
-0.24157 0.07467 3.83787 122 83 55
-0.25284 0.00027 3.83562 122 83 55
-0.24188 -0.07363 3.84517 122 83 55
-0.20597 -0.14665 3.82793 122 83 55
-0.15263 -0.20158 3.83840 122 83 55
-0.07954 -0.24001 3.83313 122 83 55
-0.00386 -0.25281 3.85200 122 83 55
0.07502 -0.24146 3.83220 122 83 55
0.14848 -0.20466 3.83718 122 83 55
0.20382 -0.14962 3.84217 122 83 55
0.24030 -0.07865 3.83121 122 83 55
0.24387 -0.00291 3.97140 122 83 55
0.23332 0.07101 3.95065 122 83 55
0.19776 0.14272 3.96414 122 83 55
0.14488 0.19619 3.94829 122 83 55
0.07186 0.23306 3.95976 122 83 55
-0.00361 0.24386 3.94976 122 83 55
-0.07980 0.23046 3.94833 122 83 55
-0.14683 0.19474 3.96717 122 83 55
-0.19863 0.14151 3.96031 122 83 55
-0.23261 0.07329 3.96823 122 83 55
-0.24386 0.00382 3.96472 122 83 55
-0.23040 -0.07997 3.96558 122 83 55
-0.19515 -0.14628 3.97091 122 83 55
-0.14585 -0.19547 3.96250 122 83 55
-0.07854 -0.23089 3.96583 122 83 55
-0.00224 -0.24388 3.95200 122 83 55
0.07424 -0.23231 3.94942 122 83 55
0.14231 -0.19806 3.94816 122 83 55
0.19634 -0.14468 3.96259 122 83 55
0.23281 -0.07265 3.95912 122 83 55
0.24251 0.00018 4.07784 122 83 55
0.22937 0.07873 4.08799 122 83 55
0.19865 0.13909 4.08937 122 83 55
0.14481 0.19452 4.08889 122 83 55
0.07241 0.23145 4.09059 122 83 55
0.00249 0.24249 4.08152 122 83 55
-0.07206 0.23156 4.08296 122 83 55
-0.14240 0.19630 4.08417 122 83 55
-0.19720 0.14114 4.09183 122 83 55
-0.22972 0.07772 4.08115 122 83 55
-0.24247 -0.00430 4.07569 122 83 55
-0.22944 -0.07854 4.07684 122 83 55
-0.19638 -0.14229 4.08683 122 83 55
-0.13916 -0.19860 4.08492 122 83 55
-0.07242 -0.23144 4.07758 122 83 55
-0.00133 -0.24250 4.08760 122 83 55
0.07533 -0.23051 4.07739 122 83 55
0.13968 -0.19824 4.08072 122 83 55
0.19871 -0.13902 4.07257 122 83 55
0.22943 -0.07857 4.07721 122 83 55
0.24934 0.00243 4.19638 122 83 55
0.23680 0.07814 4.19214 122 83 55
0.19881 0.15051 4.20380 122 83 55
0.14616 0.20203 4.19941 122 83 55
0.07763 0.23696 4.20626 122 83 55
0.00403 0.24932 4.20087 122 83 55
-0.08119 0.23577 4.19796 122 83 55
-0.14752 0.20103 4.20529 122 83 55
-0.20131 0.14715 4.21176 122 83 55
-0.23691 0.07779 4.19563 122 83 55
-0.24935 0.00129 4.20368 122 83 55
-0.23780 -0.07504 4.19933 122 83 55
-0.20086 -0.14776 4.21150 122 83 55
-0.15037 -0.19891 4.19773 122 83 55
-0.07888 -0.23655 4.19400 122 83 55
-0.00019 -0.24936 4.19688 122 83 55
0.07899 -0.23651 4.18882 122 83 55
0.14827 -0.20049 4.18811 122 83 55
0.20389 -0.14355 4.20796 122 83 55
0.23641 -0.07931 4.20835 122 83 55
0.26119 -0.00305 4.31653 122 83 55
0.24754 0.08341 4.31100 122 83 55
0.20952 0.15599 4.33111 122 83 55
0.15486 0.21036 4.32481 122 83 55
0.07649 0.24976 4.32583 122 83 55
0.00113 0.26121 4.32912 122 83 55
-0.08275 0.24776 4.31523 122 83 55
-0.15700 0.20876 4.33030 122 83 55
-0.21276 0.15153 4.31423 122 83 55
-0.24806 0.08184 4.33045 122 83 55
-0.26120 0.00233 4.31202 122 83 55
-0.24756 -0.08335 4.31555 122 83 55
-0.21181 -0.15287 4.31755 122 83 55
-0.15574 -0.20970 4.31158 122 83 55
-0.08432 -0.24723 4.32091 122 83 55
0.00261 -0.26120 4.31841 122 83 55
0.07810 -0.24926 4.32097 122 83 55
0.15309 -0.21165 4.31254 122 83 55
0.21203 -0.15256 4.32587 122 83 55
0.24853 -0.08040 4.31574 122 83 55
0.27249 -0.00194 4.43422 122 83 55
0.26014 0.08112 4.42835 122 83 55
0.22168 0.15847 4.44635 122 83 55
0.15874 0.22148 4.44189 122 83 55
0.07991 0.26051 4.43069 122 83 55
0.00153 0.27249 4.44695 122 83 55
-0.08356 0.25937 4.45223 122 83 55
-0.16423 0.21745 4.43377 122 83 55
-0.21957 0.16138 4.45073 122 83 55
-0.25991 0.08185 4.43883 122 83 55
-0.27245 0.00497 4.44288 122 83 55
-0.26006 -0.08139 4.45244 122 83 55
-0.21732 -0.16439 4.44394 122 83 55
-0.15861 -0.22158 4.44814 122 83 55
-0.07935 -0.26069 4.44022 122 83 55
-0.00295 -0.27248 4.43132 122 83 55
0.08620 -0.25850 4.45059 122 83 55
0.15620 -0.22328 4.43545 122 83 55
0.22151 -0.15870 4.44590 122 83 55
0.25756 -0.08898 4.45087 122 83 55
0.27790 -0.00016 4.57198 122 83 55
0.26462 0.08490 4.57194 122 83 55
0.22267 0.16628 4.56252 122 83 55
0.16190 0.22587 4.56495 122 83 55
0.08377 0.26498 4.55504 122 83 55
-0.00042 0.27790 4.56030 122 83 55
-0.08911 0.26323 4.55390 122 83 55
-0.16773 0.22158 4.55364 122 83 55
-0.22222 0.16688 4.56581 122 83 55
-0.26374 0.08760 4.55708 122 83 55
-0.27787 -0.00401 4.56945 122 83 55
-0.26577 -0.08122 4.55267 122 83 55
-0.22279 -0.16611 4.55211 122 83 55
-0.15914 -0.22783 4.57166 122 83 55
-0.08885 -0.26332 4.55754 122 83 55
0.00134 -0.27790 4.55941 122 83 55
0.09080 -0.26265 4.57024 122 83 55
0.16178 -0.22596 4.56677 122 83 55
0.22764 -0.15940 4.56803 122 83 55
0.26260 -0.09094 4.56544 122 83 55
0.27488 -0.00213 4.67568 122 83 55
0.26019 0.08868 4.68557 122 83 55
0.22181 0.16238 4.66873 122 83 55
0.16243 0.22177 4.69062 122 83 55
0.08530 0.26132 4.67796 122 83 55
-0.00150 0.27489 4.68027 122 83 55
-0.08769 0.26053 4.67606 122 83 55
-0.15914 0.22414 4.66880 122 83 55
-0.22008 0.16471 4.68451 122 83 55
-0.26241 0.08189 4.69238 122 83 55
-0.27489 0.00158 4.67467 122 83 55
-0.26286 -0.08044 4.68505 122 83 55
-0.22514 -0.15773 4.68360 122 83 55
-0.16392 -0.22067 4.68443 122 83 55
-0.08279 -0.26213 4.67616 122 83 55
0.00310 -0.27487 4.68942 122 83 55
0.08769 -0.26053 4.69135 122 83 55
0.16339 -0.22106 4.67334 122 83 55
0.22248 -0.16146 4.69191 122 83 55
0.26282 -0.08056 4.68737 122 83 55
0.26485 -0.00388 4.78779 122 83 55
0.25315 0.07793 4.79028 122 83 55
0.21371 0.15649 4.79486 122 83 55
0.15562 0.21434 4.80664 122 83 55
0.07797 0.25314 4.79198 122 83 55
0.00304 0.26486 4.79214 122 83 55
-0.08111 0.25215 4.79545 122 83 55
-0.15245 0.21661 4.79073 122 83 55
-0.21561 0.15386 4.80122 122 83 55
-0.25219 0.08098 4.79956 122 83 55
-0.26488 -0.00035 4.80661 122 83 55
-0.25267 -0.07948 4.79402 122 83 55
-0.21524 -0.15438 4.79428 122 83 55
-0.15205 -0.21689 4.81148 122 83 55
-0.08035 -0.25239 4.79775 122 83 55
-0.00468 -0.26483 4.80329 122 83 55
0.08061 -0.25231 4.79872 122 83 55
0.15677 -0.21350 4.79631 122 83 55
0.21567 -0.15377 4.78790 122 83 55
0.25112 -0.08425 4.81096 122 83 55
0.25253 0.00410 4.92227 122 83 55
0.23945 0.08033 4.90962 122 83 55
0.20297 0.15031 4.92783 122 83 55
0.14768 0.20489 4.91480 122 83 55
0.08267 0.23865 4.92328 122 83 55
0.00348 0.25254 4.91342 122 83 55
-0.07580 0.24092 4.92130 122 83 55
-0.14737 0.20512 4.91922 122 83 55
-0.20160 0.15215 4.92021 122 83 55
-0.23919 0.08110 4.92197 122 83 55
-0.25252 0.00484 4.91032 122 83 55
-0.24043 -0.07735 4.91316 122 83 55
-0.20334 -0.14981 4.91518 122 83 55
-0.14950 -0.20357 4.92420 122 83 55
-0.07342 -0.24166 4.92451 122 83 55
-0.00076 -0.25257 4.92447 122 83 55
0.08089 -0.23926 4.93162 122 83 55
0.15010 -0.20312 4.90763 122 83 55
0.20439 -0.14838 4.91951 122 83 55
0.23982 -0.07922 4.92597 122 83 55
0.24375 -0.00190 5.04097 122 83 55
0.23314 0.07115 5.03393 122 83 55
0.19885 0.14098 5.02944 122 83 55
0.14277 0.19756 5.04291 122 83 55
0.07492 0.23196 5.02839 122 83 55
-0.00473 0.24371 5.04096 122 83 55
-0.07632 0.23150 5.03345 122 83 55
-0.14493 0.19599 5.03713 122 83 55
-0.19822 0.14186 5.04761 122 83 55
-0.23291 0.07190 5.04644 122 83 55
-0.24375 -0.00139 5.03628 122 83 55
-0.23179 -0.07543 5.04275 122 83 55
-0.19521 -0.14597 5.03980 122 83 55
-0.14508 -0.19588 5.02813 122 83 55
-0.07088 -0.23322 5.03796 122 83 55
-0.00055 -0.24375 5.02836 122 83 55
0.07165 -0.23298 5.04149 122 83 55
0.14489 -0.19602 5.03064 122 83 55
0.19499 -0.14627 5.04251 122 83 55
0.23302 -0.07154 5.03585 122 83 55
0.24257 -0.00259 5.15660 122 83 55
0.23022 0.07645 5.14872 122 83 55
0.19716 0.14133 5.15574 122 83 55
0.14128 0.19719 5.17078 122 83 55
0.07688 0.23008 5.16749 122 83 55
-0.00451 0.24254 5.16214 122 83 55
-0.07443 0.23088 5.17206 122 83 55
-0.14347 0.19560 5.16925 122 83 55
-0.19360 0.14616 5.16009 122 83 55
-0.23052 0.07554 5.17222 122 83 55
-0.24257 0.00203 5.15041 122 83 55
-0.22966 -0.07811 5.16647 122 83 55
-0.19825 -0.13979 5.16307 122 83 55
-0.13958 -0.19840 5.16475 122 83 55
-0.07773 -0.22979 5.15425 122 83 55
-0.00457 -0.24254 5.16673 122 83 55
0.07224 -0.23158 5.15113 122 83 55
0.14154 -0.19701 5.14966 122 83 55
0.19397 -0.14567 5.15557 122 83 55
0.22958 -0.07835 5.16505 122 83 55
0.24960 0.00088 5.28729 122 83 55
0.23632 0.08032 5.27709 122 83 55
0.20156 0.14723 5.27797 122 83 55
0.14751 0.20135 5.27035 122 83 55
0.08108 0.23606 5.27927 122 83 55
0.00478 0.24956 5.28013 122 83 55
-0.07769 0.23720 5.27887 122 83 55
-0.14832 0.20075 5.28020 122 83 55
-0.20112 0.14782 5.27493 122 83 55
-0.23790 0.07552 5.26910 122 83 55
-0.24957 0.00384 5.27066 122 83 55
-0.23847 -0.07370 5.28208 122 83 55
-0.20334 -0.14476 5.27177 122 83 55
-0.15003 -0.19948 5.27735 122 83 55
-0.07488 -0.23810 5.28106 122 83 55
-0.00472 -0.24956 5.28128 122 83 55
0.08046 -0.23628 5.29050 122 83 55
0.15063 -0.19902 5.28367 122 83 55
0.20279 -0.14553 5.27741 122 83 55
0.23620 -0.08068 5.28029 122 83 55
