ply
format ascii 1.0
comment SIMULATED DEMO - NOT FIELD EVIDENCE
element vertex 900
property float x
property float y
property float z
property uchar red
property uchar green
property uchar blue
end_header
0.26000 0.00046 0.00332 122 83 55
0.24735 0.08012 -0.00685 122 83 55
0.21067 0.15238 -0.00858 122 83 55
0.15070 0.21187 -0.00283 122 83 55
0.08059 0.24719 -0.01111 122 83 55
-0.00185 0.25999 0.00259 122 83 55
-0.07853 0.24786 -0.00809 122 83 55
-0.15272 0.21042 -0.00998 122 83 55
-0.21009 0.15318 -0.01228 122 83 55
-0.24793 0.07831 -0.01135 122 83 55
-0.25999 -0.00267 -0.00416 122 83 55
-0.24632 -0.08323 0.00736 122 83 55
-0.20990 -0.15344 -0.00271 122 83 55
-0.15651 -0.20762 -0.01014 122 83 55
-0.07600 -0.24865 -0.00563 122 83 55
0.00505 -0.25995 -0.01021 122 83 55
0.08092 -0.24709 -0.00006 122 83 55
0.15148 -0.21132 -0.00743 122 83 55
0.21122 -0.15161 0.01110 122 83 55
0.24801 -0.07804 -0.00772 122 83 55
0.27157 0.00386 0.12377 122 83 55
0.25829 0.08396 0.10794 122 83 55
0.21747 0.16270 0.11062 122 83 55
0.16336 0.21698 0.11502 122 83 55
0.08675 0.25737 0.11128 122 83 55
0.00359 0.27157 0.11904 122 83 55
-0.08769 0.25705 0.11482 122 83 55
-0.15988 0.21955 0.12948 122 83 55
-0.22241 0.15588 0.12089 122 83 55
-0.25660 0.08899 0.12344 122 83 55
-0.27155 0.00501 0.12707 122 83 55
-0.25917 -0.08122 0.12483 122 83 55
-0.22015 -0.15905 0.11125 122 83 55
-0.16253 -0.21760 0.12096 122 83 55
-0.08878 -0.25668 0.11417 122 83 55
-0.00317 -0.27158 0.12471 122 83 55
0.08659 -0.25742 0.10836 122 83 55
0.16221 -0.21783 0.12187 122 83 55
0.22054 -0.15851 0.12113 122 83 55
0.25855 -0.08316 0.12420 122 83 55
0.27773 -0.00226 0.23047 122 83 55
0.26391 0.08655 0.25028 122 83 55
0.22688 0.16019 0.24375 122 83 55
0.15916 0.22761 0.24725 122 83 55
0.08840 0.26330 0.24586 122 83 55
0.00154 0.27773 0.24296 122 83 55
-0.08515 0.26436 0.23403 122 83 55
-0.16639 0.22238 0.24928 122 83 55
-0.22564 0.16194 0.23840 122 83 55
-0.26550 0.08152 0.24336 122 83 55
-0.27773 0.00262 0.23835 122 83 55
-0.26536 -0.08199 0.24021 122 83 55
-0.22261 -0.16609 0.23086 122 83 55
-0.16274 -0.22506 0.24100 122 83 55
-0.08541 -0.26428 0.24355 122 83 55
0.00081 -0.27774 0.22772 122 83 55
0.08672 -0.26385 0.24118 122 83 55
0.15963 -0.22728 0.23122 122 83 55
0.22715 -0.15981 0.23074 122 83 55
0.26383 -0.08679 0.23085 122 83 55
0.27550 0.00434 0.37140 122 83 55
0.26160 0.08654 0.37011 122 83 55
0.22072 0.16494 0.36195 122 83 55
0.16600 0.21992 0.36395 122 83 55
0.08977 0.26050 0.35449 122 83 55
-0.00005 0.27554 0.34990 122 83 55
-0.08676 0.26152 0.34957 122 83 55
-0.16410 0.22134 0.36588 122 83 55
-0.22328 0.16145 0.35894 122 83 55
-0.26141 0.08710 0.36956 122 83 55
-0.27554 -0.00120 0.35867 122 83 55
-0.26231 -0.08434 0.34955 122 83 55
-0.22354 -0.16109 0.35126 122 83 55
-0.15769 -0.22596 0.35076 122 83 55
-0.08098 -0.26337 0.36707 122 83 55
0.00002 -0.27554 0.37179 122 83 55
0.08051 -0.26351 0.36615 122 83 55
0.16508 -0.22061 0.34911 122 83 55
0.22020 -0.16563 0.35823 122 83 55
0.26305 -0.08201 0.34850 122 83 55
0.26599 0.00453 0.48459 122 83 55
0.25154 0.08659 0.48578 122 83 55
0.21743 0.15328 0.47196 122 83 55
0.15628 0.21528 0.49014 122 83 55
0.08329 0.25266 0.46972 122 83 55
0.00426 0.26600 0.47432 122 83 55
-0.07718 0.25459 0.48798 122 83 55
-0.15413 0.21683 0.48252 122 83 55
-0.21492 0.15679 0.48549 122 83 55
-0.25276 0.08296 0.46790 122 83 55
-0.26602 -0.00237 0.49222 122 83 55
-0.25429 -0.07817 0.48789 122 83 55
-0.21294 -0.15946 0.47319 122 83 55
-0.15582 -0.21562 0.47681 122 83 55
-0.08551 -0.25191 0.47597 122 83 55
0.00392 -0.26600 0.49139 122 83 55
0.08619 -0.25168 0.48572 122 83 55
0.15363 -0.21719 0.48129 122 83 55
0.21406 -0.15795 0.46788 122 83 55
0.25199 -0.08528 0.46773 122 83 55
0.25368 0.00133 0.60475 122 83 55
0.24136 0.07811 0.58965 122 83 55
0.20798 0.14525 0.59869 122 83 55
0.14573 0.20765 0.59326 122 83 55
0.07531 0.24225 0.59061 122 83 55
-0.00196 0.25368 0.59171 122 83 55
-0.07855 0.24122 0.59888 122 83 55
-0.14786 0.20614 0.60333 122 83 55
-0.20405 0.15073 0.59006 122 83 55
-0.24228 0.07521 0.60761 122 83 55
-0.25367 0.00280 0.60397 122 83 55
-0.24042 -0.08097 0.59494 122 83 55
-0.20817 -0.14499 0.60185 122 83 55
-0.15113 -0.20375 0.60680 122 83 55
-0.07937 -0.24095 0.59285 122 83 55
0.00324 -0.25367 0.59972 122 83 55
0.07807 -0.24137 0.60006 122 83 55
0.14905 -0.20528 0.59750 122 83 55
0.20309 -0.15202 0.60871 122 83 55
0.23991 -0.08246 0.60224 122 83 55
0.24426 0.00478 0.71532 122 83 55
0.23371 0.07119 0.71136 122 83 55
0.20008 0.14021 0.71294 122 83 55
0.14250 0.19845 0.72858 122 83 55
0.07760 0.23166 0.72378 122 83 55
0.00270 0.24430 0.70848 122 83 55
-0.07559 0.23232 0.72175 122 83 55
-0.14578 0.19605 0.73027 122 83 55
-0.19863 0.14224 0.71890 122 83 55
-0.23131 0.07863 0.72773 122 83 55
-0.24430 0.00238 0.72563 122 83 55
-0.23185 -0.07703 0.71353 122 83 55
-0.19481 -0.14743 0.71613 122 83 55
-0.14161 -0.19909 0.73238 122 83 55
-0.07153 -0.23360 0.71665 122 83 55
-0.00333 -0.24429 0.71376 122 83 55
0.07859 -0.23132 0.71528 122 83 55
0.14547 -0.19628 0.72606 122 83 55
0.19953 -0.14099 0.72352 122 83 55
0.23279 -0.07414 0.71546 122 83 55
0.24232 0.00056 0.84578 122 83 55
0.22942 0.07800 0.83899 122 83 55
0.19639 0.14195 0.82951 122 83 55
0.13892 0.19854 0.84236 122 83 55
0.07281 0.23112 0.84476 122 83 55
-0.00429 0.24228 0.83461 122 83 55
-0.07394 0.23076 0.84817 122 83 55
-0.14074 0.19726 0.84287 122 83 55
-0.19415 0.14499 0.84289 122 83 55
-0.22999 0.07630 0.83640 122 83 55
-0.24229 0.00381 0.83181 122 83 55
-0.23094 -0.07336 0.84595 122 83 55
-0.19538 -0.14334 0.83308 122 83 55
-0.14570 -0.19362 0.85012 122 83 55
-0.07154 -0.23151 0.83790 122 83 55
-0.00192 -0.24231 0.83713 122 83 55
0.07789 -0.22946 0.84697 122 83 55
0.14073 -0.19726 0.83129 122 83 55
0.19638 -0.14196 0.82817 122 83 55
0.22918 -0.07871 0.82998 122 83 55
0.24863 -0.00132 0.96424 122 83 55
0.23602 0.07819 0.94804 122 83 55
0.19837 0.14990 0.95061 122 83 55
0.14619 0.20112 0.95782 122 83 55
0.07316 0.23763 0.95470 122 83 55
-0.00389 0.24861 0.96424 122 83 55
-0.07740 0.23628 0.95421 122 83 55
-0.14654 0.20086 0.96075 122 83 55
-0.20396 0.14219 0.95328 122 83 55
-0.23608 0.07802 0.96793 122 83 55
-0.24861 -0.00387 0.96159 122 83 55
-0.23551 -0.07971 0.96805 122 83 55
-0.20029 -0.14732 0.96771 122 83 55
-0.14468 -0.20221 0.97008 122 83 55
-0.07622 -0.23667 0.94934 122 83 55
0.00269 -0.24862 0.95076 122 83 55
0.07398 -0.23738 0.96913 122 83 55
0.14478 -0.20214 0.94869 122 83 55
0.20266 -0.14404 0.96131 122 83 55
0.23609 -0.07800 0.96975 122 83 55
0.26027 0.00408 1.09041 122 83 55
0.24750 0.08062 1.08815 122 83 55
0.21185 0.15126 1.07958 122 83 55
0.15288 0.21068 1.06896 122 83 55
0.07553 0.24910 1.08239 122 83 55
-0.00461 0.26026 1.08895 122 83 55
-0.07815 0.24830 1.07829 122 83 55
-0.15403 0.20984 1.08902 122 83 55
-0.21040 0.15327 1.07781 122 83 55
-0.24810 0.07875 1.07266 122 83 55
-0.26029 0.00224 1.08535 122 83 55
-0.24804 -0.07895 1.07614 122 83 55
-0.21236 -0.15053 1.08817 122 83 55
-0.15650 -0.20801 1.08231 122 83 55
-0.08341 -0.24658 1.07684 122 83 55
-0.00230 -0.26029 1.08639 122 83 55
0.08377 -0.24646 1.08331 122 83 55
0.15614 -0.20827 1.07797 122 83 55
0.21035 -0.15333 1.07932 122 83 55
0.24821 -0.07840 1.08518 122 83 55
0.27179 -0.00467 1.20388 122 83 55
0.25976 0.08008 1.20272 122 83 55
0.22305 0.15536 1.20492 122 83 55
0.15993 0.21980 1.19217 122 83 55
0.08256 0.25899 1.20653 122 83 55
0.00104 0.27182 1.19392 122 83 55
-0.08597 0.25787 1.19421 122 83 55
-0.16355 0.21712 1.19640 122 83 55
-0.22166 0.15734 1.19205 122 83 55
-0.26014 0.07885 1.18974 122 83 55
-0.27182 0.00158 1.19195 122 83 55
-0.25744 -0.08725 1.19177 122 83 55
-0.22143 -0.15767 1.19113 122 83 55
-0.16308 -0.21747 1.20611 122 83 55
-0.08552 -0.25802 1.20558 122 83 55
-0.00146 -0.27182 1.20785 122 83 55
0.07924 -0.26002 1.20815 122 83 55
0.15772 -0.22139 1.20887 122 83 55
0.22135 -0.15778 1.19659 122 83 55
0.25812 -0.08522 1.21097 122 83 55
0.27778 -0.00118 1.32259 122 83 55
0.26401 0.08640 1.33128 122 83 55
0.22212 0.16682 1.32965 122 83 55
0.16426 0.22402 1.32564 122 83 55
0.08402 0.26477 1.32340 122 83 55
0.00352 0.27776 1.31188 122 83 55
-0.09044 0.26265 1.32960 122 83 55
-0.16653 0.22233 1.32627 122 83 55
-0.22536 0.16241 1.32607 122 83 55
-0.26566 0.08119 1.32756 122 83 55
-0.27778 0.00108 1.32116 122 83 55
-0.26418 -0.08587 1.32424 122 83 55
-0.22718 -0.15986 1.32258 122 83 55
-0.16106 -0.22633 1.32209 122 83 55
-0.08348 -0.26495 1.32661 122 83 55
0.00093 -0.27779 1.32520 122 83 55
0.08962 -0.26293 1.31416 122 83 55
0.16151 -0.22601 1.32980 122 83 55
0.22245 -0.16638 1.32111 122 83 55
0.26373 -0.08723 1.33179 122 83 55
0.27534 -0.00487 1.45183 122 83 55
0.26097 0.08792 1.44471 122 83 55
0.22410 0.16005 1.44596 122 83 55
0.16124 0.22324 1.44159 122 83 55
0.08862 0.26074 1.43477 122 83 55
-0.00019 0.27538 1.43489 122 83 55
-0.08178 0.26296 1.42962 122 83 55
-0.16532 0.22023 1.44043 122 83 55
-0.22548 0.15810 1.44149 122 83 55
-0.26338 0.08042 1.45215 122 83 55
-0.27535 -0.00455 1.44151 122 83 55
-0.26151 -0.08630 1.44096 122 83 55
-0.22567 -0.15783 1.44386 122 83 55
-0.16314 -0.22186 1.43707 122 83 55
-0.08136 -0.26309 1.42871 122 83 55
-0.00254 -0.27537 1.44160 122 83 55
0.08495 -0.26195 1.42888 122 83 55
0.16540 -0.22018 1.44431 122 83 55
0.22231 -0.16252 1.43542 122 83 55
0.26136 -0.08674 1.43076 122 83 55
0.26572 -0.00346 1.55333 122 83 55
0.25252 0.08280 1.56325 122 83 55
0.21555 0.15543 1.55517 122 83 55
0.15989 0.21226 1.56136 122 83 55
0.08280 0.25252 1.55615 122 83 55
0.00252 0.26573 1.55892 122 83 55
-0.08573 0.25153 1.56600 122 83 55
-0.15420 0.21643 1.57071 122 83 55
-0.21731 0.15296 1.55377 122 83 55
-0.25411 0.07778 1.55829 122 83 55
-0.26574 -0.00041 1.54830 122 83 55
-0.25349 -0.07977 1.57067 122 83 55
-0.21247 -0.15961 1.56806 122 83 55
-0.15422 -0.21642 1.55682 122 83 55
-0.07748 -0.25420 1.56052 122 83 55
0.00382 -0.26572 1.55813 122 83 55
0.08446 -0.25196 1.56230 122 83 55
0.15459 -0.21615 1.57036 122 83 55
0.21769 -0.15242 1.54776 122 83 55
0.25220 -0.08374 1.57077 122 83 55
0.25336 -0.00459 1.68480 122 83 55
0.24217 0.07461 1.68232 122 83 55
0.20344 0.15108 1.68301 122 83 55
0.14811 0.20562 1.68821 122 83 55
0.08184 0.23982 1.67041 122 83 55
-0.00256 0.25339 1.68621 122 83 55
-0.08192 0.23980 1.69140 122 83 55
-0.14730 0.20619 1.67841 122 83 55
-0.20577 0.14789 1.67482 122 83 55
-0.24080 0.07893 1.67346 122 83 55
-0.25338 0.00343 1.68207 122 83 55
-0.24234 -0.07406 1.68938 122 83 55
-0.20303 -0.15164 1.69170 122 83 55
-0.14898 -0.20498 1.69152 122 83 55
-0.07581 -0.24180 1.68803 122 83 55
0.00280 -0.25339 1.68624 122 83 55
0.07871 -0.24087 1.67761 122 83 55
0.15254 -0.20235 1.67236 122 83 55
0.20479 -0.14924 1.68868 122 83 55
0.24235 -0.07403 1.68357 122 83 55
0.24417 0.00010 1.80976 122 83 55
0.23346 0.07151 1.80618 122 83 55
0.19647 0.14497 1.79026 122 83 55
0.14690 0.19503 1.79806 122 83 55
0.07638 0.23191 1.80156 122 83 55
0.00288 0.24415 1.81052 122 83 55
-0.07964 0.23081 1.78903 122 83 55
-0.14078 0.19950 1.79653 122 83 55
-0.19668 0.14469 1.80097 122 83 55
-0.23182 0.07665 1.79462 122 83 55
-0.24412 0.00477 1.79231 122 83 55
-0.23306 -0.07279 1.78918 122 83 55
-0.19988 -0.14023 1.79672 122 83 55
-0.14605 -0.19567 1.79413 122 83 55
-0.07591 -0.23207 1.79732 122 83 55
0.00368 -0.24414 1.79320 122 83 55
0.07626 -0.23195 1.80728 122 83 55
0.14481 -0.19658 1.80112 122 83 55
0.19991 -0.14019 1.80282 122 83 55
0.23080 -0.07967 1.79169 122 83 55
0.24237 -0.00168 1.92765 122 83 55
0.23126 0.07254 1.91439 122 83 55
0.19387 0.14547 1.92859 122 83 55
0.14157 0.19673 1.91292 122 83 55
0.07884 0.22919 1.90904 122 83 55
-0.00204 0.24237 1.91012 122 83 55
-0.07923 0.22906 1.91766 122 83 55
-0.14053 0.19748 1.92982 122 83 55
-0.19460 0.14449 1.92122 122 83 55
-0.22989 0.07680 1.90781 122 83 55
-0.24235 -0.00335 1.92148 122 83 55
-0.23121 -0.07270 1.92986 122 83 55
-0.19416 -0.14508 1.92283 122 83 55
-0.14013 -0.19776 1.93153 122 83 55
-0.07326 -0.23104 1.91775 122 83 55
-0.00038 -0.24237 1.93021 122 83 55
0.07871 -0.22924 1.91440 122 83 55
0.14462 -0.19450 1.91652 122 83 55
0.19408 -0.14518 1.91113 122 83 55
0.22952 -0.07789 1.91322 122 83 55
0.24887 0.00154 2.04925 122 83 55
0.23575 0.07975 2.03605 122 83 55
0.20391 0.14268 2.04183 122 83 55
0.14817 0.19996 2.03223 122 83 55
0.07259 0.23805 2.05214 122 83 55
-0.00265 0.24886 2.04862 122 83 55
-0.07608 0.23696 2.05190 122 83 55
-0.14402 0.20297 2.03764 122 83 55
-0.20200 0.14538 2.04576 122 83 55
-0.23596 0.07912 2.04048 122 83 55
-0.24886 0.00303 2.03437 122 83 55
-0.23725 -0.07517 2.04833 122 83 55
-0.20390 -0.14270 2.03509 122 83 55
-0.15002 -0.19857 2.03845 122 83 55
-0.07606 -0.23697 2.04025 122 83 55
0.00342 -0.24885 2.04343 122 83 55
0.07839 -0.23620 2.04944 122 83 55
0.14585 -0.20166 2.04303 122 83 55
0.20321 -0.14368 2.04327 122 83 55
0.23632 -0.07806 2.04930 122 83 55
0.26060 0.00072 2.16748 122 83 55
0.24914 0.07646 2.15691 122 83 55
0.21048 0.15367 2.16251 122 83 55
0.15623 0.20858 2.17194 122 83 55
0.08379 0.24677 2.14987 122 83 55
0.00121 0.26060 2.15864 122 83 55
-0.08403 0.24669 2.16776 122 83 55
-0.15217 0.21156 2.14962 122 83 55
-0.20801 0.15700 2.15492 122 83 55
-0.24710 0.08282 2.17178 122 83 55
-0.26060 -0.00180 2.16773 122 83 55
-0.24656 -0.08439 2.15086 122 83 55
-0.21068 -0.15340 2.16188 122 83 55
-0.14924 -0.21364 2.15426 122 83 55
-0.07586 -0.24932 2.15614 122 83 55
-0.00007 -0.26061 2.16775 122 83 55
0.08365 -0.24682 2.15219 122 83 55
0.15549 -0.20914 2.15806 122 83 55
0.20977 -0.15463 2.16546 122 83 55
0.24837 -0.07890 2.15451 122 83 55
0.27205 0.00165 2.27341 122 83 55
0.25708 0.08900 2.28422 122 83 55
0.22219 0.15698 2.27866 122 83 55
0.16270 0.21804 2.28645 122 83 55
0.08355 0.25890 2.28607 122 83 55
-0.00275 0.27204 2.28321 122 83 55
-0.08426 0.25867 2.27358 122 83 55
-0.16296 0.21785 2.28918 122 83 55
-0.22071 0.15905 2.26828 122 83 55
-0.25767 0.08729 2.27550 122 83 55
-0.27205 0.00178 2.27529 122 83 55
-0.25949 -0.08172 2.28812 122 83 55
-0.21806 -0.16268 2.27816 122 83 55
-0.16126 -0.21911 2.26755 122 83 55
-0.08502 -0.25843 2.29110 122 83 55
0.00241 -0.27204 2.27841 122 83 55
0.07980 -0.26009 2.27407 122 83 55
0.15893 -0.22080 2.28805 122 83 55
0.22201 -0.15724 2.27854 122 83 55
0.25707 -0.08904 2.29005 122 83 55
0.27783 0.00158 2.39267 122 83 55
0.26331 0.08866 2.39451 122 83 55
0.22223 0.16674 2.39599 122 83 55
0.16313 0.22490 2.39836 122 83 55
0.09009 0.26282 2.40983 122 83 55
0.00035 0.27783 2.40011 122 83 55
-0.09010 0.26282 2.41128 122 83 55
-0.16014 0.22704 2.40479 122 83 55
-0.22202 0.16703 2.40926 122 83 55
-0.26370 0.08749 2.39595 122 83 55
-0.27780 0.00415 2.39298 122 83 55
-0.26426 -0.08577 2.38804 122 83 55
-0.22540 -0.16244 2.40901 122 83 55
-0.16353 -0.22460 2.39352 122 83 55
-0.08532 -0.26441 2.40956 122 83 55
0.00502 -0.27779 2.40044 122 83 55
0.08881 -0.26325 2.39581 122 83 55
0.16428 -0.22406 2.38751 122 83 55
0.22257 -0.16629 2.41136 122 83 55
0.26580 -0.08087 2.40971 122 83 55
0.27520 -0.00386 2.51716 122 83 55
0.26116 0.08684 2.51401 122 83 55
0.22078 0.16433 2.52039 122 83 55
0.16340 0.22147 2.51097 122 83 55
0.08482 0.26183 2.53128 122 83 55
0.00189 0.27522 2.52889 122 83 55
-0.08453 0.26192 2.52784 122 83 55
-0.16111 0.22314 2.50912 122 83 55
-0.22208 0.16257 2.51483 122 83 55
-0.26212 0.08392 2.53158 122 83 55
-0.27522 0.00158 2.52458 122 83 55
-0.26068 -0.08829 2.52150 122 83 55
-0.22063 -0.16453 2.52850 122 83 55
-0.16093 -0.22327 2.50916 122 83 55
-0.08606 -0.26142 2.51430 122 83 55
0.00036 -0.27522 2.52587 122 83 55
0.08774 -0.26086 2.51534 122 83 55
0.15888 -0.22473 2.52572 122 83 55
0.22106 -0.16395 2.50957 122 83 55
0.26254 -0.08258 2.52868 122 83 55
0.26545 -0.00079 2.63199 122 83 55
0.25123 0.08574 2.63208 122 83 55
0.21167 0.16020 2.63566 122 83 55
0.15829 0.21310 2.62870 122 83 55
0.07886 0.25347 2.63761 122 83 55
-0.00190 0.26545 2.64579 122 83 55
-0.08003 0.25311 2.64219 122 83 55
-0.15335 0.21668 2.65092 122 83 55
-0.21769 0.15191 2.64074 122 83 55
-0.25096 0.08652 2.65144 122 83 55
-0.26545 0.00240 2.64762 122 83 55
-0.25144 -0.08511 2.65080 122 83 55
-0.21273 -0.15879 2.62893 122 83 55
-0.15273 -0.21712 2.64631 122 83 55
-0.07998 -0.25312 2.64151 122 83 55
-0.00390 -0.26543 2.63879 122 83 55
0.08180 -0.25254 2.63109 122 83 55
0.15649 -0.21442 2.63132 122 83 55
0.21778 -0.15178 2.64458 122 83 55
0.25376 -0.07793 2.65016 122 83 55
0.25311 -0.00296 2.76284 122 83 55
0.24198 0.07426 2.77227 122 83 55
0.20414 0.14966 2.75164 122 83 55
0.14921 0.20447 2.76023 122 83 55
0.07432 0.24197 2.75447 122 83 55
0.00168 0.25312 2.75644 122 83 55
-0.07434 0.24196 2.75733 122 83 55
-0.15001 0.20388 2.76981 122 83 55
-0.20259 0.15176 2.76189 122 83 55
-0.23977 0.08111 2.76945 122 83 55
-0.25312 -0.00177 2.76457 122 83 55
-0.24225 -0.07340 2.76098 122 83 55
-0.20325 -0.15086 2.76026 122 83 55
-0.14476 -0.20764 2.76747 122 83 55
-0.07970 -0.24025 2.75097 122 83 55
0.00180 -0.25312 2.74821 122 83 55
0.07414 -0.24202 2.77050 122 83 55
0.15093 -0.20321 2.76972 122 83 55
0.20558 -0.14767 2.76793 122 83 55
0.24138 -0.07620 2.74978 122 83 55
0.24402 0.00113 2.86858 122 83 55
0.23118 0.07814 2.87132 122 83 55
0.19547 0.14608 2.87264 122 83 55
0.14581 0.19567 2.87951 122 83 55
0.07656 0.23170 2.87769 122 83 55
0.00434 0.24399 2.87638 122 83 55
-0.07868 0.23099 2.86784 122 83 55
-0.14421 0.19685 2.88377 122 83 55
-0.19869 0.14167 2.86812 122 83 55
-0.23293 0.07273 2.87648 122 83 55
-0.24402 -0.00084 2.87439 122 83 55
-0.23335 -0.07137 2.87388 122 83 55
-0.19568 -0.14580 2.89000 122 83 55
-0.14632 -0.19529 2.87443 122 83 55
-0.07179 -0.23323 2.88672 122 83 55
0.00358 -0.24400 2.87875 122 83 55
0.07561 -0.23201 2.88892 122 83 55
0.14590 -0.19561 2.87831 122 83 55
0.19503 -0.14666 2.88597 122 83 55
0.23309 -0.07223 2.86784 122 83 55
0.24241 -0.00372 3.00422 122 83 55
0.22936 0.07855 2.99091 122 83 55
0.19860 0.13904 3.01109 122 83 55
0.13896 0.19866 2.99451 122 83 55
0.07734 0.22977 3.00022 122 83 55
-0.00089 0.24244 2.99438 122 83 55
-0.07841 0.22941 2.98763 122 83 55
-0.14523 0.19413 3.00954 122 83 55
-0.19695 0.14138 3.00522 122 83 55
-0.22950 0.07814 3.00524 122 83 55
-0.24239 0.00473 2.98939 122 83 55
-0.23035 -0.07561 2.99514 122 83 55
-0.19656 -0.14192 3.00827 122 83 55
-0.14027 -0.19774 2.99974 122 83 55
-0.07863 -0.22933 3.00794 122 83 55
-0.00249 -0.24243 2.99410 122 83 55
0.07784 -0.22960 2.98881 122 83 55
0.14388 -0.19513 3.00946 122 83 55
0.19479 -0.14434 3.00481 122 83 55
0.23157 -0.07178 3.00936 122 83 55
0.24911 0.00046 3.12911 122 83 55
0.23827 0.07269 3.11227 122 83 55
0.20420 0.14269 3.12164 122 83 55
0.14988 0.19898 3.12388 122 83 55
0.07450 0.23771 3.10949 122 83 55
0.00217 0.24910 3.11860 122 83 55
-0.07972 0.23601 3.12305 122 83 55
-0.14446 0.20295 3.11580 122 83 55
-0.20165 0.14627 3.11140 122 83 55
-0.23570 0.08065 3.12798 122 83 55
-0.24910 -0.00240 3.12238 122 83 55
-0.23745 -0.07534 3.11887 122 83 55
-0.19956 -0.14910 3.12829 122 83 55
-0.14339 -0.20371 3.13098 122 83 55
-0.07635 -0.23712 3.11518 122 83 55
0.00327 -0.24909 3.12833 122 83 55
0.07497 -0.23757 3.10926 122 83 55
0.14903 -0.19962 3.13133 122 83 55
0.20165 -0.14627 3.12060 122 83 55
0.23544 -0.08139 3.12693 122 83 55
0.26089 -0.00309 3.23558 122 83 55
0.24810 0.08075 3.23852 122 83 55
0.21323 0.15035 3.23046 122 83 55
0.15672 0.20860 3.23138 122 83 55
0.08177 0.24776 3.23002 122 83 55
0.00288 0.26089 3.23053 122 83 55
-0.08108 0.24799 3.24130 122 83 55
-0.15154 0.21239 3.23411 122 83 55
-0.21051 0.15414 3.24890 122 83 55
-0.24807 0.08082 3.23704 122 83 55
-0.26089 0.00301 3.24411 122 83 55
-0.24899 -0.07797 3.24025 122 83 55
-0.21114 -0.15327 3.23209 122 83 55
-0.15250 -0.21170 3.24283 122 83 55
-0.08152 -0.24785 3.24689 122 83 55
-0.00190 -0.26090 3.25002 122 83 55
0.08469 -0.24678 3.23573 122 83 55
0.15200 -0.21206 3.23659 122 83 55
0.20888 -0.15634 3.23013 122 83 55
0.24667 -0.08501 3.23639 122 83 55
0.27222 0.00541 3.34776 122 83 55
0.25875 0.08475 3.35491 122 83 55
0.21915 0.16157 3.35995 122 83 55
0.15938 0.22075 3.36807 122 83 55
0.08235 0.25952 3.36135 122 83 55
-0.00543 0.27222 3.37176 122 83 55
-0.08503 0.25866 3.35917 122 83 55
-0.15685 0.22256 3.35277 122 83 55
-0.22073 0.15941 3.35600 122 83 55
-0.25749 0.08851 3.35811 122 83 55
-0.27227 0.00059 3.36110 122 83 55
-0.25805 -0.08685 3.35084 122 83 55
-0.21893 -0.16188 3.36161 122 83 55
-0.15761 -0.22202 3.36198 122 83 55
-0.07899 -0.26057 3.37125 122 83 55
0.00378 -0.27225 3.35914 122 83 55
0.08640 -0.25820 3.35526 122 83 55
0.16068 -0.21981 3.35877 122 83 55
0.22299 -0.15623 3.36176 122 83 55
0.26032 -0.07979 3.36534 122 83 55
0.27786 0.00171 3.49080 122 83 55
0.26443 0.08536 3.47186 122 83 55
0.22663 0.16078 3.47366 122 83 55
0.16420 0.22416 3.47238 122 83 55
0.08753 0.26372 3.48632 122 83 55
-0.00515 0.27782 3.48857 122 83 55
-0.08057 0.26593 3.47701 122 83 55
-0.16308 0.22498 3.46838 122 83 55
-0.22362 0.16494 3.46938 122 83 55
-0.26375 0.08746 3.47145 122 83 55
-0.27782 0.00507 3.48872 122 83 55
-0.26266 -0.09066 3.49178 122 83 55
-0.22605 -0.16159 3.48007 122 83 55
-0.16122 -0.22632 3.48981 122 83 55
-0.08315 -0.26514 3.47336 122 83 55
-0.00216 -0.27786 3.49184 122 83 55
0.08338 -0.26506 3.48187 122 83 55
0.16223 -0.22560 3.47162 122 83 55
0.22657 -0.16087 3.47660 122 83 55
0.26474 -0.08442 3.48439 122 83 55
0.27501 -0.00546 3.60534 122 83 55
0.25988 0.09012 3.60072 122 83 55
0.22515 0.15800 3.59160 122 83 55
0.15883 0.22457 3.60299 122 83 55
0.08653 0.26109 3.59962 122 83 55
0.00431 0.27503 3.60931 122 83 55
-0.08788 0.26064 3.60814 122 83 55
-0.16283 0.22168 3.59530 122 83 55
-0.22513 0.15803 3.59171 122 83 55
-0.26170 0.08468 3.59080 122 83 55
-0.27504 0.00286 3.59458 122 83 55
-0.25989 -0.09010 3.58982 122 83 55
-0.22372 -0.16002 3.60362 122 83 55
-0.15874 -0.22463 3.60790 122 83 55
-0.08960 -0.26006 3.58767 122 83 55
-0.00301 -0.27504 3.60795 122 83 55
0.08127 -0.26278 3.60231 122 83 55
0.16523 -0.21990 3.59612 122 83 55
0.22167 -0.16285 3.59007 122 83 55
0.26138 -0.08565 3.59632 122 83 55
0.26516 -0.00201 3.73237 122 83 55
0.25182 0.08306 3.71248 122 83 55
0.21250 0.15860 3.72581 122 83 55
0.15250 0.21692 3.72948 122 83 55
0.08642 0.25069 3.73164 122 83 55
0.00037 0.26517 3.72962 122 83 55
-0.07796 0.25345 3.72849 122 83 55
-0.15576 0.21460 3.70784 122 83 55
-0.21451 0.15589 3.72959 122 83 55
-0.25177 0.08323 3.72517 122 83 55
-0.26512 0.00505 3.71228 122 83 55
-0.25278 -0.08011 3.72601 122 83 55
-0.21296 -0.15799 3.72842 122 83 55
-0.15623 -0.21426 3.71643 122 83 55
-0.08565 -0.25095 3.72581 122 83 55
-0.00283 -0.26515 3.71137 122 83 55
0.08278 -0.25191 3.71713 122 83 55
0.15957 -0.21178 3.71544 122 83 55
0.21728 -0.15199 3.71374 122 83 55
0.25223 -0.08181 3.70797 122 83 55
0.25284 0.00178 3.84331 122 83 55
0.24182 0.07383 3.82920 122 83 55
0.20323 0.15042 3.83631 122 83 55
0.14788 0.20509 3.83083 122 83 55
0.07910 0.24015 3.84273 122 83 55
0.00411 0.25281 3.83042 122 83 55
-0.08061 0.23965 3.84655 122 83 55
-0.15130 0.20258 3.84039 122 83 55
-0.20268 0.15117 3.85182 122 83 55
-0.24026 0.07878 3.84838 122 83 55
-0.25284 0.00185 3.85041 122 83 55
-0.24087 -0.07690 3.83744 122 83 55
-0.20483 -0.14824 3.82785 122 83 55
-0.14720 -0.20558 3.83024 122 83 55
-0.08231 -0.23907 3.84964 122 83 55
-0.00457 -0.25280 3.82823 122 83 55
0.07418 -0.24172 3.85207 122 83 55
0.15132 -0.20257 3.84757 122 83 55
0.20210 -0.15194 3.84250 122 83 55
0.23998 -0.07963 3.83499 122 83 55
0.24389 0.00000 3.96548 122 83 55
0.23167 0.07622 3.94827 122 83 55
0.19737 0.14327 3.95729 122 83 55
0.14385 0.19694 3.95170 122 83 55
0.07794 0.23110 3.96261 122 83 55
-0.00115 0.24388 3.95378 122 83 55
-0.07539 0.23194 3.96869 122 83 55
-0.14168 0.19851 3.97018 122 83 55
-0.19497 0.14652 3.96795 122 83 55
-0.23321 0.07136 3.95153 122 83 55
-0.24387 0.00270 3.97193 122 83 55
-0.23100 -0.07822 3.95155 122 83 55
-0.20011 -0.13941 3.97026 122 83 55
-0.14456 -0.19642 3.95781 122 83 55
-0.07198 -0.23302 3.96471 122 83 55
-0.00422 -0.24385 3.96791 122 83 55
0.07227 -0.23293 3.96472 122 83 55
0.14714 -0.19450 3.95090 122 83 55
0.19782 -0.14264 3.96200 122 83 55
0.23221 -0.07456 3.96440 122 83 55
0.24246 -0.00477 4.07786 122 83 55
0.22965 0.07790 4.07450 122 83 55
0.19386 0.14570 4.06864 122 83 55
0.14111 0.19723 4.09158 122 83 55
0.07428 0.23085 4.07526 122 83 55
0.00163 0.24250 4.08652 122 83 55
-0.07597 0.23030 4.08472 122 83 55
-0.14544 0.19406 4.08305 122 83 55
-0.19629 0.14241 4.07716 122 83 55
-0.22961 0.07804 4.07810 122 83 55
-0.24250 0.00166 4.06879 122 83 55
-0.23111 -0.07348 4.07845 122 83 55
-0.19528 -0.14379 4.08179 122 83 55
-0.13940 -0.19844 4.08805 122 83 55
-0.07430 -0.23085 4.08391 122 83 55
-0.00008 -0.24251 4.09177 122 83 55
0.07113 -0.23184 4.07157 122 83 55
0.14539 -0.19409 4.08752 122 83 55
0.19552 -0.14346 4.07647 122 83 55
0.23069 -0.07477 4.07492 122 83 55
0.24933 0.00336 4.20212 122 83 55
0.23860 0.07244 4.21001 122 83 55
0.20136 0.14708 4.18783 122 83 55
0.14994 0.19924 4.20166 122 83 55
0.08067 0.23595 4.19901 122 83 55
-0.00361 0.24933 4.20170 122 83 55
-0.07624 0.23741 4.19881 122 83 55
-0.14263 0.20454 4.19684 122 83 55
-0.19952 0.14956 4.21246 122 83 55
-0.23710 0.07721 4.19207 122 83 55
-0.24932 0.00419 4.20695 122 83 55
-0.23828 -0.07351 4.21092 122 83 55
-0.20233 -0.14575 4.20471 122 83 55
-0.14586 -0.20224 4.20987 122 83 55
-0.07766 -0.23695 4.21159 122 83 55
-0.00472 -0.24931 4.18984 122 83 55
0.07928 -0.23642 4.19527 122 83 55
0.14766 -0.20093 4.19438 122 83 55
0.20202 -0.14617 4.20679 122 83 55
0.23571 -0.08136 4.19018 122 83 55
0.26120 0.00195 4.31400 122 83 55
0.24987 0.07612 4.32693 122 83 55
0.21016 0.15513 4.33202 122 83 55
0.15605 0.20947 4.31463 122 83 55
0.07964 0.24877 4.31199 122 83 55
0.00104 0.26121 4.30787 122 83 55
-0.08480 0.24706 4.33073 122 83 55
-0.15128 0.21294 4.31779 122 83 55
-0.20986 0.15553 4.33018 122 83 55
-0.24950 0.07733 4.32868 122 83 55
-0.26119 0.00310 4.31661 122 83 55
-0.24776 -0.08274 4.33230 122 83 55
-0.21434 -0.14929 4.32593 122 83 55
-0.15469 -0.21048 4.31457 122 83 55
-0.08388 -0.24738 4.32281 122 83 55
-0.00374 -0.26118 4.31519 122 83 55
0.08067 -0.24844 4.33227 122 83 55
0.15188 -0.21252 4.31221 122 83 55
0.21048 -0.15469 4.30890 122 83 55
0.24770 -0.08292 4.31467 122 83 55
0.27245 -0.00506 4.45005 122 83 55
0.25803 0.08760 4.44793 122 83 55
0.22361 0.15573 4.45058 122 83 55
0.16172 0.21932 4.43215 122 83 55
0.08525 0.25882 4.44786 122 83 55
0.00006 0.27249 4.43114 122 83 55
-0.08386 0.25927 4.43734 122 83 55
-0.15850 0.22166 4.42958 122 83 55
-0.21893 0.16224 4.44478 122 83 55
-0.26042 0.08022 4.42811 122 83 55
-0.27248 0.00313 4.42784 122 83 55
-0.25912 -0.08431 4.43213 122 83 55
-0.22234 -0.15754 4.45091 122 83 55
-0.16204 -0.21908 4.43102 122 83 55
-0.08639 -0.25844 4.43810 122 83 55
0.00427 -0.27246 4.45118 122 83 55
0.08141 -0.26005 4.44081 122 83 55
0.15981 -0.22071 4.44733 122 83 55
0.21993 -0.16089 4.43753 122 83 55
0.25971 -0.08248 4.42759 122 83 55
0.27787 0.00458 4.55957 122 83 55
0.26453 0.08518 4.55953 122 83 55
0.22387 0.16465 4.55282 122 83 55
0.15994 0.22727 4.57029 122 83 55
0.09075 0.26267 4.56193 122 83 55
0.00115 0.27790 4.55512 122 83 55
-0.08628 0.26417 4.55450 122 83 55
-0.15934 0.22769 4.56526 122 83 55
-0.22718 0.16006 4.55898 122 83 55
-0.26474 0.08452 4.55192 122 83 55
-0.27786 -0.00506 4.55149 122 83 55
-0.26271 -0.09064 4.55468 122 83 55
-0.22215 -0.16697 4.54785 122 83 55
-0.16331 -0.22485 4.56871 122 83 55
-0.08716 -0.26388 4.56833 122 83 55
-0.00218 -0.27790 4.56152 122 83 55
0.08375 -0.26498 4.54909 122 83 55
0.16389 -0.22443 4.56621 122 83 55
0.22679 -0.16062 4.55525 122 83 55
0.26496 -0.08383 4.55939 122 83 55
0.27488 0.00254 4.67697 122 83 55
0.26102 0.08621 4.68328 122 83 55
0.22437 0.15881 4.68113 122 83 55
0.16199 0.22209 4.68766 122 83 55
0.08056 0.26282 4.69247 122 83 55
-0.00535 0.27484 4.66856 122 83 55
-0.08491 0.26145 4.68416 122 83 55
-0.16277 0.22152 4.68703 122 83 55
-0.22342 0.16015 4.68923 122 83 55
-0.26206 0.08300 4.68231 122 83 55
-0.27488 0.00290 4.68039 122 83 55
-0.26296 -0.08011 4.68021 122 83 55
-0.22272 -0.16112 4.68714 122 83 55
-0.15899 -0.22425 4.66860 122 83 55
-0.08350 -0.26190 4.68007 122 83 55
-0.00197 -0.27488 4.67313 122 83 55
0.08642 -0.26095 4.68391 122 83 55
0.16414 -0.22051 4.67285 122 83 55
0.22139 -0.16294 4.68677 122 83 55
0.26018 -0.08872 4.67625 122 83 55
0.26486 -0.00317 4.78935 122 83 55
0.25338 0.07717 4.80467 122 83 55
0.21314 0.15726 4.80438 122 83 55
0.15672 0.21354 4.79640 122 83 55
0.07689 0.25347 4.79245 122 83 55
0.00270 0.26486 4.79591 122 83 55
-0.08172 0.25196 4.80188 122 83 55
-0.15520 0.21464 4.79873 122 83 55
-0.21515 0.15450 4.81140 122 83 55
-0.25041 0.08635 4.80421 122 83 55
-0.26488 0.00002 4.81090 122 83 55
-0.25164 -0.08267 4.78911 122 83 55
-0.21140 -0.15959 4.80125 122 83 55
-0.15441 -0.21521 4.81168 122 83 55
-0.08367 -0.25131 4.80615 122 83 55
-0.00196 -0.26487 4.79178 122 83 55
0.08622 -0.25045 4.79451 122 83 55
0.15542 -0.21449 4.79403 122 83 55
0.21693 -0.15198 4.79363 122 83 55
0.25318 -0.07784 4.79732 122 83 55
0.25256 -0.00221 4.92449 122 83 55
0.23880 0.08225 4.90991 122 83 55
0.20274 0.15062 4.93162 122 83 55
0.14556 0.20640 4.93099 122 83 55
0.07768 0.24033 4.93152 122 83 55
0.00206 0.25256 4.91064 122 83 55
-0.07674 0.24063 4.90958 122 83 55
-0.14900 0.20394 4.91627 122 83 55
-0.20586 0.14633 4.92692 122 83 55
-0.24009 0.07840 4.92019 122 83 55
-0.25257 -0.00068 4.90973 122 83 55
-0.23876 -0.08237 4.90880 122 83 55
-0.20293 -0.15037 4.91481 122 83 55
-0.14446 -0.20718 4.91053 122 83 55
-0.08007 -0.23954 4.92658 122 83 55
-0.00346 -0.25254 4.92563 122 83 55
0.08097 -0.23924 4.92173 122 83 55
0.14465 -0.20704 4.92226 122 83 55
0.20639 -0.14558 4.91917 122 83 55
0.23979 -0.07932 4.91973 122 83 55
0.24374 -0.00285 5.03407 122 83 55
0.23187 0.07519 5.03055 122 83 55
0.19511 0.14610 5.04613 122 83 55
0.14224 0.19795 5.04985 122 83 55
0.07981 0.23032 5.04331 122 83 55
0.00475 0.24371 5.03137 122 83 55
-0.07704 0.23126 5.03365 122 83 55
-0.14549 0.19558 5.04573 122 83 55
-0.19780 0.14244 5.04908 122 83 55
-0.23124 0.07709 5.04813 122 83 55
-0.24375 0.00041 5.05114 122 83 55
-0.23212 -0.07440 5.04348 122 83 55
-0.19590 -0.14506 5.04506 122 83 55
-0.14461 -0.19622 5.03351 122 83 55
-0.07388 -0.23229 5.04477 122 83 55
0.00348 -0.24373 5.04149 122 83 55
0.07158 -0.23301 5.03760 122 83 55
0.14405 -0.19664 5.04168 122 83 55
0.19577 -0.14522 5.02880 122 83 55
0.23151 -0.07628 5.05145 122 83 55
0.24258 0.00083 5.17225 122 83 55
0.23043 0.07580 5.17080 122 83 55
0.19675 0.14190 5.15977 122 83 55
0.14410 0.19514 5.16978 122 83 55
0.07087 0.23200 5.16809 122 83 55
0.00313 0.24256 5.15085 122 83 55
-0.07743 0.22989 5.16839 122 83 55
-0.13966 0.19834 5.16939 122 83 55
-0.19396 0.14568 5.15979 122 83 55
-0.22953 0.07848 5.15176 122 83 55
-0.24257 0.00250 5.14938 122 83 55
-0.22931 -0.07913 5.16169 122 83 55
-0.19880 -0.13901 5.14759 122 83 55
-0.14158 -0.19698 5.16186 122 83 55
-0.07547 -0.23054 5.15904 122 83 55
0.00243 -0.24257 5.15396 122 83 55
0.07240 -0.23153 5.15505 122 83 55
0.13872 -0.19901 5.16164 122 83 55
0.19697 -0.14159 5.17063 122 83 55
0.23157 -0.07226 5.15202 122 83 55
0.24960 0.00032 5.26954 122 83 55
0.23787 0.07562 5.26781 122 83 55
0.20369 0.14426 5.28761 122 83 55
0.14981 0.19965 5.28317 122 83 55
0.07351 0.23853 5.29068 122 83 55
0.00281 0.24959 5.27271 122 83 55
-0.08004 0.23642 5.28965 122 83 55
-0.14309 0.20451 5.28953 122 83 55
-0.20069 0.14841 5.28651 122 83 55
-0.23765 0.07632 5.27899 122 83 55
-0.24955 -0.00483 5.28647 122 83 55
-0.23630 -0.08039 5.29164 122 83 55
-0.20153 -0.14726 5.28244 122 83 55
-0.14593 -0.20250 5.27962 122 83 55
-0.07859 -0.23690 5.27950 122 83 55
-0.00230 -0.24959 5.27232 122 83 55
0.07761 -0.23723 5.28311 122 83 55
0.14725 -0.20154 5.28320 122 83 55
0.20112 -0.14782 5.28131 122 83 55
0.23705 -0.07817 5.28097 122 83 55
