ply
format ascii 1.0
comment SIMULATED DEMO - NOT FIELD EVIDENCE
element vertex 900
property float x
property float y
property float z
property uchar red
property uchar green
property uchar blue
end_header
0.25999 0.00271 -0.00410 122 83 55
0.24698 0.08124 -0.00324 122 83 55
0.21140 0.15135 -0.00694 122 83 55
0.15593 0.20805 -0.01078 122 83 55
0.07644 0.24851 -0.00505 122 83 55
0.00366 0.25997 -0.00596 122 83 55
-0.08507 0.24569 0.00049 122 83 55
-0.15273 0.21041 0.00945 122 83 55
-0.21130 0.15150 0.00906 122 83 55
-0.24685 0.08163 -0.00746 122 83 55
-0.25996 0.00430 0.00026 122 83 55
-0.24587 -0.08453 -0.00822 122 83 55
-0.21186 -0.15071 0.00135 122 83 55
-0.14974 -0.21255 0.00413 122 83 55
-0.08508 -0.24569 -0.00724 122 83 55
-0.00046 -0.26000 -0.00215 122 83 55
0.08379 -0.24613 0.00840 122 83 55
0.15082 -0.21178 -0.00178 122 83 55
0.21145 -0.15129 -0.00640 122 83 55
0.24687 -0.08158 -0.01035 122 83 55
0.27156 0.00451 0.10984 122 83 55
0.25979 0.07922 0.11405 122 83 55
0.21993 0.15936 0.11661 122 83 55
0.15542 0.22273 0.11133 122 83 55
0.08583 0.25768 0.11213 122 83 55
-0.00190 0.27159 0.12446 122 83 55
-0.07918 0.25980 0.12078 122 83 55
-0.16050 0.21910 0.12248 122 83 55
-0.21813 0.16181 0.12132 122 83 55
-0.25673 0.08863 0.12626 122 83 55
-0.27156 -0.00458 0.12138 122 83 55
-0.25667 -0.08878 0.10806 122 83 55
-0.22284 -0.15526 0.12987 122 83 55
-0.16197 -0.21801 0.13213 122 83 55
-0.07994 -0.25956 0.11505 122 83 55
0.00424 -0.27156 0.11485 122 83 55
0.08386 -0.25833 0.11760 122 83 55
0.16043 -0.21915 0.11416 122 83 55
0.21765 -0.16246 0.11898 122 83 55
0.25724 -0.08712 0.11444 122 83 55
0.27773 0.00156 0.24166 122 83 55
0.26547 0.08162 0.24884 122 83 55
0.22444 0.16361 0.24923 122 83 55
0.16739 0.22163 0.24285 122 83 55
0.08521 0.26434 0.24050 122 83 55
0.00434 0.27770 0.23870 122 83 55
-0.08101 0.26566 0.23794 122 83 55
-0.16352 0.22450 0.24165 122 83 55
-0.22495 0.16290 0.25207 122 83 55
-0.26344 0.08797 0.23549 122 83 55
-0.27772 -0.00281 0.23981 122 83 55
-0.26372 -0.08712 0.25066 122 83 55
-0.22230 -0.16650 0.24587 122 83 55
-0.16743 -0.22160 0.23990 122 83 55
-0.08938 -0.26296 0.25247 122 83 55
-0.00172 -0.27773 0.25224 122 83 55
0.08496 -0.26442 0.24425 122 83 55
0.16762 -0.22146 0.22786 122 83 55
0.22471 -0.16323 0.25101 122 83 55
0.26362 -0.08742 0.24208 122 83 55
0.27551 -0.00405 0.35766 122 83 55
0.26337 0.08098 0.35342 122 83 55
0.22094 0.16464 0.36155 122 83 55
0.15963 0.22459 0.35165 122 83 55
0.08813 0.26106 0.35900 122 83 55
-0.00361 0.27551 0.35316 122 83 55
-0.08838 0.26098 0.34883 122 83 55
-0.16056 0.22392 0.37211 122 83 55
-0.22105 0.16450 0.37202 122 83 55
-0.26273 0.08302 0.35217 122 83 55
-0.27553 -0.00207 0.36795 122 83 55
-0.26035 -0.09021 0.35483 122 83 55
-0.22036 -0.16541 0.34881 122 83 55
-0.16421 -0.22126 0.37160 122 83 55
-0.08459 -0.26223 0.35510 122 83 55
-0.00028 -0.27554 0.36350 122 83 55
0.08922 -0.26069 0.36132 122 83 55
0.15880 -0.22518 0.36278 122 83 55
0.22487 -0.15923 0.35734 122 83 55
0.26246 -0.08388 0.35274 122 83 55
0.26602 -0.00268 0.48195 122 83 55
0.25208 0.08501 0.46792 122 83 55
0.21659 0.15447 0.47656 122 83 55
0.15500 0.21621 0.47333 122 83 55
0.08030 0.25362 0.47822 122 83 55
0.00519 0.26598 0.48227 122 83 55
-0.07932 0.25393 0.47732 122 83 55
-0.16048 0.21218 0.47895 122 83 55
-0.21675 0.15424 0.47150 122 83 55
-0.25256 0.08357 0.46801 122 83 55
-0.26598 0.00510 0.48393 122 83 55
-0.25405 -0.07895 0.48456 122 83 55
-0.21397 -0.15808 0.48477 122 83 55
-0.15691 -0.21483 0.46953 122 83 55
-0.07847 -0.25419 0.49148 122 83 55
-0.00111 -0.26603 0.47622 122 83 55
0.08027 -0.25363 0.47946 122 83 55
0.15788 -0.21412 0.48042 122 83 55
0.21267 -0.15982 0.49096 122 83 55
0.25459 -0.07718 0.47260 122 83 55
0.25368 -0.00120 0.60640 122 83 55
0.24144 0.07787 0.61191 122 83 55
0.20575 0.14841 0.60848 122 83 55
0.14884 0.20543 0.58799 122 83 55
0.08190 0.24010 0.59575 122 83 55
0.00087 0.25368 0.58795 122 83 55
-0.08259 0.23987 0.60849 122 83 55
-0.14544 0.20785 0.59687 122 83 55
-0.20453 0.15008 0.61105 122 83 55
-0.24047 0.08080 0.59180 122 83 55
-0.25364 0.00494 0.61111 122 83 55
-0.24063 -0.08033 0.60004 122 83 55
-0.20512 -0.14928 0.59233 122 83 55
-0.14803 -0.20602 0.58921 122 83 55
-0.07464 -0.24246 0.59851 122 83 55
0.00114 -0.25368 0.59236 122 83 55
0.07687 -0.24176 0.58822 122 83 55
0.14968 -0.20482 0.60316 122 83 55
0.20315 -0.15194 0.61035 122 83 55
0.24021 -0.08157 0.60697 122 83 55
0.24431 0.00153 0.72724 122 83 55
0.23370 0.07122 0.71516 122 83 55
0.20030 0.13988 0.72826 122 83 55
0.14337 0.19782 0.71118 122 83 55
0.07350 0.23299 0.72800 122 83 55
-0.00429 0.24427 0.71811 122 83 55
-0.07514 0.23247 0.72443 122 83 55
-0.14342 0.19778 0.72881 122 83 55
-0.19740 0.14394 0.72364 122 83 55
-0.23184 0.07707 0.72072 122 83 55
-0.24426 -0.00482 0.72422 122 83 55
-0.23206 -0.07640 0.71416 122 83 55
-0.19724 -0.14417 0.72516 122 83 55
-0.14732 -0.19489 0.72849 122 83 55
-0.07541 -0.23238 0.70788 122 83 55
0.00241 -0.24430 0.72755 122 83 55
0.07420 -0.23277 0.72393 122 83 55
0.14337 -0.19782 0.72628 122 83 55
0.19907 -0.14163 0.72626 122 83 55
0.23338 -0.07225 0.71237 122 83 55
0.24231 -0.00074 0.83320 122 83 55
0.22911 0.07890 0.83740 122 83 55
0.19525 0.14350 0.83063 122 83 55
0.13852 0.19882 0.84874 122 83 55
0.07811 0.22938 0.84374 122 83 55
0.00450 0.24227 0.83430 122 83 55
-0.07440 0.23061 0.84160 122 83 55
-0.14528 0.19394 0.83371 122 83 55
-0.19329 0.14613 0.84343 122 83 55
-0.23057 0.07454 0.85078 122 83 55
-0.24230 -0.00249 0.83203 122 83 55
-0.23061 -0.07441 0.83803 122 83 55
-0.19458 -0.14442 0.85105 122 83 55
-0.14237 -0.19608 0.84583 122 83 55
-0.07743 -0.22961 0.84899 122 83 55
-0.00394 -0.24228 0.83947 122 83 55
0.07202 -0.23136 0.83901 122 83 55
0.14442 -0.19457 0.84397 122 83 55
0.19414 -0.14500 0.84993 122 83 55
0.23149 -0.07162 0.83272 122 83 55
0.24860 -0.00420 0.97022 122 83 55
0.23618 0.07770 0.95215 122 83 55
0.19821 0.15011 0.95268 122 83 55
0.14889 0.19913 0.96587 122 83 55
0.07580 0.23680 0.94901 122 83 55
-0.00400 0.24861 0.95327 122 83 55
-0.07567 0.23684 0.94975 122 83 55
-0.14845 0.19946 0.95336 122 83 55
-0.20287 0.14375 0.96108 122 83 55
-0.23656 0.07654 0.95123 122 83 55
-0.24863 0.00199 0.96151 122 83 55
-0.23746 -0.07370 0.96564 122 83 55
-0.20027 -0.14736 0.95252 122 83 55
-0.14225 -0.20392 0.96751 122 83 55
-0.07311 -0.23764 0.95355 122 83 55
0.00474 -0.24859 0.97027 122 83 55
0.07379 -0.23744 0.94796 122 83 55
0.14548 -0.20163 0.96438 122 83 55
0.19868 -0.14949 0.96800 122 83 55
0.23503 -0.08112 0.94961 122 83 55
0.26028 -0.00327 1.08266 122 83 55
0.24591 0.08536 1.06961 122 83 55
0.21329 0.14922 1.06904 122 83 55
0.15213 0.21122 1.07012 122 83 55
0.07649 0.24881 1.07378 122 83 55
-0.00003 0.26030 1.07778 122 83 55
-0.08069 0.24748 1.07737 122 83 55
-0.15563 0.20866 1.07820 122 83 55
-0.20992 0.15392 1.08064 122 83 55
-0.24685 0.08261 1.07813 122 83 55
-0.26028 -0.00351 1.06873 122 83 55
-0.24717 -0.08164 1.07253 122 83 55
-0.20849 -0.15585 1.07909 122 83 55
-0.15290 -0.21066 1.08401 122 83 55
-0.07693 -0.24868 1.08662 122 83 55
0.00446 -0.26026 1.07806 122 83 55
0.08112 -0.24734 1.07488 122 83 55
0.15536 -0.20885 1.08884 122 83 55
0.21163 -0.15156 1.06891 122 83 55
0.24613 -0.08473 1.07155 122 83 55
0.27179 0.00460 1.20617 122 83 55
0.25694 0.08873 1.19867 122 83 55
0.22213 0.15667 1.18862 122 83 55
0.15901 0.22046 1.20859 122 83 55
0.07931 0.26000 1.21001 122 83 55
0.00109 0.27182 1.19130 122 83 55
-0.08135 0.25937 1.20875 122 83 55
-0.15862 0.22075 1.20230 122 83 55
-0.22246 0.15621 1.20302 122 83 55
-0.25836 0.08449 1.20192 122 83 55
-0.27180 0.00368 1.20112 122 83 55
-0.26004 -0.07916 1.20350 122 83 55
-0.21975 -0.16000 1.20097 122 83 55
-0.16165 -0.21853 1.21038 122 83 55
-0.08585 -0.25791 1.20436 122 83 55
0.00186 -0.27182 1.20750 122 83 55
0.08080 -0.25954 1.20253 122 83 55
0.15549 -0.22296 1.20501 122 83 55
0.21748 -0.16306 1.19586 122 83 55
0.25977 -0.08005 1.21240 122 83 55
0.27776 0.00365 1.31205 122 83 55
0.26533 0.08224 1.32289 122 83 55
0.22439 0.16375 1.32787 122 83 55
0.16658 0.22230 1.32902 122 83 55
0.08412 0.26475 1.32642 122 83 55
0.00118 0.27778 1.31689 122 83 55
-0.08649 0.26398 1.32760 122 83 55
-0.16253 0.22528 1.31734 122 83 55
-0.22652 0.16079 1.31096 122 83 55
-0.26461 0.08454 1.32406 122 83 55
-0.27778 0.00229 1.31144 122 83 55
-0.26506 -0.08312 1.32448 122 83 55
-0.22491 -0.16304 1.31441 122 83 55
-0.16446 -0.22387 1.31075 122 83 55
-0.08999 -0.26281 1.31319 122 83 55
0.00463 -0.27775 1.32436 122 83 55
0.08548 -0.26431 1.32292 122 83 55
0.16296 -0.22497 1.31917 122 83 55
0.22413 -0.16410 1.32638 122 83 55
0.26295 -0.08958 1.30877 122 83 55
0.27535 0.00404 1.42821 122 83 55
0.26333 0.08057 1.44059 122 83 55
0.22401 0.16017 1.43565 122 83 55
0.15774 0.22573 1.43011 122 83 55
0.07991 0.26354 1.43468 122 83 55
-0.00531 0.27533 1.44008 122 83 55
-0.08076 0.26327 1.43718 122 83 55
-0.16573 0.21993 1.44565 122 83 55
-0.22594 0.15744 1.43063 122 83 55
-0.26117 0.08732 1.43278 122 83 55
-0.27538 0.00050 1.44822 122 83 55
-0.26108 -0.08761 1.43834 122 83 55
-0.22430 -0.15977 1.44859 122 83 55
-0.16372 -0.22143 1.43679 122 83 55
-0.08345 -0.26244 1.43059 122 83 55
0.00529 -0.27533 1.43927 122 83 55
0.08735 -0.26116 1.43961 122 83 55
0.16442 -0.22091 1.42760 122 83 55
0.22193 -0.16304 1.42840 122 83 55
0.26148 -0.08640 1.45152 122 83 55
0.26572 0.00325 1.56169 122 83 55
0.25230 0.08347 1.56903 122 83 55
0.21562 0.15533 1.56967 122 83 55
0.15851 0.21329 1.55078 122 83 55
0.08285 0.25250 1.55728 122 83 55
-0.00131 0.26574 1.57084 122 83 55
-0.07940 0.25360 1.55708 122 83 55
-0.15384 0.21668 1.56236 122 83 55
-0.21548 0.15552 1.56976 122 83 55
-0.25338 0.08013 1.54779 122 83 55
-0.26574 0.00158 1.54783 122 83 55
-0.25264 -0.08243 1.56486 122 83 55
-0.21270 -0.15930 1.54906 122 83 55
-0.15670 -0.21463 1.55535 122 83 55
-0.08315 -0.25240 1.54750 122 83 55
-0.00315 -0.26573 1.57039 122 83 55
0.08507 -0.25176 1.57135 122 83 55
0.15980 -0.21233 1.55191 122 83 55
0.21266 -0.15936 1.56796 122 83 55
0.25413 -0.07771 1.55631 122 83 55
0.25337 0.00414 1.67269 122 83 55
0.24003 0.08124 1.68760 122 83 55
0.20677 0.14649 1.67442 122 83 55
0.15236 0.20249 1.67355 122 83 55
0.07624 0.24166 1.67190 122 83 55
-0.00321 0.25338 1.66962 122 83 55
-0.08064 0.24023 1.67143 122 83 55
-0.14497 0.20784 1.68156 122 83 55
-0.20451 0.14963 1.68231 122 83 55
-0.24099 0.07833 1.67921 122 83 55
-0.25339 -0.00272 1.67809 122 83 55
-0.24001 -0.08130 1.68471 122 83 55
-0.20510 -0.14882 1.68776 122 83 55
-0.15081 -0.20364 1.69010 122 83 55
-0.07937 -0.24065 1.69217 122 83 55
-0.00316 -0.25338 1.67031 122 83 55
0.07365 -0.24247 1.68249 122 83 55
0.15171 -0.20297 1.68858 122 83 55
0.20698 -0.14620 1.66840 122 83 55
0.24203 -0.07507 1.67323 122 83 55
0.24413 0.00419 1.80026 122 83 55
0.23109 0.07884 1.79509 122 83 55
0.19874 0.14184 1.81075 122 83 55
0.13956 0.20035 1.79200 122 83 55
0.07139 0.23349 1.80735 122 83 55
-0.00488 0.24412 1.81240 122 83 55
-0.07591 0.23207 1.80385 122 83 55
-0.14269 0.19813 1.80656 122 83 55
-0.19678 0.14455 1.80979 122 83 55
-0.23125 0.07836 1.80037 122 83 55
-0.24417 0.00018 1.80840 122 83 55
-0.23235 -0.07504 1.79748 122 83 55
-0.19583 -0.14583 1.79956 122 83 55
-0.14502 -0.19643 1.80223 122 83 55
-0.07732 -0.23160 1.79569 122 83 55
0.00340 -0.24414 1.79180 122 83 55
0.07487 -0.23240 1.78985 122 83 55
0.14062 -0.19961 1.79742 122 83 55
0.19838 -0.14234 1.79615 122 83 55
0.23174 -0.07689 1.81047 122 83 55
0.24237 -0.00064 1.91444 122 83 55
0.23029 0.07556 1.93105 122 83 55
0.19602 0.14256 1.91196 122 83 55
0.13868 0.19878 1.91723 122 83 55
0.07133 0.23164 1.91609 122 83 55
0.00247 0.24236 1.91988 122 83 55
-0.07875 0.22922 1.91879 122 83 55
-0.14269 0.19592 1.91918 122 83 55
-0.19736 0.14069 1.92403 122 83 55
-0.23015 0.07602 1.90985 122 83 55
-0.24237 0.00027 1.93150 122 83 55
-0.23108 -0.07314 1.91887 122 83 55
-0.19663 -0.14171 1.92044 122 83 55
-0.13857 -0.19886 1.91021 122 83 55
-0.07318 -0.23106 1.90901 122 83 55
-0.00224 -0.24236 1.91788 122 83 55
0.07378 -0.23087 1.92111 122 83 55
0.14182 -0.19655 1.92918 122 83 55
0.19398 -0.14532 1.92312 122 83 55
0.23025 -0.07569 1.92208 122 83 55
0.24887 -0.00073 2.04507 122 83 55
0.23787 0.07319 2.03618 122 83 55
0.20183 0.14561 2.04146 122 83 55
0.14603 0.20153 2.04840 122 83 55
0.07447 0.23747 2.04831 122 83 55
-0.00287 0.24886 2.05068 122 83 55
-0.08098 0.23533 2.04954 122 83 55
-0.14413 0.20289 2.03312 122 83 55
-0.20393 0.14265 2.04656 122 83 55
-0.23786 0.07321 2.03247 122 83 55
-0.24887 0.00034 2.03675 122 83 55
-0.23728 -0.07507 2.04179 122 83 55
-0.20023 -0.14780 2.05215 122 83 55
-0.14777 -0.20026 2.04869 122 83 55
-0.07601 -0.23698 2.04655 122 83 55
-0.00117 -0.24887 2.03067 122 83 55
0.07535 -0.23719 2.04990 122 83 55
0.14639 -0.20127 2.04222 122 83 55
0.20361 -0.14312 2.04059 122 83 55
0.23793 -0.07298 2.03478 122 83 55
0.26060 -0.00227 2.16209 122 83 55
0.24667 0.08407 2.15179 122 83 55
0.20800 0.15701 2.15202 122 83 55
0.15347 0.21062 2.15743 122 83 55
0.08408 0.24667 2.15254 122 83 55
0.00157 0.26060 2.15859 122 83 55
-0.07814 0.24862 2.15278 122 83 55
-0.15166 0.21193 2.16141 122 83 55
-0.21228 0.15118 2.16962 122 83 55
-0.24824 0.07931 2.15938 122 83 55
-0.26059 -0.00287 2.15998 122 83 55
-0.24820 -0.07945 2.16166 122 83 55
-0.20827 -0.15664 2.15350 122 83 55
-0.15509 -0.20943 2.16632 122 83 55
-0.08089 -0.24773 2.15634 122 83 55
-0.00051 -0.26060 2.16957 122 83 55
0.07708 -0.24894 2.15731 122 83 55
0.15303 -0.21094 2.15820 122 83 55
0.21104 -0.15289 2.14968 122 83 55
0.24842 -0.07876 2.16378 122 83 55
0.27200 -0.00534 2.28243 122 83 55
0.25709 0.08898 2.28333 122 83 55
0.21986 0.16023 2.27152 122 83 55
0.15989 0.22011 2.28758 122 83 55
0.08563 0.25822 2.27785 122 83 55
0.00242 0.27204 2.28894 122 83 55
-0.08161 0.25952 2.28966 122 83 55
-0.16233 0.21831 2.27287 122 83 55
-0.21951 0.16070 2.27860 122 83 55
-0.25799 0.08632 2.27722 122 83 55
-0.27205 0.00045 2.28490 122 83 55
-0.25956 -0.08150 2.29070 122 83 55
-0.21900 -0.16140 2.28317 122 83 55
-0.16307 -0.21776 2.28778 122 83 55
-0.08564 -0.25822 2.29179 122 83 55
-0.00139 -0.27205 2.27831 122 83 55
0.08437 -0.25864 2.27006 122 83 55
0.15950 -0.22039 2.28187 122 83 55
0.22309 -0.15571 2.27843 122 83 55
0.25831 -0.08537 2.26778 122 83 55
0.27781 0.00337 2.40343 122 83 55
0.26321 0.08895 2.40296 122 83 55
0.22578 0.16191 2.39035 122 83 55
0.16146 0.22610 2.39126 122 83 55
0.09081 0.26257 2.40265 122 83 55
-0.00013 0.27783 2.38902 122 83 55
-0.08482 0.26457 2.40848 122 83 55
-0.16554 0.22313 2.38773 122 83 55
-0.22535 0.16251 2.40114 122 83 55
-0.26551 0.08182 2.41131 122 83 55
-0.27781 -0.00323 2.39611 122 83 55
-0.26291 -0.08982 2.41130 122 83 55
-0.22390 -0.16450 2.39406 122 83 55
-0.16293 -0.22504 2.38977 122 83 55
-0.08638 -0.26406 2.40996 122 83 55
0.00313 -0.27781 2.39114 122 83 55
0.08936 -0.26307 2.40020 122 83 55
0.16116 -0.22631 2.40989 122 83 55
0.22156 -0.16764 2.40034 122 83 55
0.26306 -0.08937 2.39293 122 83 55
0.27518 0.00476 2.51289 122 83 55
0.26337 0.07991 2.51623 122 83 55
0.22569 0.15751 2.52531 122 83 55
0.15993 0.22399 2.53184 122 83 55
0.08903 0.26043 2.51496 122 83 55
0.00178 0.27522 2.53246 122 83 55
-0.08979 0.26016 2.52893 122 83 55
-0.16040 0.22365 2.51216 122 83 55
-0.22074 0.16439 2.50777 122 83 55
-0.26028 0.08946 2.50799 122 83 55
-0.27518 0.00499 2.50861 122 83 55
-0.26035 -0.08926 2.51843 122 83 55
-0.22187 -0.16286 2.52930 122 83 55
-0.16306 -0.22172 2.51610 122 83 55
-0.08016 -0.26329 2.52142 122 83 55
0.00534 -0.27517 2.50810 122 83 55
0.08218 -0.26267 2.51133 122 83 55
0.16538 -0.22000 2.52874 122 83 55
0.22110 -0.16390 2.52961 122 83 55
0.26076 -0.08805 2.53087 122 83 55
0.26542 0.00447 2.65065 122 83 55
0.25173 0.08426 2.64277 122 83 55
0.21391 0.15720 2.63506 122 83 55
0.15372 0.21642 2.64946 122 83 55
0.08624 0.25106 2.64433 122 83 55
-0.00509 0.26541 2.63285 122 83 55
-0.07745 0.25391 2.62785 122 83 55
-0.15382 0.21635 2.63704 122 83 55
-0.21667 0.15336 2.63910 122 83 55
-0.25187 0.08385 2.63085 122 83 55
-0.26545 -0.00103 2.64890 122 83 55
-0.25143 -0.08513 2.65116 122 83 55
-0.21173 -0.16011 2.64472 122 83 55
-0.15683 -0.21418 2.63185 122 83 55
-0.08461 -0.25161 2.64164 122 83 55
0.00199 -0.26545 2.63429 122 83 55
0.07809 -0.25371 2.63646 122 83 55
0.15875 -0.21275 2.65170 122 83 55
0.21373 -0.15744 2.64281 122 83 55
0.25391 -0.07742 2.64089 122 83 55
0.25308 -0.00449 2.77165 122 83 55
0.24153 0.07573 2.76109 122 83 55
0.20211 0.15238 2.76220 122 83 55
0.14769 0.20557 2.76602 122 83 55
0.07834 0.24069 2.77027 122 83 55
-0.00490 0.25308 2.77126 122 83 55
-0.07348 0.24222 2.75160 122 83 55
-0.14559 0.20706 2.75063 122 83 55
-0.20301 0.15119 2.75959 122 83 55
-0.24164 0.07539 2.77123 122 83 55
-0.25312 0.00187 2.76267 122 83 55
-0.23953 -0.08184 2.76323 122 83 55
-0.20622 -0.14677 2.75793 122 83 55
-0.14470 -0.20769 2.76658 122 83 55
-0.08057 -0.23996 2.76902 122 83 55
0.00048 -0.25312 2.75828 122 83 55
0.08177 -0.23955 2.77238 122 83 55
0.15234 -0.20215 2.76984 122 83 55
0.20431 -0.14943 2.75219 122 83 55
0.23989 -0.08077 2.76107 122 83 55
0.24401 -0.00294 2.88571 122 83 55
0.23131 0.07775 2.89239 122 83 55
0.20021 0.13951 2.87687 122 83 55
0.14576 0.19571 2.87917 122 83 55
0.07193 0.23318 2.88226 122 83 55
0.00070 0.24402 2.88795 122 83 55
-0.07092 0.23349 2.87998 122 83 55
-0.14623 0.19535 2.89044 122 83 55
-0.19671 0.14440 2.88786 122 83 55
-0.23114 0.07824 2.87265 122 83 55
-0.24402 0.00194 2.87403 122 83 55
-0.23350 -0.07090 2.88263 122 83 55
-0.19901 -0.14122 2.87396 122 83 55
-0.14566 -0.19578 2.87161 122 83 55
-0.07654 -0.23171 2.88936 122 83 55
0.00036 -0.24402 2.86951 122 83 55
0.07950 -0.23071 2.87562 122 83 55
0.14428 -0.19680 2.89214 122 83 55
0.19508 -0.14660 2.88056 122 83 55
0.23121 -0.07803 2.88357 122 83 55
0.24241 0.00400 2.99877 122 83 55
0.22980 0.07725 2.99846 122 83 55
0.19841 0.13932 2.99687 122 83 55
0.14617 0.19342 2.99531 122 83 55
0.07076 0.23188 2.99133 122 83 55
-0.00427 0.24240 2.98801 122 83 55
-0.07106 0.23179 2.99172 122 83 55
-0.14373 0.19524 3.00904 122 83 55
-0.19760 0.14046 3.00358 122 83 55
-0.22999 0.07668 2.99429 122 83 55
-0.24241 -0.00398 2.99627 122 83 55
-0.23100 -0.07359 3.01030 122 83 55
-0.19801 -0.13989 3.01245 122 83 55
-0.14553 -0.19390 2.99133 122 83 55
-0.07500 -0.23055 3.00705 122 83 55
-0.00376 -0.24241 2.98978 122 83 55
0.07209 -0.23147 3.00995 122 83 55
0.14080 -0.19736 2.99961 122 83 55
0.19615 -0.14249 2.98765 122 83 55
0.22942 -0.07837 2.99389 122 83 55
0.24908 0.00399 3.13065 122 83 55
0.23744 0.07538 3.11867 122 83 55
0.19910 0.14972 3.10945 122 83 55
0.14564 0.20210 3.12679 122 83 55
0.08089 0.23562 3.11820 122 83 55
-0.00022 0.24911 3.11119 122 83 55
-0.07526 0.23747 3.13148 122 83 55
-0.14913 0.19954 3.12905 122 83 55
-0.20318 0.14414 3.13089 122 83 55
-0.23662 0.07790 3.11367 122 83 55
-0.24908 0.00397 3.11923 122 83 55
-0.23636 -0.07867 3.10788 122 83 55
-0.20124 -0.14683 3.11141 122 83 55
-0.14546 -0.20223 3.12365 122 83 55
-0.07809 -0.23656 3.12765 122 83 55
-0.00295 -0.24910 3.11885 122 83 55
0.07801 -0.23658 3.12044 122 83 55
0.14274 -0.20416 3.11355 122 83 55
0.20329 -0.14398 3.12314 122 83 55
0.23779 -0.07424 3.12426 122 83 55
0.26089 0.00272 3.23454 122 83 55
0.24896 0.07805 3.24599 122 83 55
0.21347 0.15001 3.24458 122 83 55
0.15374 0.21080 3.22802 122 83 55
0.08420 0.24695 3.23295 122 83 55
0.00313 0.26089 3.24075 122 83 55
-0.08109 0.24799 3.22850 122 83 55
-0.15365 0.21087 3.23709 122 83 55
-0.21269 0.15112 3.24849 122 83 55
-0.24792 0.08130 3.24320 122 83 55
-0.26087 0.00421 3.24823 122 83 55
-0.24764 -0.08214 3.24952 122 83 55
-0.20853 -0.15680 3.23255 122 83 55
-0.15469 -0.21010 3.24442 122 83 55
-0.08088 -0.24806 3.24219 122 83 55
-0.00507 -0.26086 3.24402 122 83 55
0.07855 -0.24880 3.23411 122 83 55
0.15695 -0.20842 3.22777 122 83 55
0.21398 -0.14928 3.23118 122 83 55
0.24651 -0.08549 3.24609 122 83 55
0.27223 -0.00490 3.36786 122 83 55
0.25793 0.08720 3.36705 122 83 55
0.22252 0.15690 3.34978 122 83 55
0.16331 0.21786 3.37077 122 83 55
0.08341 0.25918 3.37133 122 83 55
0.00028 0.27228 3.35129 122 83 55
-0.08104 0.25994 3.36673 122 83 55
-0.15728 0.22225 3.36685 122 83 55
-0.21763 0.16362 3.35111 122 83 55
-0.25740 0.08876 3.36098 122 83 55
-0.27227 0.00164 3.36953 122 83 55
-0.25763 -0.08811 3.36272 122 83 55
-0.22256 -0.15685 3.36816 122 83 55
-0.16330 -0.21787 3.37099 122 83 55
-0.08051 -0.26010 3.36291 122 83 55
0.00141 -0.27227 3.36380 122 83 55
0.08702 -0.25800 3.36214 122 83 55
0.15621 -0.22301 3.35496 122 83 55
0.22294 -0.15631 3.35650 122 83 55
0.25971 -0.08177 3.35143 122 83 55
0.27786 0.00176 3.48981 122 83 55
0.26400 0.08669 3.49132 122 83 55
0.22508 0.16295 3.49155 122 83 55
0.16014 0.22708 3.48344 122 83 55
0.08174 0.26558 3.47752 122 83 55
-0.00101 0.27787 3.47078 122 83 55
-0.08641 0.26409 3.48160 122 83 55
-0.16634 0.22258 3.47121 122 83 55
-0.22624 0.16133 3.48771 122 83 55
-0.26412 0.08631 3.48050 122 83 55
-0.27785 -0.00364 3.49238 122 83 55
-0.26331 -0.08876 3.48331 122 83 55
-0.22777 -0.15917 3.47456 122 83 55
-0.16364 -0.22457 3.48974 122 83 55
-0.08481 -0.26461 3.48563 122 83 55
-0.00065 -0.27787 3.47571 122 83 55
0.08767 -0.26368 3.47860 122 83 55
0.16469 -0.22380 3.48709 122 83 55
0.22694 -0.16034 3.47706 122 83 55
0.26257 -0.09094 3.47354 122 83 55
0.27506 0.00001 3.61043 122 83 55
0.26003 0.08967 3.59429 122 83 55
0.21986 0.16529 3.60836 122 83 55
0.16489 0.22016 3.60444 122 83 55
0.08597 0.26128 3.59856 122 83 55
-0.00128 0.27506 3.60656 122 83 55
-0.08217 0.26250 3.60826 122 83 55
-0.15926 0.22426 3.60844 122 83 55
-0.21929 0.16604 3.60117 122 83 55
-0.25991 0.09003 3.60954 122 83 55
-0.27506 -0.00122 3.59262 122 83 55
-0.26261 -0.08181 3.59939 122 83 55
-0.22443 -0.15902 3.60710 122 83 55
-0.16004 -0.22370 3.59781 122 83 55
-0.08512 -0.26156 3.60369 122 83 55
-0.00127 -0.27506 3.60303 122 83 55
0.08572 -0.26136 3.60078 122 83 55
0.16338 -0.22128 3.59486 122 83 55
0.22541 -0.15764 3.58830 122 83 55
0.26286 -0.08101 3.59652 122 83 55
0.26517 0.00018 3.71624 122 83 55
0.25258 0.08072 3.72479 122 83 55
0.21404 0.15653 3.71520 122 83 55
0.15920 0.21206 3.72463 122 83 55
0.08399 0.25151 3.73027 122 83 55
0.00175 0.26516 3.71042 122 83 55
-0.07777 0.25351 3.73146 122 83 55
-0.15802 0.21294 3.71740 122 83 55
-0.21640 0.15325 3.71952 122 83 55
-0.25295 0.07956 3.72305 122 83 55
-0.26515 -0.00318 3.70784 122 83 55
-0.25057 -0.08677 3.70943 122 83 55
-0.21641 -0.15324 3.73175 122 83 55
-0.15179 -0.21743 3.70875 122 83 55
-0.07776 -0.25351 3.72338 122 83 55
0.00518 -0.26512 3.71070 122 83 55
0.08019 -0.25275 3.72110 122 83 55
0.15672 -0.21390 3.71624 122 83 55
0.21509 -0.15508 3.71390 122 83 55
0.25332 -0.07837 3.72899 122 83 55
0.25280 0.00495 3.84745 122 83 55
0.24015 0.07911 3.85131 122 83 55
0.20237 0.15158 3.83464 122 83 55
0.14702 0.20571 3.84380 122 83 55
0.07357 0.24190 3.83981 122 83 55
-0.00458 0.25280 3.83278 122 83 55
-0.07659 0.24096 3.83697 122 83 55
-0.14583 0.20655 3.83190 122 83 55
-0.20709 0.14507 3.84880 122 83 55
-0.24050 0.07802 3.85007 122 83 55
-0.25283 -0.00235 3.83413 122 83 55
-0.24135 -0.07537 3.84435 122 83 55
-0.20712 -0.14503 3.83821 122 83 55
-0.15095 -0.20284 3.84732 122 83 55
-0.08105 -0.23950 3.83104 122 83 55
-0.00269 -0.25283 3.83524 122 83 55
0.07922 -0.24011 3.84053 122 83 55
0.14930 -0.20406 3.83405 122 83 55
0.20444 -0.14878 3.84318 122 83 55
0.24028 -0.07872 3.84181 122 83 55
0.24387 -0.00325 3.95167 122 83 55
0.23178 0.07589 3.97238 122 83 55
0.19507 0.14638 3.95453 122 83 55
0.14248 0.19794 3.96624 122 83 55
0.07275 0.23278 3.96466 122 83 55
-0.00111 0.24388 3.96587 122 83 55
-0.07117 0.23327 3.96457 122 83 55
-0.14044 0.19940 3.95901 122 83 55
-0.19963 0.14010 3.96742 122 83 55
-0.23111 0.07789 3.94984 122 83 55
-0.24389 -0.00022 3.94935 122 83 55
-0.23240 -0.07396 3.95377 122 83 55
-0.19930 -0.14057 3.95463 122 83 55
-0.14239 -0.19800 3.95834 122 83 55
-0.07836 -0.23096 3.96162 122 83 55
-0.00265 -0.24387 3.95376 122 83 55
0.07808 -0.23105 3.95361 122 83 55
0.14608 -0.19530 3.96759 122 83 55
0.19684 -0.14400 3.96999 122 83 55
0.23147 -0.07684 3.96991 122 83 55
0.24249 -0.00285 4.08931 122 83 55
0.23163 0.07181 4.09104 122 83 55
0.19785 0.14023 4.08723 122 83 55
0.14525 0.19419 4.08535 122 83 55
0.07953 0.22909 4.08836 122 83 55
-0.00224 0.24250 4.07600 122 83 55
-0.07861 0.22941 4.08755 122 83 55
-0.14352 0.19548 4.07157 122 83 55
-0.19350 0.14618 4.07211 122 83 55
-0.23105 0.07367 4.07681 122 83 55
-0.24248 -0.00388 4.08798 122 83 55
-0.23171 -0.07154 4.08115 122 83 55
-0.19782 -0.14028 4.08886 122 83 55
-0.14489 -0.19447 4.07956 122 83 55
-0.07845 -0.22947 4.06883 122 83 55
0.00188 -0.24250 4.09199 122 83 55
0.07138 -0.23176 4.08501 122 83 55
0.14343 -0.19554 4.07840 122 83 55
0.19476 -0.14449 4.08316 122 83 55
0.23067 -0.07485 4.07816 122 83 55
0.24935 -0.00079 4.19040 122 83 55
0.23592 0.08076 4.20339 122 83 55
0.19958 0.14949 4.20538 122 83 55
0.14401 0.20357 4.20732 122 83 55
0.08033 0.23606 4.19262 122 83 55
0.00370 0.24933 4.19996 122 83 55
-0.07512 0.23777 4.19384 122 83 55
-0.14293 0.20433 4.18960 122 83 55
-0.20313 0.14463 4.20044 122 83 55
-0.23580 0.08110 4.20983 122 83 55
-0.24935 0.00125 4.19256 122 83 55
-0.23765 -0.07551 4.20319 122 83 55
-0.19951 -0.14958 4.19627 122 83 55
-0.15051 -0.19881 4.20364 122 83 55
-0.07295 -0.23845 4.19694 122 83 55
-0.00233 -0.24934 4.19641 122 83 55
0.07434 -0.23802 4.20269 122 83 55
0.15020 -0.19904 4.18999 122 83 55
0.19968 -0.14936 4.20860 122 83 55
0.23558 -0.08174 4.19130 122 83 55
0.26118 0.00367 4.31306 122 83 55
0.24946 0.07746 4.32616 122 83 55
0.20997 0.15538 4.32927 122 83 55
0.15174 0.21262 4.31388 122 83 55
0.07933 0.24887 4.31114 122 83 55
-0.00520 0.26116 4.33033 122 83 55
-0.08345 0.24752 4.31869 122 83 55
-0.15157 0.21274 4.32590 122 83 55
-0.21011 0.15519 4.32989 122 83 55
-0.24987 0.07614 4.32035 122 83 55
-0.26120 -0.00211 4.31664 122 83 55
-0.24902 -0.07886 4.30817 122 83 55
-0.21211 -0.15245 4.32415 122 83 55
-0.15574 -0.20971 4.32918 122 83 55
-0.07866 -0.24908 4.32900 122 83 55
0.00107 -0.26121 4.32045 122 83 55
0.08490 -0.24703 4.30758 122 83 55
0.15290 -0.21179 4.32172 122 83 55
0.20959 -0.15589 4.32787 122 83 55
0.24897 -0.07903 4.31290 122 83 55
0.27247 -0.00397 4.42851 122 83 55
0.25886 0.08511 4.43836 122 83 55
0.22291 0.15674 4.44076 122 83 55
0.15741 0.22243 4.43911 122 83 55
0.08243 0.25973 4.43491 122 83 55
-0.00178 0.27249 4.44002 122 83 55
-0.08646 0.25841 4.42887 122 83 55
-0.15903 0.22128 4.44568 122 83 55
-0.22263 0.15714 4.42846 122 83 55
-0.25795 0.08783 4.42971 122 83 55
-0.27249 -0.00186 4.42936 122 83 55
-0.25967 -0.08262 4.43835 122 83 55
-0.21974 -0.16115 4.43264 122 83 55
-0.16353 -0.21797 4.45080 122 83 55
-0.08359 -0.25936 4.43673 122 83 55
-0.00210 -0.27249 4.44971 122 83 55
0.08316 -0.25949 4.44984 122 83 55
0.16046 -0.22024 4.43665 122 83 55
0.21971 -0.16119 4.44832 122 83 55
0.25956 -0.08297 4.43348 122 83 55
0.27789 0.00225 4.55764 122 83 55
0.26293 0.09000 4.56199 122 83 55
0.22260 0.16638 4.54875 122 83 55
0.15895 0.22796 4.56031 122 83 55
0.08561 0.26439 4.56906 122 83 55
0.00373 0.27788 4.57075 122 83 55
-0.08474 0.26467 4.55848 122 83 55
-0.16160 0.22609 4.56522 122 83 55
-0.22562 0.16225 4.55692 122 83 55
-0.26275 0.09050 4.55546 122 83 55
-0.27788 0.00339 4.57149 122 83 55
-0.26312 -0.08944 4.57151 122 83 55
-0.22445 -0.16387 4.56723 122 83 55
-0.16244 -0.22548 4.56329 122 83 55
-0.08284 -0.26527 4.55694 122 83 55
0.00192 -0.27790 4.56628 122 83 55
0.08667 -0.26404 4.57168 122 83 55
0.16775 -0.22157 4.55355 122 83 55
0.22564 -0.16222 4.54989 122 83 55
0.26442 -0.08551 4.55257 122 83 55
0.27488 -0.00249 4.68417 122 83 55
0.26026 0.08850 4.68183 122 83 55
0.22290 0.16088 4.68119 122 83 55
0.15822 0.22480 4.67792 122 83 55
0.08904 0.26007 4.69140 122 83 55
-0.00162 0.27489 4.68566 122 83 55
-0.08278 0.26213 4.67128 122 83 55
-0.15978 0.22368 4.68961 122 83 55
-0.22362 0.15987 4.67252 122 83 55
-0.26190 0.08350 4.67176 122 83 55
-0.27488 -0.00246 4.68818 122 83 55
-0.26217 -0.08266 4.69146 122 83 55
-0.21965 -0.16528 4.68287 122 83 55
-0.15802 -0.22493 4.67982 122 83 55
-0.08658 -0.26090 4.66946 122 83 55
-0.00308 -0.27487 4.67711 122 83 55
0.08905 -0.26007 4.67676 122 83 55
0.16436 -0.22035 4.67288 122 83 55
0.22247 -0.16148 4.68333 122 83 55
0.26237 -0.08203 4.68994 122 83 55
0.26487 0.00185 4.79429 122 83 55
0.25077 0.08528 4.80424 122 83 55
0.21292 0.15755 4.80376 122 83 55
0.15518 0.21466 4.80950 122 83 55
0.07850 0.25298 4.81231 122 83 55
-0.00073 0.26488 4.81095 122 83 55
-0.08487 0.25091 4.79965 122 83 55
-0.15210 0.21685 4.78958 122 83 55
-0.21625 0.15295 4.80932 122 83 55
-0.25061 0.08576 4.80887 122 83 55
-0.26483 -0.00490 4.78811 122 83 55
-0.25327 -0.07754 4.79772 122 83 55
-0.21648 -0.15263 4.79457 122 83 55
-0.15313 -0.21613 4.78925 122 83 55
-0.08065 -0.25230 4.80176 122 83 55
-0.00462 -0.26484 4.80642 122 83 55
0.08067 -0.25229 4.80111 122 83 55
0.15301 -0.21621 4.79195 122 83 55
0.21140 -0.15959 4.79510 122 83 55
0.25130 -0.08370 4.81079 122 83 55
0.25252 0.00471 4.91798 122 83 55
0.24053 0.07706 4.93013 122 83 55
0.20240 0.15108 4.91496 122 83 55
0.15216 0.20159 4.92284 122 83 55
0.07508 0.24115 4.91141 122 83 55
-0.00220 0.25256 4.91660 122 83 55
-0.07470 0.24127 4.91002 122 83 55
-0.15216 0.20159 4.91734 122 83 55
-0.20575 0.14649 4.91011 122 83 55
-0.24046 0.07725 4.91663 122 83 55
-0.25253 -0.00409 4.92933 122 83 55
-0.24138 -0.07434 4.92915 122 83 55
-0.20285 -0.15047 4.92960 122 83 55
-0.14587 -0.20618 4.92739 122 83 55
-0.07770 -0.24032 4.90997 122 83 55
-0.00413 -0.25253 4.92722 122 83 55
0.07354 -0.24162 4.91067 122 83 55
0.14600 -0.20609 4.90897 122 83 55
0.20613 -0.14595 4.92874 122 83 55
0.24006 -0.07848 4.91511 122 83 55
0.24373 0.00371 5.04679 122 83 55
0.23218 0.07422 5.04186 122 83 55
0.19840 0.14161 5.04288 122 83 55
0.14283 0.19752 5.03304 122 83 55
0.07677 0.23135 5.05065 122 83 55
0.00448 0.24371 5.03614 122 83 55
-0.07745 0.23112 5.04494 122 83 55
-0.14435 0.19642 5.03654 122 83 55
-0.19853 0.14143 5.03481 122 83 55
-0.23158 0.07607 5.04210 122 83 55
-0.24373 0.00314 5.03159 122 83 55
-0.23260 -0.07290 5.05170 122 83 55
-0.19475 -0.14659 5.03130 122 83 55
-0.14608 -0.19513 5.03750 122 83 55
-0.07105 -0.23317 5.03663 122 83 55
0.00429 -0.24372 5.03187 122 83 55
0.07512 -0.23189 5.05036 122 83 55
0.14203 -0.19810 5.04134 122 83 55
0.19692 -0.14367 5.02791 122 83 55
0.23149 -0.07635 5.04103 122 83 55
0.24258 0.00074 5.15324 122 83 55
0.23183 0.07142 5.15428 122 83 55
0.19532 0.14386 5.16849 122 83 55
0.14128 0.19719 5.16367 122 83 55
0.07257 0.23147 5.16401 122 83 55
0.00209 0.24257 5.15048 122 83 55
-0.07632 0.23026 5.16668 122 83 55
-0.14600 0.19373 5.16626 122 83 55
-0.19616 0.14271 5.17052 122 83 55
-0.23058 0.07537 5.17118 122 83 55
-0.24257 -0.00199 5.16528 122 83 55
-0.23087 -0.07448 5.16025 122 83 55
-0.19628 -0.14255 5.16431 122 83 55
-0.14322 -0.19579 5.16966 122 83 55
-0.07574 -0.23046 5.16983 122 83 55
0.00291 -0.24256 5.16666 122 83 55
0.07042 -0.23214 5.16967 122 83 55
0.14524 -0.19430 5.15792 122 83 55
0.19608 -0.14282 5.16589 122 83 55
0.23090 -0.07436 5.15722 122 83 55
0.24959 0.00199 5.28678 122 83 55
0.23809 0.07491 5.27983 122 83 55
0.20296 0.14529 5.27545 122 83 55
0.14915 0.20014 5.27207 122 83 55
0.07701 0.23743 5.27378 122 83 55
0.00043 0.24960 5.28583 122 83 55
-0.07867 0.23688 5.27737 122 83 55
-0.14474 0.20335 5.28903 122 83 55
-0.20066 0.14845 5.26807 122 83 55
-0.23583 0.08178 5.28430 122 83 55
-0.24960 -0.00170 5.29187 122 83 55
-0.23592 -0.08149 5.26944 122 83 55
-0.20387 -0.14401 5.27153 122 83 55
-0.14823 -0.20082 5.26936 122 83 55
-0.08067 -0.23620 5.27907 122 83 55
-0.00470 -0.24956 5.28055 122 83 55
0.08073 -0.23619 5.27493 122 83 55
0.14914 -0.20014 5.27533 122 83 55
0.20073 -0.14835 5.27667 122 83 55
0.23845 -0.07377 5.26945 122 83 55
