ply
format ascii 1.0
comment SIMULATED DEMO - NOT FIELD EVIDENCE
element vertex 900
property float x
property float y
property float z
property uchar red
property uchar green
property uchar blue
end_header
0.25998 0.00350 0.00671 122 83 55
0.24871 0.07579 0.01149 122 83 55
0.21164 0.15103 -0.00295 122 83 55
0.15676 0.20743 -0.00715 122 83 55
0.07985 0.24744 0.00416 122 83 55
0.00427 0.25996 -0.00706 122 83 55
-0.07859 0.24784 -0.00317 122 83 55
-0.14872 0.21326 -0.00748 122 83 55
-0.21274 0.14947 -0.00302 122 83 55
-0.24848 0.07652 -0.00006 122 83 55
-0.25998 0.00335 0.00909 122 83 55
-0.24582 -0.08468 0.00503 122 83 55
-0.21309 -0.14898 -0.00216 122 83 55
-0.15648 -0.20764 -0.00997 122 83 55
-0.07666 -0.24844 0.00820 122 83 55
0.00325 -0.25998 0.00734 122 83 55
0.07833 -0.24792 0.00327 122 83 55
0.15032 -0.21214 -0.00990 122 83 55
0.21083 -0.15215 0.00162 122 83 55
0.24792 -0.07834 -0.00711 122 83 55
0.27156 -0.00437 0.12191 122 83 55
0.25952 0.08007 0.11101 122 83 55
0.21762 0.16249 0.10897 122 83 55
0.16030 0.21924 0.11819 122 83 55
0.07993 0.25957 0.11681 122 83 55
0.00006 0.27160 0.11367 122 83 55
-0.08363 0.25840 0.13005 122 83 55
-0.16013 0.21937 0.12598 122 83 55
-0.22125 0.15751 0.11181 122 83 55
-0.25904 0.08163 0.12681 122 83 55
-0.27160 -0.00019 0.12708 122 83 55
-0.25743 -0.08658 0.11998 122 83 55
-0.21753 -0.16262 0.11201 122 83 55
-0.16215 -0.21788 0.11620 122 83 55
-0.08150 -0.25908 0.12085 122 83 55
-0.00106 -0.27159 0.11620 122 83 55
0.08644 -0.25747 0.11321 122 83 55
0.16312 -0.21715 0.13050 122 83 55
0.21704 -0.16327 0.12605 122 83 55
0.25842 -0.08358 0.12078 122 83 55
0.27774 -0.00030 0.25054 122 83 55
0.26553 0.08145 0.24866 122 83 55
0.22159 0.16744 0.25061 122 83 55
0.16669 0.22216 0.23440 122 83 55
0.08671 0.26386 0.23604 122 83 55
-0.00151 0.27773 0.22883 122 83 55
-0.08359 0.26486 0.23410 122 83 55
-0.16422 0.22399 0.23333 122 83 55
-0.22168 0.16732 0.23537 122 83 55
-0.26389 0.08662 0.23397 122 83 55
-0.27773 0.00218 0.25017 122 83 55
-0.26290 -0.08957 0.25192 122 83 55
-0.22517 -0.16259 0.23357 122 83 55
-0.16636 -0.22240 0.23382 122 83 55
-0.08767 -0.26354 0.24816 122 83 55
-0.00249 -0.27773 0.24170 122 83 55
0.08667 -0.26387 0.23986 122 83 55
0.16264 -0.22513 0.23362 122 83 55
0.22275 -0.16590 0.23360 122 83 55
0.26373 -0.08708 0.23213 122 83 55
0.27554 0.00122 0.35651 122 83 55
0.26300 0.08218 0.35429 122 83 55
0.22202 0.16319 0.36297 122 83 55
0.16117 0.22348 0.36776 122 83 55
0.08323 0.26267 0.36181 122 83 55
-0.00025 0.27554 0.36419 122 83 55
-0.08297 0.26275 0.35232 122 83 55
-0.16073 0.22380 0.37206 122 83 55
-0.22476 0.15939 0.35702 122 83 55
-0.26194 0.08549 0.36247 122 83 55
-0.27553 -0.00253 0.35014 122 83 55
-0.26149 -0.08684 0.36278 122 83 55
-0.22396 -0.16051 0.35250 122 83 55
-0.16080 -0.22375 0.36394 122 83 55
-0.08875 -0.26085 0.34914 122 83 55
0.00215 -0.27553 0.36888 122 83 55
0.08584 -0.26183 0.36778 122 83 55
0.16384 -0.22153 0.36053 122 83 55
0.22595 -0.15770 0.36219 122 83 55
0.26369 -0.07993 0.34901 122 83 55
0.26602 0.00251 0.47079 122 83 55
0.25295 0.08241 0.48433 122 83 55
0.21733 0.15342 0.48729 122 83 55
0.15371 0.21713 0.48654 122 83 55
0.08557 0.25189 0.48109 122 83 55
0.00264 0.26602 0.47214 122 83 55
-0.08152 0.25323 0.48662 122 83 55
-0.15877 0.21346 0.48621 122 83 55
-0.21255 0.15999 0.48717 122 83 55
-0.25168 0.08620 0.48163 122 83 55
-0.26602 0.00256 0.47958 122 83 55
-0.25139 -0.08704 0.47227 122 83 55
-0.21692 -0.15401 0.47788 122 83 55
-0.15904 -0.21326 0.48404 122 83 55
-0.08060 -0.25353 0.47499 122 83 55
-0.00309 -0.26601 0.48823 122 83 55
0.08107 -0.25338 0.48781 122 83 55
0.15856 -0.21361 0.48345 122 83 55
0.21719 -0.15363 0.49233 122 83 55
0.25350 -0.08069 0.47317 122 83 55
0.25368 0.00116 0.60683 122 83 55
0.24051 0.08070 0.58762 122 83 55
0.20511 0.14928 0.59698 122 83 55
0.14666 0.20699 0.58958 122 83 55
0.08001 0.24074 0.60363 122 83 55
-0.00114 0.25368 0.60534 122 83 55
-0.07748 0.24157 0.59956 122 83 55
-0.15101 0.20385 0.60279 122 83 55
-0.20368 0.15123 0.58837 122 83 55
-0.24142 0.07794 0.59545 122 83 55
-0.25364 0.00502 0.59441 122 83 55
-0.24068 -0.08017 0.61197 122 83 55
-0.20803 -0.14519 0.58936 122 83 55
-0.14582 -0.20759 0.59230 122 83 55
-0.07715 -0.24167 0.61196 122 83 55
0.00431 -0.25365 0.60765 122 83 55
0.08203 -0.24006 0.59381 122 83 55
0.15314 -0.20225 0.60786 122 83 55
0.20243 -0.15290 0.61036 122 83 55
0.24266 -0.07397 0.60588 122 83 55
0.24429 0.00335 0.72763 122 83 55
0.23314 0.07302 0.71037 122 83 55
0.19514 0.14700 0.73100 122 83 55
0.14730 0.19491 0.70884 122 83 55
0.07120 0.23371 0.72433 122 83 55
-0.00014 0.24431 0.72952 122 83 55
-0.07345 0.23301 0.71821 122 83 55
-0.14717 0.19501 0.71713 122 83 55
-0.19613 0.14568 0.70797 122 83 55
-0.23367 0.07134 0.71322 122 83 55
-0.24431 0.00084 0.72797 122 83 55
-0.23309 -0.07318 0.71856 122 83 55
-0.19817 -0.14289 0.71511 122 83 55
-0.14037 -0.19996 0.71096 122 83 55
-0.07111 -0.23373 0.72569 122 83 55
0.00081 -0.24431 0.72846 122 83 55
0.07594 -0.23221 0.73094 122 83 55
0.14267 -0.19832 0.70867 122 83 55
0.19843 -0.14252 0.72306 122 83 55
0.23243 -0.07526 0.73169 122 83 55
0.24232 -0.00059 0.83935 122 83 55
0.23002 0.07622 0.84017 122 83 55
0.19486 0.14404 0.82895 122 83 55
0.14140 0.19678 0.85105 122 83 55
0.07197 0.23138 0.83716 122 83 55
0.00268 0.24230 0.85024 122 83 55
-0.07435 0.23063 0.83940 122 83 55
-0.14493 0.19419 0.84237 122 83 55
-0.19528 0.14346 0.83735 122 83 55
-0.22953 0.07768 0.83415 122 83 55
-0.24231 0.00221 0.84164 122 83 55
-0.23169 -0.07097 0.84111 122 83 55
-0.19551 -0.14315 0.83637 122 83 55
-0.14010 -0.19771 0.82879 122 83 55
-0.07243 -0.23124 0.83216 122 83 55
-0.00044 -0.24232 0.83553 122 83 55
0.07428 -0.23065 0.84555 122 83 55
0.14105 -0.19703 0.83045 122 83 55
0.19577 -0.14280 0.84893 122 83 55
0.23017 -0.07575 0.84143 122 83 55
0.24862 0.00255 0.96149 122 83 55
0.23683 0.07572 0.96400 122 83 55
0.20150 0.14567 0.96757 122 83 55
0.14689 0.20061 0.95347 122 83 55
0.07579 0.23680 0.95062 122 83 55
0.00089 0.24864 0.95379 122 83 55
-0.08005 0.23540 0.96165 122 83 55
-0.14948 0.19869 0.94797 122 83 55
-0.20012 0.14756 0.94771 122 83 55
-0.23659 0.07645 0.97098 122 83 55
-0.24859 0.00478 0.95202 122 83 55
-0.23607 -0.07805 0.96241 122 83 55
-0.20169 -0.14540 0.96853 122 83 55
-0.14403 -0.20267 0.95755 122 83 55
-0.07541 -0.23693 0.97025 122 83 55
-0.00453 -0.24860 0.95138 122 83 55
0.07456 -0.23719 0.96152 122 83 55
0.14538 -0.20170 0.95179 122 83 55
0.20164 -0.14547 0.96107 122 83 55
0.23603 -0.07816 0.96910 122 83 55
0.26029 0.00206 1.07357 122 83 55
0.24616 0.08464 1.09039 122 83 55
0.21040 0.15326 1.07394 122 83 55
0.15164 0.21157 1.07858 122 83 55
0.08249 0.24689 1.07979 122 83 55
0.00509 0.26025 1.08707 122 83 55
-0.08097 0.24739 1.06859 122 83 55
-0.15246 0.21098 1.08730 122 83 55
-0.21072 0.15283 1.07744 122 83 55
-0.24912 0.07548 1.08779 122 83 55
-0.26030 0.00128 1.08473 122 83 55
-0.24790 -0.07940 1.08437 122 83 55
-0.20919 -0.15490 1.06883 122 83 55
-0.15216 -0.21120 1.07753 122 83 55
-0.08041 -0.24757 1.07574 122 83 55
0.00111 -0.26030 1.07941 122 83 55
0.08436 -0.24625 1.08333 122 83 55
0.15673 -0.20783 1.08861 122 83 55
0.20840 -0.15597 1.08148 122 83 55
0.24895 -0.07603 1.06789 122 83 55
0.27181 -0.00269 1.18845 122 83 55
0.25703 0.08847 1.21057 122 83 55
0.21685 0.16391 1.19011 122 83 55
0.15674 0.22209 1.19802 122 83 55
0.08253 0.25900 1.18994 122 83 55
-0.00438 0.27179 1.20166 122 83 55
-0.08571 0.25796 1.18899 122 83 55
-0.15874 0.22066 1.18929 122 83 55
-0.22157 0.15746 1.19602 122 83 55
-0.25887 0.08291 1.20180 122 83 55
-0.27182 0.00237 1.20470 122 83 55
-0.25800 -0.08560 1.20245 122 83 55
-0.22196 -0.15692 1.19558 122 83 55
-0.15977 -0.21991 1.19724 122 83 55
-0.08454 -0.25834 1.20702 122 83 55
-0.00023 -0.27183 1.21121 122 83 55
0.08047 -0.25964 1.20054 122 83 55
0.15851 -0.22083 1.21163 122 83 55
0.21888 -0.16118 1.20207 122 83 55
0.25818 -0.08506 1.20033 122 83 55
0.27778 -0.00176 1.32720 122 83 55
0.26531 0.08233 1.32375 122 83 55
0.22472 0.16329 1.31441 122 83 55
0.16767 0.22147 1.31541 122 83 55
0.08928 0.26305 1.31669 122 83 55
0.00128 0.27778 1.31181 122 83 55
-0.08540 0.26433 1.30832 122 83 55
-0.16408 0.22415 1.31415 122 83 55
-0.22281 0.16590 1.31948 122 83 55
-0.26402 0.08635 1.32421 122 83 55
-0.27776 0.00392 1.32307 122 83 55
-0.26567 -0.08116 1.31926 122 83 55
-0.22685 -0.16033 1.31892 122 83 55
-0.16183 -0.22578 1.32701 122 83 55
-0.08936 -0.26302 1.32223 122 83 55
-0.00309 -0.27777 1.32284 122 83 55
0.08996 -0.26282 1.31889 122 83 55
0.16166 -0.22590 1.32784 122 83 55
0.22684 -0.16034 1.33212 122 83 55
0.26368 -0.08740 1.31739 122 83 55
0.27533 0.00523 1.44548 122 83 55
0.26280 0.08231 1.45140 122 83 55
0.22585 0.15756 1.44425 122 83 55
0.16565 0.21999 1.42833 122 83 55
0.08652 0.26144 1.43774 122 83 55
0.00015 0.27538 1.44160 122 83 55
-0.08939 0.26047 1.43189 122 83 55
-0.16233 0.22245 1.44815 122 83 55
-0.22381 0.16045 1.45250 122 83 55
-0.26209 0.08454 1.44015 122 83 55
-0.27538 0.00090 1.43062 122 83 55
-0.26350 -0.08003 1.44708 122 83 55
-0.22428 -0.15979 1.43323 122 83 55
-0.15997 -0.22415 1.44180 122 83 55
-0.08480 -0.26200 1.43303 122 83 55
0.00083 -0.27538 1.43528 122 83 55
0.08382 -0.26232 1.44303 122 83 55
0.16429 -0.22101 1.45107 122 83 55
0.22222 -0.16265 1.44740 122 83 55
0.26137 -0.08673 1.45169 122 83 55
0.26573 0.00239 1.56156 122 83 55
0.25395 0.07829 1.56561 122 83 55
0.21587 0.15498 1.57053 122 83 55
0.15268 0.21750 1.55438 122 83 55
0.08536 0.25166 1.57115 122 83 55
0.00457 0.26570 1.56110 122 83 55
-0.08229 0.25268 1.54954 122 83 55
-0.15243 0.21768 1.56244 122 83 55
-0.21279 0.15919 1.55693 122 83 55
-0.25281 0.08190 1.55267 122 83 55
-0.26574 0.00047 1.55782 122 83 55
-0.25135 -0.08628 1.54953 122 83 55
-0.21309 -0.15879 1.57099 122 83 55
-0.15228 -0.21779 1.55794 122 83 55
-0.08183 -0.25283 1.55995 122 83 55
-0.00292 -0.26573 1.56385 122 83 55
0.07775 -0.25411 1.56066 122 83 55
0.15794 -0.21372 1.56161 122 83 55
0.21221 -0.15996 1.56579 122 83 55
0.25156 -0.08565 1.54983 122 83 55
0.25340 0.00004 1.68581 122 83 55
0.24076 0.07904 1.68157 122 83 55
0.20599 0.14758 1.67355 122 83 55
0.15122 0.20333 1.67124 122 83 55
0.07422 0.24229 1.67522 122 83 55
-0.00263 0.25339 1.68664 122 83 55
-0.07740 0.24129 1.67692 122 83 55
-0.15042 0.20393 1.68597 122 83 55
-0.20717 0.14592 1.67204 122 83 55
-0.23956 0.08262 1.69081 122 83 55
-0.25339 -0.00224 1.68633 122 83 55
-0.24219 -0.07455 1.67230 122 83 55
-0.20270 -0.15207 1.66829 122 83 55
-0.14976 -0.20441 1.67409 122 83 55
-0.07791 -0.24113 1.68925 122 83 55
-0.00117 -0.25340 1.68178 122 83 55
0.07935 -0.24066 1.67840 122 83 55
0.15109 -0.20344 1.67990 122 83 55
0.20317 -0.15144 1.67446 122 83 55
0.24229 -0.07421 1.66865 122 83 55
0.24416 0.00165 1.80185 122 83 55
0.23293 0.07323 1.78900 122 83 55
0.19963 0.14059 1.79553 122 83 55
0.14531 0.19622 1.79582 122 83 55
0.07641 0.23190 1.79988 122 83 55
-0.00170 0.24416 1.79506 122 83 55
-0.07814 0.23133 1.79826 122 83 55
-0.14726 0.19476 1.79241 122 83 55
-0.19668 0.14468 1.81120 122 83 55
-0.23134 0.07808 1.80668 122 83 55
-0.24416 0.00215 1.81223 122 83 55
-0.23131 -0.07817 1.78790 122 83 55
-0.19659 -0.14481 1.80687 122 83 55
-0.14234 -0.19838 1.80106 122 83 55
-0.07192 -0.23333 1.80636 122 83 55
-0.00306 -0.24415 1.79775 122 83 55
0.07245 -0.23317 1.80908 122 83 55
0.14503 -0.19643 1.80423 122 83 55
0.19659 -0.14481 1.80862 122 83 55
0.23116 -0.07862 1.81069 122 83 55
0.24237 -0.00079 1.92419 122 83 55
0.22974 0.07725 1.92277 122 83 55
0.19325 0.14629 1.91471 122 83 55
0.14342 0.19539 1.92747 122 83 55
0.07611 0.23011 1.91467 122 83 55
-0.00464 0.24233 1.92716 122 83 55
-0.07682 0.22988 1.91084 122 83 55
-0.14354 0.19530 1.92625 122 83 55
-0.19350 0.14595 1.91018 122 83 55
-0.23076 0.07413 1.91170 122 83 55
-0.24237 -0.00115 1.91063 122 83 55
-0.23021 -0.07584 1.92953 122 83 55
-0.19354 -0.14591 1.90770 122 83 55
-0.14212 -0.19633 1.93092 122 83 55
-0.07326 -0.23104 1.93094 122 83 55
0.00376 -0.24235 1.92260 122 83 55
0.07177 -0.23150 1.91071 122 83 55
0.14291 -0.19576 1.91262 122 83 55
0.19340 -0.14609 1.93191 122 83 55
0.23034 -0.07541 1.92364 122 83 55
0.24887 0.00023 2.03248 122 83 55
0.23717 0.07542 2.04745 122 83 55
0.20302 0.14394 2.04595 122 83 55
0.14826 0.19989 2.03028 122 83 55
0.07829 0.23624 2.03831 122 83 55
0.00255 0.24886 2.03006 122 83 55
-0.07310 0.23790 2.04586 122 83 55
-0.14499 0.20228 2.04283 122 83 55
-0.19931 0.14905 2.05199 122 83 55
-0.23555 0.08033 2.05179 122 83 55
-0.24886 -0.00267 2.05197 122 83 55
-0.23793 -0.07300 2.03894 122 83 55
-0.20388 -0.14273 2.05118 122 83 55
-0.14491 -0.20234 2.04494 122 83 55
-0.08087 -0.23537 2.02837 122 83 55
0.00384 -0.24884 2.04997 122 83 55
0.07324 -0.23785 2.05193 122 83 55
0.14867 -0.19959 2.02861 122 83 55
0.19912 -0.14930 2.04319 122 83 55
0.23530 -0.08106 2.03884 122 83 55
0.26060 -0.00153 2.15726 122 83 55
0.24742 0.08186 2.15607 122 83 55
0.21109 0.15283 2.16796 122 83 55
0.15612 0.20867 2.15440 122 83 55
0.07838 0.24854 2.16977 122 83 55
-0.00128 0.26060 2.16375 122 83 55
-0.07726 0.24889 2.16599 122 83 55
-0.15290 0.21103 2.16249 122 83 55
-0.21236 0.15105 2.16833 122 83 55
-0.24624 0.08533 2.17173 122 83 55
-0.26059 -0.00254 2.16986 122 83 55
-0.24623 -0.08537 2.15342 122 83 55
-0.21302 -0.15013 2.14884 122 83 55
-0.15189 -0.21177 2.16083 122 83 55
-0.07817 -0.24861 2.14796 122 83 55
0.00053 -0.26060 2.15115 122 83 55
0.07595 -0.24929 2.15404 122 83 55
0.14967 -0.21334 2.15125 122 83 55
0.20952 -0.15497 2.16007 122 83 55
0.24739 -0.08194 2.14890 122 83 55
0.27204 -0.00296 2.29237 122 83 55
0.25708 0.08899 2.28279 122 83 55
0.22072 0.15905 2.27702 122 83 55
0.15719 0.22204 2.27142 122 83 55
0.08847 0.25726 2.27095 122 83 55
-0.00364 0.27203 2.27158 122 83 55
-0.07985 0.26007 2.28941 122 83 55
-0.16098 0.21931 2.28881 122 83 55
-0.21884 0.16162 2.26755 122 83 55
-0.25719 0.08870 2.26845 122 83 55
-0.27204 0.00219 2.28042 122 83 55
-0.25940 -0.08199 2.28183 122 83 55
-0.21945 -0.16080 2.29167 122 83 55
-0.16200 -0.21856 2.26881 122 83 55
-0.08271 -0.25917 2.28761 122 83 55
0.00402 -0.27202 2.28384 122 83 55
0.08914 -0.25703 2.28463 122 83 55
0.15552 -0.22322 2.27408 122 83 55
0.22284 -0.15606 2.27886 122 83 55
0.26027 -0.07919 2.27432 122 83 55
0.27779 -0.00479 2.40882 122 83 55
0.26352 0.08803 2.40476 122 83 55
0.22379 0.16465 2.39233 122 83 55
0.16575 0.22297 2.39889 122 83 55
0.09098 0.26251 2.40091 122 83 55
-0.00513 0.27778 2.38996 122 83 55
-0.08057 0.26589 2.39051 122 83 55
-0.16737 0.22176 2.39090 122 83 55
-0.22434 0.16389 2.38918 122 83 55
-0.26300 0.08956 2.40856 122 83 55
-0.27778 -0.00542 2.40327 122 83 55
-0.26535 -0.08233 2.39466 122 83 55
-0.22789 -0.15893 2.39990 122 83 55
-0.16473 -0.22373 2.40693 122 83 55
-0.08913 -0.26314 2.41008 122 83 55
0.00440 -0.27780 2.39014 122 83 55
0.09095 -0.26252 2.40273 122 83 55
0.16359 -0.22456 2.39317 122 83 55
0.22403 -0.16432 2.41119 122 83 55
0.26533 -0.08239 2.39425 122 83 55
0.27522 -0.00137 2.52028 122 83 55
0.26282 0.08170 2.50797 122 83 55
0.21941 0.16616 2.51291 122 83 55
0.16400 0.22103 2.51376 122 83 55
0.08884 0.26049 2.52665 122 83 55
0.00479 0.27518 2.52197 122 83 55
-0.08303 0.26240 2.52699 122 83 55
-0.16010 0.22386 2.52467 122 83 55
-0.21946 0.16608 2.51005 122 83 55
-0.26157 0.08562 2.50976 122 83 55
-0.27522 -0.00048 2.50900 122 83 55
-0.26140 -0.08613 2.52822 122 83 55
-0.22416 -0.15969 2.52449 122 83 55
-0.16139 -0.22294 2.52534 122 83 55
-0.08260 -0.26254 2.51080 122 83 55
-0.00527 -0.27517 2.50842 122 83 55
0.08194 -0.26274 2.53054 122 83 55
0.16031 -0.22372 2.52924 122 83 55
0.22193 -0.16278 2.52209 122 83 55
0.26336 -0.07993 2.51621 122 83 55
0.26546 0.00008 2.65014 122 83 55
0.25195 0.08360 2.64216 122 83 55
0.21163 0.16024 2.65100 122 83 55
0.15218 0.21750 2.63007 122 83 55
0.08310 0.25211 2.63549 122 83 55
-0.00115 0.26545 2.65017 122 83 55
-0.08030 0.25302 2.64372 122 83 55
-0.15334 0.21669 2.64330 122 83 55
-0.21519 0.15543 2.65195 122 83 55
-0.25180 0.08405 2.63645 122 83 55
-0.26546 -0.00073 2.64328 122 83 55
-0.25081 -0.08696 2.62780 122 83 55
-0.21777 -0.15180 2.65009 122 83 55
-0.15275 -0.21711 2.63968 122 83 55
-0.08475 -0.25156 2.63728 122 83 55
-0.00471 -0.26541 2.64943 122 83 55
0.08254 -0.25230 2.65174 122 83 55
0.15939 -0.21228 2.63887 122 83 55
0.21726 -0.15253 2.64476 122 83 55
0.25174 -0.08423 2.63496 122 83 55
0.25311 -0.00226 2.75010 122 83 55
0.23930 0.08251 2.76487 122 83 55
0.20283 0.15143 2.76709 122 83 55
0.14611 0.20670 2.76552 122 83 55
0.07582 0.24150 2.74894 122 83 55
-0.00191 0.25312 2.76333 122 83 55
-0.07559 0.24157 2.75298 122 83 55
-0.14868 0.20486 2.77166 122 83 55
-0.20188 0.15270 2.76585 122 83 55
-0.23943 0.08211 2.75933 122 83 55
-0.25312 -0.00034 2.75247 122 83 55
-0.24099 -0.07743 2.75499 122 83 55
-0.20494 -0.14856 2.74956 122 83 55
-0.15220 -0.20225 2.74850 122 83 55
-0.07966 -0.24026 2.76003 122 83 55
-0.00386 -0.25309 2.76132 122 83 55
0.07805 -0.24079 2.76132 122 83 55
0.14803 -0.20532 2.76473 122 83 55
0.20341 -0.15065 2.77175 122 83 55
0.24155 -0.07565 2.75539 122 83 55
0.24400 0.00352 2.87032 122 83 55
0.23077 0.07933 2.87442 122 83 55
0.19745 0.14339 2.88154 122 83 55
0.14066 0.19940 2.87220 122 83 55
0.07869 0.23099 2.88823 122 83 55
0.00400 0.24399 2.87236 122 83 55
-0.07319 0.23279 2.89141 122 83 55
-0.14038 0.19960 2.86987 122 83 55
-0.19847 0.14197 2.86770 122 83 55
-0.23310 0.07220 2.87906 122 83 55
-0.24399 0.00397 2.88582 122 83 55
-0.23107 -0.07845 2.88403 122 83 55
-0.19724 -0.14369 2.89007 122 83 55
-0.14132 -0.19894 2.88974 122 83 55
-0.07212 -0.23312 2.87008 122 83 55
-0.00153 -0.24402 2.88383 122 83 55
0.07232 -0.23306 2.89198 122 83 55
0.14384 -0.19713 2.87484 122 83 55
0.19806 -0.14255 2.87285 122 83 55
0.23351 -0.07086 2.87949 122 83 55
0.24239 -0.00467 3.00618 122 83 55
0.22964 0.07772 3.00712 122 83 55
0.19711 0.14115 2.98763 122 83 55
0.14432 0.19480 3.00641 122 83 55
0.07217 0.23145 2.99132 122 83 55
0.00343 0.24241 2.99024 122 83 55
-0.07354 0.23102 3.00340 122 83 55
-0.14143 0.19691 3.01085 122 83 55
-0.19701 0.14130 3.00081 122 83 55
-0.23094 0.07378 2.98906 122 83 55
-0.24243 -0.00209 2.99924 122 83 55
-0.22914 -0.07918 3.01213 122 83 55
-0.19820 -0.13962 2.99081 122 83 55
-0.14296 -0.19580 3.01133 122 83 55
-0.07703 -0.22987 3.00306 122 83 55
-0.00101 -0.24244 2.99148 122 83 55
0.07919 -0.22914 2.99217 122 83 55
0.13858 -0.19892 2.99104 122 83 55
0.19673 -0.14169 2.98942 122 83 55
0.22926 -0.07885 3.00737 122 83 55
0.24911 0.00128 3.12155 122 83 55
0.23762 0.07478 3.12335 122 83 55
0.19981 0.14877 3.11632 122 83 55
0.14841 0.20008 3.11245 122 83 55
0.07437 0.23775 3.13151 122 83 55
0.00092 0.24911 3.12597 122 83 55
-0.08126 0.23549 3.12615 122 83 55
-0.14331 0.20377 3.12200 122 83 55
-0.20111 0.14701 3.12471 122 83 55
-0.23781 0.07419 3.12726 122 83 55
-0.24911 -0.00117 3.11062 122 83 55
-0.23801 -0.07356 3.10904 122 83 55
-0.20435 -0.14248 3.13216 122 83 55
-0.14817 -0.20026 3.13075 122 83 55
-0.07309 -0.23815 3.11484 122 83 55
0.00305 -0.24909 3.12589 122 83 55
0.07409 -0.23784 3.13056 122 83 55
0.14905 -0.19961 3.13133 122 83 55
0.20177 -0.14611 3.13039 122 83 55
0.23725 -0.07597 3.12736 122 83 55
0.26091 0.00030 3.24864 122 83 55
0.24852 0.07944 3.23289 122 83 55
0.21038 0.15432 3.25249 122 83 55
0.15451 0.21024 3.24551 122 83 55
0.07645 0.24945 3.23760 122 83 55
0.00379 0.26088 3.24266 122 83 55
-0.07817 0.24892 3.25119 122 83 55
-0.15644 0.20880 3.24090 122 83 55
-0.21351 0.14996 3.23065 122 83 55
-0.24669 0.08494 3.24199 122 83 55
-0.26086 0.00501 3.23170 122 83 55
-0.24708 -0.08382 3.23048 122 83 55
-0.20970 -0.15523 3.24155 122 83 55
-0.15113 -0.21268 3.23378 122 83 55
-0.08390 -0.24705 3.23369 122 83 55
-0.00408 -0.26088 3.24204 122 83 55
0.07816 -0.24893 3.25221 122 83 55
0.15442 -0.21030 3.24139 122 83 55
0.21230 -0.15166 3.24473 122 83 55
0.24765 -0.08211 3.24514 122 83 55
0.27227 0.00198 3.36444 122 83 55
0.25953 0.08234 3.35919 122 83 55
0.22200 0.15763 3.35276 122 83 55
0.15735 0.22221 3.35869 122 83 55
0.08866 0.25744 3.36565 122 83 55
-0.00107 0.27227 3.35464 122 83 55
-0.08583 0.25839 3.36259 122 83 55
-0.16052 0.21992 3.36008 122 83 55
-0.22113 0.15885 3.35869 122 83 55
-0.25843 0.08573 3.37193 122 83 55
-0.27227 -0.00229 3.35154 122 83 55
-0.26050 -0.07920 3.37081 122 83 55
-0.21715 -0.16425 3.35573 122 83 55
-0.16388 -0.21743 3.36217 122 83 55
-0.08759 -0.25780 3.36408 122 83 55
0.00325 -0.27226 3.36875 122 83 55
0.08923 -0.25724 3.36116 122 83 55
0.16045 -0.21997 3.36515 122 83 55
0.21735 -0.16399 3.37052 122 83 55
0.25979 -0.08150 3.35195 122 83 55
0.27787 0.00155 3.46867 122 83 55
0.26264 0.09074 3.46774 122 83 55
0.22466 0.16353 3.48986 122 83 55
0.16322 0.22488 3.47899 122 83 55
0.08524 0.26447 3.47221 122 83 55
0.00361 0.27785 3.48867 122 83 55
-0.08739 0.26377 3.47657 122 83 55
-0.16059 0.22676 3.48588 122 83 55
-0.22455 0.16368 3.49122 122 83 55
-0.26402 0.08664 3.49008 122 83 55
-0.27783 -0.00466 3.47152 122 83 55
-0.26425 -0.08593 3.47959 122 83 55
-0.22588 -0.16183 3.48475 122 83 55
-0.16502 -0.22356 3.49050 122 83 55
-0.08403 -0.26486 3.49199 122 83 55
-0.00448 -0.27783 3.48309 122 83 55
0.08561 -0.26435 3.47975 122 83 55
0.15940 -0.22760 3.47943 122 83 55
0.22302 -0.16575 3.48563 122 83 55
0.26352 -0.08815 3.48190 122 83 55
0.27505 -0.00188 3.58834 122 83 55
0.26267 0.08162 3.60849 122 83 55
0.21987 0.16527 3.59863 122 83 55
0.16569 0.21955 3.59737 122 83 55
0.08882 0.26032 3.58924 122 83 55
0.00226 0.27505 3.60911 122 83 55
-0.08836 0.26048 3.60781 122 83 55
-0.16035 0.22348 3.61132 122 83 55
-0.22179 0.16269 3.59819 122 83 55
-0.26146 0.08543 3.61181 122 83 55
-0.27506 -0.00016 3.59190 122 83 55
-0.26058 -0.08807 3.59240 122 83 55
-0.22498 -0.15824 3.60244 122 83 55
-0.16041 -0.22344 3.59205 122 83 55
-0.08632 -0.26116 3.59179 122 83 55
0.00039 -0.27506 3.59892 122 83 55
0.08999 -0.25992 3.60931 122 83 55
0.16262 -0.22184 3.59256 122 83 55
0.22499 -0.15823 3.60986 122 83 55
0.26183 -0.08427 3.60828 122 83 55
0.26514 -0.00373 3.70885 122 83 55
0.25358 0.07753 3.72239 122 83 55
0.21336 0.15746 3.72346 122 83 55
0.15765 0.21321 3.72297 122 83 55
0.08661 0.25062 3.72549 122 83 55
0.00363 0.26514 3.73232 122 83 55
-0.08129 0.25240 3.71228 122 83 55
-0.15485 0.21525 3.72810 122 83 55
-0.21645 0.15317 3.70882 122 83 55
-0.25137 0.08441 3.71702 122 83 55
-0.26517 0.00005 3.72497 122 83 55
-0.25374 -0.07702 3.72552 122 83 55
-0.21298 -0.15796 3.71340 122 83 55
-0.15974 -0.21165 3.71868 122 83 55
-0.08272 -0.25193 3.70968 122 83 55
-0.00164 -0.26516 3.71951 122 83 55
0.08049 -0.25265 3.71761 122 83 55
0.15979 -0.21161 3.73218 122 83 55
0.21315 -0.15773 3.70875 122 83 55
0.25171 -0.08339 3.72896 122 83 55
0.25284 -0.00128 3.83165 122 83 55
0.23917 0.08203 3.83688 122 83 55
0.20302 0.15070 3.84242 122 83 55
0.14468 0.20736 3.85126 122 83 55
0.07799 0.24052 3.84446 122 83 55
0.00208 0.25284 3.82995 122 83 55
-0.07415 0.24173 3.83160 122 83 55
-0.14894 0.20432 3.82758 122 83 55
-0.20198 0.15210 3.83486 122 83 55
-0.24017 0.07906 3.83628 122 83 55
-0.25282 -0.00316 3.83474 122 83 55
-0.24038 -0.07840 3.83482 122 83 55
-0.20567 -0.14708 3.84663 122 83 55
-0.15234 -0.20180 3.84489 122 83 55
-0.07981 -0.23992 3.84873 122 83 55
0.00163 -0.25284 3.82912 122 83 55
0.07998 -0.23986 3.82772 122 83 55
0.14886 -0.20438 3.84700 122 83 55
0.20303 -0.15069 3.84886 122 83 55
0.23976 -0.08029 3.84087 122 83 55
0.24386 0.00372 3.95848 122 83 55
0.23046 0.07982 3.95056 122 83 55
0.19675 0.14411 3.96785 122 83 55
0.14716 0.19449 3.97136 122 83 55
0.07443 0.23225 3.96901 122 83 55
-0.00411 0.24385 3.97143 122 83 55
-0.07816 0.23102 3.96398 122 83 55
-0.14610 0.19528 3.96591 122 83 55
-0.19600 0.14514 3.97051 122 83 55
-0.23100 0.07823 3.95108 122 83 55
-0.24389 0.00005 3.95321 122 83 55
-0.23226 -0.07440 3.96365 122 83 55
-0.19739 -0.14325 3.95073 122 83 55
-0.14588 -0.19545 3.95084 122 83 55
-0.07879 -0.23081 3.95542 122 83 55
0.00044 -0.24389 3.94879 122 83 55
0.07323 -0.23263 3.95847 122 83 55
0.14227 -0.19809 3.94772 122 83 55
0.19687 -0.14395 3.95468 122 83 55
0.23170 -0.07612 3.95351 122 83 55
0.24249 -0.00311 4.07713 122 83 55
0.23162 0.07185 4.08187 122 83 55
0.19566 0.14328 4.07361 122 83 55
0.14157 0.19690 4.08732 122 83 55
0.07771 0.22972 4.08737 122 83 55
0.00371 0.24248 4.08044 122 83 55
-0.07414 0.23090 4.08678 122 83 55
-0.14510 0.19431 4.06815 122 83 55
-0.19594 0.14289 4.06877 122 83 55
-0.23014 0.07646 4.08317 122 83 55
-0.24247 0.00402 4.07318 122 83 55
-0.23022 -0.07621 4.07978 122 83 55
-0.19480 -0.14444 4.09058 122 83 55
-0.14400 -0.19513 4.06945 122 83 55
-0.07103 -0.23187 4.08278 122 83 55
0.00299 -0.24249 4.08107 122 83 55
0.07824 -0.22954 4.09157 122 83 55
0.13884 -0.19883 4.08693 122 83 55
0.19811 -0.13986 4.09207 122 83 55
0.23134 -0.07274 4.09152 122 83 55
0.24934 0.00254 4.19886 122 83 55
0.23757 0.07575 4.20679 122 83 55
0.20078 0.14787 4.19876 122 83 55
0.14816 0.20057 4.20360 122 83 55
0.07704 0.23716 4.21090 122 83 55
-0.00308 0.24934 4.20544 122 83 55
-0.07462 0.23793 4.20550 122 83 55
-0.15044 0.19886 4.19650 122 83 55
-0.19916 0.15005 4.19445 122 83 55
-0.23727 0.07669 4.19789 122 83 55
-0.24935 0.00101 4.19265 122 83 55
-0.23771 -0.07533 4.20148 122 83 55
-0.19941 -0.14971 4.19564 122 83 55
-0.14461 -0.20314 4.19763 122 83 55
-0.07565 -0.23760 4.20511 122 83 55
0.00159 -0.24935 4.19385 122 83 55
0.07521 -0.23774 4.19012 122 83 55
0.14490 -0.20293 4.20311 122 83 55
0.20332 -0.14435 4.20328 122 83 55
0.23635 -0.07947 4.21140 122 83 55
0.26120 0.00241 4.32222 122 83 55
0.24765 0.08307 4.31070 122 83 55
0.21323 0.15087 4.32798 122 83 55
0.15280 0.21185 4.32447 122 83 55
0.07866 0.24908 4.30824 122 83 55
-0.00073 0.26121 4.32933 122 83 55
-0.07685 0.24965 4.32951 122 83 55
-0.15067 0.21337 4.30757 122 83 55
-0.21276 0.15154 4.32871 122 83 55
-0.24953 0.07725 4.32160 122 83 55
-0.26121 -0.00083 4.31072 122 83 55
-0.24864 -0.08006 4.31255 122 83 55
-0.20870 -0.15709 4.30983 122 83 55
-0.15683 -0.20889 4.32151 122 83 55
-0.08336 -0.24755 4.30921 122 83 55
-0.00357 -0.26119 4.31831 122 83 55
0.08021 -0.24859 4.31885 122 83 55
0.15426 -0.21080 4.32867 122 83 55
0.21406 -0.14969 4.31851 122 83 55
0.24687 -0.08535 4.33214 122 83 55
0.27247 0.00368 4.44863 122 83 55
0.25825 0.08695 4.42922 122 83 55
0.22190 0.15816 4.44838 122 83 55
0.15898 0.22131 4.44255 122 83 55
0.08886 0.25760 4.44115 122 83 55
0.00294 0.27248 4.44313 122 83 55
-0.08571 0.25866 4.44917 122 83 55
-0.16180 0.21926 4.44873 122 83 55
-0.21968 0.16123 4.45017 122 83 55
-0.26024 0.08081 4.44824 122 83 55
-0.27249 0.00019 4.45019 122 83 55
-0.25874 -0.08549 4.44148 122 83 55
-0.22256 -0.15723 4.44291 122 83 55
-0.16327 -0.21817 4.43070 122 83 55
-0.08907 -0.25753 4.43722 122 83 55
-0.00017 -0.27249 4.43582 122 83 55
0.08247 -0.25972 4.44081 122 83 55
0.15853 -0.22163 4.43711 122 83 55
0.21753 -0.16411 4.44403 122 83 55
0.25778 -0.08832 4.43003 122 83 55
0.27789 0.00220 4.54934 122 83 55
0.26566 0.08159 4.55313 122 83 55
0.22604 0.16167 4.55797 122 83 55
0.16230 0.22559 4.56643 122 83 55
0.08956 0.26308 4.55184 122 83 55
0.00217 0.27790 4.55870 122 83 55
-0.09021 0.26286 4.56462 122 83 55
-0.16153 0.22614 4.56848 122 83 55
-0.22551 0.16241 4.56755 122 83 55
-0.26445 0.08542 4.55978 122 83 55
-0.27790 0.00153 4.55653 122 83 55
-0.26367 -0.08780 4.55472 122 83 55
-0.22305 -0.16576 4.54850 122 83 55
-0.16572 -0.22308 4.57174 122 83 55
-0.08524 -0.26451 4.55601 122 83 55
-0.00542 -0.27785 4.55401 122 83 55
0.08846 -0.26345 4.56567 122 83 55
0.16763 -0.22165 4.55417 122 83 55
0.22486 -0.16331 4.55193 122 83 55
0.26255 -0.09109 4.54753 122 83 55
0.27489 -0.00091 4.68407 122 83 55
0.26237 0.08202 4.67242 122 83 55
0.22001 0.16480 4.67568 122 83 55
0.15781 0.22508 4.68725 122 83 55
0.08312 0.26202 4.67691 122 83 55
0.00303 0.27488 4.68554 122 83 55
-0.08334 0.26195 4.69112 122 83 55
-0.16552 0.21948 4.69095 122 83 55
-0.22194 0.16220 4.67892 122 83 55
-0.26099 0.08632 4.68594 122 83 55
-0.27486 -0.00413 4.67361 122 83 55
-0.26007 -0.08905 4.68887 122 83 55
-0.22265 -0.16123 4.67858 122 83 55
-0.15938 -0.22397 4.69045 122 83 55
-0.08402 -0.26174 4.67810 122 83 55
-0.00317 -0.27487 4.67186 122 83 55
0.08034 -0.26289 4.67457 122 83 55
0.15786 -0.22505 4.68307 122 83 55
0.22331 -0.16031 4.67131 122 83 55
0.26077 -0.08698 4.69112 122 83 55
0.26488 -0.00002 4.79618 122 83 55
0.25033 0.08656 4.80926 122 83 55
0.21221 0.15852 4.80293 122 83 55
0.15849 0.21223 4.80950 122 83 55
0.08390 0.25124 4.78780 122 83 55
0.00117 0.26487 4.79672 122 83 55
-0.07702 0.25343 4.79091 122 83 55
-0.15439 0.21523 4.80439 122 83 55
-0.21315 0.15725 4.80748 122 83 55
-0.25220 0.08096 4.80280 122 83 55
-0.26487 0.00114 4.79581 122 83 55
-0.25297 -0.07852 4.79708 122 83 55
-0.21325 -0.15711 4.78961 122 83 55
-0.15799 -0.21260 4.78848 122 83 55
-0.08190 -0.25190 4.80920 122 83 55
-0.00165 -0.26487 4.80880 122 83 55
0.08085 -0.25224 4.79655 122 83 55
0.15895 -0.21188 4.79385 122 83 55
0.21189 -0.15894 4.80615 122 83 55
0.25299 -0.07846 4.79326 122 83 55
0.25253 -0.00447 4.90940 122 83 55
0.23926 0.08090 4.91521 122 83 55
0.20146 0.15232 4.91173 122 83 55
0.15204 0.20168 4.92074 122 83 55
0.07332 0.24169 4.90783 122 83 55
0.00480 0.25252 4.90873 122 83 55
-0.07512 0.24114 4.93164 122 83 55
-0.14760 0.20495 4.91378 122 83 55
-0.20447 0.14826 4.91395 122 83 55
-0.24120 0.07491 4.92060 122 83 55
-0.25256 -0.00130 4.92183 122 83 55
-0.24169 -0.07333 4.90943 122 83 55
-0.20188 -0.15177 4.92522 122 83 55
-0.14928 -0.20373 4.91886 122 83 55
-0.07357 -0.24162 4.92227 122 83 55
0.00495 -0.25252 4.92300 122 83 55
0.07422 -0.24142 4.91150 122 83 55
0.15188 -0.20180 4.92669 122 83 55
0.20535 -0.14705 4.92970 122 83 55
0.24108 -0.07529 4.91348 122 83 55
0.24375 -0.00138 5.05110 122 83 55
0.23057 0.07907 5.03234 122 83 55
0.19587 0.14509 5.03446 122 83 55
0.13945 0.19992 5.05044 122 83 55
0.07418 0.23219 5.03086 122 83 55
-0.00353 0.24373 5.05052 122 83 55
-0.07253 0.23271 5.04644 122 83 55
-0.14211 0.19804 5.03249 122 83 55
-0.19863 0.14129 5.03541 122 83 55
-0.23115 0.07736 5.03548 122 83 55
-0.24375 -0.00076 5.03503 122 83 55
-0.23252 -0.07316 5.03238 122 83 55
-0.19706 -0.14347 5.05039 122 83 55
-0.13996 -0.19957 5.04558 122 83 55
-0.07076 -0.23326 5.03316 122 83 55
-0.00127 -0.24375 5.04357 122 83 55
0.07535 -0.23181 5.02974 122 83 55
0.14253 -0.19774 5.03440 122 83 55
0.19536 -0.14577 5.03037 122 83 55
0.23211 -0.07443 5.02841 122 83 55
0.24258 0.00157 5.15214 122 83 55
0.23171 0.07182 5.16848 122 83 55
0.19727 0.14117 5.15501 122 83 55
0.14259 0.19625 5.16790 122 83 55
0.07161 0.23177 5.16636 122 83 55
-0.00115 0.24258 5.17156 122 83 55
-0.07607 0.23035 5.17043 122 83 55
-0.14553 0.19408 5.16296 122 83 55
-0.19408 0.14554 5.15086 122 83 55
-0.23151 0.07244 5.17043 122 83 55
-0.24257 -0.00264 5.16026 122 83 55
-0.23003 -0.07702 5.16233 122 83 55
-0.19505 -0.14422 5.16228 122 83 55
-0.14626 -0.19353 5.16733 122 83 55
-0.07784 -0.22975 5.15278 122 83 55
-0.00009 -0.24258 5.16694 122 83 55
0.07067 -0.23206 5.14809 122 83 55
0.14156 -0.19700 5.16386 122 83 55
0.19367 -0.14607 5.15933 122 83 55
0.23117 -0.07354 5.16092 122 83 55
0.24960 -0.00122 5.27332 122 83 55
0.23634 0.08026 5.28656 122 83 55
0.20365 0.14432 5.27673 122 83 55
0.14586 0.20255 5.26919 122 83 55
0.07815 0.23705 5.28623 122 83 55
0.00201 0.24959 5.28895 122 83 55
-0.08003 0.23642 5.27889 122 83 55
-0.14948 0.19989 5.29151 122 83 55
-0.20172 0.14700 5.27320 122 83 55
-0.23772 0.07609 5.28016 122 83 55
-0.24958 -0.00338 5.27233 122 83 55
-0.23742 -0.07703 5.28817 122 83 55
-0.19987 -0.14951 5.27756 122 83 55
-0.14292 -0.20463 5.28018 122 83 55
-0.07792 -0.23713 5.29091 122 83 55
-0.00397 -0.24957 5.29225 122 83 55
0.07845 -0.23695 5.28256 122 83 55
0.14803 -0.20097 5.27661 122 83 55
0.20427 -0.14344 5.27948 122 83 55
0.23835 -0.07408 5.27341 122 83 55
