ply
format ascii 1.0
comment SIMULATED DEMO - NOT FIELD EVIDENCE
element vertex 900
property float x
property float y
property float z
property uchar red
property uchar green
property uchar blue
end_header
0.26000 0.00047 0.00785 122 83 55
0.24614 0.08376 -0.00500 122 83 55
0.20862 0.15517 0.00380 122 83 55
0.15187 0.21104 -0.00702 122 83 55
0.08042 0.24725 -0.00824 122 83 55
-0.00088 0.26000 0.01183 122 83 55
-0.07807 0.24800 -0.01050 122 83 55
-0.15653 0.20760 -0.01168 122 83 55
-0.21195 0.15059 -0.01152 122 83 55
-0.24663 0.08230 0.00799 122 83 55
-0.25997 0.00375 -0.00101 122 83 55
-0.24843 -0.07670 0.01095 122 83 55
-0.20845 -0.15540 -0.00562 122 83 55
-0.15486 -0.20885 0.00321 122 83 55
-0.07977 -0.24746 0.00024 122 83 55
-0.00353 -0.25998 -0.00246 122 83 55
0.08019 -0.24732 0.00526 122 83 55
0.14973 -0.21255 -0.01129 122 83 55
0.20947 -0.15402 0.00220 122 83 55
0.24737 -0.08005 -0.00039 122 83 55
0.27159 -0.00195 0.11825 122 83 55
0.25789 0.08519 0.11077 122 83 55
0.22252 0.15573 0.11057 122 83 55
0.15639 0.22205 0.12712 122 83 55
0.08059 0.25936 0.12898 122 83 55
-0.00059 0.27160 0.11203 122 83 55
-0.08872 0.25669 0.12890 122 83 55
-0.15621 0.22217 0.12503 122 83 55
-0.22198 0.15649 0.12411 122 83 55
-0.25870 0.08270 0.13069 122 83 55
-0.27159 0.00181 0.13000 122 83 55
-0.25917 -0.08121 0.10760 122 83 55
-0.22236 -0.15595 0.11916 122 83 55
-0.15855 -0.22051 0.13243 122 83 55
-0.08314 -0.25856 0.12271 122 83 55
0.00063 -0.27160 0.12546 122 83 55
0.08354 -0.25843 0.11662 122 83 55
0.15809 -0.22084 0.12517 122 83 55
0.22010 -0.15912 0.11390 122 83 55
0.25860 -0.08300 0.11560 122 83 55
0.27772 0.00356 0.23442 122 83 55
0.26302 0.08920 0.23173 122 83 55
0.22178 0.16719 0.24082 122 83 55
0.16349 0.22452 0.23408 122 83 55
0.08615 0.26404 0.22966 122 83 55
-0.00009 0.27774 0.24517 122 83 55
-0.08670 0.26386 0.24880 122 83 55
-0.16735 0.22166 0.24660 122 83 55
-0.22731 0.15959 0.24273 122 83 55
-0.26449 0.08477 0.24200 122 83 55
-0.27769 0.00536 0.23921 122 83 55
-0.26252 -0.09066 0.25187 122 83 55
-0.22436 -0.16371 0.23664 122 83 55
-0.16591 -0.22273 0.22826 122 83 55
-0.08067 -0.26576 0.23775 122 83 55
0.00171 -0.27773 0.23778 122 83 55
0.08667 -0.26387 0.23176 122 83 55
0.16735 -0.22166 0.24329 122 83 55
0.22159 -0.16745 0.23304 122 83 55
0.26299 -0.08930 0.24540 122 83 55
0.27552 0.00317 0.36082 122 83 55
0.26287 0.08260 0.37144 122 83 55
0.22516 0.15883 0.36058 122 83 55
0.15912 0.22495 0.36579 122 83 55
0.08483 0.26216 0.36920 122 83 55
-0.00545 0.27548 0.36149 122 83 55
-0.08547 0.26195 0.35692 122 83 55
-0.16534 0.22042 0.36963 122 83 55
-0.22440 0.15989 0.36062 122 83 55
-0.26341 0.08086 0.35395 122 83 55
-0.27553 0.00203 0.35924 122 83 55
-0.26032 -0.09030 0.36962 122 83 55
-0.22003 -0.16585 0.36305 122 83 55
-0.16223 -0.22272 0.36613 122 83 55
-0.08553 -0.26193 0.35021 122 83 55
-0.00499 -0.27549 0.36575 122 83 55
0.08477 -0.26217 0.36495 122 83 55
0.16050 -0.22397 0.36005 122 83 55
0.22386 -0.16065 0.34811 122 83 55
0.26269 -0.08316 0.34835 122 83 55
0.26603 0.00060 0.47192 122 83 55
0.25342 0.08094 0.46817 122 83 55
0.21691 0.15401 0.49237 122 83 55
0.15752 0.21438 0.48397 122 83 55
0.08054 0.25355 0.48349 122 83 55
0.00284 0.26601 0.47687 122 83 55
-0.08009 0.25369 0.47431 122 83 55
-0.16009 0.21247 0.48403 122 83 55
-0.21679 0.15418 0.49040 122 83 55
-0.25298 0.08230 0.46785 122 83 55
-0.26602 -0.00253 0.48827 122 83 55
-0.25187 -0.08564 0.48134 122 83 55
-0.21416 -0.15782 0.49203 122 83 55
-0.15757 -0.21434 0.49221 122 83 55
-0.08276 -0.25283 0.47800 122 83 55
0.00370 -0.26600 0.48942 122 83 55
0.08315 -0.25270 0.48429 122 83 55
0.16023 -0.21236 0.47748 122 83 55
0.21515 -0.15647 0.47845 122 83 55
0.25249 -0.08380 0.46958 122 83 55
0.25369 0.00032 0.59274 122 83 55
0.24246 0.07463 0.59235 122 83 55
0.20572 0.14844 0.60273 122 83 55
0.15162 0.20339 0.60588 122 83 55
0.07463 0.24246 0.60101 122 83 55
-0.00310 0.25367 0.59427 122 83 55
-0.07949 0.24091 0.59951 122 83 55
-0.14643 0.20716 0.58786 122 83 55
-0.20276 0.15247 0.59956 122 83 55
-0.23992 0.08244 0.60986 122 83 55
-0.25368 -0.00191 0.60568 122 83 55
-0.23981 -0.08275 0.60111 122 83 55
-0.20661 -0.14720 0.60481 122 83 55
-0.14848 -0.20569 0.59811 122 83 55
-0.07398 -0.24266 0.59435 122 83 55
0.00135 -0.25368 0.60062 122 83 55
0.07378 -0.24272 0.59844 122 83 55
0.15006 -0.20455 0.59642 122 83 55
0.20801 -0.14522 0.59308 122 83 55
0.24242 -0.07475 0.59200 122 83 55
0.24430 -0.00262 0.71216 122 83 55
0.23133 0.07858 0.72441 122 83 55
0.19981 0.14059 0.72254 122 83 55
0.14306 0.19804 0.72042 122 83 55
0.07154 0.23360 0.70767 122 83 55
0.00108 0.24431 0.72062 122 83 55
-0.07346 0.23301 0.73041 122 83 55
-0.14007 0.20017 0.71745 122 83 55
-0.19605 0.14578 0.72703 122 83 55
-0.23307 0.07326 0.71192 122 83 55
-0.24431 -0.00042 0.72060 122 83 55
-0.23096 -0.07967 0.73068 122 83 55
-0.19851 -0.14242 0.71323 122 83 55
-0.13995 -0.20025 0.71581 122 83 55
-0.07092 -0.23379 0.72780 122 83 55
-0.00018 -0.24431 0.71116 122 83 55
0.07721 -0.23179 0.72620 122 83 55
0.14466 -0.19688 0.72550 122 83 55
0.19794 -0.14321 0.71231 122 83 55
0.23214 -0.07617 0.70859 122 83 55
0.24229 0.00380 0.82904 122 83 55
0.23098 0.07325 0.82784 122 83 55
0.19376 0.14552 0.85027 122 83 55
0.14163 0.19662 0.84945 122 83 55
0.07838 0.22929 0.84460 122 83 55
-0.00072 0.24231 0.82898 122 83 55
-0.07417 0.23068 0.84406 122 83 55
-0.14551 0.19376 0.84782 122 83 55
-0.19453 0.14449 0.83234 122 83 55
-0.23044 0.07491 0.83795 122 83 55
-0.24231 0.00213 0.82812 122 83 55
-0.22925 -0.07851 0.84908 122 83 55
-0.19795 -0.13975 0.83557 122 83 55
-0.13918 -0.19836 0.83296 122 83 55
-0.07524 -0.23034 0.84509 122 83 55
-0.00435 -0.24228 0.83141 122 83 55
0.07235 -0.23126 0.84893 122 83 55
0.13894 -0.19853 0.83555 122 83 55
0.19869 -0.13871 0.84218 122 83 55
0.23022 -0.07560 0.84006 122 83 55
0.24863 0.00127 0.95623 122 83 55
0.23537 0.08015 0.96758 122 83 55
0.20381 0.14242 0.96290 122 83 55
0.14239 0.20382 0.95453 122 83 55
0.07283 0.23773 0.96357 122 83 55
-0.00222 0.24863 0.96600 122 83 55
-0.07598 0.23674 0.95914 122 83 55
-0.14531 0.20176 0.96346 122 83 55
-0.20169 0.14540 0.95277 122 83 55
-0.23492 0.08145 0.95541 122 83 55
-0.24863 -0.00178 0.94848 122 83 55
-0.23607 -0.07804 0.97235 122 83 55
-0.20014 -0.14753 0.95519 122 83 55
-0.14286 -0.20350 0.95349 122 83 55
-0.07485 -0.23710 0.96688 122 83 55
0.00239 -0.24863 0.96920 122 83 55
0.07626 -0.23665 0.97074 122 83 55
0.15002 -0.19828 0.95919 122 83 55
0.19878 -0.14935 0.96665 122 83 55
0.23658 -0.07649 0.94779 122 83 55
0.26028 -0.00349 1.08230 122 83 55
0.24827 0.07822 1.07379 122 83 55
0.20926 0.15482 1.08476 122 83 55
0.15171 0.21152 1.08891 122 83 55
0.07619 0.24890 1.09040 122 83 55
-0.00429 0.26027 1.07969 122 83 55
-0.07837 0.24822 1.08140 122 83 55
-0.15077 0.21220 1.07436 122 83 55
-0.21056 0.15304 1.06823 122 83 55
-0.24700 0.08216 1.07711 122 83 55
-0.26027 0.00438 1.07394 122 83 55
-0.24860 -0.07717 1.08372 122 83 55
-0.21206 -0.15096 1.08700 122 83 55
-0.15694 -0.20767 1.07850 122 83 55
-0.07970 -0.24780 1.09114 122 83 55
0.00406 -0.26027 1.07399 122 83 55
0.07780 -0.24841 1.08650 122 83 55
0.15661 -0.20792 1.08587 122 83 55
0.20937 -0.15467 1.07270 122 83 55
0.24828 -0.07818 1.09204 122 83 55
0.27180 -0.00402 1.19111 122 83 55
0.25938 0.08131 1.20084 122 83 55
0.21890 0.16115 1.18910 122 83 55
0.15672 0.22210 1.19482 122 83 55
0.08424 0.25844 1.19606 122 83 55
-0.00450 0.27179 1.19256 122 83 55
-0.08725 0.25744 1.20676 122 83 55
-0.16170 0.21850 1.20243 122 83 55
-0.22186 0.15706 1.19895 122 83 55
-0.25911 0.08216 1.19839 122 83 55
-0.27182 -0.00221 1.19855 122 83 55
-0.25954 -0.08078 1.20901 122 83 55
-0.21721 -0.16342 1.20169 122 83 55
-0.15885 -0.22058 1.20749 122 83 55
-0.08881 -0.25691 1.19955 122 83 55
-0.00469 -0.27179 1.20138 122 83 55
0.08066 -0.25958 1.20766 122 83 55
0.15767 -0.22143 1.20209 122 83 55
0.21924 -0.16070 1.20817 122 83 55
0.25790 -0.08589 1.21057 122 83 55
0.27775 0.00453 1.31425 122 83 55
0.26451 0.08486 1.33168 122 83 55
0.22527 0.16254 1.30757 122 83 55
0.16074 0.22656 1.32111 122 83 55
0.08245 0.26527 1.32565 122 83 55
0.00260 0.27777 1.31995 122 83 55
-0.09101 0.26246 1.33236 122 83 55
-0.16319 0.22480 1.31316 122 83 55
-0.22486 0.16311 1.31101 122 83 55
-0.26369 0.08736 1.32960 122 83 55
-0.27779 -0.00047 1.33068 122 83 55
-0.26413 -0.08602 1.31243 122 83 55
-0.22755 -0.15934 1.30787 122 83 55
-0.15984 -0.22719 1.30988 122 83 55
-0.08698 -0.26382 1.32152 122 83 55
-0.00109 -0.27778 1.32291 122 83 55
0.08692 -0.26384 1.32096 122 83 55
0.16493 -0.22353 1.32704 122 83 55
0.22245 -0.16638 1.32242 122 83 55
0.26294 -0.08960 1.31748 122 83 55
0.27534 -0.00494 1.44119 122 83 55
0.26097 0.08792 1.45248 122 83 55
0.22468 0.15923 1.44741 122 83 55
0.15973 0.22433 1.43622 122 83 55
0.08136 0.26309 1.43513 122 83 55
0.00130 0.27538 1.43386 122 83 55
-0.08226 0.26281 1.45032 122 83 55
-0.16012 0.22405 1.44262 122 83 55
-0.22472 0.15918 1.42964 122 83 55
-0.26239 0.08360 1.44886 122 83 55
-0.27536 -0.00333 1.43839 122 83 55
-0.26107 -0.08763 1.43758 122 83 55
-0.22027 -0.16528 1.44191 122 83 55
-0.15952 -0.22448 1.44188 122 83 55
-0.08978 -0.26034 1.43120 122 83 55
0.00530 -0.27533 1.43120 122 83 55
0.08266 -0.26268 1.42977 122 83 55
0.16458 -0.22079 1.44347 122 83 55
0.22203 -0.16291 1.43984 122 83 55
0.26282 -0.08224 1.44740 122 83 55
0.26573 -0.00252 1.56234 122 83 55
0.25426 0.07727 1.54763 122 83 55
0.21649 0.15411 1.56651 122 83 55
0.16002 0.21216 1.56137 122 83 55
0.08302 0.25244 1.56095 122 83 55
-0.00250 0.26573 1.57188 122 83 55
-0.07747 0.25420 1.54935 122 83 55
-0.15936 0.21266 1.56979 122 83 55
-0.21560 0.15536 1.56042 122 83 55
-0.25371 0.07905 1.55018 122 83 55
-0.26571 -0.00437 1.55261 122 83 55
-0.25152 -0.08578 1.56891 122 83 55
-0.21653 -0.15406 1.56566 122 83 55
-0.15507 -0.21581 1.55862 122 83 55
-0.07883 -0.25378 1.55213 122 83 55
-0.00193 -0.26574 1.56539 122 83 55
0.08303 -0.25244 1.55347 122 83 55
0.15839 -0.21338 1.54896 122 83 55
0.21535 -0.15570 1.56613 122 83 55
0.25363 -0.07932 1.57003 122 83 55
0.25336 0.00444 1.66985 122 83 55
0.23944 0.08297 1.68998 122 83 55
0.20323 0.15136 1.68129 122 83 55
0.15134 0.20325 1.67419 122 83 55
0.08216 0.23971 1.67239 122 83 55
0.00401 0.25337 1.69158 122 83 55
-0.07631 0.24164 1.67421 122 83 55
-0.15096 0.20353 1.68418 122 83 55
-0.20680 0.14645 1.66820 122 83 55
-0.23986 0.08175 1.68682 122 83 55
-0.25337 0.00408 1.67811 122 83 55
-0.23940 -0.08306 1.68832 122 83 55
-0.20676 -0.14650 1.67198 122 83 55
-0.15136 -0.20323 1.67163 122 83 55
-0.07517 -0.24200 1.66988 122 83 55
0.00382 -0.25337 1.68189 122 83 55
0.07770 -0.24120 1.68448 122 83 55
0.15189 -0.20284 1.67741 122 83 55
0.20207 -0.15291 1.67743 122 83 55
0.23961 -0.08245 1.67489 122 83 55
0.24415 -0.00233 1.79127 122 83 55
0.23337 0.07180 1.80147 122 83 55
0.19737 0.14374 1.80735 122 83 55
0.13969 0.20026 1.80755 122 83 55
0.07324 0.23292 1.80682 122 83 55
-0.00369 0.24414 1.79520 122 83 55
-0.07109 0.23359 1.79290 122 83 55
-0.14202 0.19861 1.79877 122 83 55
-0.20026 0.13969 1.78884 122 83 55
-0.23106 0.07891 1.81010 122 83 55
-0.24417 -0.00018 1.81230 122 83 55
-0.23325 -0.07218 1.80223 122 83 55
-0.19473 -0.14729 1.79805 122 83 55
-0.14375 -0.19736 1.80165 122 83 55
-0.07165 -0.23342 1.80232 122 83 55
0.00155 -0.24416 1.79544 122 83 55
0.07521 -0.23229 1.80311 122 83 55
0.14268 -0.19814 1.79091 122 83 55
0.19872 -0.14187 1.79223 122 83 55
0.23162 -0.07725 1.80150 122 83 55
0.24235 0.00372 1.93101 122 83 55
0.23192 0.07043 1.90905 122 83 55
0.19478 0.14424 1.90797 122 83 55
0.14116 0.19703 1.91877 122 83 55
0.07653 0.22997 1.91266 122 83 55
0.00072 0.24237 1.92455 122 83 55
-0.07827 0.22939 1.92174 122 83 55
-0.14463 0.19449 1.90825 122 83 55
-0.19699 0.14122 1.92386 122 83 55
-0.23070 0.07432 1.92833 122 83 55
-0.24233 -0.00449 1.92186 122 83 55
-0.23176 -0.07093 1.91386 122 83 55
-0.19528 -0.14357 1.92154 122 83 55
-0.14101 -0.19714 1.92668 122 83 55
-0.07313 -0.23108 1.92787 122 83 55
0.00341 -0.24235 1.91548 122 83 55
0.07108 -0.23172 1.92537 122 83 55
0.14152 -0.19677 1.91688 122 83 55
0.19635 -0.14211 1.92611 122 83 55
0.23006 -0.07627 1.91482 122 83 55
0.24885 -0.00360 2.04460 122 83 55
0.23777 0.07352 2.04584 122 83 55
0.19920 0.14919 2.05040 122 83 55
0.14758 0.20039 2.02912 122 83 55
0.07621 0.23692 2.05028 122 83 55
-0.00028 0.24887 2.05134 122 83 55
-0.08089 0.23536 2.03323 122 83 55
-0.14460 0.20255 2.04262 122 83 55
-0.19947 0.14883 2.04276 122 83 55
-0.23773 0.07364 2.03624 122 83 55
-0.24884 0.00392 2.05214 122 83 55
-0.23778 -0.07346 2.04087 122 83 55
-0.20302 -0.14394 2.03955 122 83 55
-0.14689 -0.20090 2.05042 122 83 55
-0.08052 -0.23549 2.04644 122 83 55
0.00046 -0.24887 2.02786 122 83 55
0.08028 -0.23557 2.03339 122 83 55
0.14598 -0.20156 2.03056 122 83 55
0.19994 -0.14819 2.02928 122 83 55
0.23759 -0.07410 2.05096 122 83 55
0.26058 0.00358 2.17074 122 83 55
0.24818 0.07951 2.14773 122 83 55
0.20899 0.15569 2.16998 122 83 55
0.15572 0.20896 2.15863 122 83 55
0.08514 0.24630 2.15055 122 83 55
-0.00388 0.26058 2.16278 122 83 55
-0.07896 0.24836 2.17170 122 83 55
-0.14958 0.21341 2.16602 122 83 55
-0.20854 0.15628 2.16828 122 83 55
-0.24704 0.08297 2.16457 122 83 55
-0.26060 0.00171 2.16942 122 83 55
-0.24842 -0.07877 2.15329 122 83 55
-0.21131 -0.15253 2.15535 122 83 55
-0.15144 -0.21209 2.16599 122 83 55
-0.07963 -0.24814 2.14824 122 83 55
0.00009 -0.26061 2.17184 122 83 55
0.08157 -0.24751 2.16379 122 83 55
0.15604 -0.20873 2.15777 122 83 55
0.21307 -0.15005 2.15698 122 83 55
0.24802 -0.07999 2.15828 122 83 55
0.27205 0.00159 2.27126 122 83 55
0.25730 0.08836 2.27018 122 83 55
0.21975 0.16038 2.29207 122 83 55
0.15577 0.22305 2.28122 122 83 55
0.08159 0.25953 2.28139 122 83 55
-0.00117 0.27205 2.29246 122 83 55
-0.08265 0.25919 2.27682 122 83 55
-0.16116 0.21918 2.27095 122 83 55
-0.21877 0.16172 2.26939 122 83 55
-0.25819 0.08574 2.27511 122 83 55
-0.27202 0.00396 2.28595 122 83 55
-0.25966 -0.08119 2.28178 122 83 55
-0.22321 -0.15554 2.27302 122 83 55
-0.16281 -0.21796 2.28994 122 83 55
-0.08223 -0.25933 2.29040 122 83 55
-0.00523 -0.27200 2.28737 122 83 55
0.08910 -0.25705 2.27884 122 83 55
0.15776 -0.22164 2.27303 122 83 55
0.22115 -0.15845 2.27258 122 83 55
0.25876 -0.08401 2.28374 122 83 55
0.27779 0.00495 2.40376 122 83 55
0.26294 0.08974 2.40042 122 83 55
0.22396 0.16442 2.41175 122 83 55
0.16457 0.22385 2.40015 122 83 55
0.08644 0.26404 2.39698 122 83 55
-0.00515 0.27778 2.39660 122 83 55
-0.09064 0.26263 2.38990 122 83 55
-0.15946 0.22751 2.39277 122 83 55
-0.22291 0.16584 2.41212 122 83 55
-0.26367 0.08758 2.40091 122 83 55
-0.27778 0.00520 2.39279 122 83 55
-0.26544 -0.08206 2.39620 122 83 55
-0.22451 -0.16366 2.39979 122 83 55
-0.16491 -0.22360 2.39162 122 83 55
-0.08730 -0.26376 2.40640 122 83 55
0.00304 -0.27781 2.40777 122 83 55
0.08768 -0.26363 2.39537 122 83 55
0.15931 -0.22762 2.39296 122 83 55
0.22677 -0.16051 2.40864 122 83 55
0.26324 -0.08886 2.40464 122 83 55
0.27522 -0.00148 2.52716 122 83 55
0.26233 0.08324 2.51487 122 83 55
0.22028 0.16500 2.53143 122 83 55
0.16092 0.22328 2.51873 122 83 55
0.08593 0.26147 2.51984 122 83 55
-0.00479 0.27518 2.52555 122 83 55
-0.07987 0.26338 2.51797 122 83 55
-0.16051 0.22357 2.51950 122 83 55
-0.22136 0.16355 2.51821 122 83 55
-0.26234 0.08322 2.53193 122 83 55
-0.27519 0.00439 2.52552 122 83 55
-0.26261 -0.08238 2.52948 122 83 55
-0.22029 -0.16498 2.53126 122 83 55
-0.15871 -0.22485 2.51783 122 83 55
-0.08109 -0.26301 2.52326 122 83 55
0.00379 -0.27520 2.52263 122 83 55
0.08047 -0.26320 2.52158 122 83 55
0.16012 -0.22385 2.51500 122 83 55
0.22236 -0.16218 2.51069 122 83 55
0.26243 -0.08292 2.53055 122 83 55
0.26544 0.00321 2.64003 122 83 55
0.25344 0.07897 2.63196 122 83 55
0.21197 0.15980 2.63114 122 83 55
0.16029 0.21160 2.63145 122 83 55
0.07915 0.25338 2.63077 122 83 55
0.00507 0.26541 2.64067 122 83 55
-0.07797 0.25375 2.63076 122 83 55
-0.15847 0.21297 2.64696 122 83 55
-0.21455 0.15631 2.63156 122 83 55
-0.25254 0.08181 2.64594 122 83 55
-0.26541 0.00478 2.63769 122 83 55
-0.25156 -0.08477 2.64678 122 83 55
-0.21747 -0.15223 2.64444 122 83 55
-0.15210 -0.21756 2.63778 122 83 55
-0.08632 -0.25103 2.63666 122 83 55
0.00219 -0.26545 2.63606 122 83 55
0.08292 -0.25217 2.65160 122 83 55
0.16029 -0.21160 2.65141 122 83 55
0.21440 -0.15652 2.63879 122 83 55
0.25175 -0.08419 2.65068 122 83 55
0.25308 -0.00486 2.75171 122 83 55
0.24162 0.07545 2.76022 122 83 55
0.20573 0.14746 2.77177 122 83 55
0.14758 0.20565 2.76030 122 83 55
0.07861 0.24061 2.76649 122 83 55
0.00463 0.25308 2.75145 122 83 55
-0.08126 0.23972 2.76536 122 83 55
-0.14806 0.20530 2.75422 122 83 55
-0.20413 0.14967 2.76752 122 83 55
-0.24045 0.07908 2.75973 122 83 55
-0.25310 -0.00345 2.75717 122 83 55
-0.24133 -0.07636 2.76006 122 83 55
-0.20770 -0.14467 2.74854 122 83 55
-0.14586 -0.20687 2.75840 122 83 55
-0.07935 -0.24036 2.76875 122 83 55
-0.00176 -0.25312 2.77030 122 83 55
0.07874 -0.24057 2.76788 122 83 55
0.14658 -0.20636 2.75870 122 83 55
0.20521 -0.14818 2.75202 122 83 55
0.24066 -0.07844 2.75150 122 83 55
0.24400 0.00317 2.88631 122 83 55
0.23056 0.07994 2.89169 122 83 55
0.19492 0.14681 2.88101 122 83 55
0.14679 0.19494 2.88649 122 83 55
0.07438 0.23241 2.87521 122 83 55
-0.00481 0.24398 2.87303 122 83 55
-0.07670 0.23166 2.88885 122 83 55
-0.14418 0.19687 2.87430 122 83 55
-0.19620 0.14510 2.86993 122 83 55
-0.23331 0.07151 2.87561 122 83 55
-0.24399 -0.00386 2.87519 122 83 55
-0.23319 -0.07190 2.88784 122 83 55
-0.19773 -0.14300 2.86866 122 83 55
-0.14573 -0.19573 2.88490 122 83 55
-0.07711 -0.23152 2.88384 122 83 55
-0.00184 -0.24402 2.88953 122 83 55
0.07602 -0.23188 2.87640 122 83 55
0.14413 -0.19691 2.88719 122 83 55
0.19691 -0.14413 2.87571 122 83 55
0.23339 -0.07125 2.87964 122 83 55
0.24242 0.00278 2.99443 122 83 55
0.23160 0.07168 2.99060 122 83 55
0.19830 0.13948 2.99717 122 83 55
0.14599 0.19355 3.00246 122 83 55
0.07300 0.23119 3.00493 122 83 55
-0.00473 0.24239 3.00394 122 83 55
-0.07385 0.23092 2.99360 122 83 55
-0.14303 0.19576 3.01030 122 83 55
-0.19482 0.14429 3.00104 122 83 55
-0.23030 0.07574 2.99834 122 83 55
-0.24241 -0.00339 2.99333 122 83 55
-0.23034 -0.07564 3.01033 122 83 55
-0.19499 -0.14407 3.01220 122 83 55
-0.14088 -0.19730 3.00172 122 83 55
-0.07450 -0.23071 3.01187 122 83 55
-0.00364 -0.24241 2.99413 122 83 55
0.07495 -0.23056 2.99971 122 83 55
0.14226 -0.19631 3.00105 122 83 55
0.19720 -0.14103 3.00143 122 83 55
0.23073 -0.07445 3.00020 122 83 55
0.24911 0.00034 3.12275 122 83 55
0.23693 0.07697 3.12749 122 83 55
0.20143 0.14658 3.12079 122 83 55
0.14690 0.20119 3.10914 122 83 55
0.08055 0.23573 3.12459 122 83 55
0.00251 0.24910 3.12422 122 83 55
-0.07433 0.23776 3.12548 122 83 55
-0.14313 0.20389 3.12175 122 83 55
-0.20013 0.14834 3.11422 122 83 55
-0.23797 0.07367 3.12221 122 83 55
-0.24908 -0.00381 3.12822 122 83 55
-0.23667 -0.07775 3.11988 122 83 55
-0.19940 -0.14932 3.11815 122 83 55
-0.14496 -0.20259 3.12369 122 83 55
-0.07669 -0.23702 3.12975 122 83 55
-0.00145 -0.24911 3.11011 122 83 55
0.07281 -0.23824 3.12770 122 83 55
0.14665 -0.20137 3.11856 122 83 55
0.19995 -0.14858 3.11991 122 83 55
0.23666 -0.07776 3.12525 122 83 55
0.26091 0.00113 3.24145 122 83 55
0.24887 0.07835 3.23346 122 83 55
0.21264 0.15118 3.24906 122 83 55
0.15699 0.20839 3.23365 122 83 55
0.08262 0.24748 3.22805 122 83 55
0.00351 0.26088 3.23881 122 83 55
-0.07803 0.24896 3.24482 122 83 55
-0.15070 0.21298 3.23129 122 83 55
-0.21092 0.15357 3.23444 122 83 55
-0.24864 0.07907 3.23853 122 83 55
-0.26091 -0.00098 3.24909 122 83 55
-0.24935 -0.07679 3.24177 122 83 55
-0.21051 -0.15414 3.23918 122 83 55
-0.15086 -0.21287 3.24264 122 83 55
-0.07842 -0.24884 3.25043 122 83 55
-0.00459 -0.26087 3.24900 122 83 55
0.08410 -0.24698 3.25132 122 83 55
0.15056 -0.21309 3.24768 122 83 55
0.21104 -0.15342 3.23670 122 83 55
0.24680 -0.08463 3.23779 122 83 55
0.27224 0.00409 3.35438 122 83 55
0.25915 0.08351 3.34989 122 83 55
0.21900 0.16178 3.36805 122 83 55
0.15827 0.22155 3.36718 122 83 55
0.08440 0.25886 3.37082 122 83 55
0.00104 0.27227 3.36629 122 83 55
-0.08503 0.25866 3.37023 122 83 55
-0.16335 0.21783 3.35167 122 83 55
-0.21998 0.16045 3.37165 122 83 55
-0.25947 0.08252 3.36345 122 83 55
-0.27227 0.00049 3.34815 122 83 55
-0.25784 -0.08749 3.35020 122 83 55
-0.22035 -0.15994 3.35651 122 83 55
-0.15761 -0.22202 3.36918 122 83 55
-0.08605 -0.25832 3.36984 122 83 55
-0.00361 -0.27225 3.36291 122 83 55
0.07970 -0.26035 3.35396 122 83 55
0.15654 -0.22278 3.36700 122 83 55
0.22096 -0.15909 3.37064 122 83 55
0.25984 -0.08134 3.36084 122 83 55
0.27787 0.00009 3.49213 122 83 55
0.26568 0.08140 3.47339 122 83 55
0.22159 0.16765 3.47778 122 83 55
0.16711 0.22200 3.47328 122 83 55
0.08078 0.26587 3.48964 122 83 55
0.00431 0.27784 3.47290 122 83 55
-0.08228 0.26541 3.48020 122 83 55
-0.15929 0.22768 3.48310 122 83 55
-0.22595 0.16173 3.49189 122 83 55
-0.26271 0.09051 3.48601 122 83 55
-0.27785 -0.00355 3.46875 122 83 55
-0.26369 -0.08764 3.47971 122 83 55
-0.22159 -0.16766 3.47761 122 83 55
-0.16575 -0.22302 3.46991 122 83 55
-0.08503 -0.26454 3.47162 122 83 55
0.00485 -0.27783 3.47000 122 83 55
0.08837 -0.26344 3.48578 122 83 55
0.16752 -0.22169 3.47697 122 83 55
0.22170 -0.16751 3.48518 122 83 55
0.26440 -0.08547 3.47202 122 83 55
0.27506 0.00029 3.58777 122 83 55
0.26055 0.08815 3.59609 122 83 55
0.22033 0.16466 3.60005 122 83 55
0.15734 0.22562 3.59142 122 83 55
0.08932 0.26015 3.60491 122 83 55
0.00402 0.27503 3.60188 122 83 55
-0.08897 0.26027 3.59754 122 83 55
-0.16046 0.22341 3.60582 122 83 55
-0.22398 0.15965 3.59625 122 83 55
-0.26168 0.08474 3.61157 122 83 55
-0.27506 0.00007 3.59137 122 83 55
-0.26115 -0.08637 3.60687 122 83 55
-0.22031 -0.16469 3.59177 122 83 55
-0.16158 -0.22260 3.59983 122 83 55
-0.08253 -0.26239 3.58969 122 83 55
-0.00027 -0.27506 3.60025 122 83 55
0.08460 -0.26173 3.59575 122 83 55
0.15726 -0.22567 3.59635 122 83 55
0.22410 -0.15949 3.60247 122 83 55
0.26241 -0.08247 3.58834 122 83 55
0.26513 0.00424 3.71060 122 83 55
0.25298 0.07945 3.71622 122 83 55
0.21675 0.15275 3.71914 122 83 55
0.15659 0.21400 3.71084 122 83 55
0.08273 0.25193 3.73086 122 83 55
0.00171 0.26516 3.72316 122 83 55
-0.08188 0.25221 3.73158 122 83 55
-0.15305 0.21654 3.71809 122 83 55
-0.21143 0.16004 3.70766 122 83 55
-0.25144 0.08420 3.72553 122 83 55
-0.26514 -0.00392 3.72741 122 83 55
-0.25219 -0.08192 3.72729 122 83 55
-0.21655 -0.15303 3.70835 122 83 55
-0.15459 -0.21544 3.73020 122 83 55
-0.08284 -0.25190 3.72858 122 83 55
-0.00167 -0.26516 3.71148 122 83 55
0.08518 -0.25111 3.72157 122 83 55
0.15852 -0.21257 3.72917 122 83 55
0.21138 -0.16010 3.72531 122 83 55
0.25178 -0.08319 3.72132 122 83 55
0.25283 -0.00288 3.83251 122 83 55
0.23995 0.07971 3.84404 122 83 55
0.20159 0.15262 3.83029 122 83 55
0.14633 0.20620 3.83976 122 83 55
0.07374 0.24185 3.84360 122 83 55
-0.00483 0.25280 3.82828 122 83 55
-0.08267 0.23895 3.82826 122 83 55
-0.14945 0.20394 3.84443 122 83 55
-0.20189 0.15222 3.84043 122 83 55
-0.23979 0.08020 3.85235 122 83 55
-0.25284 -0.00130 3.84582 122 83 55
-0.23985 -0.08001 3.82791 122 83 55
-0.20710 -0.14505 3.82801 122 83 55
-0.14992 -0.20360 3.84656 122 83 55
-0.07677 -0.24091 3.84162 122 83 55
-0.00314 -0.25282 3.85076 122 83 55
0.07586 -0.24120 3.83734 122 83 55
0.14560 -0.20671 3.85179 122 83 55
0.20553 -0.14727 3.84185 122 83 55
0.24062 -0.07768 3.85242 122 83 55
0.24385 0.00393 3.95232 122 83 55
0.23203 0.07510 3.95304 122 83 55
0.19816 0.14218 3.97099 122 83 55
0.14590 0.19543 3.96988 122 83 55
0.07507 0.23204 3.95691 122 83 55
0.00368 0.24386 3.97074 122 83 55
-0.07497 0.23208 3.95296 122 83 55
-0.14412 0.19675 3.96416 122 83 55
-0.19655 0.14439 3.95267 122 83 55
-0.23200 0.07521 3.95993 122 83 55
-0.24384 -0.00482 3.95751 122 83 55
-0.23288 -0.07245 3.95461 122 83 55
-0.19591 -0.14526 3.97157 122 83 55
-0.14713 -0.19451 3.96718 122 83 55
-0.07583 -0.23180 3.96694 122 83 55
-0.00026 -0.24389 3.96110 122 83 55
0.07621 -0.23168 3.95912 122 83 55
0.14534 -0.19585 3.97043 122 83 55
0.19483 -0.14670 3.96318 122 83 55
0.23340 -0.07074 3.95383 122 83 55
0.24246 -0.00457 4.07781 122 83 55
0.23209 0.07033 4.07649 122 83 55
0.19777 0.14035 4.08510 122 83 55
0.14068 0.19753 4.08621 122 83 55
0.07054 0.23202 4.08091 122 83 55
0.00334 0.24248 4.07652 122 83 55
-0.07737 0.22983 4.08120 122 83 55
-0.13933 0.19849 4.08529 122 83 55
-0.19811 0.13986 4.08150 122 83 55
-0.22982 0.07740 4.08421 122 83 55
-0.24251 -0.00056 4.08259 122 83 55
-0.23082 -0.07438 4.07523 122 83 55
-0.19746 -0.14078 4.09187 122 83 55
-0.13893 -0.19877 4.08180 122 83 55
-0.07053 -0.23203 4.07124 122 83 55
-0.00257 -0.24249 4.08342 122 83 55
0.07951 -0.22910 4.08321 122 83 55
0.14182 -0.19672 4.07392 122 83 55
0.19625 -0.14246 4.06867 122 83 55
0.23121 -0.07316 4.07950 122 83 55
0.24935 0.00150 4.19065 122 83 55
0.23802 0.07433 4.19927 122 83 55
0.20220 0.14592 4.19478 122 83 55
0.15040 0.19889 4.19715 122 83 55
0.07457 0.23794 4.18851 122 83 55
0.00170 0.24935 4.20004 122 83 55
-0.07667 0.23727 4.19711 122 83 55
-0.14432 0.20335 4.18874 122 83 55
-0.20307 0.14471 4.21105 122 83 55
-0.23672 0.07836 4.19920 122 83 55
-0.24935 -0.00162 4.20041 122 83 55
-0.23731 -0.07658 4.18773 122 83 55
-0.19938 -0.14975 4.19329 122 83 55
-0.14686 -0.20152 4.21059 122 83 55
-0.08009 -0.23614 4.20142 122 83 55
0.00435 -0.24932 4.20392 122 83 55
0.07871 -0.23661 4.20737 122 83 55
0.14887 -0.20004 4.20685 122 83 55
0.19993 -0.14901 4.20914 122 83 55
0.23708 -0.07726 4.20151 122 83 55
0.26120 0.00239 4.31906 122 83 55
0.24841 0.08076 4.32007 122 83 55
0.20887 0.15686 4.33020 122 83 55
0.15366 0.21123 4.31000 122 83 55
0.08330 0.24757 4.31468 122 83 55
0.00123 0.26121 4.32537 122 83 55
-0.08069 0.24843 4.32473 122 83 55
-0.15430 0.21076 4.31780 122 83 55
-0.20952 0.15598 4.32328 122 83 55
-0.24979 0.07639 4.33222 122 83 55
-0.26121 0.00156 4.33244 122 83 55
-0.24735 -0.08396 4.32380 122 83 55
-0.20921 -0.15640 4.30916 122 83 55
-0.15678 -0.20892 4.30858 122 83 55
-0.08476 -0.24707 4.31900 122 83 55
-0.00148 -0.26121 4.32164 122 83 55
0.08545 -0.24684 4.30968 122 83 55
0.15430 -0.21077 4.31288 122 83 55
0.21356 -0.15041 4.31784 122 83 55
0.24933 -0.07788 4.31681 122 83 55
0.27249 0.00119 4.44339 122 83 55
0.25889 0.08501 4.43378 122 83 55
0.21972 0.16118 4.44212 122 83 55
0.15573 0.22361 4.45163 122 83 55
0.08496 0.25891 4.43852 122 83 55
0.00300 0.27248 4.43776 122 83 55
-0.08327 0.25946 4.44212 122 83 55
-0.16119 0.21971 4.43795 122 83 55
-0.22020 0.16052 4.43168 122 83 55
-0.25940 0.08347 4.44954 122 83 55
-0.27246 -0.00408 4.43293 122 83 55
-0.25761 -0.08884 4.44775 122 83 55
-0.21877 -0.16246 4.43697 122 83 55
-0.16397 -0.21764 4.44027 122 83 55
-0.08269 -0.25965 4.44235 122 83 55
0.00073 -0.27249 4.43645 122 83 55
0.08062 -0.26030 4.43537 122 83 55
0.16146 -0.21951 4.44857 122 83 55
0.22307 -0.15650 4.42927 122 83 55
0.25885 -0.08516 4.44916 122 83 55
0.27786 -0.00489 4.55939 122 83 55
0.26470 0.08463 4.55935 122 83 55
0.22798 0.15891 4.57222 122 83 55
0.16385 0.22447 4.55961 122 83 55
0.08735 0.26382 4.54815 122 83 55
-0.00198 0.27790 4.56548 122 83 55
-0.08136 0.26573 4.55330 122 83 55
-0.16714 0.22202 4.56702 122 83 55
-0.22381 0.16474 4.54764 122 83 55
-0.26270 0.09067 4.56224 122 83 55
-0.27789 -0.00297 4.56240 122 83 55
-0.26541 -0.08238 4.55065 122 83 55
-0.22343 -0.16526 4.55638 122 83 55
-0.16401 -0.22435 4.54961 122 83 55
-0.09054 -0.26274 4.57176 122 83 55
0.00487 -0.27786 4.55729 122 83 55
0.08730 -0.26383 4.56638 122 83 55
0.15966 -0.22746 4.56734 122 83 55
0.22199 -0.16719 4.55580 122 83 55
0.26377 -0.08750 4.57148 122 83 55
0.27486 0.00420 4.67439 122 83 55
0.26278 0.08070 4.68785 122 83 55
0.21919 0.16589 4.68133 122 83 55
0.16287 0.22145 4.66857 122 83 55
0.09001 0.25974 4.68844 122 83 55
0.00235 0.27488 4.69198 122 83 55
-0.08002 0.26299 4.66796 122 83 55
-0.16441 0.22031 4.67558 122 83 55
-0.22324 0.16040 4.67979 122 83 55
-0.26276 0.08078 4.67745 122 83 55
-0.27489 0.00025 4.66894 122 83 55
-0.26276 -0.08078 4.68988 122 83 55
-0.22115 -0.16328 4.68006 122 83 55
-0.15995 -0.22356 4.67527 122 83 55
-0.08209 -0.26235 4.67226 122 83 55
-0.00283 -0.27488 4.68072 122 83 55
0.08894 -0.26010 4.67378 122 83 55
0.16264 -0.22161 4.67383 122 83 55
0.22355 -0.15997 4.67206 122 83 55
0.26210 -0.08288 4.67349 122 83 55
0.26484 -0.00459 4.81123 122 83 55
0.25292 0.07869 4.80089 122 83 55
0.21427 0.15572 4.81034 122 83 55
0.15452 0.21513 4.79187 122 83 55
0.07905 0.25280 4.79151 122 83 55
0.00338 0.26485 4.78837 122 83 55
-0.08051 0.25234 4.78902 122 83 55
-0.15829 0.21238 4.80773 122 83 55
-0.21607 0.15321 4.79104 122 83 55
-0.25064 0.08566 4.79491 122 83 55
-0.26488 -0.00072 4.80232 122 83 55
-0.25040 -0.08636 4.79893 122 83 55
-0.21280 -0.15772 4.81230 122 83 55
-0.15829 -0.21237 4.81127 122 83 55
-0.07702 -0.25343 4.78935 122 83 55
0.00319 -0.26486 4.78981 122 83 55
0.08505 -0.25085 4.80293 122 83 55
0.15811 -0.21251 4.79858 122 83 55
0.21440 -0.15554 4.80717 122 83 55
0.25232 -0.08057 4.79960 122 83 55
0.25257 0.00031 4.92006 122 83 55
0.24009 0.07840 4.90933 122 83 55
0.20320 0.14999 4.92404 122 83 55
0.14977 0.20337 4.92361 122 83 55
0.07809 0.24019 4.91505 122 83 55
0.00489 0.25252 4.91620 122 83 55
-0.07487 0.24122 4.90802 122 83 55
-0.14573 0.20628 4.92217 122 83 55
-0.20333 0.14982 4.91349 122 83 55
-0.24143 0.07419 4.92375 122 83 55
-0.25257 0.00026 4.91090 122 83 55
-0.23891 -0.08193 4.91751 122 83 55
-0.20375 -0.14925 4.91554 122 83 55
-0.14634 -0.20585 4.91286 122 83 55
-0.07640 -0.24073 4.92243 122 83 55
0.00194 -0.25256 4.92332 122 83 55
0.08081 -0.23929 4.91651 122 83 55
0.14736 -0.20512 4.91800 122 83 55
0.20235 -0.15115 4.91985 122 83 55
0.23986 -0.07912 4.93221 122 83 55
0.24375 -0.00095 5.04787 122 83 55
0.23147 0.07640 5.03731 122 83 55
0.19686 0.14374 5.03775 122 83 55
0.14331 0.19718 5.03596 122 83 55
0.07927 0.23050 5.03848 122 83 55
-0.00447 0.24371 5.05055 122 83 55
-0.07560 0.23173 5.03324 122 83 55
-0.14437 0.19640 5.02853 122 83 55
-0.19863 0.14128 5.04614 122 83 55
-0.23160 0.07601 5.04474 122 83 55
-0.24373 -0.00319 5.04641 122 83 55
-0.23145 -0.07645 5.04201 122 83 55
-0.19452 -0.14689 5.03454 122 83 55
-0.14554 -0.19554 5.04775 122 83 55
-0.07718 -0.23121 5.03115 122 83 55
-0.00457 -0.24371 5.04022 122 83 55
0.07172 -0.23296 5.04539 122 83 55
0.14573 -0.19539 5.04461 122 83 55
0.19993 -0.13944 5.03123 122 83 55
0.23157 -0.07610 5.04526 122 83 55
0.24255 0.00369 5.16596 122 83 55
0.23000 0.07710 5.15163 122 83 55
0.19756 0.14076 5.15172 122 83 55
0.14629 0.19351 5.17177 122 83 55
0.07365 0.23113 5.16690 122 83 55
-0.00244 0.24257 5.14844 122 83 55
-0.07140 0.23183 5.15073 122 83 55
-0.13940 0.19853 5.16912 122 83 55
-0.19895 0.13880 5.16038 122 83 55
-0.23147 0.07259 5.16768 122 83 55
-0.24258 0.00157 5.15144 122 83 55
-0.23001 -0.07709 5.17125 122 83 55
-0.19770 -0.14058 5.15354 122 83 55
-0.14544 -0.19415 5.16765 122 83 55
-0.07077 -0.23203 5.14947 122 83 55
-0.00187 -0.24257 5.15449 122 83 55
0.07208 -0.23162 5.17221 122 83 55
0.14433 -0.19497 5.16268 122 83 55
0.19672 -0.14194 5.16551 122 83 55
0.23063 -0.07522 5.15307 122 83 55
0.24960 0.00144 5.28004 122 83 55
0.23790 0.07554 5.28636 122 83 55
0.19938 0.15016 5.26833 122 83 55
0.14519 0.20303 5.28254 122 83 55
0.07917 0.23671 5.26786 122 83 55
-0.00324 0.24958 5.28754 122 83 55
-0.07532 0.23796 5.26808 122 83 55
-0.14546 0.20283 5.27087 122 83 55
-0.20155 0.14724 5.28835 122 83 55
-0.23816 0.07472 5.28420 122 83 55
-0.24959 0.00254 5.27985 122 83 55
-0.23759 -0.07651 5.27252 122 83 55
-0.19926 -0.15032 5.28610 122 83 55
-0.14610 -0.20238 5.27508 122 83 55
-0.08066 -0.23621 5.28263 122 83 55
0.00284 -0.24959 5.29023 122 83 55
0.07383 -0.23843 5.27289 122 83 55
0.14599 -0.20245 5.28414 122 83 55
0.20443 -0.14321 5.27351 122 83 55
0.23847 -0.07372 5.27961 122 83 55
