ply
format ascii 1.0
comment SIMULATED DEMO - NOT FIELD EVIDENCE
element vertex 900
property float x
property float y
property float z
property uchar red
property uchar green
property uchar blue
end_header
0.26000 -0.00023 0.00892 122 83 55
0.24718 0.08063 -0.01012 122 83 55
0.20746 0.15672 0.00114 122 83 55
0.15181 0.21108 -0.00162 122 83 55
0.08158 0.24687 -0.00119 122 83 55
-0.00223 0.25999 0.01213 122 83 55
-0.08176 0.24681 0.00718 122 83 55
-0.14991 0.21243 0.00241 122 83 55
-0.20977 0.15362 -0.01112 122 83 55
-0.24778 0.07879 0.00642 122 83 55
-0.25995 0.00484 -0.00599 122 83 55
-0.24673 -0.08200 0.00605 122 83 55
-0.21299 -0.14911 -0.00260 122 83 55
-0.14894 -0.21311 -0.00946 122 83 55
-0.07816 -0.24797 -0.00817 122 83 55
0.00343 -0.25998 0.00498 122 83 55
0.08184 -0.24678 -0.00765 122 83 55
0.15326 -0.21003 -0.00710 122 83 55
0.20730 -0.15693 -0.01207 122 83 55
0.24874 -0.07570 -0.00261 122 83 55
0.27160 0.00009 0.12812 122 83 55
0.25877 0.08249 0.11141 122 83 55
0.22183 0.15671 0.12350 122 83 55
0.16396 0.21652 0.10931 122 83 55
0.08126 0.25916 0.11495 122 83 55
0.00519 0.27155 0.11771 122 83 55
-0.08115 0.25919 0.12322 122 83 55
-0.15925 0.22001 0.11523 122 83 55
-0.22066 0.15835 0.12118 122 83 55
-0.25886 0.08218 0.13173 122 83 55
-0.27159 0.00162 0.10774 122 83 55
-0.25831 -0.08391 0.12907 122 83 55
-0.22014 -0.15907 0.10841 122 83 55
-0.15724 -0.22145 0.11653 122 83 55
-0.08157 -0.25906 0.11390 122 83 55
-0.00438 -0.27156 0.11540 122 83 55
0.08756 -0.25709 0.12432 122 83 55
0.15569 -0.22254 0.11843 122 83 55
0.21711 -0.16318 0.12277 122 83 55
0.25725 -0.08711 0.12105 122 83 55
0.27771 -0.00425 0.22845 122 83 55
0.26430 0.08535 0.22758 122 83 55
0.22294 0.16564 0.24555 122 83 55
0.15917 0.22760 0.25198 122 83 55
0.08570 0.26419 0.25065 122 83 55
0.00364 0.27771 0.23366 122 83 55
-0.08320 0.26498 0.24222 122 83 55
-0.15954 0.22734 0.24548 122 83 55
-0.22490 0.16297 0.23252 122 83 55
-0.26498 0.08322 0.25203 122 83 55
-0.27774 0.00086 0.24807 122 83 55
-0.26503 -0.08306 0.23767 122 83 55
-0.22416 -0.16399 0.25144 122 83 55
-0.16568 -0.22291 0.24512 122 83 55
-0.08838 -0.26330 0.23297 122 83 55
-0.00123 -0.27774 0.25135 122 83 55
0.08324 -0.26497 0.22766 122 83 55
0.16233 -0.22536 0.23921 122 83 55
0.22229 -0.16650 0.24352 122 83 55
0.26378 -0.08693 0.22909 122 83 55
0.27551 -0.00382 0.36395 122 83 55
0.26358 0.08030 0.36139 122 83 55
0.22161 0.16374 0.35296 122 83 55
0.16164 0.22315 0.36172 122 83 55
0.08741 0.26130 0.36830 122 83 55
0.00219 0.27553 0.37200 122 83 55
-0.08284 0.26279 0.36892 122 83 55
-0.15875 0.22521 0.36206 122 83 55
-0.21972 0.16627 0.35923 122 83 55
-0.26062 0.08942 0.36722 122 83 55
-0.27551 -0.00418 0.34900 122 83 55
-0.26276 -0.08293 0.35901 122 83 55
-0.22236 -0.16272 0.35406 122 83 55
-0.16146 -0.22327 0.35210 122 83 55
-0.08282 -0.26280 0.34908 122 83 55
0.00048 -0.27554 0.36194 122 83 55
0.08206 -0.26304 0.36493 122 83 55
0.16291 -0.22222 0.35884 122 83 55
0.22205 -0.16314 0.35458 122 83 55
0.26300 -0.08217 0.37037 122 83 55
0.26602 0.00186 0.47759 122 83 55
0.25293 0.08246 0.48537 122 83 55
0.21596 0.15535 0.46939 122 83 55
0.16003 0.21251 0.47897 122 83 55
0.08119 0.25334 0.48812 122 83 55
-0.00116 0.26603 0.47929 122 83 55
-0.08296 0.25276 0.48771 122 83 55
-0.15718 0.21463 0.47791 122 83 55
-0.21309 0.15926 0.47234 122 83 55
-0.25430 0.07812 0.49211 122 83 55
-0.26601 -0.00318 0.47365 122 83 55
-0.25245 -0.08390 0.47350 122 83 55
-0.21556 -0.15591 0.48812 122 83 55
-0.15223 -0.21817 0.47874 122 83 55
-0.08412 -0.25238 0.47368 122 83 55
0.00316 -0.26601 0.47910 122 83 55
0.08048 -0.25356 0.48543 122 83 55
0.15872 -0.21350 0.49240 122 83 55
0.21644 -0.15469 0.48687 122 83 55
0.25400 -0.07911 0.47641 122 83 55
0.25365 0.00448 0.59927 122 83 55
0.24122 0.07855 0.59975 122 83 55
0.20614 0.14787 0.59292 122 83 55
0.15296 0.20238 0.59701 122 83 55
0.07665 0.24183 0.60039 122 83 55
-0.00180 0.25368 0.59139 122 83 55
-0.07871 0.24117 0.58808 122 83 55
-0.14956 0.20491 0.59931 122 83 55
-0.20696 0.14671 0.60378 122 83 55
-0.23971 0.08305 0.58765 122 83 55
-0.25364 -0.00490 0.60379 122 83 55
-0.24110 -0.07890 0.59066 122 83 55
-0.20516 -0.14921 0.61004 122 83 55
-0.14772 -0.20624 0.58966 122 83 55
-0.08242 -0.23992 0.60819 122 83 55
0.00142 -0.25368 0.59495 122 83 55
0.08104 -0.24039 0.60452 122 83 55
0.14758 -0.20634 0.60081 122 83 55
0.20581 -0.14832 0.59040 122 83 55
0.24071 -0.08008 0.59034 122 83 55
0.24431 -0.00026 0.71428 122 83 55
0.23270 0.07441 0.71845 122 83 55
0.19487 0.14736 0.72771 122 83 55
0.14354 0.19770 0.71747 122 83 55
0.07735 0.23174 0.72286 122 83 55
0.00140 0.24431 0.72096 122 83 55
-0.07291 0.23318 0.71042 122 83 55
-0.14000 0.20022 0.70788 122 83 55
-0.19550 0.14652 0.71788 122 83 55
-0.23111 0.07923 0.72507 122 83 55
-0.24430 0.00203 0.72465 122 83 55
-0.23270 -0.07443 0.70775 122 83 55
-0.19488 -0.14734 0.72144 122 83 55
-0.14544 -0.19630 0.71353 122 83 55
-0.07916 -0.23113 0.71788 122 83 55
-0.00256 -0.24430 0.72200 122 83 55
0.07567 -0.23230 0.72832 122 83 55
0.14589 -0.19597 0.70811 122 83 55
0.19523 -0.14688 0.72229 122 83 55
0.23188 -0.07693 0.72868 122 83 55
0.24229 -0.00320 0.85202 122 83 55
0.23076 0.07394 0.83790 122 83 55
0.19738 0.14056 0.83600 122 83 55
0.14408 0.19483 0.83864 122 83 55
0.07281 0.23112 0.82859 122 83 55
0.00280 0.24230 0.82786 122 83 55
-0.07919 0.22901 0.83700 122 83 55
-0.14139 0.19679 0.85054 122 83 55
-0.19642 0.14191 0.82828 122 83 55
-0.23017 0.07574 0.83279 122 83 55
-0.24228 0.00435 0.83001 122 83 55
-0.23035 -0.07519 0.85120 122 83 55
-0.19643 -0.14189 0.85000 122 83 55
-0.13900 -0.19848 0.84153 122 83 55
-0.07318 -0.23100 0.85106 122 83 55
-0.00096 -0.24231 0.83622 122 83 55
0.07708 -0.22973 0.84862 122 83 55
0.14090 -0.19714 0.85151 122 83 55
0.19731 -0.14066 0.82994 122 83 55
0.22986 -0.07668 0.85093 122 83 55
0.24864 -0.00013 0.97001 122 83 55
0.23669 0.07616 0.96361 122 83 55
0.20031 0.14730 0.96045 122 83 55
0.14672 0.20073 0.95163 122 83 55
0.07490 0.23709 0.96899 122 83 55
-0.00031 0.24864 0.97231 122 83 55
-0.07211 0.23795 0.95343 122 83 55
-0.15012 0.19821 0.96220 122 83 55
-0.20097 0.14640 0.96002 122 83 55
-0.23526 0.08046 0.95117 122 83 55
-0.24864 -0.00007 0.94768 122 83 55
-0.23639 -0.07707 0.95094 122 83 55
-0.20122 -0.14605 0.95071 122 83 55
-0.15009 -0.19823 0.95866 122 83 55
-0.07567 -0.23684 0.95359 122 83 55
-0.00364 -0.24861 0.95281 122 83 55
0.07439 -0.23725 0.95819 122 83 55
0.14561 -0.20154 0.96420 122 83 55
0.20254 -0.14421 0.95463 122 83 55
0.23774 -0.07279 0.96192 122 83 55
0.26030 0.00197 1.08325 122 83 55
0.24850 0.07748 1.06962 122 83 55
0.20802 0.15648 1.09173 122 83 55
0.15362 0.21014 1.06934 122 83 55
0.08016 0.24765 1.09228 122 83 55
-0.00417 0.26027 1.07587 122 83 55
-0.07719 0.24859 1.08030 122 83 55
-0.14947 0.21311 1.07125 122 83 55
-0.20772 0.15687 1.08207 122 83 55
-0.24657 0.08343 1.07007 122 83 55
-0.26030 0.00147 1.08525 122 83 55
-0.24646 -0.08375 1.07241 122 83 55
-0.21084 -0.15266 1.07740 122 83 55
-0.15572 -0.20859 1.08287 122 83 55
-0.07974 -0.24779 1.07867 122 83 55
0.00243 -0.26029 1.08486 122 83 55
0.08499 -0.24604 1.08642 122 83 55
0.15508 -0.20906 1.09109 122 83 55
0.20837 -0.15601 1.08042 122 83 55
0.24799 -0.07910 1.07205 122 83 55
0.27180 -0.00382 1.18888 122 83 55
0.25976 0.08008 1.19074 122 83 55
0.22188 0.15703 1.20650 122 83 55
0.15574 0.22279 1.18818 122 83 55
0.08764 0.25731 1.20716 122 83 55
0.00174 0.27182 1.19026 122 83 55
-0.08635 0.25775 1.20019 122 83 55
-0.15959 0.22005 1.18795 122 83 55
-0.21828 0.16200 1.21008 122 83 55
-0.25973 0.08017 1.19916 122 83 55
-0.27182 0.00173 1.19612 122 83 55
-0.25939 -0.08129 1.20651 122 83 55
-0.22242 -0.15626 1.19957 122 83 55
-0.16186 -0.21838 1.21193 122 83 55
-0.08484 -0.25825 1.19201 122 83 55
-0.00049 -0.27183 1.20983 122 83 55
0.08408 -0.25849 1.20514 122 83 55
0.16307 -0.21748 1.21226 122 83 55
0.22279 -0.15574 1.20330 122 83 55
0.25865 -0.08359 1.19030 122 83 55
0.27778 0.00244 1.31115 122 83 55
0.26363 0.08754 1.32259 122 83 55
0.22200 0.16697 1.32562 122 83 55
0.16637 0.22246 1.30772 122 83 55
0.08740 0.26368 1.31689 122 83 55
-0.00550 0.27773 1.32395 122 83 55
-0.08208 0.26539 1.33000 122 83 55
-0.16190 0.22573 1.32549 122 83 55
-0.22690 0.16025 1.32947 122 83 55
-0.26455 0.08473 1.32114 122 83 55
-0.27776 -0.00418 1.31592 122 83 55
-0.26339 -0.08828 1.31726 122 83 55
-0.22521 -0.16262 1.31457 122 83 55
-0.16302 -0.22492 1.32822 122 83 55
-0.08307 -0.26508 1.32220 122 83 55
0.00273 -0.27777 1.31878 122 83 55
0.08897 -0.26315 1.32993 122 83 55
0.16013 -0.22699 1.32425 122 83 55
0.22468 -0.16335 1.32070 122 83 55
0.26574 -0.08091 1.32508 122 83 55
0.27536 -0.00366 1.44170 122 83 55
0.26258 0.08299 1.42945 122 83 55
0.21972 0.16601 1.44276 122 83 55
0.16206 0.22265 1.43300 122 83 55
0.09010 0.26023 1.44860 122 83 55
0.00108 0.27538 1.45159 122 83 55
-0.08022 0.26344 1.43854 122 83 55
-0.16031 0.22391 1.42901 122 83 55
-0.22191 0.16307 1.43887 122 83 55
-0.26260 0.08292 1.42774 122 83 55
-0.27536 -0.00319 1.44415 122 83 55
-0.26354 -0.07989 1.44736 122 83 55
-0.22240 -0.16240 1.43006 122 83 55
-0.16124 -0.22324 1.43625 122 83 55
-0.08584 -0.26166 1.43156 122 83 55
-0.00517 -0.27533 1.44849 122 83 55
0.08741 -0.26114 1.44157 122 83 55
0.16448 -0.22087 1.42919 122 83 55
0.22399 -0.16020 1.44134 122 83 55
0.26214 -0.08439 1.44282 122 83 55
0.26574 0.00173 1.55014 122 83 55
0.25420 0.07748 1.55996 122 83 55
0.21305 0.15884 1.54824 122 83 55
0.15950 0.21256 1.55981 122 83 55
0.08292 0.25248 1.55298 122 83 55
0.00206 0.26574 1.55627 122 83 55
-0.07817 0.25399 1.55954 122 83 55
-0.15411 0.21650 1.56235 122 83 55
-0.21395 0.15762 1.56382 122 83 55
-0.25254 0.08272 1.56345 122 83 55
-0.26571 0.00444 1.57126 122 83 55
-0.25278 -0.08197 1.55647 122 83 55
-0.21383 -0.15779 1.56678 122 83 55
-0.15399 -0.21658 1.55805 122 83 55
-0.08648 -0.25128 1.55710 122 83 55
-0.00459 -0.26570 1.57130 122 83 55
0.08620 -0.25138 1.55297 122 83 55
0.15777 -0.21384 1.55675 122 83 55
0.21497 -0.15623 1.56529 122 83 55
0.25430 -0.07714 1.55947 122 83 55
0.25340 -0.00163 1.69000 122 83 55
0.24104 0.07818 1.67059 122 83 55
0.20390 0.15046 1.67322 122 83 55
0.14511 0.20774 1.66766 122 83 55
0.07750 0.24126 1.67421 122 83 55
0.00454 0.25336 1.67951 122 83 55
-0.07538 0.24193 1.67483 122 83 55
-0.14878 0.20513 1.67762 122 83 55
-0.20424 0.15000 1.69079 122 83 55
-0.24171 0.07609 1.67721 122 83 55
-0.25339 -0.00271 1.67586 122 83 55
-0.23957 -0.08258 1.69239 122 83 55
-0.20777 -0.14507 1.68168 122 83 55
-0.15101 -0.20349 1.68630 122 83 55
-0.07549 -0.24190 1.67196 122 83 55
0.00369 -0.25338 1.66788 122 83 55
0.07831 -0.24100 1.67126 122 83 55
0.15037 -0.20397 1.66881 122 83 55
0.20421 -0.15004 1.68449 122 83 55
0.23972 -0.08216 1.68976 122 83 55
0.24413 0.00402 1.79990 122 83 55
0.23234 0.07507 1.80693 122 83 55
0.19514 0.14675 1.80424 122 83 55
0.14603 0.19568 1.79564 122 83 55
0.07329 0.23291 1.79028 122 83 55
-0.00022 0.24417 1.80419 122 83 55
-0.07392 0.23271 1.79292 122 83 55
-0.14493 0.19650 1.79260 122 83 55
-0.19734 0.14379 1.79655 122 83 55
-0.23198 0.07618 1.80678 122 83 55
-0.24415 -0.00270 1.79245 122 83 55
-0.23174 -0.07690 1.79503 122 83 55
-0.19506 -0.14687 1.81130 122 83 55
-0.14304 -0.19788 1.79535 122 83 55
-0.07174 -0.23339 1.79211 122 83 55
-0.00338 -0.24414 1.80770 122 83 55
0.07139 -0.23349 1.80530 122 83 55
0.14337 -0.19764 1.79705 122 83 55
0.19899 -0.14149 1.80344 122 83 55
0.23301 -0.07295 1.80427 122 83 55
0.24237 -0.00136 1.92513 122 83 55
0.23137 0.07222 1.91783 122 83 55
0.19773 0.14018 1.91800 122 83 55
0.14424 0.19478 1.92603 122 83 55
0.07235 0.23132 1.92358 122 83 55
-0.00154 0.24237 1.92017 122 83 55
-0.07882 0.22920 1.92292 122 83 55
-0.14096 0.19717 1.92595 122 83 55
-0.19483 0.14417 1.92283 122 83 55
-0.22929 0.07856 1.92099 122 83 55
-0.24234 -0.00403 1.92429 122 83 55
-0.23159 -0.07151 1.90811 122 83 55
-0.19362 -0.14579 1.91048 122 83 55
-0.14084 -0.19726 1.91002 122 83 55
-0.07355 -0.23095 1.92830 122 83 55
-0.00056 -0.24237 1.91236 122 83 55
0.07478 -0.23055 1.91842 122 83 55
0.13955 -0.19817 1.91333 122 83 55
0.19733 -0.14074 1.93028 122 83 55
0.22971 -0.07731 1.91933 122 83 55
0.24887 0.00166 2.03447 122 83 55
0.23766 0.07385 2.05230 122 83 55
0.20363 0.14309 2.03648 122 83 55
0.14406 0.20294 2.05078 122 83 55
0.07340 0.23780 2.04679 122 83 55
-0.00022 0.24887 2.04781 122 83 55
-0.08107 0.23530 2.04368 122 83 55
-0.14676 0.20100 2.04021 122 83 55
-0.20150 0.14607 2.04625 122 83 55
-0.23665 0.07704 2.04482 122 83 55
-0.24884 -0.00393 2.05166 122 83 55
-0.23696 -0.07608 2.04882 122 83 55
-0.19844 -0.15020 2.03644 122 83 55
-0.14311 -0.20361 2.03217 122 83 55
-0.08084 -0.23538 2.03341 122 83 55
0.00102 -0.24887 2.05176 122 83 55
0.08149 -0.23516 2.05160 122 83 55
0.15000 -0.19859 2.03282 122 83 55
0.20174 -0.14574 2.03818 122 83 55
0.23520 -0.08137 2.04472 122 83 55
0.26060 0.00140 2.15733 122 83 55
0.24846 0.07864 2.16423 122 83 55
0.21150 0.15226 2.15241 122 83 55
0.15344 0.21064 2.17078 122 83 55
0.08518 0.24629 2.15911 122 83 55
-0.00455 0.26057 2.16927 122 83 55
-0.07756 0.24880 2.16831 122 83 55
-0.15663 0.20828 2.16765 122 83 55
-0.21011 0.15418 2.16867 122 83 55
-0.24740 0.08189 2.16720 122 83 55
-0.26060 0.00090 2.16047 122 83 55
-0.24648 -0.08462 2.16015 122 83 55
-0.20948 -0.15502 2.15308 122 83 55
-0.15091 -0.21247 2.15020 122 83 55
-0.07597 -0.24929 2.17006 122 83 55
-0.00468 -0.26056 2.14805 122 83 55
0.07717 -0.24892 2.16677 122 83 55
0.15079 -0.21255 2.15000 122 83 55
0.21127 -0.15258 2.17203 122 83 55
0.24758 -0.08137 2.16418 122 83 55
0.27204 0.00267 2.29127 122 83 55
0.25722 0.08861 2.27500 122 83 55
0.21910 0.16127 2.27500 122 83 55
0.16271 0.21803 2.27792 122 83 55
0.08077 0.25979 2.28281 122 83 55
-0.00197 0.27205 2.26758 122 83 55
-0.08625 0.25802 2.27901 122 83 55
-0.15753 0.22180 2.26890 122 83 55
-0.22322 0.15551 2.27772 122 83 55
-0.25737 0.08815 2.28175 122 83 55
-0.27204 0.00200 2.29108 122 83 55
-0.25754 -0.08767 2.27114 122 83 55
-0.21896 -0.16145 2.28066 122 83 55
-0.16196 -0.21859 2.28120 122 83 55
-0.08223 -0.25933 2.27358 122 83 55
-0.00037 -0.27205 2.28737 122 83 55
0.08013 -0.25999 2.28561 122 83 55
0.15679 -0.22233 2.28250 122 83 55
0.22162 -0.15778 2.27542 122 83 55
0.25867 -0.08427 2.27378 122 83 55
0.27779 -0.00449 2.40474 122 83 55
0.26508 0.08321 2.39378 122 83 55
0.22235 0.16658 2.39603 122 83 55
0.16660 0.22234 2.39500 122 83 55
0.09023 0.26277 2.40503 122 83 55
0.00273 0.27782 2.39861 122 83 55
-0.08125 0.26568 2.40716 122 83 55
-0.16275 0.22517 2.39942 122 83 55
-0.22176 0.16737 2.40275 122 83 55
-0.26505 0.08331 2.41021 122 83 55
-0.27781 -0.00329 2.40752 122 83 55
-0.26522 -0.08275 2.38986 122 83 55
-0.22317 -0.16549 2.39077 122 83 55
-0.15904 -0.22781 2.39605 122 83 55
-0.08767 -0.26364 2.41022 122 83 55
-0.00459 -0.27779 2.38946 122 83 55
0.08745 -0.26371 2.39857 122 83 55
0.16543 -0.22321 2.39764 122 83 55
0.22583 -0.16184 2.38797 122 83 55
0.26493 -0.08367 2.40300 122 83 55
0.27522 -0.00116 2.51020 122 83 55
0.26254 0.08259 2.52073 122 83 55
0.22569 0.15751 2.52618 122 83 55
0.15861 0.22493 2.52343 122 83 55
0.08217 0.26267 2.51499 122 83 55
0.00339 0.27520 2.52079 122 83 55
-0.08930 0.26033 2.50879 122 83 55
-0.16387 0.22112 2.50875 122 83 55
-0.22166 0.16314 2.51604 122 83 55
-0.26206 0.08409 2.50878 122 83 55
-0.27522 -0.00199 2.51201 122 83 55
-0.26245 -0.08286 2.52928 122 83 55
-0.22226 -0.16232 2.52159 122 83 55
-0.16553 -0.21988 2.52729 122 83 55
-0.08218 -0.26267 2.53075 122 83 55
0.00069 -0.27522 2.51005 122 83 55
0.08480 -0.26183 2.51917 122 83 55
0.16576 -0.21971 2.52191 122 83 55
0.22203 -0.16264 2.51296 122 83 55
0.26051 -0.08878 2.51874 122 83 55
0.26541 -0.00517 2.63252 122 83 55
0.25267 0.08139 2.63298 122 83 55
0.21239 0.15925 2.65176 122 83 55
0.15457 0.21582 2.64873 122 83 55
0.07902 0.25342 2.63644 122 83 55
-0.00482 0.26541 2.63265 122 83 55
-0.08154 0.25262 2.63534 122 83 55
-0.15517 0.21538 2.64760 122 83 55
-0.21504 0.15565 2.62932 122 83 55
-0.25235 0.08238 2.63221 122 83 55
-0.26544 -0.00277 2.62972 122 83 55
-0.25138 -0.08531 2.64086 122 83 55
-0.21772 -0.15187 2.63853 122 83 55
-0.15269 -0.21715 2.63475 122 83 55
-0.07902 -0.25342 2.64430 122 83 55
-0.00138 -0.26545 2.65104 122 83 55
0.08252 -0.25230 2.63371 122 83 55
0.15652 -0.21440 2.63317 122 83 55
0.21453 -0.15634 2.63027 122 83 55
0.25125 -0.08566 2.63704 122 83 55
0.25309 -0.00397 2.74770 122 83 55
0.23988 0.08081 2.75344 122 83 55
0.20367 0.15030 2.76172 122 83 55
0.14685 0.20617 2.75390 122 83 55
0.07379 0.24213 2.75545 122 83 55
0.00130 0.25312 2.76820 122 83 55
-0.07416 0.24201 2.74968 122 83 55
-0.14575 0.20695 2.75773 122 83 55
-0.20687 0.14587 2.76063 122 83 55
-0.24048 0.07899 2.75572 122 83 55
-0.25310 0.00306 2.76393 122 83 55
-0.24037 -0.07934 2.75607 122 83 55
-0.20292 -0.15131 2.76511 122 83 55
-0.14548 -0.20714 2.75409 122 83 55
-0.07995 -0.24016 2.76260 122 83 55
0.00294 -0.25311 2.75353 122 83 55
0.07755 -0.24095 2.77123 122 83 55
0.14891 -0.20469 2.76075 122 83 55
0.20665 -0.14618 2.75461 122 83 55
0.24115 -0.07692 2.76772 122 83 55
0.24401 0.00296 2.89190 122 83 55
0.23201 0.07564 2.87739 122 83 55
0.19983 0.14006 2.86991 122 83 55
0.14235 0.19820 2.89053 122 83 55
0.07118 0.23341 2.86847 122 83 55
-0.00154 0.24402 2.87508 122 83 55
-0.07989 0.23057 2.88754 122 83 55
-0.14717 0.19465 2.86968 122 83 55
-0.19950 0.14053 2.87148 122 83 55
-0.23078 0.07929 2.87976 122 83 55
-0.24398 -0.00471 2.87150 122 83 55
-0.23120 -0.07805 2.88560 122 83 55
-0.19994 -0.13990 2.88416 122 83 55
-0.14396 -0.19703 2.87802 122 83 55
-0.07382 -0.23259 2.88944 122 83 55
-0.00046 -0.24402 2.87368 122 83 55
0.07742 -0.23142 2.86877 122 83 55
0.14674 -0.19498 2.86824 122 83 55
0.20015 -0.13959 2.88912 122 83 55
0.23056 -0.07994 2.89172 122 83 55
0.24244 -0.00066 2.99078 122 83 55
0.23065 0.07469 3.00693 122 83 55
0.19367 0.14584 3.00777 122 83 55
0.14200 0.19650 3.00776 122 83 55
0.07558 0.23036 3.00078 122 83 55
-0.00462 0.24239 3.00057 122 83 55
-0.07846 0.22939 2.98916 122 83 55
-0.14486 0.19440 3.00825 122 83 55
-0.19566 0.14316 2.99931 122 83 55
-0.23066 0.07463 2.99253 122 83 55
-0.24244 0.00036 3.00856 122 83 55
-0.23040 -0.07546 3.00148 122 83 55
-0.19335 -0.14626 3.00939 122 83 55
-0.13997 -0.19795 2.99552 122 83 55
-0.07095 -0.23182 3.00547 122 83 55
-0.00061 -0.24244 2.99132 122 83 55
0.07528 -0.23046 3.00700 122 83 55
0.14262 -0.19605 2.99421 122 83 55
0.19436 -0.14492 2.99921 122 83 55
0.23058 -0.07489 2.99631 122 83 55
0.24909 0.00344 3.10919 122 83 55
0.23619 0.07918 3.11821 122 83 55
0.20243 0.14519 3.11221 122 83 55
0.15015 0.19878 3.11405 122 83 55
0.08088 0.23562 3.12021 122 83 55
-0.00082 0.24911 3.11037 122 83 55
-0.07983 0.23598 3.12630 122 83 55
-0.14511 0.20249 3.13089 122 83 55
-0.20165 0.14627 3.11028 122 83 55
-0.23769 0.07457 3.11537 122 83 55
-0.24908 -0.00428 3.12160 122 83 55
-0.23655 -0.07812 3.12694 122 83 55
-0.20054 -0.14779 3.12725 122 83 55
-0.14898 -0.19966 3.11368 122 83 55
-0.07866 -0.23637 3.12341 122 83 55
0.00438 -0.24907 3.12638 122 83 55
0.07328 -0.23809 3.11608 122 83 55
0.14851 -0.20001 3.12571 122 83 55
0.20201 -0.14577 3.13177 122 83 55
0.23595 -0.07989 3.11814 122 83 55
0.26089 0.00293 3.24611 122 83 55
0.24932 0.07691 3.23645 122 83 55
0.20996 0.15488 3.23393 122 83 55
0.15597 0.20915 3.24676 122 83 55
0.07675 0.24936 3.24615 122 83 55
-0.00013 0.26091 3.24022 122 83 55
-0.08450 0.24684 3.24958 122 83 55
-0.15568 0.20937 3.24877 122 83 55
-0.21021 0.15454 3.24737 122 83 55
-0.24861 0.07915 3.23091 122 83 55
-0.26090 0.00244 3.23388 122 83 55
-0.24961 -0.07594 3.23413 122 83 55
-0.20888 -0.15633 3.23401 122 83 55
-0.15139 -0.21250 3.23744 122 83 55
-0.07873 -0.24875 3.23839 122 83 55
-0.00002 -0.26091 3.23824 122 83 55
0.07916 -0.24861 3.25194 122 83 55
0.15309 -0.21127 3.22953 122 83 55
0.21103 -0.15343 3.22969 122 83 55
0.24823 -0.08033 3.24404 122 83 55
0.27227 -0.00224 3.34994 122 83 55
0.26009 0.08056 3.36883 122 83 55
0.21954 0.16105 3.36593 122 83 55
0.15883 0.22115 3.34957 122 83 55
0.08640 0.25820 3.35390 122 83 55
-0.00383 0.27225 3.35532 122 83 55
-0.08265 0.25943 3.35607 122 83 55
-0.16395 0.21738 3.35578 122 83 55
-0.21931 0.16136 3.34877 122 83 55
-0.25926 0.08316 3.36906 122 83 55
-0.27227 -0.00183 3.35206 122 83 55
-0.25829 -0.08615 3.34967 122 83 55
-0.21835 -0.16265 3.36833 122 83 55
-0.15847 -0.22141 3.35718 122 83 55
-0.08919 -0.25725 3.34876 122 83 55
0.00317 -0.27226 3.35772 122 83 55
0.08494 -0.25869 3.36776 122 83 55
0.15566 -0.22340 3.36631 122 83 55
0.22209 -0.15751 3.36664 122 83 55
0.25878 -0.08464 3.36968 122 83 55
0.27786 -0.00275 3.47908 122 83 55
0.26428 0.08582 3.47017 122 83 55
0.22600 0.16167 3.49239 122 83 55
0.15987 0.22727 3.48262 122 83 55
0.08575 0.26431 3.47434 122 83 55
-0.00056 0.27787 3.46760 122 83 55
-0.08478 0.26462 3.47726 122 83 55
-0.15913 0.22779 3.49030 122 83 55
-0.22317 0.16555 3.48663 122 83 55
-0.26458 0.08490 3.47583 122 83 55
-0.27787 0.00103 3.46826 122 83 55
-0.26454 -0.08503 3.46790 122 83 55
-0.22659 -0.16083 3.48896 122 83 55
-0.16193 -0.22581 3.46908 122 83 55
-0.08072 -0.26589 3.47214 122 83 55
0.00536 -0.27782 3.47703 122 83 55
0.08298 -0.26519 3.48086 122 83 55
0.15925 -0.22771 3.48751 122 83 55
0.22322 -0.16549 3.47719 122 83 55
0.26265 -0.09070 3.49102 122 83 55
0.27503 0.00430 3.60790 122 83 55
0.26300 0.08054 3.59139 122 83 55
0.22154 0.16303 3.60788 122 83 55
0.16350 0.22119 3.59059 122 83 55
0.07983 0.26322 3.58889 122 83 55
-0.00343 0.27504 3.61069 122 83 55
-0.08229 0.26246 3.61229 122 83 55
-0.16506 0.22003 3.60475 122 83 55
-0.22159 0.16296 3.60106 122 83 55
-0.26311 0.08019 3.58990 122 83 55
-0.27505 -0.00200 3.60732 122 83 55
-0.26156 -0.08510 3.59712 122 83 55
-0.22378 -0.15993 3.59789 122 83 55
-0.15948 -0.22411 3.60325 122 83 55
-0.08300 -0.26224 3.60680 122 83 55
0.00158 -0.27506 3.59746 122 83 55
0.08692 -0.26096 3.60983 122 83 55
0.16527 -0.21987 3.59010 122 83 55
0.21991 -0.16522 3.60730 122 83 55
0.26246 -0.08229 3.60358 122 83 55
0.26517 -0.00069 3.72786 122 83 55
0.25151 0.08400 3.71083 122 83 55
0.21475 0.15555 3.73189 122 83 55
0.15455 0.21547 3.72850 122 83 55
0.07954 0.25296 3.71981 122 83 55
0.00491 0.26512 3.72286 122 83 55
-0.07929 0.25304 3.73153 122 83 55
-0.15867 0.21246 3.71801 122 83 55
-0.21589 0.15396 3.72950 122 83 55
-0.25247 0.08107 3.72711 122 83 55
-0.26517 -0.00008 3.71947 122 83 55
-0.25076 -0.08622 3.71346 122 83 55
-0.21311 -0.15779 3.70872 122 83 55
-0.15972 -0.21167 3.70974 122 83 55
-0.08401 -0.25151 3.71334 122 83 55
-0.00288 -0.26515 3.70988 122 83 55
0.07827 -0.25335 3.73199 122 83 55
0.15503 -0.21513 3.72915 122 83 55
0.21399 -0.15659 3.71004 122 83 55
0.25128 -0.08468 3.70949 122 83 55
0.25283 0.00279 3.84415 122 83 55
0.24116 0.07599 3.84835 122 83 55
0.20214 0.15189 3.84355 122 83 55
0.15066 0.20305 3.84537 122 83 55
0.07472 0.24155 3.84077 122 83 55
0.00165 0.25284 3.83766 122 83 55
-0.08287 0.23888 3.85044 122 83 55
-0.14566 0.20667 3.85063 122 83 55
-0.20451 0.14869 3.83138 122 83 55
-0.24130 0.07554 3.84762 122 83 55
-0.25284 -0.00185 3.84326 122 83 55
-0.24191 -0.07355 3.84770 122 83 55
-0.20276 -0.15105 3.83543 122 83 55
-0.14610 -0.20636 3.85236 122 83 55
-0.07499 -0.24147 3.84171 122 83 55
-0.00387 -0.25281 3.83311 122 83 55
0.07830 -0.24042 3.83621 122 83 55
0.14724 -0.20555 3.83813 122 83 55
0.20643 -0.14601 3.83664 122 83 55
0.24078 -0.07718 3.83243 122 83 55
0.24387 -0.00271 3.96745 122 83 55
0.23186 0.07563 3.96226 122 83 55
0.19541 0.14593 3.96187 122 83 55
0.14292 0.19762 3.95066 122 83 55
0.07909 0.23071 3.95778 122 83 55
-0.00103 0.24388 3.95740 122 83 55
-0.07632 0.23164 3.94879 122 83 55
-0.14713 0.19451 3.96780 122 83 55
-0.19591 0.14525 3.95805 122 83 55
-0.23219 0.07463 3.95601 122 83 55
-0.24387 -0.00312 3.96378 122 83 55
-0.23088 -0.07858 3.95484 122 83 55
-0.19646 -0.14451 3.95136 122 83 55
-0.14634 -0.19510 3.96025 122 83 55
-0.07984 -0.23045 3.95350 122 83 55
-0.00275 -0.24387 3.96000 122 83 55
0.07524 -0.23199 3.97099 122 83 55
0.14302 -0.19755 3.95714 122 83 55
0.19486 -0.14666 3.94789 122 83 55
0.23181 -0.07580 3.96532 122 83 55
0.24250 -0.00192 4.07614 122 83 55
0.23106 0.07363 4.07906 122 83 55
0.19744 0.14082 4.07110 122 83 55
0.14295 0.19589 4.08853 122 83 55
0.07498 0.23062 4.08540 122 83 55
0.00339 0.24248 4.08447 122 83 55
-0.07869 0.22938 4.08511 122 83 55
-0.14610 0.19356 4.08024 122 83 55
-0.19615 0.14260 4.06813 122 83 55
-0.23159 0.07195 4.08411 122 83 55
-0.24251 0.00076 4.09127 122 83 55
-0.22920 -0.07922 4.09147 122 83 55
-0.19651 -0.14211 4.06857 122 83 55
-0.14498 -0.19440 4.08734 122 83 55
-0.07770 -0.22972 4.08958 122 83 55
-0.00356 -0.24248 4.08646 122 83 55
0.07494 -0.23064 4.08786 122 83 55
0.13934 -0.19848 4.06890 122 83 55
0.19809 -0.13989 4.07083 122 83 55
0.23000 -0.07689 4.07582 122 83 55
0.24935 0.00129 4.19876 122 83 55
0.23648 0.07909 4.20596 122 83 55
0.19879 0.15054 4.19151 122 83 55
0.15054 0.19879 4.19494 122 83 55
0.08157 0.23564 4.19328 122 83 55
-0.00392 0.24932 4.21044 122 83 55
-0.08034 0.23606 4.20657 122 83 55
-0.14425 0.20339 4.20280 122 83 55
-0.19900 0.15026 4.18804 122 83 55
-0.23730 0.07661 4.20672 122 83 55
-0.24931 0.00454 4.20998 122 83 55
-0.23586 -0.08093 4.20100 122 83 55
-0.20036 -0.14843 4.18753 122 83 55
-0.14942 -0.19963 4.20457 122 83 55
-0.07917 -0.23645 4.20806 122 83 55
0.00385 -0.24933 4.19817 122 83 55
0.08105 -0.23582 4.20509 122 83 55
0.14442 -0.20327 4.19250 122 83 55
0.20100 -0.14757 4.20074 122 83 55
0.23734 -0.07647 4.19466 122 83 55
0.26118 0.00360 4.31677 122 83 55
0.24986 0.07616 4.32629 122 83 55
0.20823 0.15771 4.32046 122 83 55
0.15054 0.21347 4.31255 122 83 55
0.08221 0.24794 4.32299 122 83 55
0.00388 0.26118 4.31297 122 83 55
-0.08420 0.24727 4.32906 122 83 55
-0.15025 0.21367 4.32095 122 83 55
-0.21240 0.15204 4.31797 122 83 55
-0.24713 0.08460 4.31504 122 83 55
-0.26121 -0.00003 4.32233 122 83 55
-0.24958 -0.07709 4.33168 122 83 55
-0.20962 -0.15585 4.31706 122 83 55
-0.15407 -0.21093 4.32495 122 83 55
-0.07839 -0.24917 4.31750 122 83 55
-0.00296 -0.26119 4.31520 122 83 55
0.07782 -0.24935 4.31676 122 83 55
0.15145 -0.21282 4.31003 122 83 55
0.21111 -0.15382 4.32345 122 83 55
0.24772 -0.08285 4.31183 122 83 55
0.27249 0.00108 4.43767 122 83 55
0.25985 0.08205 4.42763 122 83 55
0.22206 0.15794 4.44377 122 83 55
0.16377 0.21779 4.43838 122 83 55
0.08263 0.25966 4.45019 122 83 55
-0.00379 0.27247 4.43558 122 83 55
-0.08217 0.25981 4.43763 122 83 55
-0.15972 0.22078 4.44001 122 83 55
-0.22192 0.15813 4.43304 122 83 55
-0.26019 0.08096 4.44800 122 83 55
-0.27247 0.00388 4.43847 122 83 55
-0.25891 -0.08497 4.43741 122 83 55
-0.22359 -0.15576 4.43961 122 83 55
-0.15775 -0.22219 4.43638 122 83 55
-0.08172 -0.25995 4.43051 122 83 55
-0.00074 -0.27249 4.44435 122 83 55
0.08056 -0.26031 4.44707 122 83 55
0.15719 -0.22259 4.45105 122 83 55
0.21889 -0.16230 4.43300 122 83 55
0.25813 -0.08731 4.43045 122 83 55
0.27790 0.00132 4.56340 122 83 55
0.26433 0.08580 4.56283 122 83 55
0.22573 0.16210 4.56739 122 83 55
0.16103 0.22649 4.55438 122 83 55
0.08619 0.26420 4.56712 122 83 55
-0.00134 0.27790 4.55016 122 83 55
-0.08135 0.26573 4.55727 122 83 55
-0.16110 0.22644 4.56725 122 83 55
-0.22653 0.16099 4.55488 122 83 55
-0.26293 0.08998 4.55637 122 83 55
-0.27788 0.00341 4.56105 122 83 55
-0.26350 -0.08830 4.56138 122 83 55
-0.22481 -0.16338 4.57187 122 83 55
-0.16215 -0.22569 4.56739 122 83 55
-0.08810 -0.26357 4.56259 122 83 55
0.00358 -0.27788 4.56441 122 83 55
0.08246 -0.26539 4.55003 122 83 55
0.16278 -0.22524 4.55974 122 83 55
0.22316 -0.16561 4.56952 122 83 55
0.26430 -0.08588 4.55364 122 83 55
0.27487 0.00350 4.67908 122 83 55
0.26010 0.08895 4.66879 122 83 55
0.22318 0.16049 4.66946 122 83 55
0.15814 0.22485 4.69074 122 83 55
0.08336 0.26195 4.68535 122 83 55
0.00500 0.27485 4.67736 122 83 55
-0.08069 0.26278 4.66895 122 83 55
-0.15824 0.22478 4.67679 122 83 55
-0.22113 0.16331 4.66845 122 83 55
-0.26095 0.08644 4.67468 122 83 55
-0.27486 0.00388 4.69035 122 83 55
-0.26195 -0.08336 4.67756 122 83 55
-0.22193 -0.16221 4.67068 122 83 55
-0.16299 -0.22136 4.68558 122 83 55
-0.08576 -0.26117 4.67637 122 83 55
0.00152 -0.27489 4.66916 122 83 55
0.08743 -0.26062 4.67939 122 83 55
0.16062 -0.22308 4.67004 122 83 55
0.22112 -0.16331 4.67757 122 83 55
0.26013 -0.08887 4.67899 122 83 55
0.26488 -0.00014 4.81199 122 83 55
0.25152 0.08306 4.79305 122 83 55
0.21366 0.15655 4.79754 122 83 55
0.15915 0.21173 4.79701 122 83 55
0.08348 0.25138 4.80889 122 83 55
-0.00272 0.26486 4.78975 122 83 55
-0.07702 0.25343 4.79602 122 83 55
-0.15299 0.21622 4.80730 122 83 55
-0.21540 0.15415 4.80920 122 83 55
-0.25068 0.08555 4.80097 122 83 55
-0.26486 0.00276 4.79974 122 83 55
-0.25143 -0.08333 4.78993 122 83 55
-0.21531 -0.15428 4.80925 122 83 55
-0.15397 -0.21553 4.80394 122 83 55
-0.08193 -0.25189 4.79607 122 83 55
0.00144 -0.26487 4.79318 122 83 55
0.08405 -0.25119 4.80398 122 83 55
0.15261 -0.21649 4.78845 122 83 55
0.21589 -0.15347 4.80959 122 83 55
0.25227 -0.08074 4.80106 122 83 55
0.25257 0.00029 4.91098 122 83 55
0.24166 0.07343 4.92827 122 83 55
0.20435 0.14843 4.91132 122 83 55
0.14631 0.20587 4.92110 122 83 55
0.08259 0.23868 4.92759 122 83 55
-0.00505 0.25252 4.92282 122 83 55
-0.08229 0.23879 4.91087 122 83 55
-0.14859 0.20424 4.91750 122 83 55
-0.20641 0.14554 4.92055 122 83 55
-0.23902 0.08161 4.90929 122 83 55
-0.25252 -0.00473 4.93141 122 83 55
-0.24142 -0.07422 4.91457 122 83 55
-0.20469 -0.14796 4.92368 122 83 55
-0.15099 -0.20247 4.91992 122 83 55
-0.07797 -0.24023 4.91734 122 83 55
-0.00327 -0.25255 4.92053 122 83 55
0.08228 -0.23879 4.91823 122 83 55
0.14519 -0.20666 4.90972 122 83 55
0.20461 -0.14807 4.92489 122 83 55
0.24024 -0.07793 4.92151 122 83 55
0.24374 0.00267 5.04610 122 83 55
0.23212 0.07442 5.02942 122 83 55
0.19625 0.14458 5.04549 122 83 55
0.14129 0.19863 5.04600 122 83 55
0.07364 0.23236 5.03088 122 83 55
-0.00256 0.24374 5.04376 122 83 55
-0.07209 0.23285 5.03696 122 83 55
-0.14106 0.19879 5.04950 122 83 55
-0.19653 0.14419 5.03169 122 83 55
-0.23212 0.07442 5.04513 122 83 55
-0.24375 -0.00174 5.03746 122 83 55
-0.23089 -0.07815 5.04458 122 83 55
-0.19557 -0.14550 5.02981 122 83 55
-0.14153 -0.19846 5.03743 122 83 55
-0.07499 -0.23193 5.03735 122 83 55
0.00384 -0.24372 5.05116 122 83 55
0.07743 -0.23113 5.04815 122 83 55
0.13980 -0.19968 5.04034 122 83 55
0.19681 -0.14381 5.03376 122 83 55
0.23144 -0.07649 5.04214 122 83 55
0.24258 -0.00153 5.15353 122 83 55
0.23085 0.07454 5.16384 122 83 55
0.19422 0.14535 5.16807 122 83 55
0.14099 0.19740 5.15939 122 83 55
0.07102 0.23195 5.16679 122 83 55
0.00024 0.24258 5.15308 122 83 55
-0.07946 0.22920 5.17111 122 83 55
-0.13884 0.19892 5.14998 122 83 55
-0.19568 0.14337 5.15563 122 83 55
-0.23028 0.07626 5.15355 122 83 55
-0.24257 0.00273 5.16626 122 83 55
-0.23107 -0.07383 5.14775 122 83 55
-0.19722 -0.14125 5.16038 122 83 55
-0.13889 -0.19889 5.17150 122 83 55
-0.07811 -0.22966 5.15528 122 83 55
0.00410 -0.24255 5.15021 122 83 55
0.07501 -0.23069 5.15252 122 83 55
0.14509 -0.19441 5.15483 122 83 55
0.19495 -0.14436 5.16201 122 83 55
0.23003 -0.07701 5.16572 122 83 55
0.24957 -0.00419 5.27596 122 83 55
0.23832 0.07420 5.26912 122 83 55
0.20453 0.14306 5.28387 122 83 55
0.14359 0.20416 5.28103 122 83 55
0.07922 0.23670 5.27129 122 83 55
0.00231 0.24959 5.26905 122 83 55
-0.07942 0.23663 5.27614 122 83 55
-0.14630 0.20223 5.27406 122 83 55
-0.20291 0.14535 5.28264 122 83 55
-0.23699 0.07833 5.29016 122 83 55
-0.24960 -0.00149 5.26913 122 83 55
-0.23754 -0.07665 5.27207 122 83 55
-0.19909 -0.15054 5.27252 122 83 55
-0.14876 -0.20043 5.28589 122 83 55
-0.08186 -0.23580 5.26804 122 83 55
0.00190 -0.24959 5.28008 122 83 55
0.07714 -0.23738 5.26941 122 83 55
0.14578 -0.20260 5.28489 122 83 55
0.20113 -0.14780 5.28578 122 83 55
0.23870 -0.07295 5.27966 122 83 55
