ply
format ascii 1.0
comment SIMULATED DEMO - NOT FIELD EVIDENCE
element vertex 900
property float x
property float y
property float z
property uchar red
property uchar green
property uchar blue
end_header
0.25995 0.00501 0.00928 122 83 55
0.24785 0.07854 0.01115 122 83 55
0.21170 0.15094 -0.00888 122 83 55
0.15472 0.20895 -0.00191 122 83 55
0.07798 0.24803 -0.00330 122 83 55
-0.00265 0.25999 -0.00459 122 83 55
-0.08229 0.24663 0.00817 122 83 55
-0.15462 0.20903 0.00843 122 83 55
-0.20907 0.15456 0.00415 122 83 55
-0.24879 0.07554 -0.00815 122 83 55
-0.25997 0.00374 -0.00549 122 83 55
-0.24765 -0.07918 -0.00234 122 83 55
-0.20767 -0.15644 0.00295 122 83 55
-0.15658 -0.20757 -0.01048 122 83 55
-0.08374 -0.24615 -0.00738 122 83 55
0.00329 -0.25998 -0.00245 122 83 55
0.07813 -0.24798 0.01219 122 83 55
0.15334 -0.20997 -0.00654 122 83 55
0.20762 -0.15651 -0.00478 122 83 55
0.24852 -0.07641 -0.00244 122 83 55
0.27156 0.00438 0.12251 122 83 55
0.25784 0.08533 0.13004 122 83 55
0.22078 0.15818 0.12296 122 83 55
0.15667 0.22185 0.11039 122 83 55
0.08866 0.25672 0.11512 122 83 55
0.00074 0.27159 0.11018 122 83 55
-0.07986 0.25959 0.12234 122 83 55
-0.16159 0.21830 0.12031 122 83 55
-0.21855 0.16124 0.12625 122 83 55
-0.25735 0.08682 0.12543 122 83 55
-0.27159 -0.00197 0.10906 122 83 55
-0.25784 -0.08534 0.11439 122 83 55
-0.21925 -0.16030 0.13181 122 83 55
-0.16380 -0.21664 0.12672 122 83 55
-0.08778 -0.25702 0.13159 122 83 55
-0.00196 -0.27159 0.12148 122 83 55
0.08649 -0.25746 0.12740 122 83 55
0.16255 -0.21758 0.11109 122 83 55
0.22253 -0.15571 0.13010 122 83 55
0.25802 -0.08479 0.10899 122 83 55
0.27772 0.00337 0.22865 122 83 55
0.26461 0.08438 0.24111 122 83 55
0.22281 0.16581 0.24067 122 83 55
0.16533 0.22317 0.23756 122 83 55
0.08330 0.26495 0.24184 122 83 55
0.00121 0.27774 0.24715 122 83 55
-0.08300 0.26505 0.24486 122 83 55
-0.16123 0.22615 0.24844 122 83 55
-0.22568 0.16188 0.22985 122 83 55
-0.26463 0.08431 0.23752 122 83 55
-0.27773 -0.00164 0.23953 122 83 55
-0.26301 -0.08926 0.23377 122 83 55
-0.22229 -0.16651 0.24843 122 83 55
-0.16545 -0.22308 0.24129 122 83 55
-0.09028 -0.26265 0.25205 122 83 55
0.00304 -0.27772 0.23962 122 83 55
0.08172 -0.26544 0.22776 122 83 55
0.16579 -0.22283 0.23407 122 83 55
0.22290 -0.16570 0.25073 122 83 55
0.26413 -0.08587 0.25185 122 83 55
0.27552 0.00327 0.34932 122 83 55
0.26103 0.08823 0.37152 122 83 55
0.22297 0.16189 0.35064 122 83 55
0.16199 0.22289 0.36482 122 83 55
0.08724 0.26136 0.36814 122 83 55
-0.00547 0.27548 0.35566 122 83 55
-0.08047 0.26352 0.36470 122 83 55
-0.16272 0.22236 0.35786 122 83 55
-0.22202 0.16319 0.35525 122 83 55
-0.26355 0.08040 0.35905 122 83 55
-0.27549 0.00504 0.35011 122 83 55
-0.26166 -0.08635 0.35460 122 83 55
-0.22279 -0.16212 0.36054 122 83 55
-0.16336 -0.22189 0.35673 122 83 55
-0.08257 -0.26288 0.35008 122 83 55
0.00302 -0.27552 0.36504 122 83 55
0.08626 -0.26169 0.37088 122 83 55
0.16463 -0.22095 0.36604 122 83 55
0.22550 -0.15834 0.35585 122 83 55
0.26189 -0.08565 0.36056 122 83 55
0.26602 -0.00187 0.48856 122 83 55
0.25366 0.08019 0.46914 122 83 55
0.21800 0.15247 0.48905 122 83 55
0.15494 0.21625 0.48159 122 83 55
0.07854 0.25417 0.48008 122 83 55
0.00411 0.26600 0.46847 122 83 55
-0.08645 0.25159 0.47939 122 83 55
-0.15238 0.21806 0.47821 122 83 55
-0.21576 0.15562 0.47018 122 83 55
-0.25243 0.08396 0.47494 122 83 55
-0.26599 -0.00452 0.48761 122 83 55
-0.25346 -0.08080 0.48348 122 83 55
-0.21333 -0.15894 0.48126 122 83 55
-0.15272 -0.21782 0.47893 122 83 55
-0.08041 -0.25359 0.47378 122 83 55
0.00199 -0.26602 0.46969 122 83 55
0.08270 -0.25285 0.46807 122 83 55
0.15564 -0.21575 0.47918 122 83 55
0.21582 -0.15555 0.48591 122 83 55
0.25138 -0.08707 0.48728 122 83 55
0.25369 0.00003 0.59769 122 83 55
0.24257 0.07426 0.59440 122 83 55
0.20491 0.14956 0.59385 122 83 55
0.14881 0.20546 0.61169 122 83 55
0.07457 0.24248 0.59991 122 83 55
-0.00168 0.25368 0.60775 122 83 55
-0.07948 0.24091 0.59354 122 83 55
-0.14836 0.20578 0.59796 122 83 55
-0.20537 0.14893 0.58780 122 83 55
-0.24221 0.07544 0.59411 122 83 55
-0.25367 -0.00296 0.60654 122 83 55
-0.24239 -0.07487 0.59317 122 83 55
-0.20337 -0.15165 0.59871 122 83 55
-0.14631 -0.20724 0.60517 122 83 55
-0.07430 -0.24256 0.59988 122 83 55
-0.00012 -0.25369 0.60669 122 83 55
0.08264 -0.23985 0.60548 122 83 55
0.14747 -0.20642 0.61234 122 83 55
0.20556 -0.14867 0.60124 122 83 55
0.24275 -0.07368 0.58823 122 83 55
0.24427 -0.00448 0.72308 122 83 55
0.23103 0.07947 0.73243 122 83 55
0.19520 0.14693 0.70940 122 83 55
0.13998 0.20023 0.71370 122 83 55
0.07609 0.23216 0.71042 122 83 55
0.00246 0.24430 0.71121 122 83 55
-0.08003 0.23083 0.72507 122 83 55
-0.14061 0.19979 0.72890 122 83 55
-0.20028 0.13992 0.71760 122 83 55
-0.23299 0.07352 0.71474 122 83 55
-0.24431 -0.00028 0.72695 122 83 55
-0.23139 -0.07839 0.72604 122 83 55
-0.19854 -0.14237 0.72839 122 83 55
-0.14432 -0.19713 0.72852 122 83 55
-0.07741 -0.23172 0.71818 122 83 55
0.00157 -0.24431 0.72797 122 83 55
0.07676 -0.23194 0.72309 122 83 55
0.14222 -0.19865 0.71443 122 83 55
0.19611 -0.14570 0.71808 122 83 55
0.23362 -0.07148 0.73041 122 83 55
0.24231 0.00214 0.83660 122 83 55
0.23140 0.07192 0.85055 122 83 55
0.19445 0.14458 0.84912 122 83 55
0.14348 0.19527 0.85177 122 83 55
0.07141 0.23155 0.83694 122 83 55
-0.00305 0.24230 0.82870 122 83 55
-0.07187 0.23141 0.84438 122 83 55
-0.14333 0.19538 0.84099 122 83 55
-0.19547 0.14321 0.84895 122 83 55
-0.22939 0.07808 0.83488 122 83 55
-0.24228 -0.00402 0.85010 122 83 55
-0.23129 -0.07228 0.84301 122 83 55
-0.19713 -0.14091 0.84842 122 83 55
-0.14080 -0.19721 0.83744 122 83 55
-0.07773 -0.22951 0.84876 122 83 55
-0.00331 -0.24229 0.84722 122 83 55
0.07088 -0.23172 0.85141 122 83 55
0.14380 -0.19503 0.83317 122 83 55
0.19562 -0.14301 0.85231 122 83 55
0.23182 -0.07053 0.84359 122 83 55
0.24864 -0.00066 0.94900 122 83 55
0.23626 0.07748 0.95107 122 83 55
0.19887 0.14924 0.96579 122 83 55
0.14684 0.20065 0.96166 122 83 55
0.07863 0.23588 0.96228 122 83 55
0.00077 0.24864 0.96404 122 83 55
-0.07516 0.23700 0.97125 122 83 55
-0.14785 0.19990 0.96740 122 83 55
-0.20229 0.14456 0.96765 122 83 55
-0.23667 0.07621 0.95832 122 83 55
-0.24863 -0.00200 0.95698 122 83 55
-0.23692 -0.07541 0.96775 122 83 55
-0.20005 -0.14764 0.96751 122 83 55
-0.14252 -0.20374 0.96080 122 83 55
-0.07228 -0.23790 0.96704 122 83 55
-0.00066 -0.24864 0.94814 122 83 55
0.07718 -0.23635 0.95615 122 83 55
0.14236 -0.20385 0.94907 122 83 55
0.20381 -0.14242 0.97112 122 83 55
0.23682 -0.07573 0.96765 122 83 55
0.26029 0.00301 1.08105 122 83 55
0.24834 0.07800 1.06934 122 83 55
0.21246 0.15040 1.07972 122 83 55
0.15228 0.21111 1.08713 122 83 55
0.08081 0.24744 1.07442 122 83 55
0.00487 0.26026 1.08714 122 83 55
-0.08483 0.24609 1.07959 122 83 55
-0.14968 0.21296 1.08004 122 83 55
-0.20938 0.15466 1.08011 122 83 55
-0.24708 0.08190 1.07088 122 83 55
-0.26029 0.00269 1.08957 122 83 55
-0.24710 -0.08186 1.07614 122 83 55
-0.21299 -0.14964 1.07581 122 83 55
-0.14951 -0.21309 1.08312 122 83 55
-0.07594 -0.24898 1.08665 122 83 55
0.00022 -0.26030 1.08796 122 83 55
0.07618 -0.24891 1.09052 122 83 55
0.15571 -0.20859 1.07982 122 83 55
0.21336 -0.14912 1.07743 122 83 55
0.24811 -0.07875 1.07016 122 83 55
0.27182 -0.00241 1.19244 122 83 55
0.25722 0.08791 1.19218 122 83 55
0.22079 0.15856 1.18978 122 83 55
0.15602 0.22259 1.21160 122 83 55
0.08754 0.25734 1.19702 122 83 55
0.00126 0.27182 1.19154 122 83 55
-0.08690 0.25756 1.20998 122 83 55
-0.16309 0.21747 1.21027 122 83 55
-0.21708 0.16361 1.19549 122 83 55
-0.25869 0.08349 1.21187 122 83 55
-0.27182 -0.00206 1.18998 122 83 55
-0.25913 -0.08209 1.20609 122 83 55
-0.21730 -0.16331 1.20356 122 83 55
-0.16026 -0.21956 1.20522 122 83 55
-0.08064 -0.25959 1.20011 122 83 55
-0.00335 -0.27181 1.19641 122 83 55
0.08746 -0.25737 1.20552 122 83 55
0.15995 -0.21978 1.20492 122 83 55
0.22092 -0.15837 1.20207 122 83 55
0.25744 -0.08725 1.20938 122 83 55
0.27773 -0.00552 1.31862 122 83 55
0.26357 0.08772 1.32163 122 83 55
0.22186 0.16717 1.31718 122 83 55
0.16050 0.22673 1.31018 122 83 55
0.08730 0.26371 1.32778 122 83 55
-0.00474 0.27775 1.32212 122 83 55
-0.08330 0.26500 1.31502 122 83 55
-0.15948 0.22745 1.31497 122 83 55
-0.22507 0.16282 1.31556 122 83 55
-0.26445 0.08504 1.31598 122 83 55
-0.27777 -0.00289 1.32234 122 83 55
-0.26327 -0.08861 1.31272 122 83 55
-0.22250 -0.16631 1.31253 122 83 55
-0.16766 -0.22148 1.32505 122 83 55
-0.08257 -0.26523 1.32728 122 83 55
-0.00374 -0.27776 1.31980 122 83 55
0.08176 -0.26548 1.31787 122 83 55
0.15887 -0.22788 1.31070 122 83 55
0.22671 -0.16052 1.32889 122 83 55
0.26416 -0.08594 1.31745 122 83 55
0.27534 0.00513 1.44035 122 83 55
0.26132 0.08687 1.43393 122 83 55
0.22586 0.15755 1.43204 122 83 55
0.15934 0.22460 1.44699 122 83 55
0.08202 0.26288 1.43454 122 83 55
-0.00343 0.27536 1.44826 122 83 55
-0.08510 0.26190 1.43753 122 83 55
-0.16087 0.22351 1.43792 122 83 55
-0.21956 0.16623 1.43243 122 83 55
-0.26029 0.08991 1.45045 122 83 55
-0.27534 0.00494 1.42759 122 83 55
-0.26347 -0.08010 1.44372 122 83 55
-0.22421 -0.15989 1.44531 122 83 55
-0.16362 -0.22151 1.43900 122 83 55
-0.08762 -0.26107 1.44669 122 83 55
-0.00134 -0.27538 1.43561 122 83 55
0.08878 -0.26068 1.43594 122 83 55
0.15775 -0.22572 1.43053 122 83 55
0.22336 -0.16108 1.42761 122 83 55
0.26116 -0.08735 1.42899 122 83 55
0.26571 0.00450 1.56106 122 83 55
0.25143 0.08605 1.55891 122 83 55
0.21472 0.15658 1.56288 122 83 55
0.15649 0.21478 1.56777 122 83 55
0.08636 0.25132 1.55926 122 83 55
-0.00476 0.26570 1.55720 122 83 55
-0.08604 0.25143 1.57150 122 83 55
-0.15898 0.21294 1.56647 122 83 55
-0.21684 0.15363 1.55906 122 83 55
-0.25309 0.08103 1.57247 122 83 55
-0.26570 -0.00455 1.56096 122 83 55
-0.25335 -0.08020 1.56017 122 83 55
-0.21798 -0.15201 1.55738 122 83 55
-0.15232 -0.21776 1.56336 122 83 55
-0.07853 -0.25388 1.55965 122 83 55
-0.00172 -0.26574 1.56227 122 83 55
0.08468 -0.25189 1.56829 122 83 55
0.15783 -0.21380 1.55547 122 83 55
0.21283 -0.15913 1.56947 122 83 55
0.25364 -0.07928 1.55499 122 83 55
0.25338 0.00310 1.69213 122 83 55
0.24034 0.08032 1.67961 122 83 55
0.20742 0.14557 1.68883 122 83 55
0.14886 0.20507 1.68780 122 83 55
0.07840 0.24097 1.67980 122 83 55
0.00379 0.25337 1.66778 122 83 55
-0.07553 0.24189 1.68093 122 83 55
-0.14910 0.20489 1.68357 122 83 55
-0.20481 0.14922 1.66756 122 83 55
-0.24233 0.07408 1.68206 122 83 55
-0.25336 -0.00477 1.68740 122 83 55
-0.24074 -0.07911 1.67756 122 83 55
-0.20435 -0.14985 1.68196 122 83 55
-0.15116 -0.20338 1.67621 122 83 55
-0.07954 -0.24060 1.68717 122 83 55
0.00008 -0.25340 1.68926 122 83 55
0.08268 -0.23954 1.69022 122 83 55
0.15253 -0.20235 1.69016 122 83 55
0.20616 -0.14735 1.67573 122 83 55
0.24228 -0.07426 1.67695 122 83 55
0.24416 0.00185 1.79581 122 83 55
0.23312 0.07261 1.80229 122 83 55
0.19882 0.14173 1.78964 122 83 55
0.14251 0.19826 1.80021 122 83 55
0.07797 0.23138 1.80447 122 83 55
0.00300 0.24415 1.78949 122 83 55
-0.07410 0.23265 1.80142 122 83 55
-0.14395 0.19722 1.79008 122 83 55
-0.19658 0.14482 1.81038 122 83 55
-0.23271 0.07390 1.79509 122 83 55
-0.24412 -0.00473 1.80970 122 83 55
-0.23305 -0.07282 1.80220 122 83 55
-0.19862 -0.14201 1.80280 122 83 55
-0.14036 -0.19979 1.80457 122 83 55
-0.07080 -0.23367 1.79968 122 83 55
0.00270 -0.24415 1.80260 122 83 55
0.07310 -0.23297 1.79295 122 83 55
0.14190 -0.19870 1.80405 122 83 55
0.19490 -0.14707 1.79896 122 83 55
0.23265 -0.07409 1.81144 122 83 55
0.24237 -0.00151 1.91116 122 83 55
0.23038 0.07531 1.92169 122 83 55
0.19500 0.14395 1.92861 122 83 55
0.14111 0.19707 1.92948 122 83 55
0.07688 0.22986 1.92443 122 83 55
0.00190 0.24237 1.92677 122 83 55
-0.07543 0.23034 1.92459 122 83 55
-0.14532 0.19398 1.92239 122 83 55
-0.19705 0.14113 1.92423 122 83 55
-0.23045 0.07510 1.91172 122 83 55
-0.24237 -0.00069 1.92950 122 83 55
-0.22990 -0.07676 1.91286 122 83 55
-0.19593 -0.14267 1.90963 122 83 55
-0.14599 -0.19348 1.93183 122 83 55
-0.07745 -0.22967 1.92961 122 83 55
0.00466 -0.24233 1.93057 122 83 55
0.07831 -0.22938 1.91577 122 83 55
0.14214 -0.19632 1.92791 122 83 55
0.19849 -0.13910 1.91219 122 83 55
0.22976 -0.07718 1.91986 122 83 55
0.24887 -0.00166 2.03758 122 83 55
0.23645 0.07766 2.03162 122 83 55
0.20181 0.14564 2.04322 122 83 55
0.14383 0.20311 2.03036 122 83 55
0.07360 0.23774 2.04891 122 83 55
0.00277 0.24886 2.02872 122 83 55
-0.07448 0.23747 2.04032 122 83 55
-0.14390 0.20305 2.04034 122 83 55
-0.20081 0.14701 2.04186 122 83 55
-0.23579 0.07963 2.03011 122 83 55
-0.24886 0.00234 2.04111 122 83 55
-0.23692 -0.07619 2.03785 122 83 55
-0.19910 -0.14933 2.03651 122 83 55
-0.14993 -0.19864 2.05062 122 83 55
-0.07900 -0.23600 2.04171 122 83 55
-0.00002 -0.24887 2.03478 122 83 55
0.08039 -0.23553 2.03589 122 83 55
0.14286 -0.20379 2.04570 122 83 55
0.20231 -0.14494 2.03077 122 83 55
0.23751 -0.07436 2.03861 122 83 55
0.26060 0.00185 2.15137 122 83 55
0.24847 0.07860 2.15589 122 83 55
0.21317 0.14991 2.16861 122 83 55
0.15161 0.21196 2.15706 122 83 55
0.08257 0.24718 2.14824 122 83 55
-0.00199 0.26060 2.15904 122 83 55
-0.07952 0.24818 2.16182 122 83 55
-0.15032 0.21288 2.16051 122 83 55
-0.21058 0.15353 2.16167 122 83 55
-0.24636 0.08498 2.15547 122 83 55
-0.26059 0.00285 2.15806 122 83 55
-0.24784 -0.08057 2.15226 122 83 55
-0.20900 -0.15568 2.15797 122 83 55
-0.15304 -0.21093 2.16080 122 83 55
-0.08395 -0.24671 2.16128 122 83 55
0.00408 -0.26057 2.17157 122 83 55
0.07558 -0.24940 2.16618 122 83 55
0.15360 -0.21053 2.15673 122 83 55
0.21111 -0.15279 2.16716 122 83 55
0.24763 -0.08120 2.15451 122 83 55
0.27202 -0.00446 2.27992 122 83 55
0.25865 0.08433 2.27451 122 83 55
0.21936 0.16092 2.26893 122 83 55
0.15753 0.22180 2.27771 122 83 55
0.08187 0.25944 2.27962 122 83 55
-0.00399 0.27202 2.28632 122 83 55
-0.08425 0.25868 2.28343 122 83 55
-0.15775 0.22165 2.28477 122 83 55
-0.22033 0.15958 2.27503 122 83 55
-0.25960 0.08137 2.27938 122 83 55
-0.27205 -0.00010 2.27259 122 83 55
-0.25808 -0.08606 2.27063 122 83 55
-0.21891 -0.16152 2.26799 122 83 55
-0.16065 -0.21955 2.28796 122 83 55
-0.08750 -0.25760 2.28509 122 83 55
0.00138 -0.27205 2.27365 122 83 55
0.08123 -0.25964 2.28564 122 83 55
0.16339 -0.21752 2.28310 122 83 55
0.22121 -0.15837 2.26845 122 83 55
0.25775 -0.08705 2.27556 122 83 55
0.27782 0.00289 2.40882 122 83 55
0.26415 0.08611 2.39525 122 83 55
0.22695 0.16026 2.40137 122 83 55
0.16214 0.22561 2.40922 122 83 55
0.09086 0.26255 2.39584 122 83 55
-0.00347 0.27781 2.39463 122 83 55
-0.08186 0.26550 2.39639 122 83 55
-0.15954 0.22746 2.39913 122 83 55
-0.22541 0.16241 2.40155 122 83 55
-0.26247 0.09111 2.40449 122 83 55
-0.27780 -0.00416 2.39785 122 83 55
-0.26478 -0.08417 2.40985 122 83 55
-0.22381 -0.16462 2.39173 122 83 55
-0.16658 -0.22235 2.39708 122 83 55
-0.09007 -0.26283 2.40024 122 83 55
0.00383 -0.27780 2.40214 122 83 55
0.08834 -0.26341 2.40278 122 83 55
0.16504 -0.22350 2.39751 122 83 55
0.22438 -0.16384 2.41174 122 83 55
0.26386 -0.08700 2.39698 122 83 55
0.27521 0.00233 2.52176 122 83 55
0.26066 0.08834 2.52043 122 83 55
0.22490 0.15865 2.51318 122 83 55
0.16297 0.22179 2.52238 122 83 55
0.08357 0.26223 2.51166 122 83 55
0.00495 0.27518 2.51445 122 83 55
-0.08846 0.26062 2.51222 122 83 55
-0.16208 0.22243 2.51798 122 83 55
-0.22465 0.15900 2.53207 122 83 55
-0.26241 0.08301 2.51444 122 83 55
-0.27520 0.00352 2.51796 122 83 55
-0.26203 -0.08418 2.52247 122 83 55
-0.22077 -0.16434 2.53012 122 83 55
-0.16011 -0.22386 2.52659 122 83 55
-0.08093 -0.26306 2.51074 122 83 55
-0.00330 -0.27520 2.51889 122 83 55
0.08572 -0.26154 2.52674 122 83 55
0.15778 -0.22551 2.52137 122 83 55
0.22276 -0.16163 2.53230 122 83 55
0.26083 -0.08785 2.51263 122 83 55
0.26545 0.00231 2.64823 122 83 55
0.25097 0.08649 2.63416 122 83 55
0.21507 0.15560 2.64631 122 83 55
0.15976 0.21200 2.64233 122 83 55
0.08010 0.25308 2.62815 122 83 55
0.00333 0.26544 2.64886 122 83 55
-0.08677 0.25087 2.64412 122 83 55
-0.15228 0.21743 2.64853 122 83 55
-0.21216 0.15954 2.62950 122 83 55
-0.25231 0.08249 2.63916 122 83 55
-0.26545 0.00182 2.64587 122 83 55
-0.25212 -0.08307 2.65022 122 83 55
-0.21744 -0.15227 2.63728 122 83 55
-0.15210 -0.21756 2.64272 122 83 55
-0.07793 -0.25376 2.64692 122 83 55
0.00281 -0.26544 2.62908 122 83 55
0.08459 -0.25162 2.64622 122 83 55
0.15777 -0.21348 2.64315 122 83 55
0.21436 -0.15658 2.63455 122 83 55
0.25301 -0.08032 2.64666 122 83 55
0.25311 0.00283 2.76901 122 83 55
0.24118 0.07682 2.75974 122 83 55
0.20602 0.14706 2.75004 122 83 55
0.15025 0.20371 2.76926 122 83 55
0.07518 0.24170 2.76471 122 83 55
-0.00092 0.25312 2.77009 122 83 55
-0.08132 0.23971 2.77100 122 83 55
-0.14498 0.20749 2.75070 122 83 55
-0.20305 0.15113 2.76247 122 83 55
-0.23939 0.08225 2.76549 122 83 55
-0.25311 -0.00275 2.76402 122 83 55
-0.24092 -0.07763 2.74789 122 83 55
-0.20365 -0.15032 2.75568 122 83 55
-0.14471 -0.20768 2.76414 122 83 55
-0.07589 -0.24148 2.75770 122 83 55
0.00491 -0.25308 2.76918 122 83 55
0.07419 -0.24201 2.76630 122 83 55
0.14536 -0.20723 2.75717 122 83 55
0.20613 -0.14691 2.76088 122 83 55
0.23945 -0.08207 2.75553 122 83 55
0.24400 -0.00327 2.87956 122 83 55
0.23259 0.07383 2.88747 122 83 55
0.19618 0.14512 2.87629 122 83 55
0.14077 0.19933 2.86952 122 83 55
0.07523 0.23214 2.87399 122 83 55
0.00352 0.24400 2.88638 122 83 55
-0.07387 0.23257 2.88443 122 83 55
-0.14040 0.19959 2.89218 122 83 55
-0.19728 0.14362 2.87175 122 83 55
-0.23090 0.07894 2.86808 122 83 55
-0.24402 -0.00088 2.87285 122 83 55
-0.23197 -0.07575 2.87755 122 83 55
-0.19957 -0.14042 2.88421 122 83 55
-0.14420 -0.19686 2.88195 122 83 55
-0.07418 -0.23247 2.88562 122 83 55
0.00207 -0.24402 2.89018 122 83 55
0.07404 -0.23252 2.87798 122 83 55
0.14379 -0.19716 2.87259 122 83 55
0.19805 -0.14257 2.86825 122 83 55
0.23121 -0.07805 2.87532 122 83 55
0.24239 -0.00469 3.01109 122 83 55
0.22910 0.07931 2.99777 122 83 55
0.19569 0.14312 3.00781 122 83 55
0.14595 0.19359 3.01199 122 83 55
0.07870 0.22931 2.98962 122 83 55
0.00464 0.24239 3.00409 122 83 55
-0.07463 0.23067 2.99342 122 83 55
-0.14438 0.19476 2.99889 122 83 55
-0.19857 0.13909 2.99454 122 83 55
-0.23050 0.07514 3.01057 122 83 55
-0.24241 0.00367 2.99708 122 83 55
-0.22947 -0.07822 2.99801 122 83 55
-0.19553 -0.14333 3.00396 122 83 55
-0.14052 -0.19756 2.99993 122 83 55
-0.07602 -0.23021 2.99972 122 83 55
-0.00207 -0.24243 3.01118 122 83 55
0.07260 -0.23131 3.01059 122 83 55
0.14314 -0.19567 2.99276 122 83 55
0.19472 -0.14443 2.98761 122 83 55
0.23175 -0.07119 2.98936 122 83 55
0.24911 0.00013 3.10958 122 83 55
0.23756 0.07498 3.12952 122 83 55
0.20366 0.14345 3.11917 122 83 55
0.14319 0.20385 3.12476 122 83 55
0.08105 0.23556 3.13166 122 83 55
-0.00112 0.24911 3.11024 122 83 55
-0.07298 0.23818 3.11191 122 83 55
-0.14748 0.20077 3.12575 122 83 55
-0.19958 0.14908 3.12158 122 83 55
-0.23567 0.08072 3.11717 122 83 55
-0.24909 0.00337 3.12485 122 83 55
-0.23826 -0.07271 3.12466 122 83 55
-0.20284 -0.14462 3.11190 122 83 55
-0.14978 -0.19906 3.12018 122 83 55
-0.07342 -0.23805 3.11116 122 83 55
0.00190 -0.24911 3.11825 122 83 55
0.07934 -0.23614 3.11699 122 83 55
0.14355 -0.20359 3.11491 122 83 55
0.20213 -0.14560 3.11615 122 83 55
0.23601 -0.07972 3.11618 122 83 55
0.26091 0.00105 3.24750 122 83 55
0.24890 0.07825 3.24386 122 83 55
0.21318 0.15042 3.24556 122 83 55
0.15328 0.21114 3.24711 122 83 55
0.08258 0.24750 3.24499 122 83 55
0.00105 0.26091 3.25023 122 83 55
-0.07921 0.24859 3.22913 122 83 55
-0.15252 0.21169 3.24774 122 83 55
-0.21215 0.15187 3.23699 122 83 55
-0.24891 0.07820 3.23951 122 83 55
-0.26090 -0.00234 3.22958 122 83 55
-0.24699 -0.08407 3.23459 122 83 55
-0.20911 -0.15603 3.23729 122 83 55
-0.15372 -0.21082 3.24900 122 83 55
-0.08398 -0.24702 3.24678 122 83 55
0.00274 -0.26089 3.23364 122 83 55
0.07674 -0.24937 3.24159 122 83 55
0.14919 -0.21405 3.25005 122 83 55
0.21266 -0.15116 3.24233 122 83 55
0.24771 -0.08194 3.24274 122 83 55
0.27226 -0.00237 3.36842 122 83 55
0.26035 0.07971 3.35819 122 83 55
0.21940 0.16124 3.35938 122 83 55
0.16339 0.21780 3.35189 122 83 55
0.08373 0.25908 3.37044 122 83 55
-0.00522 0.27223 3.35097 122 83 55
-0.08775 0.25775 3.36284 122 83 55
-0.15730 0.22224 3.37125 122 83 55
-0.22186 0.15784 3.36601 122 83 55
-0.25972 0.08173 3.36874 122 83 55
-0.27227 0.00151 3.34979 122 83 55
-0.25884 -0.08447 3.36705 122 83 55
-0.21901 -0.16177 3.36602 122 83 55
-0.15926 -0.22084 3.34812 122 83 55
-0.08853 -0.25748 3.35536 122 83 55
-0.00036 -0.27228 3.35524 122 83 55
0.08308 -0.25929 3.37116 122 83 55
0.15742 -0.22215 3.36335 122 83 55
0.22300 -0.15622 3.35375 122 83 55
0.26018 -0.08024 3.35300 122 83 55
0.27787 -0.00030 3.48938 122 83 55
0.26482 0.08415 3.47548 122 83 55
0.22763 0.15936 3.47972 122 83 55
0.15945 0.22757 3.48806 122 83 55
0.08487 0.26459 3.47373 122 83 55
0.00426 0.27784 3.48929 122 83 55
-0.08076 0.26588 3.47023 122 83 55
-0.16231 0.22554 3.49079 122 83 55
-0.22788 0.15900 3.48049 122 83 55
-0.26550 0.08198 3.46807 122 83 55
-0.27782 0.00503 3.47659 122 83 55
-0.26440 -0.08546 3.46915 122 83 55
-0.22178 -0.16740 3.47262 122 83 55
-0.16325 -0.22486 3.48122 122 83 55
-0.08650 -0.26406 3.47171 122 83 55
-0.00293 -0.27785 3.49143 122 83 55
0.08694 -0.26392 3.46853 122 83 55
0.16341 -0.22474 3.48466 122 83 55
0.22764 -0.15934 3.47784 122 83 55
0.26481 -0.08417 3.47681 122 83 55
0.27506 -0.00092 3.61113 122 83 55
0.26194 0.08395 3.60900 122 83 55
0.22436 0.15913 3.58950 122 83 55
0.16533 0.21983 3.59371 122 83 55
0.08935 0.26014 3.60724 122 83 55
-0.00393 0.27503 3.60563 122 83 55
-0.08381 0.26198 3.59181 122 83 55
-0.16074 0.22320 3.59101 122 83 55
-0.22110 0.16362 3.61225 122 83 55
-0.26107 0.08660 3.60051 122 83 55
-0.27506 -0.00143 3.59906 122 83 55
-0.26106 -0.08663 3.61200 122 83 55
-0.22211 -0.16225 3.61018 122 83 55
-0.16323 -0.22139 3.60581 122 83 55
-0.08155 -0.26269 3.58865 122 83 55
-0.00139 -0.27506 3.59123 122 83 55
0.08287 -0.26228 3.58897 122 83 55
0.15729 -0.22565 3.58943 122 83 55
0.22122 -0.16346 3.60531 122 83 55
0.26084 -0.08728 3.60909 122 83 55
0.26516 0.00169 3.71110 122 83 55
0.25149 0.08406 3.72723 122 83 55
0.21409 0.15646 3.71063 122 83 55
0.15412 0.21578 3.72926 122 83 55
0.07982 0.25287 3.72959 122 83 55
-0.00230 0.26516 3.71311 122 83 55
-0.07921 0.25306 3.72793 122 83 55
-0.15568 0.21466 3.71896 122 83 55
-0.21461 0.15575 3.72421 122 83 55
-0.25302 0.07934 3.72697 122 83 55
-0.26514 -0.00357 3.73243 122 83 55
-0.25235 -0.08144 3.72701 122 83 55
-0.21558 -0.15440 3.70807 122 83 55
-0.15997 -0.21148 3.71034 122 83 55
-0.07806 -0.25342 3.71170 122 83 55
0.00010 -0.26517 3.71966 122 83 55
0.08565 -0.25095 3.72950 122 83 55
0.15773 -0.21315 3.72498 122 83 55
0.21662 -0.15293 3.72148 122 83 55
0.25122 -0.08486 3.72432 122 83 55
0.25284 0.00097 3.84427 122 83 55
0.24121 0.07580 3.84416 122 83 55
0.20610 0.14646 3.83678 122 83 55
0.14499 0.20714 3.83104 122 83 55
0.08177 0.23926 3.83307 122 83 55
-0.00423 0.25281 3.85186 122 83 55
-0.08138 0.23939 3.84827 122 83 55
-0.14993 0.20360 3.85179 122 83 55
-0.20532 0.14756 3.83934 122 83 55
-0.23929 0.08166 3.84969 122 83 55
-0.25282 -0.00352 3.82904 122 83 55
-0.24138 -0.07528 3.83762 122 83 55
-0.20522 -0.14770 3.85242 122 83 55
-0.15014 -0.20344 3.84671 122 83 55
-0.08098 -0.23952 3.84663 122 83 55
-0.00372 -0.25282 3.82856 122 83 55
0.07629 -0.24106 3.83598 122 83 55
0.14657 -0.20602 3.83196 122 83 55
0.20699 -0.14521 3.84538 122 83 55
0.23940 -0.08134 3.83639 122 83 55
0.24389 0.00069 3.95178 122 83 55
0.23324 0.07127 3.95491 122 83 55
0.19745 0.14316 3.94910 122 83 55
0.14598 0.19537 3.96017 122 83 55
0.07703 0.23140 3.95377 122 83 55
-0.00199 0.24388 3.96366 122 83 55
-0.07385 0.23244 3.95904 122 83 55
-0.14480 0.19625 3.95961 122 83 55
-0.19681 0.14404 3.95243 122 83 55
-0.23062 0.07934 3.95096 122 83 55
-0.24389 0.00064 3.97218 122 83 55
-0.23319 -0.07142 3.96131 122 83 55
-0.19883 -0.14123 3.94950 122 83 55
-0.14242 -0.19798 3.95803 122 83 55
-0.07270 -0.23280 3.96987 122 83 55
-0.00319 -0.24387 3.94765 122 83 55
0.07598 -0.23175 3.96797 122 83 55
0.14397 -0.19686 3.96125 122 83 55
0.19531 -0.14606 3.95169 122 83 55
0.23200 -0.07521 3.95369 122 83 55
0.24251 0.00045 4.07743 122 83 55
0.22996 0.07700 4.09161 122 83 55
0.19470 0.14458 4.08972 122 83 55
0.14517 0.19426 4.07175 122 83 55
0.07354 0.23109 4.08968 122 83 55
-0.00195 0.24250 4.08695 122 83 55
-0.07099 0.23189 4.07805 122 83 55
-0.13890 0.19879 4.08883 122 83 55
-0.19771 0.14043 4.07467 122 83 55
-0.23186 0.07106 4.07709 122 83 55
-0.24250 -0.00144 4.07768 122 83 55
-0.22951 -0.07833 4.08189 122 83 55
-0.19720 -0.14115 4.07181 122 83 55
-0.14640 -0.19333 4.07673 122 83 55
-0.07910 -0.22924 4.08162 122 83 55
0.00153 -0.24250 4.07086 122 83 55
0.07463 -0.23074 4.07146 122 83 55
0.14509 -0.19432 4.08612 122 83 55
0.19786 -0.14022 4.07543 122 83 55
0.23136 -0.07268 4.07957 122 83 55
0.24935 -0.00171 4.19189 122 83 55
0.23846 0.07289 4.19963 122 83 55
0.20219 0.14594 4.19299 122 83 55
0.14730 0.20120 4.20436 122 83 55
0.07864 0.23663 4.20145 122 83 55
0.00142 0.24935 4.19708 122 83 55
-0.07762 0.23697 4.19257 122 83 55
-0.14292 0.20433 4.19063 122 83 55
-0.20216 0.14597 4.21106 122 83 55
-0.23562 0.08162 4.19287 122 83 55
-0.24932 0.00408 4.20330 122 83 55
-0.23582 -0.08103 4.19214 122 83 55
-0.20317 -0.14456 4.21207 122 83 55
-0.14833 -0.20044 4.19296 122 83 55
-0.07818 -0.23678 4.19187 122 83 55
-0.00081 -0.24935 4.18808 122 83 55
0.07405 -0.23811 4.20937 122 83 55
0.14371 -0.20378 4.20963 122 83 55
0.20205 -0.14613 4.19957 122 83 55
0.23854 -0.07264 4.20807 122 83 55
0.26121 -0.00149 4.32482 122 83 55
0.24752 0.08345 4.30911 122 83 55
0.20920 0.15641 4.32465 122 83 55
0.15431 0.21076 4.31487 122 83 55
0.08006 0.24864 4.32107 122 83 55
0.00074 0.26121 4.31692 122 83 55
-0.08556 0.24680 4.32498 122 83 55
-0.14952 0.21418 4.31992 122 83 55
-0.20881 0.15693 4.32058 122 83 55
-0.24677 0.08565 4.33111 122 83 55
-0.26120 -0.00237 4.31605 122 83 55
-0.24977 -0.07646 4.33175 122 83 55
-0.21148 -0.15332 4.31999 122 83 55
-0.15695 -0.20880 4.31831 122 83 55
-0.08266 -0.24779 4.31421 122 83 55
0.00391 -0.26118 4.31211 122 83 55
0.07862 -0.24910 4.32489 122 83 55
0.15486 -0.21035 4.31752 122 83 55
0.20876 -0.15700 4.32535 122 83 55
0.24849 -0.08051 4.31504 122 83 55
0.27245 -0.00473 4.42977 122 83 55
0.26016 0.08106 4.45182 122 83 55
0.22229 0.15760 4.42873 122 83 55
0.16370 0.21785 4.43358 122 83 55
0.08730 0.25813 4.44335 122 83 55
-0.00047 0.27249 4.44776 122 83 55
-0.08217 0.25981 4.43130 122 83 55
-0.15999 0.22058 4.42947 122 83 55
-0.22343 0.15599 4.43422 122 83 55
-0.25805 0.08754 4.43770 122 83 55
-0.27248 0.00246 4.44214 122 83 55
-0.25849 -0.08625 4.44556 122 83 55
-0.21986 -0.16098 4.44682 122 83 55
-0.16344 -0.21804 4.44485 122 83 55
-0.08782 -0.25796 4.44241 122 83 55
0.00390 -0.27247 4.45101 122 83 55
0.08265 -0.25966 4.43764 122 83 55
0.15945 -0.22097 4.45122 122 83 55
0.22355 -0.15582 4.45045 122 83 55
0.25960 -0.08284 4.44442 122 83 55
0.27789 0.00321 4.55684 122 83 55
0.26564 0.08164 4.54829 122 83 55
0.22251 0.16650 4.55729 122 83 55
0.16510 0.22355 4.56463 122 83 55
0.08099 0.26584 4.55010 122 83 55
-0.00350 0.27788 4.57055 122 83 55
-0.08938 0.26314 4.55742 122 83 55
-0.16231 0.22558 4.55946 122 83 55
-0.22641 0.16115 4.55586 122 83 55
-0.26580 0.08112 4.56183 122 83 55
-0.27788 0.00386 4.54992 122 83 55
-0.26333 -0.08882 4.56215 122 83 55
-0.22667 -0.16078 4.54777 122 83 55
-0.16487 -0.22372 4.54948 122 83 55
-0.08771 -0.26370 4.55986 122 83 55
0.00030 -0.27790 4.55071 122 83 55
0.08159 -0.26566 4.54759 122 83 55
0.16341 -0.22478 4.55130 122 83 55
0.22401 -0.16447 4.55502 122 83 55
0.26291 -0.09005 4.56504 122 83 55
0.27488 -0.00278 4.68324 122 83 55
0.26122 0.08562 4.69032 122 83 55
0.22489 0.15808 4.68295 122 83 55
0.16355 0.22095 4.68180 122 83 55
0.08768 0.26053 4.69232 122 83 55
-0.00030 0.27489 4.69241 122 83 55
-0.08475 0.26150 4.67830 122 83 55
-0.16190 0.22216 4.67223 122 83 55
-0.22540 0.15736 4.67081 122 83 55
-0.26079 0.08692 4.69165 122 83 55
-0.27484 -0.00536 4.69052 122 83 55
-0.26286 -0.08043 4.66768 122 83 55
-0.22320 -0.16046 4.69221 122 83 55
-0.16389 -0.22070 4.66857 122 83 55
-0.08869 -0.26019 4.68182 122 83 55
-0.00194 -0.27489 4.68296 122 83 55
0.08126 -0.26261 4.67183 122 83 55
0.15822 -0.22479 4.67117 122 83 55
0.21915 -0.16595 4.67044 122 83 55
0.26007 -0.08904 4.67253 122 83 55
0.26487 0.00091 4.80161 122 83 55
0.25053 0.08598 4.79372 122 83 55
0.21248 0.15815 4.79428 122 83 55
0.15765 0.21285 4.79451 122 83 55
0.08241 0.25173 4.80500 122 83 55
-0.00402 0.26485 4.78848 122 83 55
-0.08189 0.25190 4.79482 122 83 55
-0.15940 0.21154 4.80749 122 83 55
-0.21670 0.15232 4.81238 122 83 55
-0.25163 0.08272 4.81011 122 83 55
-0.26487 -0.00198 4.79634 122 83 55
-0.25256 -0.07984 4.80012 122 83 55
-0.21430 -0.15568 4.80666 122 83 55
-0.15711 -0.21325 4.79294 122 83 55
-0.08503 -0.25086 4.80544 122 83 55
0.00526 -0.26482 4.80355 122 83 55
0.07996 -0.25252 4.78920 122 83 55
0.15812 -0.21250 4.81112 122 83 55
0.21731 -0.15144 4.80592 122 83 55
0.25028 -0.08672 4.81170 122 83 55
0.25252 0.00483 4.91614 122 83 55
0.23960 0.07990 4.92144 122 83 55
0.20626 0.14576 4.92396 122 83 55
0.15095 0.20250 4.90928 122 83 55
0.07389 0.24152 4.92988 122 83 55
-0.00290 0.25255 4.91410 122 83 55
-0.08105 0.23921 4.91355 122 83 55
-0.14651 0.20573 4.90770 122 83 55
-0.20520 0.14725 4.91105 122 83 55
-0.23916 0.08119 4.92121 122 83 55
-0.25253 0.00429 4.91232 122 83 55
-0.24034 -0.07763 4.91371 122 83 55
-0.20157 -0.15218 4.92566 122 83 55
-0.14865 -0.20419 4.90815 122 83 55
-0.08019 -0.23950 4.91763 122 83 55
0.00195 -0.25256 4.93093 122 83 55
0.07736 -0.24043 4.91762 122 83 55
0.14890 -0.20401 4.92268 122 83 55
0.20165 -0.15207 4.90799 122 83 55
0.23958 -0.07995 4.91912 122 83 55
0.24374 0.00285 5.04656 122 83 55
0.23104 0.07770 5.05195 122 83 55
0.19670 0.14396 5.03478 122 83 55
0.14463 0.19621 5.03633 122 83 55
0.07569 0.23170 5.04596 122 83 55
-0.00253 0.24374 5.03725 122 83 55
-0.07880 0.23067 5.03430 122 83 55
-0.14243 0.19781 5.03883 122 83 55
-0.19477 0.14656 5.05163 122 83 55
-0.23315 0.07111 5.04657 122 83 55
-0.24372 0.00399 5.03512 122 83 55
-0.23295 -0.07177 5.03882 122 83 55
-0.19909 -0.14064 5.05042 122 83 55
-0.14405 -0.19664 5.03009 122 83 55
-0.07086 -0.23323 5.03576 122 83 55
-0.00382 -0.24372 5.04504 122 83 55
0.07800 -0.23094 5.04933 122 83 55
0.14218 -0.19799 5.03328 122 83 55
0.19627 -0.14454 5.02765 122 83 55
0.23184 -0.07527 5.03610 122 83 55
0.24258 -0.00176 5.16487 122 83 55
0.23113 0.07364 5.16801 122 83 55
0.19600 0.14293 5.16339 122 83 55
0.14572 0.19394 5.16665 122 83 55
0.07724 0.22996 5.15780 122 83 55
-0.00314 0.24256 5.16634 122 83 55
-0.07172 0.23174 5.17045 122 83 55
-0.14642 0.19341 5.15644 122 83 55
-0.19387 0.14581 5.16307 122 83 55
-0.23016 0.07664 5.16722 122 83 55
-0.24258 -0.00041 5.15999 122 83 55
-0.22963 -0.07820 5.16204 122 83 55
-0.19766 -0.14063 5.16520 122 83 55
-0.14431 -0.19499 5.16088 122 83 55
-0.07341 -0.23121 5.15613 122 83 55
0.00190 -0.24257 5.15653 122 83 55
0.07143 -0.23183 5.16889 122 83 55
0.14153 -0.19702 5.16617 122 83 55
0.19800 -0.14015 5.17047 122 83 55
0.22997 -0.07720 5.16690 122 83 55
0.24956 -0.00437 5.28998 122 83 55
0.23788 0.07559 5.29062 122 83 55
0.20232 0.14617 5.27200 122 83 55
0.14335 0.20433 5.26928 122 83 55
0.07628 0.23766 5.29170 122 83 55
-0.00024 0.24960 5.27334 122 83 55
-0.07333 0.23859 5.27719 122 83 55
-0.14399 0.20388 5.29205 122 83 55
-0.20209 0.14650 5.29125 122 83 55
-0.23839 0.07398 5.28576 122 83 55
-0.24960 0.00063 5.28551 122 83 55
-0.23680 -0.07891 5.27663 122 83 55
-0.20326 -0.14486 5.28666 122 83 55
-0.14810 -0.20092 5.29010 122 83 55
-0.08034 -0.23632 5.28522 122 83 55
0.00445 -0.24956 5.27123 122 83 55
0.07343 -0.23855 5.27903 122 83 55
0.14578 -0.20260 5.28076 122 83 55
0.20009 -0.14922 5.27948 122 83 55
0.23696 -0.07841 5.28233 122 83 55
