ply
format ascii 1.0
comment SIMULATED DEMO - NOT FIELD EVIDENCE
element vertex 900
property float x
property float y
property float z
property uchar red
property uchar green
property uchar blue
end_header
0.26000 0.00048 0.01012 122 83 55
0.24717 0.08065 -0.00408 122 83 55
0.21067 0.15237 -0.00251 122 83 55
0.15663 0.20753 -0.00912 122 83 55
0.08527 0.24562 -0.00680 122 83 55
0.00480 0.25996 0.00395 122 83 55
-0.07784 0.24807 -0.01171 122 83 55
-0.15005 0.21233 -0.00003 122 83 55
-0.21287 0.14929 -0.01114 122 83 55
-0.24760 0.07935 0.00516 122 83 55
-0.25998 -0.00344 -0.01194 122 83 55
-0.24628 -0.08333 -0.01226 122 83 55
-0.20771 -0.15638 0.00543 122 83 55
-0.14981 -0.21250 -0.00261 122 83 55
-0.08165 -0.24685 -0.00933 122 83 55
0.00259 -0.25999 0.00142 122 83 55
0.07983 -0.24744 -0.00458 122 83 55
0.15309 -0.21015 0.01178 122 83 55
0.20858 -0.15522 -0.00225 122 83 55
0.24704 -0.08106 0.00327 122 83 55
0.27155 -0.00486 0.11549 122 83 55
0.25935 0.08063 0.12468 122 83 55
0.21869 0.16106 0.11055 122 83 55
0.16170 0.21822 0.12067 122 83 55
0.08784 0.25700 0.11283 122 83 55
-0.00268 0.27158 0.10853 122 83 55
-0.07891 0.25988 0.12344 122 83 55
-0.16318 0.21711 0.11031 122 83 55
-0.22176 0.15680 0.11323 122 83 55
-0.25969 0.07953 0.12182 122 83 55
-0.27155 -0.00522 0.11897 122 83 55
-0.25917 -0.08121 0.11148 122 83 55
-0.22032 -0.15882 0.11062 122 83 55
-0.16096 -0.21876 0.11316 122 83 55
-0.08548 -0.25779 0.11448 122 83 55
-0.00290 -0.27158 0.11334 122 83 55
0.08718 -0.25722 0.10826 122 83 55
0.16042 -0.21915 0.11432 122 83 55
0.21665 -0.16379 0.11028 122 83 55
0.25863 -0.08291 0.11130 122 83 55
0.27774 0.00092 0.23639 122 83 55
0.26257 0.09052 0.24746 122 83 55
0.22580 0.16173 0.23935 122 83 55
0.16563 0.22295 0.25250 122 83 55
0.09029 0.26265 0.24656 122 83 55
0.00464 0.27770 0.24627 122 83 55
-0.08747 0.26360 0.24369 122 83 55
-0.16337 0.22461 0.24527 122 83 55
-0.22161 0.16741 0.23239 122 83 55
-0.26396 0.08638 0.24132 122 83 55
-0.27774 0.00117 0.25214 122 83 55
-0.26459 -0.08445 0.23270 122 83 55
-0.22523 -0.16251 0.25202 122 83 55
-0.16302 -0.22486 0.23439 122 83 55
-0.08889 -0.26313 0.23484 122 83 55
-0.00340 -0.27772 0.23031 122 83 55
0.08664 -0.26388 0.25205 122 83 55
0.16672 -0.22213 0.23683 122 83 55
0.22538 -0.16231 0.23419 122 83 55
0.26432 -0.08529 0.22767 122 83 55
0.27553 0.00258 0.36802 122 83 55
0.26348 0.08062 0.37211 122 83 55
0.22090 0.16469 0.37239 122 83 55
0.16014 0.22423 0.35421 122 83 55
0.08234 0.26295 0.35156 122 83 55
0.00287 0.27552 0.36729 122 83 55
-0.09004 0.26041 0.36059 122 83 55
-0.16595 0.21996 0.35900 122 83 55
-0.22173 0.16358 0.34896 122 83 55
-0.26274 0.08299 0.35865 122 83 55
-0.27553 -0.00187 0.35953 122 83 55
-0.26109 -0.08806 0.35465 122 83 55
-0.22479 -0.15934 0.35644 122 83 55
-0.16448 -0.22106 0.36131 122 83 55
-0.08255 -0.26288 0.36678 122 83 55
0.00353 -0.27552 0.35023 122 83 55
0.08164 -0.26316 0.35186 122 83 55
0.15818 -0.22561 0.35302 122 83 55
0.22244 -0.16261 0.35556 122 83 55
0.26251 -0.08374 0.34828 122 83 55
0.26600 0.00395 0.47809 122 83 55
0.25431 0.07810 0.47186 122 83 55
0.21352 0.15868 0.49008 122 83 55
0.15814 0.21392 0.48088 122 83 55
0.08422 0.25235 0.47788 122 83 55
0.00212 0.26602 0.47815 122 83 55
-0.08154 0.25323 0.49248 122 83 55
-0.15878 0.21345 0.48478 122 83 55
-0.21462 0.15720 0.48035 122 83 55
-0.25309 0.08196 0.48032 122 83 55
-0.26602 -0.00260 0.48629 122 83 55
-0.25395 -0.07926 0.49057 122 83 55
-0.21786 -0.15267 0.48895 122 83 55
-0.15414 -0.21683 0.47491 122 83 55
-0.08643 -0.25160 0.49152 122 83 55
0.00358 -0.26601 0.47594 122 83 55
0.08162 -0.25320 0.47108 122 83 55
0.15496 -0.21624 0.47558 122 83 55
0.21568 -0.15573 0.47124 122 83 55
0.25434 -0.07799 0.48301 122 83 55
0.25369 -0.00018 0.59924 122 83 55
0.23988 0.08255 0.60620 122 83 55
0.20754 0.14590 0.60474 122 83 55
0.15046 0.20425 0.59969 122 83 55
0.07429 0.24256 0.59371 122 83 55
0.00141 0.25368 0.60805 122 83 55
-0.07996 0.24075 0.61232 122 83 55
-0.14572 0.20766 0.60513 122 83 55
-0.20513 0.14926 0.59182 122 83 55
-0.24033 0.08123 0.61098 122 83 55
-0.25365 -0.00426 0.60654 122 83 55
-0.24113 -0.07883 0.60419 122 83 55
-0.20582 -0.14830 0.59379 122 83 55
-0.15125 -0.20366 0.59377 122 83 55
-0.08094 -0.24043 0.59510 122 83 55
0.00041 -0.25369 0.60107 122 83 55
0.07648 -0.24188 0.61013 122 83 55
0.15056 -0.20418 0.60838 122 83 55
0.20751 -0.14593 0.61026 122 83 55
0.24056 -0.08055 0.61188 122 83 55
0.24431 -0.00143 0.71058 122 83 55
0.23316 0.07297 0.71844 122 83 55
0.19682 0.14474 0.71484 122 83 55
0.14727 0.19494 0.71633 122 83 55
0.07317 0.23310 0.72462 122 83 55
-0.00462 0.24427 0.72669 122 83 55
-0.07704 0.23185 0.70974 122 83 55
-0.14515 0.19652 0.72354 122 83 55
-0.19765 0.14360 0.71859 122 83 55
-0.23089 0.07986 0.71651 122 83 55
-0.24430 -0.00182 0.71809 122 83 55
-0.23355 -0.07170 0.72676 122 83 55
-0.19747 -0.14385 0.72428 122 83 55
-0.14704 -0.19511 0.70752 122 83 55
-0.07528 -0.23242 0.72087 122 83 55
-0.00350 -0.24429 0.72235 122 83 55
0.07186 -0.23351 0.71916 122 83 55
0.14425 -0.19718 0.72522 122 83 55
0.19998 -0.14034 0.71921 122 83 55
0.23330 -0.07252 0.71765 122 83 55
0.24232 0.00058 0.83318 122 83 55
0.23172 0.07087 0.83476 122 83 55
0.19532 0.14341 0.84815 122 83 55
0.13903 0.19846 0.82799 122 83 55
0.07657 0.22990 0.83202 122 83 55
-0.00378 0.24229 0.83867 122 83 55
-0.07889 0.22911 0.84200 122 83 55
-0.14400 0.19489 0.83779 122 83 55
-0.19471 0.14424 0.85206 122 83 55
-0.22914 0.07882 0.83873 122 83 55
-0.24231 0.00130 0.85128 122 83 55
-0.23141 -0.07187 0.85065 122 83 55
-0.19642 -0.14190 0.83682 122 83 55
-0.13985 -0.19789 0.83688 122 83 55
-0.07247 -0.23123 0.83619 122 83 55
-0.00071 -0.24231 0.82855 122 83 55
0.07879 -0.22915 0.84992 122 83 55
0.14589 -0.19348 0.85018 122 83 55
0.19704 -0.14104 0.83669 122 83 55
0.23073 -0.07404 0.84510 122 83 55
0.24863 -0.00241 0.96473 122 83 55
0.23503 0.08113 0.96485 122 83 55
0.20361 0.14271 0.96905 122 83 55
0.14455 0.20230 0.95289 122 83 55
0.07266 0.23778 0.95550 122 83 55
0.00358 0.24861 0.95438 122 83 55
-0.07527 0.23697 0.94911 122 83 55
-0.14468 0.20221 0.96481 122 83 55
-0.20054 0.14699 0.96502 122 83 55
-0.23593 0.07846 0.96165 122 83 55
-0.24864 -0.00073 0.96693 122 83 55
-0.23784 -0.07246 0.94950 122 83 55
-0.20297 -0.14360 0.94893 122 83 55
-0.14600 -0.20126 0.97019 122 83 55
-0.07890 -0.23579 0.96315 122 83 55
0.00224 -0.24863 0.96592 122 83 55
0.07740 -0.23628 0.97155 122 83 55
0.14463 -0.20224 0.96444 122 83 55
0.19979 -0.14800 0.95682 122 83 55
0.23682 -0.07573 0.96181 122 83 55
0.26029 -0.00208 1.07824 122 83 55
0.24865 0.07702 1.07911 122 83 55
0.20794 0.15659 1.07485 122 83 55
0.15532 0.20888 1.08639 122 83 55
0.07652 0.24880 1.06940 122 83 55
0.00108 0.26030 1.08757 122 83 55
-0.08344 0.24657 1.08295 122 83 55
-0.14912 0.21335 1.09203 122 83 55
-0.20755 0.15710 1.07595 122 83 55
-0.24643 0.08385 1.07933 122 83 55
-0.26030 0.00025 1.06823 122 83 55
-0.24887 -0.07628 1.07501 122 83 55
-0.21190 -0.15118 1.08641 122 83 55
-0.15717 -0.20750 1.07660 122 83 55
-0.07784 -0.24839 1.07330 122 83 55
-0.00317 -0.26028 1.08029 122 83 55
0.07976 -0.24778 1.07559 122 83 55
0.15266 -0.21084 1.08982 122 83 55
0.20888 -0.15533 1.08190 122 83 55
0.24671 -0.08302 1.07047 122 83 55
0.27182 0.00174 1.20973 122 83 55
0.25919 0.08193 1.21240 122 83 55
0.21677 0.16401 1.20619 122 83 55
0.16391 0.21685 1.20864 122 83 55
0.08509 0.25817 1.20333 122 83 55
-0.00184 0.27182 1.20438 122 83 55
-0.08789 0.25722 1.20053 122 83 55
-0.15636 0.22235 1.20545 122 83 55
-0.21877 0.16133 1.20241 122 83 55
-0.25686 0.08896 1.19022 122 83 55
-0.27179 -0.00411 1.20185 122 83 55
-0.25893 -0.08272 1.20513 122 83 55
-0.21833 -0.16193 1.19447 122 83 55
-0.15671 -0.22211 1.19568 122 83 55
-0.08013 -0.25975 1.19654 122 83 55
-0.00087 -0.27182 1.21065 122 83 55
0.08137 -0.25936 1.19492 122 83 55
0.15765 -0.22144 1.19870 122 83 55
0.22137 -0.15775 1.18896 122 83 55
0.25946 -0.08105 1.19787 122 83 55
0.27778 0.00184 1.31008 122 83 55
0.26475 0.08409 1.31938 122 83 55
0.22356 0.16488 1.32153 122 83 55
0.15896 0.22781 1.31885 122 83 55
0.08695 0.26383 1.32677 122 83 55
0.00214 0.27778 1.32399 122 83 55
-0.08073 0.26580 1.32124 122 83 55
-0.16151 0.22601 1.31911 122 83 55
-0.22783 0.15894 1.32847 122 83 55
-0.26441 0.08516 1.31812 122 83 55
-0.27775 0.00430 1.32294 122 83 55
-0.26411 -0.08609 1.31902 122 83 55
-0.22773 -0.15907 1.31302 122 83 55
-0.16375 -0.22439 1.32878 122 83 55
-0.08344 -0.26496 1.31898 122 83 55
-0.00210 -0.27778 1.30927 122 83 55
0.08557 -0.26428 1.31185 122 83 55
0.16662 -0.22227 1.32565 122 83 55
0.22573 -0.16190 1.31057 122 83 55
0.26430 -0.08552 1.31032 122 83 55
0.27534 -0.00498 1.43587 122 83 55
0.26097 0.08793 1.43137 122 83 55
0.22175 0.16328 1.43563 122 83 55
0.16344 0.22164 1.44603 122 83 55
0.08821 0.26087 1.44781 122 83 55
0.00205 0.27538 1.44585 122 83 55
-0.08774 0.26103 1.44817 122 83 55
-0.15748 0.22591 1.43122 122 83 55
-0.22110 0.16417 1.43622 122 83 55
-0.26353 0.07993 1.43472 122 83 55
-0.27537 -0.00271 1.44934 122 83 55
-0.26084 -0.08829 1.44840 122 83 55
-0.22081 -0.16455 1.44093 122 83 55
-0.16217 -0.22257 1.43178 122 83 55
-0.08876 -0.26069 1.44494 122 83 55
-0.00180 -0.27538 1.43850 122 83 55
0.08675 -0.26136 1.43021 122 83 55
0.15972 -0.22434 1.43055 122 83 55
0.22189 -0.16310 1.42955 122 83 55
0.26351 -0.07998 1.43073 122 83 55
0.26572 0.00327 1.55434 122 83 55
0.25355 0.07958 1.56482 122 83 55
0.21696 0.15345 1.57218 122 83 55
0.16008 0.21212 1.56138 122 83 55
0.07806 0.25402 1.55084 122 83 55
-0.00501 0.26570 1.55336 122 83 55
-0.08347 0.25230 1.55353 122 83 55
-0.15766 0.21392 1.55683 122 83 55
-0.21783 0.15222 1.55125 122 83 55
-0.25351 0.07969 1.55862 122 83 55
-0.26571 0.00428 1.55477 122 83 55
-0.25221 -0.08374 1.55553 122 83 55
-0.21544 -0.15559 1.56446 122 83 55
-0.15550 -0.21550 1.55951 122 83 55
-0.07950 -0.25357 1.54794 122 83 55
-0.00481 -0.26570 1.56903 122 83 55
0.08232 -0.25267 1.56156 122 83 55
0.16028 -0.21197 1.56326 122 83 55
0.21416 -0.15733 1.56281 122 83 55
0.25272 -0.08218 1.55716 122 83 55
0.25337 0.00388 1.68737 122 83 55
0.24125 0.07752 1.68131 122 83 55
0.20612 0.14741 1.68042 122 83 55
0.14887 0.20506 1.69218 122 83 55
0.07751 0.24126 1.67338 122 83 55
-0.00284 0.25339 1.66927 122 83 55
-0.07349 0.24251 1.67811 122 83 55
-0.14870 0.20519 1.68707 122 83 55
-0.20436 0.14984 1.67739 122 83 55
-0.24099 0.07835 1.68101 122 83 55
-0.25340 -0.00066 1.67613 122 83 55
-0.24112 -0.07793 1.68779 122 83 55
-0.20566 -0.14804 1.67461 122 83 55
-0.14847 -0.20535 1.68668 122 83 55
-0.07486 -0.24209 1.68581 122 83 55
0.00433 -0.25337 1.67972 122 83 55
0.08200 -0.23977 1.67541 122 83 55
0.14748 -0.20607 1.67994 122 83 55
0.20671 -0.14658 1.68430 122 83 55
0.23982 -0.08184 1.68305 122 83 55
0.24416 0.00134 1.79452 122 83 55
0.23333 0.07194 1.79912 122 83 55
0.19492 0.14705 1.79089 122 83 55
0.14401 0.19717 1.81230 122 83 55
0.07632 0.23193 1.79694 122 83 55
-0.00209 0.24416 1.78754 122 83 55
-0.07611 0.23200 1.79483 122 83 55
-0.14264 0.19817 1.79989 122 83 55
-0.19922 0.14117 1.79528 122 83 55
-0.23223 0.07541 1.79284 122 83 55
-0.24415 -0.00266 1.80979 122 83 55
-0.23186 -0.07653 1.80876 122 83 55
-0.19794 -0.14295 1.79871 122 83 55
-0.14259 -0.19820 1.80540 122 83 55
-0.07881 -0.23110 1.80482 122 83 55
0.00048 -0.24417 1.80906 122 83 55
0.07468 -0.23246 1.78853 122 83 55
0.14555 -0.19604 1.81081 122 83 55
0.19812 -0.14271 1.81193 122 83 55
0.23350 -0.07138 1.79391 122 83 55
0.24235 -0.00328 1.92019 122 83 55
0.22927 0.07861 1.93138 122 83 55
0.19524 0.14362 1.91016 122 83 55
0.14486 0.19432 1.90920 122 83 55
0.07538 0.23036 1.92698 122 83 55
-0.00275 0.24236 1.93176 122 83 55
-0.07780 0.22955 1.91128 122 83 55
-0.14277 0.19586 1.92247 122 83 55
-0.19816 0.13956 1.92518 122 83 55
-0.22959 0.07768 1.91360 122 83 55
-0.24237 -0.00021 1.92204 122 83 55
-0.22905 -0.07927 1.93086 122 83 55
-0.19583 -0.14281 1.92090 122 83 55
-0.14535 -0.19395 1.92425 122 83 55
-0.07767 -0.22959 1.90794 122 83 55
-0.00439 -0.24233 1.90811 122 83 55
0.07188 -0.23147 1.91836 122 83 55
0.14388 -0.19505 1.92956 122 83 55
0.19746 -0.14056 1.90859 122 83 55
0.23033 -0.07546 1.91562 122 83 55
0.24887 -0.00119 2.02977 122 83 55
0.23571 0.07988 2.05073 122 83 55
0.20270 0.14439 2.02968 122 83 55
0.14729 0.20061 2.02757 122 83 55
0.07802 0.23633 2.03684 122 83 55
-0.00408 0.24884 2.04020 122 83 55
-0.07384 0.23767 2.03639 122 83 55
-0.14891 0.19941 2.04511 122 83 55
-0.20404 0.14250 2.02876 122 83 55
-0.23554 0.08037 2.04662 122 83 55
-0.24887 -0.00061 2.04852 122 83 55
-0.23655 -0.07735 2.04964 122 83 55
-0.19965 -0.14858 2.04178 122 83 55
-0.14531 -0.20205 2.04390 122 83 55
-0.07329 -0.23784 2.03704 122 83 55
0.00395 -0.24884 2.04508 122 83 55
0.08123 -0.23524 2.05036 122 83 55
0.14605 -0.20151 2.04932 122 83 55
0.20413 -0.14237 2.04729 122 83 55
0.23671 -0.07685 2.03929 122 83 55
0.26056 0.00501 2.15988 122 83 55
0.24769 0.08103 2.15564 122 83 55
0.21133 0.15249 2.14872 122 83 55
0.15125 0.21222 2.16448 122 83 55
0.07591 0.24931 2.15089 122 83 55
0.00399 0.26057 2.15235 122 83 55
-0.07641 0.24915 2.16117 122 83 55
-0.15672 0.20821 2.16171 122 83 55
-0.20881 0.15593 2.14997 122 83 55
-0.24702 0.08305 2.16097 122 83 55
-0.26058 0.00346 2.15776 122 83 55
-0.24772 -0.08092 2.15450 122 83 55
-0.20853 -0.15630 2.15209 122 83 55
-0.15672 -0.20821 2.15935 122 83 55
-0.08151 -0.24753 2.16929 122 83 55
-0.00504 -0.26056 2.16138 122 83 55
0.08052 -0.24785 2.16959 122 83 55
0.15631 -0.20853 2.17013 122 83 55
0.21169 -0.15200 2.16523 122 83 55
0.24785 -0.08054 2.14766 122 83 55
0.27202 -0.00388 2.28269 122 83 55
0.25741 0.08804 2.28816 122 83 55
0.21851 0.16207 2.28627 122 83 55
0.16114 0.21920 2.29111 122 83 55
0.08579 0.25817 2.29155 122 83 55
0.00506 0.27201 2.27209 122 83 55
-0.08702 0.25776 2.27844 122 83 55
-0.16026 0.21984 2.28683 122 83 55
-0.21778 0.16304 2.26995 122 83 55
-0.25844 0.08497 2.27491 122 83 55
-0.27205 -0.00039 2.27878 122 83 55
-0.25807 -0.08610 2.29111 122 83 55
-0.21944 -0.16081 2.27045 122 83 55
-0.15920 -0.22061 2.28863 122 83 55
-0.08601 -0.25810 2.27756 122 83 55
-0.00361 -0.27203 2.27935 122 83 55
0.08341 -0.25895 2.28122 122 83 55
0.16158 -0.21887 2.27802 122 83 55
0.21749 -0.16343 2.28210 122 83 55
0.25956 -0.08148 2.26809 122 83 55
0.27779 -0.00448 2.40930 122 83 55
0.26451 0.08500 2.40338 122 83 55
0.22150 0.16771 2.40713 122 83 55
0.16529 0.22332 2.40104 122 83 55
0.08989 0.26289 2.39055 122 83 55
-0.00234 0.27782 2.40735 122 83 55
-0.09091 0.26254 2.39171 122 83 55
-0.15912 0.22775 2.39926 122 83 55
-0.22661 0.16075 2.40105 122 83 55
-0.26365 0.08763 2.39088 122 83 55
-0.27778 -0.00538 2.39269 122 83 55
-0.26259 -0.09077 2.40028 122 83 55
-0.22731 -0.15975 2.39518 122 83 55
-0.16559 -0.22309 2.40317 122 83 55
-0.08828 -0.26343 2.40482 122 83 55
0.00206 -0.27782 2.41144 122 83 55
0.08182 -0.26551 2.39515 122 83 55
0.16585 -0.22290 2.39569 122 83 55
0.22233 -0.16661 2.40728 122 83 55
0.26367 -0.08757 2.40210 122 83 55
0.27522 -0.00028 2.53216 122 83 55
0.26122 0.08667 2.51529 122 83 55
0.22003 0.16534 2.51195 122 83 55
0.16412 0.22094 2.51011 122 83 55
0.08648 0.26128 2.51412 122 83 55
-0.00262 0.27521 2.51138 122 83 55
-0.08279 0.26248 2.51304 122 83 55
-0.16021 0.22379 2.51219 122 83 55
-0.22424 0.15958 2.51990 122 83 55
-0.26245 0.08287 2.53211 122 83 55
-0.27517 -0.00522 2.51348 122 83 55
-0.26188 -0.08466 2.50846 122 83 55
-0.22013 -0.16520 2.52014 122 83 55
-0.16208 -0.22244 2.50966 122 83 55
-0.08385 -0.26214 2.52774 122 83 55
0.00000 -0.27522 2.52101 122 83 55
0.08208 -0.26270 2.52469 122 83 55
0.16074 -0.22341 2.50963 122 83 55
0.21974 -0.16572 2.51124 122 83 55
0.26067 -0.08832 2.53148 122 83 55
0.26546 -0.00010 2.63155 122 83 55
0.25291 0.08064 2.64440 122 83 55
0.21212 0.15960 2.64138 122 83 55
0.15273 0.21712 2.63282 122 83 55
0.08435 0.25170 2.65235 122 83 55
-0.00207 0.26545 2.65061 122 83 55
-0.08200 0.25247 2.65004 122 83 55
-0.15242 0.21734 2.64498 122 83 55
-0.21608 0.15420 2.63947 122 83 55
-0.25329 0.07944 2.63070 122 83 55
-0.26542 -0.00465 2.63273 122 83 55
-0.25161 -0.08460 2.64477 122 83 55
-0.21364 -0.15756 2.63969 122 83 55
-0.15612 -0.21470 2.63352 122 83 55
-0.07941 -0.25330 2.63424 122 83 55
-0.00007 -0.26546 2.63470 122 83 55
0.07842 -0.25361 2.64935 122 83 55
0.15793 -0.21336 2.64896 122 83 55
0.21581 -0.15457 2.63589 122 83 55
0.25239 -0.08226 2.65094 122 83 55
0.25309 0.00432 2.77115 122 83 55
0.24143 0.07604 2.76670 122 83 55
0.20355 0.15046 2.76933 122 83 55
0.15085 0.20326 2.76033 122 83 55
0.07594 0.24146 2.77249 122 83 55
-0.00402 0.25309 2.74896 122 83 55
-0.07991 0.24018 2.75687 122 83 55
-0.14708 0.20600 2.77142 122 83 55
-0.20489 0.14863 2.77034 122 83 55
-0.23918 0.08286 2.76737 122 83 55
-0.25309 -0.00430 2.75347 122 83 55
-0.24086 -0.07783 2.75961 122 83 55
-0.20699 -0.14570 2.76768 122 83 55
-0.15051 -0.20351 2.75387 122 83 55
-0.07918 -0.24042 2.76514 122 83 55
-0.00353 -0.25310 2.75634 122 83 55
0.07621 -0.24138 2.76657 122 83 55
0.15258 -0.20197 2.76569 122 83 55
0.20202 -0.15251 2.76907 122 83 55
0.24029 -0.07956 2.75236 122 83 55
0.24399 0.00419 2.88268 122 83 55
0.23329 0.07157 2.88937 122 83 55
0.19755 0.14326 2.88519 122 83 55
0.14336 0.19747 2.88999 122 83 55
0.07329 0.23276 2.88646 122 83 55
0.00037 0.24402 2.88386 122 83 55
-0.07105 0.23345 2.87435 122 83 55
-0.14020 0.19973 2.86956 122 83 55
-0.19493 0.14680 2.87084 122 83 55
-0.23203 0.07556 2.88768 122 83 55
-0.24398 0.00439 2.88809 122 83 55
-0.23311 -0.07216 2.86982 122 83 55
-0.19874 -0.14159 2.87049 122 83 55
-0.14148 -0.19882 2.89014 122 83 55
-0.07513 -0.23217 2.86989 122 83 55
0.00034 -0.24402 2.88243 122 83 55
0.07157 -0.23329 2.88265 122 83 55
0.14325 -0.19755 2.89163 122 83 55
0.19494 -0.14678 2.88308 122 83 55
0.23354 -0.07076 2.88554 122 83 55
0.24244 0.00118 2.98953 122 83 55
0.22973 0.07747 3.00295 122 83 55
0.19815 0.13969 2.99021 122 83 55
0.14559 0.19386 3.00643 122 83 55
0.07545 0.23040 3.00728 122 83 55
-0.00180 0.24243 3.00873 122 83 55
-0.07618 0.23016 3.00909 122 83 55
-0.14582 0.19368 2.99818 122 83 55
-0.19375 0.14574 3.01145 122 83 55
-0.22916 0.07914 2.99489 122 83 55
-0.24242 -0.00261 2.99530 122 83 55
-0.23033 -0.07566 3.00542 122 83 55
-0.19419 -0.14514 2.98916 122 83 55
-0.14510 -0.19422 2.99021 122 83 55
-0.07703 -0.22987 3.00133 122 83 55
0.00063 -0.24244 2.99414 122 83 55
0.07811 -0.22951 2.99266 122 83 55
0.14145 -0.19690 2.99685 122 83 55
0.19838 -0.13936 3.01224 122 83 55
0.23176 -0.07116 2.99561 122 83 55
0.24911 0.00029 3.11956 122 83 55
0.23776 0.07435 3.11010 122 83 55
0.20294 0.14447 3.10787 122 83 55
0.14942 0.19933 3.11427 122 83 55
0.07884 0.23631 3.11964 122 83 55
-0.00231 0.24910 3.12704 122 83 55
-0.08111 0.23554 3.12669 122 83 55
-0.14247 0.20435 3.12473 122 83 55
-0.20231 0.14535 3.12812 122 83 55
-0.23603 0.07966 3.11932 122 83 55
-0.24907 -0.00452 3.13114 122 83 55
-0.23780 -0.07422 3.10789 122 83 55
-0.20227 -0.14541 3.12559 122 83 55
-0.14975 -0.19908 3.12004 122 83 55
-0.07685 -0.23696 3.12453 122 83 55
0.00117 -0.24911 3.12601 122 83 55
0.07648 -0.23708 3.12443 122 83 55
0.14545 -0.20224 3.12467 122 83 55
0.19909 -0.14973 3.11956 122 83 55
0.23725 -0.07594 3.11192 122 83 55
0.26089 0.00324 3.23188 122 83 55
0.24924 0.07715 3.23093 122 83 55
0.20927 0.15581 3.23336 122 83 55
0.15713 0.20828 3.24728 122 83 55
0.07809 0.24895 3.23957 122 83 55
-0.00138 0.26090 3.24296 122 83 55
-0.07651 0.24944 3.23407 122 83 55
-0.15029 0.21328 3.22988 122 83 55
-0.21113 0.15329 3.23971 122 83 55
-0.24730 0.08316 3.23928 122 83 55
-0.26089 -0.00297 3.23908 122 83 55
-0.24953 -0.07621 3.23003 122 83 55
-0.21324 -0.15034 3.24273 122 83 55
-0.15428 -0.21041 3.23004 122 83 55
-0.08184 -0.24774 3.23970 122 83 55
-0.00071 -0.26091 3.23599 122 83 55
0.08381 -0.24708 3.24661 122 83 55
0.14983 -0.21359 3.22822 122 83 55
0.21210 -0.15195 3.25248 122 83 55
0.24850 -0.07949 3.23848 122 83 55
0.27227 -0.00202 3.35769 122 83 55
0.25935 0.08289 3.35988 122 83 55
0.21892 0.16189 3.37210 122 83 55
0.15772 0.22195 3.35423 122 83 55
0.08024 0.26018 3.36305 122 83 55
-0.00117 0.27227 3.36356 122 83 55
-0.07983 0.26031 3.35076 122 83 55
-0.16220 0.21869 3.36362 122 83 55
-0.21959 0.16097 3.35447 122 83 55
-0.25876 0.08470 3.35362 122 83 55
-0.27227 0.00044 3.35418 122 83 55
-0.25773 -0.08781 3.36238 122 83 55
-0.21782 -0.16336 3.35395 122 83 55
-0.15760 -0.22202 3.34778 122 83 55
-0.08440 -0.25887 3.36913 122 83 55
-0.00185 -0.27227 3.35229 122 83 55
0.08153 -0.25978 3.36581 122 83 55
0.15890 -0.22110 3.35862 122 83 55
0.22309 -0.15609 3.36258 122 83 55
0.25960 -0.08211 3.37108 122 83 55
0.27787 -0.00072 3.48029 122 83 55
0.26464 0.08472 3.47416 122 83 55
0.22566 0.16214 3.49234 122 83 55
0.15959 0.22747 3.48624 122 83 55
0.08271 0.26528 3.47879 122 83 55
-0.00207 0.27786 3.47756 122 83 55
-0.08842 0.26343 3.46930 122 83 55
-0.16193 0.22581 3.47795 122 83 55
-0.22710 0.16011 3.49064 122 83 55
-0.26566 0.08148 3.48079 122 83 55
-0.27786 -0.00231 3.47126 122 83 55
-0.26418 -0.08613 3.48617 122 83 55
-0.22594 -0.16175 3.47639 122 83 55
-0.16353 -0.22466 3.47246 122 83 55
-0.08067 -0.26590 3.48325 122 83 55
0.00280 -0.27786 3.47159 122 83 55
0.08558 -0.26436 3.48774 122 83 55
0.16121 -0.22632 3.47964 122 83 55
0.22257 -0.16636 3.48947 122 83 55
0.26423 -0.08600 3.49083 122 83 55
0.27504 0.00317 3.60399 122 83 55
0.26257 0.08194 3.59378 122 83 55
0.22115 0.16355 3.59177 122 83 55
0.16108 0.22296 3.61064 122 83 55
0.08026 0.26309 3.59505 122 83 55
-0.00162 0.27506 3.61066 122 83 55
-0.08430 0.26182 3.60474 122 83 55
-0.15926 0.22426 3.61108 122 83 55
-0.22015 0.16490 3.61102 122 83 55
-0.26167 0.08478 3.60945 122 83 55
-0.27503 0.00419 3.60226 122 83 55
-0.26002 -0.08971 3.60290 122 83 55
-0.22186 -0.16259 3.59834 122 83 55
-0.16299 -0.22157 3.59580 122 83 55
-0.08422 -0.26185 3.59070 122 83 55
-0.00440 -0.27502 3.60890 122 83 55
0.08626 -0.26118 3.59248 122 83 55
0.15773 -0.22534 3.60897 122 83 55
0.22530 -0.15780 3.60867 122 83 55
0.26123 -0.08611 3.60935 122 83 55
0.26516 0.00206 3.71221 122 83 55
0.25194 0.08270 3.71809 122 83 55
0.21577 0.15413 3.72831 122 83 55
0.15861 0.21250 3.72652 122 83 55
0.08590 0.25087 3.73047 122 83 55
0.00238 0.26516 3.73242 122 83 55
-0.08384 0.25156 3.70813 122 83 55
-0.15601 0.21442 3.72322 122 83 55
-0.21617 0.15357 3.72170 122 83 55
-0.25128 0.08469 3.72571 122 83 55
-0.26516 0.00220 3.72247 122 83 55
-0.25351 -0.07777 3.71543 122 83 55
-0.21525 -0.15486 3.71082 122 83 55
-0.15806 -0.21291 3.72458 122 83 55
-0.08646 -0.25068 3.71746 122 83 55
0.00422 -0.26513 3.72403 122 83 55
0.08637 -0.25071 3.72379 122 83 55
0.15799 -0.21296 3.71104 122 83 55
0.21471 -0.15560 3.71859 122 83 55
0.25318 -0.07882 3.71549 122 83 55
0.25284 -0.00016 3.83961 122 83 55
0.24056 0.07784 3.83895 122 83 55
0.20674 0.14556 3.83978 122 83 55
0.14555 0.20675 3.83172 122 83 55
0.08069 0.23962 3.84404 122 83 55
-0.00424 0.25281 3.83971 122 83 55
-0.07892 0.24021 3.84411 122 83 55
-0.14853 0.20462 3.83395 122 83 55
-0.20744 0.14457 3.83474 122 83 55
-0.24112 0.07609 3.84184 122 83 55
-0.25283 -0.00288 3.83102 122 83 55
-0.24091 -0.07676 3.83564 122 83 55
-0.20231 -0.15165 3.82808 122 83 55
-0.14719 -0.20559 3.82972 122 83 55
-0.07399 -0.24178 3.85011 122 83 55
-0.00243 -0.25283 3.84952 122 83 55
0.07670 -0.24093 3.84248 122 83 55
0.15093 -0.20285 3.84140 122 83 55
0.20720 -0.14491 3.84153 122 83 55
0.24093 -0.07670 3.84864 122 83 55
0.24388 0.00101 3.95824 122 83 55
0.23068 0.07917 3.95542 122 83 55
0.19855 0.14163 3.95284 122 83 55
0.14692 0.19467 3.96647 122 83 55
0.07827 0.23099 3.95406 122 83 55
0.00122 0.24388 3.96672 122 83 55
-0.07939 0.23060 3.95760 122 83 55
-0.14138 0.19873 3.96114 122 83 55
-0.19443 0.14723 3.97004 122 83 55
-0.23137 0.07713 3.95163 122 83 55
-0.24386 -0.00371 3.95030 122 83 55
-0.23232 -0.07422 3.96865 122 83 55
-0.19667 -0.14423 3.97223 122 83 55
-0.14054 -0.19932 3.97187 122 83 55
-0.07311 -0.23267 3.96806 122 83 55
0.00172 -0.24388 3.97019 122 83 55
0.07816 -0.23102 3.96881 122 83 55
0.14048 -0.19936 3.96769 122 83 55
0.19910 -0.14085 3.96378 122 83 55
0.23104 -0.07812 3.94855 122 83 55
0.24251 0.00039 4.07778 122 83 55
0.23183 0.07117 4.08998 122 83 55
0.19688 0.14160 4.08084 122 83 55
0.14439 0.19483 4.08352 122 83 55
0.07791 0.22965 4.07124 122 83 55
0.00419 0.24247 4.07152 122 83 55
-0.07346 0.23111 4.07945 122 83 55
-0.14414 0.19502 4.08642 122 83 55
-0.19331 0.14643 4.07117 122 83 55
-0.22993 0.07709 4.08726 122 83 55
-0.24249 0.00318 4.08948 122 83 55
-0.22913 -0.07944 4.07362 122 83 55
-0.19854 -0.13926 4.07191 122 83 55
-0.13869 -0.19893 4.07867 122 83 55
-0.07788 -0.22966 4.08991 122 83 55
-0.00381 -0.24248 4.07925 122 83 55
0.07449 -0.23079 4.08904 122 83 55
0.14394 -0.19517 4.09213 122 83 55
0.19373 -0.14587 4.08978 122 83 55
0.22997 -0.07697 4.08179 122 83 55
0.24935 0.00058 4.20991 122 83 55
0.23617 0.08002 4.20641 122 83 55
0.19967 0.14936 4.21076 122 83 55
0.14663 0.20169 4.19490 122 83 55
0.08099 0.23584 4.19577 122 83 55
-0.00063 0.24935 4.19921 122 83 55
-0.08162 0.23562 4.19627 122 83 55
-0.14918 0.19981 4.19720 122 83 55
-0.19895 0.15032 4.21034 122 83 55
-0.23653 0.07894 4.20276 122 83 55
-0.24931 -0.00452 4.19714 122 83 55
-0.23681 -0.07811 4.20113 122 83 55
-0.20379 -0.14370 4.20008 122 83 55
-0.14331 -0.20406 4.19845 122 83 55
-0.08130 -0.23573 4.20884 122 83 55
-0.00109 -0.24935 4.21096 122 83 55
0.07842 -0.23670 4.20092 122 83 55
0.14948 -0.19959 4.20058 122 83 55
0.20184 -0.14642 4.21031 122 83 55
0.23774 -0.07521 4.19468 122 83 55
0.26120 -0.00261 4.32159 122 83 55
0.24926 0.07809 4.32914 122 83 55
0.20822 0.15772 4.32929 122 83 55
0.15246 0.21210 4.32018 122 83 55
0.08017 0.24860 4.32853 122 83 55
0.00132 0.26121 4.32163 122 83 55
-0.07862 0.24910 4.30924 122 83 55
-0.15158 0.21273 4.33031 122 83 55
-0.21244 0.15199 4.33234 122 83 55
-0.24836 0.08091 4.30899 122 83 55
-0.26121 0.00080 4.32785 122 83 55
-0.24714 -0.08456 4.33206 122 83 55
-0.21279 -0.15150 4.32578 122 83 55
-0.14937 -0.21428 4.33059 122 83 55
-0.08521 -0.24692 4.31709 122 83 55
0.00487 -0.26116 4.32486 122 83 55
0.08290 -0.24771 4.32338 122 83 55
0.15550 -0.20988 4.31322 122 83 55
0.20896 -0.15674 4.30981 122 83 55
0.24689 -0.08530 4.31788 122 83 55
0.27246 0.00431 4.42756 122 83 55
0.25759 0.08889 4.43920 122 83 55
0.21772 0.16386 4.43789 122 83 55
0.16159 0.21941 4.43637 122 83 55
0.07962 0.26060 4.44635 122 83 55
0.00447 0.27246 4.42857 122 83 55
-0.08298 0.25955 4.43201 122 83 55
-0.15811 0.22193 4.44214 122 83 55
-0.22083 0.15965 4.43763 122 83 55
-0.25887 0.08508 4.43526 122 83 55
-0.27249 -0.00223 4.44797 122 83 55
-0.25859 -0.08593 4.44306 122 83 55
-0.22020 -0.16052 4.43000 122 83 55
-0.16056 -0.22017 4.43240 122 83 55
-0.08602 -0.25856 4.44448 122 83 55
0.00441 -0.27246 4.44159 122 83 55
0.08542 -0.25876 4.44515 122 83 55
0.15786 -0.22211 4.43669 122 83 55
0.21826 -0.16314 4.43765 122 83 55
0.26008 -0.08131 4.44745 122 83 55
0.27790 0.00150 4.57180 122 83 55
0.26479 0.08435 4.57176 122 83 55
0.22682 0.16057 4.55693 122 83 55
0.16578 0.22304 4.55427 122 83 55
0.09092 0.26261 4.56626 122 83 55
-0.00355 0.27788 4.57065 122 83 55
-0.08421 0.26484 4.55270 122 83 55
-0.16655 0.22247 4.55540 122 83 55
-0.22539 0.16258 4.55446 122 83 55
-0.26516 0.08319 4.56740 122 83 55
-0.27790 -0.00192 4.55535 122 83 55
-0.26505 -0.08353 4.54863 122 83 55
-0.22406 -0.16440 4.56065 122 83 55
-0.15984 -0.22733 4.55256 122 83 55
-0.08166 -0.26563 4.56097 122 83 55
-0.00272 -0.27789 4.55518 122 83 55
0.08379 -0.26497 4.56253 122 83 55
0.16655 -0.22247 4.56790 122 83 55
0.22288 -0.16599 4.56858 122 83 55
0.26489 -0.08405 4.55253 122 83 55
0.27489 -0.00047 4.67310 122 83 55
0.26200 0.08318 4.69014 122 83 55
0.22312 0.16058 4.66893 122 83 55
0.16331 0.22113 4.67153 122 83 55
0.08430 0.26165 4.67393 122 83 55
-0.00479 0.27485 4.67868 122 83 55
-0.08282 0.26212 4.68485 122 83 55
-0.16080 0.22296 4.68235 122 83 55
-0.21989 0.16496 4.67506 122 83 55
-0.25970 0.09012 4.68753 122 83 55
-0.27489 -0.00107 4.68821 122 83 55
-0.26265 -0.08111 4.66972 122 83 55
-0.22359 -0.15992 4.67651 122 83 55
-0.16486 -0.21997 4.69111 122 83 55
-0.08138 -0.26257 4.66836 122 83 55
0.00225 -0.27488 4.67202 122 83 55
0.07975 -0.26307 4.68122 122 83 55
0.16189 -0.22216 4.67431 122 83 55
0.22462 -0.15847 4.67720 122 83 55
0.26136 -0.08519 4.68461 122 83 55
0.26482 0.00529 4.80967 122 83 55
0.25268 0.07944 4.81150 122 83 55
0.21483 0.15495 4.80081 122 83 55
0.15342 0.21592 4.80210 122 83 55
0.08013 0.25246 4.79104 122 83 55
0.00372 0.26485 4.80960 122 83 55
-0.07991 0.25254 4.80759 122 83 55
-0.15556 0.21438 4.79973 122 83 55
-0.21653 0.15257 4.80586 122 83 55
-0.25241 0.08029 4.79025 122 83 55
-0.26487 -0.00109 4.79802 122 83 55
-0.25147 -0.08319 4.80384 122 83 55
-0.21659 -0.15248 4.80533 122 83 55
-0.15596 -0.21409 4.81106 122 83 55
-0.08379 -0.25127 4.80595 122 83 55
0.00047 -0.26488 4.80133 122 83 55
0.07942 -0.25269 4.80714 122 83 55
0.15945 -0.21151 4.80086 122 83 55
0.21311 -0.15730 4.80145 122 83 55
0.25347 -0.07688 4.78824 122 83 55
0.25254 -0.00348 4.91784 122 83 55
0.24071 0.07647 4.90903 122 83 55
0.20344 0.14968 4.92025 122 83 55
0.15185 0.20182 4.93241 122 83 55
0.07348 0.24164 4.93181 122 83 55
-0.00379 0.25254 4.91898 122 83 55
-0.07393 0.24150 4.91974 122 83 55
-0.15226 0.20151 4.92512 122 83 55
-0.20504 0.14748 4.93178 122 83 55
-0.24058 0.07690 4.92554 122 83 55
-0.25253 -0.00432 4.91149 122 83 55
-0.24057 -0.07691 4.92187 122 83 55
-0.20416 -0.14869 4.91590 122 83 55
-0.15136 -0.20219 4.92653 122 83 55
-0.07937 -0.23977 4.92036 122 83 55
0.00464 -0.25252 4.92217 122 83 55
0.08073 -0.23932 4.92640 122 83 55
0.14459 -0.20708 4.92836 122 83 55
0.20626 -0.14576 4.92020 122 83 55
0.23989 -0.07901 4.91346 122 83 55
0.24375 -0.00000 5.02978 122 83 55
0.23276 0.07237 5.04070 122 83 55
0.19483 0.14648 5.04607 122 83 55
0.14384 0.19679 5.02901 122 83 55
0.07437 0.23213 5.04856 122 83 55
-0.00421 0.24372 5.03514 122 83 55
-0.07487 0.23197 5.03303 122 83 55
-0.14381 0.19681 5.04494 122 83 55
-0.19905 0.14070 5.04467 122 83 55
-0.23324 0.07081 5.04305 122 83 55
-0.24371 0.00475 5.03155 122 83 55
-0.23111 -0.07747 5.04128 122 83 55
-0.19959 -0.13993 5.02928 122 83 55
-0.14599 -0.19520 5.04238 122 83 55
-0.07420 -0.23219 5.04934 122 83 55
0.00115 -0.24375 5.05209 122 83 55
0.07180 -0.23294 5.04928 122 83 55
0.14657 -0.19477 5.03357 122 83 55
0.19918 -0.14051 5.04494 122 83 55
0.23308 -0.07136 5.02966 122 83 55
0.24258 0.00027 5.15031 122 83 55
0.22979 0.07775 5.15455 122 83 55
0.19797 0.14019 5.14769 122 83 55
0.14350 0.19559 5.14777 122 83 55
0.07041 0.23214 5.16631 122 83 55
-0.00037 0.24258 5.15973 122 83 55
-0.07762 0.22983 5.15440 122 83 55
-0.14321 0.19580 5.16898 122 83 55
-0.19860 0.13929 5.16068 122 83 55
-0.22941 0.07885 5.16313 122 83 55
-0.24258 0.00110 5.15248 122 83 55
-0.23035 -0.07607 5.15103 122 83 55
-0.19714 -0.14136 5.16901 122 83 55
-0.14346 -0.19561 5.17054 122 83 55
-0.07305 -0.23132 5.16969 122 83 55
0.00083 -0.24258 5.16725 122 83 55
0.07193 -0.23167 5.16829 122 83 55
0.13926 -0.19862 5.15070 122 83 55
0.19371 -0.14601 5.15045 122 83 55
0.23163 -0.07207 5.16610 122 83 55
0.24959 0.00200 5.27280 122 83 55
0.23635 0.08024 5.27063 122 83 55
0.20312 0.14506 5.28370 122 83 55
0.14285 0.20468 5.26972 122 83 55
0.07726 0.23734 5.28144 122 83 55
-0.00127 0.24960 5.26996 122 83 55
-0.07295 0.23870 5.28229 122 83 55
-0.15065 0.19901 5.28653 122 83 55
-0.20198 0.14665 5.27677 122 83 55
-0.23841 0.07391 5.27431 122 83 55
-0.24960 0.00123 5.28904 122 83 55
-0.23667 -0.07931 5.28797 122 83 55
-0.20110 -0.14785 5.27542 122 83 55
-0.15020 -0.19935 5.27281 122 83 55
-0.07696 -0.23744 5.28419 122 83 55
0.00041 -0.24960 5.27419 122 83 55
0.07669 -0.23753 5.28028 122 83 55
0.14939 -0.19996 5.28460 122 83 55
0.20024 -0.14901 5.26960 122 83 55
0.23767 -0.07625 5.27893 122 83 55
